<svg xmlns="http://www.w3.org/2000/svg" viewBox="-1.94 -6.52 64 64" width="64" height="64"><g transform="matrix(.13573 0 0 .13573 -10.658943 93.65742)"><path d="M428.4-643.04l-1.9-1-127.9-93.4-214.8 161.4 41.1 30h-.1L301-417.44l215.1-161.6zm-286.1 36.4l115.8-87 32.3 23.5-115.8 87zm189.9 91.3l-31.9 24-116.7-85.2 115.7-86.9 75.5 55.1-83.8 63zm51.6-86.4l32.2 23.5-74.9 56.2-32.2-23.5zm47.4 25.8l2.2-1.9.7-.5-41.3-30.1 31.9-24 73.5 53.6-115.8 87-32-23.3zm-47.4-39.2L267-700.34l31.7-23.8 116.7 85.2zm-250.4 15.2l32.3 23.5-31.7 23.8-32.3-23.5zm41.3 30.1l117 85.4-31.7 23.8-117-85.4zm166.8 61.3l32 23.3-72.5 54.5-32-23.3z" fill="#00b0ad"/><g transform="translate(0 -747.04)"><linearGradient y2="147.705" x2="299.944" y1="609.477" x1="299.944" gradientUnits="userSpaceOnUse" id="A"><stop offset="0" stop-color="#d1e1d7"/><stop offset="1" stop-color="#00b0ad"/></linearGradient><g fill="url(#A)"><path d="M299.9 480.5c-1.2 0-2.3-.4-3.4-1.1L85.1 327.8c-2.1-1.5-3.4-4.3-3.4-7.3s1.3-5.8 3.4-7.3l105.7-75.8 6.8 14.5-95.6 68.6 197.9 141.9 197.9-141.9-95.5-68.5 6.8-14.5 105.7 75.8c2.1 1.5 3.4 4.3 3.4 7.3s-1.3 5.8-3.4 7.3L303.3 479.4c-1 .7-2.2 1.1-3.4 1.1z"/><path d="M299.9 328.9c-1.2 0-2.3-.4-3.4-1.1L85.1 176.2c-2.1-1.5-3.4-4.3-3.4-7.3s1.3-5.8 3.4-7.3L296.6 10.1c2.1-1.5 4.7-1.5 6.8 0l211.5 151.6c2.1 1.5 3.4 4.3 3.4 7.3s-1.3 5.8-3.4 7.3L303.3 327.8c-1 .8-2.2 1.1-3.4 1.1zM102 169l197.9 141.9 198-141.9-198-141.9z"/></g><linearGradient y2="147.705" x2="88.465" y1="609.477" x1="88.465" gradientUnits="userSpaceOnUse" id="B"><stop offset="0" stop-color="#d1e1d7"/><stop offset="1" stop-color="#00b0ad"/></linearGradient><path d="M81.7 169h13.5v151.6H81.7z" fill="url(#B)"/></g></g></svg>