<svg xmlns="http://www.w3.org/2000/svg" viewBox="0 0 2851 854">
 <g fill="none" stroke="#093754" stroke-width="34" transform="translate(1847 17)">
  <circle cx="58" cy="529" r="58"/>
  <circle cx="58" cy="263" r="58"/>
  <path stroke-width="100" d="M596 101 234 721"/>
  <circle cx="210" cy="762" r="58"/>
  <circle cx="621" cy="58" r="58"/>
  <g stroke="#0f564d">
   <path stroke-width="100" d="M904 101 542 721"/>
   <circle cx="929" cy="58" r="58"/>
   <circle cx="518" cy="762" r="58"/>
  </g>
 </g>
 <path fill="#093754" d="M1514 117c-32 0-66 7-66 48 0 42 38 48 66 48h76v545h-76c-32 0-66 7-66 48 0 42 38 48 66 48h244c28 0 66-6 66-48 0-41-34-48-66-48h-72V184c0-57-16-67-71-67zM252 315c-56 0-79 1-124 38l-71 59C11 450 0 479 0 538v93c0 59 11 88 57 126l71 59c45 37 68 38 124 38h152c32 0 66-7 66-48 0-42-38-48-66-48H235c-19 0-38-10-55-24l-58-49c-15-12-26-22-26-41V525c0-19 11-29 26-41l58-49c17-14 36-24 55-24h169c28 0 66-6 66-48 0-41-34-48-66-48zm316 0c-44 0-49 37-48 72l10 302c2 52 1 93 44 130 32 27 62 35 89 35h71c26 0 52-12 83-32l78-51v16c0 33 7 67 48 67 51 0 47-49 47-71V381c0-33-7-66-48-66s-48 33-48 66v279l-141 89q-13.5 9-30 9h-32c-23 0-48-6-56-20s-9-40-10-62l-10-295c-1-31-6-66-47-66m520 0c-44 0-48 36-48 71v402c0 33 7 66 48 66s48-33 48-66V545l134-111c17-14 30-23 48-23h28c23 0 46 0 58 17 10 14 10 26 10 42 0 31 14 59 49 59 41 0 47-34 47-67 0-44-11-77-43-109-26-26-57-38-94-38h-77c-30 0-58 19-85 41l-75 62v-39c0-32-10-64-48-64"/>
</svg>
