<svg width="177" height="49" viewBox="0 0 177 49" fill="none" xmlns="http://www.w3.org/2000/svg">
<path d="M60.8842 4.65414V5.41322H59.1825V6.45696H60.5061V7.12115H59.1825V8.73419H58.237V4.65414H60.8842Z" fill="white"/>
<path d="M63.0593 4.65325V7.97421H64.6665V8.73329H62.1139V4.65325H63.0593Z" fill="white"/>
<path d="M68.4478 4.65325L69.7714 8.73329H68.826L68.5423 7.78444H67.0296L66.746 8.73329H65.8951L67.2187 4.65325H68.4478ZM68.2587 7.12025L67.6914 5.31744L67.1242 7.12025H68.2587Z" fill="white"/>
<path d="M72.138 4.65325L73.6507 7.31002V4.65325H74.5016V8.73329H73.5561L71.8543 5.79186V8.73329H71.0034V4.65325H72.138Z" fill="white"/>
<path d="M75.7258 5.31744V4.65325H78.8458V5.41232H77.7113V8.73329H76.7658V5.31744H75.7258Z" fill="white"/>
<path d="M62.1353 33.6888C65.2508 33.6888 67.5043 35.912 67.5043 38.9822C67.5043 42.0523 65.2508 44.2755 62.1353 44.2755H58.1426V33.6888H62.1353ZM62.0899 42.1582C63.9048 42.1582 65.1601 40.8273 65.1601 38.9822C65.1601 37.1068 63.9048 35.8213 62.0899 35.8213H60.4263V42.1582H62.0899Z" fill="white"/>
<path d="M73.073 44.5175C70.5473 44.5175 68.6569 42.6572 68.6569 40.1921C68.6569 37.7269 70.5473 35.8818 73.073 35.8818C75.5987 35.8818 77.4892 37.7269 77.4892 40.1921C77.4892 42.6572 75.5987 44.5175 73.073 44.5175ZM73.073 42.4304C74.3434 42.4304 75.2508 41.523 75.2508 40.1921C75.2508 38.8763 74.3434 37.9537 73.073 37.9537C71.8026 37.9537 70.8952 38.8763 70.8952 40.1921C70.8952 41.523 71.8026 42.4304 73.073 42.4304Z" fill="white"/>
<path d="M82.8781 44.5175C80.4129 44.5175 78.5376 42.627 78.5376 40.1769C78.5376 37.7269 80.4129 35.8818 82.8932 35.8818C85.0105 35.8818 86.6439 37.2278 87.0371 39.2393H84.8442C84.4963 38.4377 83.7553 37.9537 82.8781 37.9537C81.6833 37.9537 80.7759 38.9217 80.7759 40.1921C80.7759 41.4473 81.6984 42.4304 82.8781 42.4304C83.7704 42.4304 84.4661 41.9464 84.8442 41.0692H87.0674C86.6893 43.1261 85.0105 44.5175 82.8781 44.5175Z" fill="white"/>
<path d="M92.2549 44.5175C89.956 44.5175 88.4134 43.0353 88.4134 40.8273V36.1086H90.6215V40.5853C90.6215 41.7498 91.2416 42.4304 92.2549 42.4304C93.2833 42.4304 93.8882 41.7347 93.8882 40.5853V36.1086H96.0963V40.8273C96.0963 43.0353 94.5688 44.5175 92.2549 44.5175Z" fill="white"/>
<path d="M107.391 35.9271C109.085 35.9271 110.264 37.2429 110.264 39.1636V44.2755H108.056V39.5266C108.056 38.4377 107.633 37.863 106.831 37.863C105.848 37.863 105.258 38.5889 105.258 39.8593V44.2755H103.111V39.5266C103.111 38.4377 102.687 37.863 101.901 37.863C100.903 37.863 100.313 38.5889 100.313 39.8593V44.2755H98.1049V36.1086H99.6476L100.056 37.1219C100.631 36.396 101.523 35.9271 102.491 35.9271C103.534 35.9271 104.381 36.4111 104.865 37.2278C105.425 36.4414 106.347 35.9271 107.391 35.9271Z" fill="white"/>
<path d="M120.223 40.1769C120.223 40.3887 120.208 40.6004 120.178 40.8121H113.992C114.189 41.9313 114.915 42.5514 115.988 42.5514C116.76 42.5514 117.395 42.1884 117.728 41.5986H120.042C119.452 43.3832 117.894 44.5175 115.988 44.5175C113.584 44.5175 111.754 42.6421 111.754 40.1921C111.754 37.742 113.569 35.8818 115.988 35.8818C118.499 35.8818 120.223 37.8176 120.223 40.1769ZM115.988 37.7722C115.005 37.7722 114.31 38.347 114.053 39.3149H118.015C117.697 38.3167 116.987 37.7722 115.988 37.7722Z" fill="white"/>
<path d="M126.438 35.9271C128.298 35.9271 129.463 37.258 129.463 39.33V44.2755H127.255V39.693C127.255 38.4528 126.786 37.863 125.833 37.863C124.699 37.863 124.003 38.6797 124.003 39.9954V44.2755H121.795V36.1086H123.307L123.731 37.1219C124.351 36.396 125.334 35.9271 126.438 35.9271Z" fill="white"/>
<path d="M135.417 42.3094H136.415V44.2755H134.843C133.043 44.2755 131.939 43.1714 131.939 41.3717V37.8932H130.472V37.4093L133.693 33.9913H134.117V36.1086H136.37V37.8932H134.147V41.0692C134.147 41.8557 134.601 42.3094 135.417 42.3094Z" fill="white"/>
<path d="M144.504 36.1086H146.152V44.2755H144.428L144.232 43.5344C143.536 44.1545 142.628 44.5175 141.585 44.5175C139.135 44.5175 137.305 42.6572 137.305 40.1921C137.305 37.7269 139.135 35.8818 141.585 35.8818C142.644 35.8818 143.566 36.2599 144.277 36.8799L144.504 36.1086ZM141.766 42.4304C143.052 42.4304 143.99 41.4776 143.99 40.1921C143.99 38.9065 143.052 37.9537 141.766 37.9537C140.481 37.9537 139.543 38.9065 139.543 40.1921C139.543 41.4625 140.481 42.4304 141.766 42.4304Z" fill="white"/>
<path d="M152.284 42.3094H153.282V44.2755H151.709C149.909 44.2755 148.805 43.1714 148.805 41.3717V37.8932H147.338V37.4093L150.56 33.9913H150.983V36.1086H153.237V37.8932H151.013V41.0692C151.013 41.8557 151.467 42.3094 152.284 42.3094Z" fill="white"/>
<path d="M154.79 35.0197V32.978H156.983V35.0197H154.79ZM154.79 44.2755V36.1086H156.998V44.2755H154.79Z" fill="white"/>
<path d="M162.989 44.5175C160.463 44.5175 158.573 42.6572 158.573 40.1921C158.573 37.7269 160.463 35.8818 162.989 35.8818C165.514 35.8818 167.405 37.7269 167.405 40.1921C167.405 42.6572 165.514 44.5175 162.989 44.5175ZM162.989 42.4304C164.259 42.4304 165.167 41.523 165.167 40.1921C165.167 38.8763 164.259 37.9537 162.989 37.9537C161.718 37.9537 160.811 38.8763 160.811 40.1921C160.811 41.523 161.718 42.4304 162.989 42.4304Z" fill="white"/>
<path d="M173.641 35.9271C175.501 35.9271 176.666 37.258 176.666 39.33V44.2755H174.458V39.693C174.458 38.4528 173.989 37.863 173.036 37.863C171.902 37.863 171.206 38.6797 171.206 39.9954V44.2755H168.998V36.1086H170.51L170.934 37.1219C171.554 36.396 172.537 35.9271 173.641 35.9271Z" fill="white"/>
<path d="M24.8662 31.5065H18.3427V18.4124H24.8662C28.4589 18.4124 31.3897 21.3538 31.3897 24.9594C31.3897 28.5651 28.4589 31.5065 24.8662 31.5065Z" fill="#0064FF"/>
<path d="M12.7634 19.1711L9.26529 15.6604L0 24.9591L9.26529 34.2578L12.7634 30.6522L10.9671 28.9442V20.9739L12.7634 19.1711Z" fill="white"/>
<path d="M38.5732 15.6604L35.0751 19.1711L36.7769 20.9739V28.9442L35.0751 30.6522L38.5732 34.2578L47.8385 24.9591L38.5732 15.6604Z" fill="white"/>
<path d="M14.6529 10.2518L18.1511 13.7626L19.9474 11.9598H27.8891L29.5909 13.7626L33.1835 10.2518L23.9182 0.953125L14.6529 10.2518Z" fill="white"/>
<path d="M31.3872 37.8633L29.5909 36.1554L27.8891 37.8633H19.9474L18.1511 36.1554L14.6529 39.6661L23.9182 48.9648L33.1835 39.6661L31.3872 37.8633Z" fill="white"/>
<path d="M67.6012 20.8808C67.6012 23.9171 65.3321 26.1943 62.2122 26.1943H58.2414V15.6621H62.2122C65.3321 15.6621 67.6012 17.8444 67.6012 20.8808ZM65.2376 20.8808C65.2376 18.9831 64.0085 17.7496 62.1177 17.7496H60.5104V24.1068H62.2122C64.0085 24.1068 65.2376 22.7784 65.2376 20.8808Z" fill="#0064FF"/>
<path d="M77.2422 22.7787H71.0969C71.286 23.9174 72.0423 24.4867 73.0823 24.4867C73.8387 24.4867 74.5005 24.1071 74.7841 23.5378H77.1477C76.5804 25.3406 74.9732 26.4792 73.0823 26.4792C70.6242 26.4792 68.8279 24.5816 68.8279 22.1145C68.8279 19.6475 70.6242 17.7498 73.0823 17.7498C75.635 17.7498 77.3368 19.6475 77.3368 22.0197C77.3368 22.3687 77.3001 22.6087 77.2422 22.7787ZM71.0969 21.2606H75.0677C74.7841 20.2168 74.0278 19.7424 73.0823 19.7424C72.0423 19.7424 71.3805 20.3117 71.0969 21.2606Z" fill="#0064FF"/>
<path d="M82.6344 26.4793C80.1762 26.4793 78.2854 24.5816 78.2854 22.1146C78.2854 19.6476 80.1762 17.8447 82.6344 17.8447C84.7143 17.8447 86.4161 19.1731 86.7943 21.1657H84.6198C84.2416 20.3117 83.4853 19.9322 82.6344 19.9322C81.4053 19.9322 80.5544 20.8811 80.5544 22.2094C80.5544 23.5378 81.4999 24.4867 82.6344 24.4867C83.4853 24.4867 84.2416 24.0123 84.6198 23.1583H86.8889C86.4161 25.056 84.7143 26.4793 82.6344 26.4793Z" fill="#0064FF"/>
<path d="M93.2221 26.2891L90.5748 22.3988V26.2891H88.4003V15.0927H90.5748V21.7346L93.033 18.129H95.5856L92.8439 22.0193L95.8693 26.2891H93.2221Z" fill="#0064FF"/>
<path d="M104.569 21.2602V26.2891H102.395V21.6398C102.395 20.4063 101.922 19.8369 100.977 19.8369C99.842 19.8369 99.1802 20.596 99.1802 22.0193V26.2891H97.0057V15.0927H99.1802V18.7932C99.842 18.2239 100.693 17.8444 101.638 17.8444C103.435 17.8444 104.569 19.1727 104.569 21.2602Z" fill="#0064FF"/>
<path d="M105.985 22.1145C105.985 19.6475 107.876 17.7498 110.428 17.7498C112.981 17.7498 114.872 19.5527 114.872 22.1145C114.872 24.5816 112.981 26.4792 110.428 26.4792C107.876 26.4792 105.985 24.5816 105.985 22.1145ZM112.603 22.1145C112.603 20.7862 111.657 19.8373 110.428 19.8373C109.199 19.8373 108.254 20.7862 108.254 22.1145C108.254 23.4429 109.199 24.3918 110.428 24.3918C111.657 24.3918 112.603 23.4429 112.603 22.1145Z" fill="#0064FF"/>
<path d="M116.29 22.7788V18.0345H118.464V22.4941C118.464 23.6327 119.126 24.3918 120.071 24.3918C121.111 24.3918 121.679 23.7276 121.679 22.4941V18.0345H123.853V22.7788C123.853 24.9611 122.34 26.4793 119.977 26.4793C117.802 26.4793 116.29 24.9611 116.29 22.7788Z" fill="#0064FF"/>
<path d="M128.863 26.4793C126.783 26.4793 125.459 25.3406 125.459 23.5378H127.634C127.634 24.2969 128.201 24.6764 128.958 24.6764C129.525 24.6764 130.092 24.3918 130.092 23.8225C130.092 23.2532 129.336 23.0634 128.485 22.9685C127.161 22.7788 125.554 22.3992 125.554 20.5015C125.554 18.9834 126.878 17.8447 128.863 17.8447C130.848 17.8447 132.172 18.9834 132.172 20.5964H130.092C130.092 19.9322 129.619 19.6476 128.863 19.6476C128.201 19.6476 127.728 19.9322 127.728 20.4066C127.728 20.9759 128.39 21.0708 129.241 21.2606C130.565 21.5452 132.267 21.8299 132.267 23.8225C132.267 25.4355 130.848 26.4793 128.863 26.4793Z" fill="#0064FF"/>
<path d="M141.723 22.7787H135.578C135.767 23.9174 136.524 24.4867 137.564 24.4867C138.32 24.4867 138.982 24.1071 139.265 23.5378H141.629C141.062 25.3406 139.454 26.4792 137.564 26.4792C135.105 26.4792 133.309 24.5816 133.309 22.1145C133.309 19.6475 135.105 17.7498 137.564 17.7498C140.116 17.7498 141.818 19.6475 141.818 22.0197C141.818 22.3043 141.818 22.589 141.723 22.7787ZM135.673 21.2606H139.643C139.36 20.2168 138.604 19.7424 137.658 19.7424C136.618 19.7424 135.862 20.3117 135.673 21.2606Z" fill="#0064FF"/>
</svg>
