<svg width="267" height="84" viewBox="0 0 267 84" fill="none" xmlns="http://www.w3.org/2000/svg">
<path d="M43.8513 53.569H32.499V30.8645H43.8513C50.1033 30.8645 55.2036 35.9648 55.2036 42.2168C55.2036 48.4688 50.1033 53.569 43.8513 53.569Z" fill="#0064FF"/>
<path d="M22.792 32.3452L16.7046 26.0933L0.581055 42.2168L16.7046 58.3403L22.792 52.2528L19.666 49.1269V35.3067L22.792 32.3452Z" fill="#00003C"/>
<path d="M67.7076 26.0933L61.6201 32.3452L64.5816 35.3067V49.1269L61.6201 52.2528L67.7076 58.3403L83.8311 42.2168L67.7076 26.0933Z" fill="#00003C"/>
<path d="M26.083 16.7153L32.1705 22.8028L35.2964 19.8413H49.1166L52.0781 22.8028L58.33 16.7153L42.2065 0.591797L26.083 16.7153Z" fill="#00003C"/>
<path d="M55.2041 64.7568L52.0781 61.6309L49.1166 64.7568H35.2964L32.1705 61.6309L29.209 64.7568L26.083 67.7183L42.2065 83.8418L58.33 67.7183L55.2041 64.7568Z" fill="#00003C"/>
<path d="M106.535 7.00836V8.32456H103.574V10.1344H105.877V11.286H103.574V14.083H101.929V7.00836H106.535Z" fill="#00003C"/>
<path d="M110.319 7.00836V12.7668H113.116V14.083H108.674V7.00836H110.319Z" fill="#00003C"/>
<path d="M119.697 7.00836L122 14.083H120.355L119.862 12.4377H117.229L116.736 14.083H115.255L117.558 7.00836H119.697ZM119.368 11.286L118.381 8.16004L117.558 11.286H119.368Z" fill="#00003C"/>
<path d="M126.114 7.00836L128.746 11.6151V7.00836H130.227V14.083H128.582L125.62 8.98267V14.083H124.14V7.00836H126.114V7.00836Z" fill="#00003C"/>
<path d="M132.366 8.32456V7.00836H137.796V8.32456H135.821V14.083H134.176V8.32456H132.366Z" fill="#00003C"/>
<path d="M118.217 35.3068C118.217 40.5716 114.268 44.5202 108.839 44.5202H101.929V26.0933H108.839C114.268 26.0933 118.217 29.8774 118.217 35.3068ZM114.104 35.3068C114.104 32.0162 111.965 29.8774 108.674 29.8774H105.877V40.9006H108.839C111.965 40.7361 114.104 38.4327 114.104 35.3068Z" fill="#0064FF"/>
<path d="M134.998 38.4328H124.304C124.633 40.4071 125.949 41.3942 127.759 41.3942C129.075 41.3942 130.227 40.7361 130.721 39.749H134.834C133.847 42.875 131.05 44.8493 127.759 44.8493C123.481 44.8493 120.355 41.5588 120.355 37.2811C120.355 33.0034 123.481 29.7129 127.759 29.7129C132.201 29.7129 135.163 33.0034 135.163 37.1165C134.998 37.7747 134.998 38.1037 134.998 38.4328ZM124.304 35.8003H131.214C130.721 33.9906 129.404 33.1679 127.759 33.1679C125.949 33.1679 124.798 34.1551 124.304 35.8003Z" fill="#0064FF"/>
<path d="M144.377 44.8493C140.099 44.8493 136.809 41.5588 136.809 37.2812C136.809 33.0035 140.099 29.8775 144.377 29.8775C147.996 29.8775 150.958 32.1809 151.616 35.6359H147.832C147.174 34.3197 145.858 33.4971 144.377 33.4971C142.238 33.4971 140.757 35.1423 140.757 37.4457C140.757 39.749 142.402 41.3943 144.377 41.3943C145.858 41.3943 147.174 40.5717 147.832 38.9264H151.78C150.958 42.3815 147.996 44.8493 144.377 44.8493Z" fill="#0064FF"/>
<path d="M162.803 44.5202L158.196 37.6102V44.3557H154.412V25.1062H158.196V36.623L162.474 30.371H166.916L162.145 37.1166L167.41 44.5202H162.803Z" fill="#0064FF"/>
<path d="M182.546 35.8004V44.5202H178.762V36.4585C178.762 34.3196 177.939 33.3325 176.294 33.3325C174.32 33.3325 173.168 34.6487 173.168 37.1166V44.5202H169.384V25.1062H173.168V31.5227C174.32 30.5356 175.8 29.8774 177.446 29.8774C180.572 29.8774 182.546 32.1808 182.546 35.8004Z" fill="#0064FF"/>
<path d="M185.015 37.4457C185.015 33.168 188.305 29.8775 192.747 29.8775C197.19 29.8775 200.48 33.0035 200.48 37.4457C200.48 41.7234 197.19 45.0139 192.747 45.0139C188.305 44.8493 185.015 41.7234 185.015 37.4457ZM196.531 37.4457C196.531 35.1423 194.886 33.4971 192.747 33.4971C190.609 33.4971 188.963 35.1423 188.963 37.4457C188.963 39.749 190.609 41.3943 192.747 41.3943C194.886 41.2298 196.531 39.749 196.531 37.4457Z" fill="#0064FF"/>
<path d="M202.947 38.4328V30.2065H206.731V37.9392C206.731 39.9135 207.883 41.2297 209.528 41.2297C211.338 41.2297 212.325 39.9135 212.325 37.9392V30.2065H216.109V38.4328C216.109 42.2169 213.477 44.8493 209.364 44.8493C205.58 44.8493 202.947 42.3814 202.947 38.4328Z" fill="#0064FF"/>
<path d="M224.829 44.8493C221.21 44.8493 218.906 42.875 218.906 39.749H222.69C222.69 41.0652 223.677 41.7233 224.994 41.7233C225.981 41.7233 226.968 41.2298 226.968 40.2426C226.968 39.2555 225.652 38.9264 224.171 38.7619C221.868 38.4328 219.071 37.7747 219.071 34.4842C219.071 31.8518 221.374 29.8775 224.829 29.8775C228.284 29.8775 230.588 31.8518 230.588 34.6487H226.968C226.968 33.4971 226.145 33.0035 224.829 33.0035C223.678 33.0035 222.855 33.4971 222.855 34.3197C222.855 35.3068 224.007 35.4714 225.487 35.8004C227.791 36.294 230.752 36.7876 230.752 40.2426C230.752 43.0395 228.284 44.8493 224.829 44.8493Z" fill="#0064FF"/>
<path d="M247.205 38.4328H236.511C236.84 40.4071 238.156 41.3942 239.966 41.3942C241.282 41.3942 242.434 40.7361 242.928 39.749H247.041C246.054 42.875 243.257 44.8493 239.966 44.8493C235.688 44.8493 232.562 41.5588 232.562 37.2811C232.562 33.0034 235.688 29.7129 239.966 29.7129C244.408 29.7129 247.37 33.0034 247.37 37.1165C247.37 37.7747 247.37 38.1037 247.205 38.4328ZM236.676 35.8003H243.586C243.092 33.9906 241.776 33.1679 240.131 33.1679C238.321 33.1679 237.005 34.1551 236.676 35.8003Z" fill="#0064FF"/>
<path d="M110.32 76.4382C104.89 76.4382 100.777 72.3251 100.777 66.8957C100.777 61.4664 104.89 57.1887 110.32 57.1887C114.762 57.1887 118.382 60.1502 119.204 64.5924H115.256C114.433 62.4535 112.623 61.1373 110.32 61.1373C107.194 61.1373 104.89 63.6052 104.89 66.8957C104.89 70.1862 107.194 72.6541 110.32 72.6541C112.788 72.6541 114.597 71.1734 115.256 68.87H119.204C118.546 73.4768 114.927 76.4382 110.32 76.4382Z" fill="#00003C"/>
<path d="M121.179 69.0345C121.179 64.7568 124.469 61.4663 128.911 61.4663C133.354 61.4663 136.644 64.5923 136.644 69.0345C136.644 73.3122 133.354 76.6027 128.911 76.6027C124.469 76.4381 121.179 73.3122 121.179 69.0345ZM132.531 69.0345C132.531 66.7311 130.886 65.0859 128.747 65.0859C126.608 65.0859 124.963 66.7311 124.963 69.0345C124.963 71.3379 126.608 72.9831 128.747 72.9831C131.05 72.8186 132.531 71.3379 132.531 69.0345Z" fill="#00003C"/>
<path d="M160.336 67.2247V76.1091H156.552V67.8828C156.552 65.9085 155.729 64.9213 154.413 64.9213C152.768 64.9213 151.616 66.2376 151.616 68.3764V76.1091H147.832V67.8828C147.832 65.9085 147.174 64.9213 145.693 64.9213C143.884 64.9213 142.896 66.2376 142.896 68.3764V76.1091H139.112V61.9599H141.745L142.403 63.7697C143.39 62.4535 145.035 61.6308 146.681 61.6308C148.49 61.6308 149.971 62.4535 150.794 63.9342C151.781 62.618 153.426 61.6308 155.236 61.6308C158.362 61.4663 160.336 63.7697 160.336 67.2247Z" fill="#00003C"/>
<path d="M185.015 67.2247V76.1091H181.231V67.8828C181.231 65.9085 180.408 64.9213 179.092 64.9213C177.447 64.9213 176.295 66.2376 176.295 68.3764V76.1091H172.511V67.8828C172.511 65.9085 171.853 64.9213 170.372 64.9213C168.562 64.9213 167.575 66.2376 167.575 68.3764V76.1091H163.791V61.9599H166.423L167.082 63.7697C168.069 62.4535 169.714 61.6308 171.359 61.6308C173.169 61.6308 174.65 62.4535 175.472 63.9342C176.46 62.618 178.105 61.6308 179.915 61.6308C183.041 61.4663 185.015 63.7697 185.015 67.2247Z" fill="#00003C"/>
<path d="M203.112 61.7954V75.9446H200.151L199.822 74.6284C198.67 75.7801 197.025 76.2737 195.215 76.2737C190.938 76.2737 187.812 72.9832 187.812 68.7055C187.812 64.4278 190.938 61.1373 195.215 61.1373C197.025 61.1373 198.67 61.7954 199.822 62.9471L200.151 61.6309H203.112V61.7954ZM199.328 68.87C199.328 66.5667 197.683 64.9214 195.38 64.9214C193.076 64.9214 191.431 66.5667 191.431 68.87C191.431 71.1734 193.076 72.8186 195.38 72.8186C197.683 72.8186 199.328 71.1734 199.328 68.87Z" fill="#00003C"/>
<path d="M220.058 67.3892V75.9446H216.109V67.8828C216.109 65.744 215.287 64.7568 213.642 64.7568C211.667 64.7568 210.516 66.2376 210.516 68.5409V75.9446H206.731V61.7954H209.364L210.186 63.6051C211.338 62.2889 212.983 61.4663 214.958 61.4663C217.919 61.4663 220.058 63.9342 220.058 67.3892Z" fill="#00003C"/>
<path d="M237.827 56.6951V76.1092H235.03L234.536 74.9575C233.385 75.9446 231.739 76.6027 230.094 76.6027C225.816 76.6027 222.69 73.3122 222.69 69.0346C222.69 64.7569 225.816 61.4664 230.094 61.4664C231.575 61.4664 232.891 61.9599 234.043 62.6181V56.6951H237.827V56.6951ZM234.207 69.0346C234.207 66.7312 232.562 65.0859 230.259 65.0859C227.955 65.0859 226.31 66.7312 226.31 69.0346C226.31 71.3379 227.955 72.9832 230.259 72.9832C232.562 72.8187 234.207 71.1734 234.207 69.0346Z" fill="#00003C"/>
<path d="M255.103 70.0217H244.409C244.738 71.996 246.054 72.9832 247.864 72.9832C249.18 72.9832 250.332 72.3251 250.825 71.3379H254.938C253.951 74.4639 251.154 76.4382 247.864 76.4382C243.586 76.4382 240.46 73.1477 240.46 68.8701C240.46 64.5924 243.586 61.3019 247.864 61.3019C252.306 61.3019 255.267 64.5924 255.267 68.7055C255.267 69.3636 255.267 69.6927 255.103 70.0217ZM244.409 67.3893H251.319C250.825 65.5795 249.509 64.7569 247.864 64.7569C246.218 64.7569 244.902 65.7441 244.409 67.3893Z" fill="#00003C"/>
<path d="M266.454 61.7954V65.415H264.809C262.67 65.415 261.848 66.4021 261.848 68.7055V76.1092H258.063V61.9599H260.531L261.189 63.7697C262.177 62.4535 263.493 61.9599 265.303 61.9599H266.454V61.7954Z" fill="#00003C"/>
</svg>
