<svg width="371" height="85" viewBox="0 0 371 85" fill="none" xmlns="http://www.w3.org/2000/svg">
<path d="M43.6962 53.8191H32.3848V31.1146H43.6962C49.9257 31.1146 55.0077 36.2149 55.0077 42.4669C55.0077 48.7188 49.9257 53.8191 43.6962 53.8191Z" fill="white"/>
<path d="M22.7122 32.4308L16.6466 26.3433L0.581055 42.4668L16.6466 58.5904L22.7122 52.3384L19.5974 49.3769V35.5568L22.7122 32.4308Z" fill="white"/>
<path d="M67.4669 26.3433L61.4014 32.4308L64.3522 35.5568V49.3769L61.4014 52.3384L67.4669 58.5904L83.5325 42.4668L67.4669 26.3433Z" fill="white"/>
<path d="M25.9912 16.9654L32.0568 23.0528L35.1715 19.9268H48.942L51.8928 23.0528L58.1224 16.9654L42.0568 0.841858L25.9912 16.9654Z" fill="white"/>
<path d="M55.0076 64.8424L51.8928 61.8809L48.942 64.8424H35.1715L32.0568 61.8809L29.106 64.8424L25.9912 67.9684L42.0568 84.0919L58.1224 67.9684L55.0076 64.8424Z" fill="white"/>
<path d="M106.155 7.25839V8.5746H103.204V10.3844H105.499V11.5361H103.204V14.333H101.564V7.25839H106.155Z" fill="white"/>
<path d="M109.925 7.25839V13.0168H112.711V14.333H108.285V7.25839H109.925Z" fill="white"/>
<path d="M119.269 7.25839L121.564 14.333H119.925L119.433 12.6877H116.81L116.318 14.333H114.843L117.138 7.25839H119.269V7.25839ZM118.941 11.5361L117.958 8.41007L116.974 11.5361H118.941Z" fill="white"/>
<path d="M125.663 7.25839L128.285 11.8651V7.25839H129.761V14.333H128.122L125.171 9.2327V14.333H123.695V7.25839H125.663Z" fill="white"/>
<path d="M131.892 8.41007V7.25839H137.301V8.5746H135.334V14.333H133.695V8.41007H131.892Z" fill="white"/>
<path d="M117.793 35.3923C117.793 40.6571 113.859 44.6057 108.449 44.6057H101.563V26.3434H108.449C113.859 26.3434 117.793 30.1274 117.793 35.3923ZM113.695 35.3923C113.695 32.1018 111.563 29.9629 108.285 29.9629H105.498V40.9861H108.449C111.563 40.9861 113.695 38.6828 113.695 35.3923Z" fill="white"/>
<path d="M134.515 38.6828H123.859C124.187 40.6571 125.499 41.6442 127.302 41.6442C128.613 41.6442 129.761 40.9861 130.253 39.999H134.351C133.367 43.125 130.581 45.0993 127.302 45.0993C123.04 45.0993 119.925 41.8088 119.925 37.5311C119.925 33.2534 123.04 29.9629 127.302 29.9629C131.728 29.9629 134.679 33.2534 134.679 37.3666C134.515 37.8602 134.515 38.3537 134.515 38.6828ZM123.859 36.0504H130.744C130.253 34.2406 128.941 33.418 127.302 33.418C125.499 33.418 124.351 34.4051 123.859 36.0504Z" fill="white"/>
<path d="M143.858 45.0993C139.596 45.0993 136.317 41.8088 136.317 37.5312C136.317 33.2535 139.596 30.1275 143.858 30.1275C147.465 30.1275 150.416 32.4309 151.071 35.8859H147.301C146.645 34.4052 145.334 33.7471 143.858 33.7471C141.727 33.7471 140.252 35.3923 140.252 37.6957C140.252 39.999 141.891 41.6443 143.858 41.6443C145.334 41.6443 146.645 40.8217 147.301 39.3409H151.235C150.416 42.6315 147.465 45.0993 143.858 45.0993Z" fill="white"/>
<path d="M162.219 44.7703L157.629 38.0247V44.7703H153.858V25.3562H157.629V36.873L161.891 30.6211H166.317L161.563 37.3666L166.809 44.7703H162.219V44.7703Z" fill="white"/>
<path d="M181.891 36.0504V44.7703H178.121V36.7085C178.121 34.5697 177.301 33.5825 175.662 33.5825C173.694 33.5825 172.547 34.8987 172.547 37.3666V44.7703H168.776V25.3562H172.547V31.7727C173.694 30.7856 175.17 30.1275 176.809 30.1275C179.924 30.1275 181.891 32.4308 181.891 36.0504Z" fill="white"/>
<path d="M184.351 37.5311C184.351 33.2534 187.629 29.9629 192.056 29.9629C196.482 29.9629 199.76 33.0889 199.76 37.5311C199.76 41.8088 196.482 45.0993 192.056 45.0993C187.629 45.0993 184.351 41.8088 184.351 37.5311ZM195.826 37.5311C195.826 35.2277 194.187 33.5825 192.056 33.5825C189.924 33.5825 188.285 35.2277 188.285 37.5311C188.285 39.8345 189.924 41.4797 192.056 41.4797C194.187 41.4797 195.826 39.8345 195.826 37.5311Z" fill="white"/>
<path d="M202.22 38.6828V30.4565H205.99V38.1892C205.99 40.1635 207.138 41.4797 208.777 41.4797C210.58 41.4797 211.564 40.328 211.564 38.1892V30.4565H215.334V38.6828C215.334 42.4669 212.712 45.0993 208.613 45.0993C204.843 45.0993 202.22 42.4669 202.22 38.6828Z" fill="white"/>
<path d="M224.023 45.0993C220.416 45.0993 218.121 43.125 218.121 39.999H221.892C221.892 41.3153 222.875 41.9734 224.187 41.9734C225.17 41.9734 226.154 41.4798 226.154 40.4926C226.154 39.5055 224.842 39.1764 223.367 39.0119C221.072 38.6828 218.285 38.0247 218.285 34.7342C218.285 32.1018 220.58 30.1275 224.023 30.1275C227.465 30.1275 229.76 32.1018 229.76 34.8988H226.154C226.154 33.7471 225.334 33.2535 224.023 33.2535C222.875 33.2535 222.056 33.7471 222.056 34.5697C222.056 35.5569 223.203 35.7214 224.678 36.0504C226.974 36.544 229.924 37.0376 229.924 40.4926C229.924 43.2896 227.465 45.0993 224.023 45.0993Z" fill="white"/>
<path d="M246.318 38.6828H235.662C235.99 40.6571 237.301 41.6442 239.105 41.6442C240.416 41.6442 241.564 40.9861 242.055 39.999H246.154C245.17 43.125 242.383 45.0993 239.105 45.0993C234.842 45.0993 231.728 41.8088 231.728 37.5311C231.728 33.2534 234.842 29.9629 239.105 29.9629C243.531 29.9629 246.482 33.2534 246.482 37.3666C246.482 37.8602 246.482 38.3537 246.318 38.6828ZM235.826 36.0504H242.711C242.219 34.2406 240.908 33.418 239.269 33.418C237.465 33.418 236.154 34.4051 235.826 36.0504Z" fill="white"/>
<path d="M112.055 76.3592L105.498 67.3103V76.3592H101.563V57.9323H105.498V66.4876L111.563 57.9323H116.154L109.924 66.6522L116.809 76.1947H112.055V76.3592Z" fill="white"/>
<path d="M117.465 70.2717V62.0455H121.235V69.7782C121.235 71.7525 122.383 73.0687 124.022 73.0687C125.826 73.0687 126.809 71.917 126.809 69.7782V62.0455H130.58V70.2717C130.58 74.0558 127.957 76.6882 123.858 76.6882C120.088 76.6882 117.465 74.0558 117.465 70.2717Z" fill="white"/>
<path d="M149.268 69.1201C149.268 73.3978 146.154 76.6883 141.891 76.6883C140.088 76.6883 138.613 76.0302 137.465 75.043L136.973 76.1947H134.187V56.9452H137.957V62.8681C139.105 62.0455 140.416 61.7164 141.891 61.7164C146.154 61.7164 149.268 64.8424 149.268 69.1201ZM145.334 69.1201C145.334 66.8167 143.695 65.1715 141.4 65.1715C139.105 65.1715 137.465 66.8167 137.465 69.1201C137.465 71.2589 139.105 73.0687 141.4 73.0687C143.695 73.0687 145.334 71.4235 145.334 69.1201Z" fill="white"/>
<path d="M165.826 70.2717H155.17C155.498 72.2461 156.809 73.2332 158.612 73.2332C159.924 73.2332 161.071 72.5751 161.563 71.5879H165.662C164.678 74.7139 161.891 76.6882 158.612 76.6882C154.35 76.6882 151.235 73.3977 151.235 69.1201C151.235 64.8424 154.35 61.5519 158.612 61.5519C163.039 61.5519 165.989 64.8424 165.989 68.9555C165.826 69.4491 165.826 69.9427 165.826 70.2717ZM155.17 67.6393H162.055C161.563 65.8295 160.252 65.0069 158.612 65.0069C156.809 65.0069 155.662 65.9941 155.17 67.6393Z" fill="white"/>
<path d="M176.973 62.0455V65.665H175.334C173.202 65.665 172.383 66.6522 172.383 68.9555V76.3592H168.612V62.21H171.071L171.727 64.0198C172.711 62.7036 174.022 62.21 175.825 62.21H176.973V62.0455Z" fill="white"/>
<path d="M192.219 67.6393V76.1946H188.449V68.2974C188.449 66.1586 187.629 65.1714 185.99 65.1714C184.023 65.1714 182.875 66.6521 182.875 68.9555V76.3592H179.104V62.2099H181.727L182.547 64.0197C183.695 62.7035 185.334 61.8809 187.301 61.8809C190.252 61.7164 192.219 64.0197 192.219 67.6393Z" fill="white"/>
<path d="M209.433 70.2717H198.777C199.105 72.2461 200.417 73.2332 202.22 73.2332C203.531 73.2332 204.679 72.5751 205.171 71.5879H209.269C208.285 74.7139 205.498 76.6882 202.22 76.6882C197.958 76.6882 194.843 73.3977 194.843 69.1201C194.843 64.8424 197.958 61.5519 202.22 61.5519C206.646 61.5519 209.597 64.8424 209.597 68.9555C209.433 69.4491 209.433 69.9427 209.433 70.2717ZM198.777 67.6393H205.662C205.171 65.8295 203.859 65.0069 202.22 65.0069C200.417 65.0069 199.269 65.9941 198.777 67.6393Z" fill="white"/>
<path d="M220.744 72.9041V76.3592H217.957C214.842 76.3592 212.875 74.3849 212.875 71.2589V65.1714H210.416V64.3488L215.99 58.4259H216.646V62.21H220.58V65.336H216.809V70.9298C216.809 72.246 217.629 73.0687 218.941 73.0687H220.744V72.9041Z" fill="white"/>
<path d="M236.974 70.2717H226.318C226.646 72.2461 227.958 73.2332 229.761 73.2332C231.072 73.2332 232.22 72.5751 232.712 71.5879H236.81C235.826 74.7139 233.04 76.6882 229.761 76.6882C225.499 76.6882 222.384 73.3977 222.384 69.1201C222.384 64.8424 225.499 61.5519 229.761 61.5519C234.187 61.5519 237.138 64.8424 237.138 68.9555C236.974 69.4491 236.974 69.9427 236.974 70.2717ZM226.318 67.6393H233.203C232.712 65.8295 231.4 65.0069 229.761 65.0069C227.958 65.0069 226.81 65.9941 226.318 67.6393Z" fill="white"/>
<path d="M244.678 76.6882C241.071 76.6882 238.776 74.7139 238.776 71.5879H242.547C242.547 72.9041 243.53 73.5622 244.842 73.5622C245.826 73.5622 246.809 73.0686 246.809 72.0815C246.809 71.0943 245.662 70.7653 244.022 70.6008C241.727 70.2717 238.94 69.6136 238.94 66.3231C238.94 63.6907 241.235 61.7164 244.678 61.7164C248.121 61.7164 250.416 63.6907 250.416 66.4876H246.809C246.809 65.3359 245.989 64.8424 244.678 64.8424C243.53 64.8424 242.711 65.3359 242.711 66.1586C242.711 67.1457 243.858 67.3102 245.334 67.6393C247.629 68.1329 250.58 68.6265 250.58 72.0815C250.744 74.8784 248.285 76.6882 244.678 76.6882Z" fill="white"/>
<path d="M273.53 64.1843C273.53 67.8038 270.744 70.6008 266.973 70.6008H263.858V76.3592H259.924V57.9323H266.973C270.744 57.9323 273.53 60.5647 273.53 64.1843ZM269.596 64.1843C269.596 62.7035 268.612 61.5519 266.973 61.5519H264.022V66.8167H266.973C268.448 66.8167 269.596 65.665 269.596 64.1843Z" fill="white"/>
<path d="M275.826 56.9452H279.597V76.3592H275.826V56.9452Z" fill="white"/>
<path d="M297.63 62.0455V76.1947H294.679L294.351 74.8785C293.203 75.8657 291.564 76.5238 289.761 76.5238C285.499 76.5238 282.384 73.2333 282.384 68.9556C282.384 64.6779 285.499 61.3874 289.761 61.3874C291.564 61.3874 293.203 62.0455 294.351 63.1972L294.843 61.881L297.63 62.0455ZM293.859 69.1201C293.859 66.8168 292.22 65.1715 289.925 65.1715C287.63 65.1715 285.99 66.8168 285.99 69.1201C285.99 71.4235 287.63 73.0687 289.925 73.0687C292.22 73.0687 293.859 71.4235 293.859 69.1201Z" fill="white"/>
<path d="M319.76 65.5005H316.154V76.3592H312.383V65.5005H305.99V70.7654C305.99 72.0816 306.81 72.9042 308.121 72.9042H309.597V76.3592H307.138C304.023 76.3592 302.056 74.3849 302.056 71.2589V65.5005H299.433V64.6779L305.006 58.4259H305.662V62.3746H312.219V60.8938C312.219 58.0969 313.695 56.4516 316.646 56.4516H319.433V59.4131H317.301C316.318 59.4131 315.826 59.9067 315.826 60.8938V62.21H319.433V65.5005H319.76Z" fill="white"/>
<path d="M320.908 69.1201C320.908 64.8424 324.187 61.5519 328.613 61.5519C333.039 61.5519 336.318 64.6779 336.318 69.1201C336.318 73.3977 333.039 76.6883 328.613 76.6883C324.187 76.6883 320.908 73.3977 320.908 69.1201ZM332.384 69.1201C332.384 66.8167 330.744 65.1715 328.613 65.1715C326.482 65.1715 324.843 66.8167 324.843 69.1201C324.843 71.4234 326.482 73.0687 328.613 73.0687C330.744 73.0687 332.384 71.4234 332.384 69.1201Z" fill="white"/>
<path d="M347.465 62.0454V65.665H345.826C343.695 65.665 342.875 66.6522 342.875 68.9555V76.3592H339.104V62.21H341.564L342.219 64.0198C343.203 62.7035 344.514 62.21 346.318 62.21H347.465V62.0454Z" fill="white"/>
<path d="M370.58 67.3103V76.1946H366.81V67.9684C366.81 65.9941 365.99 65.0069 364.679 65.0069C363.039 65.0069 361.892 66.3231 361.892 68.4619V76.1946H358.121V67.9684C358.121 65.9941 357.465 65.0069 355.99 65.0069C354.187 65.0069 353.203 66.3231 353.203 68.4619V76.1946H349.433V62.0454H352.056L352.711 63.8552C353.695 62.539 355.334 61.7164 356.974 61.7164C358.777 61.7164 360.252 62.539 361.072 64.0197C362.056 62.7035 363.695 61.7164 365.498 61.7164C368.449 61.7164 370.58 64.0197 370.58 67.3103Z" fill="white"/>
</svg>
