<svg width="214" height="48" viewBox="0 0 214 48" fill="none" xmlns="http://www.w3.org/2000/svg">
<path d="M62.1353 32.7421C65.2508 32.7421 67.5042 34.9653 67.5042 38.0354C67.5042 41.1055 65.2508 43.3287 62.1353 43.3287H58.1426V32.7421H62.1353ZM62.0899 41.2114C63.9048 41.2114 65.16 39.8805 65.16 38.0354C65.16 36.1601 63.9048 34.8745 62.0899 34.8745H60.4263V41.2114H62.0899Z" fill="white"/>
<path d="M73.073 43.5707C70.5473 43.5707 68.6568 41.7105 68.6568 39.2453C68.6568 36.7801 70.5473 34.935 73.073 34.935C75.5986 34.935 77.4891 36.7801 77.4891 39.2453C77.4891 41.7105 75.5986 43.5707 73.073 43.5707ZM73.073 41.4836C74.3434 41.4836 75.2508 40.5762 75.2508 39.2453C75.2508 37.9295 74.3434 37.007 73.073 37.007C71.8026 37.007 70.8951 37.9295 70.8951 39.2453C70.8951 40.5762 71.8026 41.4836 73.073 41.4836Z" fill="white"/>
<path d="M82.878 43.5707C80.4129 43.5707 78.5375 41.6802 78.5375 39.2302C78.5375 36.7801 80.4129 34.935 82.8932 34.935C85.0105 34.935 86.6439 36.281 87.0371 38.2925H84.8441C84.4963 37.4909 83.7552 37.007 82.878 37.007C81.6833 37.007 80.7758 37.9749 80.7758 39.2453C80.7758 40.5006 81.6984 41.4836 82.878 41.4836C83.7704 41.4836 84.4661 40.9997 84.8441 40.1225H87.0673C86.6893 42.1793 85.0105 43.5707 82.878 43.5707Z" fill="white"/>
<path d="M92.2548 43.5707C89.956 43.5707 88.4134 42.0886 88.4134 39.8805V35.1619H90.6214V39.6385C90.6214 40.8031 91.2415 41.4836 92.2548 41.4836C93.2832 41.4836 93.8882 40.7879 93.8882 39.6385V35.1619H96.0963V39.8805C96.0963 42.0886 94.5688 43.5707 92.2548 43.5707Z" fill="white"/>
<path d="M107.391 34.9804C109.085 34.9804 110.264 36.2962 110.264 38.2169V43.3287H108.056V38.5799C108.056 37.4909 107.633 36.9162 106.831 36.9162C105.848 36.9162 105.258 37.6422 105.258 38.9126V43.3287H103.111V38.5799C103.111 37.4909 102.687 36.9162 101.901 36.9162C100.903 36.9162 100.313 37.6422 100.313 38.9126V43.3287H98.1049V35.1619H99.6475L100.056 36.1752C100.631 35.4492 101.523 34.9804 102.491 34.9804C103.534 34.9804 104.381 35.4644 104.865 36.281C105.425 35.4946 106.347 34.9804 107.391 34.9804Z" fill="white"/>
<path d="M120.223 39.2302C120.223 39.4419 120.208 39.6537 120.178 39.8654H113.992C114.189 40.9845 114.915 41.6046 115.988 41.6046C116.76 41.6046 117.395 41.2417 117.728 40.6518H120.042C119.452 42.4364 117.894 43.5707 115.988 43.5707C113.584 43.5707 111.754 41.6954 111.754 39.2453C111.754 36.7953 113.569 34.935 115.988 34.935C118.499 34.935 120.223 36.8709 120.223 39.2302ZM115.988 36.8255C115.005 36.8255 114.31 37.4002 114.053 38.3681H118.015C117.697 37.37 116.987 36.8255 115.988 36.8255Z" fill="white"/>
<path d="M126.438 34.9804C128.298 34.9804 129.463 36.3113 129.463 38.3833V43.3287H127.255V38.7462C127.255 37.5061 126.786 36.9162 125.833 36.9162C124.699 36.9162 124.003 37.7329 124.003 39.0487V43.3287H121.795V35.1619H123.307L123.731 36.1752C124.351 35.4492 125.334 34.9804 126.438 34.9804Z" fill="white"/>
<path d="M135.417 41.3626H136.415V43.3287H134.843C133.043 43.3287 131.939 42.2247 131.939 40.425V36.9465H130.472V36.4625L133.693 33.0445H134.117V35.1619H136.37V36.9465H134.147V40.1225C134.147 40.9089 134.601 41.3626 135.417 41.3626Z" fill="white"/>
<path d="M144.504 35.1619H146.152V43.3287H144.428L144.231 42.5877C143.536 43.2078 142.628 43.5707 141.585 43.5707C139.135 43.5707 137.305 41.7105 137.305 39.2453C137.305 36.7801 139.135 34.935 141.585 34.935C142.643 34.935 143.566 35.3131 144.277 35.9332L144.504 35.1619ZM141.766 41.4836C143.052 41.4836 143.989 40.5308 143.989 39.2453C143.989 37.9598 143.052 37.007 141.766 37.007C140.481 37.007 139.543 37.9598 139.543 39.2453C139.543 40.5157 140.481 41.4836 141.766 41.4836Z" fill="white"/>
<path d="M152.284 41.3626H153.282V43.3287H151.709C149.909 43.3287 148.805 42.2247 148.805 40.425V36.9465H147.338V36.4625L150.56 33.0445H150.983V35.1619H153.237V36.9465H151.013V40.1225C151.013 40.9089 151.467 41.3626 152.284 41.3626Z" fill="white"/>
<path d="M154.79 34.073V32.0312H156.983V34.073H154.79ZM154.79 43.3287V35.1619H156.998V43.3287H154.79Z" fill="white"/>
<path d="M162.989 43.5707C160.463 43.5707 158.573 41.7105 158.573 39.2453C158.573 36.7801 160.463 34.935 162.989 34.935C165.514 34.935 167.405 36.7801 167.405 39.2453C167.405 41.7105 165.514 43.5707 162.989 43.5707ZM162.989 41.4836C164.259 41.4836 165.167 40.5762 165.167 39.2453C165.167 37.9295 164.259 37.007 162.989 37.007C161.718 37.007 160.811 37.9295 160.811 39.2453C160.811 40.5762 161.718 41.4836 162.989 41.4836Z" fill="white"/>
<path d="M173.641 34.9804C175.501 34.9804 176.666 36.3113 176.666 38.3833V43.3287H174.457V38.7462C174.457 37.5061 173.989 36.9162 173.036 36.9162C171.902 36.9162 171.206 37.7329 171.206 39.0487V43.3287H168.998V35.1619H170.51L170.934 36.1752C171.554 35.4492 172.537 34.9804 173.641 34.9804Z" fill="white"/>
<path d="M24.8663 30.5599H18.3428V17.4658H24.8663C28.459 17.4658 31.3898 20.4072 31.3898 24.0129C31.3898 27.6185 28.459 30.5599 24.8663 30.5599Z" fill="white"/>
<path d="M12.7634 18.2246L9.26529 14.7139L0 24.0126L9.26529 33.3113L12.7634 29.7057L10.9671 27.9977V20.0274L12.7634 18.2246Z" fill="white"/>
<path d="M38.5733 14.7139L35.0752 18.2246L36.777 20.0274V27.9977L35.0752 29.7057L38.5733 33.3113L47.8386 24.0126L38.5733 14.7139Z" fill="white"/>
<path d="M14.6528 9.30555L18.151 12.8163L19.9473 11.0135H27.889L29.5908 12.8163L33.1834 9.30555L23.9181 0.00683594L14.6528 9.30555Z" fill="white"/>
<path d="M31.3871 36.9169L29.5908 35.209L27.889 36.9169H19.9473L18.151 35.209L16.4492 36.9169L14.6528 38.7197L23.9181 48.0184L33.1834 38.7197L31.3871 36.9169Z" fill="white"/>
<path d="M67.6011 19.9345C67.6011 22.9708 65.332 25.248 62.2121 25.248H58.2412V14.7158H62.2121C65.332 14.7158 67.6011 16.8982 67.6011 19.9345ZM65.2375 19.9345C65.2375 18.0368 64.0084 16.8033 62.1175 16.8033H60.5103V23.1606H62.2121C64.0084 23.1606 65.2375 21.8322 65.2375 19.9345Z" fill="white"/>
<path d="M77.242 21.8326H71.0967C71.2858 22.9712 72.0421 23.5405 73.0821 23.5405C73.8385 23.5405 74.5003 23.161 74.7839 22.5917H77.1475C76.5802 24.3945 74.973 25.5331 73.0821 25.5331C70.624 25.5331 68.8276 23.6354 68.8276 21.1684C68.8276 18.7014 70.624 16.8037 73.0821 16.8037C75.6348 16.8037 77.3366 18.7014 77.3366 21.0735C77.3366 21.4225 77.2999 21.6626 77.242 21.8326ZM71.0967 20.3144H75.0675C74.7839 19.2707 74.0275 18.7963 73.0821 18.7963C72.0421 18.7963 71.3803 19.3656 71.0967 20.3144Z" fill="white"/>
<path d="M82.6342 25.533C80.176 25.533 78.2852 23.6353 78.2852 21.1683C78.2852 18.7012 80.176 16.8984 82.6342 16.8984C84.7141 16.8984 86.4159 18.2268 86.7941 20.2194H84.6196C84.2414 19.3654 83.4851 18.9859 82.6342 18.9859C81.4051 18.9859 80.5542 19.9348 80.5542 21.2631C80.5542 22.5915 81.4996 23.5404 82.6342 23.5404C83.4851 23.5404 84.2414 23.066 84.6196 22.212H86.8886C86.4159 24.1097 84.7141 25.533 82.6342 25.533Z" fill="white"/>
<path d="M93.2221 25.3429L90.5749 21.4526V25.3429H88.4004V14.1465H90.5749V20.7884L93.033 17.1828H95.5857L92.8439 21.0731L95.8694 25.3429H93.2221Z" fill="white"/>
<path d="M104.569 20.314V25.3429H102.394V20.6935C102.394 19.46 101.922 18.8907 100.976 18.8907C99.8417 18.8907 99.1799 19.6498 99.1799 21.0731V25.3429H97.0054V14.1465H99.1799V17.847C99.8417 17.2777 100.693 16.8981 101.638 16.8981C103.434 16.8981 104.569 18.2265 104.569 20.314Z" fill="white"/>
<path d="M105.985 21.1684C105.985 18.7014 107.876 16.8037 110.428 16.8037C112.981 16.8037 114.872 18.6065 114.872 21.1684C114.872 23.6354 112.981 25.5331 110.428 25.5331C107.876 25.5331 105.985 23.6354 105.985 21.1684ZM112.603 21.1684C112.603 19.84 111.657 18.8912 110.428 18.8912C109.199 18.8912 108.254 19.84 108.254 21.1684C108.254 22.4968 109.199 23.4457 110.428 23.4457C111.657 23.4457 112.603 22.4968 112.603 21.1684Z" fill="white"/>
<path d="M116.29 21.8321V17.0879H118.464V21.5475C118.464 22.6861 119.126 23.4452 120.071 23.4452C121.111 23.4452 121.679 22.781 121.679 21.5475V17.0879H123.853V21.8321C123.853 24.0145 122.34 25.5326 119.977 25.5326C117.802 25.5326 116.29 24.0145 116.29 21.8321Z" fill="white"/>
<path d="M128.863 25.533C126.783 25.533 125.459 24.3943 125.459 22.5915H127.634C127.634 23.3506 128.201 23.7301 128.958 23.7301C129.525 23.7301 130.092 23.4455 130.092 22.8762C130.092 22.3069 129.336 22.1171 128.485 22.0222C127.161 21.8324 125.554 21.4529 125.554 19.5552C125.554 18.0371 126.878 16.8984 128.863 16.8984C130.848 16.8984 132.172 18.0371 132.172 19.6501H130.092C130.092 18.9859 129.619 18.7013 128.863 18.7013C128.201 18.7013 127.729 18.9859 127.729 19.4603C127.729 20.0296 128.39 20.1245 129.241 20.3143C130.565 20.5989 132.267 20.8836 132.267 22.8762C132.267 24.4892 130.848 25.533 128.863 25.533Z" fill="white"/>
<path d="M141.723 21.8326H135.578C135.767 22.9712 136.524 23.5405 137.564 23.5405C138.32 23.5405 138.982 23.161 139.265 22.5917H141.629C141.062 24.3945 139.454 25.5331 137.564 25.5331C135.105 25.5331 133.309 23.6354 133.309 21.1684C133.309 18.7014 135.105 16.8037 137.564 16.8037C140.116 16.8037 141.818 18.7014 141.818 21.0735C141.818 21.3582 141.818 21.6428 141.723 21.8326ZM135.673 20.3144H139.644C139.36 19.2707 138.604 18.7963 137.658 18.7963C136.618 18.7963 135.862 19.3656 135.673 20.3144Z" fill="white"/>
</svg>
