<svg width="173" height="49" viewBox="0 0 173 49" fill="none" xmlns="http://www.w3.org/2000/svg">
<path d="M67.6077 42.068H68.6191V46.0534H66.5207V44.1815H60.2557V46.0534H58.1572V42.068H58.9875C59.8782 41.3735 60.0443 40.1356 60.5727 33.6139H67.6077V42.068ZM62.5352 35.7425C62.3088 39.6374 62.0219 41.1924 61.3577 42.068H65.313V35.7425H62.5352Z" fill="white"/>
<path d="M74.0377 44.423C71.5166 44.423 69.6295 42.5661 69.6295 40.1054C69.6295 37.6447 71.5166 35.8029 74.0377 35.8029C76.5588 35.8029 78.4459 37.6447 78.4459 40.1054C78.4459 42.5661 76.5588 44.423 74.0377 44.423ZM74.0377 42.3397C75.3058 42.3397 76.2116 41.4339 76.2116 40.1054C76.2116 38.792 75.3058 37.8711 74.0377 37.8711C72.7696 37.8711 71.8638 38.792 71.8638 40.1054C71.8638 41.4339 72.7696 42.3397 74.0377 42.3397Z" fill="white"/>
<path d="M87.5237 44.1815H84.8818L82.2399 40.2564V44.1815H80.0358V36.0294H82.2399V39.6827L84.7309 36.0294H87.2218L84.4591 39.9393L87.5237 44.1815Z" fill="white"/>
<path d="M94.1144 36.0294H96.4543L92.9067 44.0758C91.9254 46.295 91.0649 47.1253 89.2382 47.1253H88.3324V45.1476H89.0873C90.1591 45.1476 90.4308 44.8608 90.929 43.6229L90.9592 43.5625L87.5021 36.0294H89.9025L92.0764 41.0565L94.1144 36.0294Z" fill="white"/>
<path d="M107.751 44.1815H105.637L104.867 39.2751L102.361 44.1966H101.923L99.4173 39.2751L98.6624 44.1815H96.5338L97.8925 36.0294H99.7645L102.15 40.6489L104.55 36.0294H106.407L107.751 44.1815Z" fill="white"/>
<path d="M117.137 40.0903C117.137 40.3017 117.122 40.513 117.092 40.7244H110.917C111.113 41.8415 111.838 42.4605 112.91 42.4605C113.68 42.4605 114.314 42.0981 114.646 41.5094H116.956C116.367 43.2908 114.812 44.423 112.91 44.423C110.51 44.423 108.683 42.551 108.683 40.1054C108.683 37.6598 110.494 35.8029 112.91 35.8029C115.416 35.8029 117.137 37.7353 117.137 40.0903ZM112.91 37.69C111.929 37.69 111.234 38.2636 110.978 39.2298H114.933C114.616 38.2334 113.906 37.69 112.91 37.69Z" fill="white"/>
<path d="M123.869 36.0294H126.058V44.1815H123.869V41.0565H120.895V44.1815H118.706V36.0294H120.895V39.0486H123.869V36.0294Z" fill="white"/>
<path d="M134.858 36.0294V38.0221H132.201V44.1815H130.042V38.0221H127.385V36.0294H134.858Z" fill="white"/>
<path d="M142.671 36.0294H144.316V44.1815H142.596L142.399 43.4417C141.705 44.0607 140.799 44.423 139.757 44.423C137.312 44.423 135.485 42.5661 135.485 40.1054C135.485 37.6447 137.312 35.8029 139.757 35.8029C140.814 35.8029 141.735 36.1803 142.445 36.7993L142.671 36.0294ZM139.939 42.3397C141.222 42.3397 142.158 41.3886 142.158 40.1054C142.158 38.8222 141.222 37.8711 139.939 37.8711C138.655 37.8711 137.719 38.8222 137.719 40.1054C137.719 41.3735 138.655 42.3397 139.939 42.3397Z" fill="white"/>
<path d="M153.562 42.1585H154.619V46.0534H152.626V44.1815H146.452V36.0294H148.61V42.1585H151.403V36.0294H153.562V42.1585Z" fill="white"/>
<path d="M162.218 36.0294H163.456V44.1815H161.327V39.8639L157.538 44.1815H156.285V36.0294H158.414V40.3017L162.218 36.0294Z" fill="white"/>
<path d="M168.079 36.0294H172.14V44.1815H170.026V41.3735H168.743L167.188 44.1815H164.833L166.66 40.981C165.784 40.513 165.271 39.6978 165.271 38.7165C165.271 37.1918 166.479 36.0294 168.079 36.0294ZM168.486 39.6827H170.026V37.7805H168.486C167.837 37.7805 167.46 38.1881 167.46 38.7316C167.46 39.2751 167.837 39.6827 168.486 39.6827Z" fill="white"/>
<path d="M67.6077 24.1913H68.6191V28.1768H66.5207V26.3049H60.2557V28.1768H58.1572V24.1913H58.9876C59.8782 23.4969 60.0443 22.259 60.5727 15.7373H67.6077V24.1913ZM62.5352 17.8659C62.3088 21.7608 62.022 23.3157 61.3577 24.1913H65.313V17.8659H62.5352Z" fill="#0064FF"/>
<path d="M78.0836 22.2137C78.0836 22.4251 78.0685 22.6364 78.0383 22.8478H71.8638C72.0601 23.9649 72.7847 24.5839 73.8565 24.5839C74.6265 24.5839 75.2605 24.2215 75.5926 23.6328H77.9024C77.3136 25.4142 75.7587 26.5464 73.8565 26.5464C71.4562 26.5464 69.6295 24.6744 69.6295 22.2288C69.6295 19.7832 71.4411 17.9263 73.8565 17.9263C76.3626 17.9263 78.0836 19.8586 78.0836 22.2137ZM73.8565 19.8134C72.8753 19.8134 72.1808 20.387 71.9242 21.3532H75.8795C75.5625 20.3568 74.8529 19.8134 73.8565 19.8134Z" fill="#0064FF"/>
<path d="M87.1404 26.3049H84.4985L81.8566 22.3798V26.3049H79.6525V18.1527H81.8566V21.8061L84.3475 18.1527H86.8385L84.0758 22.0627L87.1404 26.3049Z" fill="#0064FF"/>
<path d="M96.2407 26.3049H93.7498L92.1345 23.6177L90.489 26.3049H88.0584L90.8211 22.1231L88.2396 18.1527H90.7305L92.1345 20.5229L93.6592 18.1527H96.0747L93.4479 22.0174L96.2407 26.3049Z" fill="#0064FF"/>
<path d="M103.63 18.1527H105.275V26.3049H103.554L103.358 25.5651C102.664 26.1841 101.758 26.5464 100.716 26.5464C98.2706 26.5464 96.444 24.6895 96.444 22.2288C96.444 19.7681 98.2706 17.9263 100.716 17.9263C101.773 17.9263 102.694 18.3037 103.403 18.9227L103.63 18.1527ZM100.897 24.4631C102.181 24.4631 103.117 23.512 103.117 22.2288C103.117 20.9456 102.181 19.9945 100.897 19.9945C99.6142 19.9945 98.6782 20.9456 98.6782 22.2288C98.6782 23.4969 99.6142 24.4631 100.897 24.4631Z" fill="#0064FF"/>
<path d="M113.041 18.1527H115.381L111.834 26.1992C110.852 28.4184 109.992 29.2487 108.165 29.2487H107.26V27.271H108.014C109.086 27.271 109.358 26.9842 109.856 25.7463L109.886 25.6859L106.429 18.1527H108.83L111.003 23.1799L113.041 18.1527Z" fill="#0064FF"/>
<path d="M119.942 26.5464C117.481 26.5464 115.609 24.6593 115.609 22.2137C115.609 19.7681 117.481 17.9263 119.957 17.9263C122.071 17.9263 123.701 19.2699 124.094 21.2777H121.905C121.557 20.4776 120.818 19.9945 119.942 19.9945C118.75 19.9945 117.844 20.9607 117.844 22.2288C117.844 23.4818 118.765 24.4631 119.942 24.4631C120.833 24.4631 121.527 23.98 121.905 23.1044H124.124C123.746 25.1575 122.071 26.5464 119.942 26.5464Z" fill="#0064FF"/>
<path d="M24.8211 31.4503H18.3093V18.3799H24.8211C28.4073 18.3799 31.3328 21.316 31.3328 24.9151C31.3328 28.5142 28.4073 31.4503 24.8211 31.4503Z" fill="#0064FF"/>
<path d="M12.7404 19.138L9.24856 15.6336L0 24.9156L9.24856 34.1975L12.7404 30.5984L10.9473 28.8935V20.9376L12.7404 19.138Z" fill="white"/>
<path d="M38.5034 15.6336L35.0116 19.138L36.7103 20.9376V28.8935L35.0116 30.5984L38.5034 34.1975L47.752 24.9156L38.5034 15.6336Z" fill="white"/>
<path d="M14.6266 10.235L18.1184 13.7394L19.9115 11.9399H27.8388L29.5375 13.7394L33.1237 10.235L23.8751 0.953125L14.6266 10.235Z" fill="white"/>
<path d="M31.3306 37.7965L29.5375 36.0916L27.8388 37.7965H19.9115L18.1184 36.0916L14.6266 39.596L23.8751 48.8779L33.1237 39.596L31.3306 37.7965Z" fill="white"/>
<path d="M60.7923 5.13749V4.64338H59.9046V5.13749C58.9066 5.16494 58.0851 5.66454 58.0851 6.65825V6.69668C58.0851 7.67941 58.846 8.17901 59.9046 8.20646V8.71155H60.7923V8.20646C61.7902 8.17901 62.6117 7.69039 62.6117 6.69119V6.64727C62.6117 5.66454 61.8509 5.16494 60.7923 5.13749ZM59.9046 5.77434V7.56412C59.3808 7.54765 58.9783 7.31157 58.9783 6.69668V6.65825C58.9783 6.0214 59.4028 5.80179 59.9046 5.77434ZM60.7923 7.56961V5.77983C61.3216 5.80728 61.7241 6.0214 61.7241 6.64727V6.69119C61.7241 7.32255 61.2995 7.55314 60.7923 7.56961Z" fill="white"/>
<path d="M64.8849 7.20726C64.9455 6.64178 64.9565 5.98846 64.9731 5.43396H66.0482V8.65665H66.9414V4.73122H64.1681C64.1681 5.61513 64.1571 6.39472 64.0964 7.01511C64.0358 7.63549 63.9035 7.95391 63.6112 7.95391C63.5616 7.95391 63.5175 7.94842 63.4899 7.94293C63.4734 7.93744 63.4624 7.93744 63.4569 7.93195V8.65665L63.5396 8.68959C63.6002 8.70606 63.6609 8.71704 63.7656 8.71704C64.5375 8.71704 64.7966 8.08568 64.8849 7.20726Z" fill="white"/>
<path d="M69.4968 4.73122L68.2011 8.65665H69.0392L69.3093 7.78372H70.7373L71.0075 8.65665H71.9393L70.6601 4.73122H69.4968ZM69.5023 7.15236L70.0261 5.45592L70.5443 7.15236H69.5023Z" fill="white"/>
<path d="M73.1673 4.73122V8.65665H74.0605V7.03707H75.6429V8.65665H76.5361V4.73122H75.6429V6.33433H74.0605V4.73122H73.1673Z" fill="white"/>
<path d="M78.8389 5.42298V8.65665H79.7376V5.42298H80.8018V4.73122H77.7748V5.42298H78.8389Z" fill="white"/>
</svg>
