<svg width="217" height="53" viewBox="0 0 217 53" fill="none" xmlns="http://www.w3.org/2000/svg">
<path d="M67.6081 44.0683H68.6196V48.0538H66.5212V46.1818H60.2561V48.0538H58.1577V44.0683H58.988C59.8787 43.3739 60.0448 42.1359 60.5732 35.6143H67.6081V44.0683ZM62.5357 37.7429C62.3093 41.6378 62.0224 43.1927 61.3582 44.0683H65.3135V37.7429H62.5357Z" fill="white"/>
<path d="M74.0382 46.4234C71.5171 46.4234 69.63 44.5665 69.63 42.1058C69.63 39.645 71.5171 37.8033 74.0382 37.8033C76.5593 37.8033 78.4464 39.645 78.4464 42.1058C78.4464 44.5665 76.5593 46.4234 74.0382 46.4234ZM74.0382 44.34C75.3063 44.34 76.2121 43.4342 76.2121 42.1058C76.2121 40.7924 75.3063 39.8715 74.0382 39.8715C72.7701 39.8715 71.8643 40.7924 71.8643 42.1058C71.8643 43.4342 72.7701 44.34 74.0382 44.34Z" fill="white"/>
<path d="M87.5242 46.1818H84.8823L82.2404 42.2567V46.1818H80.0363V38.0297H82.2404V41.6831L84.7313 38.0297H87.2223L84.4596 41.9397L87.5242 46.1818Z" fill="white"/>
<path d="M94.1149 38.0297H96.4548L92.9071 46.0761C91.9259 48.2953 91.0654 49.1256 89.2387 49.1256H88.3329V47.148H89.0877C90.1596 47.148 90.4313 46.8611 90.9295 45.6232L90.9597 45.5629L87.5026 38.0297H89.9029L92.0768 43.0568L94.1149 38.0297Z" fill="white"/>
<path d="M107.751 46.1818H105.638L104.868 41.2754L102.362 46.1969H101.924L99.4177 41.2754L98.6629 46.1818H96.5343L97.893 38.0297H99.765L102.15 42.6492L104.551 38.0297H106.407L107.751 46.1818Z" fill="white"/>
<path d="M117.137 42.0907C117.137 42.302 117.122 42.5134 117.092 42.7247H110.918C111.114 43.8418 111.839 44.4608 112.91 44.4608C113.68 44.4608 114.314 44.0985 114.646 43.5097H116.956C116.367 45.2911 114.813 46.4234 112.91 46.4234C110.51 46.4234 108.683 44.5514 108.683 42.1058C108.683 39.6601 110.495 37.8033 112.91 37.8033C115.416 37.8033 117.137 39.7356 117.137 42.0907ZM112.91 39.6903C111.929 39.6903 111.235 40.264 110.978 41.2302H114.933C114.616 40.2338 113.907 39.6903 112.91 39.6903Z" fill="white"/>
<path d="M123.869 38.0297H126.058V46.1818H123.869V43.0568H120.895V46.1818H118.706V38.0297H120.895V41.049H123.869V38.0297Z" fill="white"/>
<path d="M134.859 38.0297V40.0224H132.202V46.1818H130.043V40.0224H127.386V38.0297H134.859Z" fill="white"/>
<path d="M142.671 38.0297H144.317V46.1818H142.596L142.4 45.4421C141.705 46.061 140.799 46.4234 139.758 46.4234C137.312 46.4234 135.486 44.5665 135.486 42.1058C135.486 39.645 137.312 37.8033 139.758 37.8033C140.815 37.8033 141.735 38.1807 142.445 38.7996L142.671 38.0297ZM139.939 44.34C141.222 44.34 142.158 43.389 142.158 42.1058C142.158 40.8226 141.222 39.8715 139.939 39.8715C138.656 39.8715 137.72 40.8226 137.72 42.1058C137.72 43.3739 138.656 44.34 139.939 44.34Z" fill="white"/>
<path d="M153.563 44.1589H154.619V48.0538H152.627V46.1818H146.452V38.0297H148.611V44.1589H151.404V38.0297H153.563V44.1589Z" fill="white"/>
<path d="M162.218 38.0297H163.456V46.1818H161.328V41.8642L157.538 46.1818H156.285V38.0297H158.414V42.302L162.218 38.0297Z" fill="white"/>
<path d="M168.079 38.0297H172.14V46.1818H170.027V43.3739H168.744L167.189 46.1818H164.834L166.66 42.9813C165.785 42.5134 165.271 41.6981 165.271 40.7169C165.271 39.1921 166.479 38.0297 168.079 38.0297ZM168.487 41.6831H170.027V39.7809H168.487C167.838 39.7809 167.46 40.1885 167.46 40.732C167.46 41.2754 167.838 41.6831 168.487 41.6831Z" fill="white"/>
<path d="M67.6081 26.1913H68.6196V30.1768H66.5212V28.3049H60.2561V30.1768H58.1577V26.1913H58.988C59.8787 25.4969 60.0448 24.259 60.5732 17.7373H67.6081V26.1913ZM62.5357 19.8659C62.3093 23.7608 62.0224 25.3157 61.3582 26.1913H65.3135V19.8659H62.5357Z" fill="white"/>
<path d="M78.084 24.2137C78.084 24.4251 78.0689 24.6364 78.0387 24.8478H71.8643C72.0605 25.9649 72.7852 26.5839 73.857 26.5839C74.6269 26.5839 75.261 26.2215 75.5931 25.6328H77.9029C77.3141 27.4142 75.7592 28.5464 73.857 28.5464C71.4567 28.5464 69.63 26.6744 69.63 24.2288C69.63 21.7832 71.4416 19.9263 73.857 19.9263C76.363 19.9263 78.084 21.8586 78.084 24.2137ZM73.857 21.8134C72.8757 21.8134 72.1813 22.387 71.9247 23.3532H75.8799C75.5629 22.3568 74.8534 21.8134 73.857 21.8134Z" fill="white"/>
<path d="M87.1409 28.3049H84.499L81.8571 24.3798V28.3049H79.653V20.1527H81.8571V23.8061L84.348 20.1527H86.8389L84.0763 24.0627L87.1409 28.3049Z" fill="white"/>
<path d="M96.2412 28.3049H93.7503L92.135 25.6177L90.4894 28.3049H88.0589L90.8216 24.1231L88.2401 20.1527H90.731L92.135 22.5229L93.6597 20.1527H96.0751L93.4484 24.0174L96.2412 28.3049Z" fill="white"/>
<path d="M103.63 20.1527H105.276V28.3049H103.555L103.359 27.5651C102.664 28.1841 101.758 28.5464 100.717 28.5464C98.2711 28.5464 96.4444 26.6895 96.4444 24.2288C96.4444 21.7681 98.2711 19.9263 100.717 19.9263C101.773 19.9263 102.694 20.3037 103.404 20.9227L103.63 20.1527ZM100.898 26.4631C102.181 26.4631 103.117 25.512 103.117 24.2288C103.117 22.9456 102.181 21.9945 100.898 21.9945C99.6147 21.9945 98.6787 22.9456 98.6787 24.2288C98.6787 25.4969 99.6147 26.4631 100.898 26.4631Z" fill="white"/>
<path d="M113.042 20.1527H115.382L111.834 28.1992C110.853 30.4184 109.992 31.2487 108.166 31.2487H107.26V29.271H108.015C109.087 29.271 109.358 28.9842 109.857 27.7463L109.887 27.6859L106.43 20.1527H108.83L111.004 25.1799L113.042 20.1527Z" fill="white"/>
<path d="M119.943 28.5464C117.482 28.5464 115.61 26.6593 115.61 24.2137C115.61 21.7681 117.482 19.9263 119.958 19.9263C122.071 19.9263 123.702 21.2699 124.094 23.2777H121.905C121.558 22.4776 120.818 21.9945 119.943 21.9945C118.75 21.9945 117.844 22.9607 117.844 24.2288C117.844 25.4818 118.765 26.4631 119.943 26.4631C120.833 26.4631 121.528 25.98 121.905 25.1044H124.124C123.747 27.1575 122.071 28.5464 119.943 28.5464Z" fill="white"/>
<path d="M24.8213 33.4503H18.3096V20.3799H24.8213C28.4075 20.3799 31.333 23.316 31.333 26.9151C31.333 30.5142 28.4075 33.4503 24.8213 33.4503Z" fill="white"/>
<path d="M12.7404 21.1382L9.24856 17.6338L0 26.9157L9.24856 36.1976L12.7404 32.5985L10.9473 30.8937V22.9377L12.7404 21.1382Z" fill="white"/>
<path d="M38.5035 17.6338L35.0117 21.1382L36.7104 22.9377V30.8937L35.0117 32.5985L38.5035 36.1976L47.7521 26.9157L38.5035 17.6338Z" fill="white"/>
<path d="M14.627 12.235L18.1188 15.7394L19.9118 13.9399H27.8392L29.5379 15.7394L33.1241 12.235L23.8755 2.95312L14.627 12.235Z" fill="white"/>
<path d="M31.331 39.7966L29.5379 38.0918L27.8392 39.7966H19.9118L18.1188 38.0918L16.42 39.7966L14.627 41.5962L23.8755 50.8781L33.1241 41.5962L31.331 39.7966Z" fill="white"/>
<path d="M60.7926 7.13766V6.64355H59.9049V7.13766C58.907 7.16511 58.0854 7.66471 58.0854 8.65842V8.69685C58.0854 9.67958 58.8463 10.1792 59.9049 10.2066V10.7117H60.7926V10.2066C61.7906 10.1792 62.6121 9.69056 62.6121 8.69136V8.64744C62.6121 7.66471 61.8512 7.16511 60.7926 7.13766ZM59.9049 7.77452V9.56429C59.3811 9.54782 58.9786 9.31175 58.9786 8.69685V8.65842C58.9786 8.02157 59.4032 7.80197 59.9049 7.77452ZM60.7926 9.56978V7.78001C61.3219 7.80746 61.7244 8.02157 61.7244 8.64744V8.69136C61.7244 9.32273 61.2998 9.55331 60.7926 9.56978Z" fill="white"/>
<path d="M64.8852 9.20743C64.9459 8.64195 64.9569 7.98863 64.9734 7.43413H66.0486V10.6568H66.9418V6.7314H64.1684C64.1684 7.6153 64.1574 8.3949 64.0968 9.01528C64.0361 9.63566 63.9038 9.95409 63.6116 9.95409C63.562 9.95409 63.5178 9.9486 63.4903 9.94311C63.4737 9.93762 63.4627 9.93762 63.4572 9.93213V10.6568L63.5399 10.6898C63.6005 10.7062 63.6612 10.7172 63.766 10.7172C64.5379 10.7172 64.797 10.0859 64.8852 9.20743Z" fill="white"/>
<path d="M69.4971 6.7314L68.2014 10.6568H69.0395L69.3097 9.7839H70.7377L71.0078 10.6568H71.9396L70.6605 6.7314H69.4971ZM69.5026 9.15253L70.0264 7.45609L70.5447 9.15253H69.5026Z" fill="white"/>
<path d="M73.1676 6.7314V10.6568H74.0608V9.03724H75.6432V10.6568H76.5364V6.7314H75.6432V8.33451H74.0608V6.7314H73.1676Z" fill="white"/>
<path d="M78.8393 7.42315V10.6568H79.738V7.42315H80.8021V6.7314H77.7751V7.42315H78.8393Z" fill="white"/>
</svg>
