<svg width="217" height="53" viewBox="0 0 217 53" fill="none" xmlns="http://www.w3.org/2000/svg">
<path d="M67.6081 43.1621H68.6196V47.1475H66.5212V45.2756H60.2561V47.1475H58.1577V43.1621H58.988C59.8787 42.4676 60.0448 41.2297 60.5732 34.708H67.6081V43.1621ZM62.5357 36.8366C62.3093 40.7315 62.0224 42.2865 61.3582 43.1621H65.3135V36.8366H62.5357Z" fill="#00003C"/>
<path d="M74.0382 45.5171C71.5171 45.5171 69.63 43.6602 69.63 41.1995C69.63 38.7388 71.5171 36.897 74.0382 36.897C76.5593 36.897 78.4464 38.7388 78.4464 41.1995C78.4464 43.6602 76.5593 45.5171 74.0382 45.5171ZM74.0382 43.4338C75.3063 43.4338 76.2121 42.528 76.2121 41.1995C76.2121 39.8861 75.3063 38.9652 74.0382 38.9652C72.7701 38.9652 71.8643 39.8861 71.8643 41.1995C71.8643 42.528 72.7701 43.4338 74.0382 43.4338Z" fill="#00003C"/>
<path d="M87.5242 45.2756H84.8823L82.2404 41.3505V45.2756H80.0363V37.1234H82.2404V40.7768L84.7313 37.1234H87.2223L84.4596 41.0334L87.5242 45.2756Z" fill="#00003C"/>
<path d="M94.1149 37.1234H96.4548L92.9071 45.1699C91.9259 47.3891 91.0654 48.2194 89.2387 48.2194H88.3329V46.2417H89.0877C90.1596 46.2417 90.4313 45.9549 90.9295 44.717L90.9597 44.6566L87.5026 37.1234H89.9029L92.0768 42.1506L94.1149 37.1234Z" fill="#00003C"/>
<path d="M107.751 45.2756H105.638L104.868 40.3692L102.362 45.2907H101.924L99.4177 40.3692L98.6629 45.2756H96.5343L97.893 37.1234H99.765L102.15 41.743L104.551 37.1234H106.407L107.751 45.2756Z" fill="#00003C"/>
<path d="M117.137 41.1844C117.137 41.3958 117.122 41.6071 117.092 41.8185H110.918C111.114 42.9356 111.839 43.5546 112.91 43.5546C113.68 43.5546 114.314 43.1922 114.646 42.6035H116.956C116.367 44.3849 114.813 45.5171 112.91 45.5171C110.51 45.5171 108.683 43.6451 108.683 41.1995C108.683 38.7539 110.495 36.897 112.91 36.897C115.416 36.897 117.137 38.8294 117.137 41.1844ZM112.91 38.7841C111.929 38.7841 111.235 39.3577 110.978 40.3239H114.933C114.616 39.3275 113.907 38.7841 112.91 38.7841Z" fill="#00003C"/>
<path d="M123.869 37.1234H126.058V45.2756H123.869V42.1506H120.895V45.2756H118.706V37.1234H120.895V40.1427H123.869V37.1234Z" fill="#00003C"/>
<path d="M134.859 37.1234V39.1162H132.202V45.2756H130.043V39.1162H127.386V37.1234H134.859Z" fill="#00003C"/>
<path d="M142.671 37.1234H144.317V45.2756H142.596L142.4 44.5358C141.705 45.1548 140.799 45.5171 139.758 45.5171C137.312 45.5171 135.486 43.6602 135.486 41.1995C135.486 38.7388 137.312 36.897 139.758 36.897C140.815 36.897 141.735 37.2744 142.445 37.8934L142.671 37.1234ZM139.939 43.4338C141.222 43.4338 142.158 42.4827 142.158 41.1995C142.158 39.9163 141.222 38.9652 139.939 38.9652C138.656 38.9652 137.72 39.9163 137.72 41.1995C137.72 42.4676 138.656 43.4338 139.939 43.4338Z" fill="#00003C"/>
<path d="M153.563 43.2526H154.619V47.1475H152.627V45.2756H146.452V37.1234H148.611V43.2526H151.404V37.1234H153.563V43.2526Z" fill="#00003C"/>
<path d="M162.218 37.1234H163.456V45.2756H161.328V40.958L157.538 45.2756H156.285V37.1234H158.414V41.3958L162.218 37.1234Z" fill="#00003C"/>
<path d="M168.079 37.1234H172.14V45.2756H170.027V42.4676H168.744L167.189 45.2756H164.834L166.66 42.0751C165.785 41.6071 165.271 40.7919 165.271 39.8106C165.271 38.2859 166.479 37.1234 168.079 37.1234ZM168.487 40.7768H170.027V38.8746H168.487C167.838 38.8746 167.46 39.2822 167.46 39.8257C167.46 40.3692 167.838 40.7768 168.487 40.7768Z" fill="#00003C"/>
<path d="M67.6081 25.2851H68.6196V29.2706H66.5212V27.3986H60.2561V29.2706H58.1577V25.2851H58.988C59.8787 24.5907 60.0448 23.3527 60.5732 16.8311H67.6081V25.2851ZM62.5357 18.9597C62.3093 22.8546 62.0224 24.4095 61.3582 25.2851H65.3135V18.9597H62.5357Z" fill="#0064FF"/>
<path d="M78.084 23.3075C78.084 23.5188 78.0689 23.7302 78.0387 23.9415H71.8643C72.0605 25.0586 72.7852 25.6776 73.857 25.6776C74.6269 25.6776 75.261 25.3153 75.5931 24.7265H77.9029C77.3141 26.5079 75.7592 27.6401 73.857 27.6401C71.4567 27.6401 69.63 25.7682 69.63 23.3225C69.63 20.8769 71.4416 19.02 73.857 19.02C76.363 19.02 78.084 20.9524 78.084 23.3075ZM73.857 20.9071C72.8757 20.9071 72.1813 21.4808 71.9247 22.447H75.8799C75.5629 21.4506 74.8534 20.9071 73.857 20.9071Z" fill="#0064FF"/>
<path d="M87.1409 27.3986H84.499L81.8571 23.4735V27.3986H79.653V19.2465H81.8571V22.8998L84.348 19.2465H86.8389L84.0763 23.1565L87.1409 27.3986Z" fill="#0064FF"/>
<path d="M96.2412 27.3986H93.7503L92.135 24.7114L90.4894 27.3986H88.0589L90.8216 23.2169L88.2401 19.2465H90.731L92.135 21.6166L93.6597 19.2465H96.0751L93.4484 23.1112L96.2412 27.3986Z" fill="#0064FF"/>
<path d="M103.63 19.2465H105.276V27.3986H103.555L103.359 26.6589C102.664 27.2778 101.758 27.6401 100.717 27.6401C98.2711 27.6401 96.4444 25.7833 96.4444 23.3225C96.4444 20.8618 98.2711 19.02 100.717 19.02C101.773 19.02 102.694 19.3975 103.404 20.0164L103.63 19.2465ZM100.898 25.5568C102.181 25.5568 103.117 24.6058 103.117 23.3225C103.117 22.0393 102.181 21.0883 100.898 21.0883C99.6147 21.0883 98.6787 22.0393 98.6787 23.3225C98.6787 24.5907 99.6147 25.5568 100.898 25.5568Z" fill="#0064FF"/>
<path d="M113.042 19.2465H115.382L111.834 27.2929C110.853 29.5121 109.992 30.3424 108.166 30.3424H107.26V28.3648H108.015C109.087 28.3648 109.358 28.0779 109.857 26.84L109.887 26.7796L106.43 19.2465H108.83L111.004 24.2736L113.042 19.2465Z" fill="#0064FF"/>
<path d="M119.943 27.6401C117.482 27.6401 115.61 25.7531 115.61 23.3075C115.61 20.8618 117.482 19.02 119.958 19.02C122.071 19.02 123.702 20.3636 124.094 22.3715H121.905C121.558 21.5714 120.818 21.0883 119.943 21.0883C118.75 21.0883 117.844 22.0544 117.844 23.3225C117.844 24.5756 118.765 25.5568 119.943 25.5568C120.833 25.5568 121.528 25.0737 121.905 24.1981H124.124C123.747 26.2513 122.071 27.6401 119.943 27.6401Z" fill="#0064FF"/>
<path d="M24.8213 32.5441H18.3096V19.4736H24.8213C28.4075 19.4736 31.333 22.4097 31.333 26.0089C31.333 29.608 28.4075 32.5441 24.8213 32.5441Z" fill="#0064FF"/>
<path d="M12.7404 20.2319L9.24856 16.7275L0 26.0095L9.24856 35.2914L12.7404 31.6923L10.9473 29.9874V22.0315L12.7404 20.2319Z" fill="#00003C"/>
<path d="M38.5035 16.7275L35.0117 20.2319L36.7104 22.0315V29.9874L35.0117 31.6923L38.5035 35.2914L47.7521 26.0095L38.5035 16.7275Z" fill="#00003C"/>
<path d="M14.627 11.3288L18.1188 14.8332L19.9118 13.0336H27.8392L29.5379 14.8332L33.1241 11.3288L23.8755 2.04688L14.627 11.3288Z" fill="#00003C"/>
<path d="M31.331 38.8904L29.5379 37.1855L27.8392 38.8904H19.9118L18.1188 37.1855L16.42 38.8904L14.627 40.6899L23.8755 49.9719L33.1241 40.6899L31.331 38.8904Z" fill="#00003C"/>
<path d="M60.7926 6.23141V5.7373H59.9049V6.23141C58.907 6.25886 58.0854 6.75846 58.0854 7.75217V7.7906C58.0854 8.77333 58.8463 9.27293 59.9049 9.30038V9.80547H60.7926V9.30038C61.7906 9.27293 62.6121 8.78431 62.6121 7.78511V7.74119C62.6121 6.75846 61.8512 6.25886 60.7926 6.23141ZM59.9049 6.86827V8.65804C59.3811 8.64157 58.9786 8.4055 58.9786 7.7906V7.75217C58.9786 7.11532 59.4032 6.89572 59.9049 6.86827ZM60.7926 8.66353V6.87376C61.3219 6.90121 61.7244 7.11532 61.7244 7.74119V7.78511C61.7244 8.41648 61.2998 8.64706 60.7926 8.66353Z" fill="#00003C"/>
<path d="M64.8852 8.30118C64.9459 7.7357 64.9569 7.08238 64.9734 6.52788H66.0486V9.75057H66.9418V5.82515H64.1684C64.1684 6.70905 64.1574 7.48865 64.0968 8.10903C64.0361 8.72941 63.9038 9.04784 63.6116 9.04784C63.562 9.04784 63.5178 9.04235 63.4903 9.03686C63.4737 9.03137 63.4627 9.03137 63.4572 9.02588V9.75057L63.5399 9.78351C63.6005 9.79998 63.6612 9.81096 63.766 9.81096C64.5379 9.81096 64.797 9.1796 64.8852 8.30118Z" fill="#00003C"/>
<path d="M69.4971 5.82515L68.2014 9.75057H69.0395L69.3097 8.87765H70.7377L71.0078 9.75057H71.9396L70.6605 5.82515H69.4971ZM69.5026 8.24628L70.0264 6.54984L70.5447 8.24628H69.5026Z" fill="#00003C"/>
<path d="M73.1676 5.82515V9.75057H74.0608V8.13099H75.6432V9.75057H76.5364V5.82515H75.6432V7.42826H74.0608V5.82515H73.1676Z" fill="#00003C"/>
<path d="M78.8393 6.5169V9.75057H79.738V6.5169H80.8021V5.82515H77.7751V6.5169H78.8393Z" fill="#00003C"/>
</svg>
