<svg width="371" height="95" viewBox="0 0 371 95" fill="none" xmlns="http://www.w3.org/2000/svg">
<path d="M47.3345 57.0892H35.181V32.7823H47.3345C54.0509 32.7823 59.4879 38.2194 59.4879 44.9358C59.4879 51.6522 54.0509 57.0892 47.3345 57.0892Z" fill="#00003C"/>
<path d="M24.4668 34.2215L17.9103 27.5051L0.479736 44.9357L17.9103 62.2064L24.4668 55.65L21.2685 52.2918V37.4198L24.4668 34.2215Z" fill="#00003C"/>
<path d="M73.0805 27.5051L66.3641 34.2215L69.7223 37.4198V52.2918L66.3641 55.65L73.0805 62.2064L90.3512 44.9357L73.0805 27.5051Z" fill="#00003C"/>
<path d="M28.1448 17.4306L34.7012 23.9871L38.0594 20.6289H52.9314L56.2896 23.9871L62.8461 17.4306L45.4155 0L28.1448 17.4306Z" fill="#00003C"/>
<path d="M59.4879 69.2427L56.2896 65.8845L52.9314 69.2427H38.0594L34.7012 65.8845L31.3431 69.2427L28.1448 72.441L45.4155 89.8716L62.8461 72.441L59.4879 69.2427Z" fill="#00003C"/>
<path d="M112.419 1.91895V3.19825H109.541V4.9573H111.78V6.0767H109.541V8.79524H107.942V1.91895H112.419V1.91895Z" fill="#00003C"/>
<path d="M116.257 1.91895V7.51593H118.976V8.79524H114.658V1.91895H116.257Z" fill="#00003C"/>
<path d="M125.212 1.91895L127.451 8.79524H125.852L125.372 7.1961H122.814L122.334 8.79524H120.895L123.134 1.91895H125.212ZM125.053 6.23662L124.093 3.19825L123.134 6.23662H125.053Z" fill="#00003C"/>
<path d="M131.449 1.91895L134.008 6.39653V1.91895H135.447V8.79524H133.848L130.969 3.83791V8.79524H129.53V1.91895H131.449Z" fill="#00003C"/>
<path d="M137.686 3.19825V1.91895H142.963V3.19825H141.044V8.79524H139.445V3.19825H137.686Z" fill="#00003C"/>
<path d="M112.419 85.8738V87.1531H109.541V88.7522H111.94V89.8716H109.541V91.6307H112.579V92.91H107.942V86.0337H112.419V85.8738Z" fill="#00003C"/>
<path d="M116.737 85.8738L119.296 90.3514V85.8738H120.735V92.7501H119.136L116.257 87.7927V92.7501H114.818V85.8738H116.737Z" fill="#00003C"/>
<path d="M122.974 86.9932V85.7139H128.251V86.9932H126.332V92.5902H124.733V86.9932H122.974Z" fill="#00003C"/>
<path d="M134.967 85.8738V87.1531H132.089V88.7522H134.487V89.8716H132.089V91.6307H135.127V92.91H130.49V86.0337H134.967V85.8738Z" fill="#00003C"/>
<path d="M139.925 85.8738C140.724 85.8738 141.364 86.0337 141.844 86.3535C142.323 86.6734 142.483 87.1531 142.483 87.9527C142.483 88.4324 142.323 88.9121 142.003 89.232C141.684 89.5518 141.364 89.7117 141.044 89.8716L142.803 92.7501H141.204L139.605 90.0315H139.125V92.7501H137.526V85.8738H139.925ZM141.044 87.9527C141.044 87.1531 140.564 86.9932 139.925 86.9932H139.125V88.9121H139.925C140.724 88.9121 141.044 88.5923 141.044 87.9527Z" fill="#00003C"/>
<path d="M147.6 85.8738C149.2 85.8738 150.159 86.6733 150.159 88.1126C150.159 88.9121 149.839 89.3919 149.519 89.7117C149.04 90.0315 148.4 90.1915 147.6 90.1915H146.801V92.7501H145.202V85.8738H147.6ZM148.72 88.1126C148.72 87.313 148.24 86.9932 147.6 86.9932H146.801V89.0721H147.6C148.4 89.0721 148.72 88.7522 148.72 88.1126Z" fill="#00003C"/>
<path d="M154.956 85.8738C155.756 85.8738 156.396 86.0337 156.875 86.3535C157.355 86.6734 157.515 87.1531 157.515 87.9527C157.515 88.4324 157.355 88.9121 157.035 89.232C156.715 89.5518 156.396 89.7117 156.076 89.8716L157.835 92.7501H156.236L154.637 90.0315H153.997V92.7501H152.398V85.8738H154.956ZM156.076 87.9527C156.076 87.1531 155.596 86.9932 154.956 86.9932H154.157V88.9121H154.956C155.596 88.9121 156.076 88.5923 156.076 87.9527Z" fill="#00003C"/>
<path d="M161.833 85.8738V92.7501H160.234V85.8738H161.833Z" fill="#00003C"/>
<path d="M164.871 92.1104C164.391 91.7906 164.231 91.1509 164.072 90.5113H165.511C165.511 90.8311 165.671 91.1509 165.831 91.3108C165.99 91.4708 166.31 91.6307 166.79 91.6307C167.43 91.6307 167.909 91.3108 167.909 90.6712C167.909 90.3514 167.909 90.1915 167.59 90.0315C167.43 89.8716 167.11 89.8716 166.63 89.7117C165.671 89.5518 165.191 89.3919 164.711 89.0721C164.231 88.7522 164.072 88.2725 164.072 87.6328C164.072 86.9932 164.391 86.5134 164.711 86.1936C165.191 85.8738 165.831 85.554 166.47 85.554C168.069 85.554 168.869 86.1936 169.029 87.6328H167.59C167.43 86.9932 167.11 86.6733 166.47 86.6733C165.831 86.6733 165.511 86.9932 165.511 87.4729C165.511 87.6328 165.511 87.9527 165.831 87.9527C165.99 88.1126 166.31 88.2725 166.79 88.2725C167.59 88.4324 168.229 88.5923 168.709 88.9121C169.189 89.232 169.349 89.7117 169.349 90.3514C169.349 90.991 169.029 91.4708 168.709 91.9505C168.229 92.2703 167.59 92.5902 166.79 92.5902C165.991 92.7501 165.351 92.5902 164.871 92.1104Z" fill="#00003C"/>
<path d="M176.545 85.8738V87.1531H173.666V88.7522H176.065V89.8716H173.666V91.6307H176.705V92.91H172.067V86.0337H176.545V85.8738Z" fill="#00003C"/>
<path d="M186.459 85.8738V87.1531H183.581V88.7522H185.98V89.8716H183.581V91.6307H186.619V92.91H181.982V86.0337H186.459V85.8738Z" fill="#00003C"/>
<path d="M191.257 85.8738C192.376 85.8738 193.336 86.1936 193.975 86.8333C194.615 87.4729 194.935 88.2725 194.935 89.232C194.935 90.1915 194.615 91.1509 193.975 91.7906C193.336 92.4302 192.536 92.7501 191.257 92.7501H189.018V85.8738H191.257V85.8738ZM193.176 89.232C193.176 87.7928 192.536 86.9932 191.097 86.9932H190.457V91.4708H191.097C192.536 91.4708 193.176 90.6712 193.176 89.232Z" fill="#00003C"/>
<path d="M198.933 85.8738V92.7501H197.334V85.8738H198.933Z" fill="#00003C"/>
<path d="M201.012 86.9932V85.7139H206.289V86.9932H204.37V92.5902H202.771V86.9932H201.012Z" fill="#00003C"/>
<path d="M210.127 85.8738V92.7501H208.528V85.8738H210.127Z" fill="#00003C"/>
<path d="M213.485 91.7906C212.845 91.1509 212.525 90.3514 212.525 89.232C212.525 88.2725 212.845 87.313 213.485 86.6733C214.125 86.0337 214.924 85.7139 216.044 85.7139C217.003 85.7139 217.962 86.0337 218.602 86.6733C219.242 87.313 219.562 88.1126 219.562 89.232C219.562 90.1915 219.242 91.1509 218.602 91.7906C217.962 92.4303 217.163 92.7501 216.044 92.7501C215.084 92.7501 214.125 92.4303 213.485 91.7906ZM217.483 90.8311C217.803 90.5113 217.962 89.8716 217.962 89.232C217.962 88.5923 217.803 87.9527 217.483 87.6328C217.163 87.313 216.683 86.9932 216.044 86.9932C215.404 86.9932 214.924 87.1531 214.604 87.6328C214.284 87.9527 214.125 88.5923 214.125 89.232C214.125 89.8716 214.284 90.5113 214.604 90.8311C214.924 91.1509 215.404 91.4708 216.044 91.4708C216.683 91.4708 217.163 91.3109 217.483 90.8311Z" fill="#00003C"/>
<path d="M223.879 85.8738L226.438 90.3514V85.8738H227.877V92.7501H226.278L223.4 87.7927V92.7501H221.96V85.8738H223.879Z" fill="#00003C"/>
<path d="M123.773 29.4242C123.773 34.5414 119.935 38.3793 114.658 38.3793H107.942V20.469H114.658C120.095 20.469 123.773 24.3069 123.773 29.4242ZM119.935 29.4242C119.935 26.2259 117.856 24.147 114.658 24.147H111.78V34.8612H114.658C117.697 34.8612 119.935 32.6224 119.935 29.4242Z" fill="#00003C"/>
<path d="M140.084 32.6224H129.53C129.85 34.5414 131.129 35.5008 132.888 35.5008C134.168 35.5008 135.287 34.8612 135.767 33.9017H139.765C138.805 36.9401 136.087 38.859 132.888 38.859C128.731 38.859 125.692 35.6608 125.692 31.503C125.692 27.3452 128.731 24.147 132.888 24.147C137.206 24.147 140.084 27.3452 140.084 31.3431C140.084 31.8228 140.084 32.1427 140.084 32.6224ZM129.69 30.0638H136.406C135.927 28.3047 134.647 27.5052 133.048 27.5052C131.289 27.3452 130.17 28.3047 129.69 30.0638Z" fill="#00003C"/>
<path d="M149.2 38.859C145.042 38.859 141.844 35.6608 141.844 31.503C141.844 27.3452 145.042 24.3069 149.2 24.3069C152.718 24.3069 155.596 26.5457 156.236 29.9039H152.558C151.918 28.4646 150.639 27.825 149.2 27.825C147.121 27.825 145.681 29.4241 145.681 31.6629C145.681 33.9017 147.281 35.5008 149.2 35.5008C150.639 35.5008 151.918 34.7013 152.558 33.2621H156.396C155.596 36.4603 152.878 38.859 149.2 38.859Z" fill="#00003C"/>
<path d="M167.11 38.3793L162.632 31.8229V38.3793H158.954V19.6694H162.632V30.8634L166.79 24.7867H171.108L166.47 31.3431L171.587 38.5393H167.11V38.3793Z" fill="#00003C"/>
<path d="M186.3 30.0638V38.3793H182.622V30.5436C182.622 28.4647 181.822 27.5052 180.223 27.5052C178.304 27.5052 177.184 28.7845 177.184 31.1832V38.3793H173.506V19.6694H177.184V25.9061C178.304 24.9466 179.743 24.3069 181.342 24.3069C184.381 24.3069 186.3 26.5457 186.3 30.0638Z" fill="#00003C"/>
<path d="M188.698 31.503C188.698 27.3452 191.897 24.147 196.214 24.147C200.532 24.147 203.73 27.1853 203.73 31.503C203.73 35.6608 200.532 38.859 196.214 38.859C191.897 38.859 188.698 35.6608 188.698 31.503ZM199.892 31.503C199.892 29.2642 198.293 27.6651 196.214 27.6651C194.135 27.6651 192.536 29.2642 192.536 31.503C192.536 33.7418 194.135 35.3409 196.214 35.3409C198.453 35.3409 199.892 33.7418 199.892 31.503Z" fill="#00003C"/>
<path d="M206.129 32.6224V24.6267H209.807V32.1427C209.807 34.0616 210.926 35.3409 212.525 35.3409C214.285 35.3409 215.244 34.2215 215.244 32.1427V24.6267H218.922V32.6224C218.922 36.3004 216.363 38.859 212.366 38.859C208.688 38.859 206.129 36.3004 206.129 32.6224Z" fill="#00003C"/>
<path d="M227.397 38.859C223.879 38.859 221.641 36.9401 221.641 33.9017H225.319C225.319 35.181 226.278 35.8207 227.557 35.8207C228.517 35.8207 229.476 35.3409 229.476 34.3815C229.476 33.422 228.197 33.1021 226.758 32.9422C224.519 32.6224 221.8 31.9827 221.8 28.7845C221.8 26.2258 224.039 24.3069 227.397 24.3069C230.756 24.3069 232.994 26.2258 232.994 28.9444H229.476C229.476 27.825 228.677 27.3452 227.397 27.3452C226.278 27.3452 225.478 27.825 225.478 28.6246C225.478 29.584 226.598 29.744 228.037 30.0638C230.276 30.5435 233.154 31.0233 233.154 34.3815C233.154 36.9401 230.915 38.859 227.397 38.859Z" fill="#00003C"/>
<path d="M249.306 32.6224H238.911C239.231 34.5414 240.51 35.5008 242.269 35.5008C243.549 35.5008 244.668 34.8612 245.148 33.9017H249.146C248.186 36.9401 245.468 38.859 242.269 38.859C238.112 38.859 235.073 35.6608 235.073 31.503C235.073 27.3452 238.112 24.147 242.269 24.147C246.587 24.147 249.465 27.3452 249.465 31.3431C249.306 31.8228 249.306 32.1427 249.306 32.6224ZM238.911 30.0638H245.628C245.148 28.3047 243.869 27.5052 242.269 27.5052C240.51 27.3452 239.391 28.3047 238.911 30.0638Z" fill="#00003C"/>
<path d="M118.176 69.0828L111.78 60.2876V69.0828H107.942V51.1725H111.78V59.488L117.697 51.1725H122.174L116.097 59.8078L122.814 69.0828H118.176Z" fill="#00003C"/>
<path d="M123.453 63.3259V55.3302H127.131V62.8462C127.131 64.7651 128.251 66.0444 129.85 66.0444C131.609 66.0444 132.568 64.925 132.568 62.8462V55.3302H136.246V63.3259C136.246 67.0039 133.688 69.5625 129.69 69.5625C126.012 69.5625 123.453 67.0039 123.453 63.3259Z" fill="#00003C"/>
<path d="M154.637 62.2065C154.637 66.3643 151.598 69.5626 147.44 69.5626C145.681 69.5626 144.242 68.9229 143.123 67.9634L142.643 69.0828H139.925V50.3729H143.603V56.1298C144.722 55.3302 146.001 55.0104 147.44 55.0104C151.438 54.8505 154.637 58.0488 154.637 62.2065ZM150.799 62.2065C150.799 59.9678 149.2 58.3686 146.961 58.3686C144.722 58.3686 143.123 59.9678 143.123 62.2065C143.123 64.2854 144.722 66.0445 146.961 66.0445C149.2 66.0445 150.799 64.4453 150.799 62.2065Z" fill="#00003C"/>
<path d="M170.628 63.3259H160.234C160.553 65.2448 161.833 66.2043 163.592 66.2043C164.871 66.2043 165.99 65.5647 166.47 64.6052H170.468C169.509 67.6436 166.79 69.5625 163.592 69.5625C159.434 69.5625 156.396 66.3643 156.396 62.2065C156.396 58.0487 159.434 54.8505 163.592 54.8505C167.909 54.8505 170.788 58.0487 170.788 62.0466C170.628 62.5263 170.628 62.8461 170.628 63.3259ZM160.234 60.7673H166.95C166.47 59.0082 165.191 58.2087 163.592 58.2087C161.833 58.0487 160.713 59.0082 160.234 60.7673Z" fill="#00003C"/>
<path d="M181.662 55.1703V58.6884H180.063C177.984 58.6884 177.184 59.6479 177.184 61.8867V69.0828H173.506V55.3302H175.905L176.545 57.0892C177.504 55.8099 178.784 55.3302 180.543 55.3302H181.662V55.1703Z" fill="#00003C"/>
<path d="M196.534 60.7673V69.0828H192.856V61.247C192.856 59.1681 192.057 58.2087 190.457 58.2087C188.538 58.2087 187.419 59.6479 187.419 61.8867V69.0828H183.741V55.3302H186.3L187.099 57.0892C188.219 55.8099 189.818 55.0104 191.737 55.0104C194.455 55.0104 196.534 57.2492 196.534 60.7673Z" fill="#00003C"/>
<path d="M213.165 63.3259H202.771C203.091 65.2448 204.37 66.2043 206.129 66.2043C207.408 66.2043 208.528 65.5647 209.007 64.6052H213.005C212.046 67.6436 209.327 69.5625 206.129 69.5625C201.971 69.5625 198.933 66.3643 198.933 62.2065C198.933 58.0487 201.971 54.8505 206.129 54.8505C210.447 54.8505 213.325 58.0487 213.325 62.0466C213.325 62.5263 213.165 62.8461 213.165 63.3259ZM202.771 60.7673H209.487C209.007 59.0082 207.728 58.2087 206.129 58.2087C204.37 58.0487 203.25 59.0082 202.771 60.7673Z" fill="#00003C"/>
<path d="M224.359 65.7246V69.0828H221.64C218.602 69.0828 216.683 67.1638 216.683 64.1255V58.2087H214.284V57.569L219.721 51.8121H220.361V55.4901H224.199V58.5285H220.521V63.9656C220.521 65.2449 221.321 66.0445 222.6 66.0445H224.359V65.7246Z" fill="#00003C"/>
<path d="M240.031 63.3259H229.636C229.956 65.2448 231.235 66.2043 232.994 66.2043C234.274 66.2043 235.393 65.5647 235.873 64.6052H239.871C238.911 67.6436 236.193 69.5625 232.994 69.5625C228.837 69.5625 225.798 66.3643 225.798 62.2065C225.798 58.0487 228.837 54.8505 232.994 54.8505C237.312 54.8505 240.19 58.0487 240.19 62.0466C240.19 62.5263 240.031 62.8461 240.031 63.3259ZM229.636 60.7673H236.353C235.873 59.0082 234.593 58.2087 232.994 58.2087C231.235 58.0487 230.116 59.0082 229.636 60.7673Z" fill="#00003C"/>
<path d="M241.79 64.6052H245.468C245.468 65.8845 246.427 66.5242 247.706 66.5242C248.666 66.5242 249.625 66.0444 249.625 65.0849C249.625 64.1255 248.506 63.8056 246.907 63.6457C244.668 63.3259 241.949 62.6862 241.949 59.488C241.949 56.9293 244.188 55.0104 247.546 55.0104C250.905 55.0104 253.143 56.9293 253.143 59.6479H249.625C249.625 58.5285 248.826 58.0487 247.546 58.0487C246.427 58.0487 245.627 58.5285 245.627 59.328C245.627 60.2875 246.747 60.4474 248.186 60.7673C250.425 61.247 253.303 61.7267 253.303 65.0849C253.303 67.9634 251.065 69.7224 247.546 69.7224C244.188 69.5625 241.79 67.4837 241.79 64.6052Z" fill="#00003C"/>
<path d="M275.691 57.4091C275.691 60.9272 272.973 63.6458 269.295 63.6458H266.256V69.2428H262.418V51.1725H269.295C272.973 51.1725 275.691 53.891 275.691 57.4091ZM271.853 57.4091C271.853 55.9699 270.894 54.8505 269.295 54.8505H266.416V59.9677H269.295C270.734 59.9677 271.853 58.8484 271.853 57.4091Z" fill="#00003C"/>
<path d="M277.93 50.3729H281.608V69.2428H277.93V50.3729Z" fill="#00003C"/>
<path d="M299.199 55.3302V69.0828H296.32L296 67.8035C294.881 68.763 293.282 69.4026 291.523 69.4026C287.365 69.4026 284.327 66.2044 284.327 62.0466C284.327 57.8888 287.365 54.6906 291.523 54.6906C293.282 54.6906 294.881 55.3302 296 56.4496L296.32 55.1703L299.199 55.3302ZM295.521 62.2065C295.521 59.9677 293.921 58.3686 291.683 58.3686C289.444 58.3686 287.845 59.9677 287.845 62.2065C287.845 64.4453 289.444 66.0444 291.683 66.0444C294.081 66.0444 295.521 64.4453 295.521 62.2065Z" fill="#00003C"/>
<path d="M320.787 58.5285H317.269V69.0829H313.591V58.5285H307.354V63.6458C307.354 64.9251 308.154 65.7247 309.433 65.7247H310.872V69.0829H308.474C305.435 69.0829 303.516 67.1639 303.516 64.1255V58.5285H300.958V57.729L306.395 51.6523H307.034V55.4902H313.431V54.051C313.431 51.3324 314.87 49.7333 317.749 49.7333H320.467V52.6117H318.388C317.429 52.6117 316.949 53.0915 316.949 54.051V55.3303H320.467V58.5285H320.787Z" fill="#00003C"/>
<path d="M322.066 62.2065C322.066 58.0487 325.265 54.8505 329.582 54.8505C333.9 54.8505 337.098 57.8888 337.098 62.2065C337.098 66.3643 333.9 69.5625 329.582 69.5625C325.265 69.5625 322.066 66.3643 322.066 62.2065ZM333.26 62.2065C333.26 59.9677 331.661 58.3686 329.582 58.3686C327.503 58.3686 325.904 59.9677 325.904 62.2065C325.904 64.4453 327.503 66.0444 329.582 66.0444C331.661 66.0444 333.26 64.4453 333.26 62.2065Z" fill="#00003C"/>
<path d="M347.972 55.1703V58.6884H346.373C344.294 58.6884 343.495 59.6479 343.495 61.8867V69.0828H339.817V55.3302H342.215L342.855 57.0892C343.815 55.8099 345.094 55.3302 346.853 55.3302H347.972V55.1703Z" fill="#00003C"/>
<path d="M370.36 60.4474V69.0828H366.682V61.0871C366.682 59.1681 365.883 58.2087 364.603 58.2087C363.004 58.2087 361.885 59.488 361.885 61.5668V69.0828H358.207V61.0871C358.207 59.1681 357.567 58.2087 356.128 58.2087C354.369 58.2087 353.409 59.488 353.409 61.5668V69.0828H349.731V55.3302H352.29L352.93 57.0892C353.889 55.8099 355.488 55.0104 357.087 55.0104C358.846 55.0104 360.286 55.8099 361.085 57.2492C362.045 55.9699 363.644 55.0104 365.403 55.0104C368.441 55.0104 370.36 57.2492 370.36 60.4474Z" fill="#00003C"/>
</svg>
