<svg width="213" height="48" viewBox="0 0 213 48" fill="none" xmlns="http://www.w3.org/2000/svg">
<path d="M67.6081 41.1152H68.6196V45.1006H66.5212V43.2287H60.2561V45.1006H58.1577V41.1152H58.988C59.8787 40.4207 60.0448 39.1828 60.5732 32.6611H67.6081V41.1152ZM62.5357 34.7897C62.3093 38.6846 62.0224 40.2396 61.3582 41.1152H65.3135V34.7897H62.5357Z" fill="white"/>
<path d="M74.0382 43.4702C71.5171 43.4702 69.63 41.6134 69.63 39.1526C69.63 36.6919 71.5171 34.8501 74.0382 34.8501C76.5593 34.8501 78.4464 36.6919 78.4464 39.1526C78.4464 41.6134 76.5593 43.4702 74.0382 43.4702ZM74.0382 41.3869C75.3063 41.3869 76.2121 40.4811 76.2121 39.1526C76.2121 37.8392 75.3063 36.9183 74.0382 36.9183C72.7701 36.9183 71.8643 37.8392 71.8643 39.1526C71.8643 40.4811 72.7701 41.3869 74.0382 41.3869Z" fill="white"/>
<path d="M87.5242 43.2287H84.8823L82.2404 39.3036V43.2287H80.0363V35.0766H82.2404V38.7299L84.7313 35.0766H87.2223L84.4596 38.9866L87.5242 43.2287Z" fill="white"/>
<path d="M94.1149 35.0766H96.4548L92.9071 43.123C91.9259 45.3422 91.0654 46.1725 89.2387 46.1725H88.3329V44.1949H89.0877C90.1596 44.1949 90.4313 43.908 90.9295 42.6701L90.9597 42.6097L87.5026 35.0766H89.9029L92.0768 40.1037L94.1149 35.0766Z" fill="white"/>
<path d="M107.751 43.2287H105.638L104.868 38.3223L102.362 43.2438H101.924L99.4177 38.3223L98.6629 43.2287H96.5343L97.893 35.0766H99.765L102.15 39.6961L104.551 35.0766H106.407L107.751 43.2287Z" fill="white"/>
<path d="M117.137 39.1375C117.137 39.3489 117.122 39.5602 117.092 39.7716H110.918C111.114 40.8887 111.839 41.5077 112.91 41.5077C113.68 41.5077 114.314 41.1454 114.646 40.5566H116.956C116.367 42.338 114.813 43.4702 112.91 43.4702C110.51 43.4702 108.683 41.5983 108.683 39.1526C108.683 36.707 110.495 34.8501 112.91 34.8501C115.416 34.8501 117.137 36.7825 117.137 39.1375ZM112.91 36.7372C111.929 36.7372 111.235 37.3109 110.978 38.277H114.933C114.616 37.2807 113.907 36.7372 112.91 36.7372Z" fill="white"/>
<path d="M123.869 35.0766H126.058V43.2287H123.869V40.1037H120.895V43.2287H118.706V35.0766H120.895V38.0959H123.869V35.0766Z" fill="white"/>
<path d="M134.859 35.0766V37.0693H132.202V43.2287H130.043V37.0693H127.386V35.0766H134.859Z" fill="white"/>
<path d="M142.671 35.0766H144.317V43.2287H142.596L142.4 42.489C141.705 43.1079 140.799 43.4702 139.758 43.4702C137.312 43.4702 135.486 41.6134 135.486 39.1526C135.486 36.6919 137.312 34.8501 139.758 34.8501C140.815 34.8501 141.735 35.2275 142.445 35.8465L142.671 35.0766ZM139.939 41.3869C141.222 41.3869 142.158 40.4358 142.158 39.1526C142.158 37.8694 141.222 36.9183 139.939 36.9183C138.656 36.9183 137.72 37.8694 137.72 39.1526C137.72 40.4207 138.656 41.3869 139.939 41.3869Z" fill="white"/>
<path d="M153.563 41.2058H154.619V45.1006H152.627V43.2287H146.452V35.0766H148.611V41.2058H151.404V35.0766H153.563V41.2058Z" fill="white"/>
<path d="M162.218 35.0766H163.456V43.2287H161.328V38.9111L157.538 43.2287H156.285V35.0766H158.414V39.3489L162.218 35.0766Z" fill="white"/>
<path d="M168.079 35.0766H172.14V43.2287H170.027V40.4207H168.744L167.189 43.2287H164.834L166.66 40.0282C165.785 39.5602 165.271 38.745 165.271 37.7637C165.271 36.239 166.479 35.0766 168.079 35.0766ZM168.487 38.7299H170.027V36.8278H168.487C167.838 36.8278 167.46 37.2354 167.46 37.7788C167.46 38.3223 167.838 38.7299 168.487 38.7299Z" fill="white"/>
<path d="M67.6081 23.2382H68.6196V27.2237H66.5212V25.3517H60.2561V27.2237H58.1577V23.2382H58.988C59.8787 22.5438 60.0448 21.3059 60.5732 14.7842H67.6081V23.2382ZM62.5357 16.9128C62.3093 20.8077 62.0224 22.3626 61.3582 23.2382H65.3135V16.9128H62.5357Z" fill="#0064FF"/>
<path d="M78.084 21.2606C78.084 21.4719 78.0689 21.6833 78.0387 21.8946H71.8643C72.0605 23.0118 72.7852 23.6307 73.857 23.6307C74.6269 23.6307 75.261 23.2684 75.5931 22.6796H77.9029C77.3141 24.461 75.7592 25.5933 73.857 25.5933C71.4567 25.5933 69.63 23.7213 69.63 21.2757C69.63 18.83 71.4416 16.9732 73.857 16.9732C76.363 16.9732 78.084 18.9055 78.084 21.2606ZM73.857 18.8602C72.8757 18.8602 72.1813 19.4339 71.9247 20.4001H75.8799C75.5629 19.4037 74.8534 18.8602 73.857 18.8602Z" fill="#0064FF"/>
<path d="M87.1409 25.3517H84.499L81.8571 21.4266V25.3517H79.653V17.1996H81.8571V20.853L84.348 17.1996H86.8389L84.0763 21.1096L87.1409 25.3517Z" fill="#0064FF"/>
<path d="M96.2412 25.3517H93.7503L92.135 22.6646L90.4894 25.3517H88.0589L90.8216 21.17L88.2401 17.1996H90.731L92.135 19.5698L93.6597 17.1996H96.0751L93.4484 21.0643L96.2412 25.3517Z" fill="#0064FF"/>
<path d="M103.63 17.1996H105.276V25.3517H103.555L103.359 24.612C102.664 25.231 101.758 25.5933 100.717 25.5933C98.2711 25.5933 96.4444 23.7364 96.4444 21.2757C96.4444 18.8149 98.2711 16.9732 100.717 16.9732C101.773 16.9732 102.694 17.3506 103.404 17.9695L103.63 17.1996ZM100.898 23.51C102.181 23.51 103.117 22.5589 103.117 21.2757C103.117 19.9925 102.181 19.0414 100.898 19.0414C99.6147 19.0414 98.6787 19.9925 98.6787 21.2757C98.6787 22.5438 99.6147 23.51 100.898 23.51Z" fill="#0064FF"/>
<path d="M113.042 17.1996H115.382L111.834 25.2461C110.853 27.4652 109.992 28.2955 108.166 28.2955H107.26V26.3179H108.015C109.087 26.3179 109.358 26.0311 109.857 24.7932L109.887 24.7328L106.43 17.1996H108.83L111.004 22.2268L113.042 17.1996Z" fill="#0064FF"/>
<path d="M119.943 25.5933C117.482 25.5933 115.61 23.7062 115.61 21.2606C115.61 18.8149 117.482 16.9732 119.958 16.9732C122.071 16.9732 123.702 18.3168 124.094 20.3246H121.905C121.558 19.5245 120.818 19.0414 119.943 19.0414C118.75 19.0414 117.844 20.0076 117.844 21.2757C117.844 22.5287 118.765 23.51 119.943 23.51C120.833 23.51 121.528 23.0269 121.905 22.1513H124.124C123.747 24.2044 122.071 25.5933 119.943 25.5933Z" fill="#0064FF"/>
<path d="M24.8213 30.4972H18.3096V17.4268H24.8213C28.4075 17.4268 31.333 20.3629 31.333 23.962C31.333 27.5611 28.4075 30.4972 24.8213 30.4972Z" fill="#0064FF"/>
<path d="M12.7404 18.1851L9.24856 14.6807L0 23.9626L9.24856 33.2445L12.7404 29.6454L10.9473 27.9406V19.9846L12.7404 18.1851Z" fill="white"/>
<path d="M38.5035 14.6807L35.0117 18.1851L36.7104 19.9846V27.9406L35.0117 29.6454L38.5035 33.2445L47.7521 23.9626L38.5035 14.6807Z" fill="white"/>
<path d="M14.627 9.28192L18.1188 12.7863L19.9118 10.9868H27.8392L29.5379 12.7863L33.1241 9.28192L23.8755 0L14.627 9.28192Z" fill="white"/>
<path d="M31.331 36.8435L29.5379 35.1387L27.8392 36.8435H19.9118L18.1188 35.1387L16.42 36.8435L14.627 38.6431L23.8755 47.925L33.1241 38.6431L31.331 36.8435Z" fill="white"/>
<path d="M60.7926 4.18454V3.69043H59.9049V4.18454C58.907 4.21199 58.0854 4.71159 58.0854 5.7053V5.74373C58.0854 6.72646 58.8463 7.22606 59.9049 7.25351V7.7586H60.7926V7.25351C61.7906 7.22606 62.6121 6.73744 62.6121 5.73824V5.69432C62.6121 4.71159 61.8512 4.21199 60.7926 4.18454ZM59.9049 4.82139V6.61117C59.3811 6.5947 58.9786 6.35862 58.9786 5.74373V5.7053C58.9786 5.06845 59.4032 4.84884 59.9049 4.82139ZM60.7926 6.61666V4.82688C61.3219 4.85433 61.7244 5.06845 61.7244 5.69432V5.73824C61.7244 6.3696 61.2998 6.60019 60.7926 6.61666Z" fill="white"/>
<path d="M64.8852 6.25431C64.9459 5.68883 64.9569 5.03551 64.9734 4.481H66.0486V7.7037H66.9418V3.77827H64.1684C64.1684 4.66218 64.1574 5.44177 64.0968 6.06216C64.0361 6.68254 63.9038 7.00096 63.6116 7.00096C63.562 7.00096 63.5178 6.99547 63.4903 6.98998C63.4737 6.98449 63.4627 6.98449 63.4572 6.979V7.7037L63.5399 7.73664C63.6005 7.75311 63.6612 7.76409 63.766 7.76409C64.5379 7.76409 64.797 7.13273 64.8852 6.25431Z" fill="white"/>
<path d="M69.4971 3.77827L68.2014 7.7037H69.0395L69.3097 6.83077H70.7377L71.0078 7.7037H71.9396L70.6605 3.77827H69.4971ZM69.5026 6.19941L70.0264 4.50297L70.5447 6.19941H69.5026Z" fill="white"/>
<path d="M73.1676 3.77827V7.7037H74.0608V6.08412H75.6432V7.7037H76.5364V3.77827H75.6432V5.38138H74.0608V3.77827H73.1676Z" fill="white"/>
<path d="M78.8393 4.47002V7.7037H79.738V4.47002H80.8021V3.77827H77.7751V4.47002H78.8393Z" fill="white"/>
</svg>
