<svg width="217" height="53" viewBox="0 0 217 53" fill="none" xmlns="http://www.w3.org/2000/svg">
<g clip-path="url(#clip0_4415_24610)">
<path d="M60.884 7.70801V8.46709H59.1823V9.51082H60.5059V10.175H59.1823V11.7881H58.2368V7.70801H60.884Z" fill="#00003C"/>
<path d="M63.0592 7.70703V11.028H64.6665V11.7871H62.1138V7.70703H63.0592Z" fill="#00003C"/>
<path d="M68.4477 7.70703L69.7713 11.7871H68.8259L68.5422 10.8382H67.0295L66.7459 11.7871H65.895L67.2186 7.70703H68.4477ZM68.2586 10.174L67.6914 8.37122L67.1241 10.174H68.2586Z" fill="#00003C"/>
<path d="M72.1379 7.70703L73.6507 10.3638V7.70703H74.5015V11.7871H73.5561L71.8543 8.84565V11.7871H71.0034V7.70703H72.1379Z" fill="#00003C"/>
<path d="M75.7256 8.37122V7.70703H78.8455V8.46611H77.711V11.7871H76.7656V8.37122H75.7256Z" fill="#00003C"/>
<path d="M62.1353 36.7421C65.2508 36.7421 67.5042 38.9653 67.5042 42.0354C67.5042 45.1055 65.2508 47.3287 62.1353 47.3287H58.1426V36.7421H62.1353ZM62.0899 45.2114C63.9048 45.2114 65.16 43.8805 65.16 42.0354C65.16 40.1601 63.9048 38.8745 62.0899 38.8745H60.4263V45.2114H62.0899Z" fill="#00003C"/>
<path d="M73.073 47.5707C70.5473 47.5707 68.6568 45.7105 68.6568 43.2453C68.6568 40.7801 70.5473 38.935 73.073 38.935C75.5986 38.935 77.4891 40.7801 77.4891 43.2453C77.4891 45.7105 75.5986 47.5707 73.073 47.5707ZM73.073 45.4836C74.3434 45.4836 75.2508 44.5762 75.2508 43.2453C75.2508 41.9295 74.3434 41.007 73.073 41.007C71.8026 41.007 70.8951 41.9295 70.8951 43.2453C70.8951 44.5762 71.8026 45.4836 73.073 45.4836Z" fill="#00003C"/>
<path d="M82.878 47.5707C80.4129 47.5707 78.5375 45.6802 78.5375 43.2302C78.5375 40.7801 80.4129 38.935 82.8932 38.935C85.0105 38.935 86.6439 40.281 87.0371 42.2925H84.8441C84.4963 41.4909 83.7552 41.007 82.878 41.007C81.6833 41.007 80.7758 41.9749 80.7758 43.2453C80.7758 44.5006 81.6984 45.4836 82.878 45.4836C83.7704 45.4836 84.4661 44.9997 84.8441 44.1225H87.0673C86.6893 46.1793 85.0105 47.5707 82.878 47.5707Z" fill="#00003C"/>
<path d="M92.2548 47.5707C89.956 47.5707 88.4134 46.0886 88.4134 43.8805V39.1619H90.6214V43.6385C90.6214 44.8031 91.2415 45.4836 92.2548 45.4836C93.2832 45.4836 93.8882 44.7879 93.8882 43.6385V39.1619H96.0963V43.8805C96.0963 46.0886 94.5688 47.5707 92.2548 47.5707Z" fill="#00003C"/>
<path d="M107.391 38.9804C109.085 38.9804 110.264 40.2962 110.264 42.2169V47.3287H108.056V42.5799C108.056 41.4909 107.633 40.9162 106.831 40.9162C105.848 40.9162 105.258 41.6422 105.258 42.9126V47.3287H103.111V42.5799C103.111 41.4909 102.687 40.9162 101.901 40.9162C100.903 40.9162 100.313 41.6422 100.313 42.9126V47.3287H98.1049V39.1619H99.6475L100.056 40.1752C100.631 39.4492 101.523 38.9804 102.491 38.9804C103.534 38.9804 104.381 39.4644 104.865 40.281C105.425 39.4946 106.347 38.9804 107.391 38.9804Z" fill="#00003C"/>
<path d="M120.223 43.2302C120.223 43.4419 120.208 43.6537 120.178 43.8654H113.992C114.189 44.9845 114.915 45.6046 115.988 45.6046C116.76 45.6046 117.395 45.2417 117.728 44.6518H120.042C119.452 46.4364 117.894 47.5707 115.988 47.5707C113.584 47.5707 111.754 45.6954 111.754 43.2453C111.754 40.7953 113.569 38.935 115.988 38.935C118.499 38.935 120.223 40.8709 120.223 43.2302ZM115.988 40.8255C115.005 40.8255 114.31 41.4002 114.053 42.3681H118.015C117.697 41.37 116.987 40.8255 115.988 40.8255Z" fill="#00003C"/>
<path d="M126.438 38.9804C128.298 38.9804 129.463 40.3113 129.463 42.3833V47.3287H127.255V42.7462C127.255 41.5061 126.786 40.9162 125.833 40.9162C124.699 40.9162 124.003 41.7329 124.003 43.0487V47.3287H121.795V39.1619H123.307L123.731 40.1752C124.351 39.4492 125.334 38.9804 126.438 38.9804Z" fill="#00003C"/>
<path d="M135.417 45.3626H136.415V47.3287H134.843C133.043 47.3287 131.939 46.2247 131.939 44.425V40.9465H130.472V40.4625L133.693 37.0445H134.117V39.1619H136.37V40.9465H134.147V44.1225C134.147 44.9089 134.601 45.3626 135.417 45.3626Z" fill="#00003C"/>
<path d="M144.504 39.1619H146.152V47.3287H144.428L144.231 46.5877C143.536 47.2078 142.628 47.5707 141.585 47.5707C139.135 47.5707 137.305 45.7105 137.305 43.2453C137.305 40.7801 139.135 38.935 141.585 38.935C142.643 38.935 143.566 39.3131 144.277 39.9332L144.504 39.1619ZM141.766 45.4836C143.052 45.4836 143.989 44.5308 143.989 43.2453C143.989 41.9598 143.052 41.007 141.766 41.007C140.481 41.007 139.543 41.9598 139.543 43.2453C139.543 44.5157 140.481 45.4836 141.766 45.4836Z" fill="#00003C"/>
<path d="M152.284 45.3626H153.282V47.3287H151.709C149.909 47.3287 148.805 46.2247 148.805 44.425V40.9465H147.338V40.4625L150.56 37.0445H150.983V39.1619H153.237V40.9465H151.013V44.1225C151.013 44.9089 151.467 45.3626 152.284 45.3626Z" fill="#00003C"/>
<path d="M154.79 38.073V36.0312H156.983V38.073H154.79ZM154.79 47.3287V39.1619H156.998V47.3287H154.79Z" fill="#00003C"/>
<path d="M162.989 47.5707C160.463 47.5707 158.573 45.7105 158.573 43.2453C158.573 40.7801 160.463 38.935 162.989 38.935C165.514 38.935 167.405 40.7801 167.405 43.2453C167.405 45.7105 165.514 47.5707 162.989 47.5707ZM162.989 45.4836C164.259 45.4836 165.167 44.5762 165.167 43.2453C165.167 41.9295 164.259 41.007 162.989 41.007C161.718 41.007 160.811 41.9295 160.811 43.2453C160.811 44.5762 161.718 45.4836 162.989 45.4836Z" fill="#00003C"/>
<path d="M173.641 38.9804C175.501 38.9804 176.666 40.3113 176.666 42.3833V47.3287H174.457V42.7462C174.457 41.5061 173.989 40.9162 173.036 40.9162C171.902 40.9162 171.206 41.7329 171.206 43.0487V47.3287H168.998V39.1619H170.51L170.934 40.1752C171.554 39.4492 172.537 38.9804 173.641 38.9804Z" fill="#00003C"/>
<path d="M24.8663 34.5609H18.3428V21.4668H24.8663C28.459 21.4668 31.3898 24.4082 31.3898 28.0139C31.3898 31.6195 28.459 34.5609 24.8663 34.5609Z" fill="#0064FF"/>
<path d="M12.7634 22.2246L9.26529 18.7139L0 28.0126L9.26529 37.3113L12.7634 33.7057L10.9671 31.9977V24.0274L12.7634 22.2246Z" fill="#00003C"/>
<path d="M38.5733 18.7139L35.0752 22.2246L36.777 24.0274V31.9977L35.0752 33.7057L38.5733 37.3113L47.8386 28.0126L38.5733 18.7139Z" fill="#00003C"/>
<path d="M14.6528 13.3056L18.151 16.8163L19.9473 15.0135H27.889L29.5908 16.8163L33.1834 13.3056L23.9181 4.00684L14.6528 13.3056Z" fill="#00003C"/>
<path d="M31.3871 40.9169L29.5908 39.209L27.889 40.9169H19.9473L18.151 39.209L16.4492 40.9169L14.6528 42.7197L23.9181 52.0184L33.1834 42.7197L31.3871 40.9169Z" fill="#00003C"/>
<path d="M67.6011 23.9345C67.6011 26.9708 65.332 29.248 62.2121 29.248H58.2412V18.7158H62.2121C65.332 18.7158 67.6011 20.8982 67.6011 23.9345ZM65.2375 23.9345C65.2375 22.0368 64.0084 20.8033 62.1175 20.8033H60.5103V27.1606H62.2121C64.0084 27.1606 65.2375 25.8322 65.2375 23.9345Z" fill="#0064FF"/>
<path d="M77.242 25.8326H71.0967C71.2858 26.9712 72.0421 27.5405 73.0821 27.5405C73.8385 27.5405 74.5003 27.161 74.7839 26.5917H77.1475C76.5802 28.3945 74.973 29.5331 73.0821 29.5331C70.624 29.5331 68.8276 27.6354 68.8276 25.1684C68.8276 22.7014 70.624 20.8037 73.0821 20.8037C75.6348 20.8037 77.3366 22.7014 77.3366 25.0735C77.3366 25.4225 77.2999 25.6626 77.242 25.8326ZM71.0967 24.3144H75.0675C74.7839 23.2707 74.0275 22.7963 73.0821 22.7963C72.0421 22.7963 71.3803 23.3656 71.0967 24.3144Z" fill="#0064FF"/>
<path d="M82.6342 29.533C80.176 29.533 78.2852 27.6353 78.2852 25.1683C78.2852 22.7012 80.176 20.8984 82.6342 20.8984C84.7141 20.8984 86.4159 22.2268 86.7941 24.2194H84.6196C84.2414 23.3654 83.4851 22.9859 82.6342 22.9859C81.4051 22.9859 80.5542 23.9348 80.5542 25.2631C80.5542 26.5915 81.4996 27.5404 82.6342 27.5404C83.4851 27.5404 84.2414 27.066 84.6196 26.212H86.8886C86.4159 28.1097 84.7141 29.533 82.6342 29.533Z" fill="#0064FF"/>
<path d="M93.2221 29.3429L90.5749 25.4526V29.3429H88.4004V18.1465H90.5749V24.7884L93.033 21.1828H95.5857L92.8439 25.0731L95.8694 29.3429H93.2221Z" fill="#0064FF"/>
<path d="M104.569 24.314V29.3429H102.394V24.6935C102.394 23.46 101.922 22.8907 100.976 22.8907C99.8417 22.8907 99.1799 23.6498 99.1799 25.0731V29.3429H97.0054V18.1465H99.1799V21.847C99.8417 21.2777 100.693 20.8981 101.638 20.8981C103.434 20.8981 104.569 22.2265 104.569 24.314Z" fill="#0064FF"/>
<path d="M105.985 25.1684C105.985 22.7014 107.876 20.8037 110.428 20.8037C112.981 20.8037 114.872 22.6065 114.872 25.1684C114.872 27.6354 112.981 29.5331 110.428 29.5331C107.876 29.5331 105.985 27.6354 105.985 25.1684ZM112.603 25.1684C112.603 23.84 111.657 22.8912 110.428 22.8912C109.199 22.8912 108.254 23.84 108.254 25.1684C108.254 26.4968 109.199 27.4457 110.428 27.4457C111.657 27.4457 112.603 26.4968 112.603 25.1684Z" fill="#0064FF"/>
<path d="M116.29 25.8321V21.0879H118.464V25.5475C118.464 26.6861 119.126 27.4452 120.071 27.4452C121.111 27.4452 121.679 26.781 121.679 25.5475V21.0879H123.853V25.8321C123.853 28.0145 122.34 29.5326 119.977 29.5326C117.802 29.5326 116.29 28.0145 116.29 25.8321Z" fill="#0064FF"/>
<path d="M128.863 29.533C126.783 29.533 125.459 28.3943 125.459 26.5915H127.634C127.634 27.3506 128.201 27.7301 128.958 27.7301C129.525 27.7301 130.092 27.4455 130.092 26.8762C130.092 26.3069 129.336 26.1171 128.485 26.0222C127.161 25.8324 125.554 25.4529 125.554 23.5552C125.554 22.0371 126.878 20.8984 128.863 20.8984C130.848 20.8984 132.172 22.0371 132.172 23.6501H130.092C130.092 22.9859 129.619 22.7013 128.863 22.7013C128.201 22.7013 127.729 22.9859 127.729 23.4603C127.729 24.0296 128.39 24.1245 129.241 24.3143C130.565 24.5989 132.267 24.8836 132.267 26.8762C132.267 28.4892 130.848 29.533 128.863 29.533Z" fill="#0064FF"/>
<path d="M141.723 25.8326H135.578C135.767 26.9712 136.524 27.5405 137.564 27.5405C138.32 27.5405 138.982 27.161 139.265 26.5917H141.629C141.062 28.3945 139.454 29.5331 137.564 29.5331C135.105 29.5331 133.309 27.6354 133.309 25.1684C133.309 22.7014 135.105 20.8037 137.564 20.8037C140.116 20.8037 141.818 22.7014 141.818 25.0735C141.818 25.3582 141.818 25.6428 141.723 25.8326ZM135.673 24.3144H139.644C139.36 23.2707 138.604 22.7963 137.658 22.7963C136.618 22.7963 135.862 23.3656 135.673 24.3144Z" fill="#0064FF"/>
</g>
<defs>
<clipPath id="clip0_4415_24610">
<rect width="216.391" height="52.0941" fill="white"/>
</clipPath>
</defs>
</svg>
