<?xml version="1.0" encoding="UTF-8" standalone="no"?>
<!-- Created with Inkscape (http://www.inkscape.org/) -->

<svg
   xmlns:dc="http://purl.org/dc/elements/1.1/"
   xmlns:cc="http://creativecommons.org/ns#"
   xmlns:rdf="http://www.w3.org/1999/02/22-rdf-syntax-ns#"
   xmlns:svg="http://www.w3.org/2000/svg"
   xmlns="http://www.w3.org/2000/svg"
   xmlns:sodipodi="http://sodipodi.sourceforge.net/DTD/sodipodi-0.dtd"
   xmlns:inkscape="http://www.inkscape.org/namespaces/inkscape"
   width="250"
   height="350"
   id="svg2"
   version="1.1"
   inkscape:version="0.48.4 r9939"
   sodipodi:docname="Gnunb-i-V2.svg">
  <defs
     id="defs4">
    <inkscape:path-effect
       effect="spiro"
       id="path-effect3910"
       is_visible="true" />
  </defs>
  <sodipodi:namedview
     id="base"
     pagecolor="#ffffff"
     bordercolor="#666666"
     borderopacity="1.0"
     inkscape:pageopacity="0.0"
     inkscape:pageshadow="2"
     inkscape:zoom="1.6229372"
     inkscape:cx="222.62179"
     inkscape:cy="218.61419"
     inkscape:document-units="px"
     inkscape:current-layer="layer1"
     showgrid="false"
     showguides="true"
     inkscape:guide-bbox="true"
     inkscape:window-width="1920"
     inkscape:window-height="1030"
     inkscape:window-x="0"
     inkscape:window-y="0"
     inkscape:window-maximized="1" />
  <metadata
     id="metadata7">
    <rdf:RDF>
      <cc:Work
         rdf:about="">
        <dc:format>image/svg+xml</dc:format>
        <dc:type
           rdf:resource="http://purl.org/dc/dcmitype/StillImage" />
        <dc:title />
      </cc:Work>
    </rdf:RDF>
  </metadata>
  <g
     inkscape:label="Calque 1"
     inkscape:groupmode="layer"
     id="layer1"
     transform="translate(0,-702.36218)">
    <path
       inkscape:connector-curvature="0"
       style="fill:#000000;fill-opacity:1;stroke:none"
       id="path3876-6-3-1"
       d="m 164.08363,843.02352 c 9.30304,-0.42319 19.03898,-1.7837 26.69766,-6.65256 7.46149,-4.16986 14.7134,-8.79628 22.99091,-11.72979 4.44927,-1.34781 9.26448,-0.6028 13.53774,0.84148 2.66637,0.77628 5.30087,1.63012 7.96891,2.40228 -3.94425,8.5494 -8.18769,17.68893 -17.0977,23.37462 -5.04643,3.32514 -10.49901,6.25998 -16.2799,8.54255 -8.7595,2.46634 -18.16898,1.75866 -27.18643,1.00209 -3.64632,-0.35358 -7.29556,-0.83094 -10.81016,-1.75699 -1.09827,-2.42198 -0.0228,-5.0504 -0.24693,-7.56407 0.12391,-2.82051 0.26958,-5.64029 0.4259,-8.45961 z" />
    <g
       id="g3005"
       transform="translate(-6.9589634,2)"
       style="fill:#000000;fill-opacity:1">
      <path
         sodipodi:nodetypes="saasazzsssss"
         inkscape:connector-curvature="0"
         id="path2999"
         d="m 135.26076,829.48679 c 2.40001,11.23398 21.04479,13.96811 28.94768,7.84517 6.65727,-5.15787 -7.14311,-20.34295 -0.30808,-25.26283 6.84089,-4.92409 14.96883,6.67187 23.879,8.31825 12.23297,2.26034 31.08277,-11.48964 33.43468,-25.25776 3.22223,-18.86302 -19.88503,-43.29523 -31.72242,-47.84825 -11.83739,-4.55301 -14.95368,-2.51544 -5.89096,2.55491 9.06272,5.07034 26.20539,25.39554 25.30995,40.03602 -0.70882,11.58913 -11.22935,19.38542 -21.75061,15.254 -7.39748,-2.9048 -13.9177,-6.84756 -20.94647,-11.38814 -6.47086,-4.18017 -17.44552,-7.90094 -27.10626,-0.46212 -9.60162,7.39329 -6.51318,23.72857 -3.84651,36.21075 z"
         style="fill:#000000;fill-opacity:1;stroke:none" />
      <path
         sodipodi:nodetypes="saasazzsssss"
         inkscape:connector-curvature="0"
         id="path2999-9"
         d="m 126.20308,829.48679 c -2.40001,11.23398 -21.04478,13.96811 -28.947674,7.84517 -6.65727,-5.15787 7.143114,-20.34295 0.30808,-25.26283 -6.84089,-4.92409 -14.96883,6.67187 -23.879,8.31825 -12.23297,2.26034 -31.08277,-11.48964 -33.43468,-25.25776 -3.22223,-18.86302 19.88503,-43.29523 31.72242,-47.84825 11.83739,-4.55301 14.95368,-2.51544 5.89096,2.55491 -9.06272,5.07034 -26.20539,25.39554 -25.30995,40.03602 0.70882,11.58913 11.22935,19.38542 21.75061,15.254 7.39748,-2.9048 13.9177,-6.84756 20.94647,-11.38814 6.470864,-4.18017 17.445524,-7.90094 27.106254,-0.46212 9.60162,7.39329 6.51318,23.72857 3.84651,36.21075 z"
         style="fill:#000000;fill-opacity:1;stroke:none" />
    </g>
    <path
       inkscape:connector-curvature="0"
       style="fill:#000000;fill-opacity:1;stroke:none"
       id="path3876-6-3-1-9"
       d="m 84.560007,843.02352 c -9.30304,-0.42319 -19.03898,-1.7837 -26.69766,-6.65256 -7.46149,-4.16986 -14.7134,-8.79628 -22.99091,-11.72979 -4.44927,-1.34781 -9.26448,-0.6028 -13.53774,0.84148 -2.66637,0.77628 -5.30087,1.63012 -7.96891,2.40228 3.94425,8.5494 8.18769,17.68893 17.0977,23.37462 5.04643,3.32514 10.49901,6.25998 16.2799,8.54255 8.7595,2.46634 18.16898,1.75866 27.18643,1.00209 3.64632,-0.35358 7.29556,-0.83094 10.81016,-1.75699 1.09827,-2.42198 0.0228,-5.0504 0.24693,-7.56407 -0.12391,-2.82051 -0.26958,-5.64029 -0.4259,-8.45961 z" />
    <path
       style="fill:#000000;fill-opacity:1;stroke:none"
       d="m 159.48153,978.28758 c 0.3118,11.80602 -15.42289,21.55942 -35.14441,21.78472 -19.72151,0.2252 -35.961716,-9.1629 -36.273512,-20.96891 -0.0018,-0.0684 -0.0031,-0.1368 -0.0037,-0.20521 l 35.712732,-0.20269 z"
       id="path3831"
       inkscape:connector-curvature="0" />
    <g
       transform="matrix(0,-0.67539246,1.4806206,0,-8,-10)"
       style="font-size:66.08101654px;font-style:normal;font-weight:normal;line-height:125%;letter-spacing:0px;word-spacing:0px;fill:#000000;fill-opacity:1;stroke:none;font-family:Sans"
       id="text3833">
      <path
         d="m -1409.8517,109.47132 c -3.0976,1.50575 -6.3135,2.63506 -9.6476,3.38794 -3.3342,0.75288 -6.7759,1.12931 -10.3251,1.12931 -8.0236,0 -14.38,-2.23711 -19.0693,-6.71135 -4.6894,-4.49574 -7.034,-10.583271 -7.034,-18.262624 0,-7.765348 2.3877,-13.874394 7.1631,-18.327157 4.7753,-4.452678 11.3146,-6.679038 19.6178,-6.679087 3.205,4.9e-5 6.2703,0.301199 9.1958,0.903451 2.9469,0.602349 5.7218,1.495044 8.3247,2.678088 l 0,9.970232 c -2.6889,-1.527226 -5.367,-2.667295 -8.0343,-3.420209 -2.6459,-0.752836 -5.3024,-1.129274 -7.9697,-1.129314 -4.9475,4e-5 -8.7657,1.387482 -11.4545,4.162329 -2.6674,2.753409 -4.001,6.700628 -4.001,11.841667 0,5.098066 1.2906,9.034529 3.8719,11.809404 2.5813,2.77489 6.2489,4.16233 11.0028,4.16233 1.2906,0 2.4844,-0.0753 3.5815,-0.22587 1.1185,-0.17207 2.1188,-0.4302 3.0008,-0.77438 l 0,-9.357179 -7.5826,0 0,-8.324659 19.3597,0 0,23.167078"
         style="font-weight:bold;-inkscape-font-specification:Sans Bold"
         id="path4341"
         inkscape:connector-curvature="0" />
      <path
         d="m -1398.9458,64.879537 13.8745,0 17.5205,33.040509 0,-33.040509 11.7771,0 0,48.173323 -13.8744,0 -17.5205,-33.040512 0,33.040512 -11.7772,0 0,-48.173323"
         style="font-weight:bold;-inkscape-font-specification:Sans Bold"
         id="path4343"
         inkscape:connector-curvature="0" />
      <path
         d="m -1343.5771,64.879537 12.4225,0 0,28.878179 c -10e-5,3.979503 0.6453,6.829674 1.9359,8.550524 1.3122,1.69936 3.4417,2.54903 6.3887,2.54902 2.9685,1e-5 5.098,-0.84966 6.3887,-2.54902 1.3121,-1.72085 1.9682,-4.571021 1.9682,-8.550524 l 0,-28.878179 12.4225,0 0,28.878179 c 0,6.818924 -1.7101,11.895454 -5.1303,15.229614 -3.4203,3.33416 -8.6366,5.00124 -15.6491,5.00124 -6.991,0 -12.1966,-1.66708 -15.6168,-5.00124 -3.4202,-3.33416 -5.1303,-8.41069 -5.1303,-15.229614 l 0,-28.878179"
         style="font-weight:bold;-inkscape-font-specification:Sans Bold"
         id="path4345"
         inkscape:connector-curvature="0" />
    </g>
    <g
       id="g4336"
       transform="translate(-8.7765019,-10)">
      <path
         id="path3924-0-2"
         transform="translate(0,702.36218)"
         d="m 177,148.28125 -15.71875,5.65625 -15.84375,5.15625 c 0.23848,11.5252 3.26348,14.5321 12.71875,14.09375 9.19426,-0.42625 21.31411,-13.75277 18.96875,-24.375 -0.0377,-0.17092 -0.0836,-0.36158 -0.125,-0.53125 z m -10.1875,6.6875 c 1.19692,3.71508 -0.82268,7.68932 -4.53125,8.90625 -3.72275,1.22158 -7.74717,-0.8085 -8.96875,-4.53125 l 6.75,-2.21875 6.75,-2.15625 z"
         style="fill:#000000;fill-opacity:1;stroke:#ffffff;stroke-opacity:1"
         inkscape:connector-curvature="0" />
      <path
         id="path3924-0-2-6"
         d="m 88.098923,850.64343 15.718747,5.65625 15.84375,5.15625 c -0.23848,11.5252 -3.26348,14.5321 -12.71875,14.09375 -9.194257,-0.42625 -21.314107,-13.75277 -18.968747,-24.375 0.0377,-0.17092 0.0836,-0.36158 0.125,-0.53125 z m 10.1875,6.6875 c -1.19692,3.71508 0.82268,7.68932 4.531247,8.90625 3.72275,1.22158 7.74717,-0.8085 8.96875,-4.53125 l -6.75,-2.21875 -6.749997,-2.15625 z"
         style="fill:#000000;fill-opacity:1;stroke:#ffffff;stroke-opacity:1"
         inkscape:connector-curvature="0" />
    </g>
  </g>
</svg>
