<svg width="703" height="682" viewBox="0 0 703 682" fill="none" xmlns="http://www.w3.org/2000/svg">
<path d="M348.986 0.060112C342.773 0.373111 336.685 1.91365 331.08 4.59136L86.7364 121.341C80.4122 124.362 74.8554 128.756 70.4787 134.199C66.1019 139.641 63.0177 145.992 61.4552 152.779L1.17391 415.029C-0.218076 421.071 -0.373858 427.329 0.71578 433.432C1.80542 439.535 4.11834 445.359 7.51766 450.56C8.34191 451.832 9.22839 453.062 10.1739 454.248L179.299 664.529C183.677 669.97 189.234 674.363 195.558 677.382C201.883 680.401 208.811 681.968 215.83 681.966L487.049 681.904C494.065 681.909 500.992 680.347 507.316 677.334C513.641 674.32 519.199 669.933 523.58 664.498L692.643 454.185C697.023 448.741 700.109 442.388 701.673 435.598C703.236 428.809 703.237 421.756 701.674 414.966L641.299 152.716C639.736 145.929 636.652 139.579 632.275 134.136C627.899 128.694 622.342 124.299 616.018 121.279L371.643 4.59136C364.592 1.22302 356.802 -0.335065 348.986 0.060112Z" fill="#326CE5"/>
<path d="M351.408 89.3072C343.331 89.3081 336.782 96.5831 336.783 105.557C336.783 105.695 336.811 105.827 336.814 105.963C336.802 107.183 336.743 108.652 336.783 109.713C336.975 114.889 338.103 118.851 338.783 123.62C340.013 133.826 341.044 142.287 340.408 150.151C339.789 153.116 337.605 155.828 335.658 157.713L335.314 163.901C326.537 164.628 317.701 165.96 308.876 167.963C270.902 176.586 238.206 196.147 213.314 222.557C211.699 221.455 208.873 219.428 208.032 218.807C205.421 219.16 202.782 219.966 199.345 217.963C192.8 213.558 186.839 207.477 179.626 200.151C176.321 196.647 173.928 193.31 170.001 189.932C169.11 189.165 167.749 188.128 166.751 187.338C163.681 184.891 160.061 183.614 156.564 183.495C152.068 183.341 147.74 185.099 144.907 188.651C139.872 194.966 141.484 204.619 148.501 210.213C148.572 210.27 148.648 210.314 148.72 210.37C149.684 211.151 150.865 212.153 151.751 212.807C155.918 215.884 159.724 217.459 163.876 219.901C172.623 225.303 179.875 229.782 185.626 235.182C187.872 237.576 188.265 241.795 188.564 243.62L193.251 247.807C168.158 285.571 156.544 332.217 163.408 379.745L157.283 381.526C155.668 383.611 153.387 386.891 151.001 387.87C143.476 390.24 135.007 391.11 124.782 392.182C119.982 392.581 115.84 392.343 110.751 393.307C109.631 393.519 108.071 393.926 106.845 394.213C106.802 394.222 106.763 394.235 106.72 394.245C106.653 394.26 106.565 394.293 106.501 394.307C97.8811 396.39 92.3435 404.313 94.1262 412.12C95.9094 419.928 104.329 424.676 113.001 422.807C113.064 422.793 113.155 422.79 113.22 422.776C113.318 422.754 113.404 422.706 113.501 422.682C114.71 422.417 116.225 422.122 117.282 421.839C122.286 420.499 125.909 418.531 130.407 416.807C140.084 413.337 148.099 410.437 155.907 409.307C159.169 409.052 162.605 411.319 164.314 412.276L170.689 411.182C185.359 456.665 216.103 493.427 255.033 516.495L252.376 522.87C253.334 525.345 254.39 528.694 253.676 531.139C250.838 538.5 245.976 546.27 240.439 554.932C237.758 558.934 235.014 562.04 232.595 566.62C232.016 567.716 231.279 569.399 230.72 570.557C226.961 578.6 229.718 587.862 236.939 591.339C244.205 594.836 253.223 591.147 257.126 583.089C257.132 583.077 257.152 583.069 257.157 583.057C257.161 583.048 257.153 583.035 257.157 583.026C257.713 581.884 258.501 580.382 258.97 579.307C261.042 574.56 261.732 570.492 263.189 565.901C267.058 556.181 269.184 545.982 274.511 539.627C275.97 537.887 278.348 537.217 280.814 536.557L284.126 530.557C318.064 543.584 356.053 547.08 394.001 538.464C402.658 536.498 411.016 533.954 419.095 530.901C420.026 532.552 421.756 535.727 422.22 536.526C424.726 537.341 427.46 537.762 429.689 541.057C433.674 547.866 436.4 555.922 439.72 565.651C441.177 570.242 441.898 574.31 443.97 579.057C444.442 580.139 445.226 581.662 445.782 582.807C449.677 590.892 458.725 594.594 466.001 591.089C473.221 587.611 475.981 578.349 472.22 570.307C471.661 569.149 470.893 567.466 470.314 566.37C467.894 561.79 465.151 558.715 462.47 554.714C456.933 546.052 452.34 538.856 449.501 531.495C448.314 527.698 449.701 525.337 450.626 522.87C450.072 522.235 448.887 518.65 448.189 516.964C488.646 493.075 518.487 454.942 532.501 410.901C534.394 411.199 537.683 411.78 538.751 411.995C540.951 410.544 542.973 408.651 546.939 408.964C554.747 410.093 562.762 412.993 572.439 416.464C576.937 418.187 580.56 420.187 585.564 421.526C586.621 421.809 588.136 422.073 589.345 422.339C589.442 422.362 589.528 422.41 589.626 422.432C589.692 422.447 589.782 422.449 589.845 422.464C598.517 424.33 606.939 419.585 608.72 411.776C610.501 403.969 604.966 396.044 596.345 393.964C595.091 393.678 593.313 393.194 592.095 392.964C587.006 392 582.864 392.237 578.064 391.839C567.839 390.767 559.37 389.896 551.845 387.526C548.777 386.336 546.594 382.685 545.532 381.182L539.626 379.464C542.688 357.309 541.863 334.252 536.564 311.182C531.215 287.898 521.763 266.601 509.157 247.839C510.672 246.461 513.534 243.928 514.345 243.182C514.582 240.558 514.378 237.807 517.095 234.901C522.846 229.5 530.098 225.022 538.845 219.62C542.997 217.177 546.834 215.603 551.001 212.526C551.943 211.83 553.23 210.728 554.22 209.932C561.235 204.336 562.85 194.684 557.814 188.37C552.777 182.056 543.017 181.461 536.001 187.057C535.003 187.848 533.648 188.88 532.751 189.651C528.825 193.029 526.4 196.365 523.095 199.87C515.882 207.196 509.921 213.308 503.376 217.714C500.54 219.365 496.386 218.793 494.501 218.682L488.939 222.651C457.22 189.39 414.034 168.126 367.533 163.995C367.403 162.046 367.232 158.524 367.189 157.463C365.285 155.642 362.985 154.087 362.408 150.151C361.771 142.287 362.834 133.826 364.064 123.62C364.743 118.851 365.871 114.889 366.064 109.713C366.108 108.537 366.037 106.829 366.033 105.557C366.032 96.5831 359.485 89.3064 351.408 89.3072ZM333.095 202.745L328.751 279.463L328.439 279.62C328.147 286.483 322.499 291.963 315.564 291.963C312.723 291.963 310.101 291.051 307.97 289.495L307.845 289.557L244.939 244.963C264.272 225.952 289.002 211.903 317.501 205.432C322.707 204.25 327.911 203.373 333.095 202.745ZM369.751 202.745C403.025 206.837 433.796 221.904 457.376 244.995L394.876 289.307L394.658 289.214C389.11 293.265 381.294 292.26 376.97 286.839C375.199 284.618 374.269 282.006 374.158 279.37L374.095 279.339L369.751 202.745ZM222.126 273.62L279.564 324.995L279.501 325.307C284.686 329.814 285.45 337.635 281.126 343.057C279.355 345.278 276.984 346.768 274.439 347.463L274.376 347.713L200.751 368.963C197.004 334.698 205.08 301.39 222.126 273.62ZM480.283 273.651C488.817 287.483 495.279 302.933 499.126 319.682C502.927 336.23 503.881 352.749 502.314 368.713L428.314 347.401L428.251 347.088C421.625 345.277 417.552 338.537 419.095 331.776C419.727 329.006 421.197 326.663 423.189 324.932L423.158 324.776L480.283 273.651ZM339.626 328.963H363.158L377.783 347.245L372.533 370.057L351.408 380.213L330.22 370.026L324.97 347.213L339.626 328.963ZM415.064 391.526C416.064 391.475 417.059 391.566 418.033 391.745L418.158 391.588L494.314 404.463C483.168 435.777 461.841 462.904 433.345 481.057L403.783 409.651L403.876 409.526C401.161 403.216 403.878 395.816 410.126 392.807C411.726 392.037 413.397 391.61 415.064 391.526ZM287.158 391.838C292.969 391.92 298.182 395.954 299.533 401.87C300.165 404.639 299.857 407.383 298.814 409.807L299.033 410.088L269.783 480.776C242.435 463.227 220.653 436.952 209.001 404.713L284.501 391.901L284.626 392.057C285.471 391.902 286.327 391.827 287.158 391.838ZM350.939 422.807C352.963 422.733 355.017 423.148 356.97 424.088C359.53 425.321 361.507 427.262 362.751 429.588H363.033L400.251 496.838C395.421 498.458 390.455 499.842 385.376 500.995C356.912 507.458 328.538 505.499 302.845 496.745L339.97 429.62H340.033C342.26 425.455 346.485 422.971 350.939 422.807Z" fill="white" stroke="white" stroke-width="0.25"/>
</svg>
