<svg id="a" xmlns="http://www.w3.org/2000/svg" viewBox="0 0 50 50" width="100" height="100">
 <path d="M44.999,14.808c.003-.399-.096-.805-.31-1.175-.214-.371-.516-.66-.863-.856L26.172,2.584h0c-.344-.203-.744-.32-1.173-.32s-.828.116-1.172.319h0S6.174,12.776,6.174,12.776c-.348.197-.649.485-.863.856-.214.371-.314.776-.31,1.175h0v20.385c-.004.399.096.805.31,1.175h0c.214.371.515.66.863.856l17.653,10.192h0c.344.202.745.318,1.173.318s.829-.116,1.173-.319l17.654-10.192c.348-.196.648-.485.862-.856s.314-.776.31-1.175V14.809h0ZM43.824,35.868c-.119.207-.284.37-.497.49l-17.662,10.197c-.2.118-.43.18-.665.18-.238,0-.463-.061-.674-.185l-17.662-10.197c-.202-.114-.371-.282-.489-.485-.117-.204-.178-.434-.176-.676V14.8c-.001-.233.06-.464.177-.667.117-.203.287-.371.498-.491L24.336,3.445c.2-.118.43-.18.664-.18s.464.062.673.186l17.661,10.196c.203.115.373.283.49.486.118.204.179.435.177.676v20.394c.002.232-.059.462-.176.665Z" fill="#000" stroke-width="0"></path>
 <path d="M32.927,14.473h-.005c-.738,0-1.433.287-1.955.808-.524.522-.813,1.218-.813,1.958v9.908l-9.294-11.122c-.864-.991-2.107-1.556-3.414-1.556-1.746-.021-3.136,1.171-3.136,2.707l-.003,15.584c0,1.527,1.243,2.77,2.77,2.77,1.527,0,2.771-1.243,2.771-2.77h-.001s0-9.909,0-9.909l9.294,11.122c.863.991,2.106,1.556,3.412,1.556,1.74.02,3.138-1.171,3.138-2.706l.003-15.585c-.003-1.522-1.244-2.763-2.766-2.765ZM34.69,32.823c0,.972-.893,1.706-2.084,1.706-1.068.014-2.028-.428-2.704-1.205l-11.055-13.229v12.665c0,.976-.793,1.77-1.77,1.77-.473,0-.917-.185-1.251-.519s-.518-.778-.518-1.251l.002-15.584c0-.985.901-1.719,2.129-1.707,1.023,0,1.993.44,2.659,1.205l11.055,13.229v-12.664c0-.975.794-1.767,1.769-1.767h.003c.973.001,1.766.794,1.767,1.766l-.002,15.584Z" fill="#000" stroke-width="0"></path>
</svg>
