<svg id="Layer_1" data-name="Layer 1" xmlns="http://www.w3.org/2000/svg" viewBox="0 0 1022.41151 360.27348"><defs><style>.cls-1{fill:#1d1d1b;}.cls-2{fill:#e9500e;}.cls-3{fill:#fff;}</style></defs><path class="cls-1" d="M473.25634,449.42424q-16.27587,0-27.71484-4.95312a47.72194,47.72194,0,0,1-18.51563-13.68067,54.867,54.867,0,0,1-10.26074-20.40332,95.14545,95.14545,0,0,1-3.18457-25.12011V282.42766h16.03906V383.145a75.39335,75.39335,0,0,0,3.18457,23.23242,44.82139,44.82139,0,0,0,8.84571,16.15722,34.4988,34.4988,0,0,0,13.67969,9.43555,53.93177,53.93177,0,0,0,35.85253,0,34.5365,34.5365,0,0,0,13.68067-9.43555,44.82022,44.82022,0,0,0,8.84473-16.15722,75.39335,75.39335,0,0,0,3.18457-23.23242V282.42766h16.03906V385.267a95.18621,95.18621,0,0,1-3.1836,25.12011,54.86666,54.86666,0,0,1-10.26074,20.40332,47.758,47.758,0,0,1-18.51562,13.68067Q489.52783,449.42376,473.25634,449.42424Z" transform="translate(-124.03135 -117.69304)"/><path class="cls-1" d="M585.55224,331.25334q4.00782-3.063,12.85547-6.48632a57.82051,57.82051,0,0,1,20.874-3.4209,55.62889,55.62889,0,0,1,23.46973,4.71777,48.79834,48.79834,0,0,1,17.33594,13.209,58.33726,58.33726,0,0,1,10.73242,20.167,85.32351,85.32351,0,0,1,3.65625,25.59179,76.43564,76.43564,0,0,1-4.36426,26.65332,57.36549,57.36549,0,0,1-12.26465,20.04883A52.75477,52.75477,0,0,1,638.97705,444.353a65.52706,65.52706,0,0,1-24.41211,4.36328q-16.27589,0-26.88965-2.12207a137.63729,137.63729,0,0,1-17.4541-4.48242V265.68108l15.33105-2.83057Zm0,100.24512a67.60723,67.60723,0,0,0,10.4961,2.24024,126.0587,126.0587,0,0,0,18.28027,1.06152q19.81347,0,31.84277-12.85449,12.0293-12.854,12.0293-36.91407a84.27316,84.27316,0,0,0-2.12305-19.22363,45.10124,45.10124,0,0,0-6.83984-15.80371A34.28239,34.28239,0,0,0,636.854,339.27288q-7.667-4.00782-18.98731-4.00977a49.36958,49.36958,0,0,0-10.37792,1.06152,60.36572,60.36572,0,0,0-9.19922,2.71192,50.86656,50.86656,0,0,0-7.42969,3.53808,52.485,52.485,0,0,0-5.30762,3.53809Z" transform="translate(-124.03135 -117.69304)"/><path class="cls-1" d="M798.09423,441.64006q-6.84375,1.89111-18.39843,4.2461a144.432,144.432,0,0,1-28.30371,2.35839q-13.68311,0-22.87989-4.00976a37.13457,37.13457,0,0,1-14.86035-11.32129,45.84149,45.84149,0,0,1-8.13672-17.69043,98.5593,98.5593,0,0,1-2.47656-22.87988V323.94084h15.33105v63.44922a108.31376,108.31376,0,0,0,1.88672,21.93653q1.88526,8.96631,6.13282,14.50586a23.9344,23.9344,0,0,0,10.96777,8.01953,47.63567,47.63567,0,0,0,16.39355,2.47656,131.12918,131.12918,0,0,0,18.86914-1.17969q8.01709-1.17772,10.14258-2.12207V323.94084h15.332Z" transform="translate(-124.03135 -117.69304)"/><path class="cls-1" d="M834.31982,328.18694q6.83789-1.88526,18.39746-4.2461a144.394,144.394,0,0,1,28.30469-2.35839q13.91456,0,23.2334,4.00976a35.724,35.724,0,0,1,14.85937,11.43945,46.7354,46.7354,0,0,1,7.90235,17.8086,103.528,103.528,0,0,1,2.35839,22.8789v68.167h-15.332V382.67327a115.49607,115.49607,0,0,0-1.76855-21.93653,36.64067,36.64067,0,0,0-5.89649-14.624,22.93876,22.93876,0,0,0-10.85058-8.1377q-6.72217-2.47558-16.86426-2.47656a129.12386,129.12386,0,0,0-18.752,1.17969q-7.90576,1.18212-10.26075,2.123v107.085H834.31982Z" transform="translate(-124.03135 -117.69304)"/><path class="cls-1" d="M978.97607,323.94084h48.58984V336.9135H978.97607v64.86523A65.85091,65.85091,0,0,0,980.7456,418.643a23.493,23.493,0,0,0,5.07129,10.02442,16.05181,16.05181,0,0,0,8.01953,4.71777,42.67072,42.67072,0,0,0,10.37793,1.17871q9.66944,0,15.56738-2.24023a67.63988,67.63988,0,0,0,9.19922-4.12793l3.77344,12.7373q-3.30468,2.12256-11.55762,4.835a57.20451,57.20451,0,0,1-17.92578,2.71289q-11.32178,0-18.9873-2.94824a27.438,27.438,0,0,1-12.26563-8.96289,36.72953,36.72953,0,0,1-6.48633-14.97852,104.05734,104.05734,0,0,1-1.88671-21.22851V288.08879l15.33105-2.83056Z" transform="translate(-124.03135 -117.69304)"/><path class="cls-1" d="M1146.44287,441.64006q-6.84375,1.89111-18.39844,4.2461a144.432,144.432,0,0,1-28.30371,2.35839q-13.68311,0-22.87988-4.00976a37.13454,37.13454,0,0,1-14.86036-11.32129,45.84162,45.84162,0,0,1-8.13671-17.69043,98.55874,98.55874,0,0,1-2.47657-22.87988V323.94084h15.33106v63.44922a108.313,108.313,0,0,0,1.88672,21.93653q1.88524,8.96631,6.13281,14.50586a23.93445,23.93445,0,0,0,10.96777,8.01953,47.63573,47.63573,0,0,0,16.39356,2.47656,131.12928,131.12928,0,0,0,18.86914-1.17969q8.01708-1.17772,10.14258-2.12207V323.94084h15.332Z" transform="translate(-124.03135 -117.69304)"/><rect class="cls-2" width="233.93118" height="360.27348"/><circle class="cls-3" cx="51.02111" cy="237.79719" r="24.5497"/><circle class="cls-3" cx="153.26149" cy="183.96621" r="24.5497"/><path class="cls-3" d="M230.42052,418.67131a59.78848,59.78848,0,0,1-40.772-31.0957,35.34018,35.34018,0,0,1-20.99024,2.58008,79.92109,79.92109,0,0,0,57.53955,48.22363,80.88379,80.88379,0,0,0,17.43262,1.79395,35.1274,35.1274,0,0,1-7.188-20.52539C234.42052,419.42327,232.401,419.09514,230.42052,418.67131Z" transform="translate(-124.03135 -117.69304)"/><circle class="cls-3" cx="147.73055" cy="301.11369" r="24.5497"/><path class="cls-3" d="M305.92394,409.78948a80.3186,80.3186,0,0,0,4.0249-94.23828,35.38432,35.38432,0,0,1-13.80518,16.168,60.18666,60.18666,0,0,1-1.96728,59.78028A35.20475,35.20475,0,0,1,305.92394,409.78948Z" transform="translate(-124.03135 -117.69304)"/><path class="cls-3" d="M173.15831,320.28362q.93458-.05127,1.87012-.05078a35.42979,35.42979,0,0,1,18.61767,5.30175A59.87445,59.87445,0,0,1,241.857,299.75041a35.5969,35.5969,0,0,1,7.44776-19.90966A80.69546,80.69546,0,0,0,173.15831,320.28362Z" transform="translate(-124.03135 -117.69304)"/></svg>