<svg version="1.1" id="Layer_1" xmlns="http://www.w3.org/2000/svg" x="0px"
     y="0px"
     width="100%" viewBox="0 0 565 480" enable-background="new 0 0 565 480" xml:space="preserve">
<path fill="#0000" opacity="1.000000" stroke="none"
      d="
M341.000000,481.000000 
	C227.360382,481.000000 114.220779,481.000000 1.040583,481.000000 
	C1.040583,321.065308 1.040583,161.130615 1.040583,1.097961 
	C189.222961,1.097961 377.445984,1.097961 565.834473,1.097961 
	C565.834473,160.999863 565.834473,320.999908 565.834473,481.000000 
	C491.130585,481.000000 416.315277,481.000000 341.000000,481.000000 
M461.005585,395.479675 
	C444.963989,381.652191 428.465149,382.509460 411.535736,394.291077 
	C403.087067,386.338684 394.760010,378.500793 386.425385,370.655792 
	C387.005066,369.592438 387.248871,368.971405 387.636566,368.459320 
	C399.387329,352.938538 403.255463,335.678070 399.496399,316.561371 
	C399.221863,315.165222 400.818939,312.610321 402.235504,311.800598 
	C411.485504,306.513184 420.996277,301.682739 430.263458,296.423920 
	C433.256195,294.725647 434.990601,295.107635 437.540527,297.412842 
	C454.150696,312.429077 478.500732,312.214539 494.149902,297.034332 
	C509.810944,281.842621 512.247559,258.631836 497.050903,239.080551 
	C486.752563,225.831177 468.113434,221.121277 452.256042,226.647232 
	C432.800262,233.427139 420.887146,254.324570 424.611755,274.802948 
	C424.927094,276.536774 424.527496,279.576569 423.426025,280.209106 
	C413.057373,286.163513 402.463654,291.726044 391.722321,297.516266 
	C390.480957,295.891937 389.479736,294.598480 388.495819,293.291992 
	C369.491302,268.057800 334.710785,261.479279 307.509186,277.975952 
	C280.962982,294.075165 270.780884,328.603546 284.277374,356.757172 
	C299.376404,388.253693 337.386475,400.863220 368.272949,384.416504 
	C371.827942,382.523529 373.963593,382.601440 376.850769,385.482605 
	C383.684875,392.302307 390.818359,398.830688 397.999207,405.289703 
	C400.717407,407.734711 401.630585,409.874268 400.695770,413.806122 
	C394.515411,439.800629 418.364502,463.346313 444.281860,457.133423 
	C472.149506,450.453003 481.468506,417.385406 461.005585,395.479675 
M305.182129,71.172127 
	C289.168335,65.137756 273.261475,70.356606 266.441010,84.707138 
	C264.083191,89.668144 261.142944,91.566559 256.033051,92.838318 
	C170.670944,114.083336 121.691254,200.671204 147.330688,284.785858 
	C148.222076,287.710236 147.900131,289.585815 145.799088,291.875763 
	C136.844894,301.635101 135.259155,315.618805 141.551193,326.631531 
	C148.308319,338.458252 161.057358,344.358612 174.228745,341.362701 
	C177.434753,340.633514 179.349442,341.205627 181.600189,343.586823 
	C200.559174,363.644562 223.307983,377.606781 249.871643,385.204193 
	C255.324478,386.763733 260.913696,387.846466 267.339539,389.360962 
	C263.505096,382.995483 260.547607,377.614044 257.092194,372.573944 
	C255.641373,370.457703 253.408066,368.240570 251.069092,367.470184 
	C229.925034,360.506256 211.647827,349.064728 195.868164,333.420898 
	C193.209137,330.784760 192.836151,328.867279 194.569168,325.348083 
	C204.311768,305.563629 190.783142,282.889771 168.818558,282.182068 
	C165.006256,282.059204 163.723404,280.323639 163.254669,277.358215 
	C161.439178,265.872498 158.318863,254.363770 158.307861,242.861099 
	C158.255249,187.822174 182.806534,146.888275 231.120041,120.454056 
	C241.489975,114.780266 252.679031,111.067284 264.432465,108.972939 
	C265.082916,110.200172 265.548523,111.068253 266.004852,111.941162 
	C271.607513,122.658394 280.612885,128.416229 292.538208,128.517258 
	C304.251678,128.616486 313.386963,123.173546 319.034149,112.750648 
	C320.622223,109.819565 322.255493,109.701805 325.028656,110.530029 
	C376.408081,125.874794 408.425873,159.593506 421.207642,211.637115 
	C421.577850,213.144531 422.066895,214.622726 422.560059,216.319199 
	C427.050812,213.536179 430.898834,210.938828 434.953094,208.718018 
	C437.421448,207.365906 437.962616,206.059875 437.255859,203.195328 
	C432.022583,181.983673 422.624847,162.822754 409.026642,145.804352 
	C387.625916,119.020866 360.293945,101.265007 326.945862,92.989540 
	C323.849091,92.221062 321.817139,91.125183 320.628387,87.712318 
	C318.064545,80.351700 312.909302,74.976852 305.182129,71.172127 
M263.640259,26.999750 
	C262.148254,27.130983 260.639893,27.163736 259.166656,27.408125 
	C234.474976,31.504177 211.033051,39.298668 189.147293,51.499672 
	C143.460999,76.969139 110.943970,114.084091 91.764137,162.718307 
	C76.791115,200.685303 73.425713,239.929657 80.335472,280.039337 
	C83.226624,296.821869 88.131638,313.082916 95.150452,328.651611 
	C96.786316,332.280243 99.622543,335.125885 103.552940,334.480957 
	C106.299133,334.030365 109.982376,331.947052 110.912407,329.648407 
	C112.050102,326.836487 111.604897,322.680450 110.371689,319.718750 
	C92.650345,277.159058 88.940903,233.379196 101.760620,189.211853 
	C124.403328,111.201675 176.474091,63.808857 255.591782,46.007069 
	C260.609070,44.878159 265.802338,44.554729 270.881073,43.668976 
	C276.078125,42.762585 279.430206,38.484035 278.834869,33.843594 
	C278.248779,29.274973 275.192505,27.010513 269.584686,26.994745 
	C267.918182,26.990059 266.251709,26.994959 263.640259,26.999750 
M205.758881,221.285568 
	C191.470825,241.279175 193.092590,265.695251 209.483353,281.864197 
	C221.698654,293.914185 236.873077,295.111725 252.680176,294.385834 
	C253.407120,294.352478 254.440918,293.886719 254.764923,293.306061 
	C257.633636,288.164856 260.374115,282.952118 263.560333,276.998444 
	C255.366821,276.998444 248.076691,277.075348 240.788773,276.981812 
	C227.261810,276.808258 215.793549,267.209900 213.942551,254.627762 
	C211.761154,239.799713 219.433273,227.312256 233.263031,223.180832 
	C241.072922,220.847778 241.072906,220.847763 240.911255,212.403656 
	C240.513428,191.624435 253.982025,173.912933 273.214142,169.924576 
	C297.388824,164.911240 318.815033,179.261032 323.932159,204.029144 
	C324.629761,207.405731 325.303467,209.352325 329.636139,208.560425 
	C352.251678,204.426956 369.624939,221.138275 370.574982,239.390961 
	C370.652374,240.877182 371.286926,243.072495 372.354309,243.642105 
	C377.129822,246.190445 382.156097,248.268784 387.030396,250.488831 
	C387.439545,249.874313 387.733856,249.625717 387.777863,249.338730 
	C392.047791,221.506241 371.390045,194.203003 343.452484,191.050766 
	C339.606201,190.616791 337.774872,189.069809 336.161743,185.652298 
	C323.899078,159.672699 296.197815,146.412766 268.507721,153.012054 
	C244.995117,158.615738 227.066788,178.544678 224.008118,202.735107 
	C223.552689,206.336960 222.238327,208.459793 218.957169,210.441437 
	C214.326843,213.237915 210.431396,217.251175 205.758881,221.285568 
M139.517761,393.982086 
	C147.269333,400.784088 154.587891,408.170044 162.843582,414.292267 
	C212.125259,450.838318 267.268890,464.572083 327.822723,454.619659 
	C342.000458,452.289429 355.722931,447.148468 369.604187,443.125885 
	C370.827393,442.771393 372.676605,440.939148 372.528839,440.090332 
	C371.659821,435.098511 370.284332,430.194794 369.092621,425.314972 
	C368.574463,425.273895 368.220642,425.149689 367.934082,425.239685 
	C366.665222,425.638214 365.399902,426.057892 364.161469,426.541992 
	C334.306671,438.211151 303.450958,442.384430 271.556335,439.092316 
	C246.588623,436.515167 223.028809,429.359314 200.810394,417.729401 
	C173.945663,403.667419 151.636398,384.290070 133.435959,360.084045 
	C129.402481,354.719635 124.371788,353.567749 120.147484,356.685120 
	C115.621544,360.025208 115.182167,365.205139 119.608307,370.680115 
	C125.881371,378.439728 132.530960,385.894928 139.517761,393.982086 
M488.476471,152.964432 
	C487.605469,150.983566 486.811401,148.964615 485.852173,147.027420 
	C461.430328,97.706177 423.972900,62.083988 373.154297,40.944565 
	C354.541504,33.202038 335.267914,27.248779 314.760376,27.006582 
	C308.769958,26.935835 305.838989,29.241697 305.358215,34.165974 
	C304.905457,38.802578 308.369537,42.846291 313.661987,43.749886 
	C316.119171,44.169411 318.609253,44.392662 321.072845,44.778679 
	C373.130615,52.935543 415.419037,77.890244 447.954590,119.198837 
	C466.686249,142.981369 478.916931,169.933487 485.280579,199.549133 
	C485.715332,201.572647 486.198273,204.389771 487.621277,205.255219 
	C493.227692,208.664917 499.218842,211.442078 505.533936,214.694336 
	C502.882751,193.312363 497.470856,173.046631 488.476471,152.964432 
z"/>
    <path fill="#7F3AB6" opacity="1.000000" stroke="none"
          d="
M461.260559,395.730438 
	C481.468506,417.385406 472.149506,450.453003 444.281860,457.133423 
	C418.364502,463.346313 394.515411,439.800629 400.695770,413.806122 
	C401.630585,409.874268 400.717407,407.734711 397.999207,405.289703 
	C390.818359,398.830688 383.684875,392.302307 376.850769,385.482605 
	C373.963593,382.601440 371.827942,382.523529 368.272949,384.416504 
	C337.386475,400.863220 299.376404,388.253693 284.277374,356.757172 
	C270.780884,328.603546 280.962982,294.075165 307.509186,277.975952 
	C334.710785,261.479279 369.491302,268.057800 388.495819,293.291992 
	C389.479736,294.598480 390.480957,295.891937 391.722321,297.516266 
	C402.463654,291.726044 413.057373,286.163513 423.426025,280.209106 
	C424.527496,279.576569 424.927094,276.536774 424.611755,274.802948 
	C420.887146,254.324570 432.800262,233.427139 452.256042,226.647232 
	C468.113434,221.121277 486.752563,225.831177 497.050903,239.080551 
	C512.247559,258.631836 509.810944,281.842621 494.149902,297.034332 
	C478.500732,312.214539 454.150696,312.429077 437.540527,297.412842 
	C434.990601,295.107635 433.256195,294.725647 430.263458,296.423920 
	C420.996277,301.682739 411.485504,306.513184 402.235504,311.800598 
	C400.818939,312.610321 399.221863,315.165222 399.496399,316.561371 
	C403.255463,335.678070 399.387329,352.938538 387.636566,368.459320 
	C387.248871,368.971405 387.005066,369.592438 386.425385,370.655792 
	C394.760010,378.500793 403.087067,386.338684 411.535736,394.291077 
	C428.465149,382.509460 444.963989,381.652191 461.260559,395.730438 
M302.364471,306.957336 
	C294.120117,320.912781 293.326874,335.324585 300.372833,349.878204 
	C309.105011,367.914948 330.022278,377.889435 348.755157,373.344727 
	C369.556091,368.298309 383.850464,350.663086 383.681885,330.255035 
	C383.520874,310.764496 370.916595,293.929626 352.096313,288.067932 
	C333.976624,282.424438 314.635864,289.587769 302.364471,306.957336 
M463.697601,242.859787 
	C453.576599,243.743073 446.500000,249.088882 442.894012,258.347839 
	C439.248505,267.708282 441.241455,276.486511 448.214386,283.716766 
	C455.377472,291.144287 464.232117,292.888733 473.922363,289.729797 
	C484.499023,286.281860 491.583740,274.165833 489.757690,263.164307 
	C487.728851,250.940826 477.966217,243.045029 463.697601,242.859787 
M439.015228,402.962708 
	C437.851746,402.910095 436.684662,402.770447 435.525391,402.818939 
	C427.849274,403.139923 422.124359,406.738770 418.851166,413.629517 
	C415.471466,420.744476 416.406982,427.723389 421.391876,433.760620 
	C426.220245,439.608246 432.599487,441.885315 440.162964,440.181946 
	C448.461517,438.313110 454.454926,431.209686 454.861023,422.805939 
	C455.317993,413.349670 449.989624,406.358002 439.015228,402.962708 
z"/>
    <path fill="#3795DD" opacity="1.000000" stroke="none"
          d="
M305.516052,71.349777 
	C312.909302,74.976852 318.064545,80.351700 320.628387,87.712318 
	C321.817139,91.125183 323.849091,92.221062 326.945862,92.989540 
	C360.293945,101.265007 387.625916,119.020866 409.026642,145.804352 
	C422.624847,162.822754 432.022583,181.983673 437.255859,203.195328 
	C437.962616,206.059875 437.421448,207.365906 434.953094,208.718018 
	C430.898834,210.938828 427.050812,213.536179 422.560059,216.319199 
	C422.066895,214.622726 421.577850,213.144531 421.207642,211.637115 
	C408.425873,159.593506 376.408081,125.874794 325.028656,110.530029 
	C322.255493,109.701805 320.622223,109.819565 319.034149,112.750648 
	C313.386963,123.173546 304.251678,128.616486 292.538208,128.517258 
	C280.612885,128.416229 271.607513,122.658394 266.004852,111.941162 
	C265.548523,111.068253 265.082916,110.200172 264.432465,108.972939 
	C252.679031,111.067284 241.489975,114.780266 231.120041,120.454056 
	C182.806534,146.888275 158.255249,187.822174 158.307861,242.861099 
	C158.318863,254.363770 161.439178,265.872498 163.254669,277.358215 
	C163.723404,280.323639 165.006256,282.059204 168.818558,282.182068 
	C190.783142,282.889771 204.311768,305.563629 194.569168,325.348083 
	C192.836151,328.867279 193.209137,330.784760 195.868164,333.420898 
	C211.647827,349.064728 229.925034,360.506256 251.069092,367.470184 
	C253.408066,368.240570 255.641373,370.457703 257.092194,372.573944 
	C260.547607,377.614044 263.505096,382.995483 267.339539,389.360962 
	C260.913696,387.846466 255.324478,386.763733 249.871643,385.204193 
	C223.307983,377.606781 200.559174,363.644562 181.600189,343.586823 
	C179.349442,341.205627 177.434753,340.633514 174.228745,341.362701 
	C161.057358,344.358612 148.308319,338.458252 141.551193,326.631531 
	C135.259155,315.618805 136.844894,301.635101 145.799088,291.875763 
	C147.900131,289.585815 148.222076,287.710236 147.330688,284.785858 
	C121.691254,200.671204 170.670944,114.083336 256.033051,92.838318 
	C261.142944,91.566559 264.083191,89.668144 266.441010,84.707138 
	C273.261475,70.356606 289.168335,65.137756 305.516052,71.349777 
M159.391068,302.858398 
	C154.739059,308.390869 153.987747,313.690308 157.136887,318.758789 
	C159.825821,323.086578 165.219498,325.539978 169.935364,324.478546 
	C175.039810,323.329590 178.622955,320.396851 179.884888,315.189972 
	C181.193344,309.791016 179.194443,304.466156 174.764832,301.670990 
	C169.737701,298.498810 164.734924,298.823975 159.391068,302.858398 
M285.809631,108.927437 
	C292.122925,112.082016 296.981934,111.677017 301.382996,107.629433 
	C305.020660,104.283943 306.263977,98.662224 304.418427,93.904350 
	C302.546936,89.079597 298.055969,86.003311 292.860260,85.987129 
	C287.722046,85.971130 283.157104,89.022354 281.190552,93.787239 
	C279.017578,99.052322 280.271851,103.653000 285.809631,108.927437 
z"/>
    <path fill="#45C3D7" opacity="1.000000" stroke="none"
          d="
M264.112732,26.997608 
	C266.251709,26.994959 267.918182,26.990059 269.584686,26.994745 
	C275.192505,27.010513 278.248779,29.274973 278.834869,33.843594 
	C279.430206,38.484035 276.078125,42.762585 270.881073,43.668976 
	C265.802338,44.554729 260.609070,44.878159 255.591782,46.007069 
	C176.474091,63.808857 124.403328,111.201675 101.760620,189.211853 
	C88.940903,233.379196 92.650345,277.159058 110.371689,319.718750 
	C111.604897,322.680450 112.050102,326.836487 110.912407,329.648407 
	C109.982376,331.947052 106.299133,334.030365 103.552940,334.480957 
	C99.622543,335.125885 96.786316,332.280243 95.150452,328.651611 
	C88.131638,313.082916 83.226624,296.821869 80.335472,280.039337 
	C73.425713,239.929657 76.791115,200.685303 91.764137,162.718307 
	C110.943970,114.084091 143.460999,76.969139 189.147293,51.499672 
	C211.033051,39.298668 234.474976,31.504177 259.166656,27.408125 
	C260.639893,27.163736 262.148254,27.130983 264.112732,26.997608 
z"/>
    <path fill="#3795DD" opacity="1.000000" stroke="none"
          d="
M205.990326,221.014893 
	C210.431396,217.251175 214.326843,213.237915 218.957169,210.441437 
	C222.238327,208.459793 223.552689,206.336960 224.008118,202.735107 
	C227.066788,178.544678 244.995117,158.615738 268.507721,153.012054 
	C296.197815,146.412766 323.899078,159.672699 336.161743,185.652298 
	C337.774872,189.069809 339.606201,190.616791 343.452484,191.050766 
	C371.390045,194.203003 392.047791,221.506241 387.777863,249.338730 
	C387.733856,249.625717 387.439545,249.874313 387.030396,250.488831 
	C382.156097,248.268784 377.129822,246.190445 372.354309,243.642105 
	C371.286926,243.072495 370.652374,240.877182 370.574982,239.390961 
	C369.624939,221.138275 352.251678,204.426956 329.636139,208.560425 
	C325.303467,209.352325 324.629761,207.405731 323.932159,204.029144 
	C318.815033,179.261032 297.388824,164.911240 273.214142,169.924576 
	C253.982025,173.912933 240.513428,191.624435 240.911255,212.403656 
	C241.072906,220.847763 241.072922,220.847778 233.263031,223.180832 
	C219.433273,227.312256 211.761154,239.799713 213.942551,254.627762 
	C215.793549,267.209900 227.261810,276.808258 240.788773,276.981812 
	C248.076691,277.075348 255.366821,276.998444 263.560333,276.998444 
	C260.374115,282.952118 257.633636,288.164856 254.764923,293.306061 
	C254.440918,293.886719 253.407120,294.352478 252.680176,294.385834 
	C236.873077,295.111725 221.698654,293.914185 209.483353,281.864197 
	C193.092590,265.695251 191.470825,241.279175 205.990326,221.014893 
z"/>
    <path fill="#45C3D7" opacity="1.000000" stroke="none"
          d="
M139.268707,393.731140 
	C132.530960,385.894928 125.881371,378.439728 119.608307,370.680115 
	C115.182167,365.205139 115.621544,360.025208 120.147484,356.685120 
	C124.371788,353.567749 129.402481,354.719635 133.435959,360.084045 
	C151.636398,384.290070 173.945663,403.667419 200.810394,417.729401 
	C223.028809,429.359314 246.588623,436.515167 271.556335,439.092316 
	C303.450958,442.384430 334.306671,438.211151 364.161469,426.541992 
	C365.399902,426.057892 366.665222,425.638214 367.934082,425.239685 
	C368.220642,425.149689 368.574463,425.273895 369.092621,425.314972 
	C370.284332,430.194794 371.659821,435.098511 372.528839,440.090332 
	C372.676605,440.939148 370.827393,442.771393 369.604187,443.125885 
	C355.722931,447.148468 342.000458,452.289429 327.822723,454.619659 
	C267.268890,464.572083 212.125259,450.838318 162.843582,414.292267 
	C154.587891,408.170044 147.269333,400.784088 139.268707,393.731140 
z"/>
    <path fill="#45C3D7" opacity="1.000000" stroke="none"
          d="
M488.643921,153.307068 
	C497.470856,173.046631 502.882751,193.312363 505.533936,214.694336 
	C499.218842,211.442078 493.227692,208.664917 487.621277,205.255219 
	C486.198273,204.389771 485.715332,201.572647 485.280579,199.549133 
	C478.916931,169.933487 466.686249,142.981369 447.954590,119.198837 
	C415.419037,77.890244 373.130615,52.935543 321.072845,44.778679 
	C318.609253,44.392662 316.119171,44.169411 313.661987,43.749886 
	C308.369537,42.846291 304.905457,38.802578 305.358215,34.165974 
	C305.838989,29.241697 308.769958,26.935835 314.760376,27.006582 
	C335.267914,27.248779 354.541504,33.202038 373.154297,40.944565 
	C423.972900,62.083988 461.430328,97.706177 485.852173,147.027420 
	C486.811401,148.964615 487.605469,150.983566 488.643921,153.307068 
z"/>
    <path fill="#FDFCFD" opacity="1.000000" stroke="none"
          d="
M302.562103,306.649109 
	C314.635864,289.587769 333.976624,282.424438 352.096313,288.067932 
	C370.916595,293.929626 383.520874,310.764496 383.681885,330.255035 
	C383.850464,350.663086 369.556091,368.298309 348.755157,373.344727 
	C330.022278,377.889435 309.105011,367.914948 300.372833,349.878204 
	C293.326874,335.324585 294.120117,320.912781 302.562103,306.649109 
z"/>
    <path fill="#FBFAFD" opacity="1.000000" stroke="none"
          d="
M464.149139,242.838852 
	C477.966217,243.045029 487.728851,250.940826 489.757690,263.164307 
	C491.583740,274.165833 484.499023,286.281860 473.922363,289.729797 
	C464.232117,292.888733 455.377472,291.144287 448.214386,283.716766 
	C441.241455,276.486511 439.248505,267.708282 442.894012,258.347839 
	C446.500000,249.088882 453.576599,243.743073 464.149139,242.838852 
z"/>
    <path fill="#FAF8FC" opacity="1.000000" stroke="none"
          d="
M439.433868,403.037567 
	C449.989624,406.358002 455.317993,413.349670 454.861023,422.805939 
	C454.454926,431.209686 448.461517,438.313110 440.162964,440.181946 
	C432.599487,441.885315 426.220245,439.608246 421.391876,433.760620 
	C416.406982,427.723389 415.471466,420.744476 418.851166,413.629517 
	C422.124359,406.738770 427.849274,403.139923 435.525391,402.818939 
	C436.684662,402.770447 437.851746,402.910095 439.433868,403.037567 
z"/>
    <path fill="#F7FBFD" opacity="1.000000" stroke="none"
          d="
M159.667679,302.601532 
	C164.734924,298.823975 169.737701,298.498810 174.764832,301.670990 
	C179.194443,304.466156 181.193344,309.791016 179.884888,315.189972 
	C178.622955,320.396851 175.039810,323.329590 169.935364,324.478546 
	C165.219498,325.539978 159.825821,323.086578 157.136887,318.758789 
	C153.987747,313.690308 154.739059,308.390869 159.667679,302.601532 
z"/>
    <path fill="#F6FBFD" opacity="1.000000" stroke="none"
          d="
M285.502594,108.702484 
	C280.271851,103.653000 279.017578,99.052322 281.190552,93.787239 
	C283.157104,89.022354 287.722046,85.971130 292.860260,85.987129 
	C298.055969,86.003311 302.546936,89.079597 304.418427,93.904350 
	C306.263977,98.662224 305.020660,104.283943 301.382996,107.629433 
	C296.981934,111.677017 292.122925,112.082016 285.502594,108.702484 
z"/>
</svg>