<?xml version="1.0" standalone="no"?>
<!DOCTYPE svg PUBLIC "-//W3C//DTD SVG 20010904//EN"
 "http://www.w3.org/TR/2001/REC-SVG-20010904/DTD/svg10.dtd">
<svg version="1.0" xmlns="http://www.w3.org/2000/svg"
 width="340.000000pt" height="340.000000pt" viewBox="0 0 340.000000 340.000000"
 preserveAspectRatio="xMidYMid meet">
<metadata>
Created by potrace 1.11, written by Peter Selinger 2001-2013
</metadata>
<g transform="translate(0.000000,340.000000) scale(0.100000,-0.100000)"
fill="#000000" stroke="none">
<path d="M1407 2909 l-288 -290 105 -105 c58 -58 108 -105 113 -105 4 0 31 23
60 51 l52 51 252 0 251 0 51 -56 52 -56 113 110 113 110 -290 290 c-160 160
-292 291 -294 290 -1 0 -132 -131 -290 -290z"/>
<path d="M488 1989 l-288 -289 148 -147 c81 -82 211 -212 290 -291 l143 -144
110 114 109 113 -55 53 c-47 45 -55 59 -56 90 0 20 0 133 0 250 l-1 212 56 56
56 56 -109 109 c-60 60 -110 109 -112 108 -2 0 -133 -131 -291 -290z"/>
<path d="M2507 2171 l-108 -108 53 -58 53 -57 1 -247 1 -246 -53 -55 -54 -55
109 -113 109 -114 291 291 291 291 -290 290 c-159 159 -291 290 -292 289 -2 0
-51 -49 -111 -108z"/>
<path d="M1350 1701 l0 -411 228 0 c257 0 309 8 395 63 130 83 200 217 192
365 -4 85 -5 86 -43 165 -40 81 -125 161 -209 197 -56 23 -69 25 -310 28
l-253 4 0 -411z"/>
<path d="M1230 892 l-112 -110 291 -291 291 -291 143 142 c78 79 209 210 291
292 l148 148 -113 109 -113 109 -53 -52 -54 -53 -246 -1 -247 0 -41 35 c-22
20 -48 44 -57 54 -16 18 -21 15 -128 -91z"/>
</g>
</svg>
