<svg version="1.1" viewBox="0.0 0.0 666.6797900262467 515.8740157480315" fill="none" stroke="none" stroke-linecap="square" stroke-miterlimit="10" xmlns:xlink="http://www.w3.org/1999/xlink" xmlns="http://www.w3.org/2000/svg"><clipPath id="p.0"><path d="m0 0l666.6798 0l0 515.874l-666.6798 0l0 -515.874z" clip-rule="nonzero"/></clipPath><g clip-path="url(#p.0)"><path fill="#000000" fill-opacity="0.0" d="m0 0l666.6798 0l0 515.874l-666.6798 0z" fill-rule="evenodd"/><path fill="#ffd966" fill-opacity="0.2402" d="m0 516.6352l0 -161.82678l666.04724 0l0 161.82678z" fill-rule="evenodd"/><path fill="#666666" d="m21.8 506.6039l-9.546875 0l0 -3.59375q0 -0.953125 0.09375 -1.453125q0.125 -0.703125 0.453125 -1.171875q0.328125 -0.484375 0.921875 -0.765625q0.59375 -0.296875 1.296875 -0.296875q1.21875 0 2.0625 0.78125q0.84375 0.765625 0.84375 2.796875l0 2.4375l3.875 0l0 1.265625zm-5.0 -1.265625l0 -2.453125q0 -1.234375 -0.453125 -1.75q-0.46875 -0.515625 -1.28125 -0.515625q-0.609375 0 -1.03125 0.3125q-0.421875 0.296875 -0.5625 0.796875q-0.09375 0.3125 -0.09375 1.171875l0 2.4375l3.421875 0zm5.0 -7.45224l-6.90625 0l0 -1.0625l1.046875 0q-0.734375 -0.40625 -0.96875 -0.734375q-0.234375 -0.34375 -0.234375 -0.765625q0 -0.59375 0.375 -1.203125l1.078125 0.40625q-0.25 0.4375 -0.25 0.859375q0 0.390625 0.234375 0.703125q0.234375 0.296875 0.640625 0.421875q0.625 0.203125 1.359375 0.203125l3.625 0l0 1.171875zm-2.21875 -9.188385l0.140625 -1.203125q1.0625 0.28125 1.65625 1.0625q0.578125 0.765625 0.578125 1.96875q0 1.515625 -0.9375 2.40625q-0.9375 0.890625 -2.609375 0.890625q-1.75 0 -2.703125 -0.890625q-0.96875 -0.90625 -0.96875 -2.34375q0 -1.390625 0.9375 -2.265625q0.9375 -0.875 2.65625 -0.875q0.109375 0 0.3125 0l0 5.15625q1.140625 -0.0625 1.75 -0.640625q0.59375 -0.578125 0.59375 -1.4375q0 -0.65625 -0.328125 -1.109375q-0.34375 -0.453125 -1.078125 -0.71875zm-1.90625 3.84375l0 -3.859375q-0.859375 0.078125 -1.296875 0.4375q-0.6875 0.5625 -0.6875 1.453125q0 0.8125 0.546875 1.359375q0.53125 0.546875 1.4375 0.609375zm1.265625 -6.0687256l-1.1875 0l0 -3.59375l1.1875 0l0 3.59375zm0.640625 -9.6258545l0.140625 -1.203125q1.0625 0.28125 1.65625 1.0625q0.578125 0.765625 0.578125 1.96875q0 1.515625 -0.9375 2.40625q-0.9375 0.890625 -2.609375 0.890625q-1.75 0 -2.703125 -0.890625q-0.96875 -0.90625 -0.96875 -2.34375q0 -1.390625 0.9375 -2.265625q0.9375 -0.875 2.65625 -0.875q0.109375 0 0.3125 0l0 5.15625q1.140625 -0.0625 1.75 -0.640625q0.59375 -0.578125 0.59375 -1.4375q0 -0.65625 -0.328125 -1.109375q-0.34375 -0.453125 -1.078125 -0.71875zm-1.90625 3.84375l0 -3.859375q-0.859375 0.078125 -1.296875 0.4375q-0.6875 0.5625 -0.6875 1.453125q0 0.8125 0.546875 1.359375q0.53125 0.546875 1.4375 0.609375zm4.125 -5.7406006l-3.59375 -2.53125l-3.3125 2.34375l0 -1.46875l1.609375 -1.0625q0.46875 -0.296875 0.78125 -0.484375q-0.4375 -0.28125 -0.765625 -0.515625l-1.625 -1.171875l0 -1.40625l3.25 2.390625l3.65625 -2.5625l0 1.4375l-2.140625 1.421875l-0.59375 0.375l2.734375 1.8125l0 1.421875zm-8.1875 -7.4609375l-1.359375 0l0 -1.171875l1.359375 0l0 1.171875zm8.1875 0l-6.90625 0l0 -1.171875l6.90625 0l0 1.171875zm-2.0625 -2.476715l-0.1875 -1.15625q0.703125 -0.109375 1.078125 -0.546875q0.359375 -0.453125 0.359375 -1.25q0 -0.8125 -0.328125 -1.203125q-0.328125 -0.390625 -0.765625 -0.390625q-0.390625 0 -0.625 0.359375q-0.15625 0.234375 -0.390625 1.1875q-0.328125 1.296875 -0.5625 1.796875q-0.25 0.484375 -0.65625 0.75q-0.421875 0.25 -0.9375 0.25q-0.453125 0 -0.84375 -0.203125q-0.40625 -0.21875 -0.671875 -0.578125q-0.1875 -0.28125 -0.328125 -0.75q-0.140625 -0.46875 -0.140625 -1.015625q0 -0.8125 0.234375 -1.421875q0.234375 -0.609375 0.640625 -0.90625q0.390625 -0.296875 1.0625 -0.40625l0.15625 1.140625q-0.53125 0.078125 -0.828125 0.453125q-0.3125 0.375 -0.3125 1.0625q0 0.8125 0.265625 1.15625q0.265625 0.34375 0.625 0.34375q0.234375 0 0.421875 -0.140625q0.1875 -0.15625 0.3125 -0.453125q0.0625 -0.171875 0.296875 -1.03125q0.328125 -1.25 0.546875 -1.734375q0.203125 -0.5 0.609375 -0.78125q0.40625 -0.28125 1.0 -0.28125q0.59375 0 1.109375 0.34375q0.515625 0.34375 0.796875 1.0q0.28125 0.640625 0.28125 1.453125q0 1.34375 -0.5625 2.046875q-0.5625 0.703125 -1.65625 0.90625zm1.015625 -9.6953125l1.03125 -0.171875q0.109375 0.5 0.109375 0.890625q0 0.640625 -0.203125 1.0q-0.203125 0.34375 -0.53125 0.484375q-0.328125 0.140625 -1.390625 0.140625l-3.96875 0l0 0.859375l-0.90625 0l0 -0.859375l-1.71875 0l-0.703125 -1.171875l2.421875 0l0 -1.171875l0.90625 0l0 1.171875l4.046875 0q0.5 0 0.640625 -0.046875q0.140625 -0.0625 0.234375 -0.203125q0.078125 -0.140625 0.078125 -0.40625q0 -0.203125 -0.046875 -0.515625zm-7.140625 -1.1561279l-1.359375 0l0 -1.171875l1.359375 0l0 1.171875zm8.1875 0l-6.90625 0l0 -1.171875l6.90625 0l0 1.171875zm0 -2.945465l-6.90625 0l0 -1.0625l0.984375 0q-1.140625 -0.75 -1.140625 -2.1875q0 -0.625 0.21875 -1.15625q0.21875 -0.53125 0.59375 -0.78125q0.359375 -0.265625 0.859375 -0.375q0.328125 -0.0625 1.140625 -0.0625l4.25 0l0 1.171875l-4.203125 0q-0.71875 0 -1.0625 0.140625q-0.359375 0.140625 -0.5625 0.484375q-0.21875 0.34375 -0.21875 0.8125q0 0.75 0.46875 1.296875q0.46875 0.546875 1.796875 0.546875l3.78125 0l0 1.171875zm0.578125 -7.1937256l0.15625 -1.140625q0.53125 -0.078125 0.78125 -0.40625q0.3125 -0.4375 0.3125 -1.1875q0 -0.8125 -0.328125 -1.25q-0.3125 -0.453125 -0.90625 -0.609375q-0.359375 -0.09375 -1.5 -0.078125q0.90625 0.765625 0.90625 1.90625q0 1.4375 -1.03125 2.21875q-1.03125 0.78125 -2.46875 0.78125q-0.984375 0 -1.8125 -0.359375q-0.84375 -0.359375 -1.296875 -1.03125q-0.453125 -0.6875 -0.453125 -1.609375q0 -1.21875 0.984375 -2.015625l-0.828125 0l0 -1.078125l5.96875 0q1.609375 0 2.28125 0.328125q0.6875 0.328125 1.078125 1.046875q0.390625 0.703125 0.390625 1.75q0 1.234375 -0.5625 2.0q-0.5625 0.75 -1.671875 0.734375zm-4.15625 -0.984375q1.359375 0 1.984375 -0.53125q0.625 -0.546875 0.625 -1.359375q0 -0.796875 -0.625 -1.34375q-0.625 -0.546875 -1.953125 -0.546875q-1.265625 0 -1.90625 0.5625q-0.640625 0.5625 -0.640625 1.359375q0 0.765625 0.640625 1.3125q0.625 0.546875 1.875 0.546875z" fill-rule="nonzero"/><path fill="#6fa8dc" fill-opacity="0.3408" d="m0.24303228 352.02103l0 -216.40945l665.7323 0l0 216.40945z" fill-rule="evenodd"/><path fill="#666666" d="m22.043032 341.98978l-9.546875 0l0 -3.28125q0 -1.109375 0.140625 -1.703125q0.1875 -0.8125 0.6875 -1.390625q0.640625 -0.765625 1.640625 -1.140625q0.984375 -0.375 2.25 -0.375q1.09375 0 1.9375 0.265625q0.828125 0.25 1.390625 0.65625q0.546875 0.390625 0.859375 0.859375q0.3125 0.46875 0.484375 1.140625q0.15625 0.65625 0.15625 1.53125l0 3.4375zm-1.125 -1.265625l0 -2.03125q0 -0.9375 -0.171875 -1.46875q-0.1875 -0.546875 -0.5 -0.875q-0.453125 -0.4375 -1.203125 -0.6875q-0.765625 -0.25 -1.84375 -0.25q-1.5 0 -2.296875 0.5q-0.8125 0.484375 -1.078125 1.1875q-0.203125 0.5 -0.203125 1.625l0 2.0l7.296875 0zm-1.09375 -12.937653l0.140625 -1.203125q1.0625 0.28125 1.65625 1.0625q0.578125 0.765625 0.578125 1.96875q0 1.515625 -0.9375 2.40625q-0.9375 0.890625 -2.609375 0.890625q-1.75 0 -2.703125 -0.890625q-0.96875 -0.90625 -0.96875 -2.34375q0 -1.390625 0.9375 -2.265625q0.9375 -0.875 2.65625 -0.875q0.109375 0 0.3125 0l0 5.15625q1.140625 -0.0625 1.75 -0.640625q0.59375 -0.578125 0.59375 -1.4375q0 -0.65625 -0.328125 -1.109375q-0.34375 -0.453125 -1.078125 -0.71875zm-1.90625 3.84375l0 -3.859375q-0.859375 0.078125 -1.296875 0.4375q-0.6875 0.5625 -0.6875 1.453125q0 0.8125 0.546875 1.359375q0.53125 0.546875 1.4375 0.609375zm1.59375 -11.037476l0.15625 -1.15625q1.1875 0.1875 1.859375 0.96875q0.671875 0.78125 0.671875 1.921875q0 1.40625 -0.921875 2.28125q-0.9375 0.859375 -2.65625 0.859375q-1.125 0 -1.96875 -0.375q-0.84375 -0.375 -1.25 -1.125q-0.421875 -0.765625 -0.421875 -1.65625q0 -1.125 0.578125 -1.84375q0.5625 -0.71875 1.609375 -0.921875l0.171875 1.140625q-0.703125 0.171875 -1.046875 0.59375q-0.359375 0.40625 -0.359375 0.984375q0 0.890625 0.640625 1.453125q0.640625 0.546875 2.0 0.546875q1.40625 0 2.03125 -0.53125q0.625 -0.546875 0.625 -1.40625q0 -0.6875 -0.421875 -1.140625q-0.421875 -0.46875 -1.296875 -0.59375zm2.53125 -2.1640625l-9.546875 0l0 -1.171875l5.453125 0l-2.8125 -2.765625l0 -1.515625l2.5625 2.640625l4.34375 -2.90625l0 1.4375l-3.53125 2.28125l0.796875 0.828125l2.734375 0l0 1.171875zm0 -6.6484375l-9.546875 0l0 -1.171875l3.421875 0q-0.9375 -0.828125 -0.9375 -2.078125q0 -0.765625 0.296875 -1.328125q0.296875 -0.5625 0.84375 -0.8125q0.53125 -0.25 1.546875 -0.25l4.375 0l0 1.171875l-4.375 0q-0.890625 0 -1.28125 0.390625q-0.40625 0.375 -0.40625 1.078125q0 0.515625 0.28125 0.984375q0.265625 0.453125 0.734375 0.65625q0.453125 0.1875 1.265625 0.1875l3.78125 0l0 1.171875zm-3.453125 -6.9749756q-1.921875 0 -2.84375 -1.078125q-0.765625 -0.890625 -0.765625 -2.171875q0 -1.421875 0.9375 -2.328125q0.921875 -0.90625 2.578125 -0.90625q1.328125 0 2.09375 0.40625q0.765625 0.390625 1.1875 1.15625q0.421875 0.765625 0.421875 1.671875q0 1.453125 -0.921875 2.359375q-0.9375 0.890625 -2.6875 0.890625zm0 -1.203125q1.328125 0 1.984375 -0.578125q0.65625 -0.59375 0.65625 -1.46875q0 -0.875 -0.65625 -1.453125q-0.671875 -0.578125 -2.03125 -0.578125q-1.28125 0 -1.9375 0.59375q-0.65625 0.578125 -0.65625 1.4375q0 0.875 0.65625 1.46875q0.65625 0.578125 1.984375 0.578125zm3.453125 -11.178101l-1.015625 0q1.171875 0.8125 1.171875 2.1875q0 0.609375 -0.234375 1.140625q-0.234375 0.53125 -0.578125 0.796875q-0.359375 0.25 -0.875 0.359375q-0.34375 0.0625 -1.09375 0.0625l-4.28125 0l0 -1.171875l3.828125 0q0.921875 0 1.234375 -0.0625q0.46875 -0.109375 0.734375 -0.46875q0.25 -0.359375 0.25 -0.890625q0 -0.515625 -0.265625 -0.984375q-0.265625 -0.46875 -0.734375 -0.65625q-0.46875 -0.1875 -1.34375 -0.1875l-3.703125 0l0 -1.171875l6.90625 0l0 1.046875zm-2.0625 -2.4124756l-0.1875 -1.15625q0.703125 -0.109375 1.078125 -0.546875q0.359375 -0.453125 0.359375 -1.25q0 -0.8125 -0.328125 -1.203125q-0.328125 -0.390625 -0.765625 -0.390625q-0.390625 0 -0.625 0.359375q-0.15625 0.234375 -0.390625 1.1875q-0.328125 1.296875 -0.5625 1.796875q-0.25 0.484375 -0.65625 0.75q-0.421875 0.25 -0.9375 0.25q-0.453125 0 -0.84375 -0.203125q-0.40625 -0.21875 -0.671875 -0.578125q-0.1875 -0.28125 -0.328125 -0.75q-0.140625 -0.46875 -0.140625 -1.015625q0 -0.8125 0.234375 -1.421875q0.234375 -0.609375 0.640625 -0.90625q0.390625 -0.296875 1.0625 -0.40625l0.15625 1.140625q-0.53125 0.078125 -0.828125 0.453125q-0.3125 0.375 -0.3125 1.0625q0 0.8125 0.265625 1.15625q0.265625 0.34375 0.625 0.34375q0.234375 0 0.421875 -0.140625q0.1875 -0.15625 0.3125 -0.453125q0.0625 -0.171875 0.296875 -1.03125q0.328125 -1.25 0.546875 -1.734375q0.203125 -0.5 0.609375 -0.78125q0.40625 -0.28125 1.0 -0.28125q0.59375 0 1.109375 0.34375q0.515625 0.34375 0.796875 1.0q0.28125 0.640625 0.28125 1.453125q0 1.34375 -0.5625 2.046875q-0.5625 0.703125 -1.65625 0.90625zm-0.15625 -11.8671875l0.140625 -1.203125q1.0625 0.28125 1.65625 1.0625q0.578125 0.765625 0.578125 1.96875q0 1.515625 -0.9375 2.40625q-0.9375 0.890625 -2.609375 0.890625q-1.75 0 -2.703125 -0.890625q-0.96875 -0.90625 -0.96875 -2.34375q0 -1.390625 0.9375 -2.265625q0.9375 -0.875 2.65625 -0.875q0.109375 0 0.3125 0l0 5.15625q1.140625 -0.0625 1.75 -0.640625q0.59375 -0.578125 0.59375 -1.4375q0 -0.65625 -0.328125 -1.109375q-0.34375 -0.453125 -1.078125 -0.71875zm-1.90625 3.84375l0 -3.859375q-0.859375 0.078125 -1.296875 0.4375q-0.6875 0.5625 -0.6875 1.453125q0 0.8125 0.546875 1.359375q0.53125 0.546875 1.4375 0.609375z" fill-rule="nonzero"/><path fill="#666666" d="m34.61053 341.14603q-0.734375 0.578125 -1.71875 0.984375q-0.9843731 0.40625 -2.046873 0.40625q-0.921875 0 -1.78125 -0.296875q-0.984375 -0.359375 -1.96875 -1.09375l0 -0.5q0.8125 0.46875 1.15625 0.625q0.546875 0.234375 1.125 0.375q0.734375 0.171875 1.46875 0.171875q1.8906231 0 3.765623 -1.171875l0 0.5zm-2.3125 -2.8515625l0.609375 -0.109375q0.078125 0.296875 0.078125 0.53125q0 0.390625 -0.125 0.609375q-0.125 0.203125 -0.3125 0.296875q-0.203125 0.078125 -0.8437481 0.078125l-2.390625 0l0 0.515625l-0.546875 0l0 -0.515625l-1.015625 0l-0.421875 -0.703125l1.4375 0l0 -0.703125l0.546875 0l0 0.703125l2.4375 0q0.2968731 0 0.3906231 -0.03125q0.078125 -0.046875 0.125 -0.125q0.046875 -0.078125 0.046875 -0.234375q0 -0.125 -0.015625 -0.3125zm-0.7187481 -3.5351562l0.09375 -0.71875q0.6406231 0.171875 0.9999981 0.640625q0.34375 0.453125 0.34375 1.1875q0 0.90625 -0.5625 1.4375q-0.5624981 0.53125 -1.5781231 0.53125q-1.046875 0 -1.625 -0.53125q-0.578125 -0.546875 -0.578125 -1.40625q0 -0.828125 0.578125 -1.359375q0.5625 -0.53125 1.59375 -0.53125q0.0625 0 0.1875 0.015625l0 3.09375q0.671875 -0.046875 1.0468731 -0.390625q0.359375 -0.34375 0.359375 -0.875q0 -0.375 -0.203125 -0.640625q-0.203125 -0.28125 -0.6562481 -0.453125zm-1.125 2.3125l0 -2.3125q-0.53125 0.046875 -0.796875 0.265625q-0.40625 0.328125 -0.40625 0.875q0 0.484375 0.328125 0.8125q0.328125 0.328125 0.875 0.359375zm2.468748 -3.9023438l-4.156248 0l0 -0.640625l0.640625 0q-0.453125 -0.234375 -0.59375 -0.4375q-0.140625 -0.21875 -0.140625 -0.453125q0 -0.359375 0.234375 -0.734375l0.65625 0.25q-0.15625 0.25 -0.15625 0.515625q0 0.234375 0.140625 0.421875q0.140625 0.171875 0.375 0.25q0.375 0.125 0.828125 0.125l2.171873 0l0 0.703125zm0 -2.6640625l-4.156248 0l0 -0.640625l0.640625 0q-0.453125 -0.234375 -0.59375 -0.4375q-0.140625 -0.21875 -0.140625 -0.453125q0 -0.359375 0.234375 -0.734375l0.65625 0.25q-0.15625 0.25 -0.15625 0.515625q0 0.234375 0.140625 0.421875q0.140625 0.171875 0.375 0.25q0.375 0.125 0.828125 0.125l2.171873 0l0 0.703125zm-0.515625 -5.3828125q0.328125 0.390625 0.46875 0.75q0.140625 0.359375 0.140625 0.78125q0 0.671875 -0.328125 1.046875q-0.34375 0.359375 -0.8593731 0.359375q-0.3125 0 -0.5625 -0.125q-0.25 -0.140625 -0.390625 -0.359375q-0.15625 -0.234375 -0.234375 -0.515625q-0.0625 -0.203125 -0.109375 -0.625q-0.109375 -0.859375 -0.25 -1.25q-0.140625 -0.015625 -0.171875 -0.015625q-0.4375 0 -0.609375 0.203125q-0.234375 0.265625 -0.234375 0.796875q0 0.5 0.171875 0.734375q0.171875 0.234375 0.609375 0.359375l-0.09375 0.6875q-0.4375 -0.09375 -0.703125 -0.3125q-0.28125 -0.21875 -0.421875 -0.625q-0.15625 -0.40625 -0.15625 -0.9375q0 -0.53125 0.125 -0.859375q0.125 -0.34375 0.328125 -0.5q0.1875 -0.15625 0.46875 -0.21875q0.1875 -0.03125 0.65625 -0.03125l0.9375 0q0.9687481 0 1.2343731 -0.046875q0.265625 -0.046875 0.5 -0.171875l0 0.734375q-0.21875 0.109375 -0.515625 0.140625zm-1.5624981 0.0625q0.15625 0.375 0.265625 1.140625q0.0625 0.4375 0.140625 0.625q0.078125 0.171875 0.234375 0.265625q0.140625 0.09375 0.328125 0.09375q0.2812481 0 0.4687481 -0.203125q0.1875 -0.21875 0.1875 -0.625q0 -0.40625 -0.171875 -0.71875q-0.1875 -0.328125 -0.4999981 -0.46875q-0.234375 -0.109375 -0.703125 -0.109375l-0.25 0zm2.078123 -1.9804688l-3.609373 0l0 0.625l-0.546875 0l0 -0.625l-0.4375 0q-0.421875 0 -0.625 -0.0625q-0.265625 -0.109375 -0.4375 -0.359375q-0.171875 -0.265625 -0.171875 -0.71875q0 -0.296875 0.078125 -0.65625l0.609375 0.109375q-0.046875 0.21875 -0.046875 0.40625q0 0.328125 0.140625 0.46875q0.140625 0.125 0.515625 0.125l0.375 0l0 -0.8125l0.546875 0l0 0.8125l3.609373 0l0 0.6875zm-2.078123 -1.7851562q-1.15625 0 -1.703125 -0.640625q-0.46875 -0.53125 -0.46875 -1.3125q0 -0.84375 0.5625 -1.390625q0.5625 -0.546875 1.546875 -0.546875q0.8125 0 1.2656231 0.25q0.453125 0.234375 0.71875 0.703125q0.25 0.453125 0.25 0.984375q0 0.875 -0.5625 1.421875q-0.5624981 0.53125 -1.6093731 0.53125zm0 -0.71875q0.796875 0 1.2031231 -0.34375q0.390625 -0.359375 0.390625 -0.890625q0 -0.515625 -0.390625 -0.859375q-0.4062481 -0.359375 -1.2187481 -0.359375q-0.78125 0 -1.171875 0.359375q-0.390625 0.34375 -0.390625 0.859375q0 0.53125 0.390625 0.890625q0.390625 0.34375 1.1875 0.34375zm2.078123 -3.9804688l-4.156248 0l0 -0.640625l0.640625 0q-0.453125 -0.234375 -0.59375 -0.4375q-0.140625 -0.21875 -0.140625 -0.453125q0 -0.359375 0.234375 -0.734375l0.65625 0.25q-0.15625 0.25 -0.15625 0.515625q0 0.234375 0.140625 0.421875q0.140625 0.171875 0.375 0.25q0.375 0.125 0.828125 0.125l2.171873 0l0 0.703125zm0 -2.6796875l-4.156248 0l0 -0.625l0.59375 0q-0.3125 -0.203125 -0.5 -0.515625q-0.1875 -0.328125 -0.1875 -0.75q0 -0.453125 0.203125 -0.75q0.1875 -0.296875 0.53125 -0.421875q-0.734375 -0.484375 -0.734375 -1.28125q0 -0.609375 0.34375 -0.9375q0.34375 -0.34375 1.0625 -0.34375l2.843748 0l0 0.703125l-2.609373 0q-0.421875 0 -0.609375 0.078125q-0.1875 0.0625 -0.296875 0.25q-0.125 0.171875 -0.125 0.40625q0 0.4375 0.296875 0.734375q0.296875 0.28125 0.9375 0.28125l2.406248 0l0 0.703125l-2.703123 0q-0.46875 0 -0.703125 0.171875q-0.234375 0.171875 -0.234375 0.5625q0 0.296875 0.15625 0.5625q0.15625 0.25 0.46875 0.359375q0.296875 0.109375 0.859375 0.109375l2.156248 0l0 0.703125zm1.6875 -7.1171875l0 0.5q-1.875 -1.171875 -3.765623 -1.171875q-0.734375 0 -1.453125 0.171875q-0.578125 0.125 -1.125 0.375q-0.34375 0.140625 -1.171875 0.625l0 -0.5q0.984375 -0.734375 1.96875 -1.09375q0.859375 -0.296875 1.78125 -0.296875q1.0625 0 2.046873 0.40625q0.984375 0.40625 1.71875 0.984375z" fill-rule="nonzero"/><path fill="#b4a7d6" fill-opacity="0.2626" d="m0.16507821 134.92914l0 -134.92914l665.73224 0l0 134.92914z" fill-rule="evenodd"/><path fill="#666666" d="m21.965078 124.89788l-9.546876 0l0 -3.28125q0 -1.109375 0.140625 -1.703125q0.1875 -0.8125 0.6875 -1.390625q0.640625 -0.765625 1.640625 -1.140625q0.984375 -0.375 2.250001 -0.375q1.09375 0 1.9375 0.265625q0.828125 0.25 1.390625 0.65625q0.546875 0.390625 0.859375 0.859375q0.3125 0.46875 0.484375 1.140625q0.15625 0.65625 0.15625 1.53125l0 3.4375zm-1.125 -1.265625l0 -2.03125q0 -0.9375 -0.171875 -1.46875q-0.1875 -0.546875 -0.5 -0.875q-0.453125 -0.4375 -1.203125 -0.6875q-0.765625 -0.25 -1.84375 -0.25q-1.500001 0 -2.296876 0.5q-0.8125 0.484375 -1.078125 1.1875q-0.203125 0.5 -0.203125 1.625l0 2.0l7.296876 0zm-1.09375 -12.937653l0.140625 -1.203125q1.0625 0.28125 1.65625 1.0625q0.578125 0.765625 0.578125 1.96875q0 1.515625 -0.9375 2.40625q-0.9375 0.890625 -2.609375 0.890625q-1.75 0 -2.703126 -0.890625q-0.96875 -0.90625 -0.96875 -2.34375q0 -1.390625 0.9375 -2.265625q0.93750095 -0.875 2.656251 -0.875q0.109375 0 0.3125 0l0 5.15625q1.140625 -0.0625 1.75 -0.640625q0.59375 -0.578125 0.59375 -1.4375q0 -0.65625 -0.328125 -1.109375q-0.34375 -0.453125 -1.078125 -0.71875zm-1.90625 3.84375l0 -3.859375q-0.859375 0.078125 -1.296875 0.4375q-0.68750095 0.5625 -0.68750095 1.453125q0 0.8125 0.54687595 1.359375q0.53125 0.546875 1.4375 0.609375zm1.59375 -11.037476l0.15625 -1.15625q1.1875 0.1875 1.859375 0.96875q0.671875 0.78125 0.671875 1.921875q0 1.40625 -0.921875 2.28125q-0.9375 0.859375 -2.65625 0.859375q-1.125 0 -1.96875 -0.375q-0.84375095 -0.375 -1.250001 -1.125q-0.421875 -0.765625 -0.421875 -1.65625q0 -1.125 0.578125 -1.84375q0.56250095 -0.71875 1.609376 -0.921875l0.171875 1.140625q-0.703125 0.171875 -1.046875 0.59375q-0.35937595 0.40625 -0.35937595 0.984375q0 0.890625 0.64062595 1.453125q0.640625 0.546875 2.0 0.546875q1.40625 0 2.03125 -0.53125q0.625 -0.546875 0.625 -1.40625q0 -0.6875 -0.421875 -1.140625q-0.421875 -0.46875 -1.296875 -0.59375zm2.53125 -2.1640625l-9.546876 0l0 -1.171875l5.453126 0l-2.812501 -2.765625l0 -1.515625l2.562501 2.640625l4.34375 -2.90625l0 1.4375l-3.53125 2.28125l0.796875 0.828125l2.734375 0l0 1.171875zm0 -6.6484375l-9.546876 0l0 -1.171875l3.421875 0q-0.9375 -0.828125 -0.9375 -2.078125q0 -0.765625 0.296875 -1.328125q0.296875 -0.5625 0.84375095 -0.8125q0.53125 -0.25 1.546875 -0.25l4.375 0l0 1.171875l-4.375 0q-0.890625 0 -1.28125 0.390625q-0.40625095 0.375 -0.40625095 1.078125q0 0.515625 0.28125095 0.984375q0.265625 0.453125 0.734375 0.65625q0.453125 0.1875 1.265625 0.1875l3.78125 0l0 1.171875zm-3.453125 -6.9749756q-1.921875 0 -2.843751 -1.078125q-0.765625 -0.890625 -0.765625 -2.171875q0 -1.421875 0.9375 -2.328125q0.92187595 -0.90625 2.578126 -0.90625q1.328125 0 2.09375 0.40625q0.765625 0.390625 1.1875 1.15625q0.421875 0.765625 0.421875 1.671875q0 1.453125 -0.921875 2.359375q-0.9375 0.890625 -2.6875 0.890625zm0 -1.203125q1.328125 0 1.984375 -0.578125q0.65625 -0.59375 0.65625 -1.46875q0 -0.875 -0.65625 -1.453125q-0.671875 -0.578125 -2.03125 -0.578125q-1.28125 0 -1.9375 0.59375q-0.65625095 0.578125 -0.65625095 1.4375q0 0.875 0.65625095 1.46875q0.65625 0.578125 1.984375 0.578125zm3.453125 -11.178101l-1.015625 0q1.171875 0.8125 1.171875 2.1875q0 0.609375 -0.234375 1.140625q-0.234375 0.53125 -0.578125 0.796875q-0.359375 0.25 -0.875 0.359375q-0.34375 0.0625 -1.09375 0.0625l-4.281251 0l0 -1.171875l3.828126 0q0.921875 0 1.234375 -0.0625q0.46875 -0.109375 0.734375 -0.46875q0.25 -0.359375 0.25 -0.890625q0 -0.515625 -0.265625 -0.984375q-0.265625 -0.46875 -0.734375 -0.65625q-0.46875 -0.1875 -1.34375 -0.1875l-3.703126 0l0 -1.171875l6.906251 0l0 1.046875zm-2.0625 -2.4124756l-0.1875 -1.15625q0.703125 -0.109375 1.078125 -0.546875q0.359375 -0.453125 0.359375 -1.25q0 -0.8125 -0.328125 -1.203125q-0.328125 -0.390625 -0.765625 -0.390625q-0.390625 0 -0.625 0.359375q-0.15625 0.234375 -0.390625 1.1875q-0.328125 1.296875 -0.5625 1.796875q-0.25 0.484375 -0.65625 0.75q-0.421875 0.25 -0.9375 0.25q-0.453125 0 -0.84375 -0.203125q-0.40625095 -0.21875 -0.67187595 -0.578125q-0.1875 -0.28125 -0.328125 -0.75q-0.140625 -0.46875 -0.140625 -1.015625q0 -0.8125 0.234375 -1.421875q0.234375 -0.609375 0.640625 -0.90625q0.39062595 -0.296875 1.062501 -0.40625l0.15625 1.140625q-0.53125 0.078125 -0.828125 0.453125q-0.31250095 0.375 -0.31250095 1.0625q0 0.8125 0.26562595 1.15625q0.265625 0.34375 0.625 0.34375q0.234375 0 0.421875 -0.140625q0.1875 -0.15625 0.3125 -0.453125q0.0625 -0.171875 0.296875 -1.03125q0.328125 -1.25 0.546875 -1.734375q0.203125 -0.5 0.609375 -0.78125q0.40625 -0.28125 1.0 -0.28125q0.59375 0 1.109375 0.34375q0.515625 0.34375 0.796875 1.0q0.28125 0.640625 0.28125 1.453125q0 1.34375 -0.5625 2.046875q-0.5625 0.703125 -1.65625 0.90625zm-0.15625 -11.867184l0.140625 -1.203125q1.0625 0.28125 1.65625 1.0625q0.578125 0.765625 0.578125 1.96875q0 1.5156212 -0.9375 2.4062462q-0.9375 0.890625 -2.609375 0.890625q-1.75 0 -2.703126 -0.890625q-0.96875 -0.90625 -0.96875 -2.3437462q0 -1.390625 0.9375 -2.265625q0.93750095 -0.875 2.656251 -0.875q0.109375 0 0.3125 0l0 5.156246q1.140625 -0.0625 1.75 -0.640625q0.59375 -0.5781212 0.59375 -1.4374962q0 -0.65625 -0.328125 -1.109375q-0.34375 -0.453125 -1.078125 -0.71875zm-1.90625 3.8437462l0 -3.8593712q-0.859375 0.078125 -1.296875 0.4375q-0.68750095 0.5625 -0.68750095 1.453125q0 0.8125 0.54687595 1.3593712q0.53125 0.546875 1.4375 0.609375z" fill-rule="nonzero"/><path fill="#666666" d="m34.532578 124.05413q-0.734375 0.578125 -1.71875 0.984375q-0.9843731 0.40625 -2.046873 0.40625q-0.921875 0 -1.78125 -0.296875q-0.984375 -0.359375 -1.96875 -1.09375l0 -0.5q0.8125 0.46875 1.15625 0.625q0.546875 0.234375 1.125 0.375q0.734375 0.171875 1.46875 0.171875q1.8906231 0 3.765623 -1.171875l0 0.5zm-1.6875 -1.3203125l-4.156248 0l0 -0.625l0.59375 0q-0.3125 -0.203125 -0.5 -0.515625q-0.1875 -0.328125 -0.1875 -0.75q0 -0.453125 0.203125 -0.75q0.1875 -0.296875 0.53125 -0.421875q-0.734375 -0.484375 -0.734375 -1.28125q0 -0.609375 0.34375 -0.9375q0.34375 -0.34375 1.0625 -0.34375l2.843748 0l0 0.703125l-2.609373 0q-0.421875 0 -0.609375 0.078125q-0.1875 0.0625 -0.296875 0.25q-0.125 0.171875 -0.125 0.40625q0 0.4375 0.296875 0.734375q0.296875 0.28125 0.9375 0.28125l2.406248 0l0 0.703125l-2.703123 0q-0.46875 0 -0.703125 0.171875q-0.234375 0.171875 -0.234375 0.5625q0 0.296875 0.15625 0.5625q0.15625 0.25 0.46875 0.359375q0.296875 0.109375 0.859375 0.109375l2.156248 0l0 0.703125zm-0.515625 -9.3671875q0.328125 0.390625 0.46875 0.75q0.140625 0.359375 0.140625 0.78125q0 0.671875 -0.328125 1.046875q-0.34375 0.359375 -0.8593731 0.359375q-0.3125 0 -0.5625 -0.125q-0.25 -0.140625 -0.390625 -0.359375q-0.15625 -0.234375 -0.234375 -0.515625q-0.0625 -0.203125 -0.109375 -0.625q-0.109375 -0.859375 -0.25 -1.25q-0.140625 -0.015625 -0.171875 -0.015625q-0.4375 0 -0.609375 0.203125q-0.234375 0.265625 -0.234375 0.796875q0 0.5 0.171875 0.734375q0.171875 0.234375 0.609375 0.359375l-0.09375 0.6875q-0.4375 -0.09375 -0.703125 -0.3125q-0.28125 -0.21875 -0.421875 -0.625q-0.15625 -0.40625 -0.15625 -0.9375q0 -0.53125 0.125 -0.859375q0.125 -0.34375 0.328125 -0.5q0.1875 -0.15625 0.46875 -0.21875q0.1875 -0.03125 0.65625 -0.03125l0.9375 0q0.9687481 0 1.2343731 -0.046875q0.265625 -0.046875 0.5 -0.171875l0 0.734375q-0.21875 0.109375 -0.515625 0.140625zm-1.5624981 0.0625q0.15625 0.375 0.265625 1.140625q0.0625 0.4375 0.140625 0.625q0.078125 0.171875 0.234375 0.265625q0.140625 0.09375 0.328125 0.09375q0.2812481 0 0.4687481 -0.203125q0.1875 -0.21875 0.1875 -0.625q0 -0.40625 -0.171875 -0.71875q-0.1875 -0.328125 -0.4999981 -0.46875q-0.234375 -0.109375 -0.703125 -0.109375l-0.25 0zm0.5625 -4.5117188l0.078125 -0.6875q0.7187481 0.109375 1.1249981 0.578125q0.40625 0.46875 0.40625 1.140625q0 0.859375 -0.546875 1.375q-0.5624981 0.515625 -1.6093731 0.515625q-0.671875 0 -1.171875 -0.21875q-0.5 -0.234375 -0.75 -0.6875q-0.265625 -0.453125 -0.265625 -0.984375q0 -0.671875 0.34375 -1.09375q0.34375 -0.4375 0.96875 -0.5625l0.109375 0.6875q-0.421875 0.09375 -0.625 0.34375q-0.21875 0.25 -0.21875 0.59375q0 0.53125 0.390625 0.875q0.375 0.328125 1.203125 0.328125q0.828125 0 1.21875 -0.3125q0.3749981 -0.328125 0.3749981 -0.84375q0 -0.421875 -0.25 -0.6875q-0.2656231 -0.28125 -0.7812481 -0.359375zm1.5156231 -1.296875l-5.734373 0l0 -0.703125l2.0625 0q-0.578125 -0.484375 -0.578125 -1.234375q0 -0.46875 0.1875 -0.796875q0.1875 -0.34375 0.515625 -0.484375q0.3125 -0.15625 0.921875 -0.15625l2.624998 0l0 0.703125l-2.624998 0q-0.53125 0 -0.765625 0.234375q-0.25 0.21875 -0.25 0.640625q0 0.3125 0.171875 0.59375q0.15625 0.265625 0.4375 0.390625q0.265625 0.109375 0.765625 0.109375l2.265623 0l0 0.703125zm-4.921873 -4.4492188l-0.8125 0l0 -0.703125l0.8125 0l0 0.703125zm4.921873 0l-4.156248 0l0 -0.703125l4.156248 0l0 0.703125zm0 -1.7773438l-4.156248 0l0 -0.625l0.59375 0q-0.6875 -0.46875 -0.6875 -1.328125q0 -0.375 0.140625 -0.6875q0.140625 -0.3125 0.359375 -0.46875q0.21875 -0.15625 0.515625 -0.21875q0.1875 -0.046875 0.6875 -0.046875l2.546873 0l0 0.703125l-2.531248 0q-0.421875 0 -0.625 0.09375q-0.21875 0.078125 -0.34375 0.296875q-0.140625 0.203125 -0.140625 0.484375q0 0.4375 0.296875 0.765625q0.28125 0.328125 1.078125 0.328125l2.265623 0l0 0.703125zm-1.3437481 -7.2929688l0.09375 -0.71875q0.6406231 0.171875 0.9999981 0.640625q0.34375 0.453125 0.34375 1.1875q0 0.90625 -0.5625 1.4375q-0.5624981 0.53125 -1.5781231 0.53125q-1.046875 0 -1.625 -0.53125q-0.578125 -0.546875 -0.578125 -1.40625q0 -0.828125 0.578125 -1.359375q0.5625 -0.53125 1.59375 -0.53125q0.0625 0 0.1875 0.015625l0 3.09375q0.671875 -0.046875 1.0468731 -0.390625q0.359375 -0.34375 0.359375 -0.875q0 -0.375 -0.203125 -0.640625q-0.2031231 -0.28125 -0.6562481 -0.453125zm-1.125 2.3125l0 -2.3125q-0.53125 0.046875 -0.796875 0.265625q-0.40625 0.328125 -0.40625 0.875q0 0.484375 0.328125 0.8125q0.328125 0.328125 0.875 0.359375zm0.75 -3.6367188l-0.703125 0l0 -2.171875l0.703125 0l0 2.171875zm0.203125 -5.6484375l0.078125 -0.6875q0.7187481 0.109375 1.1249981 0.578125q0.40625 0.46875 0.40625 1.140625q0 0.859375 -0.546875 1.375q-0.5624981 0.515625 -1.6093731 0.515625q-0.671875 0 -1.171875 -0.21875q-0.5 -0.234375 -0.75 -0.6875q-0.265625 -0.453125 -0.265625 -0.984375q0 -0.671875 0.34375 -1.09375q0.34375 -0.4375 0.96875 -0.5625l0.109375 0.6875q-0.421875 0.09375 -0.625 0.34375q-0.21875 0.25 -0.21875 0.59375q0 0.53125 0.390625 0.875q0.375 0.328125 1.203125 0.328125q0.828125 0 1.21875 -0.3125q0.3749981 -0.328125 0.3749981 -0.84375q0 -0.421875 -0.25 -0.6875q-0.2656231 -0.28125 -0.7812481 -0.359375zm-0.5625 -1.03125q-1.15625 0 -1.703125 -0.640625q-0.46875 -0.53125 -0.46875 -1.3125q0 -0.84375 0.5625 -1.390625q0.5625 -0.546875 1.546875 -0.546875q0.8125 0 1.265625 0.25q0.4531231 0.234375 0.7187481 0.703125q0.25 0.453125 0.25 0.984375q0 0.875 -0.5625 1.421875q-0.5624981 0.53125 -1.6093731 0.53125zm0 -0.71875q0.796875 0 1.203125 -0.34375q0.3906231 -0.359375 0.3906231 -0.890625q0 -0.515625 -0.3906231 -0.859375q-0.40625 -0.359375 -1.21875 -0.359375q-0.78125 0 -1.171875 0.359375q-0.390625 0.34375 -0.390625 0.859375q0 0.53125 0.390625 0.890625q0.390625 0.34375 1.1875 0.34375zm2.078123 -3.9960938l-4.156248 0l0 -0.625l0.59375 0q-0.6875 -0.46875 -0.6875 -1.328125q0 -0.375 0.140625 -0.6875q0.140625 -0.3125 0.359375 -0.46875q0.21875 -0.15625 0.515625 -0.21875q0.1875 -0.046875 0.6875 -0.046875l2.546873 0l0 0.703125l-2.531248 0q-0.421875 0 -0.625 0.09375q-0.21875 0.078125 -0.34375 0.296875q-0.140625 0.203125 -0.140625 0.484375q0 0.4375 0.296875 0.765625q0.28125 0.328125 1.078125 0.328125l2.265623 0l0 0.703125zm-0.625 -5.9804688l0.609375 -0.109375q0.078125 0.296875 0.078125 0.53125q0 0.390625 -0.125 0.609375q-0.125 0.203125 -0.3125 0.296875q-0.203125 0.078125 -0.8437481 0.078125l-2.390625 0l0 0.515625l-0.546875 0l0 -0.515625l-1.015625 0l-0.421875 -0.703125l1.4375 0l0 -0.703125l0.546875 0l0 0.703125l2.4375 0q0.296875 0 0.3906231 -0.03125q0.078125 -0.046875 0.125 -0.125q0.046875 -0.078125 0.046875 -0.234375q0 -0.125 -0.015625 -0.3125zm0.625 -0.67578125l-4.156248 0l0 -0.640625l0.640625 0q-0.453125 -0.234375 -0.59375 -0.4375q-0.140625 -0.21875 -0.140625 -0.453125q0 -0.359375 0.234375 -0.734375l0.65625 0.25q-0.15625 0.25 -0.15625 0.515625q0 0.234375 0.140625 0.421875q0.140625 0.171875 0.375 0.25q0.375 0.125 0.828125 0.125l2.171873 0l0 0.703125zm-2.078123 -2.4140625q-1.15625 0 -1.703125 -0.640625q-0.46875 -0.53125 -0.46875 -1.3125q0 -0.84375 0.5625 -1.390625q0.5625 -0.546875 1.546875 -0.546875q0.8125 0 1.265625 0.25q0.4531231 0.234375 0.7187481 0.703125q0.25 0.453125 0.25 0.984375q0 0.875 -0.5625 1.421875q-0.5624981 0.53125 -1.6093731 0.53125zm0 -0.71875q0.796875 0 1.203125 -0.34375q0.3906231 -0.359375 0.3906231 -0.890625q0 -0.515625 -0.3906231 -0.859375q-0.40625 -0.359375 -1.21875 -0.359375q-0.78125 0 -1.171875 0.359375q-0.390625 0.34375 -0.390625 0.859375q0 0.53125 0.390625 0.890625q0.390625 0.34375 1.1875 0.34375zm2.078123 -3.9804688l-5.734373 0l0 -0.703125l5.734373 0l0 0.703125zm0 -1.7773438l-5.734373 0l0 -0.703125l5.734373 0l0 0.703125zm-1.3437481 -4.636715l0.09375 -0.71875q0.6406231 0.171875 0.9999981 0.640625q0.34375 0.453125 0.34375 1.1875q0 0.90625 -0.5625 1.4375q-0.5624981 0.5312462 -1.5781231 0.5312462q-1.046875 0 -1.625 -0.5312462q-0.578125 -0.546875 -0.578125 -1.40625q0 -0.828125 0.578125 -1.359375q0.5625 -0.53125 1.59375 -0.53125q0.0625 0 0.1875 0.015625l0 3.09375q0.671875 -0.046875 1.0468731 -0.390625q0.359375 -0.34375 0.359375 -0.875q0 -0.375 -0.203125 -0.640625q-0.2031231 -0.28125 -0.6562481 -0.453125zm-1.125 2.3125l0 -2.3125q-0.53125 0.046875 -0.796875 0.265625q-0.40625 0.328125 -0.40625 0.875q0 0.484375 0.328125 0.8125q0.328125 0.328125 0.875 0.359375zm2.468748 -3.9023438l-4.156248 0l0 -0.640625l0.640625 0q-0.453125 -0.234375 -0.59375 -0.4375q-0.140625 -0.21875 -0.140625 -0.453125q0 -0.359375 0.234375 -0.734375l0.65625 0.25q-0.15625 0.25 -0.15625 0.515625q0 0.234375 0.140625 0.421875q0.140625 0.171875 0.375 0.25q0.375 0.125 0.828125 0.125l2.171873 0l0 0.703125zm-1.7187481 -2.3984375l-0.703125 0l0 -2.171875l0.703125 0l0 2.171875zm1.7187481 -2.9453125l-4.156248 0l0 -0.625l0.59375 0q-0.3125 -0.203125 -0.5 -0.515625q-0.1875 -0.328125 -0.1875 -0.75q0 -0.453125 0.203125 -0.75q0.1875 -0.296875 0.53125 -0.421875q-0.734375 -0.484375 -0.734375 -1.28125q0 -0.609375 0.34375 -0.9375q0.34375 -0.34375 1.0625 -0.34375l2.843748 0l0 0.703125l-2.609373 0q-0.421875 0 -0.609375 0.078125q-0.1875 0.0625 -0.296875 0.25q-0.125 0.171875 -0.125 0.40625q0 0.4375 0.296875 0.734375q0.296875 0.28125 0.9375 0.28125l2.406248 0l0 0.703125l-2.703123 0q-0.46875 0 -0.703125 0.171875q-0.234375 0.171875 -0.234375 0.5625q0 0.296875 0.15625 0.5625q0.15625 0.25 0.46875 0.359375q0.296875 0.109375 0.859375 0.109375l2.156248 0l0 0.703125zm-0.515625 -9.3671875q0.328125 0.390625 0.46875 0.75q0.140625 0.359375 0.140625 0.78125q0 0.671875 -0.328125 1.046875q-0.34375 0.359375 -0.8593731 0.359375q-0.3125 0 -0.5625 -0.125q-0.25 -0.140625 -0.390625 -0.359375q-0.15625 -0.234375 -0.234375 -0.515625q-0.0625 -0.203125 -0.109375 -0.625q-0.109375 -0.859375 -0.25 -1.25q-0.140625 -0.015625 -0.171875 -0.015625q-0.4375 0 -0.609375 0.203125q-0.234375 0.265625 -0.234375 0.796875q0 0.5 0.171875 0.734375q0.171875 0.234375 0.609375 0.359375l-0.09375 0.6875q-0.4375 -0.09375 -0.703125 -0.3125q-0.28125 -0.21875 -0.421875 -0.625q-0.15625 -0.40625 -0.15625 -0.9375q0 -0.53125 0.125 -0.859375q0.125 -0.34375 0.328125 -0.5q0.1875 -0.15625 0.46875 -0.21875q0.1875 -0.03125 0.65625 -0.03125l0.9375 0q0.9687481 0 1.2343731 -0.046875q0.265625 -0.046875 0.5 -0.171875l0 0.734375q-0.21875 0.109375 -0.515625 0.140625zm-1.5624981 0.0625q0.15625 0.375 0.265625 1.140625q0.0625 0.4375 0.140625 0.625q0.078125 0.171875 0.234375 0.265625q0.140625 0.09375 0.328125 0.09375q0.2812481 0 0.4687481 -0.203125q0.1875 -0.21875 0.1875 -0.625q0 -0.40625 -0.171875 -0.71875q-0.1875 -0.328125 -0.4999981 -0.46875q-0.234375 -0.109375 -0.703125 -0.109375l-0.25 0zm2.078123 -1.8085938l-4.156248 0l0 -0.625l0.59375 0q-0.6875 -0.46875 -0.6875 -1.328125q0 -0.375 0.140625 -0.6875q0.140625 -0.3125 0.359375 -0.46875q0.21875 -0.15625 0.515625 -0.21875q0.1875 -0.046875 0.6875 -0.046875l2.546873 0l0 0.703125l-2.531248 0q-0.421875 0 -0.625 0.09375q-0.21875 0.078125 -0.34375 0.296875q-0.140625 0.203125 -0.140625 0.484375q0 0.4375 0.296875 0.765625q0.28125 0.328125 1.078125 0.328125l2.265623 0l0 0.703125zm-0.515625 -7.1523438q0.328125 0.390625 0.46875 0.75q0.140625 0.359375 0.140625 0.78125q0 0.671875 -0.328125 1.046875q-0.34375 0.359375 -0.8593731 0.359375q-0.3125 0 -0.5625 -0.125q-0.25 -0.140625 -0.390625 -0.359375q-0.15625 -0.234375 -0.234375 -0.515625q-0.0625 -0.203125 -0.109375 -0.625q-0.109375 -0.859375 -0.25 -1.25q-0.140625 -0.015625 -0.171875 -0.015625q-0.4375 0 -0.609375 0.203125q-0.234375 0.265625 -0.234375 0.796875q0 0.5 0.171875 0.734375q0.171875 0.234375 0.609375 0.359375l-0.09375 0.6875q-0.4375 -0.09375 -0.703125 -0.3125q-0.28125 -0.21875 -0.421875 -0.625q-0.15625 -0.40625 -0.15625 -0.9375q0 -0.53125 0.125 -0.859375q0.125 -0.34375 0.328125 -0.5q0.1875 -0.15625 0.46875 -0.21875q0.1875 -0.03125 0.65625 -0.03125l0.9375 0q0.9687481 0 1.2343731 -0.046875q0.265625 -0.046875 0.5 -0.171875l0 0.734375q-0.21875 0.109375 -0.515625 0.140625zm-1.5624981 0.0625q0.15625 0.375 0.265625 1.140625q0.0625 0.4375 0.140625 0.625q0.078125 0.171875 0.234375 0.265625q0.140625 0.09375 0.328125 0.09375q0.2812481 0 0.4687481 -0.203125q0.1875 -0.21875 0.1875 -0.625q0 -0.40625 -0.171875 -0.71875q-0.1875 -0.328125 -0.4999981 -0.46875q-0.234375 -0.109375 -0.703125 -0.109375l-0.25 0zm2.421873 -1.6835938l0.109375 -0.671875q0.3125 -0.046875 0.453125 -0.25q0.203125 -0.25 0.203125 -0.703125q0 -0.5 -0.203125 -0.765625q-0.1875 -0.265625 -0.546875 -0.359375q-0.21875 -0.046875 -0.90625 -0.046875q0.546875 0.46875 0.546875 1.15625q0 0.84375 -0.609375 1.3125q-0.6249981 0.46875 -1.4843731 0.46875q-0.59375 0 -1.09375 -0.203125q-0.515625 -0.21875 -0.78125 -0.625q-0.28125 -0.40625 -0.28125 -0.96875q0 -0.734375 0.59375 -1.203125l-0.5 0l0 -0.65625l3.593748 0q0.96875 0 1.375 0.203125q0.40625 0.203125 0.640625 0.625q0.234375 0.421875 0.234375 1.046875q0 0.75 -0.34375 1.203125q-0.328125 0.453125 -1.0 0.4375zm-2.499998 -0.578125q0.828125 0 1.203125 -0.3125q0.3749981 -0.328125 0.3749981 -0.828125q0 -0.484375 -0.3749981 -0.8125q-0.375 -0.328125 -1.171875 -0.328125q-0.765625 0 -1.140625 0.34375q-0.390625 0.34375 -0.390625 0.8125q0 0.46875 0.375 0.796875q0.375 0.328125 1.125 0.328125zm0.8125 -6.8398438l0.09375 -0.71875q0.6406231 0.171875 0.9999981 0.640625q0.34375 0.453125 0.34375 1.1875q0 0.90625 -0.5625 1.4375q-0.5624981 0.53125 -1.5781231 0.53125q-1.046875 0 -1.625 -0.53125q-0.578125 -0.546875 -0.578125 -1.40625q0 -0.828125 0.578125 -1.359375q0.5625 -0.53125 1.59375 -0.53125q0.0625 0 0.1875 0.015625l0 3.09375q0.671875 -0.046875 1.0468731 -0.390625q0.359375 -0.34375 0.359375 -0.875q0 -0.375 -0.203125 -0.640625q-0.2031231 -0.28125 -0.6562481 -0.453125zm-1.125 2.3125l0 -2.3125q-0.53125 0.046875 -0.796875 0.265625q-0.40625 0.328125 -0.40625 0.875q0 0.484375 0.328125 0.8125q0.328125 0.328125 0.875 0.359375zm2.468748 -3.9023438l-4.156248 0l0 -0.640625l0.640625 0q-0.453125 -0.234375 -0.59375 -0.4375q-0.140625 -0.21875 -0.140625 -0.453125q0 -0.359375 0.234375 -0.734375l0.65625 0.25q-0.15625 0.25 -0.15625 0.515625q0 0.234375 0.140625 0.421875q0.140625 0.171875 0.375 0.25q0.375 0.125 0.828125 0.125l2.171873 0l0 0.703125zm1.6875 -3.1328125l0 0.5q-1.875 -1.171875 -3.765623 -1.171875q-0.734375 0 -1.453125 0.171875q-0.578125 0.125 -1.125 0.375q-0.34375 0.140625 -1.171875 0.625l0 -0.5q0.984375 -0.734375 1.96875 -1.09375q0.859375 -0.296875 1.78125 -0.296875q1.0625 0 2.046873 0.40625q0.984375 0.40625 1.71875 0.984375z" fill-rule="nonzero"/><path fill="#434343" d="m269.61954 31.03412l100.53543 0l0 62.299217l-100.53543 0z" fill-rule="evenodd"/><path stroke="#000000" stroke-width="1.0" stroke-linejoin="round" stroke-linecap="butt" d="m269.61954 31.03412l100.53543 0l0 62.299217l-100.53543 0z" fill-rule="evenodd"/><path fill="#ffffff" d="m299.0091 69.10372l0 -13.359371l1.8125 0l7.015625 10.484371l0 -10.484371l1.6875 0l0 13.359371l-1.8125 0l-7.015625 -10.499996l0 10.499996l-1.6875 0zm12.676056 -4.84375q0 -2.6874962 1.484375 -3.9687462q1.25 -1.078125 3.046875 -1.078125q2.0 0 3.265625 1.3125q1.265625 1.296875 1.265625 3.6093712q0 1.859375 -0.5625 2.9375q-0.5625 1.0625 -1.640625 1.65625q-1.0625 0.59375 -2.328125 0.59375q-2.03125 0 -3.28125 -1.296875q-1.25 -1.3125 -1.25 -3.765625zm1.6875 0q0 1.859375 0.796875 2.796875q0.8125 0.921875 2.046875 0.921875q1.21875 0 2.03125 -0.921875q0.8125 -0.9375 0.8125 -2.84375q0 -1.7968712 -0.8125 -2.7187462q-0.8125 -0.921875 -2.03125 -0.921875q-1.234375 0 -2.046875 0.921875q-0.796875 0.90625 -0.796875 2.7656212zm15.563232 4.84375l0 -1.21875q-0.90625 1.4375 -2.703125 1.4375q-1.15625 0 -2.125 -0.640625q-0.96875 -0.640625 -1.5 -1.78125q-0.53125 -1.140625 -0.53125 -2.625q0 -1.4531212 0.484375 -2.6249962q0.484375 -1.1875 1.4375 -1.8125q0.96875 -0.625 2.171875 -0.625q0.875 0 1.546875 0.375q0.6875 0.359375 1.109375 0.953125l0 -4.796875l1.640625 0l0 13.359371l-1.53125 0zm-5.171875 -4.828125q0 1.859375 0.78125 2.78125q0.78125 0.921875 1.84375 0.921875q1.078125 0 1.828125 -0.875q0.75 -0.890625 0.75 -2.6875q0 -1.9843712 -0.765625 -2.9062462q-0.765625 -0.9375 -1.890625 -0.9375q-1.078125 0 -1.8125 0.890625q-0.734375 0.890625 -0.734375 2.8124962zm15.906952 1.71875l1.6875 0.203125q-0.40625 1.484375 -1.484375 2.3125q-1.078125 0.8125 -2.765625 0.8125q-2.125 0 -3.375 -1.296875q-1.234375 -1.3125 -1.234375 -3.671875q0 -2.4531212 1.25 -3.7968712q1.265625 -1.34375 3.265625 -1.34375q1.9375 0 3.15625 1.328125q1.234375 1.3125 1.234375 3.7031212q0 0.15625 0 0.4375l-7.21875 0q0.09375 1.59375 0.90625 2.453125q0.8125 0.84375 2.015625 0.84375q0.90625 0 1.546875 -0.46875q0.640625 -0.484375 1.015625 -1.515625zm-5.390625 -2.6562462l5.40625 0q-0.109375 -1.21875 -0.625 -1.828125q-0.78125 -0.953125 -2.03125 -0.953125q-1.125 0 -1.90625 0.765625q-0.765625 0.75 -0.84375 2.015625z" fill-rule="nonzero"/><path fill="#434343" d="m402.7069 32.09186l105.4173 0l0 62.299213l-105.4173 0z" fill-rule="evenodd"/><path stroke="#000000" stroke-width="1.0" stroke-linejoin="round" stroke-linecap="butt" d="m402.7069 32.09186l105.4173 0l0 62.299213l-105.4173 0z" fill-rule="evenodd"/><path fill="#ffffff" d="m434.53738 70.16147l0 -13.359379l1.8125 0l7.015625 10.484379l0 -10.484379l1.6875 0l0 13.359379l-1.8125 0l-7.015625 -10.500004l0 10.500004l-1.6875 0zm12.676056 -4.84375q0 -2.6875038 1.484375 -3.9687538q1.25 -1.078125 3.046875 -1.078125q2.0 0 3.265625 1.3125q1.265625 1.296875 1.265625 3.6093788q0 1.859375 -0.5625 2.9375q-0.5625 1.0625 -1.640625 1.65625q-1.0625 0.59375 -2.328125 0.59375q-2.03125 0 -3.28125 -1.296875q-1.25 -1.3125 -1.25 -3.765625zm1.6875 0q0 1.859375 0.796875 2.796875q0.8125 0.921875 2.046875 0.921875q1.21875 0 2.03125 -0.921875q0.8125 -0.9375 0.8125 -2.84375q0 -1.7968788 -0.8125 -2.7187538q-0.8125 -0.921875 -2.03125 -0.921875q-1.234375 0 -2.046875 0.921875q-0.796875 0.90625 -0.796875 2.7656288zm15.563232 4.84375l0 -1.21875q-0.90625 1.4375 -2.703125 1.4375q-1.15625 0 -2.125 -0.640625q-0.96875 -0.640625 -1.5 -1.78125q-0.53125 -1.140625 -0.53125 -2.625q0 -1.4531288 0.484375 -2.6250038q0.484375 -1.1875 1.4375 -1.8125q0.96875 -0.625 2.171875 -0.625q0.875 0 1.546875 0.375q0.6875 0.359375 1.109375 0.953125l0 -4.796875l1.640625 0l0 13.359379l-1.53125 0zm-5.171875 -4.828125q0 1.859375 0.78125 2.78125q0.78125 0.921875 1.84375 0.921875q1.078125 0 1.828125 -0.875q0.75 -0.890625 0.75 -2.6875q0 -1.9843788 -0.765625 -2.9062538q-0.765625 -0.9375 -1.890625 -0.9375q-1.078125 0 -1.8125 0.890625q-0.734375 0.890625 -0.734375 2.8125038zm15.906982 1.71875l1.6875 0.203125q-0.40625 1.484375 -1.484375 2.3125q-1.078125 0.8125 -2.765625 0.8125q-2.125 0 -3.375 -1.296875q-1.234375 -1.3125 -1.234375 -3.671875q0 -2.4531288 1.25 -3.7968788q1.265625 -1.34375 3.265625 -1.34375q1.9375 0 3.15625 1.328125q1.234375 1.3125 1.234375 3.7031288q0 0.15625 0 0.4375l-7.21875 0q0.09375 1.59375 0.90625 2.453125q0.8125 0.84375 2.015625 0.84375q0.90625 0 1.546875 -0.46875q0.640625 -0.484375 1.015625 -1.515625zm-5.390625 -2.65625l5.40625 0q-0.109375 -1.2187538 -0.625 -1.8281288q-0.78125 -0.953125 -2.03125 -0.953125q-1.125 0 -1.90625 0.765625q-0.765625 0.75 -0.84375 2.0156288z" fill-rule="nonzero"/><path fill="#434343" d="m540.6443 31.03412l100.5354 0l0 62.299217l-100.5354 0z" fill-rule="evenodd"/><path stroke="#000000" stroke-width="1.0" stroke-linejoin="round" stroke-linecap="butt" d="m540.6443 31.03412l100.5354 0l0 62.299217l-100.5354 0z" fill-rule="evenodd"/><path fill="#ffffff" d="m570.0338 69.10372l0 -13.359371l1.8125 0l7.015625 10.484371l0 -10.484371l1.6875 0l0 13.359371l-1.8125 0l-7.015625 -10.499996l0 10.499996l-1.6875 0zm12.676086 -4.84375q0 -2.6874962 1.484375 -3.9687462q1.25 -1.078125 3.046875 -1.078125q2.0 0 3.265625 1.3125q1.265625 1.296875 1.265625 3.6093712q0 1.859375 -0.5625 2.9375q-0.5625 1.0625 -1.640625 1.65625q-1.0625 0.59375 -2.328125 0.59375q-2.03125 0 -3.28125 -1.296875q-1.25 -1.3125 -1.25 -3.765625zm1.6875 0q0 1.859375 0.796875 2.796875q0.8125 0.921875 2.046875 0.921875q1.21875 0 2.03125 -0.921875q0.8125 -0.9375 0.8125 -2.84375q0 -1.7968712 -0.8125 -2.7187462q-0.8125 -0.921875 -2.03125 -0.921875q-1.234375 0 -2.046875 0.921875q-0.796875 0.90625 -0.796875 2.7656212zm15.563232 4.84375l0 -1.21875q-0.90625 1.4375 -2.703125 1.4375q-1.15625 0 -2.125 -0.640625q-0.96875 -0.640625 -1.5 -1.78125q-0.53125 -1.140625 -0.53125 -2.625q0 -1.4531212 0.484375 -2.6249962q0.484375 -1.1875 1.4375 -1.8125q0.96875 -0.625 2.171875 -0.625q0.875 0 1.546875 0.375q0.6875 0.359375 1.109375 0.953125l0 -4.796875l1.640625 0l0 13.359371l-1.53125 0zm-5.171875 -4.828125q0 1.859375 0.78125 2.78125q0.78125 0.921875 1.84375 0.921875q1.078125 0 1.828125 -0.875q0.75 -0.890625 0.75 -2.6875q0 -1.9843712 -0.765625 -2.9062462q-0.765625 -0.9375 -1.890625 -0.9375q-1.078125 0 -1.8125 0.890625q-0.734375 0.890625 -0.734375 2.8124962zm15.906921 1.71875l1.6875 0.203125q-0.40625 1.484375 -1.484375 2.3125q-1.078125 0.8125 -2.765625 0.8125q-2.125 0 -3.375 -1.296875q-1.234375 -1.3125 -1.234375 -3.671875q0 -2.4531212 1.25 -3.7968712q1.265625 -1.34375 3.265625 -1.34375q1.9375 0 3.15625 1.328125q1.234375 1.3125 1.234375 3.7031212q0 0.15625 0 0.4375l-7.21875 0q0.09375 1.59375 0.90625 2.453125q0.8125 0.84375 2.015625 0.84375q0.90625 0 1.546875 -0.46875q0.640625 -0.484375 1.015625 -1.515625zm-5.390625 -2.6562462l5.40625 0q-0.109375 -1.21875 -0.625 -1.828125q-0.78125 -0.953125 -2.03125 -0.953125q-1.125 0 -1.90625 0.765625q-0.765625 0.75 -0.84375 2.015625z" fill-rule="nonzero"/><path fill="#434343" d="m108.06325 221.29184l160.9764 0l0 62.299194l-160.9764 0z" fill-rule="evenodd"/><path stroke="#000000" stroke-width="1.0" stroke-linejoin="round" stroke-linecap="butt" d="m108.06325 221.29184l160.9764 0l0 62.299194l-160.9764 0z" fill-rule="evenodd"/><path fill="#ffffff" d="m161.27765 259.36145l0 -9.67189l1.46875 0l0 1.359375q0.453125 -0.71875 1.203125 -1.140625q0.765625 -0.4375 1.71875 -0.4375q1.078125 0 1.765625 0.453125q0.6875 0.4375 0.96875 1.234375q1.15625 -1.6875 2.984375 -1.6875q1.453125 0 2.21875 0.796875q0.78125 0.796875 0.78125 2.453125l0 6.6406403l-1.640625 0l0 -6.0937653q0 -0.984375 -0.15625 -1.40625q-0.15625 -0.4375 -0.578125 -0.703125q-0.421875 -0.265625 -0.984375 -0.265625q-1.015625 0 -1.6875 0.6875q-0.671875 0.671875 -0.671875 2.15625l0 5.6250153l-1.640625 0l0 -6.2812653q0 -1.09375 -0.40625 -1.640625q-0.40625 -0.546875 -1.3125 -0.546875q-0.6875 0 -1.28125 0.359375q-0.59375 0.359375 -0.859375 1.0625q-0.25 0.703125 -0.25 2.03125l0 5.0156403l-1.640625 0zm21.853302 -1.1875q-0.921875 0.765625 -1.765625 1.09375q-0.828125 0.3125 -1.796875 0.3125q-1.59375 0 -2.453125 -0.78125q-0.859375 -0.78125 -0.859375 -1.984375q0 -0.71875 0.328125 -1.2968903q0.328125 -0.59375 0.84375 -0.9375q0.53125 -0.359375 1.1875 -0.546875q0.46875 -0.125 1.453125 -0.25q1.984375 -0.234375 2.921875 -0.5625q0.015625 -0.34375 0.015625 -0.421875q0 -1.0 -0.46875 -1.421875q-0.625 -0.546875 -1.875 -0.546875q-1.15625 0 -1.703125 0.40625q-0.546875 0.40625 -0.8125 1.421875l-1.609375 -0.21875q0.21875 -1.015625 0.71875 -1.640625q0.5 -0.640625 1.453125 -0.984375q0.953125 -0.34375 2.1875 -0.34375q1.25 0 2.015625 0.296875q0.78125 0.28125 1.140625 0.734375q0.375 0.4375 0.515625 1.109375q0.078125 0.421875 0.078125 1.515625l0 2.1875q0 2.2812653 0.109375 2.8906403q0.109375 0.59375 0.40625 1.15625l-1.703125 0q-0.265625 -0.515625 -0.328125 -1.1875zm-0.140625 -3.6718903q-0.890625 0.375 -2.671875 0.625q-1.015625 0.140625 -1.4375 0.328125q-0.421875 0.1875 -0.65625 0.53125q-0.21875 0.34376526 -0.21875 0.78126526q0 0.65625 0.5 1.09375q0.5 0.4375 1.453125 0.4375q0.9375 0 1.671875 -0.40625q0.75 -0.421875 1.09375 -1.140625q0.265625 -0.5625 0.265625 -1.6406403l0 -0.609375zm3.5475922 1.9687653l1.625 -0.25q0.125 0.96875 0.75 1.5q0.625 0.515625 1.75 0.515625q1.125 0 1.671875 -0.453125q0.546875 -0.46875 0.546875 -1.09375q0 -0.546875 -0.484375 -0.87501526q-0.328125 -0.21875 -1.671875 -0.546875q-1.8125 -0.46875 -2.515625 -0.796875q-0.6875 -0.328125 -1.046875 -0.90625q-0.359375 -0.59375 -0.359375 -1.3125q0 -0.640625 0.296875 -1.1875q0.296875 -0.5625 0.8125 -0.921875q0.375 -0.28125 1.03125 -0.46875q0.671875 -0.203125 1.421875 -0.203125q1.140625 0 2.0 0.328125q0.859375 0.328125 1.265625 0.890625q0.421875 0.5625 0.578125 1.5l-1.609375 0.21875q-0.109375 -0.75 -0.640625 -1.171875q-0.515625 -0.421875 -1.46875 -0.421875q-1.140625 0 -1.625 0.375q-0.46875 0.375 -0.46875 0.875q0 0.3125 0.1875 0.578125q0.203125 0.265625 0.640625 0.4375q0.234375 0.09375 1.4375 0.421875q1.75 0.453125 2.4375 0.75q0.6875 0.296875 1.078125 0.859375q0.390625 0.5625 0.390625 1.4062653q0 0.828125 -0.484375 1.546875q-0.46875 0.71875 -1.375 1.125q-0.90625 0.390625 -2.046875 0.390625q-1.875 0 -2.875 -0.78125q-0.984375 -0.78125 -1.25 -2.328125zm13.5625 1.421875l0.234375 1.453125q-0.6875 0.140625 -1.234375 0.140625q-0.890625 0 -1.390625 -0.28125q-0.484375 -0.28125 -0.6875 -0.734375q-0.203125 -0.46875 -0.203125 -1.9375l0 -5.5781403l-1.203125 0l0 -1.265625l1.203125 0l0 -2.390625l1.625 -0.984375l0 3.375l1.65625 0l0 1.265625l-1.65625 0l0 5.6718903q0 0.6875 0.078125 0.890625q0.09375 0.203125 0.28125 0.328125q0.203125 0.109375 0.578125 0.109375q0.265625 0 0.71875 -0.0625zm8.230179 -1.640625l1.6875 0.203125q-0.40625 1.484375 -1.484375 2.3125q-1.078125 0.8125 -2.765625 0.8125q-2.125 0 -3.375 -1.296875q-1.234375 -1.3125 -1.234375 -3.6718903q0 -2.453125 1.25 -3.796875q1.265625 -1.34375 3.265625 -1.34375q1.9375 0 3.15625 1.328125q1.234375 1.3125 1.234375 3.703125q0 0.15625 0 0.4375l-7.21875 0q0.09375 1.5937653 0.90625 2.4531403q0.8125 0.84375 2.015625 0.84375q0.90625 0 1.546875 -0.46875q0.640625 -0.484375 1.015625 -1.515625zm-5.390625 -2.6562653l5.40625 0q-0.109375 -1.21875 -0.625 -1.828125q-0.78125 -0.953125 -2.03125 -0.953125q-1.125 0 -1.90625 0.765625q-0.765625 0.75 -0.84375 2.015625zm9.125717 5.7656403l0 -9.67189l1.46875 0l0 1.46875q0.5625 -1.03125 1.03125 -1.359375q0.484375 -0.328125 1.0625 -0.328125q0.828125 0 1.6875 0.53125l-0.5625 1.515625q-0.609375 -0.359375 -1.203125 -0.359375q-0.546875 0 -0.96875 0.328125q-0.421875 0.328125 -0.609375 0.890625q-0.28125 0.875 -0.28125 1.921875l0 5.0625153l-1.625 0z" fill-rule="nonzero"/><path fill="#cfe2f3" d="m86.56468 413.7077l0 0c-2.0200272 -10.610596 4.612129 -21.11441 17.082191 -27.054352c12.47007 -5.939911 28.591072 -6.2742004 41.52227 -0.8609619l0 0c4.580612 -6.1694336 12.964493 -10.429016 22.615677 -11.490295c9.651169 -1.0612488 19.43608 1.2004395 26.394958 6.100952l0 0c3.9021149 -5.5935974 11.56395 -9.351776 20.266724 -9.9409485c8.702774 -0.58917236 17.214813 2.0740356 22.51561 7.0446167l0 0c7.049713 -5.929199 18.265991 -8.425659 28.795486 -6.409088c10.5295105 2.0165405 18.481018 8.183899 20.41388 15.833405l0 0c8.6371155 1.6838989 15.8316345 5.9646606 19.724762 11.736237c3.893097 5.7715454 4.1029053 12.467773 0.5751648 18.358551l0 0c8.505035 7.9119263 10.494568 18.454498 5.226166 27.69339c-5.268402 9.238892 -17.003235 15.786072 -30.825287 17.198273c-0.09741211 8.6710205 -6.7506104 16.627472 -17.395172 20.802551c-10.644562 4.1750793 -23.61827 3.9168396 -33.920517 -0.6751709l0 0c-4.388214 10.385071 -16.739548 18.026306 -31.717789 19.622406c-14.978241 1.5960999 -29.89824 -3.139038 -38.313995 -12.1596985l0 0c-10.315964 4.446289 -22.694244 5.7271423 -34.342583 3.5535889c-11.648331 -2.1735535 -21.585503 -7.6184387 -27.569893 -15.106354l0 0c-10.541618 0.88171387 -20.733902 -3.0220642 -25.518463 -9.773895c-4.784561 -6.7518616 -3.1428757 -14.914459 4.1102905 -20.436768l0 0c-9.403397 -3.955902 -14.201572 -11.805725 -11.892471 -19.456116c2.3090973 -7.6503906 11.202217 -13.367706 22.041954 -14.170624z" fill-rule="evenodd"/><path fill="#000000" fill-opacity="0.0" d="m76.206825 447.7434l0 0c4.4374847 1.8667908 9.5638275 2.713623 14.690727 2.4267578m6.7151337 27.784546c2.20475 -0.18441772 4.3658295 -0.57492065 6.427498 -1.1614685m55.481895 12.713745c-1.5506744 -1.6621399 -2.8489838 -3.438263 -3.8728027 -5.2981567m73.90727 -2.1648254l0 0c0.80003357 -1.8933716 1.3183899 -3.842041 1.546402 -5.813507m49.76735 -14.313171c0.10372925 -9.231659 -7.2321167 -17.684265 -18.856537 -21.727142m44.455414 -23.163544c-1.8825378 3.1435547 -4.756439 5.932129 -8.396362 8.147156m-11.901794 -38.242767l0 0c0.32077026 1.2694092 0.46920776 2.557953 0.44329834 3.8476868m-49.65184 -13.271606l0 0c-1.7585602 1.4790344 -3.2073822 3.1318665 -4.301346 4.9069824m-38.481384 -2.0112915l0 0c-0.9371643 1.3433838 -1.6369781 2.7649536 -2.083313 4.231903m-46.928055 1.1575317l0 0c2.7362366 1.1454163 5.267624 2.5240784 7.538559 4.105652m-66.14226 23.809814l0 0c0.27841187 1.4624329 0.71832275 2.9067993 1.3155975 4.319641" fill-rule="evenodd"/><path stroke="#000000" stroke-width="1.0" stroke-linejoin="round" stroke-linecap="butt" d="m86.56468 413.7077l0 0c-2.0200272 -10.610596 4.612129 -21.11441 17.082191 -27.054352c12.47007 -5.939911 28.591072 -6.2742004 41.52227 -0.8609619l0 0c4.580612 -6.1694336 12.964493 -10.429016 22.615677 -11.490295c9.651169 -1.0612488 19.43608 1.2004395 26.394958 6.100952l0 0c3.9021149 -5.5935974 11.56395 -9.351776 20.266724 -9.9409485c8.702774 -0.58917236 17.214813 2.0740356 22.51561 7.0446167l0 0c7.049713 -5.929199 18.265991 -8.425659 28.795486 -6.409088c10.5295105 2.0165405 18.481018 8.183899 20.41388 15.833405l0 0c8.6371155 1.6838989 15.8316345 5.9646606 19.724762 11.736237c3.893097 5.7715454 4.1029053 12.467773 0.5751648 18.358551l0 0c8.505035 7.9119263 10.494568 18.454498 5.226166 27.69339c-5.268402 9.238892 -17.003235 15.786072 -30.825287 17.198273c-0.09741211 8.6710205 -6.7506104 16.627472 -17.395172 20.802551c-10.644562 4.1750793 -23.61827 3.9168396 -33.920517 -0.6751709l0 0c-4.388214 10.385071 -16.739548 18.026306 -31.717789 19.622406c-14.978241 1.5960999 -29.89824 -3.139038 -38.313995 -12.1596985l0 0c-10.315964 4.446289 -22.694244 5.7271423 -34.342583 3.5535889c-11.648331 -2.1735535 -21.585503 -7.6184387 -27.569893 -15.106354l0 0c-10.541618 0.88171387 -20.733902 -3.0220642 -25.518463 -9.773895c-4.784561 -6.7518616 -3.1428757 -14.914459 4.1102905 -20.436768l0 0c-9.403397 -3.955902 -14.201572 -11.805725 -11.892471 -19.456116c2.3090973 -7.6503906 11.202217 -13.367706 22.041954 -14.170624z" fill-rule="evenodd"/><path stroke="#000000" stroke-width="1.0" stroke-linejoin="round" stroke-linecap="butt" d="m76.206825 447.7434l0 0c4.4374847 1.8667908 9.5638275 2.713623 14.690727 2.4267578m6.7151337 27.784546c2.20475 -0.18441772 4.3658295 -0.57492065 6.427498 -1.1614685m55.481895 12.713745c-1.5506744 -1.6621399 -2.8489838 -3.438263 -3.8728027 -5.2981567m73.90727 -2.1648254l0 0c0.80003357 -1.8933716 1.3183899 -3.842041 1.546402 -5.813507m49.76735 -14.313171c0.10372925 -9.231659 -7.2321167 -17.684265 -18.856537 -21.727142m44.455414 -23.163544c-1.8825378 3.1435547 -4.756439 5.932129 -8.396362 8.147156m-11.901794 -38.242767l0 0c0.32077026 1.2694092 0.46920776 2.557953 0.44329834 3.8476868m-49.65184 -13.271606l0 0c-1.7585602 1.4790344 -3.2073822 3.1318665 -4.301346 4.9069824m-38.481384 -2.0112915l0 0c-0.9371643 1.3433838 -1.6369781 2.7649536 -2.083313 4.231903m-46.928055 1.1575317l0 0c2.7362366 1.1454163 5.267624 2.5240784 7.538559 4.105652m-66.14226 23.809814l0 0c0.27841187 1.4624329 0.71832275 2.9067993 1.3155975 4.319641" fill-rule="evenodd"/><path fill="#000000" d="m150.40904 439.59427l0 -13.359375l1.765625 0l0 13.359375l-1.765625 0zm4.683304 0l0 -9.671875l1.46875 0l0 1.375q1.0625 -1.59375 3.078125 -1.59375q0.875 0 1.609375 0.3125q0.734375 0.3125 1.09375 0.828125q0.375 0.5 0.515625 1.203125q0.09375 0.453125 0.09375 1.59375l0 5.953125l-1.640625 0l0 -5.890625q0 -1.0 -0.203125 -1.484375q-0.1875 -0.5 -0.671875 -0.796875q-0.484375 -0.296875 -1.140625 -0.296875q-1.046875 0 -1.8125 0.671875q-0.75 0.65625 -0.75 2.515625l0 5.28125l-1.640625 0zm13.953842 -1.46875l0.234375 1.453125q-0.6875 0.140625 -1.234375 0.140625q-0.890625 0 -1.390625 -0.28125q-0.484375 -0.28125 -0.6875 -0.734375q-0.203125 -0.46875 -0.203125 -1.9375l0 -5.578125l-1.203125 0l0 -1.265625l1.203125 0l0 -2.390625l1.625 -0.984375l0 3.375l1.65625 0l0 1.265625l-1.65625 0l0 5.671875q0 0.6875 0.078125 0.890625q0.09375 0.203125 0.28125 0.328125q0.203125 0.109375 0.578125 0.109375q0.265625 0 0.71875 -0.0625zm8.230179 -1.640625l1.6875 0.203125q-0.40625 1.484375 -1.484375 2.3125q-1.078125 0.8125 -2.765625 0.8125q-2.125 0 -3.375 -1.296875q-1.234375 -1.3125 -1.234375 -3.671875q0 -2.453125 1.25 -3.796875q1.265625 -1.34375 3.265625 -1.34375q1.9375 0 3.15625 1.328125q1.234375 1.3125 1.234375 3.703125q0 0.15625 0 0.4375l-7.21875 0q0.09375 1.59375 0.90625 2.453125q0.8125 0.84375 2.015625 0.84375q0.90625 0 1.546875 -0.46875q0.640625 -0.484375 1.015625 -1.515625zm-5.390625 -2.65625l5.40625 0q-0.109375 -1.21875 -0.625 -1.828125q-0.78125 -0.953125 -2.03125 -0.953125q-1.125 0 -1.90625 0.765625q-0.765625 0.75 -0.84375 2.015625zm9.125717 5.765625l0 -9.671875l1.46875 0l0 1.46875q0.5625 -1.03125 1.03125 -1.359375q0.484375 -0.328125 1.0625 -0.328125q0.828125 0 1.6875 0.53125l-0.5625 1.515625q-0.609375 -0.359375 -1.203125 -0.359375q-0.546875 0 -0.96875 0.328125q-0.421875 0.328125 -0.609375 0.890625q-0.28125 0.875 -0.28125 1.921875l0 5.0625l-1.625 0zm6.228302 0l0 -9.671875l1.46875 0l0 1.375q1.0625 -1.59375 3.078125 -1.59375q0.875 0 1.609375 0.3125q0.734375 0.3125 1.09375 0.828125q0.375 0.5 0.515625 1.203125q0.09375 0.453125 0.09375 1.59375l0 5.953125l-1.640625 0l0 -5.890625q0 -1.0 -0.203125 -1.484375q-0.1875 -0.5 -0.671875 -0.796875q-0.484375 -0.296875 -1.140625 -0.296875q-1.046875 0 -1.8125 0.671875q-0.75 0.65625 -0.75 2.515625l0 5.28125l-1.640625 0zm17.000717 -3.109375l1.6875 0.203125q-0.40625 1.484375 -1.484375 2.3125q-1.078125 0.8125 -2.765625 0.8125q-2.125 0 -3.375 -1.296875q-1.234375 -1.3125 -1.234375 -3.671875q0 -2.453125 1.25 -3.796875q1.265625 -1.34375 3.265625 -1.34375q1.9375 0 3.15625 1.328125q1.234375 1.3125 1.234375 3.703125q0 0.15625 0 0.4375l-7.21875 0q0.09375 1.59375 0.90625 2.453125q0.8125 0.84375 2.015625 0.84375q0.90625 0 1.546875 -0.46875q0.640625 -0.484375 1.015625 -1.515625zm-5.390625 -2.65625l5.40625 0q-0.109375 -1.21875 -0.625 -1.828125q-0.78125 -0.953125 -2.03125 -0.953125q-1.125 0 -1.90625 0.765625q-0.765625 0.75 -0.84375 2.015625zm12.719467 4.296875l0.234375 1.453125q-0.6875 0.140625 -1.234375 0.140625q-0.890625 0 -1.390625 -0.28125q-0.484375 -0.28125 -0.6875 -0.734375q-0.203125 -0.46875 -0.203125 -1.9375l0 -5.578125l-1.203125 0l0 -1.265625l1.203125 0l0 -2.390625l1.625 -0.984375l0 3.375l1.65625 0l0 1.265625l-1.65625 0l0 5.671875q0 0.6875 0.078125 0.890625q0.09375 0.203125 0.28125 0.328125q0.203125 0.109375 0.578125 0.109375q0.265625 0 0.71875 -0.0625z" fill-rule="nonzero"/><path fill="#000000" fill-opacity="0.0" d="m57.217583 0l0 515.33856" fill-rule="evenodd"/><path stroke="#666666" stroke-width="1.0" stroke-linejoin="round" stroke-linecap="butt" stroke-dasharray="4.0,3.0" d="m57.217583 0l0 515.33856" fill-rule="evenodd"/><path fill="#000000" fill-opacity="0.0" d="m522.2525 258.8609l0 0" fill-rule="evenodd"/><path stroke="#000000" stroke-width="1.0" stroke-linejoin="round" stroke-linecap="butt" d="m522.2525 258.8609l0 0" fill-rule="evenodd"/><path fill="#000000" fill-opacity="0.0" d="m319.88727 93.333336l54.141724 139.81104" fill-rule="evenodd"/><path stroke="#000000" stroke-width="1.0" stroke-linejoin="round" stroke-linecap="butt" stroke-dasharray="4.0,3.0" d="m319.88727 93.333336l54.141724 139.81104" fill-rule="evenodd"/><path fill="#000000" fill-opacity="0.0" d="m455.41556 94.391075l0 130.77167" fill-rule="evenodd"/><path stroke="#000000" stroke-width="1.0" stroke-linejoin="round" stroke-linecap="butt" stroke-dasharray="4.0,3.0" d="m455.41556 94.391075l0 130.77167" fill-rule="evenodd"/><path fill="#000000" fill-opacity="0.0" d="m590.912 93.333336l-54.11023 139.81104" fill-rule="evenodd"/><path stroke="#000000" stroke-width="1.0" stroke-linejoin="round" stroke-linecap="butt" stroke-dasharray="4.0,3.0" d="m590.912 93.333336l-54.11023 139.81104" fill-rule="evenodd"/><path fill="#000000" fill-opacity="0.0" d="m418.62747 435.72177l-52.012543 0l0 0.0630188l-52.333923 0" fill-rule="evenodd"/><path stroke="#000000" stroke-width="1.0" stroke-linejoin="round" stroke-linecap="butt" stroke-dasharray="4.0,3.0" d="m418.62747 435.72177l-52.012573 0l0 0.0630188l-48.9068 0" fill-rule="evenodd"/><path fill="#000000" stroke="#000000" stroke-width="1.0" stroke-linecap="butt" d="m317.7081 435.7848l1.1245728 -1.1246033l-3.0897522 1.1246033l3.0897522 1.1245728z" fill-rule="evenodd"/><path fill="#000000" fill-opacity="0.0" d="m340.32797 252.44095l-71.27557 0" fill-rule="evenodd"/><path stroke="#000000" stroke-width="1.0" stroke-linejoin="round" stroke-linecap="butt" stroke-dasharray="4.0,3.0" d="m340.32797 252.44095l-71.27557 0" fill-rule="evenodd"/><path fill="#000000" fill-opacity="0.0" d="m455.41458 279.71652l0 67.624756l0.0630188 0l0 67.619354" fill-rule="evenodd"/><path stroke="#000000" stroke-width="1.0" stroke-linejoin="round" stroke-linecap="butt" stroke-dasharray="4.0,3.0" d="m455.41458 279.71652l0 67.624756l0.06298828 0l0 64.19226" fill-rule="evenodd"/><path fill="#000000" stroke="#000000" stroke-width="1.0" stroke-linecap="butt" d="m455.47757 411.53354l-1.1245728 -1.1245728l1.1245728 3.0897522l1.1245728 -3.0897522z" fill-rule="evenodd"/><path fill="#cfe2f3" d="m418.62747 420.15485l0 0c0 2.8658142 16.470276 5.1889954 36.787384 5.1889954c20.317139 0 36.787415 -2.3231812 36.787415 -5.1889954l0 31.13388c0 2.8657837 -16.470276 5.188965 -36.787415 5.188965c-20.317108 0 -36.787384 -2.3231812 -36.787384 -5.188965z" fill-rule="evenodd"/><path fill="#e2edf7" d="m418.62747 420.15485l0 0c0 -2.8657837 16.470276 -5.188965 36.787384 -5.188965c20.317139 0 36.787415 2.3231812 36.787415 5.188965l0 0c0 2.8658142 -16.470276 5.1889954 -36.787415 5.1889954c-20.317108 0 -36.787384 -2.3231812 -36.787384 -5.1889954z" fill-rule="evenodd"/><path fill="#000000" fill-opacity="0.0" d="m492.20227 420.15485l0 0c0 2.8658142 -16.470276 5.1889954 -36.787415 5.1889954c-20.317108 0 -36.787384 -2.3231812 -36.787384 -5.1889954l0 0c0 -2.8657837 16.470276 -5.188965 36.787384 -5.188965c20.317139 0 36.787415 2.3231812 36.787415 5.188965l0 31.13388c0 2.8657837 -16.470276 5.188965 -36.787415 5.188965c-20.317108 0 -36.787384 -2.3231812 -36.787384 -5.188965l0 -31.13388" fill-rule="evenodd"/><path stroke="#000000" stroke-width="1.0" stroke-linejoin="round" stroke-linecap="butt" d="m492.20227 420.15485l0 0c0 2.8658142 -16.470276 5.1889954 -36.787415 5.1889954c-20.317108 0 -36.787384 -2.3231812 -36.787384 -5.1889954l0 0c0 -2.8657837 16.470276 -5.188965 36.787384 -5.188965c20.317139 0 36.787415 2.3231812 36.787415 5.188965l0 31.13388c0 2.8657837 -16.470276 5.188965 -36.787415 5.188965c-20.317108 0 -36.787384 -2.3231812 -36.787384 -5.188965l0 -31.13388" fill-rule="evenodd"/><path fill="#000000" d="m441.15878 435.55627l0 -7.625l5.515625 0l0 0.890625l-4.5 0l0 2.34375l4.21875 0l0 0.890625l-4.21875 0l0 2.59375l4.671875 0l0 0.90625l-5.6875 0zm7.0920105 0l0 -7.625l2.625 0q0.890625 0 1.359375 0.109375q0.65625 0.140625 1.109375 0.546875q0.609375 0.5 0.90625 1.296875q0.296875 0.796875 0.296875 1.8125q0 0.875 -0.203125 1.546875q-0.203125 0.671875 -0.515625 1.109375q-0.3125 0.4375 -0.703125 0.6875q-0.375 0.25 -0.90625 0.390625q-0.53125 0.125 -1.21875 0.125l-2.75 0zm1.0 -0.90625l1.625 0q0.765625 0 1.1875 -0.140625q0.4375 -0.140625 0.6875 -0.390625q0.359375 -0.359375 0.5625 -0.953125q0.203125 -0.609375 0.203125 -1.484375q0 -1.1875 -0.40625 -1.828125q-0.390625 -0.65625 -0.953125 -0.875q-0.40625 -0.15625 -1.296875 -0.15625l-1.609375 0l0 5.828125zm10.258118 -2.078125l0 -0.90625l3.234375 0l0 2.828125q-0.75 0.59375 -1.546875 0.890625q-0.78125 0.296875 -1.609375 0.296875q-1.125 0 -2.046875 -0.46875q-0.921875 -0.484375 -1.390625 -1.390625q-0.46875 -0.921875 -0.46875 -2.046875q0 -1.109375 0.46875 -2.078125q0.46875 -0.96875 1.34375 -1.4375q0.875 -0.46875 2.015625 -0.46875q0.828125 0 1.484375 0.28125q0.671875 0.265625 1.046875 0.75q0.390625 0.46875 0.59375 1.234375l-0.921875 0.25q-0.171875 -0.578125 -0.421875 -0.90625q-0.25 -0.34375 -0.734375 -0.53125q-0.46875 -0.203125 -1.046875 -0.203125q-0.6875 0 -1.203125 0.21875q-0.5 0.203125 -0.8125 0.546875q-0.296875 0.34375 -0.46875 0.75q-0.296875 0.703125 -0.296875 1.53125q0 1.03125 0.34375 1.71875q0.359375 0.671875 1.03125 1.015625q0.671875 0.328125 1.421875 0.328125q0.65625 0 1.28125 -0.25q0.625 -0.25 0.953125 -0.546875l0 -1.40625l-2.25 0zm4.7418823 2.984375l0 -7.625l5.515625 0l0 0.890625l-4.5 0l0 2.34375l4.21875 0l0 0.890625l-4.21875 0l0 2.59375l4.671875 0l0 0.90625l-5.6875 0z" fill-rule="nonzero"/><path fill="#000000" d="m438.77917 445.5719l0 -0.90625l3.234375 0l0 2.828125q-0.75 0.59375 -1.546875 0.890625q-0.78125 0.296875 -1.609375 0.296875q-1.125 0 -2.046875 -0.46875q-0.921875 -0.484375 -1.390625 -1.390625q-0.46875 -0.921875 -0.46875 -2.046875q0 -1.109375 0.46875 -2.078125q0.46875 -0.96875 1.34375 -1.4375q0.875 -0.46875 2.015625 -0.46875q0.828125 0 1.484375 0.28125q0.671875 0.265625 1.046875 0.75q0.390625 0.46875 0.59375 1.234375l-0.921875 0.25q-0.171875 -0.578125 -0.421875 -0.90625q-0.25 -0.34375 -0.734375 -0.53125q-0.46875 -0.203125 -1.046875 -0.203125q-0.6875 0 -1.203125 0.21875q-0.5 0.203125 -0.8125 0.546875q-0.296875 0.34375 -0.46875 0.75q-0.296875 0.703125 -0.296875 1.53125q0 1.03125 0.34375 1.71875q0.359375 0.671875 1.03125 1.015625q0.671875 0.328125 1.421875 0.328125q0.65625 0 1.28125 -0.25q0.625 -0.25 0.953125 -0.546875l0 -1.40625l-2.25 0zm8.210632 2.296875q-0.53125 0.453125 -1.015625 0.640625q-0.46875 0.171875 -1.015625 0.171875q-0.921875 0 -1.40625 -0.4375q-0.484375 -0.453125 -0.484375 -1.140625q0 -0.40625 0.171875 -0.734375q0.1875 -0.34375 0.484375 -0.546875q0.3125 -0.203125 0.6875 -0.3125q0.265625 -0.0625 0.828125 -0.140625q1.125 -0.125 1.671875 -0.3125q0 -0.203125 0 -0.25q0 -0.578125 -0.265625 -0.8125q-0.359375 -0.3125 -1.0625 -0.3125q-0.65625 0 -0.984375 0.234375q-0.3125 0.234375 -0.453125 0.8125l-0.921875 -0.125q0.125 -0.578125 0.40625 -0.9375q0.296875 -0.375 0.828125 -0.5625q0.546875 -0.203125 1.25 -0.203125q0.71875 0 1.15625 0.171875q0.4375 0.171875 0.640625 0.421875q0.21875 0.25 0.296875 0.640625q0.046875 0.234375 0.046875 0.859375l0 1.25q0 1.296875 0.0625 1.65625q0.0625 0.34375 0.234375 0.65625l-0.96875 0q-0.15625 -0.296875 -0.1875 -0.6875zm-0.078125 -2.078125q-0.515625 0.203125 -1.53125 0.34375q-0.578125 0.078125 -0.828125 0.1875q-0.234375 0.109375 -0.359375 0.3125q-0.125 0.1875 -0.125 0.4375q0 0.375 0.28125 0.625q0.28125 0.25 0.828125 0.25q0.53125 0 0.953125 -0.234375q0.421875 -0.234375 0.625 -0.65625q0.15625 -0.3125 0.15625 -0.9375l0 -0.328125zm4.4421387 1.921875l0.125 0.828125q-0.390625 0.09375 -0.703125 0.09375q-0.5 0 -0.78125 -0.15625q-0.28125 -0.171875 -0.40625 -0.4375q-0.109375 -0.265625 -0.109375 -1.109375l0 -3.171875l-0.6875 0l0 -0.734375l0.6875 0l0 -1.359375l0.9375 -0.5625l0 1.921875l0.9375 0l0 0.734375l-0.9375 0l0 3.234375q0 0.390625 0.046875 0.515625q0.046875 0.109375 0.15625 0.1875q0.109375 0.0625 0.328125 0.0625q0.15625 0 0.40625 -0.046875zm4.6950073 -0.9375l0.96875 0.125q-0.234375 0.84375 -0.859375 1.3125q-0.609375 0.46875 -1.578125 0.46875q-1.203125 0 -1.921875 -0.75q-0.703125 -0.75 -0.703125 -2.09375q0 -1.390625 0.71875 -2.15625q0.71875 -0.78125 1.859375 -0.78125q1.109375 0 1.8125 0.765625q0.703125 0.75 0.703125 2.125q0 0.078125 0 0.234375l-4.125 0q0.046875 0.921875 0.515625 1.40625q0.46875 0.484375 1.15625 0.484375q0.515625 0 0.875 -0.265625q0.359375 -0.28125 0.578125 -0.875zm-3.078125 -1.515625l3.09375 0q-0.0625 -0.6875 -0.359375 -1.046875q-0.453125 -0.53125 -1.15625 -0.53125q-0.640625 0 -1.09375 0.4375q-0.4375 0.421875 -0.484375 1.140625zm6.2390137 3.296875l-1.6875 -5.53125l0.96875 0l0.875 3.1875l0.328125 1.1875q0.03125 -0.078125 0.296875 -1.140625l0.875 -3.234375l0.953125 0l0.828125 3.203125l0.28125 1.0625l0.3125 -1.0625l0.953125 -3.203125l0.90625 0l-1.71875 5.53125l-0.984375 0l-0.875 -3.3125l-0.21875 -0.9375l-1.109375 4.25l-0.984375 0zm10.289337 -0.6875q-0.53125 0.453125 -1.015625 0.640625q-0.46875 0.171875 -1.015625 0.171875q-0.921875 0 -1.40625 -0.4375q-0.484375 -0.453125 -0.484375 -1.140625q0 -0.40625 0.171875 -0.734375q0.1875 -0.34375 0.484375 -0.546875q0.3125 -0.203125 0.6875 -0.3125q0.265625 -0.0625 0.828125 -0.140625q1.125 -0.125 1.671875 -0.3125q0 -0.203125 0 -0.25q0 -0.578125 -0.265625 -0.8125q-0.359375 -0.3125 -1.0625 -0.3125q-0.65625 0 -0.984375 0.234375q-0.3125 0.234375 -0.453125 0.8125l-0.921875 -0.125q0.125 -0.578125 0.40625 -0.9375q0.296875 -0.375 0.828125 -0.5625q0.546875 -0.203125 1.25 -0.203125q0.71875 0 1.15625 0.171875q0.4375 0.171875 0.640625 0.421875q0.21875 0.25 0.296875 0.640625q0.046875 0.234375 0.046875 0.859375l0 1.25q0 1.296875 0.0625 1.65625q0.0625 0.34375 0.234375 0.65625l-0.96875 0q-0.15625 -0.296875 -0.1875 -0.6875zm-0.078125 -2.078125q-0.515625 0.203125 -1.53125 0.34375q-0.578125 0.078125 -0.828125 0.1875q-0.234375 0.109375 -0.359375 0.3125q-0.125 0.1875 -0.125 0.4375q0 0.375 0.28125 0.625q0.28125 0.25 0.828125 0.25q0.53125 0 0.953125 -0.234375q0.421875 -0.234375 0.625 -0.65625q0.15625 -0.3125 0.15625 -0.9375l0 -0.328125zm2.3483887 4.890625l-0.09375 -0.875q0.296875 0.078125 0.53125 0.078125q0.3125 0 0.5 -0.109375q0.1875 -0.09375 0.3125 -0.28125q0.078125 -0.140625 0.28125 -0.703125q0.03125 -0.078125 0.078125 -0.21875l-2.09375 -5.546875l1.015625 0l1.140625 3.203125q0.234375 0.609375 0.40625 1.28125q0.15625 -0.640625 0.375 -1.265625l1.1875 -3.21875l0.9375 0l-2.109375 5.625q-0.328125 0.90625 -0.515625 1.25q-0.25 0.46875 -0.578125 0.6875q-0.3125 0.21875 -0.765625 0.21875q-0.265625 0 -0.609375 -0.125z" fill-rule="nonzero"/><path fill="#000000" fill-opacity="0.0" d="m450.59842 292.83728l58.80316 0l0 13.007874l-58.80316 0z" fill-rule="evenodd"/><path fill="#000000" d="m464.75977 299.19308q0 -1.015625 0.203125 -1.625q0.21875 -0.625 0.625 -0.953125q0.421875 -0.34375 1.046875 -0.34375q0.453125 0 0.796875 0.1875q0.359375 0.1875 0.578125 0.53125q0.234375 0.34375 0.359375 0.859375q0.125 0.5 0.125 1.34375q0 1.015625 -0.203125 1.640625q-0.203125 0.609375 -0.625 0.953125q-0.40625 0.328125 -1.03125 0.328125q-0.828125 0 -1.296875 -0.59375q-0.578125 -0.71875 -0.578125 -2.328125zm0.734375 0q0 1.40625 0.328125 1.875q0.328125 0.46875 0.8125 0.46875q0.484375 0 0.8125 -0.46875q0.328125 -0.46875 0.328125 -1.875q0 -1.40625 -0.328125 -1.875q-0.328125 -0.46875 -0.828125 -0.46875q-0.484375 0 -0.765625 0.40625q-0.359375 0.53125 -0.359375 1.9375zm4.1210938 2.828125l0 -0.796875l0.796875 0l0 0.796875l-0.796875 0zm1.8164062 -2.828125q0 -1.015625 0.203125 -1.625q0.21875 -0.625 0.625 -0.953125q0.421875 -0.34375 1.046875 -0.34375q0.453125 0 0.796875 0.1875q0.359375 0.1875 0.578125 0.53125q0.234375 0.34375 0.359375 0.859375q0.125 0.5 0.125 1.34375q0 1.015625 -0.203125 1.640625q-0.203125 0.609375 -0.625 0.953125q-0.40625 0.328125 -1.03125 0.328125q-0.828125 0 -1.296875 -0.59375q-0.578125 -0.71875 -0.578125 -2.328125zm0.734375 0q0 1.40625 0.328125 1.875q0.328125 0.46875 0.8125 0.46875q0.484375 0 0.8125 -0.46875q0.328125 -0.46875 0.328125 -1.875q0 -1.40625 -0.328125 -1.875q-0.328125 -0.46875 -0.828125 -0.46875q-0.484375 0 -0.765625 0.40625q-0.359375 0.53125 -0.359375 1.9375zm4.1210938 2.828125l0 -0.796875l0.796875 0l0 0.796875l-0.796875 0zm1.8164062 -2.828125q0 -1.015625 0.203125 -1.625q0.21875 -0.625 0.625 -0.953125q0.421875 -0.34375 1.046875 -0.34375q0.453125 0 0.796875 0.1875q0.359375 0.1875 0.578125 0.53125q0.234375 0.34375 0.359375 0.859375q0.125 0.5 0.125 1.34375q0 1.015625 -0.203125 1.640625q-0.203125 0.609375 -0.625 0.953125q-0.40625 0.328125 -1.03125 0.328125q-0.828125 0 -1.296875 -0.59375q-0.578125 -0.71875 -0.578125 -2.328125zm0.734375 0q0 1.40625 0.328125 1.875q0.328125 0.46875 0.8125 0.46875q0.484375 0 0.8125 -0.46875q0.328125 -0.46875 0.328125 -1.875q0 -1.40625 -0.328125 -1.875q-0.328125 -0.46875 -0.828125 -0.46875q-0.484375 0 -0.765625 0.40625q-0.359375 0.53125 -0.359375 1.9375zm4.1210938 2.828125l0 -0.796875l0.796875 0l0 0.796875l-0.796875 0zm1.8164062 -2.828125q0 -1.015625 0.203125 -1.625q0.21875 -0.625 0.625 -0.953125q0.421875 -0.34375 1.046875 -0.34375q0.453125 0 0.796875 0.1875q0.359375 0.1875 0.578125 0.53125q0.234375 0.34375 0.359375 0.859375q0.125 0.5 0.125 1.34375q0 1.015625 -0.203125 1.640625q-0.203125 0.609375 -0.625 0.953125q-0.40625 0.328125 -1.03125 0.328125q-0.828125 0 -1.296875 -0.59375q-0.578125 -0.71875 -0.578125 -2.328125zm0.734375 0q0 1.40625 0.328125 1.875q0.328125 0.46875 0.8125 0.46875q0.484375 0 0.8125 -0.46875q0.328125 -0.46875 0.328125 -1.875q0 -1.40625 -0.328125 -1.875q-0.328125 -0.46875 -0.828125 -0.46875q-0.484375 0 -0.765625 0.40625q-0.359375 0.53125 -0.359375 1.9375zm3.3867188 2.921875l1.65625 -5.921875l0.5625 0l-1.65625 5.921875l-0.5625 0zm2.5507812 -2.921875q0 -1.015625 0.203125 -1.625q0.21875 -0.625 0.625 -0.953125q0.421875 -0.34375 1.046875 -0.34375q0.453125 0 0.796875 0.1875q0.359375 0.1875 0.578125 0.53125q0.234375 0.34375 0.359375 0.859375q0.125 0.5 0.125 1.34375q0 1.015625 -0.203125 1.640625q-0.203125 0.609375 -0.625 0.953125q-0.40625 0.328125 -1.03125 0.328125q-0.828125 0 -1.296875 -0.59375q-0.578125 -0.71875 -0.578125 -2.328125zm0.734375 0q0 1.40625 0.328125 1.875q0.328125 0.46875 0.8125 0.46875q0.484375 0 0.8125 -0.46875q0.328125 -0.46875 0.328125 -1.875q0 -1.40625 -0.328125 -1.875q-0.328125 -0.46875 -0.828125 -0.46875q-0.484375 0 -0.765625 0.40625q-0.359375 0.53125 -0.359375 1.9375z" fill-rule="nonzero"/><path fill="#f3f3f3" d="m340.32797 252.44095l0 0c0 -15.063904 51.52603 -27.275589 115.08661 -27.275589l0 0c63.560577 0 115.08664 12.211685 115.08664 27.275589l0 0c0 15.063904 -51.526062 27.275574 -115.08664 27.275574l0 0c-63.560577 0 -115.08661 -12.21167 -115.08661 -27.275574z" fill-rule="evenodd"/><path stroke="#000000" stroke-width="1.0" stroke-linejoin="round" stroke-linecap="butt" d="m340.32797 252.44095l0 0c0 -15.063904 51.52603 -27.275589 115.08661 -27.275589l0 0c63.560577 0 115.08664 12.211685 115.08664 27.275589l0 0c0 15.063904 -51.526062 27.275574 -115.08664 27.275574l0 0c-63.560577 0 -115.08661 -12.21167 -115.08661 -27.275574z" fill-rule="evenodd"/><path fill="#000000" d="m390.78174 259.36093l0 -13.35936l1.765625 0l0 13.35936l-1.765625 0zm4.6832886 0l0 -9.67186l1.46875 0l0 1.375q1.0625 -1.59375 3.078125 -1.59375q0.875 0 1.609375 0.3125q0.734375 0.3125 1.09375 0.828125q0.375 0.5 0.515625 1.203125q0.09375 0.453125 0.09375 1.59375l0 5.9531097l-1.640625 0l0 -5.8906097q0 -1.0 -0.203125 -1.484375q-0.1875 -0.5 -0.671875 -0.796875q-0.484375 -0.296875 -1.140625 -0.296875q-1.046875 0 -1.8125 0.671875q-0.75 0.65625 -0.75 2.515625l0 5.2812347l-1.640625 0zm13.953857 -1.46875l0.234375 1.453125q-0.6875 0.140625 -1.234375 0.140625q-0.890625 0 -1.390625 -0.28125q-0.484375 -0.28125 -0.6875 -0.734375q-0.203125 -0.46875 -0.203125 -1.9375l0 -5.5781097l-1.203125 0l0 -1.265625l1.203125 0l0 -2.390625l1.625 -0.984375l0 3.375l1.65625 0l0 1.265625l-1.65625 0l0 5.6718597q0 0.6875 0.078125 0.890625q0.09375 0.203125 0.28125 0.328125q0.203125 0.109375 0.578125 0.109375q0.265625 0 0.71875 -0.0625zm8.230164 -1.640625l1.6875 0.203125q-0.40625 1.484375 -1.484375 2.3125q-1.078125 0.8125 -2.765625 0.8125q-2.125 0 -3.375 -1.296875q-1.234375 -1.3125 -1.234375 -3.6718597q0 -2.453125 1.25 -3.796875q1.265625 -1.34375 3.265625 -1.34375q1.9375 0 3.15625 1.328125q1.234375 1.3125 1.234375 3.703125q0 0.15625 0 0.4375l-7.21875 0q0.09375 1.5937347 0.90625 2.4531097q0.8125 0.84375 2.015625 0.84375q0.90625 0 1.546875 -0.46875q0.640625 -0.484375 1.015625 -1.515625zm-5.390625 -2.6562347l5.40625 0q-0.109375 -1.21875 -0.625 -1.828125q-0.78125 -0.953125 -2.03125 -0.953125q-1.125 0 -1.90625 0.765625q-0.765625 0.75 -0.84375 2.015625zm9.125732 5.7656097l0 -9.67186l1.46875 0l0 1.46875q0.5625 -1.03125 1.03125 -1.359375q0.484375 -0.328125 1.0625 -0.328125q0.828125 0 1.6875 0.53125l-0.5625 1.515625q-0.609375 -0.359375 -1.203125 -0.359375q-0.546875 0 -0.96875 0.328125q-0.421875 0.328125 -0.609375 0.890625q-0.28125 0.875 -0.28125 1.921875l0 5.0624847l-1.625 0zm6.228302 0l0 -9.67186l1.46875 0l0 1.375q1.0625 -1.59375 3.078125 -1.59375q0.875 0 1.609375 0.3125q0.734375 0.3125 1.09375 0.828125q0.375 0.5 0.515625 1.203125q0.09375 0.453125 0.09375 1.59375l0 5.9531097l-1.640625 0l0 -5.8906097q0 -1.0 -0.203125 -1.484375q-0.1875 -0.5 -0.671875 -0.796875q-0.484375 -0.296875 -1.140625 -0.296875q-1.046875 0 -1.8125 0.671875q-0.75 0.65625 -0.75 2.515625l0 5.2812347l-1.640625 0zm16.688202 -1.1875q-0.921875 0.765625 -1.765625 1.09375q-0.828125 0.3125 -1.796875 0.3125q-1.59375 0 -2.453125 -0.78125q-0.859375 -0.78125 -0.859375 -1.984375q0 -0.71875 0.328125 -1.2968597q0.328125 -0.59375 0.84375 -0.9375q0.53125 -0.359375 1.1875 -0.546875q0.46875 -0.125 1.453125 -0.25q1.984375 -0.234375 2.921875 -0.5625q0.015625 -0.34375 0.015625 -0.421875q0 -1.0 -0.46875 -1.421875q-0.625 -0.546875 -1.875 -0.546875q-1.15625 0 -1.703125 0.40625q-0.546875 0.40625 -0.8125 1.421875l-1.609375 -0.21875q0.21875 -1.015625 0.71875 -1.640625q0.5 -0.640625 1.453125 -0.984375q0.953125 -0.34375 2.1875 -0.34375q1.25 0 2.015625 0.296875q0.78125 0.28125 1.140625 0.734375q0.375 0.4375 0.515625 1.109375q0.078125 0.421875 0.078125 1.515625l0 2.1875q0 2.2812347 0.109375 2.8906097q0.109375 0.59375 0.40625 1.15625l-1.703125 0q-0.265625 -0.515625 -0.328125 -1.1875zm-0.140625 -3.6718597q-0.890625 0.375 -2.671875 0.625q-1.015625 0.140625 -1.4375 0.328125q-0.421875 0.1875 -0.65625 0.53125q-0.21875 0.34373474 -0.21875 0.78123474q0 0.65625 0.5 1.09375q0.5 0.4375 1.453125 0.4375q0.9375 0 1.671875 -0.40625q0.75 -0.421875 1.09375 -1.140625q0.265625 -0.5625 0.265625 -1.6406097l0 -0.609375zm4.1569824 4.8593597l0 -13.35936l1.640625 0l0 13.35936l-1.640625 0zm9.375 0l0 -9.67186l1.46875 0l0 1.375q1.0625 -1.59375 3.078125 -1.59375q0.875 0 1.609375 0.3125q0.734375 0.3125 1.09375 0.828125q0.375 0.5 0.515625 1.203125q0.09375 0.453125 0.09375 1.59375l0 5.9531097l-1.640625 0l0 -5.8906097q0 -1.0 -0.203125 -1.484375q-0.1875 -0.5 -0.671875 -0.796875q-0.484375 -0.296875 -1.140625 -0.296875q-1.046875 0 -1.8125 0.671875q-0.75 0.65625 -0.75 2.515625l0 5.2812347l-1.640625 0zm17.000702 -3.109375l1.6875 0.203125q-0.40625 1.484375 -1.484375 2.3125q-1.078125 0.8125 -2.765625 0.8125q-2.125 0 -3.375 -1.296875q-1.234375 -1.3125 -1.234375 -3.6718597q0 -2.453125 1.25 -3.796875q1.265625 -1.34375 3.265625 -1.34375q1.9375 0 3.15625 1.328125q1.234375 1.3125 1.234375 3.703125q0 0.15625 0 0.4375l-7.21875 0q0.09375 1.5937347 0.90625 2.4531097q0.8125 0.84375 2.015625 0.84375q0.90625 0 1.546875 -0.46875q0.640625 -0.484375 1.015625 -1.515625zm-5.390625 -2.6562347l5.40625 0q-0.109375 -1.21875 -0.625 -1.828125q-0.78125 -0.953125 -2.03125 -0.953125q-1.125 0 -1.90625 0.765625q-0.765625 0.75 -0.84375 2.015625zm12.719482 4.2968597l0.234375 1.453125q-0.6875 0.140625 -1.234375 0.140625q-0.890625 0 -1.390625 -0.28125q-0.484375 -0.28125 -0.6875 -0.734375q-0.203125 -0.46875 -0.203125 -1.9375l0 -5.5781097l-1.203125 0l0 -1.265625l1.203125 0l0 -2.390625l1.625 -0.984375l0 3.375l1.65625 0l0 1.265625l-1.65625 0l0 5.6718597q0 0.6875 0.078125 0.890625q0.09375 0.203125 0.28125 0.328125q0.203125 0.109375 0.578125 0.109375q0.265625 0 0.71875 -0.0625zm3.3864136 1.46875l-2.96875 -9.67186l1.703125 0l1.53125 5.578125l0.578125 2.0781097q0.046875 -0.15625 0.5 -1.9999847l1.546875 -5.65625l1.6875 0l1.4375 5.609375l0.484375 1.8437347l0.5625 -1.8593597l1.65625 -5.59375l1.59375 0l-3.03125 9.67186l-1.703125 0l-1.53125 -5.7968597l-0.375 -1.640625l-1.953125 7.4374847l-1.71875 0zm11.082336 -4.8437347q0 -2.6875 1.484375 -3.96875q1.25 -1.078125 3.046875 -1.078125q2.0 0 3.265625 1.3125q1.265625 1.296875 1.265625 3.609375q0 1.8593597 -0.5625 2.9374847q-0.5625 1.0625 -1.640625 1.65625q-1.0625 0.59375 -2.328125 0.59375q-2.03125 0 -3.28125 -1.296875q-1.25 -1.3125 -1.25 -3.7656097zm1.6875 0q0 1.8593597 0.796875 2.7968597q0.8125 0.921875 2.046875 0.921875q1.21875 0 2.03125 -0.921875q0.8125 -0.9375 0.8125 -2.8437347q0 -1.796875 -0.8125 -2.71875q-0.8125 -0.921875 -2.03125 -0.921875q-1.234375 0 -2.046875 0.921875q-0.796875 0.90625 -0.796875 2.765625zm9.281952 4.8437347l0 -9.67186l1.46875 0l0 1.46875q0.5625 -1.03125 1.03125 -1.359375q0.484375 -0.328125 1.0625 -0.328125q0.828125 0 1.6875 0.53125l-0.5625 1.515625q-0.609375 -0.359375 -1.203125 -0.359375q-0.546875 0 -0.96875 0.328125q-0.421875 0.328125 -0.609375 0.890625q-0.28125 0.875 -0.28125 1.921875l0 5.0624847l-1.625 0zm6.2282715 0l0 -13.35936l1.640625 0l0 7.625l3.890625 -3.9375l2.109375 0l-3.6875 3.59375l4.0625 6.0781097l-2.015625 0l-3.203125 -4.9531097l-1.15625 1.125l0 3.8281097l-1.640625 0z" fill-rule="nonzero"/></g></svg>