<svg xmlns="http://www.w3.org/2000/svg" xmlns:xlink="http://www.w3.org/1999/xlink" version="1.1" viewBox="0 0 1713 1993" style="background: #ffffff"><defs joint-selector="defs"></defs><g joint-selector="layers"  transform="matrix(1,0,0,1,0,0)"><g ></g><g ><!--z-index:1--><!--z-index:2--><!--z-index:3--><!--z-index:4--><!--z-index:5--><!--z-index:6--><!--z-index:7--><!--z-index:8--><!--z-index:9--><!--z-index:10--><!--z-index:11--><!--z-index:12--><!--z-index:13--><!--z-index:14--><!--z-index:15--><!--z-index:16--><!--z-index:17--><!--z-index:18--><!--z-index:19--><!--z-index:20--><!--z-index:21--><!--z-index:22--><!--z-index:23--><!--z-index:24--><!--z-index:25--><!--z-index:26--><!--z-index:27--><!--z-index:28--><!--z-index:29--><!--z-index:30--><!--z-index:31--><!--z-index:32--><!--z-index:33--><!--z-index:34--><!--z-index:35--><!--z-index:36--><!--z-index:37--><!--z-index:38--><!--z-index:39--><!--z-index:40--><!--z-index:41--><!--z-index:42--><!--z-index:43--><!--z-index:44--><!--z-index:45--><!--z-index:46--><!--z-index:47--><!--z-index:48--><!--z-index:49--><!--z-index:50--><!--z-index:51--><!--z-index:52--><!--z-index:53--><!--z-index:54--><!--z-index:55--><!--z-index:56--><!--z-index:57--><!--z-index:58--><!--z-index:59--><!--z-index:60--><!--z-index:61--><!--z-index:62--><!--z-index:63--><!--z-index:64--><!--z-index:65--><!--z-index:66--><!--z-index:67--><!--z-index:68--><!--z-index:69--><!--z-index:70--><!--z-index:71--><!--z-index:72--><!--z-index:73--><!--z-index:74--><!--z-index:75--><!--z-index:76--><!--z-index:77--><!--z-index:78--><!--z-index:79--><g   id="j_2"  transform="translate(20,1949)"><g id="v-5"><text  id="v-6" font-size="24px" xml:space="preserve" y="0.8em" font-weight="normal" text-anchor="start" fill="#444444" pointer-events="none" display="block" font-family="Open Sans, Tahoma, Arial"><tspan dy="0"  display="none">вторник, 16 июня 2026 г. в 14:14 Восточная Европа, стандартное время</tspan></text></g></g><!--z-index:80--><g   id="j_1"  transform="translate(20,1903)"><g id="v-3"><text  id="v-4" font-size="36px" xml:space="preserve" y="0.8em" font-weight="normal" text-anchor="start" fill="#444444" pointer-events="none" display="block" font-family="Open Sans, Tahoma, Arial"><tspan dy="0"  display="none">Container View: Deckhouse Kubernetes Platform</tspan></text></g></g><!--z-index:81--><g   id="j_5"  transform="translate(50,9)" style=""><g id="v-19"><rect  id="v-20" width="1580" height="1893" rx="20" ry="20" stroke-width="1" pointer-events="none" stroke="#004df2" fill="#ffffff" stroke-dasharray=""></rect><text  id="v-21" font-size="33.599999999999994px" xml:space="preserve" y="1854" font-weight="bold" text-anchor="start" pointer-events="visible" font-family="Open Sans, Tahoma, Arial" fill="#003ab5" transform="matrix(1,0,0,1,15,0)"><tspan dy="0" >Deckhouse Kubernetes Platform</tspan></text><text  id="v-22" font-size="16.799999999999997px" xml:space="preserve" y="1878" font-weight="normal" text-anchor="start" pointer-events="visible" font-family="Open Sans, Tahoma, Arial" fill="#003ab5" transform="matrix(1,0,0,1,15,0)"><tspan dy="0" >[Software System]</tspan></text><image  id="v-23" pointer-events="visible"></image></g></g><!--z-index:82--><g   id="j_4"  transform="translate(1040,29)" style=""><g id="v-14"><rect  id="v-15" width="570" height="1608" rx="20" ry="20" stroke-width="1" pointer-events="none" stroke="#325ebd" fill="#f6f9ff" stroke-dasharray="1,2"></rect><text  id="v-16" font-size="33.599999999999994px" xml:space="preserve" y="1593" font-weight="bold" text-anchor="start" pointer-events="visible" font-family="Open Sans, Tahoma, Arial" fill="#325ebd" transform="matrix(1,0,0,1,15,0)"><tspan dy="0" >Kubernetes &amp; Scheduling subsystem</tspan></text><text  id="v-17" font-size="16.799999999999997px" xml:space="preserve" display="none" y="1593" font-weight="normal" text-anchor="start" pointer-events="visible" font-family="Open Sans, Tahoma, Arial" fill="#325ebd" transform="matrix(1,0,0,1,15,0)"><tspan dy="0" style="fill-opacity: 0; stroke-opacity: 0;" >-</tspan></text><image  id="v-18" pointer-events="visible"></image></g></g><!--z-index:83--><g   id="j_11"  transform="translate(70,29)" style=""><g id="v-55"><rect  id="v-56" width="570" height="1774" rx="20" ry="20" stroke-width="1" pointer-events="none" stroke="#325ebd" fill="#f6f9ff" stroke-dasharray="1,2"></rect><text  id="v-57" font-size="33.599999999999994px" xml:space="preserve" y="1759" font-weight="bold" text-anchor="start" pointer-events="visible" font-family="Open Sans, Tahoma, Arial" fill="#325ebd" transform="matrix(1,0,0,1,15,0)"><tspan dy="0" >Virtualization subsystem</tspan></text><text  id="v-58" font-size="16.799999999999997px" xml:space="preserve" display="none" y="1759" font-weight="normal" text-anchor="start" pointer-events="visible" font-family="Open Sans, Tahoma, Arial" fill="#325ebd" transform="matrix(1,0,0,1,15,0)"><tspan dy="0" style="fill-opacity: 0; stroke-opacity: 0;" >-</tspan></text><image  id="v-59" pointer-events="visible"></image></g></g><!--z-index:84--><g   id="j_3"  transform="translate(1100,1254)" style=""><g  id="v-7" style="opacity: 1;"><rect  id="v-8" rx="20" ry="20" stroke-width="1" pointer-events="visiblePainted" fill="#efecff" stroke="#3f2cb4" stroke-dasharray="" width="450" height="300"></rect><text  id="v-9" font-size="33.599999999999994px" xml:space="preserve" y="101.30000000000001" font-weight="bold" text-anchor="middle" pointer-events="visible" font-family="Open Sans, Tahoma, Arial" fill="#3f2cb4" dominant-baseline="hanging" transform="matrix(1,0,0,1,225,0)"><tspan dy="0" >containerd</tspan></text><text  id="v-10" font-size="16.799999999999997px" xml:space="preserve" y="142.9" text-anchor="middle" font-family="Open Sans, Tahoma, Arial" fill="#3f2cb4" dominant-baseline="hanging" transform="matrix(1,0,0,1,225,0)" style="display: block;"><tspan dy="0" >[Container]</tspan></text><text  id="v-11" font-size="24px" xml:space="preserve" y="174.7" text-anchor="middle" font-family="Open Sans, Tahoma, Arial" fill="#3f2cb4" dominant-baseline="hanging" transform="matrix(1,0,0,1,225,0)" style="display: block;"><tspan dy="0" >Service</tspan></text><g  id="v-12" color="#3f2cb4" transform="matrix(1,0,0,1,222.5,268)" display="none"><g ></g><g ></g><g ></g><g ></g></g><image  id="v-13"></image></g></g><!--z-index:85--><g   id="j_6"  transform="translate(1100,671)" style=""><g  id="v-24" style="opacity: 1;"><rect  id="v-25" rx="20" ry="20" stroke-width="1" pointer-events="visiblePainted" fill="#efecff" stroke="#3f2cb4" stroke-dasharray="" width="450" height="300"></rect><text  id="v-26" font-size="33.599999999999994px" xml:space="preserve" y="101.30000000000001" font-weight="bold" text-anchor="middle" pointer-events="visible" font-family="Open Sans, Tahoma, Arial" fill="#3f2cb4" dominant-baseline="hanging" transform="matrix(1,0,0,1,225,0)"><tspan dy="0" >kubelet</tspan></text><text  id="v-27" font-size="16.799999999999997px" xml:space="preserve" y="142.9" text-anchor="middle" font-family="Open Sans, Tahoma, Arial" fill="#3f2cb4" dominant-baseline="hanging" transform="matrix(1,0,0,1,225,0)" style="display: block;"><tspan dy="0" >[Container]</tspan></text><text  id="v-28" font-size="24px" xml:space="preserve" y="174.7" text-anchor="middle" font-family="Open Sans, Tahoma, Arial" fill="#3f2cb4" dominant-baseline="hanging" transform="matrix(1,0,0,1,225,0)" style="display: block;"><tspan dy="0" >Service</tspan></text><g  id="v-29" color="#3f2cb4" transform="matrix(1,0,0,1,222.5,268)" display="none"><g ></g><g ></g><g ></g><g ></g></g><image  id="v-30"></image></g></g><!--z-index:86--><g   id="j_8"  transform="translate(1060,49)" style=""><g id="v-38"><rect  id="v-39" width="530" height="506" rx="20" ry="20" stroke-width="1" pointer-events="none" stroke="#325ebd" fill="#d8e4ff" stroke-dasharray="1,2"></rect><text  id="v-40" font-size="33.599999999999994px" xml:space="preserve" y="491" font-weight="bold" text-anchor="start" pointer-events="visible" font-family="Open Sans, Tahoma, Arial" fill="#325ebd" transform="matrix(1,0,0,1,15,0)"><tspan dy="0" >Kubernetes cluster's control plane</tspan></text><text  id="v-41" font-size="16.799999999999997px" xml:space="preserve" display="none" y="491" font-weight="normal" text-anchor="start" pointer-events="visible" font-family="Open Sans, Tahoma, Arial" fill="#325ebd" transform="matrix(1,0,0,1,15,0)"><tspan dy="0" style="fill-opacity: 0; stroke-opacity: 0;" >-</tspan></text><image  id="v-42" pointer-events="visible"></image></g></g><!--z-index:87--><g   id="j_12"  transform="translate(90,49)" style=""><g id="v-60"><rect  id="v-61" width="530" height="1671" rx="20" ry="20" stroke-width="1" pointer-events="none" stroke="#325ebd" fill="#d8e4ff" stroke-dasharray="1,2"></rect><text  id="v-62" font-size="33.599999999999994px" xml:space="preserve" y="1656" font-weight="bold" text-anchor="start" pointer-events="visible" font-family="Open Sans, Tahoma, Arial" fill="#325ebd" transform="matrix(1,0,0,1,15,0)"><tspan dy="0" >virtualization module</tspan></text><text  id="v-63" font-size="16.799999999999997px" xml:space="preserve" display="none" y="1656" font-weight="normal" text-anchor="start" pointer-events="visible" font-family="Open Sans, Tahoma, Arial" fill="#325ebd" transform="matrix(1,0,0,1,15,0)"><tspan dy="0" style="fill-opacity: 0; stroke-opacity: 0;" >-</tspan></text><image  id="v-64" pointer-events="visible"></image></g></g><!--z-index:88--><g   id="j_9"  transform="translate(1080,69)" style=""><g id="v-43"><rect  id="v-44" width="490" height="403" rx="20" ry="20" stroke-width="1" pointer-events="none" stroke="#000000" fill="#ffffff" stroke-dasharray="1,2"></rect><text  id="v-45" font-size="33.599999999999994px" xml:space="preserve" y="388" font-weight="bold" text-anchor="start" pointer-events="visible" font-family="Open Sans, Tahoma, Arial" fill="#000000" transform="matrix(1,0,0,1,15,0)"><tspan dy="0" >kube-apiserver [pod]</tspan></text><text  id="v-46" font-size="16.799999999999997px" xml:space="preserve" display="none" y="388" font-weight="normal" text-anchor="start" pointer-events="visible" font-family="Open Sans, Tahoma, Arial" fill="#000000" transform="matrix(1,0,0,1,15,0)"><tspan dy="0" style="fill-opacity: 0; stroke-opacity: 0;" >-</tspan></text><image  id="v-47" pointer-events="visible"></image></g></g><!--z-index:89--><g   id="j_13"  transform="translate(110,489)" style=""><g id="v-65"><rect  id="v-66" width="490" height="403" rx="20" ry="20" stroke-width="1" pointer-events="none" stroke="#000000" fill="#ffffff" stroke-dasharray="1,2"></rect><text  id="v-67" font-size="33.599999999999994px" xml:space="preserve" y="388" font-weight="bold" text-anchor="start" pointer-events="visible" font-family="Open Sans, Tahoma, Arial" fill="#000000" transform="matrix(1,0,0,1,15,0)"><tspan dy="0" >pre-delete-hook [job]</tspan></text><text  id="v-68" font-size="16.799999999999997px" xml:space="preserve" display="none" y="388" font-weight="normal" text-anchor="start" pointer-events="visible" font-family="Open Sans, Tahoma, Arial" fill="#000000" transform="matrix(1,0,0,1,15,0)"><tspan dy="0" style="fill-opacity: 0; stroke-opacity: 0;" >-</tspan></text><image  id="v-69" pointer-events="visible"></image></g></g><!--z-index:90--><g   id="j_15"  transform="translate(110,910)" style=""><g id="v-80"><rect  id="v-81" width="490" height="727" rx="20" ry="20" stroke-width="1" pointer-events="none" stroke="#000000" fill="#ffffff" stroke-dasharray="1,2"></rect><text  id="v-82" font-size="33.599999999999994px" xml:space="preserve" y="712" font-weight="bold" text-anchor="start" pointer-events="visible" font-family="Open Sans, Tahoma, Arial" fill="#000000" transform="matrix(1,0,0,1,15,0)"><tspan dy="0" >virtualization-dra [pod]</tspan></text><text  id="v-83" font-size="16.799999999999997px" xml:space="preserve" display="none" y="712" font-weight="normal" text-anchor="start" pointer-events="visible" font-family="Open Sans, Tahoma, Arial" fill="#000000" transform="matrix(1,0,0,1,15,0)"><tspan dy="0" style="fill-opacity: 0; stroke-opacity: 0;" >-</tspan></text><image  id="v-84" pointer-events="visible"></image></g></g><!--z-index:91--><g   id="j_18"  transform="translate(110,69)" style=""><g id="v-102"><rect  id="v-103" width="490" height="403" rx="20" ry="20" stroke-width="1" pointer-events="none" stroke="#000000" fill="#ffffff" stroke-dasharray="1,2"></rect><text  id="v-104" font-size="33.599999999999994px" xml:space="preserve" y="388" font-weight="bold" text-anchor="start" pointer-events="visible" font-family="Open Sans, Tahoma, Arial" fill="#000000" transform="matrix(1,0,0,1,15,0)"><tspan dy="0" >vm-route-forge [pod]</tspan></text><text  id="v-105" font-size="16.799999999999997px" xml:space="preserve" display="none" y="388" font-weight="normal" text-anchor="start" pointer-events="visible" font-family="Open Sans, Tahoma, Arial" fill="#000000" transform="matrix(1,0,0,1,15,0)"><tspan dy="0" style="fill-opacity: 0; stroke-opacity: 0;" >-</tspan></text><image  id="v-106" pointer-events="visible"></image></g></g><!--z-index:92--><g   id="j_7"  transform="translate(1100,89)" style=""><g  id="v-31" style="opacity: 1;"><rect  id="v-32" rx="20" ry="20" stroke-width="2" pointer-events="visiblePainted" fill="#e3ebff" stroke="#485d8e" stroke-dasharray="" width="450" height="300"></rect><text  id="v-33" font-size="33.599999999999994px" xml:space="preserve" y="120.80000000000001" font-weight="bold" text-anchor="middle" pointer-events="visible" font-family="Open Sans, Tahoma, Arial" fill="#000000" dominant-baseline="hanging" transform="matrix(1,0,0,1,225,0)"><tspan dy="0" >kube-apiserver</tspan></text><text  id="v-34" font-size="16.799999999999997px" xml:space="preserve" y="162.4" text-anchor="middle" font-family="Open Sans, Tahoma, Arial" fill="#000000" dominant-baseline="hanging" transform="matrix(1,0,0,1,225,0)" style="display: block;"><tspan dy="0" >[Container]</tspan></text><text  id="v-35" font-size="24px" xml:space="preserve" display="none" y="120.80000000000001" text-anchor="middle" font-family="Open Sans, Tahoma, Arial" fill="#000000" dominant-baseline="hanging" transform="matrix(1,0,0,1,225,0)" style="display: block;"><tspan dy="0"  style="fill-opacity: 0; stroke-opacity: 0;">-</tspan></text><g  id="v-36" color="#000000" transform="matrix(1,0,0,1,222.5,268)" display="none"><g ></g><g ></g><g ></g><g ></g></g><image  id="v-37"></image></g></g><!--z-index:93--><g   id="j_10"  transform="translate(130,509)" style=""><g  id="v-48" style="opacity: 1;"><rect  id="v-49" rx="20" ry="20" stroke-width="2" pointer-events="visiblePainted" fill="#e3ebff" stroke="#485d8e" stroke-dasharray="" width="450" height="300"></rect><text  id="v-50" font-size="33.599999999999994px" xml:space="preserve" y="120.80000000000001" font-weight="bold" text-anchor="middle" pointer-events="visible" font-family="Open Sans, Tahoma, Arial" fill="#000000" dominant-baseline="hanging" transform="matrix(1,0,0,1,225,0)"><tspan dy="0" >pre-delete-hook</tspan></text><text  id="v-51" font-size="16.799999999999997px" xml:space="preserve" y="162.4" text-anchor="middle" font-family="Open Sans, Tahoma, Arial" fill="#000000" dominant-baseline="hanging" transform="matrix(1,0,0,1,225,0)" style="display: block;"><tspan dy="0" >[Container]</tspan></text><text  id="v-52" font-size="24px" xml:space="preserve" display="none" y="120.80000000000001" text-anchor="middle" font-family="Open Sans, Tahoma, Arial" fill="#000000" dominant-baseline="hanging" transform="matrix(1,0,0,1,225,0)" style="display: block;"><tspan dy="0"  style="fill-opacity: 0; stroke-opacity: 0;">-</tspan></text><g  id="v-53" color="#000000" transform="matrix(1,0,0,1,222.5,268)" display="none"><g ></g><g ></g><g ></g><g ></g></g><image  id="v-54"></image></g></g><!--z-index:94--><g   id="j_14"  transform="translate(130,1254)" style=""><g  id="v-73" style="opacity: 1;"><rect  id="v-74" rx="20" ry="20" stroke-width="2" pointer-events="visiblePainted" fill="#e3ebff" stroke="#485d8e" stroke-dasharray="" width="450" height="300"></rect><text  id="v-75" font-size="33.599999999999994px" xml:space="preserve" y="100.64000000000001" font-weight="bold" text-anchor="middle" pointer-events="visible" font-family="Open Sans, Tahoma, Arial" fill="#000000" dominant-baseline="hanging" transform="matrix(1,0,0,1,225,0)"><tspan dy="0" >init-load</tspan><tspan dy="1.2em" x="0" >(virtualization-dra)</tspan></text><text  id="v-76" font-size="16.799999999999997px" xml:space="preserve" y="182.56" text-anchor="middle" font-family="Open Sans, Tahoma, Arial" fill="#000000" dominant-baseline="hanging" transform="matrix(1,0,0,1,225,0)" style="display: block;"><tspan dy="0" >[Container]</tspan></text><text  id="v-77" font-size="24px" xml:space="preserve" display="none" y="100.64000000000001" text-anchor="middle" font-family="Open Sans, Tahoma, Arial" fill="#000000" dominant-baseline="hanging" transform="matrix(1,0,0,1,225,0)" style="display: block;"><tspan dy="0"  style="fill-opacity: 0; stroke-opacity: 0;">-</tspan></text><g  id="v-78" color="#000000" transform="matrix(1,0,0,1,222.5,268)" display="none"><g ></g><g ></g><g ></g><g ></g></g><image  id="v-79"></image></g></g><!--z-index:95--><g   id="j_16"  transform="translate(130,930)" style=""><g  id="v-88" style="opacity: 1;"><rect  id="v-89" rx="20" ry="20" stroke-width="2" pointer-events="visiblePainted" fill="#e3ebff" stroke="#485d8e" stroke-dasharray="" width="450" height="300"></rect><text  id="v-90" font-size="33.599999999999994px" xml:space="preserve" y="120.80000000000001" font-weight="bold" text-anchor="middle" pointer-events="visible" font-family="Open Sans, Tahoma, Arial" fill="#000000" dominant-baseline="hanging" transform="matrix(1,0,0,1,225,0)"><tspan dy="0" >virtualization-dra</tspan></text><text  id="v-91" font-size="16.799999999999997px" xml:space="preserve" y="162.4" text-anchor="middle" font-family="Open Sans, Tahoma, Arial" fill="#000000" dominant-baseline="hanging" transform="matrix(1,0,0,1,225,0)" style="display: block;"><tspan dy="0" >[Container]</tspan></text><text  id="v-92" font-size="24px" xml:space="preserve" display="none" y="120.80000000000001" text-anchor="middle" font-family="Open Sans, Tahoma, Arial" fill="#000000" dominant-baseline="hanging" transform="matrix(1,0,0,1,225,0)" style="display: block;"><tspan dy="0"  style="fill-opacity: 0; stroke-opacity: 0;">-</tspan></text><g  id="v-93" color="#000000" transform="matrix(1,0,0,1,222.5,268)" display="none"><g ></g><g ></g><g ></g><g ></g></g><image  id="v-94"></image></g></g><!--z-index:96--><g   id="j_17"  transform="translate(130,89)" style=""><g  id="v-95" style="opacity: 1;"><rect  id="v-96" rx="20" ry="20" stroke-width="2" pointer-events="visiblePainted" fill="#e3ebff" stroke="#485d8e" stroke-dasharray="" width="450" height="300"></rect><text  id="v-97" font-size="33.599999999999994px" xml:space="preserve" y="120.80000000000001" font-weight="bold" text-anchor="middle" pointer-events="visible" font-family="Open Sans, Tahoma, Arial" fill="#000000" dominant-baseline="hanging" transform="matrix(1,0,0,1,225,0)"><tspan dy="0" >vm-route-forge</tspan></text><text  id="v-98" font-size="16.799999999999997px" xml:space="preserve" y="162.4" text-anchor="middle" font-family="Open Sans, Tahoma, Arial" fill="#000000" dominant-baseline="hanging" transform="matrix(1,0,0,1,225,0)" style="display: block;"><tspan dy="0" >[Container]</tspan></text><text  id="v-99" font-size="24px" xml:space="preserve" display="none" y="120.80000000000001" text-anchor="middle" font-family="Open Sans, Tahoma, Arial" fill="#000000" dominant-baseline="hanging" transform="matrix(1,0,0,1,225,0)" style="display: block;"><tspan dy="0"  style="fill-opacity: 0; stroke-opacity: 0;">-</tspan></text><g  id="v-100" color="#000000" transform="matrix(1,0,0,1,222.5,268)" display="none"><g ></g><g ></g><g ></g><g ></g></g><image  id="v-101"></image></g></g><!--z-index:97--><g   id="j_19" ><path  stroke="#000000" d="M 580 954 L 786 839 C 792 835.6666666666666 798.3333333333333 834 805 834 L 1100 827" id="v-120" stroke-width="1" stroke-dasharray="" fill="none" style="opacity: 1;"></path><path  fill="black" stroke="black" d="M 0 0 0 0" transform="matrix(0.8728520647547824,-0.4879849106819935,0.4879849106819935,0.8728520647547824,580,954.2000122070312)"></path><path  fill="#000000" stroke="#000000" d="M 10 0 L 0 5 L 10 10 z" id="v-122" transform="matrix(-0.9996994066242515,0.024517267284903606,-0.024517267284903606,-0.9996994066242515,1100.1225482132959,831.5184888216968)" style="opacity: 1;"></path><path  d="M 580 954 L 786 839 C 792 835.6666666666666 798.3333333333333 834 805 834 L 1100 827" id="v-121" fill="none" style="cursor: default;"></path><g ><g id="v-114"  label-idx="0" cursor="move" transform="matrix(1,0,0,1,824.6424560546875,833.533935546875)" style="cursor: default; opacity: 1;"><rect joint-selector="rect" id="v-117" fill="#ffffff" rx="3" ry="3" pointer-events="none" width="152.646240234375" height="119.62911224365234" transform="matrix(1,0,0,1,-76.3,-59.8)"></rect><text joint-selector="text" id="v-116" font-size="24px" xml:space="preserve" y="0.8em" fill="#000000" text-anchor="middle" pointer-events="none" font-family="Open Sans, Tahoma, Arial" font-weight="normal" transform="matrix(1,0,0,1,0,-52.4)"><tspan dy="0" >Registers as a</tspan><tspan dy="1.2em" x="0" >device plugin</tspan><tspan dy="1.2em" x="0" >[gRPC unix</tspan><tspan dy="1.2em" x="0" >socket]</tspan></text></g><g id="v-115"  label-idx="1" cursor="move" transform="matrix(1,0,0,1,814.6424560546875,888.73388671875)" style="cursor: default; opacity: 1;"><rect joint-selector="rect" id="v-119" fill="#ffffff" rx="3" ry="3"  width="0" height="0" transform="matrix(1,0,0,1,0,0)" display="none"></rect><text joint-selector="text" id="v-118" fill="#000000" font-size="14" text-anchor="middle" pointer-events="none"></text></g></g><g  display="none"><g  transform="translate(795, 834)" id="v-269"><circle  idx="0" r="10"></circle><path  idx="0" d="M16,5.333c-7.732,0-14,4.701-14,10.5c0,1.982,0.741,3.833,2.016,5.414L2,25.667l5.613-1.441c2.339,1.317,5.237,2.107,8.387,2.107c7.732,0,14-4.701,14-10.5C30,10.034,23.732,5.333,16,5.333z" transform="translate(5, -33)"></path><path  idx="0" transform="scale(.8) translate(9.5, -37)" d="M24.778,21.419 19.276,15.917 24.777,10.415 21.949,7.585 16.447,13.087 10.945,7.585 8.117,10.415 13.618,15.917 8.116,21.419 10.946,24.248 16.447,18.746 21.948,24.248z"><title>Remove vertex.</title></path></g></g><g  id="v-124" display="none"><g  id="v-112"><path  end="source" d="M 26 0 L 0 13 L 26 26 z"></path></g><g  id="v-113"><path  end="target" d="M 26 0 L 0 13 L 26 26 z"></path></g></g><g  id="v-123" display="none"><g  id="v-110" transform="translate(614.9262299820012, 934.5023473401449) "><g  event="remove"><circle r="11"></circle><path transform="scale(.8) translate(-16, -16)" d="M24.778,21.419 19.276,15.917 24.777,10.415 21.949,7.585 16.447,13.087 10.945,7.585 8.117,10.415 13.618,15.917 8.116,21.419 10.946,24.248 16.447,18.746 21.948,24.248z"></path><title>Remove link.</title></g><g  event="link:options"><circle r="11" transform="translate(25)"></circle><path fill="white" transform="scale(.55) translate(29, -16)" d="M31.229,17.736c0.064-0.571,0.104-1.148,0.104-1.736s-0.04-1.166-0.104-1.737l-4.377-1.557c-0.218-0.716-0.504-1.401-0.851-2.05l1.993-4.192c-0.725-0.91-1.549-1.734-2.458-2.459l-4.193,1.994c-0.647-0.347-1.334-0.632-2.049-0.849l-1.558-4.378C17.165,0.708,16.588,0.667,16,0.667s-1.166,0.041-1.737,0.105L12.707,5.15c-0.716,0.217-1.401,0.502-2.05,0.849L6.464,4.005C5.554,4.73,4.73,5.554,4.005,6.464l1.994,4.192c-0.347,0.648-0.632,1.334-0.849,2.05l-4.378,1.557C0.708,14.834,0.667,15.412,0.667,16s0.041,1.165,0.105,1.736l4.378,1.558c0.217,0.715,0.502,1.401,0.849,2.049l-1.994,4.193c0.725,0.909,1.549,1.733,2.459,2.458l4.192-1.993c0.648,0.347,1.334,0.633,2.05,0.851l1.557,4.377c0.571,0.064,1.148,0.104,1.737,0.104c0.588,0,1.165-0.04,1.736-0.104l1.558-4.377c0.715-0.218,1.399-0.504,2.049-0.851l4.193,1.993c0.909-0.725,1.733-1.549,2.458-2.458l-1.993-4.193c0.347-0.647,0.633-1.334,0.851-2.049L31.229,17.736zM16,20.871c-2.69,0-4.872-2.182-4.872-4.871c0-2.69,2.182-4.872,4.872-4.872c2.689,0,4.871,2.182,4.871,4.872C20.871,18.689,18.689,20.871,16,20.871z"></path><title>Link options.</title></g></g></g></g><!--z-index:98--><g   id="j_20" ><path  stroke="#000000" d="M 1100 947 L 899 1059 C 892.9999999999999 1062.3333333333333 886.6666666666665 1064 880 1064 L 580 1073" id="v-138" stroke-width="1" stroke-dasharray="" fill="none" style="opacity: 1;"></path><path  fill="black" stroke="black" d="M 0 0 0 0" transform="matrix(-0.8730195294969032,0.487685248000189,-0.487685248000189,-0.8730195294969032,1100,946.6900024414062)"></path><path  fill="#000000" stroke="#000000" d="M 10 0 L 0 5 L 10 10 z" id="v-140" transform="matrix(0.9995531922373261,-0.02989006336846965,0.02989006336846965,0.9995531922373261,579.8505254211898,1068.2722898244058)" style="opacity: 1;"></path><path  d="M 1100 947 L 899 1059 C 892.9999999999999 1062.3333333333333 886.6666666666665 1064 880 1064 L 580 1073" id="v-139" fill="none" style="cursor: default;"></path><g ><g id="v-132"  label-idx="0" cursor="move" transform="matrix(1,0,0,1,854.9232788085938,1064.7523193359375)" style="cursor: default; opacity: 1;"><rect joint-selector="rect" id="v-135" fill="#ffffff" rx="3" ry="3" pointer-events="none" width="196.8132781982422" height="177.22911834716797" transform="matrix(1,0,0,1,-98.4,-88.6)"></rect><text joint-selector="text" id="v-134" font-size="24px" xml:space="preserve" y="0.8em" fill="#000000" text-anchor="middle" pointer-events="none" font-family="Open Sans, Tahoma, Arial" font-weight="normal" transform="matrix(1,0,0,1,0,-81.2)"><tspan dy="0" >Invokes the Prep</tspan><tspan dy="1.2em" x="0" >areResourceClai</tspan><tspan dy="1.2em" x="0" >ms and Unprepar</tspan><tspan dy="1.2em" x="0" >eResourceClaims</tspan><tspan dy="1.2em" x="0" >methods [gRPC</tspan><tspan dy="1.2em" x="0" >unix socket]</tspan></text></g><g id="v-133"  label-idx="1" cursor="move" transform="matrix(1,0,0,1,844.9232788085938,1148.7523193359375)" style="cursor: default; opacity: 1;"><rect joint-selector="rect" id="v-137" fill="#ffffff" rx="3" ry="3"  width="0" height="0" transform="matrix(1,0,0,1,0,0)" display="none"></rect><text joint-selector="text" id="v-136" fill="#000000" font-size="14" text-anchor="middle" pointer-events="none"></text></g></g><g  display="none"><g  transform="translate(890, 1064)" id="v-270"><circle  idx="0" r="10"></circle><path  idx="0" d="M16,5.333c-7.732,0-14,4.701-14,10.5c0,1.982,0.741,3.833,2.016,5.414L2,25.667l5.613-1.441c2.339,1.317,5.237,2.107,8.387,2.107c7.732,0,14-4.701,14-10.5C30,10.034,23.732,5.333,16,5.333z" transform="translate(5, -33)"></path><path  idx="0" transform="scale(.8) translate(9.5, -37)" d="M24.778,21.419 19.276,15.917 24.777,10.415 21.949,7.585 16.447,13.087 10.945,7.585 8.117,10.415 13.618,15.917 8.116,21.419 10.946,24.248 16.447,18.746 21.948,24.248z"><title>Remove vertex.</title></path></g></g><g  id="v-142" display="none"><g  id="v-130"><path  end="source" d="M 26 0 L 0 13 L 26 26 z"></path></g><g  id="v-131"><path  end="target" d="M 26 0 L 0 13 L 26 26 z"></path></g></g><g  id="v-141" display="none"><g  id="v-128" transform="translate(1065.058336867612, 966.4699814469026) "><g  event="remove"><circle r="11"></circle><path transform="scale(.8) translate(-16, -16)" d="M24.778,21.419 19.276,15.917 24.777,10.415 21.949,7.585 16.447,13.087 10.945,7.585 8.117,10.415 13.618,15.917 8.116,21.419 10.946,24.248 16.447,18.746 21.948,24.248z"></path><title>Remove link.</title></g><g  event="link:options"><circle r="11" transform="translate(25)"></circle><path fill="white" transform="scale(.55) translate(29, -16)" d="M31.229,17.736c0.064-0.571,0.104-1.148,0.104-1.736s-0.04-1.166-0.104-1.737l-4.377-1.557c-0.218-0.716-0.504-1.401-0.851-2.05l1.993-4.192c-0.725-0.91-1.549-1.734-2.458-2.459l-4.193,1.994c-0.647-0.347-1.334-0.632-2.049-0.849l-1.558-4.378C17.165,0.708,16.588,0.667,16,0.667s-1.166,0.041-1.737,0.105L12.707,5.15c-0.716,0.217-1.401,0.502-2.05,0.849L6.464,4.005C5.554,4.73,4.73,5.554,4.005,6.464l1.994,4.192c-0.347,0.648-0.632,1.334-0.849,2.05l-4.378,1.557C0.708,14.834,0.667,15.412,0.667,16s0.041,1.165,0.105,1.736l4.378,1.558c0.217,0.715,0.502,1.401,0.849,2.049l-1.994,4.193c0.725,0.909,1.549,1.733,2.459,2.458l4.192-1.993c0.648,0.347,1.334,0.633,2.05,0.851l1.557,4.377c0.571,0.064,1.148,0.104,1.737,0.104c0.588,0,1.165-0.04,1.736-0.104l1.558-4.377c0.715-0.218,1.399-0.504,2.049-0.851l4.193,1.993c0.909-0.725,1.733-1.549,2.458-2.458l-1.993-4.193c0.347-0.647,0.633-1.334,0.851-2.049L31.229,17.736zM16,20.871c-2.69,0-4.872-2.182-4.872-4.871c0-2.69,2.182-4.872,4.872-4.872c2.689,0,4.871,2.182,4.871,4.872C20.871,18.689,18.689,20.871,16,20.871z"></path><title>Link options.</title></g></g></g></g><!--z-index:99--><g   id="j_21" ><path  stroke="#000000" d="M 1248 971 L 1180 1104 C 1176.6666666666665 1109.6666666666665 1176.6666666666665 1115.3333333333333 1180 1121 L 1248 1254" id="v-155" stroke-width="1" stroke-dasharray="" fill="none" style="opacity: 1;"></path><path  fill="black" stroke="black" d="M 0 0 0 0" transform="matrix(-0.457539696619372,0.8891891958506092,-0.8891891958506092,-0.457539696619372,1247.81005859375,971)"></path><path  fill="#000000" stroke="#000000" d="M 10 0 L 0 5 L 10 10 z" id="v-157" transform="matrix(-0.45753957821666486,-0.889189256775697,0.889189256775697,-0.45753957821666486,1243.3640904743922,1256.2877213233994)" style="opacity: 1;"></path><path  d="M 1248 971 L 1180 1104 C 1176.6666666666665 1109.6666666666665 1176.6666666666665 1115.3333333333333 1180 1121 L 1248 1254" id="v-156" fill="none" style="cursor: default;"></path><g ><g id="v-149"  label-idx="0" cursor="move" transform="matrix(1,0,0,1,1177.5,1112.5)" style="cursor: default; opacity: 1;"><rect joint-selector="rect" id="v-152" fill="#ffffff" rx="3" ry="3" pointer-events="none" width="184.38697814941406" height="90.82911682128906" transform="matrix(1,0,0,1,-92.2,-45.4)"></rect><text joint-selector="text" id="v-151" font-size="24px" xml:space="preserve" y="0.8em" fill="#000000" text-anchor="middle" pointer-events="none" font-family="Open Sans, Tahoma, Arial" font-weight="normal" transform="matrix(1,0,0,1,0,-38)"><tspan dy="0" >Transfers CDI</tspan><tspan dy="1.2em" x="0" >device IDs [gRPC</tspan><tspan dy="1.2em" x="0" >unix socket]</tspan></text></g><g id="v-150"  label-idx="1" cursor="move" transform="matrix(1,0,0,1,1167.5,1153.300048828125)" style="cursor: default; opacity: 1;"><rect joint-selector="rect" id="v-154" fill="#ffffff" rx="3" ry="3"  width="0" height="0" transform="matrix(1,0,0,1,0,0)" display="none"></rect><text joint-selector="text" id="v-153" fill="#000000" font-size="14" text-anchor="middle" pointer-events="none"></text></g></g><g  display="none"><g  transform="translate(1175, 1112.5)" id="v-271"><circle  idx="0" r="10"></circle><path  idx="0" d="M16,5.333c-7.732,0-14,4.701-14,10.5c0,1.982,0.741,3.833,2.016,5.414L2,25.667l5.613-1.441c2.339,1.317,5.237,2.107,8.387,2.107c7.732,0,14-4.701,14-10.5C30,10.034,23.732,5.333,16,5.333z" transform="translate(5, -33)"></path><path  idx="0" transform="scale(.8) translate(9.5, -37)" d="M24.778,21.419 19.276,15.917 24.777,10.415 21.949,7.585 16.447,13.087 10.945,7.585 8.117,10.415 13.618,15.917 8.116,21.419 10.946,24.248 16.447,18.746 21.948,24.248z"><title>Remove vertex.</title></path></g></g><g  id="v-159" display="none"><g  id="v-147"><path  end="source" d="M 26 0 L 0 13 L 26 26 z"></path></g><g  id="v-148"><path  end="target" d="M 26 0 L 0 13 L 26 26 z"></path></g></g><g  id="v-158" display="none"><g  id="v-146" transform="translate(1229.7908396085386, 1006.6149754715349) "><g  event="remove"><circle r="11"></circle><path transform="scale(.8) translate(-16, -16)" d="M24.778,21.419 19.276,15.917 24.777,10.415 21.949,7.585 16.447,13.087 10.945,7.585 8.117,10.415 13.618,15.917 8.116,21.419 10.946,24.248 16.447,18.746 21.948,24.248z"></path><title>Remove link.</title></g><g  event="link:options"><circle r="11" transform="translate(25)"></circle><path fill="white" transform="scale(.55) translate(29, -16)" d="M31.229,17.736c0.064-0.571,0.104-1.148,0.104-1.736s-0.04-1.166-0.104-1.737l-4.377-1.557c-0.218-0.716-0.504-1.401-0.851-2.05l1.993-4.192c-0.725-0.91-1.549-1.734-2.458-2.459l-4.193,1.994c-0.647-0.347-1.334-0.632-2.049-0.849l-1.558-4.378C17.165,0.708,16.588,0.667,16,0.667s-1.166,0.041-1.737,0.105L12.707,5.15c-0.716,0.217-1.401,0.502-2.05,0.849L6.464,4.005C5.554,4.73,4.73,5.554,4.005,6.464l1.994,4.192c-0.347,0.648-0.632,1.334-0.849,2.05l-4.378,1.557C0.708,14.834,0.667,15.412,0.667,16s0.041,1.165,0.105,1.736l4.378,1.558c0.217,0.715,0.502,1.401,0.849,2.049l-1.994,4.193c0.725,0.909,1.549,1.733,2.459,2.458l4.192-1.993c0.648,0.347,1.334,0.633,2.05,0.851l1.557,4.377c0.571,0.064,1.148,0.104,1.737,0.104c0.588,0,1.165-0.04,1.736-0.104l1.558-4.377c0.715-0.218,1.399-0.504,2.049-0.851l4.193,1.993c0.909-0.725,1.733-1.549,2.458-2.458l-1.993-4.193c0.347-0.647,0.633-1.334,0.851-2.049L31.229,17.736zM16,20.871c-2.69,0-4.872-2.182-4.872-4.871c0-2.69,2.182-4.872,4.872-4.872c2.689,0,4.871,2.182,4.871,4.872C20.871,18.689,18.689,20.871,16,20.871z"></path><title>Link options.</title></g></g></g></g><!--z-index:100--><g   id="j_22" ><path  stroke="#000000" d="M 580 239 L 1100 239" id="v-172" stroke-width="1" stroke-dasharray="" fill="none" style="opacity: 1;"></path><path  fill="black" stroke="black" d="M 0 0 0 0" transform="matrix(1,0,0,1,580,239)"></path><path  fill="#000000" stroke="#000000" d="M 10 0 L 0 5 L 10 10 z" id="v-174" transform="matrix(-1,1.2246467991473532e-16,-1.2246467991473532e-16,-1,1100,244)" style="opacity: 1;"></path><path  d="M 580 239 L 1100 239" id="v-173" fill="none" style="cursor: default;"></path><g ><g id="v-166"  label-idx="0" cursor="move" transform="matrix(1,0,0,1,840,239)" style="cursor: default; opacity: 1;"><rect joint-selector="rect" id="v-169" fill="#ffffff" rx="3" ry="3" pointer-events="none" width="185.8407440185547" height="177.22911834716797" transform="matrix(1,0,0,1,-92.9,-88.6)"></rect><text joint-selector="text" id="v-168" font-size="24px" xml:space="preserve" y="0.8em" fill="#000000" text-anchor="middle" pointer-events="none" font-family="Open Sans, Tahoma, Arial" font-weight="normal" transform="matrix(1,0,0,1,0,-81.2)"><tspan dy="0" >Receives events</tspan><tspan dy="1.2em" x="0" >for</tspan><tspan dy="1.2em" x="0" >VirtualMachines,</tspan><tspan dy="1.2em" x="0" >CiliumNode and</tspan><tspan dy="1.2em" x="0" >Node resources</tspan><tspan dy="1.2em" x="0" >[6443 TCP]</tspan></text></g><g id="v-167"  label-idx="1" cursor="move" transform="matrix(1,0,0,1,830,323)" style="cursor: default; opacity: 1;"><rect joint-selector="rect" id="v-171" fill="#ffffff" rx="3" ry="3"  width="0" height="0" transform="matrix(1,0,0,1,0,0)" display="none"></rect><text joint-selector="text" id="v-170" fill="#000000" font-size="14" text-anchor="middle" pointer-events="none"></text></g></g><g  display="none"></g><g  id="v-176" display="none"><g  id="v-164"><path  end="source" d="M 26 0 L 0 13 L 26 26 z"></path></g><g  id="v-165"><path  end="target" d="M 26 0 L 0 13 L 26 26 z"></path></g></g><g  id="v-175" display="none"><g  id="v-163" transform="translate(620, 239.00000000000003) "><g  event="remove"><circle r="11"></circle><path transform="scale(.8) translate(-16, -16)" d="M24.778,21.419 19.276,15.917 24.777,10.415 21.949,7.585 16.447,13.087 10.945,7.585 8.117,10.415 13.618,15.917 8.116,21.419 10.946,24.248 16.447,18.746 21.948,24.248z"></path><title>Remove link.</title></g><g  event="link:options"><circle r="11" transform="translate(25)"></circle><path fill="white" transform="scale(.55) translate(29, -16)" d="M31.229,17.736c0.064-0.571,0.104-1.148,0.104-1.736s-0.04-1.166-0.104-1.737l-4.377-1.557c-0.218-0.716-0.504-1.401-0.851-2.05l1.993-4.192c-0.725-0.91-1.549-1.734-2.458-2.459l-4.193,1.994c-0.647-0.347-1.334-0.632-2.049-0.849l-1.558-4.378C17.165,0.708,16.588,0.667,16,0.667s-1.166,0.041-1.737,0.105L12.707,5.15c-0.716,0.217-1.401,0.502-2.05,0.849L6.464,4.005C5.554,4.73,4.73,5.554,4.005,6.464l1.994,4.192c-0.347,0.648-0.632,1.334-0.849,2.05l-4.378,1.557C0.708,14.834,0.667,15.412,0.667,16s0.041,1.165,0.105,1.736l4.378,1.558c0.217,0.715,0.502,1.401,0.849,2.049l-1.994,4.193c0.725,0.909,1.549,1.733,2.459,2.458l4.192-1.993c0.648,0.347,1.334,0.633,2.05,0.851l1.557,4.377c0.571,0.064,1.148,0.104,1.737,0.104c0.588,0,1.165-0.04,1.736-0.104l1.558-4.377c0.715-0.218,1.399-0.504,2.049-0.851l4.193,1.993c0.909-0.725,1.733-1.549,2.458-2.458l-1.993-4.193c0.347-0.647,0.633-1.334,0.851-2.049L31.229,17.736zM16,20.871c-2.69,0-4.872-2.182-4.872-4.871c0-2.69,2.182-4.872,4.872-4.872c2.689,0,4.871,2.182,4.871,4.872C20.871,18.689,18.689,20.871,16,20.871z"></path><title>Link options.</title></g></g></g></g><!--z-index:101--><g   id="j_23" ><path  stroke="#000000" d="M 580 562 L 1100 336" id="v-189" stroke-width="1" stroke-dasharray="" fill="none" style="opacity: 1;"></path><path  fill="black" stroke="black" d="M 0 0 0 0" transform="matrix(0.9176672823642463,-0.39734966827495727,0.39734966827495727,0.9176672823642463,580,561.5800170898438)"></path><path  fill="#000000" stroke="#000000" d="M 10 0 L 0 5 L 10 10 z" id="v-191" transform="matrix(-0.9176671765435962,0.3973499126645232,-0.3973499126645232,-0.9176671765435962,1101.9867065397907,341.0083246006454)" style="opacity: 1;"></path><path  d="M 580 562 L 1100 336" id="v-190" fill="none" style="cursor: default;"></path><g ><g id="v-183"  label-idx="0" cursor="move" transform="matrix(1,0,0,1,840,449)" style="cursor: default; opacity: 1;"><rect joint-selector="rect" id="v-186" fill="#ffffff" rx="3" ry="3" pointer-events="none" width="198.71702575683594" height="148.42911529541016" transform="matrix(1,0,0,1,-99.4,-74.2)"></rect><text joint-selector="text" id="v-185" font-size="24px" xml:space="preserve" y="0.8em" fill="#000000" text-anchor="middle" pointer-events="none" font-family="Open Sans, Tahoma, Arial" font-weight="normal" transform="matrix(1,0,0,1,0,-66.8)"><tspan dy="0" >Deletes InternalVi</tspan><tspan dy="1.2em" x="0" >rtualizationKubeV</tspan><tspan dy="1.2em" x="0" >irt and InternalVir</tspan><tspan dy="1.2em" x="0" >tualizationCDI</tspan><tspan dy="1.2em" x="0" >CRs [6443 TCP]</tspan></text></g><g id="v-184"  label-idx="1" cursor="move" transform="matrix(1,0,0,1,830,518.5999755859375)" style="cursor: default; opacity: 1;"><rect joint-selector="rect" id="v-188" fill="#ffffff" rx="3" ry="3"  width="0" height="0" transform="matrix(1,0,0,1,0,0)" display="none"></rect><text joint-selector="text" id="v-187" fill="#000000" font-size="14" text-anchor="middle" pointer-events="none"></text></g></g><g  display="none"></g><g  id="v-193" display="none"><g  id="v-181"><path  end="source" d="M 26 0 L 0 13 L 26 26 z"></path></g><g  id="v-182"><path  end="target" d="M 26 0 L 0 13 L 26 26 z"></path></g></g><g  id="v-192" display="none"><g  id="v-180" transform="translate(616.6850450721598, 546.0561150263305) "><g  event="remove"><circle r="11"></circle><path transform="scale(.8) translate(-16, -16)" d="M24.778,21.419 19.276,15.917 24.777,10.415 21.949,7.585 16.447,13.087 10.945,7.585 8.117,10.415 13.618,15.917 8.116,21.419 10.946,24.248 16.447,18.746 21.948,24.248z"></path><title>Remove link.</title></g><g  event="link:options"><circle r="11" transform="translate(25)"></circle><path fill="white" transform="scale(.55) translate(29, -16)" d="M31.229,17.736c0.064-0.571,0.104-1.148,0.104-1.736s-0.04-1.166-0.104-1.737l-4.377-1.557c-0.218-0.716-0.504-1.401-0.851-2.05l1.993-4.192c-0.725-0.91-1.549-1.734-2.458-2.459l-4.193,1.994c-0.647-0.347-1.334-0.632-2.049-0.849l-1.558-4.378C17.165,0.708,16.588,0.667,16,0.667s-1.166,0.041-1.737,0.105L12.707,5.15c-0.716,0.217-1.401,0.502-2.05,0.849L6.464,4.005C5.554,4.73,4.73,5.554,4.005,6.464l1.994,4.192c-0.347,0.648-0.632,1.334-0.849,2.05l-4.378,1.557C0.708,14.834,0.667,15.412,0.667,16s0.041,1.165,0.105,1.736l4.378,1.558c0.217,0.715,0.502,1.401,0.849,2.049l-1.994,4.193c0.725,0.909,1.549,1.733,2.459,2.458l4.192-1.993c0.648,0.347,1.334,0.633,2.05,0.851l1.557,4.377c0.571,0.064,1.148,0.104,1.737,0.104c0.588,0,1.165-0.04,1.736-0.104l1.558-4.377c0.715-0.218,1.399-0.504,2.049-0.851l4.193,1.993c0.909-0.725,1.733-1.549,2.458-2.458l-1.993-4.193c0.347-0.647,0.633-1.334,0.851-2.049L31.229,17.736zM16,20.871c-2.69,0-4.872-2.182-4.872-4.871c0-2.69,2.182-4.872,4.872-4.872c2.689,0,4.871,2.182,4.871,4.872C20.871,18.689,18.689,20.871,16,20.871z"></path><title>Link options.</title></g></g></g></g><!--z-index:102--><g   id="j_24" ><path  stroke="#000000" d="M 1402 971 L 1470 1104 C 1473.3333333333333 1109.6666666666665 1473.3333333333333 1115.3333333333333 1470 1121 L 1402 1254" id="v-212" stroke-width="1" stroke-dasharray="" fill="none" style="opacity: 1;"></path><path  fill="black" stroke="black" d="M 0 0 0 0" transform="matrix(0.4575396966193719,0.8891891958506093,-0.8891891958506093,0.4575396966193719,1402.18994140625,971)"></path><path  fill="#000000" stroke="#000000" d="M 10 0 L 0 5 L 10 10 z" id="v-214" transform="matrix(0.4575395782166646,-0.8891892567756972,0.8891892567756972,0.4575395782166646,1397.7440169578506,1251.7123255412328)" style="opacity: 1;"></path><path  d="M 1402 971 L 1470 1104 C 1473.3333333333333 1109.6666666666665 1473.3333333333333 1115.3333333333333 1470 1121 L 1402 1254" id="v-213" fill="none" style="cursor: default;"></path><g ><g id="v-203"  label-idx="0" cursor="move" transform="matrix(1,0,0,1,1472.5,1099.0999755859375)" style="cursor: default; opacity: 1;"><rect joint-selector="rect" id="v-207" fill="#ffffff" rx="3" ry="3" pointer-events="none" width="118.03258514404297" height="90.82911682128906" transform="matrix(1,0,0,1,-59,-45.4)"></rect><text joint-selector="text" id="v-206" font-size="24px" xml:space="preserve" y="0.8em" fill="#000000" text-anchor="middle" pointer-events="none" font-family="Open Sans, Tahoma, Arial" font-weight="normal" transform="matrix(1,0,0,1,0,-38)"><tspan dy="0" >Runs and</tspan><tspan dy="1.2em" x="0" >manages</tspan><tspan dy="1.2em" x="0" >containers</tspan></text></g><g id="v-204"  label-idx="1" cursor="move" transform="matrix(1,0,0,1,1472.5,1158.300048828125)" style="cursor: default; opacity: 1;"><rect joint-selector="rect" id="v-209" fill="#ffffff" rx="3" ry="3"  pointer-events="none" width="143.8889923095703" height="22.15274429321289" transform="matrix(1,0,0,1,-71.9,-11.1)" style="display: block;"></rect><text joint-selector="text" id="v-208" font-size="16.799999999999997px" xml:space="preserve" y="0.8em" fill="#000000" text-anchor="middle" pointer-events="none"  font-family="Open Sans, Tahoma, Arial" font-weight="normal" transform="matrix(1,0,0,1,0,-6.8)" style="display: block;"><tspan dy="0" >[gRPC unix socket]</tspan></text></g><g id="v-205"  label-idx="2" cursor="move" transform="matrix(1,0,0,1,1462.5,1166.699951171875)" style="cursor: default; opacity: 1;"><rect joint-selector="rect" id="v-211" fill="#ffffff" rx="3" ry="3"  width="0" height="0" transform="matrix(1,0,0,1,0,0)" display="none"></rect><text joint-selector="text" id="v-210" fill="#000000" font-size="14" text-anchor="middle" pointer-events="none"></text></g></g><g  display="none"><g  transform="translate(1475, 1112.5)" id="v-272"><circle  idx="0" r="10"></circle><path  idx="0" d="M16,5.333c-7.732,0-14,4.701-14,10.5c0,1.982,0.741,3.833,2.016,5.414L2,25.667l5.613-1.441c2.339,1.317,5.237,2.107,8.387,2.107c7.732,0,14-4.701,14-10.5C30,10.034,23.732,5.333,16,5.333z" transform="translate(5, -33)"></path><path  idx="0" transform="scale(.8) translate(9.5, -37)" d="M24.778,21.419 19.276,15.917 24.777,10.415 21.949,7.585 16.447,13.087 10.945,7.585 8.117,10.415 13.618,15.917 8.116,21.419 10.946,24.248 16.447,18.746 21.948,24.248z"><title>Remove vertex.</title></path></g></g><g  id="v-216" display="none"><g  id="v-201"><path  end="source" d="M 26 0 L 0 13 L 26 26 z"></path></g><g  id="v-202"><path  end="target" d="M 26 0 L 0 13 L 26 26 z"></path></g></g><g  id="v-215" display="none"><g  id="v-200" transform="translate(1420.2091603914614, 1006.6149754715349) "><g  event="remove"><circle r="11"></circle><path transform="scale(.8) translate(-16, -16)" d="M24.778,21.419 19.276,15.917 24.777,10.415 21.949,7.585 16.447,13.087 10.945,7.585 8.117,10.415 13.618,15.917 8.116,21.419 10.946,24.248 16.447,18.746 21.948,24.248z"></path><title>Remove link.</title></g><g  event="link:options"><circle r="11" transform="translate(25)"></circle><path fill="white" transform="scale(.55) translate(29, -16)" d="M31.229,17.736c0.064-0.571,0.104-1.148,0.104-1.736s-0.04-1.166-0.104-1.737l-4.377-1.557c-0.218-0.716-0.504-1.401-0.851-2.05l1.993-4.192c-0.725-0.91-1.549-1.734-2.458-2.459l-4.193,1.994c-0.647-0.347-1.334-0.632-2.049-0.849l-1.558-4.378C17.165,0.708,16.588,0.667,16,0.667s-1.166,0.041-1.737,0.105L12.707,5.15c-0.716,0.217-1.401,0.502-2.05,0.849L6.464,4.005C5.554,4.73,4.73,5.554,4.005,6.464l1.994,4.192c-0.347,0.648-0.632,1.334-0.849,2.05l-4.378,1.557C0.708,14.834,0.667,15.412,0.667,16s0.041,1.165,0.105,1.736l4.378,1.558c0.217,0.715,0.502,1.401,0.849,2.049l-1.994,4.193c0.725,0.909,1.549,1.733,2.459,2.458l4.192-1.993c0.648,0.347,1.334,0.633,2.05,0.851l1.557,4.377c0.571,0.064,1.148,0.104,1.737,0.104c0.588,0,1.165-0.04,1.736-0.104l1.558-4.377c0.715-0.218,1.399-0.504,2.049-0.851l4.193,1.993c0.909-0.725,1.733-1.549,2.458-2.458l-1.993-4.193c0.347-0.647,0.633-1.334,0.851-2.049L31.229,17.736zM16,20.871c-2.69,0-4.872-2.182-4.872-4.871c0-2.69,2.182-4.872,4.872-4.872c2.689,0,4.871,2.182,4.871,4.872C20.871,18.689,18.689,20.871,16,20.871z"></path><title>Link options.</title></g></g></g></g><!--z-index:103--></g><g ></g><g ></g><g ></g></g></svg>