<svg xmlns="http://www.w3.org/2000/svg" xmlns:xlink="http://www.w3.org/1999/xlink" version="1.1" viewBox="0 0 2320 1493" style="background: #ffffff"><defs joint-selector="defs"></defs><g joint-selector="layers"  transform="matrix(1,0,0,1,0,0)"><g ></g><g ><!--z-index:1--><!--z-index:2--><!--z-index:3--><!--z-index:4--><!--z-index:5--><!--z-index:6--><!--z-index:7--><!--z-index:8--><!--z-index:9--><!--z-index:10--><!--z-index:11--><!--z-index:12--><!--z-index:13--><!--z-index:14--><!--z-index:15--><!--z-index:16--><!--z-index:17--><!--z-index:18--><!--z-index:19--><!--z-index:20--><!--z-index:21--><!--z-index:22--><!--z-index:23--><!--z-index:24--><!--z-index:25--><!--z-index:26--><!--z-index:27--><!--z-index:28--><!--z-index:29--><!--z-index:30--><!--z-index:31--><!--z-index:32--><!--z-index:33--><!--z-index:34--><!--z-index:35--><!--z-index:36--><!--z-index:37--><!--z-index:38--><!--z-index:39--><!--z-index:40--><!--z-index:41--><!--z-index:42--><!--z-index:43--><!--z-index:44--><!--z-index:45--><!--z-index:46--><!--z-index:47--><!--z-index:48--><!--z-index:49--><!--z-index:50--><!--z-index:51--><!--z-index:52--><!--z-index:53--><!--z-index:54--><!--z-index:55--><!--z-index:56--><!--z-index:57--><!--z-index:58--><!--z-index:59--><!--z-index:60--><g   id="j_101"  transform="translate(20,1449)"><g id="v-1045"><text  id="v-1046" font-size="24px" xml:space="preserve" y="0.8em" font-weight="normal" text-anchor="start" fill="#444444" pointer-events="none" display="block" font-family="Open Sans, Tahoma, Arial"><tspan dy="0"  display="none">вторник, 16 июня 2026 г. в 14:10 Восточная Европа, стандартное время</tspan></text></g></g><!--z-index:61--><g   id="j_100"  transform="translate(20,1403)"><g id="v-1043"><text  id="v-1044" font-size="36px" xml:space="preserve" y="0.8em" font-weight="normal" text-anchor="start" fill="#444444" pointer-events="none" display="block" font-family="Open Sans, Tahoma, Arial"><tspan dy="0"  display="none">Container View: Deckhouse Kubernetes Platform</tspan></text></g></g><!--z-index:62--><g   id="j_106"  transform="translate(49,10)" style=""><g id="v-1069"><rect  id="v-1070" width="2220" height="1393" rx="20" ry="20" stroke-width="1" pointer-events="none" stroke="#004df2" fill="#ffffff" stroke-dasharray=""></rect><text  id="v-1071" font-size="33.599999999999994px" xml:space="preserve" y="1354" font-weight="bold" text-anchor="start" pointer-events="visible" font-family="Open Sans, Tahoma, Arial" fill="#003ab5" transform="matrix(1,0,0,1,15,0)"><tspan dy="0" >Deckhouse Kubernetes Platform</tspan></text><text  id="v-1072" font-size="16.799999999999997px" xml:space="preserve" y="1378" font-weight="normal" text-anchor="start" pointer-events="visible" font-family="Open Sans, Tahoma, Arial" fill="#003ab5" transform="matrix(1,0,0,1,15,0)"><tspan dy="0" >[Software System]</tspan></text><image  id="v-1073" pointer-events="visible"></image></g></g><!--z-index:63--><g   id="j_103"  transform="translate(964,30)" style=""><g id="v-1054"><rect  id="v-1055" width="570" height="609" rx="20" ry="20" stroke-width="1" pointer-events="none" stroke="#325ebd" fill="#f6f9ff" stroke-dasharray="1,2"></rect><text  id="v-1056" font-size="33.599999999999994px" xml:space="preserve" y="594" font-weight="bold" text-anchor="start" pointer-events="visible" font-family="Open Sans, Tahoma, Arial" fill="#325ebd" transform="matrix(1,0,0,1,15,0)"><tspan dy="0" >Подсистема Kubernetes &amp; Scheduling</tspan></text><text  id="v-1057" font-size="16.799999999999997px" xml:space="preserve" display="none" y="594" font-weight="normal" text-anchor="start" pointer-events="visible" font-family="Open Sans, Tahoma, Arial" fill="#325ebd" transform="matrix(1,0,0,1,15,0)"><tspan dy="0" style="fill-opacity: 0; stroke-opacity: 0;" >-</tspan></text><image  id="v-1058" pointer-events="visible"></image></g></g><!--z-index:64--><g   id="j_108"  transform="translate(959,695)" style=""><g id="v-1081"><rect  id="v-1082" width="1290" height="609" rx="20" ry="20" stroke-width="1" pointer-events="none" stroke="#325ebd" fill="#f6f9ff" stroke-dasharray="1,2"></rect><text  id="v-1083" font-size="33.599999999999994px" xml:space="preserve" y="594" font-weight="bold" text-anchor="start" pointer-events="visible" font-family="Open Sans, Tahoma, Arial" fill="#325ebd" transform="matrix(1,0,0,1,15,0)"><tspan dy="0" >Подсистема Observability</tspan></text><text  id="v-1084" font-size="16.799999999999997px" xml:space="preserve" display="none" y="594" font-weight="normal" text-anchor="start" pointer-events="visible" font-family="Open Sans, Tahoma, Arial" fill="#325ebd" transform="matrix(1,0,0,1,15,0)"><tspan dy="0" style="fill-opacity: 0; stroke-opacity: 0;" >-</tspan></text><image  id="v-1085" pointer-events="visible"></image></g></g><!--z-index:65--><g   id="j_113"  transform="translate(69,385)" style=""><g id="v-1113"><rect  id="v-1114" width="570" height="609" rx="20" ry="20" stroke-width="1" pointer-events="none" stroke="#325ebd" fill="#f6f9ff" stroke-dasharray="1,2"></rect><text  id="v-1115" font-size="33.599999999999994px" xml:space="preserve" y="594" font-weight="bold" text-anchor="start" pointer-events="visible" font-family="Open Sans, Tahoma, Arial" fill="#325ebd" transform="matrix(1,0,0,1,15,0)"><tspan dy="0" >Подсистема Virtualization</tspan></text><text  id="v-1116" font-size="16.799999999999997px" xml:space="preserve" display="none" y="594" font-weight="normal" text-anchor="start" pointer-events="visible" font-family="Open Sans, Tahoma, Arial" fill="#325ebd" transform="matrix(1,0,0,1,15,0)"><tspan dy="0" style="fill-opacity: 0; stroke-opacity: 0;" >-</tspan></text><image  id="v-1117" pointer-events="visible"></image></g></g><!--z-index:66--><g   id="j_104"  transform="translate(984,50)" style=""><g id="v-1059"><rect  id="v-1060" width="530" height="506" rx="20" ry="20" stroke-width="1" pointer-events="none" stroke="#325ebd" fill="#d8e4ff" stroke-dasharray="1,2"></rect><text  id="v-1061" font-size="33.599999999999994px" xml:space="preserve" y="491" font-weight="bold" text-anchor="start" pointer-events="visible" font-family="Open Sans, Tahoma, Arial" fill="#325ebd" transform="matrix(1,0,0,1,15,0)"><tspan dy="0" >Сontrol plane Kubernetes-кластера</tspan></text><text  id="v-1062" font-size="16.799999999999997px" xml:space="preserve" display="none" y="491" font-weight="normal" text-anchor="start" pointer-events="visible" font-family="Open Sans, Tahoma, Arial" fill="#325ebd" transform="matrix(1,0,0,1,15,0)"><tspan dy="0" style="fill-opacity: 0; stroke-opacity: 0;" >-</tspan></text><image  id="v-1063" pointer-events="visible"></image></g></g><!--z-index:67--><g   id="j_107"  transform="translate(1779,750)" style=""><g  id="v-1074" style="opacity: 1;"><rect  id="v-1075" rx="20" ry="20" stroke-width="1" pointer-events="visiblePainted" fill="#d8e4ff" stroke="#325ebd" stroke-dasharray="" width="450" height="300"></rect><text  id="v-1076" font-size="33.599999999999994px" xml:space="preserve" y="101.30000000000001" font-weight="bold" text-anchor="middle" pointer-events="visible" font-family="Open Sans, Tahoma, Arial" fill="#325ebd" dominant-baseline="hanging" transform="matrix(1,0,0,1,225,0)"><tspan dy="0" >loki</tspan></text><text  id="v-1077" font-size="16.799999999999997px" xml:space="preserve" y="142.9" text-anchor="middle" font-family="Open Sans, Tahoma, Arial" fill="#325ebd" dominant-baseline="hanging" transform="matrix(1,0,0,1,225,0)" style="display: block;"><tspan dy="0" >[Container]</tspan></text><text  id="v-1078" font-size="24px" xml:space="preserve" y="174.7" text-anchor="middle" font-family="Open Sans, Tahoma, Arial" fill="#325ebd" dominant-baseline="hanging" transform="matrix(1,0,0,1,225,0)" style="display: block;"><tspan dy="0" >Модуль</tspan></text><g  id="v-1079" color="#325ebd" transform="matrix(1,0,0,1,222.5,268)" display="none"><g ></g><g ></g><g ></g><g ></g></g><image  id="v-1080"></image></g></g><!--z-index:68--><g   id="j_110"  transform="translate(979,715)" style=""><g id="v-1093"><rect  id="v-1094" width="530" height="506" rx="20" ry="20" stroke-width="1" pointer-events="none" stroke="#325ebd" fill="#d8e4ff" stroke-dasharray="1,2"></rect><text  id="v-1095" font-size="33.599999999999994px" xml:space="preserve" y="491" font-weight="bold" text-anchor="start" pointer-events="visible" font-family="Open Sans, Tahoma, Arial" fill="#325ebd" transform="matrix(1,0,0,1,15,0)"><tspan dy="0" >Модуль log-shipper</tspan></text><text  id="v-1096" font-size="16.799999999999997px" xml:space="preserve" display="none" y="491" font-weight="normal" text-anchor="start" pointer-events="visible" font-family="Open Sans, Tahoma, Arial" fill="#325ebd" transform="matrix(1,0,0,1,15,0)"><tspan dy="0" style="fill-opacity: 0; stroke-opacity: 0;" >-</tspan></text><image  id="v-1097" pointer-events="visible"></image></g></g><!--z-index:69--><g   id="j_114"  transform="translate(89,405)" style=""><g id="v-1118"><rect  id="v-1119" width="530" height="506" rx="20" ry="20" stroke-width="1" pointer-events="none" stroke="#325ebd" fill="#d8e4ff" stroke-dasharray="1,2"></rect><text  id="v-1120" font-size="33.599999999999994px" xml:space="preserve" y="491" font-weight="bold" text-anchor="start" pointer-events="visible" font-family="Open Sans, Tahoma, Arial" fill="#325ebd" transform="matrix(1,0,0,1,15,0)"><tspan dy="0" >Модуль virtualization</tspan></text><text  id="v-1121" font-size="16.799999999999997px" xml:space="preserve" display="none" y="491" font-weight="normal" text-anchor="start" pointer-events="visible" font-family="Open Sans, Tahoma, Arial" fill="#325ebd" transform="matrix(1,0,0,1,15,0)"><tspan dy="0" style="fill-opacity: 0; stroke-opacity: 0;" >-</tspan></text><image  id="v-1122" pointer-events="visible"></image></g></g><!--z-index:70--><g   id="j_105"  transform="translate(1004,70)" style=""><g id="v-1064"><rect  id="v-1065" width="490" height="403" rx="20" ry="20" stroke-width="1" pointer-events="none" stroke="#000000" fill="#ffffff" stroke-dasharray="1,2"></rect><text  id="v-1066" font-size="33.599999999999994px" xml:space="preserve" y="388" font-weight="bold" text-anchor="start" pointer-events="visible" font-family="Open Sans, Tahoma, Arial" fill="#000000" transform="matrix(1,0,0,1,15,0)"><tspan dy="0" >kube-apiserver [pod]</tspan></text><text  id="v-1067" font-size="16.799999999999997px" xml:space="preserve" display="none" y="388" font-weight="normal" text-anchor="start" pointer-events="visible" font-family="Open Sans, Tahoma, Arial" fill="#000000" transform="matrix(1,0,0,1,15,0)"><tspan dy="0" style="fill-opacity: 0; stroke-opacity: 0;" >-</tspan></text><image  id="v-1068" pointer-events="visible"></image></g></g><!--z-index:71--><g   id="j_111"  transform="translate(999,735)" style=""><g id="v-1098"><rect  id="v-1099" width="490" height="403" rx="20" ry="20" stroke-width="1" pointer-events="none" stroke="#000000" fill="#ffffff" stroke-dasharray="1,2"></rect><text  id="v-1100" font-size="33.599999999999994px" xml:space="preserve" y="388" font-weight="bold" text-anchor="start" pointer-events="visible" font-family="Open Sans, Tahoma, Arial" fill="#000000" transform="matrix(1,0,0,1,15,0)"><tspan dy="0" >log-shipper-agent [pod]</tspan></text><text  id="v-1101" font-size="16.799999999999997px" xml:space="preserve" display="none" y="388" font-weight="normal" text-anchor="start" pointer-events="visible" font-family="Open Sans, Tahoma, Arial" fill="#000000" transform="matrix(1,0,0,1,15,0)"><tspan dy="0" style="fill-opacity: 0; stroke-opacity: 0;" >-</tspan></text><image  id="v-1102" pointer-events="visible"></image></g></g><!--z-index:72--><g   id="j_115"  transform="translate(109,425)" style=""><g id="v-1123"><rect  id="v-1124" width="490" height="403" rx="20" ry="20" stroke-width="1" pointer-events="none" stroke="#000000" fill="#ffffff" stroke-dasharray="1,2"></rect><text  id="v-1125" font-size="33.599999999999994px" xml:space="preserve" y="388" font-weight="bold" text-anchor="start" pointer-events="visible" font-family="Open Sans, Tahoma, Arial" fill="#000000" transform="matrix(1,0,0,1,15,0)"><tspan dy="0" >virtualization-audit [pod]</tspan></text><text  id="v-1126" font-size="16.799999999999997px" xml:space="preserve" display="none" y="388" font-weight="normal" text-anchor="start" pointer-events="visible" font-family="Open Sans, Tahoma, Arial" fill="#000000" transform="matrix(1,0,0,1,15,0)"><tspan dy="0" style="fill-opacity: 0; stroke-opacity: 0;" >-</tspan></text><image  id="v-1127" pointer-events="visible"></image></g></g><!--z-index:73--><g   id="j_102"  transform="translate(1024,90)" style=""><g  id="v-1047" style="opacity: 1;"><rect  id="v-1048" rx="20" ry="20" stroke-width="2" pointer-events="visiblePainted" fill="#e3ebff" stroke="#485d8e" stroke-dasharray="" width="450" height="300"></rect><text  id="v-1049" font-size="33.599999999999994px" xml:space="preserve" y="120.80000000000001" font-weight="bold" text-anchor="middle" pointer-events="visible" font-family="Open Sans, Tahoma, Arial" fill="#000000" dominant-baseline="hanging" transform="matrix(1,0,0,1,225,0)"><tspan dy="0" >kube-apiserver</tspan></text><text  id="v-1050" font-size="16.799999999999997px" xml:space="preserve" y="162.4" text-anchor="middle" font-family="Open Sans, Tahoma, Arial" fill="#000000" dominant-baseline="hanging" transform="matrix(1,0,0,1,225,0)" style="display: block;"><tspan dy="0" >[Container]</tspan></text><text  id="v-1051" font-size="24px" xml:space="preserve" display="none" y="120.80000000000001" text-anchor="middle" font-family="Open Sans, Tahoma, Arial" fill="#000000" dominant-baseline="hanging" transform="matrix(1,0,0,1,225,0)" style="display: block;"><tspan dy="0"  style="fill-opacity: 0; stroke-opacity: 0;">-</tspan></text><g  id="v-1052" color="#000000" transform="matrix(1,0,0,1,222.5,268)" display="none"><g ></g><g ></g><g ></g><g ></g></g><image  id="v-1053"></image></g></g><!--z-index:74--><g   id="j_109"  transform="translate(1019,755)" style=""><g  id="v-1086" style="opacity: 1;"><rect  id="v-1087" rx="20" ry="20" stroke-width="2" pointer-events="visiblePainted" fill="#e3ebff" stroke="#485d8e" stroke-dasharray="" width="450" height="300"></rect><text  id="v-1088" font-size="33.599999999999994px" xml:space="preserve" y="120.80000000000001" font-weight="bold" text-anchor="middle" pointer-events="visible" font-family="Open Sans, Tahoma, Arial" fill="#000000" dominant-baseline="hanging" transform="matrix(1,0,0,1,225,0)"><tspan dy="0" >vector</tspan></text><text  id="v-1089" font-size="16.799999999999997px" xml:space="preserve" y="162.4" text-anchor="middle" font-family="Open Sans, Tahoma, Arial" fill="#000000" dominant-baseline="hanging" transform="matrix(1,0,0,1,225,0)" style="display: block;"><tspan dy="0" >[Container]</tspan></text><text  id="v-1090" font-size="24px" xml:space="preserve" display="none" y="120.80000000000001" text-anchor="middle" font-family="Open Sans, Tahoma, Arial" fill="#000000" dominant-baseline="hanging" transform="matrix(1,0,0,1,225,0)" style="display: block;"><tspan dy="0"  style="fill-opacity: 0; stroke-opacity: 0;">-</tspan></text><g  id="v-1091" color="#000000" transform="matrix(1,0,0,1,222.5,268)" display="none"><g ></g><g ></g><g ></g><g ></g></g><image  id="v-1092"></image></g></g><!--z-index:75--><g   id="j_112"  transform="translate(129,445)" style=""><g  id="v-1106" style="opacity: 1;"><rect  id="v-1107" rx="20" ry="20" stroke-width="2" pointer-events="visiblePainted" fill="#e3ebff" stroke="#485d8e" stroke-dasharray="" width="450" height="300"></rect><text  id="v-1108" font-size="33.599999999999994px" xml:space="preserve" y="120.80000000000001" font-weight="bold" text-anchor="middle" pointer-events="visible" font-family="Open Sans, Tahoma, Arial" fill="#000000" dominant-baseline="hanging" transform="matrix(1,0,0,1,225,0)"><tspan dy="0" >virtualization-audit</tspan></text><text  id="v-1109" font-size="16.799999999999997px" xml:space="preserve" y="162.4" text-anchor="middle" font-family="Open Sans, Tahoma, Arial" fill="#000000" dominant-baseline="hanging" transform="matrix(1,0,0,1,225,0)" style="display: block;"><tspan dy="0" >[Container]</tspan></text><text  id="v-1110" font-size="24px" xml:space="preserve" display="none" y="120.80000000000001" text-anchor="middle" font-family="Open Sans, Tahoma, Arial" fill="#000000" dominant-baseline="hanging" transform="matrix(1,0,0,1,225,0)" style="display: block;"><tspan dy="0"  style="fill-opacity: 0; stroke-opacity: 0;">-</tspan></text><g  id="v-1111" color="#000000" transform="matrix(1,0,0,1,222.5,268)" display="none"><g ></g><g ></g><g ></g><g ></g></g><image  id="v-1112"></image></g></g><!--z-index:76--><g   id="j_116" ><path  stroke="#000000" d="M 579 506 L 1024 329" id="v-1140" stroke-width="1" stroke-dasharray="" fill="none" style="opacity: 1;"></path><path  fill="black" stroke="black" d="M 0 0 0 0" transform="matrix(0.9295531424802643,-0.3686881545494313,0.3686881545494313,0.9295531424802643,579,505.75)"></path><path  fill="#000000" stroke="#000000" d="M 10 0 L 0 5 L 10 10 z" id="v-1142" transform="matrix(-0.9295532406678263,0.368687906994442,-0.368687906994442,-0.9295532406678263,1025.84343962503,333.89777149258566)" style="opacity: 1;"></path><path  d="M 579 506 L 1024 329" id="v-1141" fill="none" style="cursor: default;"></path><g ><g id="v-1134"  label-idx="0" cursor="move" transform="matrix(1,0,0,1,801.5,417.5)" style="cursor: default; opacity: 1;"><rect joint-selector="rect" id="v-1137" fill="#ffffff" rx="3" ry="3" pointer-events="none" width="199.37269592285156" height="147.98963928222656" transform="matrix(1,0,0,1,-99.7,-74)"></rect><text joint-selector="text" id="v-1136" font-size="24px" xml:space="preserve" y="0.8em" fill="#000000" text-anchor="middle" pointer-events="none" font-family="Open Sans, Tahoma, Arial" font-weight="normal" transform="matrix(1,0,0,1,0,-68.2)"><tspan dy="0" >Следит за</tspan><tspan dy="1.2em" x="0" >изменениями CR</tspan><tspan dy="1.2em" x="0" >модуля</tspan><tspan dy="1.2em" x="0" >virtualization</tspan><tspan dy="1.2em" x="0" >[6443 TCP]</tspan></text></g><g id="v-1135"  label-idx="1" cursor="move" transform="matrix(1,0,0,1,791.5,487.1000061035156)" style="cursor: default; opacity: 1;"><rect joint-selector="rect" id="v-1139" fill="#ffffff" rx="3" ry="3"  width="0" height="0" transform="matrix(1,0,0,1,0,0)" display="none"></rect><text joint-selector="text" id="v-1138" fill="#000000" font-size="14" text-anchor="middle" pointer-events="none"></text></g></g><g  display="none"></g><g  id="v-1144" display="none"><g  id="v-1132"><path  end="source" d="M 26 0 L 0 13 L 26 26 z"></path></g><g  id="v-1133"><path  end="target" d="M 26 0 L 0 13 L 26 26 z"></path></g></g><g  id="v-1143" display="none"><g  id="v-1131" transform="translate(616.1677989223707, 491.2164035746975) "><g  event="remove"><circle r="11"></circle><path transform="scale(.8) translate(-16, -16)" d="M24.778,21.419 19.276,15.917 24.777,10.415 21.949,7.585 16.447,13.087 10.945,7.585 8.117,10.415 13.618,15.917 8.116,21.419 10.946,24.248 16.447,18.746 21.948,24.248z"></path><title>Remove link.</title></g><g  event="link:options"><circle r="11" transform="translate(25)"></circle><path fill="white" transform="scale(.55) translate(29, -16)" d="M31.229,17.736c0.064-0.571,0.104-1.148,0.104-1.736s-0.04-1.166-0.104-1.737l-4.377-1.557c-0.218-0.716-0.504-1.401-0.851-2.05l1.993-4.192c-0.725-0.91-1.549-1.734-2.458-2.459l-4.193,1.994c-0.647-0.347-1.334-0.632-2.049-0.849l-1.558-4.378C17.165,0.708,16.588,0.667,16,0.667s-1.166,0.041-1.737,0.105L12.707,5.15c-0.716,0.217-1.401,0.502-2.05,0.849L6.464,4.005C5.554,4.73,4.73,5.554,4.005,6.464l1.994,4.192c-0.347,0.648-0.632,1.334-0.849,2.05l-4.378,1.557C0.708,14.834,0.667,15.412,0.667,16s0.041,1.165,0.105,1.736l4.378,1.558c0.217,0.715,0.502,1.401,0.849,2.049l-1.994,4.193c0.725,0.909,1.549,1.733,2.459,2.458l4.192-1.993c0.648,0.347,1.334,0.633,2.05,0.851l1.557,4.377c0.571,0.064,1.148,0.104,1.737,0.104c0.588,0,1.165-0.04,1.736-0.104l1.558-4.377c0.715-0.218,1.399-0.504,2.049-0.851l4.193,1.993c0.909-0.725,1.733-1.549,2.458-2.458l-1.993-4.193c0.347-0.647,0.633-1.334,0.851-2.049L31.229,17.736zM16,20.871c-2.69,0-4.872-2.182-4.872-4.871c0-2.69,2.182-4.872,4.872-4.872c2.689,0,4.871,2.182,4.871,4.872C20.871,18.689,18.689,20.871,16,20.871z"></path><title>Link options.</title></g></g></g></g><!--z-index:77--><g   id="j_117" ><path  stroke="#000000" d="M 1019 766 L 808 635 C 802 631.6666666666666 795.6666666666666 629.6666666666666 789 629 L 579 613" id="v-1158" stroke-width="1" stroke-dasharray="" fill="none" style="opacity: 1;"></path><path  fill="black" stroke="black" d="M 0 0 0 0" transform="matrix(-0.8506637455040049,-0.5257101787916014,0.5257101787916014,-0.8506637455040049,1019,765.9600219726562)"></path><path  fill="#000000" stroke="#000000" d="M 10 0 L 0 5 L 10 10 z" id="v-1160" transform="matrix(0.9969224267269685,0.07839435623061171,-0.07839435623061171,0.9969224267269685,579.3919787881432,607.7153960656808)" style="opacity: 1;"></path><path  d="M 1019 766 L 808 635 C 802 631.6666666666666 795.6666666666666 629.6666666666666 789 629 L 579 613" id="v-1159" fill="none" style="cursor: default;"></path><g ><g id="v-1152"  label-idx="0" cursor="move" transform="matrix(1,0,0,1,815.5130004882812,639.6644897460938)" style="cursor: default; opacity: 1;"><rect joint-selector="rect" id="v-1155" fill="#ffffff" rx="3" ry="3" pointer-events="none" width="197.34774780273438" height="176.7896270751953" transform="matrix(1,0,0,1,-98.7,-88.4)"></rect><text joint-selector="text" id="v-1154" font-size="24px" xml:space="preserve" y="0.8em" fill="#000000" text-anchor="middle" pointer-events="none" font-family="Open Sans, Tahoma, Arial" font-weight="normal" transform="matrix(1,0,0,1,0,-82.6)"><tspan dy="0" >Отправляет</tspan><tspan dy="1.2em" x="0" >события</tspan><tspan dy="1.2em" x="0" >безопасности CR</tspan><tspan dy="1.2em" x="0" >модуля</tspan><tspan dy="1.2em" x="0" >virtualization</tspan><tspan dy="1.2em" x="0" >[8443 TCP]</tspan></text></g><g id="v-1153"  label-idx="1" cursor="move" transform="matrix(1,0,0,1,805.5130004882812,723.6644897460938)" style="cursor: default; opacity: 1;"><rect joint-selector="rect" id="v-1157" fill="#ffffff" rx="3" ry="3"  width="0" height="0" transform="matrix(1,0,0,1,0,0)" display="none"></rect><text joint-selector="text" id="v-1156" fill="#000000" font-size="14" text-anchor="middle" pointer-events="none"></text></g></g><g  display="none"><g  transform="translate(799, 630)" id="v-1228"><circle  idx="0" r="10"></circle><path  idx="0" d="M16,5.333c-7.732,0-14,4.701-14,10.5c0,1.982,0.741,3.833,2.016,5.414L2,25.667l5.613-1.441c2.339,1.317,5.237,2.107,8.387,2.107c7.732,0,14-4.701,14-10.5C30,10.034,23.732,5.333,16,5.333z" transform="translate(5, -33)"></path><path  idx="0" transform="scale(.8) translate(9.5, -37)" d="M24.778,21.419 19.276,15.917 24.777,10.415 21.949,7.585 16.447,13.087 10.945,7.585 8.117,10.415 13.618,15.917 8.116,21.419 10.946,24.248 16.447,18.746 21.948,24.248z"><title>Remove vertex.</title></path></g></g><g  id="v-1162" display="none"><g  id="v-1150"><path  end="source" d="M 26 0 L 0 13 L 26 26 z"></path></g><g  id="v-1151"><path  end="target" d="M 26 0 L 0 13 L 26 26 z"></path></g></g><g  id="v-1161" display="none"><g  id="v-1148" transform="translate(985.0168820295438, 744.901476520712) "><g  event="remove"><circle r="11"></circle><path transform="scale(.8) translate(-16, -16)" d="M24.778,21.419 19.276,15.917 24.777,10.415 21.949,7.585 16.447,13.087 10.945,7.585 8.117,10.415 13.618,15.917 8.116,21.419 10.946,24.248 16.447,18.746 21.948,24.248z"></path><title>Remove link.</title></g><g  event="link:options"><circle r="11" transform="translate(25)"></circle><path fill="white" transform="scale(.55) translate(29, -16)" d="M31.229,17.736c0.064-0.571,0.104-1.148,0.104-1.736s-0.04-1.166-0.104-1.737l-4.377-1.557c-0.218-0.716-0.504-1.401-0.851-2.05l1.993-4.192c-0.725-0.91-1.549-1.734-2.458-2.459l-4.193,1.994c-0.647-0.347-1.334-0.632-2.049-0.849l-1.558-4.378C17.165,0.708,16.588,0.667,16,0.667s-1.166,0.041-1.737,0.105L12.707,5.15c-0.716,0.217-1.401,0.502-2.05,0.849L6.464,4.005C5.554,4.73,4.73,5.554,4.005,6.464l1.994,4.192c-0.347,0.648-0.632,1.334-0.849,2.05l-4.378,1.557C0.708,14.834,0.667,15.412,0.667,16s0.041,1.165,0.105,1.736l4.378,1.558c0.217,0.715,0.502,1.401,0.849,2.049l-1.994,4.193c0.725,0.909,1.549,1.733,2.459,2.458l4.192-1.993c0.648,0.347,1.334,0.633,2.05,0.851l1.557,4.377c0.571,0.064,1.148,0.104,1.737,0.104c0.588,0,1.165-0.04,1.736-0.104l1.558-4.377c0.715-0.218,1.399-0.504,2.049-0.851l4.193,1.993c0.909-0.725,1.733-1.549,2.458-2.458l-1.993-4.193c0.347-0.647,0.633-1.334,0.851-2.049L31.229,17.736zM16,20.871c-2.69,0-4.872-2.182-4.872-4.871c0-2.69,2.182-4.872,4.872-4.872c2.689,0,4.871,2.182,4.871,4.872C20.871,18.689,18.689,20.871,16,20.871z"></path><title>Link options.</title></g></g></g></g><!--z-index:78--><g   id="j_118" ><path  stroke="#000000" d="M 1019 902 L 854 900 C 847.3333333333333 900 841.3333333333333 898.3333333333333 836 895 L 579 735" id="v-1176" stroke-width="1" stroke-dasharray="" fill="none" style="opacity: 1;"></path><path  fill="black" stroke="black" d="M 0 0 0 0" transform="matrix(-0.9999217051617598,-0.01251333474332957,0.01251333474332957,-0.9999217051617598,1019,902.1900024414062)"></path><path  fill="#000000" stroke="#000000" d="M 10 0 L 0 5 L 10 10 z" id="v-1178" transform="matrix(0.8489687709529472,0.5284430205297846,-0.5284430205297846,0.8489687709529472,581.6422442947592,730.8051407496176)" style="opacity: 1;"></path><path  d="M 1019 902 L 854 900 C 847.3333333333333 900 841.3333333333333 898.3333333333333 836 895 L 579 735" id="v-1177" fill="none" style="cursor: default;"></path><g ><g id="v-1170"  label-idx="0" cursor="move" transform="matrix(1,0,0,1,785.5767211914062,863.6080322265625)" style="cursor: default; opacity: 1;"><rect joint-selector="rect" id="v-1173" fill="#ffffff" rx="3" ry="3" pointer-events="none" width="172.3651580810547" height="90.38963317871094" transform="matrix(1,0,0,1,-86.2,-45.2)"></rect><text joint-selector="text" id="v-1172" font-size="24px" xml:space="preserve" y="0.8em" fill="#000000" text-anchor="middle" pointer-events="none" font-family="Open Sans, Tahoma, Arial" font-weight="normal" transform="matrix(1,0,0,1,0,-39.4)"><tspan dy="0" >Собирает</tspan><tspan dy="1.2em" x="0" >обработанные</tspan><tspan dy="1.2em" x="0" >аудит-логи</tspan></text></g><g id="v-1171"  label-idx="1" cursor="move" transform="matrix(1,0,0,1,775.5767211914062,904.4080810546875)" style="cursor: default; opacity: 1;"><rect joint-selector="rect" id="v-1175" fill="#ffffff" rx="3" ry="3"  width="0" height="0" transform="matrix(1,0,0,1,0,0)" display="none"></rect><text joint-selector="text" id="v-1174" fill="#000000" font-size="14" text-anchor="middle" pointer-events="none"></text></g></g><g  display="none"><g  transform="translate(844, 900)" id="v-1229"><circle  idx="0" r="10"></circle><path  idx="0" d="M16,5.333c-7.732,0-14,4.701-14,10.5c0,1.982,0.741,3.833,2.016,5.414L2,25.667l5.613-1.441c2.339,1.317,5.237,2.107,8.387,2.107c7.732,0,14-4.701,14-10.5C30,10.034,23.732,5.333,16,5.333z" transform="translate(5, -33)"></path><path  idx="0" transform="scale(.8) translate(9.5, -37)" d="M24.778,21.419 19.276,15.917 24.777,10.415 21.949,7.585 16.447,13.087 10.945,7.585 8.117,10.415 13.618,15.917 8.116,21.419 10.946,24.248 16.447,18.746 21.948,24.248z"><title>Remove vertex.</title></path></g></g><g  id="v-1180" display="none"><g  id="v-1168"><path  end="source" d="M 26 0 L 0 13 L 26 26 z"></path></g><g  id="v-1169"><path  end="target" d="M 26 0 L 0 13 L 26 26 z"></path></g></g><g  id="v-1179" display="none"><g  id="v-1166" transform="translate(979.0029381519065, 901.5151871291141) "><g  event="remove"><circle r="11"></circle><path transform="scale(.8) translate(-16, -16)" d="M24.778,21.419 19.276,15.917 24.777,10.415 21.949,7.585 16.447,13.087 10.945,7.585 8.117,10.415 13.618,15.917 8.116,21.419 10.946,24.248 16.447,18.746 21.948,24.248z"></path><title>Remove link.</title></g><g  event="link:options"><circle r="11" transform="translate(25)"></circle><path fill="white" transform="scale(.55) translate(29, -16)" d="M31.229,17.736c0.064-0.571,0.104-1.148,0.104-1.736s-0.04-1.166-0.104-1.737l-4.377-1.557c-0.218-0.716-0.504-1.401-0.851-2.05l1.993-4.192c-0.725-0.91-1.549-1.734-2.458-2.459l-4.193,1.994c-0.647-0.347-1.334-0.632-2.049-0.849l-1.558-4.378C17.165,0.708,16.588,0.667,16,0.667s-1.166,0.041-1.737,0.105L12.707,5.15c-0.716,0.217-1.401,0.502-2.05,0.849L6.464,4.005C5.554,4.73,4.73,5.554,4.005,6.464l1.994,4.192c-0.347,0.648-0.632,1.334-0.849,2.05l-4.378,1.557C0.708,14.834,0.667,15.412,0.667,16s0.041,1.165,0.105,1.736l4.378,1.558c0.217,0.715,0.502,1.401,0.849,2.049l-1.994,4.193c0.725,0.909,1.549,1.733,2.459,2.458l4.192-1.993c0.648,0.347,1.334,0.633,2.05,0.851l1.557,4.377c0.571,0.064,1.148,0.104,1.737,0.104c0.588,0,1.165-0.04,1.736-0.104l1.558-4.377c0.715-0.218,1.399-0.504,2.049-0.851l4.193,1.993c0.909-0.725,1.733-1.549,2.458-2.458l-1.993-4.193c0.347-0.647,0.633-1.334,0.851-2.049L31.229,17.736zM16,20.871c-2.69,0-4.872-2.182-4.872-4.871c0-2.69,2.182-4.872,4.872-4.872c2.689,0,4.871,2.182,4.871,4.872C20.871,18.689,18.689,20.871,16,20.871z"></path><title>Link options.</title></g></g></g></g><!--z-index:79--><g   id="j_119" ><path  stroke="#000000" d="M 1469 904 L 1779 901" id="v-1193" stroke-width="1" stroke-dasharray="" fill="none" style="opacity: 1;"></path><path  fill="black" stroke="black" d="M 0 0 0 0" transform="matrix(0.9999783474623815,-0.006580623557441455,0.006580623557441455,0.9999783474623815,1469,903.52001953125)"></path><path  fill="#000000" stroke="#000000" d="M 10 0 L 0 5 L 10 10 z" id="v-1195" transform="matrix(-0.9999783474623815,0.006580623557441332,-0.006580623557441332,-0.9999783474623815,1779.0329169254117,906.4798670374935)" style="opacity: 1;"></path><path  d="M 1469 904 L 1779 901" id="v-1194" fill="none" style="cursor: default;"></path><g ><g id="v-1187"  label-idx="0" cursor="move" transform="matrix(1,0,0,1,1624,902.5)" style="cursor: default; opacity: 1;"><rect joint-selector="rect" id="v-1190" fill="#ffffff" rx="3" ry="3" pointer-events="none" width="196.1766815185547" height="90.38963317871094" transform="matrix(1,0,0,1,-98.1,-45.2)"></rect><text joint-selector="text" id="v-1189" font-size="24px" xml:space="preserve" y="0.8em" fill="#000000" text-anchor="middle" pointer-events="none" font-family="Open Sans, Tahoma, Arial" font-weight="normal" transform="matrix(1,0,0,1,0,-39.4)"><tspan dy="0" >Пересылает</tspan><tspan dy="1.2em" x="0" >аудит-логи [3100</tspan><tspan dy="1.2em" x="0" >TCP]</tspan></text></g><g id="v-1188"  label-idx="1" cursor="move" transform="matrix(1,0,0,1,1614,943.2999877929688)" style="cursor: default; opacity: 1;"><rect joint-selector="rect" id="v-1192" fill="#ffffff" rx="3" ry="3"  width="0" height="0" transform="matrix(1,0,0,1,0,0)" display="none"></rect><text joint-selector="text" id="v-1191" fill="#000000" font-size="14" text-anchor="middle" pointer-events="none"></text></g></g><g  display="none"></g><g  id="v-1197" display="none"><g  id="v-1185"><path  end="source" d="M 26 0 L 0 13 L 26 26 z"></path></g><g  id="v-1186"><path  end="target" d="M 26 0 L 0 13 L 26 26 z"></path></g></g><g  id="v-1196" display="none"><g  id="v-1184" transform="translate(1508.998127082644, 903.6129213508132) "><g  event="remove"><circle r="11"></circle><path transform="scale(.8) translate(-16, -16)" d="M24.778,21.419 19.276,15.917 24.777,10.415 21.949,7.585 16.447,13.087 10.945,7.585 8.117,10.415 13.618,15.917 8.116,21.419 10.946,24.248 16.447,18.746 21.948,24.248z"></path><title>Remove link.</title></g><g  event="link:options"><circle r="11" transform="translate(25)"></circle><path fill="white" transform="scale(.55) translate(29, -16)" d="M31.229,17.736c0.064-0.571,0.104-1.148,0.104-1.736s-0.04-1.166-0.104-1.737l-4.377-1.557c-0.218-0.716-0.504-1.401-0.851-2.05l1.993-4.192c-0.725-0.91-1.549-1.734-2.458-2.459l-4.193,1.994c-0.647-0.347-1.334-0.632-2.049-0.849l-1.558-4.378C17.165,0.708,16.588,0.667,16,0.667s-1.166,0.041-1.737,0.105L12.707,5.15c-0.716,0.217-1.401,0.502-2.05,0.849L6.464,4.005C5.554,4.73,4.73,5.554,4.005,6.464l1.994,4.192c-0.347,0.648-0.632,1.334-0.849,2.05l-4.378,1.557C0.708,14.834,0.667,15.412,0.667,16s0.041,1.165,0.105,1.736l4.378,1.558c0.217,0.715,0.502,1.401,0.849,2.049l-1.994,4.193c0.725,0.909,1.549,1.733,2.459,2.458l4.192-1.993c0.648,0.347,1.334,0.633,2.05,0.851l1.557,4.377c0.571,0.064,1.148,0.104,1.737,0.104c0.588,0,1.165-0.04,1.736-0.104l1.558-4.377c0.715-0.218,1.399-0.504,2.049-0.851l4.193,1.993c0.909-0.725,1.733-1.549,2.458-2.458l-1.993-4.193c0.347-0.647,0.633-1.334,0.851-2.049L31.229,17.736zM16,20.871c-2.69,0-4.872-2.182-4.872-4.871c0-2.69,2.182-4.872,4.872-4.872c2.689,0,4.871,2.182,4.871,4.872C20.871,18.689,18.689,20.871,16,20.871z"></path><title>Link options.</title></g></g></g></g><!--z-index:80--><!--z-index:81--><!--z-index:82--><!--z-index:83--><!--z-index:84--><!--z-index:85--><!--z-index:86--><!--z-index:87--><!--z-index:88--><!--z-index:89--><!--z-index:90--><!--z-index:91--><!--z-index:92--><!--z-index:93--><!--z-index:94--><!--z-index:95--><!--z-index:96--><!--z-index:97--><!--z-index:98--><!--z-index:99--><!--z-index:100--><!--z-index:101--><!--z-index:102--><!--z-index:103--><!--z-index:104--><!--z-index:105--><!--z-index:106--><!--z-index:107--><!--z-index:108--><!--z-index:109--><!--z-index:110--><!--z-index:111--><!--z-index:112--><!--z-index:113--><!--z-index:114--><!--z-index:115--><!--z-index:116--><!--z-index:117--><!--z-index:118--><!--z-index:119--><!--z-index:120--><!--z-index:121--><!--z-index:122--><!--z-index:123--><!--z-index:124--><!--z-index:125--><!--z-index:126--><!--z-index:127--><!--z-index:128--><!--z-index:129--><!--z-index:130--><!--z-index:131--><!--z-index:132--><!--z-index:133--><!--z-index:134--><!--z-index:135--><!--z-index:136--><!--z-index:137--><!--z-index:138--><!--z-index:139--><!--z-index:140--><!--z-index:141--><!--z-index:142--><!--z-index:143--><!--z-index:144--><!--z-index:145--><!--z-index:146--><!--z-index:147--><!--z-index:148--><!--z-index:149--><!--z-index:150--><!--z-index:151--><!--z-index:152--><!--z-index:153--><!--z-index:154--><!--z-index:155--><!--z-index:156--><!--z-index:157--><!--z-index:158--><!--z-index:159--><!--z-index:160--><!--z-index:161--><!--z-index:162--><!--z-index:163--><!--z-index:164--><!--z-index:165--><!--z-index:166--><!--z-index:167--><!--z-index:168--></g><g ></g><g ></g><g ></g></g></svg>