<svg xmlns="http://www.w3.org/2000/svg" xmlns:xlink="http://www.w3.org/1999/xlink" version="1.1" viewBox="0 0 2320 1493" style="background: #ffffff"><defs joint-selector="defs"></defs><g joint-selector="layers"  transform="matrix(1,0,0,1,0,0)"><g ></g><g ><!--z-index:1--><!--z-index:2--><!--z-index:3--><!--z-index:4--><!--z-index:5--><!--z-index:6--><!--z-index:7--><!--z-index:8--><!--z-index:9--><!--z-index:10--><!--z-index:11--><!--z-index:12--><!--z-index:13--><!--z-index:14--><!--z-index:15--><!--z-index:16--><!--z-index:17--><!--z-index:18--><!--z-index:19--><!--z-index:20--><!--z-index:21--><!--z-index:22--><!--z-index:23--><!--z-index:24--><!--z-index:25--><!--z-index:26--><!--z-index:27--><!--z-index:28--><!--z-index:29--><!--z-index:30--><!--z-index:31--><!--z-index:32--><!--z-index:33--><!--z-index:34--><!--z-index:35--><!--z-index:36--><!--z-index:37--><!--z-index:38--><!--z-index:39--><!--z-index:40--><!--z-index:41--><!--z-index:42--><!--z-index:43--><!--z-index:44--><!--z-index:45--><!--z-index:46--><!--z-index:47--><!--z-index:48--><!--z-index:49--><!--z-index:50--><!--z-index:51--><!--z-index:52--><!--z-index:53--><!--z-index:54--><!--z-index:55--><!--z-index:56--><!--z-index:57--><!--z-index:58--><!--z-index:59--><!--z-index:60--><g   id="j_263"  transform="translate(20,1449)"><g id="v-2782"><text  id="v-2783" font-size="24px" xml:space="preserve" y="0.8em" font-weight="normal" text-anchor="start" fill="#444444" pointer-events="none" display="block" font-family="Open Sans, Tahoma, Arial"><tspan dy="0"  display="none">вторник, 16 июня 2026 г. в 14:14 Восточная Европа, стандартное время</tspan></text></g></g><!--z-index:61--><g   id="j_262"  transform="translate(20,1403)"><g id="v-2780"><text  id="v-2781" font-size="36px" xml:space="preserve" y="0.8em" font-weight="normal" text-anchor="start" fill="#444444" pointer-events="none" display="block" font-family="Open Sans, Tahoma, Arial"><tspan dy="0"  display="none">Container View: Deckhouse Kubernetes Platform</tspan></text></g></g><!--z-index:62--><g   id="j_268"  transform="translate(49,10)" style=""><g id="v-2806"><rect  id="v-2807" width="2220" height="1393" rx="20" ry="20" stroke-width="1" pointer-events="none" stroke="#004df2" fill="#ffffff" stroke-dasharray=""></rect><text  id="v-2808" font-size="33.599999999999994px" xml:space="preserve" y="1354" font-weight="bold" text-anchor="start" pointer-events="visible" font-family="Open Sans, Tahoma, Arial" fill="#003ab5" transform="matrix(1,0,0,1,15,0)"><tspan dy="0" >Deckhouse Kubernetes Platform</tspan></text><text  id="v-2809" font-size="16.799999999999997px" xml:space="preserve" y="1378" font-weight="normal" text-anchor="start" pointer-events="visible" font-family="Open Sans, Tahoma, Arial" fill="#003ab5" transform="matrix(1,0,0,1,15,0)"><tspan dy="0" >[Software System]</tspan></text><image  id="v-2810" pointer-events="visible"></image></g></g><!--z-index:63--><g   id="j_265"  transform="translate(964,30)" style=""><g id="v-2791"><rect  id="v-2792" width="570" height="609" rx="20" ry="20" stroke-width="1" pointer-events="none" stroke="#325ebd" fill="#f6f9ff" stroke-dasharray="1,2"></rect><text  id="v-2793" font-size="33.599999999999994px" xml:space="preserve" y="594" font-weight="bold" text-anchor="start" pointer-events="visible" font-family="Open Sans, Tahoma, Arial" fill="#325ebd" transform="matrix(1,0,0,1,15,0)"><tspan dy="0" >Kubernetes &amp; Scheduling subsystem</tspan></text><text  id="v-2794" font-size="16.799999999999997px" xml:space="preserve" display="none" y="594" font-weight="normal" text-anchor="start" pointer-events="visible" font-family="Open Sans, Tahoma, Arial" fill="#325ebd" transform="matrix(1,0,0,1,15,0)"><tspan dy="0" style="fill-opacity: 0; stroke-opacity: 0;" >-</tspan></text><image  id="v-2795" pointer-events="visible"></image></g></g><!--z-index:64--><g   id="j_270"  transform="translate(959,695)" style=""><g id="v-2818"><rect  id="v-2819" width="1290" height="609" rx="20" ry="20" stroke-width="1" pointer-events="none" stroke="#325ebd" fill="#f6f9ff" stroke-dasharray="1,2"></rect><text  id="v-2820" font-size="33.599999999999994px" xml:space="preserve" y="594" font-weight="bold" text-anchor="start" pointer-events="visible" font-family="Open Sans, Tahoma, Arial" fill="#325ebd" transform="matrix(1,0,0,1,15,0)"><tspan dy="0" >Observability subsystem</tspan></text><text  id="v-2821" font-size="16.799999999999997px" xml:space="preserve" display="none" y="594" font-weight="normal" text-anchor="start" pointer-events="visible" font-family="Open Sans, Tahoma, Arial" fill="#325ebd" transform="matrix(1,0,0,1,15,0)"><tspan dy="0" style="fill-opacity: 0; stroke-opacity: 0;" >-</tspan></text><image  id="v-2822" pointer-events="visible"></image></g></g><!--z-index:65--><g   id="j_275"  transform="translate(69,385)" style=""><g id="v-2850"><rect  id="v-2851" width="570" height="609" rx="20" ry="20" stroke-width="1" pointer-events="none" stroke="#325ebd" fill="#f6f9ff" stroke-dasharray="1,2"></rect><text  id="v-2852" font-size="33.599999999999994px" xml:space="preserve" y="594" font-weight="bold" text-anchor="start" pointer-events="visible" font-family="Open Sans, Tahoma, Arial" fill="#325ebd" transform="matrix(1,0,0,1,15,0)"><tspan dy="0" >Virtualization subsystem</tspan></text><text  id="v-2853" font-size="16.799999999999997px" xml:space="preserve" display="none" y="594" font-weight="normal" text-anchor="start" pointer-events="visible" font-family="Open Sans, Tahoma, Arial" fill="#325ebd" transform="matrix(1,0,0,1,15,0)"><tspan dy="0" style="fill-opacity: 0; stroke-opacity: 0;" >-</tspan></text><image  id="v-2854" pointer-events="visible"></image></g></g><!--z-index:66--><g   id="j_266"  transform="translate(984,50)" style=""><g id="v-2796"><rect  id="v-2797" width="530" height="506" rx="20" ry="20" stroke-width="1" pointer-events="none" stroke="#325ebd" fill="#d8e4ff" stroke-dasharray="1,2"></rect><text  id="v-2798" font-size="33.599999999999994px" xml:space="preserve" y="491" font-weight="bold" text-anchor="start" pointer-events="visible" font-family="Open Sans, Tahoma, Arial" fill="#325ebd" transform="matrix(1,0,0,1,15,0)"><tspan dy="0" >Kubernetes cluster's control plane</tspan></text><text  id="v-2799" font-size="16.799999999999997px" xml:space="preserve" display="none" y="491" font-weight="normal" text-anchor="start" pointer-events="visible" font-family="Open Sans, Tahoma, Arial" fill="#325ebd" transform="matrix(1,0,0,1,15,0)"><tspan dy="0" style="fill-opacity: 0; stroke-opacity: 0;" >-</tspan></text><image  id="v-2800" pointer-events="visible"></image></g></g><!--z-index:67--><g   id="j_269"  transform="translate(1779,750)" style=""><g  id="v-2811" style="opacity: 1;"><rect  id="v-2812" rx="20" ry="20" stroke-width="1" pointer-events="visiblePainted" fill="#d8e4ff" stroke="#325ebd" stroke-dasharray="" width="450" height="300"></rect><text  id="v-2813" font-size="33.599999999999994px" xml:space="preserve" y="101.30000000000001" font-weight="bold" text-anchor="middle" pointer-events="visible" font-family="Open Sans, Tahoma, Arial" fill="#325ebd" dominant-baseline="hanging" transform="matrix(1,0,0,1,225,0)"><tspan dy="0" >loki</tspan></text><text  id="v-2814" font-size="16.799999999999997px" xml:space="preserve" y="142.9" text-anchor="middle" font-family="Open Sans, Tahoma, Arial" fill="#325ebd" dominant-baseline="hanging" transform="matrix(1,0,0,1,225,0)" style="display: block;"><tspan dy="0" >[Container]</tspan></text><text  id="v-2815" font-size="24px" xml:space="preserve" y="174.7" text-anchor="middle" font-family="Open Sans, Tahoma, Arial" fill="#325ebd" dominant-baseline="hanging" transform="matrix(1,0,0,1,225,0)" style="display: block;"><tspan dy="0" >Module</tspan></text><g  id="v-2816" color="#325ebd" transform="matrix(1,0,0,1,222.5,268)" display="none"><g ></g><g ></g><g ></g><g ></g></g><image  id="v-2817"></image></g></g><!--z-index:68--><g   id="j_272"  transform="translate(979,715)" style=""><g id="v-2830"><rect  id="v-2831" width="530" height="506" rx="20" ry="20" stroke-width="1" pointer-events="none" stroke="#325ebd" fill="#d8e4ff" stroke-dasharray="1,2"></rect><text  id="v-2832" font-size="33.599999999999994px" xml:space="preserve" y="491" font-weight="bold" text-anchor="start" pointer-events="visible" font-family="Open Sans, Tahoma, Arial" fill="#325ebd" transform="matrix(1,0,0,1,15,0)"><tspan dy="0" >log-shipper module</tspan></text><text  id="v-2833" font-size="16.799999999999997px" xml:space="preserve" display="none" y="491" font-weight="normal" text-anchor="start" pointer-events="visible" font-family="Open Sans, Tahoma, Arial" fill="#325ebd" transform="matrix(1,0,0,1,15,0)"><tspan dy="0" style="fill-opacity: 0; stroke-opacity: 0;" >-</tspan></text><image  id="v-2834" pointer-events="visible"></image></g></g><!--z-index:69--><g   id="j_276"  transform="translate(89,405)" style=""><g id="v-2855"><rect  id="v-2856" width="530" height="506" rx="20" ry="20" stroke-width="1" pointer-events="none" stroke="#325ebd" fill="#d8e4ff" stroke-dasharray="1,2"></rect><text  id="v-2857" font-size="33.599999999999994px" xml:space="preserve" y="491" font-weight="bold" text-anchor="start" pointer-events="visible" font-family="Open Sans, Tahoma, Arial" fill="#325ebd" transform="matrix(1,0,0,1,15,0)"><tspan dy="0" >virtualization module</tspan></text><text  id="v-2858" font-size="16.799999999999997px" xml:space="preserve" display="none" y="491" font-weight="normal" text-anchor="start" pointer-events="visible" font-family="Open Sans, Tahoma, Arial" fill="#325ebd" transform="matrix(1,0,0,1,15,0)"><tspan dy="0" style="fill-opacity: 0; stroke-opacity: 0;" >-</tspan></text><image  id="v-2859" pointer-events="visible"></image></g></g><!--z-index:70--><g   id="j_267"  transform="translate(1004,70)" style=""><g id="v-2801"><rect  id="v-2802" width="490" height="403" rx="20" ry="20" stroke-width="1" pointer-events="none" stroke="#000000" fill="#ffffff" stroke-dasharray="1,2"></rect><text  id="v-2803" font-size="33.599999999999994px" xml:space="preserve" y="388" font-weight="bold" text-anchor="start" pointer-events="visible" font-family="Open Sans, Tahoma, Arial" fill="#000000" transform="matrix(1,0,0,1,15,0)"><tspan dy="0" >kube-apiserver [pod]</tspan></text><text  id="v-2804" font-size="16.799999999999997px" xml:space="preserve" display="none" y="388" font-weight="normal" text-anchor="start" pointer-events="visible" font-family="Open Sans, Tahoma, Arial" fill="#000000" transform="matrix(1,0,0,1,15,0)"><tspan dy="0" style="fill-opacity: 0; stroke-opacity: 0;" >-</tspan></text><image  id="v-2805" pointer-events="visible"></image></g></g><!--z-index:71--><g   id="j_273"  transform="translate(999,735)" style=""><g id="v-2835"><rect  id="v-2836" width="490" height="403" rx="20" ry="20" stroke-width="1" pointer-events="none" stroke="#000000" fill="#ffffff" stroke-dasharray="1,2"></rect><text  id="v-2837" font-size="33.599999999999994px" xml:space="preserve" y="388" font-weight="bold" text-anchor="start" pointer-events="visible" font-family="Open Sans, Tahoma, Arial" fill="#000000" transform="matrix(1,0,0,1,15,0)"><tspan dy="0" >log-shipper-agent [pod]</tspan></text><text  id="v-2838" font-size="16.799999999999997px" xml:space="preserve" display="none" y="388" font-weight="normal" text-anchor="start" pointer-events="visible" font-family="Open Sans, Tahoma, Arial" fill="#000000" transform="matrix(1,0,0,1,15,0)"><tspan dy="0" style="fill-opacity: 0; stroke-opacity: 0;" >-</tspan></text><image  id="v-2839" pointer-events="visible"></image></g></g><!--z-index:72--><g   id="j_277"  transform="translate(109,425)" style=""><g id="v-2860"><rect  id="v-2861" width="490" height="403" rx="20" ry="20" stroke-width="1" pointer-events="none" stroke="#000000" fill="#ffffff" stroke-dasharray="1,2"></rect><text  id="v-2862" font-size="33.599999999999994px" xml:space="preserve" y="388" font-weight="bold" text-anchor="start" pointer-events="visible" font-family="Open Sans, Tahoma, Arial" fill="#000000" transform="matrix(1,0,0,1,15,0)"><tspan dy="0" >virtualization-audit [pod]</tspan></text><text  id="v-2863" font-size="16.799999999999997px" xml:space="preserve" display="none" y="388" font-weight="normal" text-anchor="start" pointer-events="visible" font-family="Open Sans, Tahoma, Arial" fill="#000000" transform="matrix(1,0,0,1,15,0)"><tspan dy="0" style="fill-opacity: 0; stroke-opacity: 0;" >-</tspan></text><image  id="v-2864" pointer-events="visible"></image></g></g><!--z-index:73--><g   id="j_264"  transform="translate(1024,90)" style=""><g  id="v-2784" style="opacity: 1;"><rect  id="v-2785" rx="20" ry="20" stroke-width="2" pointer-events="visiblePainted" fill="#e3ebff" stroke="#485d8e" stroke-dasharray="" width="450" height="300"></rect><text  id="v-2786" font-size="33.599999999999994px" xml:space="preserve" y="120.80000000000001" font-weight="bold" text-anchor="middle" pointer-events="visible" font-family="Open Sans, Tahoma, Arial" fill="#000000" dominant-baseline="hanging" transform="matrix(1,0,0,1,225,0)"><tspan dy="0" >kube-apiserver</tspan></text><text  id="v-2787" font-size="16.799999999999997px" xml:space="preserve" y="162.4" text-anchor="middle" font-family="Open Sans, Tahoma, Arial" fill="#000000" dominant-baseline="hanging" transform="matrix(1,0,0,1,225,0)" style="display: block;"><tspan dy="0" >[Container]</tspan></text><text  id="v-2788" font-size="24px" xml:space="preserve" display="none" y="120.80000000000001" text-anchor="middle" font-family="Open Sans, Tahoma, Arial" fill="#000000" dominant-baseline="hanging" transform="matrix(1,0,0,1,225,0)" style="display: block;"><tspan dy="0"  style="fill-opacity: 0; stroke-opacity: 0;">-</tspan></text><g  id="v-2789" color="#000000" transform="matrix(1,0,0,1,222.5,268)" display="none"><g ></g><g ></g><g ></g><g ></g></g><image  id="v-2790"></image></g></g><!--z-index:74--><g   id="j_271"  transform="translate(1019,755)" style=""><g  id="v-2823" style="opacity: 1;"><rect  id="v-2824" rx="20" ry="20" stroke-width="2" pointer-events="visiblePainted" fill="#e3ebff" stroke="#485d8e" stroke-dasharray="" width="450" height="300"></rect><text  id="v-2825" font-size="33.599999999999994px" xml:space="preserve" y="120.80000000000001" font-weight="bold" text-anchor="middle" pointer-events="visible" font-family="Open Sans, Tahoma, Arial" fill="#000000" dominant-baseline="hanging" transform="matrix(1,0,0,1,225,0)"><tspan dy="0" >vector</tspan></text><text  id="v-2826" font-size="16.799999999999997px" xml:space="preserve" y="162.4" text-anchor="middle" font-family="Open Sans, Tahoma, Arial" fill="#000000" dominant-baseline="hanging" transform="matrix(1,0,0,1,225,0)" style="display: block;"><tspan dy="0" >[Container]</tspan></text><text  id="v-2827" font-size="24px" xml:space="preserve" display="none" y="120.80000000000001" text-anchor="middle" font-family="Open Sans, Tahoma, Arial" fill="#000000" dominant-baseline="hanging" transform="matrix(1,0,0,1,225,0)" style="display: block;"><tspan dy="0"  style="fill-opacity: 0; stroke-opacity: 0;">-</tspan></text><g  id="v-2828" color="#000000" transform="matrix(1,0,0,1,222.5,268)" display="none"><g ></g><g ></g><g ></g><g ></g></g><image  id="v-2829"></image></g></g><!--z-index:75--><g   id="j_274"  transform="translate(129,445)" style=""><g  id="v-2843" style="opacity: 1;"><rect  id="v-2844" rx="20" ry="20" stroke-width="2" pointer-events="visiblePainted" fill="#e3ebff" stroke="#485d8e" stroke-dasharray="" width="450" height="300"></rect><text  id="v-2845" font-size="33.599999999999994px" xml:space="preserve" y="120.80000000000001" font-weight="bold" text-anchor="middle" pointer-events="visible" font-family="Open Sans, Tahoma, Arial" fill="#000000" dominant-baseline="hanging" transform="matrix(1,0,0,1,225,0)"><tspan dy="0" >virtualization-audit</tspan></text><text  id="v-2846" font-size="16.799999999999997px" xml:space="preserve" y="162.4" text-anchor="middle" font-family="Open Sans, Tahoma, Arial" fill="#000000" dominant-baseline="hanging" transform="matrix(1,0,0,1,225,0)" style="display: block;"><tspan dy="0" >[Container]</tspan></text><text  id="v-2847" font-size="24px" xml:space="preserve" display="none" y="120.80000000000001" text-anchor="middle" font-family="Open Sans, Tahoma, Arial" fill="#000000" dominant-baseline="hanging" transform="matrix(1,0,0,1,225,0)" style="display: block;"><tspan dy="0"  style="fill-opacity: 0; stroke-opacity: 0;">-</tspan></text><g  id="v-2848" color="#000000" transform="matrix(1,0,0,1,222.5,268)" display="none"><g ></g><g ></g><g ></g><g ></g></g><image  id="v-2849"></image></g></g><!--z-index:76--><g   id="j_278" ><path  stroke="#000000" d="M 579 506 L 1024 329" id="v-2877" stroke-width="1" stroke-dasharray="" fill="none" style="opacity: 1;"></path><path  fill="black" stroke="black" d="M 0 0 0 0" transform="matrix(0.9295531424802643,-0.3686881545494313,0.3686881545494313,0.9295531424802643,579,505.75)"></path><path  fill="#000000" stroke="#000000" d="M 10 0 L 0 5 L 10 10 z" id="v-2879" transform="matrix(-0.9295532406678263,0.368687906994442,-0.368687906994442,-0.9295532406678263,1025.84343962503,333.89777149258566)" style="opacity: 1;"></path><path  d="M 579 506 L 1024 329" id="v-2878" fill="none" style="cursor: default;"></path><g ><g id="v-2871"  label-idx="0" cursor="move" transform="matrix(1,0,0,1,801.5,417.5)" style="cursor: default; opacity: 1;"><rect joint-selector="rect" id="v-2874" fill="#ffffff" rx="3" ry="3" pointer-events="none" width="161.19131469726562" height="147.98963928222656" transform="matrix(1,0,0,1,-80.6,-74)"></rect><text joint-selector="text" id="v-2873" font-size="24px" xml:space="preserve" y="0.8em" fill="#000000" text-anchor="middle" pointer-events="none" font-family="Open Sans, Tahoma, Arial" font-weight="normal" transform="matrix(1,0,0,1,0,-68.2)"><tspan dy="0" >Monitors</tspan><tspan dy="1.2em" x="0" >virtualization</tspan><tspan dy="1.2em" x="0" >module CRs</tspan><tspan dy="1.2em" x="0" >changes [6443</tspan><tspan dy="1.2em" x="0" >TCP]</tspan></text></g><g id="v-2872"  label-idx="1" cursor="move" transform="matrix(1,0,0,1,791.5,487.1000061035156)" style="cursor: default; opacity: 1;"><rect joint-selector="rect" id="v-2876" fill="#ffffff" rx="3" ry="3"  width="0" height="0" transform="matrix(1,0,0,1,0,0)" display="none"></rect><text joint-selector="text" id="v-2875" fill="#000000" font-size="14" text-anchor="middle" pointer-events="none"></text></g></g><g  display="none"></g><g  id="v-2881" display="none"><g  id="v-2869"><path  end="source" d="M 26 0 L 0 13 L 26 26 z"></path></g><g  id="v-2870"><path  end="target" d="M 26 0 L 0 13 L 26 26 z"></path></g></g><g  id="v-2880" display="none"><g  id="v-2868" transform="translate(616.1677989223707, 491.2164035746975) "><g  event="remove"><circle r="11"></circle><path transform="scale(.8) translate(-16, -16)" d="M24.778,21.419 19.276,15.917 24.777,10.415 21.949,7.585 16.447,13.087 10.945,7.585 8.117,10.415 13.618,15.917 8.116,21.419 10.946,24.248 16.447,18.746 21.948,24.248z"></path><title>Remove link.</title></g><g  event="link:options"><circle r="11" transform="translate(25)"></circle><path fill="white" transform="scale(.55) translate(29, -16)" d="M31.229,17.736c0.064-0.571,0.104-1.148,0.104-1.736s-0.04-1.166-0.104-1.737l-4.377-1.557c-0.218-0.716-0.504-1.401-0.851-2.05l1.993-4.192c-0.725-0.91-1.549-1.734-2.458-2.459l-4.193,1.994c-0.647-0.347-1.334-0.632-2.049-0.849l-1.558-4.378C17.165,0.708,16.588,0.667,16,0.667s-1.166,0.041-1.737,0.105L12.707,5.15c-0.716,0.217-1.401,0.502-2.05,0.849L6.464,4.005C5.554,4.73,4.73,5.554,4.005,6.464l1.994,4.192c-0.347,0.648-0.632,1.334-0.849,2.05l-4.378,1.557C0.708,14.834,0.667,15.412,0.667,16s0.041,1.165,0.105,1.736l4.378,1.558c0.217,0.715,0.502,1.401,0.849,2.049l-1.994,4.193c0.725,0.909,1.549,1.733,2.459,2.458l4.192-1.993c0.648,0.347,1.334,0.633,2.05,0.851l1.557,4.377c0.571,0.064,1.148,0.104,1.737,0.104c0.588,0,1.165-0.04,1.736-0.104l1.558-4.377c0.715-0.218,1.399-0.504,2.049-0.851l4.193,1.993c0.909-0.725,1.733-1.549,2.458-2.458l-1.993-4.193c0.347-0.647,0.633-1.334,0.851-2.049L31.229,17.736zM16,20.871c-2.69,0-4.872-2.182-4.872-4.871c0-2.69,2.182-4.872,4.872-4.872c2.689,0,4.871,2.182,4.871,4.872C20.871,18.689,18.689,20.871,16,20.871z"></path><title>Link options.</title></g></g></g></g><!--z-index:77--><g   id="j_279" ><path  stroke="#000000" d="M 1019 766 L 808 635 C 802 631.6666666666666 795.6666666666666 629.6666666666666 789 629 L 579 613" id="v-2895" stroke-width="1" stroke-dasharray="" fill="none" style="opacity: 1;"></path><path  fill="black" stroke="black" d="M 0 0 0 0" transform="matrix(-0.8506637455040049,-0.5257101787916014,0.5257101787916014,-0.8506637455040049,1019,765.9600219726562)"></path><path  fill="#000000" stroke="#000000" d="M 10 0 L 0 5 L 10 10 z" id="v-2897" transform="matrix(0.9969224267269685,0.07839435623061171,-0.07839435623061171,0.9969224267269685,579.3919787881432,607.7153960656808)" style="opacity: 1;"></path><path  d="M 1019 766 L 808 635 C 802 631.6666666666666 795.6666666666666 629.6666666666666 789 629 L 579 613" id="v-2896" fill="none" style="cursor: default;"></path><g ><g id="v-2889"  label-idx="0" cursor="move" transform="matrix(1,0,0,1,815.5130004882812,639.6644897460938)" style="cursor: default; opacity: 1;"><rect joint-selector="rect" id="v-2892" fill="#ffffff" rx="3" ry="3" pointer-events="none" width="187.93048095703125" height="147.98963928222656" transform="matrix(1,0,0,1,-94,-74)"></rect><text joint-selector="text" id="v-2891" font-size="24px" xml:space="preserve" y="0.8em" fill="#000000" text-anchor="middle" pointer-events="none" font-family="Open Sans, Tahoma, Arial" font-weight="normal" transform="matrix(1,0,0,1,0,-68.2)"><tspan dy="0" >Sends security</tspan><tspan dy="1.2em" x="0" >events of CRs of</tspan><tspan dy="1.2em" x="0" >the virtualization</tspan><tspan dy="1.2em" x="0" >module [8443</tspan><tspan dy="1.2em" x="0" >TCP]</tspan></text></g><g id="v-2890"  label-idx="1" cursor="move" transform="matrix(1,0,0,1,805.5130004882812,709.2644653320312)" style="cursor: default; opacity: 1;"><rect joint-selector="rect" id="v-2894" fill="#ffffff" rx="3" ry="3"  width="0" height="0" transform="matrix(1,0,0,1,0,0)" display="none"></rect><text joint-selector="text" id="v-2893" fill="#000000" font-size="14" text-anchor="middle" pointer-events="none"></text></g></g><g  display="none"><g  transform="translate(799, 630)" id="v-2965"><circle  idx="0" r="10"></circle><path  idx="0" d="M16,5.333c-7.732,0-14,4.701-14,10.5c0,1.982,0.741,3.833,2.016,5.414L2,25.667l5.613-1.441c2.339,1.317,5.237,2.107,8.387,2.107c7.732,0,14-4.701,14-10.5C30,10.034,23.732,5.333,16,5.333z" transform="translate(5, -33)"></path><path  idx="0" transform="scale(.8) translate(9.5, -37)" d="M24.778,21.419 19.276,15.917 24.777,10.415 21.949,7.585 16.447,13.087 10.945,7.585 8.117,10.415 13.618,15.917 8.116,21.419 10.946,24.248 16.447,18.746 21.948,24.248z"><title>Remove vertex.</title></path></g></g><g  id="v-2899" display="none"><g  id="v-2887"><path  end="source" d="M 26 0 L 0 13 L 26 26 z"></path></g><g  id="v-2888"><path  end="target" d="M 26 0 L 0 13 L 26 26 z"></path></g></g><g  id="v-2898" display="none"><g  id="v-2885" transform="translate(985.0168820295438, 744.901476520712) "><g  event="remove"><circle r="11"></circle><path transform="scale(.8) translate(-16, -16)" d="M24.778,21.419 19.276,15.917 24.777,10.415 21.949,7.585 16.447,13.087 10.945,7.585 8.117,10.415 13.618,15.917 8.116,21.419 10.946,24.248 16.447,18.746 21.948,24.248z"></path><title>Remove link.</title></g><g  event="link:options"><circle r="11" transform="translate(25)"></circle><path fill="white" transform="scale(.55) translate(29, -16)" d="M31.229,17.736c0.064-0.571,0.104-1.148,0.104-1.736s-0.04-1.166-0.104-1.737l-4.377-1.557c-0.218-0.716-0.504-1.401-0.851-2.05l1.993-4.192c-0.725-0.91-1.549-1.734-2.458-2.459l-4.193,1.994c-0.647-0.347-1.334-0.632-2.049-0.849l-1.558-4.378C17.165,0.708,16.588,0.667,16,0.667s-1.166,0.041-1.737,0.105L12.707,5.15c-0.716,0.217-1.401,0.502-2.05,0.849L6.464,4.005C5.554,4.73,4.73,5.554,4.005,6.464l1.994,4.192c-0.347,0.648-0.632,1.334-0.849,2.05l-4.378,1.557C0.708,14.834,0.667,15.412,0.667,16s0.041,1.165,0.105,1.736l4.378,1.558c0.217,0.715,0.502,1.401,0.849,2.049l-1.994,4.193c0.725,0.909,1.549,1.733,2.459,2.458l4.192-1.993c0.648,0.347,1.334,0.633,2.05,0.851l1.557,4.377c0.571,0.064,1.148,0.104,1.737,0.104c0.588,0,1.165-0.04,1.736-0.104l1.558-4.377c0.715-0.218,1.399-0.504,2.049-0.851l4.193,1.993c0.909-0.725,1.733-1.549,2.458-2.458l-1.993-4.193c0.347-0.647,0.633-1.334,0.851-2.049L31.229,17.736zM16,20.871c-2.69,0-4.872-2.182-4.872-4.871c0-2.69,2.182-4.872,4.872-4.872c2.689,0,4.871,2.182,4.871,4.872C20.871,18.689,18.689,20.871,16,20.871z"></path><title>Link options.</title></g></g></g></g><!--z-index:78--><g   id="j_280" ><path  stroke="#000000" d="M 1019 902 L 854 900 C 847.3333333333333 900 841.3333333333333 898.3333333333333 836 895 L 579 735" id="v-2913" stroke-width="1" stroke-dasharray="" fill="none" style="opacity: 1;"></path><path  fill="black" stroke="black" d="M 0 0 0 0" transform="matrix(-0.9999217051617598,-0.01251333474332957,0.01251333474332957,-0.9999217051617598,1019,902.1900024414062)"></path><path  fill="#000000" stroke="#000000" d="M 10 0 L 0 5 L 10 10 z" id="v-2915" transform="matrix(0.8489687709529472,0.5284430205297846,-0.5284430205297846,0.8489687709529472,581.6422442947592,730.8051407496176)" style="opacity: 1;"></path><path  d="M 1019 902 L 854 900 C 847.3333333333333 900 841.3333333333333 898.3333333333333 836 895 L 579 735" id="v-2914" fill="none" style="cursor: default;"></path><g ><g id="v-2907"  label-idx="0" cursor="move" transform="matrix(1,0,0,1,785.5767211914062,863.6080322265625)" style="cursor: default; opacity: 1;"><rect joint-selector="rect" id="v-2910" fill="#ffffff" rx="3" ry="3" pointer-events="none" width="178.53761291503906" height="90.38963317871094" transform="matrix(1,0,0,1,-89.3,-45.2)"></rect><text joint-selector="text" id="v-2909" font-size="24px" xml:space="preserve" y="0.8em" fill="#000000" text-anchor="middle" pointer-events="none" font-family="Open Sans, Tahoma, Arial" font-weight="normal" transform="matrix(1,0,0,1,0,-39.4)"><tspan dy="0" >Collects</tspan><tspan dy="1.2em" x="0" >processed audit</tspan><tspan dy="1.2em" x="0" >logs</tspan></text></g><g id="v-2908"  label-idx="1" cursor="move" transform="matrix(1,0,0,1,775.5767211914062,904.4080810546875)" style="cursor: default; opacity: 1;"><rect joint-selector="rect" id="v-2912" fill="#ffffff" rx="3" ry="3"  width="0" height="0" transform="matrix(1,0,0,1,0,0)" display="none"></rect><text joint-selector="text" id="v-2911" fill="#000000" font-size="14" text-anchor="middle" pointer-events="none"></text></g></g><g  display="none"><g  transform="translate(844, 900)" id="v-2966"><circle  idx="0" r="10"></circle><path  idx="0" d="M16,5.333c-7.732,0-14,4.701-14,10.5c0,1.982,0.741,3.833,2.016,5.414L2,25.667l5.613-1.441c2.339,1.317,5.237,2.107,8.387,2.107c7.732,0,14-4.701,14-10.5C30,10.034,23.732,5.333,16,5.333z" transform="translate(5, -33)"></path><path  idx="0" transform="scale(.8) translate(9.5, -37)" d="M24.778,21.419 19.276,15.917 24.777,10.415 21.949,7.585 16.447,13.087 10.945,7.585 8.117,10.415 13.618,15.917 8.116,21.419 10.946,24.248 16.447,18.746 21.948,24.248z"><title>Remove vertex.</title></path></g></g><g  id="v-2917" display="none"><g  id="v-2905"><path  end="source" d="M 26 0 L 0 13 L 26 26 z"></path></g><g  id="v-2906"><path  end="target" d="M 26 0 L 0 13 L 26 26 z"></path></g></g><g  id="v-2916" display="none"><g  id="v-2903" transform="translate(979.0029381519065, 901.5151871291141) "><g  event="remove"><circle r="11"></circle><path transform="scale(.8) translate(-16, -16)" d="M24.778,21.419 19.276,15.917 24.777,10.415 21.949,7.585 16.447,13.087 10.945,7.585 8.117,10.415 13.618,15.917 8.116,21.419 10.946,24.248 16.447,18.746 21.948,24.248z"></path><title>Remove link.</title></g><g  event="link:options"><circle r="11" transform="translate(25)"></circle><path fill="white" transform="scale(.55) translate(29, -16)" d="M31.229,17.736c0.064-0.571,0.104-1.148,0.104-1.736s-0.04-1.166-0.104-1.737l-4.377-1.557c-0.218-0.716-0.504-1.401-0.851-2.05l1.993-4.192c-0.725-0.91-1.549-1.734-2.458-2.459l-4.193,1.994c-0.647-0.347-1.334-0.632-2.049-0.849l-1.558-4.378C17.165,0.708,16.588,0.667,16,0.667s-1.166,0.041-1.737,0.105L12.707,5.15c-0.716,0.217-1.401,0.502-2.05,0.849L6.464,4.005C5.554,4.73,4.73,5.554,4.005,6.464l1.994,4.192c-0.347,0.648-0.632,1.334-0.849,2.05l-4.378,1.557C0.708,14.834,0.667,15.412,0.667,16s0.041,1.165,0.105,1.736l4.378,1.558c0.217,0.715,0.502,1.401,0.849,2.049l-1.994,4.193c0.725,0.909,1.549,1.733,2.459,2.458l4.192-1.993c0.648,0.347,1.334,0.633,2.05,0.851l1.557,4.377c0.571,0.064,1.148,0.104,1.737,0.104c0.588,0,1.165-0.04,1.736-0.104l1.558-4.377c0.715-0.218,1.399-0.504,2.049-0.851l4.193,1.993c0.909-0.725,1.733-1.549,2.458-2.458l-1.993-4.193c0.347-0.647,0.633-1.334,0.851-2.049L31.229,17.736zM16,20.871c-2.69,0-4.872-2.182-4.872-4.871c0-2.69,2.182-4.872,4.872-4.872c2.689,0,4.871,2.182,4.871,4.872C20.871,18.689,18.689,20.871,16,20.871z"></path><title>Link options.</title></g></g></g></g><!--z-index:79--><g   id="j_281" ><path  stroke="#000000" d="M 1469 904 L 1779 901" id="v-2930" stroke-width="1" stroke-dasharray="" fill="none" style="opacity: 1;"></path><path  fill="black" stroke="black" d="M 0 0 0 0" transform="matrix(0.9999783474623815,-0.006580623557441455,0.006580623557441455,0.9999783474623815,1469,903.52001953125)"></path><path  fill="#000000" stroke="#000000" d="M 10 0 L 0 5 L 10 10 z" id="v-2932" transform="matrix(-0.9999783474623815,0.006580623557441332,-0.006580623557441332,-0.9999783474623815,1779.0329169254117,906.4798670374935)" style="opacity: 1;"></path><path  d="M 1469 904 L 1779 901" id="v-2931" fill="none" style="cursor: default;"></path><g ><g id="v-2924"  label-idx="0" cursor="move" transform="matrix(1,0,0,1,1624,902.5)" style="cursor: default; opacity: 1;"><rect joint-selector="rect" id="v-2927" fill="#ffffff" rx="3" ry="3" pointer-events="none" width="170.8037567138672" height="61.58963203430176" transform="matrix(1,0,0,1,-85.4,-30.8)"></rect><text joint-selector="text" id="v-2926" font-size="24px" xml:space="preserve" y="0.8em" fill="#000000" text-anchor="middle" pointer-events="none" font-family="Open Sans, Tahoma, Arial" font-weight="normal" transform="matrix(1,0,0,1,0,-25)"><tspan dy="0" >Forwards audit</tspan><tspan dy="1.2em" x="0" >logs [3100 TCP]</tspan></text></g><g id="v-2925"  label-idx="1" cursor="move" transform="matrix(1,0,0,1,1614,928.9000244140625)" style="cursor: default; opacity: 1;"><rect joint-selector="rect" id="v-2929" fill="#ffffff" rx="3" ry="3"  width="0" height="0" transform="matrix(1,0,0,1,0,0)" display="none"></rect><text joint-selector="text" id="v-2928" fill="#000000" font-size="14" text-anchor="middle" pointer-events="none"></text></g></g><g  display="none"></g><g  id="v-2934" display="none"><g  id="v-2922"><path  end="source" d="M 26 0 L 0 13 L 26 26 z"></path></g><g  id="v-2923"><path  end="target" d="M 26 0 L 0 13 L 26 26 z"></path></g></g><g  id="v-2933" display="none"><g  id="v-2921" transform="translate(1508.998127082644, 903.6129213508132) "><g  event="remove"><circle r="11"></circle><path transform="scale(.8) translate(-16, -16)" d="M24.778,21.419 19.276,15.917 24.777,10.415 21.949,7.585 16.447,13.087 10.945,7.585 8.117,10.415 13.618,15.917 8.116,21.419 10.946,24.248 16.447,18.746 21.948,24.248z"></path><title>Remove link.</title></g><g  event="link:options"><circle r="11" transform="translate(25)"></circle><path fill="white" transform="scale(.55) translate(29, -16)" d="M31.229,17.736c0.064-0.571,0.104-1.148,0.104-1.736s-0.04-1.166-0.104-1.737l-4.377-1.557c-0.218-0.716-0.504-1.401-0.851-2.05l1.993-4.192c-0.725-0.91-1.549-1.734-2.458-2.459l-4.193,1.994c-0.647-0.347-1.334-0.632-2.049-0.849l-1.558-4.378C17.165,0.708,16.588,0.667,16,0.667s-1.166,0.041-1.737,0.105L12.707,5.15c-0.716,0.217-1.401,0.502-2.05,0.849L6.464,4.005C5.554,4.73,4.73,5.554,4.005,6.464l1.994,4.192c-0.347,0.648-0.632,1.334-0.849,2.05l-4.378,1.557C0.708,14.834,0.667,15.412,0.667,16s0.041,1.165,0.105,1.736l4.378,1.558c0.217,0.715,0.502,1.401,0.849,2.049l-1.994,4.193c0.725,0.909,1.549,1.733,2.459,2.458l4.192-1.993c0.648,0.347,1.334,0.633,2.05,0.851l1.557,4.377c0.571,0.064,1.148,0.104,1.737,0.104c0.588,0,1.165-0.04,1.736-0.104l1.558-4.377c0.715-0.218,1.399-0.504,2.049-0.851l4.193,1.993c0.909-0.725,1.733-1.549,2.458-2.458l-1.993-4.193c0.347-0.647,0.633-1.334,0.851-2.049L31.229,17.736zM16,20.871c-2.69,0-4.872-2.182-4.872-4.871c0-2.69,2.182-4.872,4.872-4.872c2.689,0,4.871,2.182,4.871,4.872C20.871,18.689,18.689,20.871,16,20.871z"></path><title>Link options.</title></g></g></g></g><!--z-index:80--><!--z-index:81--><!--z-index:82--><!--z-index:83--><!--z-index:84--><!--z-index:85--><!--z-index:86--><!--z-index:87--><!--z-index:88--><!--z-index:89--><!--z-index:90--><!--z-index:91--><!--z-index:92--><!--z-index:93--><!--z-index:94--><!--z-index:95--><!--z-index:96--><!--z-index:97--><!--z-index:98--><!--z-index:99--><!--z-index:100--><!--z-index:101--><!--z-index:102--><!--z-index:103--><!--z-index:104--><!--z-index:105--><!--z-index:106--><!--z-index:107--><!--z-index:108--><!--z-index:109--><!--z-index:110--><!--z-index:111--><!--z-index:112--><!--z-index:113--><!--z-index:114--><!--z-index:115--><!--z-index:116--><!--z-index:117--><!--z-index:118--><!--z-index:119--><!--z-index:120--><!--z-index:121--><!--z-index:122--><!--z-index:123--><!--z-index:124--><!--z-index:125--><!--z-index:126--><!--z-index:127--><!--z-index:128--><!--z-index:129--><!--z-index:130--><!--z-index:131--><!--z-index:132--><!--z-index:133--><!--z-index:134--><!--z-index:135--><!--z-index:136--><!--z-index:137--><!--z-index:138--><!--z-index:139--><!--z-index:140--><!--z-index:141--><!--z-index:142--><!--z-index:143--><!--z-index:144--><!--z-index:145--><!--z-index:146--><!--z-index:147--><!--z-index:148--><!--z-index:149--><!--z-index:150--><!--z-index:151--><!--z-index:152--><!--z-index:153--><!--z-index:154--><!--z-index:155--><!--z-index:156--><!--z-index:157--><!--z-index:158--><!--z-index:159--><!--z-index:160--><!--z-index:161--><!--z-index:162--><!--z-index:163--><!--z-index:164--><!--z-index:165--><!--z-index:166--><!--z-index:167--><!--z-index:168--><!--z-index:169--><!--z-index:170--><!--z-index:171--><!--z-index:172--><!--z-index:173--><!--z-index:174--><!--z-index:175--><!--z-index:176--><!--z-index:177--><!--z-index:178--><!--z-index:179--><!--z-index:180--><!--z-index:181--><!--z-index:182--><!--z-index:183--><!--z-index:184--><!--z-index:185--><!--z-index:186--><!--z-index:187--><!--z-index:188--><!--z-index:189--><!--z-index:190--><!--z-index:191--><!--z-index:192--><!--z-index:193--><!--z-index:194--><!--z-index:195--><!--z-index:196--><!--z-index:197--><!--z-index:198--><!--z-index:199--><!--z-index:200--><!--z-index:201--><!--z-index:202--><!--z-index:203--><!--z-index:204--><!--z-index:205--><!--z-index:206--><!--z-index:207--><!--z-index:208--><!--z-index:209--><!--z-index:210--><!--z-index:211--><!--z-index:212--><!--z-index:213--><!--z-index:214--><!--z-index:215--><!--z-index:216--><!--z-index:217--><!--z-index:218--><!--z-index:219--><!--z-index:220--><!--z-index:221--><!--z-index:222--><!--z-index:223--><!--z-index:224--><!--z-index:225--><!--z-index:226--><!--z-index:227--><!--z-index:228--><!--z-index:229--><!--z-index:230--><!--z-index:231--><!--z-index:232--><!--z-index:233--><!--z-index:234--><!--z-index:235--><!--z-index:236--><!--z-index:237--><!--z-index:238--><!--z-index:239--><!--z-index:240--><!--z-index:241--><!--z-index:242--><!--z-index:243--><!--z-index:244--><!--z-index:245--><!--z-index:246--><!--z-index:247--><!--z-index:248--><!--z-index:249--><!--z-index:250--><!--z-index:251--><!--z-index:252--><!--z-index:253--><!--z-index:254--><!--z-index:255--><!--z-index:256--></g><g ></g><g ></g><g ></g></g></svg>