<svg width="210" height="247" viewBox="0 0 210 247" fill="none" xmlns="http://www.w3.org/2000/svg">
<rect width="21.1916" height="51.6032" transform="matrix(-0.866041 -0.499972 -0.866041 0.499972 108.418 159.143)" fill="#00003C"/>
<rect width="51.6032" height="4.60341" transform="matrix(-0.86601 0.500028 -3.18351e-05 1 108.418 146.138)" fill="white"/>
<rect width="21.1916" height="4.60341" transform="matrix(-0.86601 -0.500028 3.18351e-05 1 63.7147 171.941)" fill="#F5F5F5"/>
<rect width="21.1916" height="51.6032" transform="matrix(-0.866041 -0.499972 -0.866041 0.499972 108.418 146.143)" fill="white"/>
<rect width="51.6032" height="4.60341" transform="matrix(-0.86601 0.500028 -3.18351e-05 1 108.418 146.138)" stroke="#00003C" stroke-linejoin="bevel"/>
<rect width="21.1916" height="4.60341" transform="matrix(-0.86601 -0.500028 3.18351e-05 1 63.7147 171.941)" stroke="#00003C" stroke-linejoin="bevel"/>
<rect width="21.1916" height="51.6032" transform="matrix(-0.866041 -0.499972 -0.866041 0.499972 108.418 146.143)" stroke="#00003C" stroke-linejoin="bevel"/>
<rect width="25.8012" height="25.8012" transform="matrix(-0.86601 0.500028 -3.18351e-05 1 90.3465 123.565)" fill="white"/>
<rect width="9.21307" height="25.8012" transform="matrix(-0.86601 -0.500028 3.18351e-05 1 67.9985 136.466)" fill="#F5F5F5"/>
<rect width="9.21307" height="25.8012" transform="matrix(-0.866041 -0.499972 -0.866041 0.499972 90.3465 123.567)" fill="white"/>
<rect width="25.8012" height="25.8012" transform="matrix(-0.86601 0.500028 -3.18351e-05 1 90.3465 123.565)" stroke="#00003C" stroke-linejoin="bevel"/>
<rect width="9.21307" height="25.8012" transform="matrix(-0.86601 -0.500028 3.18351e-05 1 67.9985 136.466)" stroke="#00003C" stroke-linejoin="bevel"/>
<rect width="9.21307" height="25.8012" transform="matrix(-0.866041 -0.499972 -0.866041 0.499972 90.3465 123.567)" stroke="#00003C" stroke-linejoin="bevel"/>
<rect width="46.0738" height="129.015" transform="matrix(-0.866041 -0.499972 -0.866041 0.499972 209.032 181.584)" fill="#00003C"/>
<rect width="129.015" height="12.8975" transform="matrix(-0.86601 0.500028 -3.18351e-05 1 209.032 158.579)" fill="white"/>
<rect width="46.0738" height="12.8975" transform="matrix(-0.86601 -0.500028 3.18351e-05 1 97.307 223.088)" fill="#F5F5F5"/>
<rect width="46.0738" height="129.015" transform="matrix(-0.866041 -0.499972 -0.866041 0.499972 209.032 158.584)" fill="white"/>
<rect width="129.015" height="12.8975" transform="matrix(-0.86601 0.500028 -3.18351e-05 1 209.032 158.579)" stroke="#00003C" stroke-linejoin="bevel"/>
<rect width="46.0738" height="12.8975" transform="matrix(-0.86601 -0.500028 3.18351e-05 1 97.307 223.088)" stroke="#00003C" stroke-linejoin="bevel"/>
<rect width="46.0738" height="129.015" transform="matrix(-0.866041 -0.499972 -0.866041 0.499972 209.032 158.584)" stroke="#00003C" stroke-linejoin="bevel"/>
<rect width="7.3681" height="1.83871" transform="matrix(-0.86601 0.500028 -3.18351e-05 1 174.02 145.678)" fill="white"/>
<rect width="7.3681" height="1.83871" transform="matrix(-0.86601 -0.500028 3.18351e-05 1 167.63 149.364)" fill="#F5F5F5"/>
<rect width="7.3681" height="7.3681" transform="matrix(-0.866041 -0.499972 -0.866041 0.499972 174.02 145.683)" fill="white"/>
<rect width="7.3681" height="1.83871" transform="matrix(-0.86601 0.500028 -3.18351e-05 1 174.02 145.678)" stroke="#00003C" stroke-width="0.9" stroke-linejoin="bevel"/>
<rect width="7.3681" height="1.83871" transform="matrix(-0.86601 -0.500028 3.18351e-05 1 167.63 149.364)" stroke="#00003C" stroke-width="0.9" stroke-linejoin="bevel"/>
<rect width="7.3681" height="7.3681" transform="matrix(-0.866041 -0.499972 -0.866041 0.499972 174.02 145.683)" stroke="#00003C" stroke-width="0.9" stroke-linejoin="bevel"/>
<rect width="7.3681" height="1.83871" transform="matrix(-0.86601 0.500028 -3.18351e-05 1 162.961 152.129)" fill="white"/>
<rect width="7.3681" height="1.83871" transform="matrix(-0.86601 -0.500028 3.18351e-05 1 156.572 155.814)" fill="#F5F5F5"/>
<rect width="7.3681" height="7.3681" transform="matrix(-0.866041 -0.499972 -0.866041 0.499972 162.961 152.134)" fill="white"/>
<rect width="7.3681" height="1.83871" transform="matrix(-0.86601 0.500028 -3.18351e-05 1 162.961 152.129)" stroke="#00003C" stroke-width="0.9" stroke-linejoin="bevel"/>
<rect width="7.3681" height="1.83871" transform="matrix(-0.86601 -0.500028 3.18351e-05 1 156.572 155.814)" stroke="#00003C" stroke-width="0.9" stroke-linejoin="bevel"/>
<rect width="7.3681" height="7.3681" transform="matrix(-0.866041 -0.499972 -0.866041 0.499972 162.961 152.134)" stroke="#00003C" stroke-width="0.9" stroke-linejoin="bevel"/>
<rect width="7.3681" height="1.83871" transform="matrix(-0.86601 0.500028 -3.18351e-05 1 150.981 158.58)" fill="white"/>
<rect width="7.3681" height="1.83871" transform="matrix(-0.86601 -0.500028 3.18351e-05 1 144.591 162.265)" fill="#F5F5F5"/>
<rect width="7.3681" height="7.3681" transform="matrix(-0.866041 -0.499972 -0.866041 0.499972 150.981 158.585)" fill="white"/>
<rect width="7.3681" height="1.83871" transform="matrix(-0.86601 0.500028 -3.18351e-05 1 150.981 158.58)" stroke="#00003C" stroke-width="0.9" stroke-linejoin="bevel"/>
<rect width="7.3681" height="1.83871" transform="matrix(-0.86601 -0.500028 3.18351e-05 1 144.591 162.265)" stroke="#00003C" stroke-width="0.9" stroke-linejoin="bevel"/>
<rect width="7.3681" height="7.3681" transform="matrix(-0.866041 -0.499972 -0.866041 0.499972 150.981 158.585)" stroke="#00003C" stroke-width="0.9" stroke-linejoin="bevel"/>
<rect width="7.3681" height="1.83871" transform="matrix(-0.86601 0.500028 -3.18351e-05 1 139.922 165.031)" fill="white"/>
<rect width="7.3681" height="1.83871" transform="matrix(-0.86601 -0.500028 3.18351e-05 1 133.532 168.716)" fill="#F5F5F5"/>
<rect width="7.3681" height="7.3681" transform="matrix(-0.866041 -0.499972 -0.866041 0.499972 139.922 165.036)" fill="white"/>
<rect width="7.3681" height="1.83871" transform="matrix(-0.86601 0.500028 -3.18351e-05 1 139.922 165.031)" stroke="#00003C" stroke-width="0.9" stroke-linejoin="bevel"/>
<rect width="7.3681" height="1.83871" transform="matrix(-0.86601 -0.500028 3.18351e-05 1 133.532 168.716)" stroke="#00003C" stroke-width="0.9" stroke-linejoin="bevel"/>
<rect width="7.3681" height="7.3681" transform="matrix(-0.866041 -0.499972 -0.866041 0.499972 139.922 165.036)" stroke="#00003C" stroke-width="0.9" stroke-linejoin="bevel"/>
<rect width="7.3681" height="1.83871" transform="matrix(-0.86601 0.500028 -3.18351e-05 1 128.863 171.482)" fill="white"/>
<rect width="7.3681" height="1.83871" transform="matrix(-0.86601 -0.500028 3.18351e-05 1 122.474 175.167)" fill="#F5F5F5"/>
<rect width="7.3681" height="7.3681" transform="matrix(-0.866041 -0.499972 -0.866041 0.499972 128.863 171.487)" fill="white"/>
<rect width="7.3681" height="1.83871" transform="matrix(-0.86601 0.500028 -3.18351e-05 1 128.863 171.482)" stroke="#00003C" stroke-width="0.9" stroke-linejoin="bevel"/>
<rect width="7.3681" height="1.83871" transform="matrix(-0.86601 -0.500028 3.18351e-05 1 122.474 175.167)" stroke="#00003C" stroke-width="0.9" stroke-linejoin="bevel"/>
<rect width="7.3681" height="7.3681" transform="matrix(-0.866041 -0.499972 -0.866041 0.499972 128.863 171.487)" stroke="#00003C" stroke-width="0.9" stroke-linejoin="bevel"/>
<rect width="7.3681" height="1.83871" transform="matrix(-0.86601 0.500028 -3.18351e-05 1 117.805 177.933)" fill="white"/>
<rect width="7.3681" height="1.83871" transform="matrix(-0.86601 -0.500028 3.18351e-05 1 111.415 181.618)" fill="#F5F5F5"/>
<rect width="7.3681" height="7.3681" transform="matrix(-0.866041 -0.499972 -0.866041 0.499972 117.805 177.938)" fill="white"/>
<rect width="7.3681" height="1.83871" transform="matrix(-0.86601 0.500028 -3.18351e-05 1 117.805 177.933)" stroke="#00003C" stroke-width="0.9" stroke-linejoin="bevel"/>
<rect width="7.3681" height="1.83871" transform="matrix(-0.86601 -0.500028 3.18351e-05 1 111.415 181.618)" stroke="#00003C" stroke-width="0.9" stroke-linejoin="bevel"/>
<rect width="7.3681" height="7.3681" transform="matrix(-0.866041 -0.499972 -0.866041 0.499972 117.805 177.938)" stroke="#00003C" stroke-width="0.9" stroke-linejoin="bevel"/>
<rect width="7.3681" height="1.83871" transform="matrix(-0.86601 0.500028 -3.18351e-05 1 105.824 184.384)" fill="white"/>
<rect width="7.3681" height="1.83871" transform="matrix(-0.86601 -0.500028 3.18351e-05 1 99.4345 188.069)" fill="#F5F5F5"/>
<rect width="7.3681" height="7.3681" transform="matrix(-0.866041 -0.499972 -0.866041 0.499972 105.824 184.389)" fill="white"/>
<rect width="7.3681" height="1.83871" transform="matrix(-0.86601 0.500028 -3.18351e-05 1 105.824 184.384)" stroke="#00003C" stroke-width="0.9" stroke-linejoin="bevel"/>
<rect width="7.3681" height="1.83871" transform="matrix(-0.86601 -0.500028 3.18351e-05 1 99.4345 188.069)" stroke="#00003C" stroke-width="0.9" stroke-linejoin="bevel"/>
<rect width="7.3681" height="7.3681" transform="matrix(-0.866041 -0.499972 -0.866041 0.499972 105.824 184.389)" stroke="#00003C" stroke-width="0.9" stroke-linejoin="bevel"/>
<rect width="7.3681" height="1.83871" transform="matrix(-0.86601 0.500028 -3.18351e-05 1 94.7655 190.835)" fill="white"/>
<rect width="7.3681" height="1.83871" transform="matrix(-0.86601 -0.500028 3.18351e-05 1 88.3758 194.52)" fill="#F5F5F5"/>
<rect width="7.3681" height="7.3681" transform="matrix(-0.866041 -0.499972 -0.866041 0.499972 94.7655 190.84)" fill="white"/>
<rect width="7.3681" height="1.83871" transform="matrix(-0.86601 0.500028 -3.18351e-05 1 94.7655 190.835)" stroke="#00003C" stroke-width="0.9" stroke-linejoin="bevel"/>
<rect width="7.3681" height="1.83871" transform="matrix(-0.86601 -0.500028 3.18351e-05 1 88.3758 194.52)" stroke="#00003C" stroke-width="0.9" stroke-linejoin="bevel"/>
<rect width="7.3681" height="7.3681" transform="matrix(-0.866041 -0.499972 -0.866041 0.499972 94.7655 190.84)" stroke="#00003C" stroke-width="0.9" stroke-linejoin="bevel"/>
<rect width="7.3681" height="1.83871" transform="matrix(-0.86601 0.500028 -3.18351e-05 1 83.7067 197.286)" fill="white"/>
<rect width="7.3681" height="1.83871" transform="matrix(-0.86601 -0.500028 3.18351e-05 1 77.317 200.971)" fill="#F5F5F5"/>
<rect width="7.3681" height="7.3681" transform="matrix(-0.866041 -0.499972 -0.866041 0.499972 83.7067 197.291)" fill="white"/>
<rect width="7.3681" height="1.83871" transform="matrix(-0.86601 0.500028 -3.18351e-05 1 83.7067 197.286)" stroke="#00003C" stroke-width="0.9" stroke-linejoin="bevel"/>
<rect width="7.3681" height="1.83871" transform="matrix(-0.86601 -0.500028 3.18351e-05 1 77.317 200.971)" stroke="#00003C" stroke-width="0.9" stroke-linejoin="bevel"/>
<rect width="7.3681" height="7.3681" transform="matrix(-0.866041 -0.499972 -0.866041 0.499972 83.7067 197.291)" stroke="#00003C" stroke-width="0.9" stroke-linejoin="bevel"/>
<rect width="7.3681" height="1.83871" transform="matrix(-0.86601 0.500028 -3.18351e-05 1 184.157 152.129)" fill="white"/>
<rect width="7.3681" height="1.83871" transform="matrix(-0.86601 -0.500028 3.18351e-05 1 177.768 155.814)" fill="#F5F5F5"/>
<rect width="7.3681" height="7.3681" transform="matrix(-0.866041 -0.499972 -0.866041 0.499972 184.157 152.134)" fill="white"/>
<rect width="7.3681" height="1.83871" transform="matrix(-0.86601 0.500028 -3.18351e-05 1 184.157 152.129)" stroke="#00003C" stroke-width="0.9" stroke-linejoin="bevel"/>
<rect width="7.3681" height="1.83871" transform="matrix(-0.86601 -0.500028 3.18351e-05 1 177.768 155.814)" stroke="#00003C" stroke-width="0.9" stroke-linejoin="bevel"/>
<rect width="7.3681" height="7.3681" transform="matrix(-0.866041 -0.499972 -0.866041 0.499972 184.157 152.134)" stroke="#00003C" stroke-width="0.9" stroke-linejoin="bevel"/>
<rect width="7.3681" height="1.83871" transform="matrix(-0.86601 0.500028 -3.18351e-05 1 173.099 158.58)" fill="white"/>
<rect width="7.3681" height="1.83871" transform="matrix(-0.86601 -0.500028 3.18351e-05 1 166.709 162.265)" fill="#F5F5F5"/>
<rect width="7.3681" height="7.3681" transform="matrix(-0.866041 -0.499972 -0.866041 0.499972 173.099 158.585)" fill="white"/>
<rect width="7.3681" height="1.83871" transform="matrix(-0.86601 0.500028 -3.18351e-05 1 173.099 158.58)" stroke="#00003C" stroke-width="0.9" stroke-linejoin="bevel"/>
<rect width="7.3681" height="1.83871" transform="matrix(-0.86601 -0.500028 3.18351e-05 1 166.709 162.265)" stroke="#00003C" stroke-width="0.9" stroke-linejoin="bevel"/>
<rect width="7.3681" height="7.3681" transform="matrix(-0.866041 -0.499972 -0.866041 0.499972 173.099 158.585)" stroke="#00003C" stroke-width="0.9" stroke-linejoin="bevel"/>
<rect width="7.3681" height="1.83871" transform="matrix(-0.86601 0.500028 -3.18351e-05 1 161.118 165.031)" fill="white"/>
<rect width="7.3681" height="1.83871" transform="matrix(-0.86601 -0.500028 3.18351e-05 1 154.728 168.716)" fill="#F5F5F5"/>
<rect width="7.3681" height="7.3681" transform="matrix(-0.866041 -0.499972 -0.866041 0.499972 161.118 165.036)" fill="white"/>
<rect width="7.3681" height="1.83871" transform="matrix(-0.86601 0.500028 -3.18351e-05 1 161.118 165.031)" stroke="#00003C" stroke-width="0.9" stroke-linejoin="bevel"/>
<rect width="7.3681" height="1.83871" transform="matrix(-0.86601 -0.500028 3.18351e-05 1 154.728 168.716)" stroke="#00003C" stroke-width="0.9" stroke-linejoin="bevel"/>
<rect width="7.3681" height="7.3681" transform="matrix(-0.866041 -0.499972 -0.866041 0.499972 161.118 165.036)" stroke="#00003C" stroke-width="0.9" stroke-linejoin="bevel"/>
<rect width="7.3681" height="1.83871" transform="matrix(-0.86601 0.500028 -3.18351e-05 1 150.059 171.482)" fill="white"/>
<rect width="7.3681" height="1.83871" transform="matrix(-0.86601 -0.500028 3.18351e-05 1 143.67 175.167)" fill="#F5F5F5"/>
<rect width="7.3681" height="7.3681" transform="matrix(-0.866041 -0.499972 -0.866041 0.499972 150.059 171.487)" fill="white"/>
<rect width="7.3681" height="1.83871" transform="matrix(-0.86601 0.500028 -3.18351e-05 1 150.059 171.482)" stroke="#00003C" stroke-width="0.9" stroke-linejoin="bevel"/>
<rect width="7.3681" height="1.83871" transform="matrix(-0.86601 -0.500028 3.18351e-05 1 143.67 175.167)" stroke="#00003C" stroke-width="0.9" stroke-linejoin="bevel"/>
<rect width="7.3681" height="7.3681" transform="matrix(-0.866041 -0.499972 -0.866041 0.499972 150.059 171.487)" stroke="#00003C" stroke-width="0.9" stroke-linejoin="bevel"/>
<rect width="7.3681" height="1.83871" transform="matrix(-0.86601 0.500028 -3.18351e-05 1 139.001 177.933)" fill="white"/>
<rect width="7.3681" height="1.83871" transform="matrix(-0.86601 -0.500028 3.18351e-05 1 132.611 181.618)" fill="#F5F5F5"/>
<rect width="7.3681" height="7.3681" transform="matrix(-0.866041 -0.499972 -0.866041 0.499972 139.001 177.938)" fill="white"/>
<rect width="7.3681" height="1.83871" transform="matrix(-0.86601 0.500028 -3.18351e-05 1 139.001 177.933)" stroke="#00003C" stroke-width="0.9" stroke-linejoin="bevel"/>
<rect width="7.3681" height="1.83871" transform="matrix(-0.86601 -0.500028 3.18351e-05 1 132.611 181.618)" stroke="#00003C" stroke-width="0.9" stroke-linejoin="bevel"/>
<rect width="7.3681" height="7.3681" transform="matrix(-0.866041 -0.499972 -0.866041 0.499972 139.001 177.938)" stroke="#00003C" stroke-width="0.9" stroke-linejoin="bevel"/>
<rect width="7.3681" height="1.83871" transform="matrix(-0.86601 0.500028 -3.18351e-05 1 127.942 184.384)" fill="white"/>
<rect width="7.3681" height="1.83871" transform="matrix(-0.86601 -0.500028 3.18351e-05 1 121.552 188.069)" fill="#F5F5F5"/>
<rect width="7.3681" height="7.3681" transform="matrix(-0.866041 -0.499972 -0.866041 0.499972 127.942 184.389)" fill="white"/>
<rect width="7.3681" height="1.83871" transform="matrix(-0.86601 0.500028 -3.18351e-05 1 127.942 184.384)" stroke="#00003C" stroke-width="0.9" stroke-linejoin="bevel"/>
<rect width="7.3681" height="1.83871" transform="matrix(-0.86601 -0.500028 3.18351e-05 1 121.552 188.069)" stroke="#00003C" stroke-width="0.9" stroke-linejoin="bevel"/>
<rect width="7.3681" height="7.3681" transform="matrix(-0.866041 -0.499972 -0.866041 0.499972 127.942 184.389)" stroke="#00003C" stroke-width="0.9" stroke-linejoin="bevel"/>
<rect width="7.3681" height="1.83871" transform="matrix(-0.86601 0.500028 -3.18351e-05 1 115.962 190.835)" fill="white"/>
<rect width="7.3681" height="1.83871" transform="matrix(-0.86601 -0.500028 3.18351e-05 1 109.572 194.52)" fill="#F5F5F5"/>
<rect width="7.3681" height="7.3681" transform="matrix(-0.866041 -0.499972 -0.866041 0.499972 115.962 190.84)" fill="white"/>
<rect width="7.3681" height="1.83871" transform="matrix(-0.86601 0.500028 -3.18351e-05 1 115.962 190.835)" stroke="#00003C" stroke-width="0.9" stroke-linejoin="bevel"/>
<rect width="7.3681" height="1.83871" transform="matrix(-0.86601 -0.500028 3.18351e-05 1 109.572 194.52)" stroke="#00003C" stroke-width="0.9" stroke-linejoin="bevel"/>
<rect width="7.3681" height="7.3681" transform="matrix(-0.866041 -0.499972 -0.866041 0.499972 115.962 190.84)" stroke="#00003C" stroke-width="0.9" stroke-linejoin="bevel"/>
<rect width="7.3681" height="1.83871" transform="matrix(-0.86601 0.500028 -3.18351e-05 1 104.903 197.286)" fill="white"/>
<rect width="7.3681" height="1.83871" transform="matrix(-0.86601 -0.500028 3.18351e-05 1 98.513 200.971)" fill="#F5F5F5"/>
<rect width="7.3681" height="7.3681" transform="matrix(-0.866041 -0.499972 -0.866041 0.499972 104.903 197.291)" fill="white"/>
<rect width="7.3681" height="1.83871" transform="matrix(-0.86601 0.500028 -3.18351e-05 1 104.903 197.286)" stroke="#00003C" stroke-width="0.9" stroke-linejoin="bevel"/>
<rect width="7.3681" height="1.83871" transform="matrix(-0.86601 -0.500028 3.18351e-05 1 98.513 200.971)" stroke="#00003C" stroke-width="0.9" stroke-linejoin="bevel"/>
<rect width="7.3681" height="7.3681" transform="matrix(-0.866041 -0.499972 -0.866041 0.499972 104.903 197.291)" stroke="#00003C" stroke-width="0.9" stroke-linejoin="bevel"/>
<rect width="7.3681" height="1.83871" transform="matrix(-0.86601 0.500028 -3.18351e-05 1 93.8439 203.737)" fill="white"/>
<rect width="7.3681" height="1.83871" transform="matrix(-0.86601 -0.500028 3.18351e-05 1 87.4542 207.422)" fill="#F5F5F5"/>
<rect width="7.3681" height="7.3681" transform="matrix(-0.866041 -0.499972 -0.866041 0.499972 93.8439 203.742)" fill="white"/>
<rect width="7.3681" height="1.83871" transform="matrix(-0.86601 0.500028 -3.18351e-05 1 93.8439 203.737)" stroke="#00003C" stroke-width="0.9" stroke-linejoin="bevel"/>
<rect width="7.3681" height="1.83871" transform="matrix(-0.86601 -0.500028 3.18351e-05 1 87.4542 207.422)" stroke="#00003C" stroke-width="0.9" stroke-linejoin="bevel"/>
<rect width="7.3681" height="7.3681" transform="matrix(-0.866041 -0.499972 -0.866041 0.499972 93.8439 203.742)" stroke="#00003C" stroke-width="0.9" stroke-linejoin="bevel"/>
<rect width="7.3681" height="1.83871" transform="matrix(-0.86601 0.500028 -3.18351e-05 1 193.771 158.679)" fill="white"/>
<rect width="7.3681" height="1.83871" transform="matrix(-0.86601 -0.500028 3.18351e-05 1 187.381 162.364)" fill="#F5F5F5"/>
<rect width="7.3681" height="7.3681" transform="matrix(-0.866041 -0.499972 -0.866041 0.499972 193.771 158.684)" fill="white"/>
<rect width="7.3681" height="1.83871" transform="matrix(-0.86601 0.500028 -3.18351e-05 1 193.771 158.679)" stroke="#00003C" stroke-width="0.9" stroke-linejoin="bevel"/>
<rect width="7.3681" height="1.83871" transform="matrix(-0.86601 -0.500028 3.18351e-05 1 187.381 162.364)" stroke="#00003C" stroke-width="0.9" stroke-linejoin="bevel"/>
<rect width="7.3681" height="7.3681" transform="matrix(-0.866041 -0.499972 -0.866041 0.499972 193.771 158.684)" stroke="#00003C" stroke-width="0.9" stroke-linejoin="bevel"/>
<rect width="7.3681" height="1.83871" transform="matrix(-0.86601 0.500028 -3.18351e-05 1 182.868 165.679)" fill="white"/>
<rect width="7.3681" height="1.83871" transform="matrix(-0.86601 -0.500028 3.18351e-05 1 176.479 169.364)" fill="#F5F5F5"/>
<rect width="7.3681" height="7.3681" transform="matrix(-0.866041 -0.499972 -0.866041 0.499972 182.868 165.684)" fill="white"/>
<rect width="7.3681" height="1.83871" transform="matrix(-0.86601 0.500028 -3.18351e-05 1 182.868 165.679)" stroke="#00003C" stroke-width="0.9" stroke-linejoin="bevel"/>
<rect width="7.3681" height="1.83871" transform="matrix(-0.86601 -0.500028 3.18351e-05 1 176.479 169.364)" stroke="#00003C" stroke-width="0.9" stroke-linejoin="bevel"/>
<rect width="7.3681" height="7.3681" transform="matrix(-0.866041 -0.499972 -0.866041 0.499972 182.868 165.684)" stroke="#00003C" stroke-width="0.9" stroke-linejoin="bevel"/>
<rect width="7.3681" height="1.83871" transform="matrix(-0.86601 0.500028 -3.18351e-05 1 171.81 172.13)" fill="white"/>
<rect width="7.3681" height="1.83871" transform="matrix(-0.86601 -0.500028 3.18351e-05 1 165.42 175.815)" fill="#F5F5F5"/>
<rect width="7.3681" height="7.3681" transform="matrix(-0.866041 -0.499972 -0.866041 0.499972 171.81 172.135)" fill="white"/>
<rect width="7.3681" height="1.83871" transform="matrix(-0.86601 0.500028 -3.18351e-05 1 171.81 172.13)" stroke="#00003C" stroke-width="0.9" stroke-linejoin="bevel"/>
<rect width="7.3681" height="1.83871" transform="matrix(-0.86601 -0.500028 3.18351e-05 1 165.42 175.815)" stroke="#00003C" stroke-width="0.9" stroke-linejoin="bevel"/>
<rect width="7.3681" height="7.3681" transform="matrix(-0.866041 -0.499972 -0.866041 0.499972 171.81 172.135)" stroke="#00003C" stroke-width="0.9" stroke-linejoin="bevel"/>
<rect width="7.3681" height="1.83871" transform="matrix(-0.86601 0.500028 -3.18351e-05 1 159.829 178.581)" fill="white"/>
<rect width="7.3681" height="1.83871" transform="matrix(-0.86601 -0.500028 3.18351e-05 1 153.44 182.266)" fill="#F5F5F5"/>
<rect width="7.3681" height="7.3681" transform="matrix(-0.866041 -0.499972 -0.866041 0.499972 159.829 178.586)" fill="white"/>
<rect width="7.3681" height="1.83871" transform="matrix(-0.86601 0.500028 -3.18351e-05 1 159.829 178.581)" stroke="#00003C" stroke-width="0.9" stroke-linejoin="bevel"/>
<rect width="7.3681" height="1.83871" transform="matrix(-0.86601 -0.500028 3.18351e-05 1 153.44 182.266)" stroke="#00003C" stroke-width="0.9" stroke-linejoin="bevel"/>
<rect width="7.3681" height="7.3681" transform="matrix(-0.866041 -0.499972 -0.866041 0.499972 159.829 178.586)" stroke="#00003C" stroke-width="0.9" stroke-linejoin="bevel"/>
<rect width="7.3681" height="1.83871" transform="matrix(-0.86601 0.500028 -3.18351e-05 1 148.771 185.032)" fill="white"/>
<rect width="7.3681" height="1.83871" transform="matrix(-0.86601 -0.500028 3.18351e-05 1 142.381 188.717)" fill="#F5F5F5"/>
<rect width="7.3681" height="7.3681" transform="matrix(-0.866041 -0.499972 -0.866041 0.499972 148.771 185.037)" fill="white"/>
<rect width="7.3681" height="1.83871" transform="matrix(-0.86601 0.500028 -3.18351e-05 1 148.771 185.032)" stroke="#00003C" stroke-width="0.9" stroke-linejoin="bevel"/>
<rect width="7.3681" height="1.83871" transform="matrix(-0.86601 -0.500028 3.18351e-05 1 142.381 188.717)" stroke="#00003C" stroke-width="0.9" stroke-linejoin="bevel"/>
<rect width="7.3681" height="7.3681" transform="matrix(-0.866041 -0.499972 -0.866041 0.499972 148.771 185.037)" stroke="#00003C" stroke-width="0.9" stroke-linejoin="bevel"/>
<rect width="7.3681" height="1.83871" transform="matrix(-0.86601 0.500028 -3.18351e-05 1 103.981 210.188)" fill="white"/>
<rect width="7.3681" height="1.83871" transform="matrix(-0.86601 -0.500028 3.18351e-05 1 97.5914 213.873)" fill="#F5F5F5"/>
<rect width="7.3681" height="7.3681" transform="matrix(-0.866041 -0.499972 -0.866041 0.499972 103.981 210.193)" fill="white"/>
<rect width="7.3681" height="1.83871" transform="matrix(-0.86601 0.500028 -3.18351e-05 1 103.981 210.188)" stroke="#00003C" stroke-width="0.9" stroke-linejoin="bevel"/>
<rect width="7.3681" height="1.83871" transform="matrix(-0.86601 -0.500028 3.18351e-05 1 97.5914 213.873)" stroke="#00003C" stroke-width="0.9" stroke-linejoin="bevel"/>
<rect width="7.3681" height="7.3681" transform="matrix(-0.866041 -0.499972 -0.866041 0.499972 103.981 210.193)" stroke="#00003C" stroke-width="0.9" stroke-linejoin="bevel"/>
<rect width="29.4857" height="1.83871" transform="matrix(-0.86601 0.500028 -3.18351e-05 1 136.922 191.679)" fill="white"/>
<rect width="7.3681" height="1.83871" transform="matrix(-0.86601 -0.500028 3.18351e-05 1 111.381 206.423)" fill="#F5F5F5"/>
<rect width="7.3681" height="29.4857" transform="matrix(-0.866041 -0.499972 -0.866041 0.499972 136.922 191.684)" fill="white"/>
<rect width="29.4857" height="1.83871" transform="matrix(-0.86601 0.500028 -3.18351e-05 1 136.922 191.679)" fill="white" stroke="#00003C" stroke-width="0.9" stroke-linejoin="bevel"/>
<rect width="7.3681" height="1.83871" transform="matrix(-0.86601 -0.500028 3.18351e-05 1 111.381 206.423)" fill="#F5F5F5" stroke="#00003C" stroke-width="0.9" stroke-linejoin="bevel"/>
<rect width="7.3681" height="29.4857" transform="matrix(-0.866041 -0.499972 -0.866041 0.499972 136.922 191.684)" fill="white" stroke="#00003C" stroke-width="0.9" stroke-linejoin="bevel"/>
<rect width="145.603" height="95.8383" transform="matrix(-0.86601 0.500028 -3.18351e-05 1 138.268 7.4433)" fill="white"/>
<rect width="12.8975" height="95.8383" transform="matrix(-0.86601 -0.500028 3.18351e-05 1 12.1719 80.2461)" fill="#F5F5F5"/>
<rect width="12.8975" height="145.603" transform="matrix(-0.866041 -0.499972 -0.866041 0.499972 138.268 7.44839)" fill="white"/>
<rect width="138.337" height="86.314" transform="matrix(-0.866025 0.5 2.20305e-08 1 135.503 14.2798)" fill="#00003C"/>
<path d="M72.3081 116.768L72.3015 116.768L72.2949 116.769C65.0098 117.731 60.0881 112.21 60.0881 103.03C60.0881 90.7154 68.6419 75.7854 79.1201 69.7358C89.5983 63.6862 98.1513 68.7392 98.1339 81.0736L98.1339 81.0752C98.1339 90.2646 93.2225 101.451 85.9298 108.917C85.8829 108.965 85.8337 109.002 85.795 109.024C85.7563 109.047 85.697 109.069 85.6344 109.072C85.5356 109.068 85.4659 109.007 85.4376 108.915L85.436 108.91L81.7071 97.1185C81.7068 97.1175 81.7065 97.1165 81.7062 97.1155C81.647 96.9148 81.741 96.6372 81.8833 96.4647L81.8833 96.4647L81.8905 96.4559C83.7721 94.1471 84.9493 91.1686 84.9493 88.6768C84.9493 84.9228 82.346 83.3505 79.111 85.2182C75.8761 87.086 73.2728 91.6643 73.2728 95.4182C73.2728 97.9121 74.4515 99.5188 76.3316 99.6548L76.3342 99.6549C76.5001 99.6661 76.5773 99.8401 76.5186 100.09L76.5175 100.095L72.7861 116.193L72.7845 116.2C72.7554 116.328 72.6826 116.473 72.5796 116.593C72.4883 116.699 72.3868 116.759 72.3081 116.768Z" stroke="#0064FF" stroke-width="2"/>
<rect width="145.603" height="95.8383" transform="matrix(-0.86601 0.500028 -3.18351e-05 1 138.268 7.4433)" stroke="#00003C" stroke-linejoin="bevel"/>
<rect width="12.8975" height="95.8383" transform="matrix(-0.86601 -0.500028 3.18351e-05 1 12.1719 80.2461)" stroke="#00003C" stroke-linejoin="bevel"/>
<rect width="12.8975" height="145.603" transform="matrix(-0.866041 -0.499972 -0.866041 0.499972 138.268 7.44839)" stroke="#00003C" stroke-linejoin="bevel"/>
</svg>
