<svg width="127" height="194" viewBox="0 0 127 194" fill="none" xmlns="http://www.w3.org/2000/svg">
<rect width="23.734" height="120.093" transform="matrix(0.86601 0.500028 3.18351e-05 1 0.999969 61.0356)" fill="#F5F5F5"/>
<rect width="120.093" height="120.093" transform="matrix(0.86601 -0.500028 -3.18351e-05 1 21.5445 72.9066)" fill="white"/>
<rect width="120.093" height="23.734" transform="matrix(0.866041 -0.499972 0.866041 0.499972 0.999969 61.0433)" fill="white"/>
<rect width="23.734" height="120.093" transform="matrix(0.86601 0.500028 3.18351e-05 1 0.999969 61.0356)" stroke="#00003C" stroke-width="1.58753" stroke-linejoin="bevel"/>
<rect width="120.093" height="120.093" transform="matrix(0.86601 -0.500028 -3.18351e-05 1 21.5445 72.9066)" stroke="#00003C" stroke-width="1.58753" stroke-linejoin="bevel"/>
<rect width="120.093" height="23.734" transform="matrix(0.866041 -0.499972 0.866041 0.499972 0.999969 61.0433)" stroke="#00003C" stroke-width="1.58753" stroke-linejoin="bevel"/>
<path d="M96.8138 79.7255L95.4546 80.5103L95.4548 73.1645C95.4553 59.5778 86.1184 53.6193 74.4479 60.1155C74.129 60.293 73.4919 60.6609 73.1731 60.8515C61.5024 67.8324 52.1649 84.5733 52.1645 98.16L52.1642 105.506L50.8049 106.291C48.7102 107.5 47.0014 110.983 47.0013 114.065L47.0002 150.909C47.0001 153.988 48.7086 155.521 50.8035 154.311L96.8123 127.746C98.907 126.537 100.616 123.031 100.616 119.952L100.617 83.1079C100.617 80.0255 98.9087 78.5159 96.8138 79.7255ZM78.1191 114.482L78.1187 125.615C78.1187 126.89 77.1944 128.502 76.0895 129.14L71.5272 131.775C70.4222 132.413 69.498 131.867 69.498 130.593L69.4984 119.46C68.4268 118.86 67.803 117.536 67.8031 115.673C67.8032 112.143 70.1668 107.744 73.1718 105.869C73.4903 105.67 74.1282 105.302 74.4466 105.133C77.4517 103.538 79.815 105.207 79.8149 108.738C79.8146 110.601 79.1907 112.646 78.1191 114.482ZM86.4958 85.683L74.4469 92.64L73.1721 93.3761L61.1231 100.333L61.1234 92.9872C61.1236 84.8939 66.8198 74.9131 73.8101 70.8769C80.8004 66.8408 86.4965 70.2438 86.4962 78.3371L86.496 85.6829L86.4958 85.683Z" fill="#00003C"/>
<path d="M101.814 79.7255L100.455 80.5103L100.455 73.1645C100.455 59.5778 91.1184 53.6193 79.4479 60.1155C79.129 60.293 78.4919 60.6609 78.1731 60.8515C66.5024 67.8324 57.1649 84.5733 57.1645 98.16L57.1642 105.506L55.8049 106.291C53.7102 107.5 52.0014 110.983 52.0013 114.065L52.0002 150.909C52.0001 153.988 53.7086 155.521 55.8035 154.311L101.812 127.746C103.907 126.537 105.616 123.031 105.616 119.952L105.617 83.1079C105.617 80.0255 103.909 78.5159 101.814 79.7255ZM83.1191 114.482L83.1187 125.615C83.1187 126.89 82.1944 128.502 81.0895 129.14L76.5272 131.775C75.4222 132.413 74.498 131.867 74.498 130.593L74.4984 119.46C73.4268 118.86 72.803 117.536 72.8031 115.673C72.8032 112.143 75.1668 107.744 78.1718 105.869C78.4903 105.67 79.1282 105.302 79.4466 105.133C82.4517 103.538 84.815 105.207 84.8149 108.738C84.8146 110.601 84.1907 112.646 83.1191 114.482ZM91.4958 85.683L79.4469 92.64L78.1721 93.3761L66.1231 100.333L66.1234 92.9872C66.1236 84.8939 71.8198 74.9131 78.8101 70.8769C85.8004 66.8408 91.4965 70.2438 91.4962 78.3371L91.496 85.6829L91.4958 85.683Z" fill="#0064FF"/>
</svg>
