<svg width="144" height="143" viewBox="0 0 144 143" fill="none" xmlns="http://www.w3.org/2000/svg">
<path d="M143.213 71.213L72.0003 0.000244141L0.787583 71.213L72.0003 142.426L143.213 71.213Z" fill="white"/>
<path fill-rule="evenodd" clip-rule="evenodd" d="M52.63 40.4206L59.9424 47.7329L63.6974 43.9779H80.2985L83.8559 47.7329L91.3659 40.4206L71.998 21.0529L52.63 40.4206ZM95.3195 58.997L102.632 51.6847L122 71.0524L102.632 90.4201L95.3195 82.9102L98.8769 79.3529V62.752L95.3195 58.997ZM41.368 51.685L48.6804 58.9973L44.9254 62.7522V79.3531L48.6804 82.9105L41.368 90.4204L22.0001 71.0527L41.368 51.685ZM83.8559 94.3733L87.6109 97.9306L91.3659 101.686L71.998 121.053L52.63 101.686L56.385 97.9306L59.9424 94.3733L63.6974 97.9306H80.2985L83.8559 94.3733Z" fill="#00003C"/>
<path d="M73.9793 84.69H60.3427V57.4171H73.9793C81.4893 57.4171 87.6159 63.5436 87.6159 71.0536C87.6159 78.5635 81.4893 84.69 73.9793 84.69Z" fill="#0064FF"/>
</svg>
