<svg width="450" height="22" viewBox="0 0 450 22" fill="none" xmlns="http://www.w3.org/2000/svg">
<path fill-rule="evenodd" clip-rule="evenodd" d="M65.6122 20.9554L60.6577 13.6744V20.9554H56.5879V0.000244141H60.6577V12.4312L65.2584 5.68299H70.0359L64.9044 12.964L70.5668 20.9554H65.6122ZM17.6605 10.833C17.6605 16.5158 13.4138 20.7778 7.57451 20.7778H0.1427V1.06581H7.57451C13.4138 1.06581 17.6605 5.15028 17.6605 10.833ZM13.2368 10.833C13.2368 7.28131 10.9365 4.9727 7.39755 4.9727H4.38945V16.8709H7.57451C10.9365 16.8709 13.2368 14.3847 13.2368 10.833ZM35.705 14.3846H24.2035C24.5574 16.5156 25.9729 17.5812 27.9194 17.5812C29.3349 17.5812 30.5736 16.8708 31.1044 15.8053H35.5281C34.4664 19.1794 31.4583 21.3105 27.9194 21.3105C23.3187 21.3105 19.9567 17.7587 19.9567 13.1415C19.9567 8.52427 23.3187 4.97256 27.9194 4.97256C32.6969 4.97256 35.882 8.52428 35.882 12.9639C35.7051 13.4967 35.705 14.0294 35.705 14.3846ZM24.2035 11.5432H31.6353C31.1044 9.58979 29.6888 8.70186 27.9194 8.70186C25.9729 8.70186 24.7343 9.76737 24.2035 11.5432ZM37.657 13.1422C37.657 17.7594 41.1959 21.3111 45.7966 21.3111C49.6894 21.3111 52.8745 18.6473 53.7592 15.0956H49.5125C48.8047 16.6939 47.3891 17.5818 45.7966 17.5818C43.6732 17.5818 41.9037 15.806 41.9037 13.3198C41.9037 10.8336 43.4963 9.05771 45.7966 9.05771C47.3891 9.05771 48.8047 9.76805 49.5125 11.3663H53.5823C52.8745 7.63703 49.6894 5.15082 45.7966 5.15082C41.1959 5.15082 37.657 8.52495 37.657 13.1422ZM86.8495 20.9554V11.5433C86.8495 7.63643 84.7262 5.15023 81.3642 5.15023C79.5947 5.15023 78.0022 5.86057 76.7636 6.92609V0.000244141H72.6938V20.9554H76.7636V12.964C76.7636 10.3002 78.0022 8.87953 80.1256 8.87953C81.895 8.87953 82.7798 9.94505 82.7798 12.2537V20.9554H86.8495ZM89.4988 13.1415C89.4988 8.52427 93.0378 4.97256 97.8154 4.97256C102.593 4.97256 106.132 8.34669 106.132 13.1415C106.132 17.7587 102.593 21.3105 97.8154 21.3105C93.0378 21.3105 89.4988 17.7587 89.4988 13.1415ZM101.885 13.1415C101.885 10.6553 100.116 8.87945 97.8154 8.87945C95.515 8.87945 93.7456 10.6553 93.7456 13.1415C93.7456 15.6277 95.515 17.4036 97.8154 17.4036C100.116 17.4036 101.885 15.6277 101.885 13.1415ZM108.785 5.50534V14.3846C108.785 18.4691 111.617 21.3105 115.686 21.3105C120.11 21.3105 122.941 18.4691 122.941 14.3846V5.50534H118.871V13.8519C118.871 16.1605 117.81 17.4036 115.863 17.4036C114.094 17.4036 112.855 15.9829 112.855 13.8519V5.50534H108.785ZM132.318 21.3111C128.426 21.3111 125.948 19.1801 125.948 15.806H130.018C130.018 17.2267 131.08 17.937 132.495 17.937C133.557 17.937 134.619 17.4042 134.619 16.3387C134.619 15.2732 133.203 14.918 131.611 14.7405C129.133 14.3853 126.125 13.6749 126.125 10.1232C126.125 7.28186 128.602 5.15082 132.318 5.15082C136.034 5.15082 138.512 7.28186 138.512 10.3008H134.619C134.619 9.05771 133.734 8.52496 132.318 8.52496C131.08 8.52496 130.195 9.05771 130.195 9.94564C130.195 10.9261 131.244 11.1547 132.652 11.4617C132.774 11.4883 132.899 11.5156 133.026 11.5439C133.119 11.5638 133.213 11.5838 133.307 11.6039C135.737 12.121 138.688 12.749 138.688 16.3387C138.688 19.3577 136.034 21.3111 132.318 21.3111ZM144.886 14.3846H156.388C156.565 14.0294 156.565 13.4967 156.565 12.9639C156.565 8.52428 153.38 4.97256 148.602 4.97256C144.001 4.97256 140.639 8.52427 140.639 13.1415C140.639 17.7587 144.001 21.3105 148.602 21.3105C152.141 21.3105 155.149 19.1794 156.211 15.8053H151.787C151.256 16.8708 150.018 17.5812 148.602 17.5812C146.656 17.5812 145.24 16.5156 144.886 14.3846ZM152.495 11.5432H145.063C145.417 9.76737 146.833 8.70186 148.779 8.70186C150.548 8.70186 151.964 9.58979 152.495 11.5432Z" fill="#0064FF"/>
<path fill-rule="evenodd" clip-rule="evenodd" d="M215.054 13.1416C215.054 17.7588 211.692 21.3105 207.092 21.3105C205.145 21.3105 203.553 20.6002 202.314 19.5347L201.783 20.7778H198.775V0.000244141H202.845V6.39334C204.084 5.50541 205.499 5.15023 207.092 5.15023C211.692 5.15023 215.054 8.52436 215.054 13.1416ZM210.808 13.1416C210.808 10.6554 209.038 8.87953 206.561 8.87953C204.084 8.87953 202.314 10.6554 202.314 13.1416C202.314 15.4502 204.084 17.4037 206.561 17.4037C209.038 17.4037 210.808 15.6278 210.808 13.1416ZM167.811 11.1882L174.889 20.9554V20.7778H180.021L172.589 10.4779L179.313 1.06581H174.358L167.811 10.3003V1.06581H163.565V20.9554H167.811V11.1882ZM180.734 5.50534V14.3846C180.734 18.4691 183.565 21.3105 187.634 21.3105C192.058 21.3105 194.889 18.4691 194.889 14.3846V5.50534H190.82V13.8519C190.82 16.1605 189.758 17.4036 187.811 17.4036C186.042 17.4036 184.803 15.9829 184.803 13.8519V5.50534H180.734ZM221.425 14.3846H232.927C232.927 14.0294 232.927 13.4967 233.104 12.9639C233.104 8.52428 229.919 4.97256 225.141 4.97256C220.541 4.97256 217.179 8.52427 217.179 13.1415C217.179 17.7587 220.541 21.3105 225.141 21.3105C228.68 21.3105 231.688 19.1794 232.75 15.8053H228.326C227.796 16.8708 226.557 17.5812 225.141 17.5812C223.195 17.5812 221.779 16.5156 221.425 14.3846ZM228.857 11.5432H221.425C221.956 9.76737 223.195 8.70186 225.141 8.70186C226.911 8.70186 228.326 9.58979 228.857 11.5432ZM244.96 5.68293V9.41224H243.191C240.89 9.41224 240.006 10.4777 240.006 12.964V20.9553H235.936V5.68293H238.59L239.298 7.63638C240.36 6.21569 241.775 5.68293 243.722 5.68293H244.96ZM261.42 20.7779V11.5435C261.42 7.63658 259.297 5.15038 256.112 5.32797C253.988 5.32797 252.219 6.2159 250.98 7.63659L250.096 5.68314H247.264V20.9555H251.334V12.9642C251.334 10.478 252.573 8.87968 254.696 8.87968C256.466 8.87968 257.35 9.9452 257.35 12.2538V20.7779H261.42ZM280 14.3846H268.498C268.852 16.5156 270.268 17.5812 272.214 17.5812C273.63 17.5812 274.868 16.8708 275.399 15.8053H279.823C278.761 19.1794 275.753 21.3105 272.214 21.3105C267.614 21.3105 264.252 17.7587 264.252 13.1415C264.252 8.52427 267.614 4.97256 272.214 4.97256C276.992 4.97256 280.177 8.52428 280.177 12.9639C280 13.4967 280 14.0294 280 14.3846ZM268.498 11.5432H275.93C275.399 9.58979 273.984 8.70186 272.214 8.70186C270.268 8.70186 269.029 9.76737 268.498 11.5432ZM292.206 20.9555V17.4037H290.26C288.844 17.4037 287.959 16.5158 287.959 15.0951V9.0572H292.029V5.68307H287.783V1.5986H287.075L281.059 7.99168V8.87961H283.713V15.4503C283.713 18.8244 285.836 20.9555 289.198 20.9555H292.206ZM309.72 14.3846H298.218C298.572 16.5156 299.988 17.5812 301.934 17.5812C303.35 17.5812 304.588 16.8708 305.119 15.8053H309.543C308.481 19.1794 305.473 21.3105 301.934 21.3105C297.333 21.3105 293.971 17.7587 293.971 13.1415C293.971 8.52427 297.333 4.97256 301.934 4.97256C306.712 4.97256 309.897 8.52428 309.897 12.9639C309.72 13.4967 309.72 14.0294 309.72 14.3846ZM298.218 11.5432H305.65C305.119 9.58979 303.704 8.70186 301.934 8.70186C299.988 8.70186 298.749 9.76737 298.218 11.5432ZM311.668 15.805C311.668 19.1791 314.145 21.3101 318.038 21.3101C321.931 21.3101 324.585 19.3567 324.408 16.3377C324.408 12.748 321.457 12.12 319.026 11.6029C318.932 11.5828 318.838 11.5628 318.746 11.5429C318.618 11.5146 318.494 11.4873 318.371 11.4607C316.963 11.1537 315.914 10.9251 315.914 9.94464C315.914 9.05671 316.799 8.52395 318.038 8.52395C319.453 8.52395 320.338 9.05671 320.338 10.2998H324.231C324.231 7.28085 321.754 5.14982 318.038 5.14982C314.322 5.14982 311.845 7.28085 311.845 10.1222C311.845 13.6739 314.853 14.3843 317.33 14.7395C319.1 14.917 320.338 15.2722 320.338 16.3377C320.338 17.4032 319.276 17.936 318.215 17.936C316.799 17.936 315.738 17.2257 315.738 15.805H311.668Z" fill="#00003C"/>
<path fill-rule="evenodd" clip-rule="evenodd" d="M394.651 9.76746H391.112V21.4881H387.042V9.76746H380.141V15.4502C380.141 16.8709 381.026 17.7588 382.442 17.7588H384.034V21.4881H381.38C378.018 21.4881 375.895 19.3571 375.895 15.983V9.76746H373.063V8.87953L379.08 2.13127H379.787V6.39334H386.865V4.79506C386.865 1.7761 388.458 0.000244141 391.643 0.000244141H394.651V3.19679H392.351C391.289 3.19679 390.758 3.72955 390.758 4.79506V6.21575H394.651V9.76746ZM347.585 0.532023H351.655V21.4872H347.585V0.532023ZM345.103 8.346C345.103 12.2529 342.095 15.2718 338.025 15.2718H334.663V21.4874H330.416V1.59773H338.025C342.095 1.59773 345.103 4.43911 345.103 8.346ZM340.856 8.346C340.856 6.74772 339.794 5.50463 338.025 5.50463H334.84V11.1874H338.025C339.618 11.1874 340.856 9.94427 340.856 8.346ZM371.114 21.3108V6.03843L368.106 5.86084L367.575 7.28153C366.336 6.03843 364.567 5.32808 362.62 5.32808C358.02 5.32808 354.658 8.8798 354.658 13.497C354.658 18.1143 358.02 21.666 362.62 21.666C364.567 21.666 366.336 20.9556 367.575 19.8901L367.929 21.3108H371.114ZM362.797 9.41256C365.275 9.41256 367.044 11.1884 367.044 13.6746C367.044 16.1608 365.275 17.9367 362.797 17.9367C360.32 17.9367 358.551 16.1608 358.551 13.6746C358.551 11.1884 360.32 9.41256 362.797 9.41256ZM404.555 5.50534C399.777 5.50534 396.238 9.05706 396.238 13.6743C396.238 18.2915 399.777 21.8432 404.555 21.8432C409.332 21.8432 412.871 18.2915 412.871 13.6743C412.871 8.87947 409.332 5.50534 404.555 5.50534ZM404.555 9.41223C406.855 9.41223 408.624 11.1881 408.624 13.6743C408.624 16.1605 406.855 17.9364 404.555 17.9364C402.254 17.9364 400.485 16.1605 400.485 13.6743C400.485 11.1881 402.254 9.41223 404.555 9.41223ZM424.904 6.21557V9.94488H423.135C420.835 9.94488 419.95 11.0104 419.95 13.4966V21.488H415.88V6.21557H418.534L419.242 8.16902C420.304 6.74833 421.719 6.21557 423.666 6.21557H424.904ZM449.857 21.3101V11.7205C449.857 8.16881 447.557 5.6826 444.372 5.6826C442.425 5.6826 440.656 6.74812 439.594 8.16881C438.71 6.57054 437.117 5.6826 435.171 5.6826C433.401 5.6826 431.632 6.57053 430.57 7.99122L429.862 6.03778H427.031V21.3101H431.101V12.9636C431.101 10.655 432.162 9.23432 434.109 9.23432C435.701 9.23432 436.409 10.2998 436.409 12.4309V21.3101H440.479V12.9636C440.479 10.655 441.718 9.23432 443.487 9.23432C444.903 9.23432 445.787 10.2998 445.787 12.4309V21.3101H449.857Z" fill="#00003C"/>
</svg>