<svg width="512" height="512" viewBox="0 0 512 512" fill="none" xmlns="http://www.w3.org/2000/svg">
<path d="M200.363 159.69L256.041 104.096L311.051 159.107L344.558 125.517L256.041 37L166.857 126.184L200.363 159.69Z" fill="#000000"/>
<path d="M385.9 345.141L475 256.041L386.483 167.44L352.977 201.03L407.904 256.041L352.31 311.635L385.9 345.141Z" fill="#000000"/>
<path d="M310.385 353.56L256.041 407.904L201.031 352.893L167.524 386.483L256.041 475L343.892 387.066L310.385 353.56Z" fill="#000000"/>
<path d="M159.107 310.969L104.096 256.042L158.44 201.615L124.934 168.108L37 256.042L125.6 344.559L159.107 310.969Z" fill="#000000"/>
<path d="M212.033 204.864H263.126C291.382 204.864 314.22 227.785 314.22 255.957C314.22 284.212 291.299 307.05 263.126 307.05H212.033V204.78V204.864Z" fill="#000000"/>
</svg>
