<svg xmlns="http://www.w3.org/2000/svg" viewBox="0 0 16 16"><path fill-rule="evenodd" clip-rule="evenodd" d="M.55 4.89l7 3.5c.14.07.29.11.45.11s.31-.04.45-.11l7-3.5a.998.998 0 00-.06-1.81L8.4.08a1.006 1.006 0 00-.79 0l-6.99 3a.992.992 0 00-.07 1.81zM15 10c-.16 0-.31.04-.45.11L8 13.38 1.45 10.1c-.14-.06-.29-.1-.45-.1-.55 0-1 .45-1 1 0 .39.23.73.55.89l7 3.5c.14.07.29.11.45.11s.31-.04.45-.11l7-3.5c.32-.16.55-.5.55-.89 0-.55-.45-1-1-1zm0-3.5c-.16 0-.31.04-.45.11L8 9.88 1.45 6.61A.997.997 0 001 6.5c-.55 0-1 .45-1 1 0 .39.23.73.55.89l7 3.5c.14.07.29.11.45.11s.31-.04.45-.11l7-3.5c.32-.16.55-.5.55-.89 0-.55-.45-1-1-1z"/></svg>