<svg width="16" height="16" xmlns="http://www.w3.org/2000/svg"><path d="M9.405 11.746C8.968 11.91 8.495 12 8 12c-.494 0-.968-.09-1.405-.254l-.702 1.873A5.98 5.98 0 008 14c.742 0 1.452-.135 2.107-.38l-.702-1.874zm2.341-2.341l1.873.702A5.98 5.98 0 0014 8c0-.742-.135-1.452-.38-2.107l-1.874.702c.164.437.254.91.254 1.405 0 .494-.09.968-.254 1.405zM9.405 4.254l.702-1.873A5.987 5.987 0 008 2c-.742 0-1.452.135-2.107.38l.702 1.874C7.032 4.09 7.505 4 8 4c.494 0 .968.09 1.405.254zM4.254 6.595L2.38 5.893A5.987 5.987 0 002 8c0 .742.135 1.452.38 2.107l1.874-.702A3.991 3.991 0 014 8c0-.494.09-.968.254-1.405zM8 16A8 8 0 118 0a8 8 0 010 16zm0-6a2 2 0 100-4 2 2 0 000 4z"/></svg>