<svg width="16" height="16" xmlns="http://www.w3.org/2000/svg"><path d="M13.364 9l.879.879a1 1 0 11-1.415 1.414l-2.12-2.121a1.003 1.003 0 01-.14-.172H9v1.604a.97.97 0 01.121.103l2.122 2.121a1 1 0 01-1.415 1.415L9 13.414V15a1 1 0 01-2 0v-1.636l-.879.879a1 1 0 11-1.414-1.415l2.121-2.12c.054-.054.111-.1.172-.139V9H5.38c-.038.06-.084.118-.137.172l-2.122 2.12A1 1 0 111.707 9.88L2.586 9H1a1 1 0 110-2h1.536l-.829-.828a1 1 0 011.414-1.415L5.243 6.88c.038.038.072.079.103.121H7V5.38a1.003 1.003 0 01-.172-.137L4.708 3.12A1 1 0 016.12 1.707l.88.879V1a1 1 0 112 0v1.536l.828-.829a1 1 0 011.415 1.414L9.12 5.243a1.007 1.007 0 01-.12.103V7h1.604a.97.97 0 01.103-.121l2.121-2.122a1 1 0 011.415 1.415L13.414 7H15a1 1 0 010 2h-1.636z"/></svg>