<svg width="59" height="64" viewBox="0 0 59 64" fill="none" xmlns="http://www.w3.org/2000/svg">
<g clip-path="url(#clip0_2008_2)">
<path fill-rule="evenodd" clip-rule="evenodd" d="M46.2684 25.4309C45.8874 27.3725 45.5807 28.6916 44.7628 30.2615C43.8242 32.0173 43.0714 34.0239 41.3707 32.584C40.116 31.5807 38.9822 30.5774 38.1086 29.3233C37.1699 28.0042 36.222 26.3785 35.5343 25.1244C34.4655 23.2386 34.7815 22.997 32.8391 22.4954L31.0176 21.9938C31.2035 21.2413 31.2685 20.3681 31.2685 19.4205C31.2685 19.2905 31.2685 19.1047 31.2685 18.9189L34.9674 18.2314C34.9674 18.2314 42.8112 22.932 45.3204 22.6812C47.3372 22.5511 46.5844 23.6752 46.2684 25.4309Z" fill="white"/>
<path fill-rule="evenodd" clip-rule="evenodd" d="M45.5145 5.43022C46.6483 7.75264 48.9624 20.0986 44.8918 20.7303C44.0182 20.9161 42.6985 20.9161 41.0628 20.5445C40.1242 20.2937 38.9903 19.6063 37.8658 18.8538C35.9792 17.6647 35.3565 17.2281 33.1632 17.3489L31.1558 17.5347C31.0908 16.968 30.97 16.5314 30.8398 16.0297C37.429 12.2674 37.5498 10.8182 42.0015 5.30016C43.3212 3.67447 44.7059 3.67447 45.5145 5.43022Z" fill="white"/>
<path fill-rule="evenodd" clip-rule="evenodd" d="M35.2921 0.349189C37.5505 0.730065 39.2419 1.16668 40.5616 1.66832C42.569 2.67161 42.3181 2.67161 41.1285 4.24156C40.0598 5.68146 39.1211 7.06562 38.3033 8.62629C37.2345 10.5121 37.2995 11.3203 35.3572 12.3236L30.3386 14.8318C29.9669 14.1444 29.5208 13.6427 29.084 13.3919C31.2773 13.2618 33.0338 12.3236 33.0338 9.8804C33.0338 8.18967 32.0951 6.1831 30.8405 4.79894C31.1565 3.10822 31.9092 1.72406 32.7271 0.915859C33.5356 0.0983676 34.2234 0.228423 35.2921 0.349189Z" fill="white"/>
<path fill-rule="evenodd" clip-rule="evenodd" d="M26.0735 0.0331377C26.8913 0.0331377 27.6441 0.0331377 28.3969 0.0331377C28.9638 0.0331377 29.5307 0.0331377 30.0326 0.0331377C32.04 0.0331377 32.1608 -0.347739 31.3523 1.47304C30.9805 2.35556 30.5995 3.29381 30.2185 4.16704C29.6516 3.6654 29.0289 3.28452 28.3969 3.09873C27.7092 3.34955 27.0215 3.78617 26.3895 4.35284C26.0084 3.41458 25.6367 2.47632 25.1999 1.5938C24.5029 -0.0226003 24.1869 0.0981654 26.0735 0.0331377Z" fill="white"/>
<path fill-rule="evenodd" clip-rule="evenodd" d="M15.153 1.41728C16.8444 0.664813 18.6009 0.915635 21.547 0.283937C23.7403 -0.217705 25.441 2.85718 25.8128 4.98451C24.6232 6.35938 23.8053 8.24519 23.8053 9.87088C23.8053 12.1933 25.3109 13.1316 27.3834 13.3824C26.9466 13.6332 26.5098 14.1348 26.1287 14.7665L20.8592 12.1376C19.6697 11.5059 19.6046 11.4501 19.0377 10.196C18.034 7.93863 16.7793 6.05282 15.2087 3.99052C14.4652 2.98723 13.8983 2.10471 15.153 1.41728Z" fill="white"/>
<path fill-rule="evenodd" clip-rule="evenodd" d="M11.454 4.99365C12.0209 3.80457 13.1454 4.0554 14.1491 5.3095C16.5934 8.31936 18.164 12.2675 21.7978 13.8374C23.0524 14.3391 24.3721 15.2773 25.6268 15.9648C25.4967 16.4664 25.3758 16.968 25.2457 17.5347L19.6603 17.4047C17.4019 18.4079 17.151 19.7828 15.4595 20.2287C13.703 20.6003 12.3276 20.7954 11.5097 20.5446C8.00605 19.3462 9.94841 7.43684 11.454 4.99365Z" fill="white"/>
<path fill-rule="evenodd" clip-rule="evenodd" d="M12.4571 30.6335C11.5835 28.692 10.8307 26.5553 10.4497 24.1122C10.2638 22.9231 10.1337 22.0406 11.4534 22.1706C14.0277 22.3564 19.9849 18.3433 19.9849 18.3433L25.1336 18.9099C25.1336 19.0957 25.1336 19.2258 25.1336 19.4116C25.1336 20.3498 25.2544 21.2324 25.3845 22.0406L23.7582 22.4772C20.9329 23.1646 20.0593 27.5586 18.4236 29.8717C17.6058 31.0608 16.537 32.1291 15.2266 32.38C13.1448 32.8909 13.34 32.3893 12.4571 30.6335Z" fill="white"/>
<path fill-rule="evenodd" clip-rule="evenodd" d="M28.702 39.6071C31.583 38.2322 34.1016 33.7174 34.1016 30.0109C34.1016 26.6851 32.1592 25.3753 29.5849 25.0595C30.0217 24.6228 30.4027 24.0562 30.6537 23.3037L34.2317 24.242C34.2317 24.242 36.8061 30.7633 40.4399 34.2098C42.1964 35.9005 40.0031 36.718 38.9343 38.0929C36.7968 40.7869 33.6648 42.2918 31.1555 43.1093C28.8321 43.9268 28.6462 44.865 28.7113 42.4869C28.702 41.4836 28.702 40.4153 28.702 39.6071Z" fill="white"/>
<path fill-rule="evenodd" clip-rule="evenodd" d="M27.0114 43.8618C24.8181 43.0443 20.4222 40.9169 16.6583 36.7737C14.465 34.4513 15.6546 34.953 17.346 32.8907C19.1676 30.6983 20.6731 27.8742 21.4817 26.0535C22.2995 24.2977 21.9835 24.2977 23.74 23.8611L25.7475 23.2944C26.0634 24.0469 26.4352 24.6693 26.872 25.1152C24.4278 25.4961 22.6713 26.8059 22.6713 30.0016C22.6713 33.5781 24.9947 37.8421 27.7549 39.4027C27.8943 40.8519 27.5783 42.4869 27.0114 43.8618Z" fill="white"/>
<path fill-rule="evenodd" clip-rule="evenodd" d="M2.35531 52.6129C2.35531 52.5664 6.80696 52.52 6.82555 52.4736C7.16942 51.6096 7.00213 50.6992 6.09135 50.6992C5.89619 50.6992 1.19361 50.6992 1.00774 50.6992C-0.0796182 50.6992 0.115548 50.7735 0.115548 51.7211C0.115548 52.6686 0.0783735 61.7075 0.0504926 62.2185C0.0226117 62.7294 -0.209729 63.2403 0.626698 63.2403C0.942681 63.2403 1.2029 63.2403 1.46312 63.2403C2.55048 63.2403 2.29955 63.2403 2.29955 62.2185C2.40178 62.2185 2.47613 58.0009 2.47613 58.0009C2.47613 58.0009 5.05976 58.066 5.1434 57.8894C5.22705 57.7129 5.84972 56.0036 4.25121 55.9479C2.65271 55.8829 2.47613 55.8086 2.47613 55.8086C2.47613 55.8086 2.42966 52.6129 2.35531 52.6129ZM14.3813 61.0108C14.3813 61.0108 14.2512 55.502 14.3813 52.0462C14.4463 50.8293 14.3813 51.0894 13.1638 51.0894C11.9463 51.0894 12.2716 52.7522 12.2716 54.2293C12.2716 56.914 12.1415 59.6731 12.1415 62.3578C12.1415 63.3146 12.0114 63.2589 12.9779 63.2589C13.5356 63.2589 18.2288 63.4168 18.5634 63.2496C18.898 63.0731 19.0095 61.6146 18.8515 61.1687C18.6842 60.7135 14.3813 61.0108 14.3813 61.0108ZM31.2027 60.8157C30.6265 58.1867 29.9853 55.502 29.344 52.8823C28.963 51.3495 29.279 51.0894 27.6805 51.0894C26.5931 51.0894 26.844 51.5353 26.5931 52.6222C26.3329 53.514 25.4407 57.2949 24.8645 59.9146C24.4184 62.0234 24.1582 63.2403 24.9295 63.2403C26.3979 63.3704 26.463 63.6212 26.5281 62.2835C26.5281 61.9583 26.6582 61.6425 26.7232 61.3266C27.5596 61.3266 28.3217 61.3266 29.1581 61.3266C29.2232 61.6425 29.2883 61.9676 29.3533 62.2835C29.6042 63.4354 29.5485 63.2403 30.7009 63.2403C32.5503 63.2496 31.5838 62.3485 31.2027 60.8157ZM28.7678 59.4687C28.1916 59.4687 27.6154 59.4687 27.1043 59.4687L27.6805 56.3938C27.7455 55.9479 27.8756 55.502 27.9407 55.0468C28.0057 55.4927 28.0708 55.9386 28.1359 56.3938C28.3868 57.425 28.5819 58.4468 28.7678 59.4687ZM45.3569 60.2398C45.2919 57.9359 45.2919 55.502 45.3569 53.0681C45.422 51.5353 45.8681 51.0801 44.2696 51.0801C42.4109 51.0801 43.1172 52.232 43.1172 53.8949C43.1172 54.6009 43.1172 58.2146 43.1172 58.2146C43.1172 58.2146 40.7101 52.938 40.7101 51.4052C40.7101 50.8293 40.0689 51.0894 39.6228 51.0894C38.0243 51.0894 38.3403 51.4703 38.4704 53.0124C38.6655 55.7621 38.6005 58.5862 38.5354 61.3359C38.4704 62.9988 38.0243 63.2589 39.7529 63.2589C41.2863 63.2589 40.7101 62.4879 40.7101 61.0851C40.7101 60.1283 40.7101 57.8523 40.7101 57.8523C40.7101 57.8523 42.6339 62.1256 42.9406 62.6272C43.2473 63.1196 42.8012 63.2589 44.2696 63.2589C46.1283 63.2496 45.4871 61.9026 45.3569 60.2398ZM59 52.1113C59 50.8293 59 51.0894 57.7175 51.0894C56.3699 51.0894 55.0874 51.0894 53.7491 51.0894C52.5316 51.0894 52.7268 50.8943 52.5316 52.1113C52.2714 53.7741 52.9127 53.2632 54.6413 53.1331C54.8365 54.9911 54.8365 56.9698 54.6413 59.1529C54.5112 61.3266 54.1301 63.6305 55.8588 63.4447C57.7175 63.1846 56.8811 62.2277 56.8811 60.3048C56.8811 57.8709 56.8811 55.502 56.8811 53.1331C58.3587 53.1331 59 53.6441 59 52.1113Z" fill="white"/>
</g>
<defs>
<clipPath id="clip0_2008_2">
<rect width="59" height="63.425" fill="white"/>
</clipPath>
</defs>
</svg>
