<svg width="88" height="36" fill="none" xmlns="http://www.w3.org/2000/svg"><path d="M27.675 21.948a4.101 4.101 0 01-1.322 3.212 5.124 5.124 0 01-3.577 1.218h-4.18v5.54h-1.889V17.67h5.99a5.55 5.55 0 013.704 1.121 3.924 3.924 0 011.317 3.156h-.043zm-1.938 0c0-1.836-1.105-2.754-3.314-2.754h-3.827v5.612h3.912c2.153 0 3.23-.952 3.23-2.858zm5.115 9.94V17.672h10.797v1.602h-8.872v4.558h8.263v1.536h-8.263v4.954h9.286v1.572H30.852v-.006zm24.494-1.647h1.767v5.728h-1.828v-4.082h-9.828v4.112h-1.828v-5.758h1.456A8.262 8.262 0 0046.42 27.5c.443-1.54.755-3.116.932-4.71l.676-5.143h7.312v12.595h.006zm-1.876 0V19.273h-3.79l-.494 3.711a39.365 39.365 0 01-.829 4.51 10.066 10.066 0 01-1.09 2.766h6.203v-.019zM14.173 1H0v14.173h14.173V1zm0 16.672H0v14.173h14.173V17.672zM30.857 1H16.684v14.173h14.173V1z" fill="#CC2B24"/><path d="M81.908 19.206a4.484 4.484 0 00-3.59 1.487 5.984 5.984 0 00-1.285 4.064 6.093 6.093 0 001.328 4.107 4.546 4.546 0 003.62 1.548c1.946 0 3.408-.961 4.387-2.883l1.535.768a6.215 6.215 0 01-2.437 2.73 6.824 6.824 0 01-3.558.92 7.312 7.312 0 01-3.656-.865 5.788 5.788 0 01-2.334-2.492 8.622 8.622 0 01-.798-3.839c0-2.214.599-3.946 1.797-5.198 1.199-1.25 2.854-1.878 4.966-1.882a7.269 7.269 0 013.705.865 5.125 5.125 0 012.188 2.571l-1.786.61a3.656 3.656 0 00-1.56-1.828 4.826 4.826 0 00-2.522-.683zm-8.606 5.552a8.244 8.244 0 01-.84 3.808 5.837 5.837 0 01-2.39 2.51 7.38 7.38 0 01-3.656.878 7.488 7.488 0 01-3.698-.865 5.727 5.727 0 01-2.364-2.498 8.531 8.531 0 01-.817-3.833c0-2.218.61-3.95 1.828-5.197 1.219-1.248 2.91-1.875 5.076-1.883a7.586 7.586 0 013.656.847 5.576 5.576 0 012.376 2.437 8.16 8.16 0 01.829 3.79v.006zm-1.926 0a5.941 5.941 0 00-1.303-4.064 4.599 4.599 0 00-3.656-1.475 4.685 4.685 0 00-3.687 1.457 5.923 5.923 0 00-1.304 4.088 6.172 6.172 0 001.31 4.144 5.24 5.24 0 007.343.048 6.197 6.197 0 001.291-4.192l.006-.006z" fill="#000"/></svg>
