<svg xmlns="http://www.w3.org/2000/svg" xmlns:xlink="http://www.w3.org/1999/xlink" contentStyleType="text/css" data-diagram-type="ACTIVITY" height="847.9167px" preserveAspectRatio="none" style="width:1359px;height:847px;" version="1.1" viewBox="0 0 1359 847" width="1359.375px" zoomAndPan="magnify"><defs><linearGradient id="g3iucgw9lai2y0" x1="50%" x2="50%" y1="0%" y2="100%"><stop offset="0%" stop-color="#33B2E2"/><stop offset="100%" stop-color="#009FDB"/></linearGradient><linearGradient id="g3iucgw9lai2y1" x1="50%" x2="50%" y1="0%" y2="100%"><stop offset="0%" stop-color="#F5F5F5"/><stop offset="100%" stop-color="#C2C2C2"/></linearGradient></defs><g><ellipse cx="923.8159" cy="20.8333" fill="#0568AE" rx="10.4167" ry="10.4167" style="stroke:#007FAF;stroke-width:1.0417;"/><rect fill="url(#g3iucgw9lai2y0)" height="87.3698" rx="10.4167" ry="10.4167" style="stroke:#009FDB;stroke-width:1.0417;" width="300.0651" x="773.7834" y="52.0833"/><text fill="#FFFFFF" font-family="Verdana" font-size="16.6667" lengthAdjust="spacing" textLength="99.2513" x="874.1903" y="82.137">Initial state:</text><text fill="#FFFFFF" font-family="Verdana" font-size="16.6667" lengthAdjust="spacing" textLength="270.8984" x="788.3667" y="101.5381">current installed module version</text><text fill="#FFFFFF" font-family="Verdana" font-size="16.6667" lengthAdjust="spacing" textLength="92.1956" x="877.7181" y="120.9391">(Deployed)</text><polygon fill="url(#g3iucgw9lai2y1)" points="785.2702,160.2865,1062.3617,160.2865,1074.8617,188.0208,1062.3617,215.7552,785.2702,215.7552,772.7702,188.0208,785.2702,160.2865" style="stroke:#C2C2C2;stroke-width:1.0417;"/><text fill="#5A5A5A" font-family="Verdana" font-size="16.6667" lengthAdjust="spacing" textLength="260.4248" x="793.6035" y="184.0902">Is there a release in the cluster</text><text fill="#5A5A5A" font-family="Verdana" font-size="16.6667" lengthAdjust="spacing" textLength="198.584" x="824.5239" y="203.4912">with "update.versions"?</text><text fill="#5A5A5A" font-family="Verdana" font-size="16.6667" font-style="italic" lengthAdjust="spacing" textLength="29.1178" x="735.319" y="175.7568">Yes</text><text fill="#5A5A5A" font-family="Verdana" font-size="16.6667" font-style="italic" lengthAdjust="spacing" textLength="22.6644" x="1083.195" y="175.7568">No</text><polygon fill="url(#g3iucgw9lai2y1)" points="506.6895,226.1719,753.4017,226.1719,765.9017,253.9063,753.4017,281.6406,506.6895,281.6406,494.1895,253.9063,506.6895,226.1719" style="stroke:#C2C2C2;stroke-width:1.0417;"/><text fill="#5A5A5A" font-family="Verdana" font-size="16.6667" lengthAdjust="spacing" textLength="229.1585" x="515.4663" y="249.9756">Does one of the "to" values</text><text fill="#5A5A5A" font-family="Verdana" font-size="16.6667" lengthAdjust="spacing" textLength="230.0456" x="515.0228" y="269.3766">match this release version?</text><text fill="#5A5A5A" font-family="Verdana" font-size="16.6667" font-style="italic" lengthAdjust="spacing" textLength="29.1178" x="456.7383" y="241.6423">Yes</text><text fill="#5A5A5A" font-family="Verdana" font-size="16.6667" font-style="italic" lengthAdjust="spacing" textLength="22.6644" x="774.235" y="241.6423">No</text><rect fill="url(#g3iucgw9lai2y0)" height="67.9688" rx="10.4167" ry="10.4167" style="stroke:#009FDB;stroke-width:1.0417;" width="390.8447" x="139.8397" y="292.0573"/><text fill="#FFFFFF" font-family="Verdana" font-size="16.6667" lengthAdjust="spacing" textLength="310.1969" x="180.1636" y="322.111">If there are multiple rules/releases &#8212;</text><text fill="#FFFFFF" font-family="Verdana" font-size="16.6667" lengthAdjust="spacing" textLength="361.6781" x="154.423" y="341.512">DKP selects the option with the largest "to"</text><polygon fill="url(#g3iucgw9lai2y1)" points="188.8468,380.8594,481.6772,380.8594,494.1772,408.5938,481.6772,436.3281,188.8468,436.3281,176.3468,408.5938,188.8468,380.8594" style="stroke:#C2C2C2;stroke-width:1.0417;"/><text fill="#5A5A5A" font-family="Verdana" font-size="16.6667" lengthAdjust="spacing" textLength="276.1637" x="197.1802" y="404.6631">Is the current version (Deployed)</text><text fill="#5A5A5A" font-family="Verdana" font-size="16.6667" lengthAdjust="spacing" textLength="275.5615" x="197.4813" y="424.0641">below the corresponding "from"?</text><text fill="#5A5A5A" font-family="Verdana" font-size="16.6667" font-style="italic" lengthAdjust="spacing" textLength="29.1178" x="138.8957" y="396.3298">Yes</text><text fill="#5A5A5A" font-family="Verdana" font-size="16.6667" font-style="italic" lengthAdjust="spacing" textLength="22.6644" x="502.5106" y="396.3298">No</text><rect fill="url(#g3iucgw9lai2y0)" height="67.9688" rx="10.4167" ry="10.4167" style="stroke:#009FDB;stroke-width:1.0417;" width="261.5072" x="11.4583" y="446.7448"/><text fill="#FFFFFF" font-family="Verdana" font-size="16.6667" lengthAdjust="spacing" textLength="232.3405" x="26.0417" y="476.7985">Standard sequential update</text><text fill="#FFFFFF" font-family="Verdana" font-size="16.6667" lengthAdjust="spacing" textLength="108.96" x="87.7319" y="496.1995">(no skipping)</text><ellipse cx="142.2119" cy="548.6572" fill="none" rx="11.4583" ry="11.4583" style="stroke:#007FAF;stroke-width:1.0417;"/><ellipse cx="142.2119" cy="548.6572" fill="none" rx="6.25" ry="6.25" style="stroke:#007FAF;stroke-width:1.0417;"/><rect fill="url(#g3iucgw9lai2y0)" height="67.9688" rx="10.4167" ry="10.4167" style="stroke:#009FDB;stroke-width:1.0417;" width="469.0267" x="293.7988" y="446.7448"/><text fill="#FFFFFF" font-family="Verdana" font-size="16.6667" lengthAdjust="spacing" textLength="439.86" x="308.3822" y="476.7985">DKP selects the target &#8212; the latest available version</text><text fill="#FFFFFF" font-family="Verdana" font-size="16.6667" lengthAdjust="spacing" textLength="87.915" x="484.3547" y="496.1995">within "to"</text><rect fill="url(#g3iucgw9lai2y0)" height="67.9688" rx="10.4167" ry="10.4167" style="stroke:#009FDB;stroke-width:1.0417;" width="363.8753" x="346.3745" y="610.0505"/><text fill="#FFFFFF" font-family="Verdana" font-size="16.6667" lengthAdjust="spacing" textLength="287.7441" x="384.4401" y="640.1042">Waiting for approval &#8212; annotation</text><text fill="#FFFFFF" font-family="Verdana" font-size="16.6667" lengthAdjust="spacing" textLength="334.7087" x="360.9578" y="659.5052">modules.deckhouse.io/approved="true"</text><polygon fill="url(#g3iucgw9lai2y1)" points="431.6121,537.1989,625.0122,537.1989,637.5122,555.2327,625.0122,573.2666,431.6121,573.2666,419.1121,555.2327,431.6121,537.1989" style="stroke:#C2C2C2;stroke-width:1.0417;"/><text fill="#5A5A5A" font-family="Verdana" font-size="16.6667" font-style="italic" lengthAdjust="spacing" textLength="29.1178" x="540.8122" y="597.0703">Yes</text><text fill="#5A5A5A" font-family="Verdana" font-size="16.6667" lengthAdjust="spacing" textLength="176.7334" x="439.9455" y="561.0026">Is approval required?</text><text fill="#5A5A5A" font-family="Verdana" font-size="16.6667" font-style="italic" lengthAdjust="spacing" textLength="22.6644" x="645.8455" y="542.9688">No</text><polygon fill="url(#g3iucgw9lai2y1)" points="528.3122,698.8525,540.8122,711.3525,528.3122,723.8525,515.8122,711.3525,528.3122,698.8525" style="stroke:#C2C2C2;stroke-width:1.0417;"/><rect fill="url(#g3iucgw9lai2y0)" height="48.5677" rx="10.4167" ry="10.4167" style="stroke:#009FDB;stroke-width:1.0417;" width="329.9479" x="363.3382" y="744.6859"/><text fill="#FFFFFF" font-family="Verdana" font-size="16.6667" lengthAdjust="spacing" textLength="300.7813" x="377.9215" y="774.7396">Target release deployed (Deployed)</text><ellipse cx="528.3122" cy="825.5452" fill="none" rx="11.4583" ry="11.4583" style="stroke:#007FAF;stroke-width:1.0417;"/><ellipse cx="528.3122" cy="825.5452" fill="none" rx="6.25" ry="6.25" style="stroke:#007FAF;stroke-width:1.0417;"/><rect fill="url(#g3iucgw9lai2y0)" height="67.9688" rx="10.4167" ry="10.4167" style="stroke:#009FDB;stroke-width:1.0417;" width="261.5072" x="794.0755" y="292.0573"/><text fill="#FFFFFF" font-family="Verdana" font-size="16.6667" lengthAdjust="spacing" textLength="232.3405" x="808.6589" y="322.111">Standard sequential update</text><text fill="#FFFFFF" font-family="Verdana" font-size="16.6667" lengthAdjust="spacing" textLength="108.96" x="870.3491" y="341.512">(no skipping)</text><ellipse cx="924.8291" cy="392.3177" fill="none" rx="11.4583" ry="11.4583" style="stroke:#007FAF;stroke-width:1.0417;"/><ellipse cx="924.8291" cy="392.3177" fill="none" rx="6.25" ry="6.25" style="stroke:#007FAF;stroke-width:1.0417;"/><rect fill="url(#g3iucgw9lai2y0)" height="67.9688" rx="10.4167" ry="10.4167" style="stroke:#009FDB;stroke-width:1.0417;" width="261.5072" x="1086.8327" y="226.1719"/><text fill="#FFFFFF" font-family="Verdana" font-size="16.6667" lengthAdjust="spacing" textLength="232.3405" x="1101.416" y="256.2256">Standard sequential update</text><text fill="#FFFFFF" font-family="Verdana" font-size="16.6667" lengthAdjust="spacing" textLength="108.96" x="1163.1063" y="275.6266">(no skipping)</text><ellipse cx="1217.5863" cy="342.0573" fill="none" rx="11.4583" ry="11.4583" style="stroke:#007FAF;stroke-width:1.0417;"/><ellipse cx="1217.5863" cy="342.0573" fill="none" rx="6.25" ry="6.25" style="stroke:#007FAF;stroke-width:1.0417;"/><line style="stroke:#009FDB;stroke-width:3.125;" x1="923.8159" x2="923.8159" y1="31.25" y2="52.0833"/><polygon fill="#009FDB" points="919.6493,41.6667,923.8159,52.0833,927.9826,41.6667,923.8159,45.8333" style="stroke:#009FDB;stroke-width:1.0417;"/><line style="stroke:#009FDB;stroke-width:3.125;" x1="142.2119" x2="142.2119" y1="514.7135" y2="537.1989"/><polygon fill="#009FDB" points="138.0452,526.7822,142.2119,537.1989,146.3786,526.7822,142.2119,530.9489" style="stroke:#009FDB;stroke-width:1.0417;"/><line style="stroke:#009FDB;stroke-width:3.125;" x1="528.3122" x2="528.3122" y1="573.2666" y2="610.0505"/><polygon fill="#009FDB" points="524.1455,599.6338,528.3122,610.0505,532.4788,599.6338,528.3122,603.8005" style="stroke:#009FDB;stroke-width:1.0417;"/><line style="stroke:#009FDB;stroke-width:3.125;" x1="637.5122" x2="720.6665" y1="555.2327" y2="555.2327"/><polygon fill="#009FDB" points="716.4998,639.1846,720.6665,649.6012,724.8332,639.1846,720.6665,643.3512" style="stroke:#009FDB;stroke-width:3.125;"/><line style="stroke:#009FDB;stroke-width:3.125;" x1="720.6665" x2="720.6665" y1="555.2327" y2="711.3525"/><line style="stroke:#009FDB;stroke-width:3.125;" x1="720.6665" x2="540.8122" y1="711.3525" y2="711.3525"/><polygon fill="#009FDB" points="551.2288,707.1859,540.8122,711.3525,551.2288,715.5192,547.0622,711.3525" style="stroke:#009FDB;stroke-width:1.0417;"/><line style="stroke:#009FDB;stroke-width:3.125;" x1="528.3122" x2="528.3122" y1="678.0192" y2="698.8525"/><polygon fill="#009FDB" points="524.1455,688.4359,528.3122,698.8525,532.4788,688.4359,528.3122,692.6025" style="stroke:#009FDB;stroke-width:1.0417;"/><line style="stroke:#009FDB;stroke-width:3.125;" x1="528.3122" x2="528.3122" y1="514.7135" y2="537.1989"/><polygon fill="#009FDB" points="524.1455,526.7822,528.3122,537.1989,532.4788,526.7822,528.3122,530.9489" style="stroke:#009FDB;stroke-width:1.0417;"/><line style="stroke:#009FDB;stroke-width:3.125;" x1="528.3122" x2="528.3122" y1="723.8525" y2="744.6859"/><polygon fill="#009FDB" points="524.1455,734.2692,528.3122,744.6859,532.4788,734.2692,528.3122,738.4359" style="stroke:#009FDB;stroke-width:1.0417;"/><line style="stroke:#009FDB;stroke-width:3.125;" x1="528.3122" x2="528.3122" y1="793.2536" y2="814.0869"/><polygon fill="#009FDB" points="524.1455,803.6702,528.3122,814.0869,532.4788,803.6702,528.3122,807.8369" style="stroke:#009FDB;stroke-width:1.0417;"/><line style="stroke:#009FDB;stroke-width:3.125;" x1="176.3468" x2="142.2119" y1="408.5938" y2="408.5938"/><line style="stroke:#009FDB;stroke-width:3.125;" x1="142.2119" x2="142.2119" y1="408.5938" y2="446.7448"/><polygon fill="#009FDB" points="138.0452,436.3281,142.2119,446.7448,146.3786,436.3281,142.2119,440.4948" style="stroke:#009FDB;stroke-width:1.0417;"/><line style="stroke:#009FDB;stroke-width:3.125;" x1="494.1772" x2="528.3122" y1="408.5938" y2="408.5938"/><line style="stroke:#009FDB;stroke-width:3.125;" x1="528.3122" x2="528.3122" y1="408.5938" y2="446.7448"/><polygon fill="#009FDB" points="524.1455,436.3281,528.3122,446.7448,532.4788,436.3281,528.3122,440.4948" style="stroke:#009FDB;stroke-width:1.0417;"/><line style="stroke:#009FDB;stroke-width:3.125;" x1="335.262" x2="335.262" y1="360.026" y2="380.8594"/><polygon fill="#009FDB" points="331.0954,370.4427,335.262,380.8594,339.4287,370.4427,335.262,374.6094" style="stroke:#009FDB;stroke-width:1.0417;"/><line style="stroke:#009FDB;stroke-width:3.125;" x1="924.8291" x2="924.8291" y1="360.026" y2="380.8594"/><polygon fill="#009FDB" points="920.6624,370.4427,924.8291,380.8594,928.9958,370.4427,924.8291,374.6094" style="stroke:#009FDB;stroke-width:1.0417;"/><line style="stroke:#009FDB;stroke-width:3.125;" x1="494.1895" x2="335.262" y1="253.9063" y2="253.9063"/><line style="stroke:#009FDB;stroke-width:3.125;" x1="335.262" x2="335.262" y1="253.9063" y2="292.0573"/><polygon fill="#009FDB" points="331.0954,281.6406,335.262,292.0573,339.4287,281.6406,335.262,285.8073" style="stroke:#009FDB;stroke-width:1.0417;"/><line style="stroke:#009FDB;stroke-width:3.125;" x1="765.9017" x2="924.8291" y1="253.9063" y2="253.9063"/><line style="stroke:#009FDB;stroke-width:3.125;" x1="924.8291" x2="924.8291" y1="253.9063" y2="292.0573"/><polygon fill="#009FDB" points="920.6624,281.6406,924.8291,292.0573,928.9958,281.6406,924.8291,285.8073" style="stroke:#009FDB;stroke-width:1.0417;"/><line style="stroke:#009FDB;stroke-width:3.125;" x1="1217.5863" x2="1217.5863" y1="294.1406" y2="330.599"/><polygon fill="#009FDB" points="1213.4196,320.1823,1217.5863,330.599,1221.7529,320.1823,1217.5863,324.349" style="stroke:#009FDB;stroke-width:1.0417;"/><line style="stroke:#009FDB;stroke-width:3.125;" x1="772.7702" x2="630.0456" y1="188.0208" y2="188.0208"/><line style="stroke:#009FDB;stroke-width:3.125;" x1="630.0456" x2="630.0456" y1="188.0208" y2="226.1719"/><polygon fill="#009FDB" points="625.8789,215.7552,630.0456,226.1719,634.2122,215.7552,630.0456,219.9219" style="stroke:#009FDB;stroke-width:1.0417;"/><line style="stroke:#009FDB;stroke-width:3.125;" x1="1074.8617" x2="1217.5863" y1="188.0208" y2="188.0208"/><line style="stroke:#009FDB;stroke-width:3.125;" x1="1217.5863" x2="1217.5863" y1="188.0208" y2="226.1719"/><polygon fill="#009FDB" points="1213.4196,215.7552,1217.5863,226.1719,1221.7529,215.7552,1217.5863,219.9219" style="stroke:#009FDB;stroke-width:1.0417;"/><line style="stroke:#009FDB;stroke-width:3.125;" x1="923.8159" x2="923.8159" y1="139.4531" y2="160.2865"/><polygon fill="#009FDB" points="919.6493,149.8698,923.8159,160.2865,927.9826,149.8698,923.8159,154.0365" style="stroke:#009FDB;stroke-width:1.0417;"/><!--SRC=[bLBDYjj03BxxALIVaiiklVIGKChIK0Y5KiX2AUIYUEHao5ZopiX9jwS-H9-mJrADxVmqsyiUREmPwTFtepUweuPW4phQHdmkqjvpYn4RM52DNT1FmhhoFmdUlhkwV8XHZlsLFWS2hnXyzRBvaNxeG_1RReWLAdjHlAhQOBNVHkdOVPGW4JGY9xkokgkgrGwT73rleSQGg2YIOjIYc2tPgyS0zgyqMtFLnTmAdkqa17BGYEkCte5Yyi9hdYoe3V9CRZel2b_3P9d038W42942OJ8jd8-W2bqojci-Ujr1sRNEXjoDIAdyCCrL39FlbAO5G0PR22KG9f2wXoXLIZYWMPlMtA1MEplswJnf1Bk50fWjwnCjUnepqhSc8vgMT3zs9_Zpw_UQ5v-_GhAJIdib8AqQ9FIayt_0kAMaFPTv3twH3IV3HY9miMVD6mfo7Ah4gb8hx786PHsbALzoDjOhHNOOdH5wwWmtPpFuPiwpW4NQjeOndOyTIQNjFyboXSaNEKFToj8iGxFaKPLcKNX07t1pdN0MRWbUv9u5Ozj6iJJC_gVEHtB_qs2Zlw5jLLusMyXpJnwCp6ARreyP5YlTEQhsE-aItNcv7wh9lIyrTdIUVokEpCZw9FHn47PQ2JS60DURUclMsFylxclT7-46i6kerm7rC0F8Nm00]--></g></svg>