<?xml version="1.0" encoding="us-ascii" standalone="no"?><svg xmlns="http://www.w3.org/2000/svg" xmlns:xlink="http://www.w3.org/1999/xlink" contentStyleType="text/css" height="838.5417px" preserveAspectRatio="none" style="width:701px;height:838px;" version="1.1" viewBox="0 0 701 838" width="701.0417px" zoomAndPan="magnify"><defs><linearGradient id="g1wz2dxwetd1px0" x1="50%" x2="50%" y1="0%" y2="100%"><stop offset="0%" stop-color="#33B2E2"/><stop offset="100%" stop-color="#009FDB"/></linearGradient><linearGradient id="g1wz2dxwetd1px1" x1="50%" x2="50%" y1="0%" y2="100%"><stop offset="0%" stop-color="#F5F5F5"/><stop offset="100%" stop-color="#C2C2C2"/></linearGradient></defs><g><ellipse cx="349.7396" cy="20.8333" fill="#0568AE" rx="10.4167" ry="10.4167" style="stroke:#007FAF;stroke-width:1.0416666666666667;"/><rect fill="url(#g1wz2dxwetd1px0)" height="51.8667" rx="10.4167" ry="10.4167" style="stroke:#009FDB;stroke-width:1.0416666666666667;" width="157.2917" x="271.0938" y="52.0833"/><text fill="#FFFFFF" font-family="Verdana" font-size="16.6667" lengthAdjust="spacing" textLength="128.125" x="285.6771" y="84.4834">Module enabled</text><rect fill="url(#g1wz2dxwetd1px0)" height="51.8667" rx="10.4167" ry="10.4167" style="stroke:#009FDB;stroke-width:1.0416666666666667;" width="276.0417" x="211.7188" y="124.7834"/><text fill="#FFFFFF" font-family="Verdana" font-size="16.6667" lengthAdjust="spacing" textLength="246.875" x="226.3021" y="157.1834">ModuleRelease v1.0.0 deployed</text><rect fill="url(#g1wz2dxwetd1px0)" height="51.8667" rx="10.4167" ry="10.4167" style="stroke:#009FDB;stroke-width:1.0416666666666667;" width="160.4167" x="269.5313" y="197.4834"/><text fill="#FFFFFF" font-family="Verdana" font-size="16.6667" lengthAdjust="spacing" textLength="131.25" x="284.1146" y="229.8835">Module disabled</text><polygon fill="url(#g1wz2dxwetd1px1)" points="255.4688,274.4377,444.0104,274.4377,456.5104,294.121,444.0104,313.8044,255.4688,313.8044,242.9688,294.121,255.4688,274.4377" style="stroke:#C2C2C2;stroke-width:1.0416666666666667;"/><text fill="#5A5A5A" font-family="Verdana" font-size="16.6667" lengthAdjust="spacing" textLength="171.875" x="263.8021" y="300.5877">Has 72 hours passed?</text><text fill="#5A5A5A" font-family="Verdana" font-size="16.6667" font-style="italic" lengthAdjust="spacing" textLength="20.8333" x="213.8021" y="280.9043">No</text><text fill="#5A5A5A" font-family="Verdana" font-size="16.6667" font-style="italic" lengthAdjust="spacing" textLength="23.9583" x="464.8438" y="280.9043">Yes</text><rect fill="url(#g1wz2dxwetd1px0)" height="51.8667" rx="10.4167" ry="10.4167" style="stroke:#009FDB;stroke-width:1.0416666666666667;" width="275" x="11.4583" y="424.7212"/><text fill="#FFFFFF" font-family="Verdana" font-size="16.6667" lengthAdjust="spacing" textLength="245.8333" x="26.0417" y="457.1212">ModuleRelease v1.0.0 activated</text><rect fill="url(#g1wz2dxwetd1px0)" height="74.5668" rx="10.4167" ry="10.4167" style="stroke:#009FDB;stroke-width:1.0416666666666667;" width="233.3333" x="32.2917" y="513.0462"/><text fill="#FFFFFF" font-family="Verdana" font-size="16.6667" lengthAdjust="spacing" textLength="204.1667" x="46.875" y="545.4462">ModuleRelease v1.1.0 and</text><text fill="#FFFFFF" font-family="Verdana" font-size="16.6667" lengthAdjust="spacing" textLength="147.9167" x="75" y="568.1463">v1.1.1 downloaded</text><rect fill="url(#g1wz2dxwetd1px0)" height="51.8667" rx="10.4167" ry="10.4167" style="stroke:#009FDB;stroke-width:1.0416666666666667;" width="221.875" x="38.0208" y="624.0713"/><text fill="#FFFFFF" font-family="Verdana" font-size="16.6667" lengthAdjust="spacing" textLength="192.7083" x="52.6042" y="656.4713">Update module to v1.1.1</text><polygon fill="url(#g1wz2dxwetd1px1)" points="94.2708,324.221,203.6458,324.221,216.1458,355.2544,203.6458,386.2878,94.2708,386.2878,81.7708,355.2544,94.2708,324.221" style="stroke:#C2C2C2;stroke-width:1.0416666666666667;"/><text fill="#5A5A5A" font-family="Verdana" font-size="16.6667" font-style="italic" lengthAdjust="spacing" textLength="23.9583" x="161.4583" y="412.4378">Yes</text><text fill="#5A5A5A" font-family="Verdana" font-size="16.6667" lengthAdjust="spacing" textLength="60.4167" x="118.75" y="350.3711">Module</text><text fill="#5A5A5A" font-family="Verdana" font-size="16.6667" lengthAdjust="spacing" textLength="92.7083" x="102.6042" y="373.0711">re-enabled?</text><text fill="#5A5A5A" font-family="Verdana" font-size="16.6667" font-style="italic" lengthAdjust="spacing" textLength="20.8333" x="224.4792" y="342.0378">No</text><ellipse cx="276.5625" cy="355.2544" fill="none" rx="11.4583" ry="11.4583" style="stroke:#007FAF;stroke-width:1.0416666666666667;"/><ellipse cx="276.5625" cy="355.2544" fill="none" rx="6.25" ry="6.25" style="stroke:#007FAF;stroke-width:1.0416666666666667;"/><rect fill="url(#g1wz2dxwetd1px0)" height="51.8667" rx="10.4167" ry="10.4167" style="stroke:#009FDB;stroke-width:1.0416666666666667;" width="262.5" x="419.2708" y="324.221"/><text fill="#FFFFFF" font-family="Verdana" font-size="16.6667" lengthAdjust="spacing" textLength="233.3333" x="433.8542" y="356.6211">ModuleRelease v1.0.0 deleted</text><rect fill="url(#g1wz2dxwetd1px0)" height="51.8667" rx="10.4167" ry="10.4167" style="stroke:#009FDB;stroke-width:1.0416666666666667;" width="276.0417" x="412.5" y="513.0462"/><text fill="#FFFFFF" font-family="Verdana" font-size="16.6667" lengthAdjust="spacing" textLength="246.875" x="427.0833" y="545.4462">ModuleRelease v1.1.1 deployed</text><rect fill="url(#g1wz2dxwetd1px0)" height="51.8667" rx="10.4167" ry="10.4167" style="stroke:#009FDB;stroke-width:1.0416666666666667;" width="221.875" x="439.5833" y="601.3713"/><text fill="#FFFFFF" font-family="Verdana" font-size="16.6667" lengthAdjust="spacing" textLength="192.7083" x="454.1667" y="633.7713">Update module to v1.1.1</text><polygon fill="url(#g1wz2dxwetd1px1)" points="495.8333,412.5461,605.2083,412.5461,617.7083,443.5795,605.2083,474.6129,495.8333,474.6129,483.3333,443.5795,495.8333,412.5461" style="stroke:#C2C2C2;stroke-width:1.0416666666666667;"/><text fill="#5A5A5A" font-family="Verdana" font-size="16.6667" font-style="italic" lengthAdjust="spacing" textLength="23.9583" x="563.0208" y="500.7629">Yes</text><text fill="#5A5A5A" font-family="Verdana" font-size="16.6667" lengthAdjust="spacing" textLength="60.4167" x="520.3125" y="438.6961">Module</text><text fill="#5A5A5A" font-family="Verdana" font-size="16.6667" lengthAdjust="spacing" textLength="92.7083" x="504.1667" y="461.3962">re-enabled?</text><text fill="#5A5A5A" font-family="Verdana" font-size="16.6667" font-style="italic" lengthAdjust="spacing" textLength="20.8333" x="626.0417" y="430.3628">No</text><ellipse cx="678.125" cy="443.5795" fill="none" rx="11.4583" ry="11.4583" style="stroke:#007FAF;stroke-width:1.0416666666666667;"/><ellipse cx="678.125" cy="443.5795" fill="none" rx="6.25" ry="6.25" style="stroke:#007FAF;stroke-width:1.0416666666666667;"/><polygon fill="url(#g1wz2dxwetd1px1)" points="349.7396,686.3547,362.2396,698.8547,349.7396,711.3547,337.2396,698.8547,349.7396,686.3547" style="stroke:#C2C2C2;stroke-width:1.0416666666666667;"/><rect fill="url(#g1wz2dxwetd1px0)" height="51.8667" rx="10.4167" ry="10.4167" style="stroke:#009FDB;stroke-width:1.0416666666666667;" width="160.4167" x="269.5313" y="732.188"/><text fill="#FFFFFF" font-family="Verdana" font-size="16.6667" lengthAdjust="spacing" textLength="131.25" x="284.1146" y="764.588">Module updated</text><ellipse cx="349.7396" cy="816.3464" fill="none" rx="11.4583" ry="11.4583" style="stroke:#007FAF;stroke-width:1.0416666666666667;"/><ellipse cx="349.7396" cy="816.3464" fill="none" rx="6.25" ry="6.25" style="stroke:#007FAF;stroke-width:1.0416666666666667;"/><line style="stroke:#009FDB;stroke-width:3.125;" x1="349.7396" x2="349.7396" y1="31.25" y2="52.0833"/><polygon fill="#009FDB" points="345.5729,41.6667,349.7396,52.0833,353.9063,41.6667,349.7396,45.8333" style="stroke:#009FDB;stroke-width:1.0416666666666667;"/><line style="stroke:#009FDB;stroke-width:3.125;" x1="349.7396" x2="349.7396" y1="103.95" y2="124.7834"/><polygon fill="#009FDB" points="345.5729,114.3667,349.7396,124.7834,353.9063,114.3667,349.7396,118.5334" style="stroke:#009FDB;stroke-width:1.0416666666666667;"/><line style="stroke:#009FDB;stroke-width:3.125;" x1="349.7396" x2="349.7396" y1="176.6501" y2="197.4834"/><polygon fill="#009FDB" points="345.5729,187.0668,349.7396,197.4834,353.9063,187.0668,349.7396,191.2334" style="stroke:#009FDB;stroke-width:1.0416666666666667;"/><line style="stroke:#009FDB;stroke-width:3.125;" x1="148.9583" x2="148.9583" y1="476.5879" y2="513.0462"/><polygon fill="#009FDB" points="144.7917,502.6295,148.9583,513.0462,153.125,502.6295,148.9583,506.7962" style="stroke:#009FDB;stroke-width:1.0416666666666667;"/><line style="stroke:#009FDB;stroke-width:3.125;" x1="148.9583" x2="148.9583" y1="587.613" y2="624.0713"/><polygon fill="#009FDB" points="144.7917,613.6546,148.9583,624.0713,153.125,613.6546,148.9583,617.8213" style="stroke:#009FDB;stroke-width:1.0416666666666667;"/><line style="stroke:#009FDB;stroke-width:3.125;" x1="148.9583" x2="148.9583" y1="386.2878" y2="424.7212"/><polygon fill="#009FDB" points="144.7917,414.3045,148.9583,424.7212,153.125,414.3045,148.9583,418.4712" style="stroke:#009FDB;stroke-width:1.0416666666666667;"/><line style="stroke:#009FDB;stroke-width:3.125;" x1="216.1458" x2="265.1042" y1="355.2544" y2="355.2544"/><polygon fill="#009FDB" points="254.6875,351.0878,265.1042,355.2544,254.6875,359.4211,258.8542,355.2544" style="stroke:#009FDB;stroke-width:1.0416666666666667;"/><line style="stroke:#009FDB;stroke-width:3.125;" x1="148.9583" x2="148.9583" y1="675.938" y2="698.8547"/><line style="stroke:#009FDB;stroke-width:3.125;" x1="148.9583" x2="337.2396" y1="698.8547" y2="698.8547"/><polygon fill="#009FDB" points="326.8229,694.688,337.2396,698.8547,326.8229,703.0213,330.9896,698.8547" style="stroke:#009FDB;stroke-width:1.0416666666666667;"/><line style="stroke:#009FDB;stroke-width:3.125;" x1="550.5208" x2="550.5208" y1="564.9129" y2="601.3713"/><polygon fill="#009FDB" points="546.3542,590.9546,550.5208,601.3713,554.6875,590.9546,550.5208,595.1213" style="stroke:#009FDB;stroke-width:1.0416666666666667;"/><line style="stroke:#009FDB;stroke-width:3.125;" x1="550.5208" x2="550.5208" y1="474.6129" y2="513.0462"/><polygon fill="#009FDB" points="546.3542,502.6295,550.5208,513.0462,554.6875,502.6295,550.5208,506.7962" style="stroke:#009FDB;stroke-width:1.0416666666666667;"/><line style="stroke:#009FDB;stroke-width:3.125;" x1="617.7083" x2="666.6667" y1="443.5795" y2="443.5795"/><polygon fill="#009FDB" points="656.25,439.4128,666.6667,443.5795,656.25,447.7461,660.4167,443.5795" style="stroke:#009FDB;stroke-width:1.0416666666666667;"/><line style="stroke:#009FDB;stroke-width:3.125;" x1="550.5208" x2="550.5208" y1="653.238" y2="698.8547"/><line style="stroke:#009FDB;stroke-width:3.125;" x1="550.5208" x2="362.2396" y1="698.8547" y2="698.8547"/><polygon fill="#009FDB" points="372.6563,694.688,362.2396,698.8547,372.6563,703.0213,368.4896,698.8547" style="stroke:#009FDB;stroke-width:1.0416666666666667;"/><line style="stroke:#009FDB;stroke-width:3.125;" x1="550.5208" x2="550.5208" y1="376.0878" y2="412.5461"/><polygon fill="#009FDB" points="546.3542,402.1294,550.5208,412.5461,554.6875,402.1294,550.5208,406.2961" style="stroke:#009FDB;stroke-width:1.0416666666666667;"/><line style="stroke:#009FDB;stroke-width:3.125;" x1="242.9688" x2="148.9583" y1="294.121" y2="294.121"/><line style="stroke:#009FDB;stroke-width:3.125;" x1="148.9583" x2="148.9583" y1="294.121" y2="324.221"/><polygon fill="#009FDB" points="144.7917,313.8044,148.9583,324.221,153.125,313.8044,148.9583,317.971" style="stroke:#009FDB;stroke-width:1.0416666666666667;"/><line style="stroke:#009FDB;stroke-width:3.125;" x1="456.5104" x2="550.5208" y1="294.121" y2="294.121"/><line style="stroke:#009FDB;stroke-width:3.125;" x1="550.5208" x2="550.5208" y1="294.121" y2="324.221"/><polygon fill="#009FDB" points="546.3542,313.8044,550.5208,324.221,554.6875,313.8044,550.5208,317.971" style="stroke:#009FDB;stroke-width:1.0416666666666667;"/><line style="stroke:#009FDB;stroke-width:3.125;" x1="349.7396" x2="349.7396" y1="249.3501" y2="274.4377"/><polygon fill="#009FDB" points="345.5729,264.021,349.7396,274.4377,353.9063,264.021,349.7396,268.1877" style="stroke:#009FDB;stroke-width:1.0416666666666667;"/><line style="stroke:#009FDB;stroke-width:3.125;" x1="349.7396" x2="349.7396" y1="711.3547" y2="732.188"/><polygon fill="#009FDB" points="345.5729,721.7713,349.7396,732.188,353.9063,721.7713,349.7396,725.938" style="stroke:#009FDB;stroke-width:1.0416666666666667;"/><line style="stroke:#009FDB;stroke-width:3.125;" x1="349.7396" x2="349.7396" y1="784.0547" y2="804.8881"/><polygon fill="#009FDB" points="345.5729,794.4714,349.7396,804.8881,353.9063,794.4714,349.7396,798.6381" style="stroke:#009FDB;stroke-width:1.0416666666666667;"/><!--SRC=[fP4nJyCm48Lt_ufZQmTGmm0I3AW28HOOA0n8NQxn9R7gd2Fxqb9-FNQIHf4eKnVByllUtRlpXLHK4sniIwN7WmfRmmrwhE692cojF3kMbVaXo6ucOeMizzw844E1Dj14MthlzfrD3fR025gJ_otyGT-ojARacbWWZmVv2RN1V5jwrx9-TDPv48ySeXIv2RMgKBkzuN98eOAW5wNkNfrkOtDYt5ZIzyU7TxA4WM2NNIsk5g2fiUumqK6RC3YKAM3sWW5khw5ohG_GO0Ya7-OGTyOmUtDp1P2ethjcJvT3mn7wef0eWDC1C1UpGqdzJaDPWbYlkRjd4ATbwr2FZiz6Hp_KVNnnlIbBAiMD76C2175DUcHj2jLBGxZ_TcEf2tRMa5tcSSld9ExEyP_QhaWicQ1V]--></g></svg>