<?xml version="1.0" encoding="us-ascii" standalone="no"?><svg xmlns="http://www.w3.org/2000/svg" xmlns:xlink="http://www.w3.org/1999/xlink" contentStyleType="text/css" height="838.5417px" preserveAspectRatio="none" style="width:803px;height:838px;" version="1.1" viewBox="0 0 803 838" width="803.125px" zoomAndPan="magnify"><defs><linearGradient id="g17lbebi4e5v4y0" x1="50%" x2="50%" y1="0%" y2="100%"><stop offset="0%" stop-color="#33B2E2"/><stop offset="100%" stop-color="#009FDB"/></linearGradient><linearGradient id="g17lbebi4e5v4y1" x1="50%" x2="50%" y1="0%" y2="100%"><stop offset="0%" stop-color="#F5F5F5"/><stop offset="100%" stop-color="#C2C2C2"/></linearGradient></defs><g><ellipse cx="385.1563" cy="20.8333" fill="#0568AE" rx="10.4167" ry="10.4167" style="stroke:#007FAF;stroke-width:1.0416666666666667;"/><rect fill="url(#g17lbebi4e5v4y0)" height="51.8667" rx="10.4167" ry="10.4167" style="stroke:#009FDB;stroke-width:1.0416666666666667;" width="167.7083" x="301.3021" y="52.0833"/><text fill="#FFFFFF" font-family="Verdana" font-size="16.6667" lengthAdjust="spacing" textLength="138.5417" x="315.8854" y="84.4834">&#1052;&#1086;&#1076;&#1091;&#1083;&#1100; &#1074;&#1082;&#1083;&#1102;&#1095;&#1105;&#1085;</text><rect fill="url(#g17lbebi4e5v4y0)" height="51.8667" rx="10.4167" ry="10.4167" style="stroke:#009FDB;stroke-width:1.0416666666666667;" width="287.5" x="241.4063" y="124.7834"/><text fill="#FFFFFF" font-family="Verdana" font-size="16.6667" lengthAdjust="spacing" textLength="258.3333" x="255.9896" y="157.1834">ModuleRelease v1.0.0 &#1088;&#1072;&#1079;&#1074;&#1105;&#1088;&#1085;&#1091;&#1090;</text><rect fill="url(#g17lbebi4e5v4y0)" height="51.8667" rx="10.4167" ry="10.4167" style="stroke:#009FDB;stroke-width:1.0416666666666667;" width="177.0833" x="296.6146" y="197.4834"/><text fill="#FFFFFF" font-family="Verdana" font-size="16.6667" lengthAdjust="spacing" textLength="147.9167" x="311.1979" y="229.8835">&#1052;&#1086;&#1076;&#1091;&#1083;&#1100; &#1086;&#1090;&#1082;&#1083;&#1102;&#1095;&#1105;&#1085;</text><polygon fill="url(#g17lbebi4e5v4y1)" points="307.0313,274.4377,463.2813,274.4377,475.7813,294.121,463.2813,313.8044,307.0313,313.8044,294.5313,294.121,307.0313,274.4377" style="stroke:#C2C2C2;stroke-width:1.0416666666666667;"/><text fill="#5A5A5A" font-family="Verdana" font-size="16.6667" lengthAdjust="spacing" textLength="139.5833" x="315.3646" y="300.5877">&#1055;&#1088;&#1086;&#1096;&#1083;&#1086; 72 &#1095;&#1072;&#1089;&#1072;?</text><text fill="#5A5A5A" font-family="Verdana" font-size="16.6667" font-style="italic" lengthAdjust="spacing" textLength="34.375" x="251.8229" y="280.9043">&#1053;&#1077;&#1090;</text><text fill="#5A5A5A" font-family="Verdana" font-size="16.6667" font-style="italic" lengthAdjust="spacing" textLength="19.7917" x="484.1146" y="280.9043">&#1044;&#1072;</text><rect fill="url(#g17lbebi4e5v4y0)" height="51.8667" rx="10.4167" ry="10.4167" style="stroke:#009FDB;stroke-width:1.0416666666666667;" width="309.375" x="11.4583" y="424.7212"/><text fill="#FFFFFF" font-family="Verdana" font-size="16.6667" lengthAdjust="spacing" textLength="280.2083" x="26.0417" y="457.1212">ModuleRelease v1.0.0 &#1072;&#1082;&#1090;&#1080;&#1074;&#1080;&#1088;&#1086;&#1074;&#1072;&#1085;</text><rect fill="url(#g17lbebi4e5v4y0)" height="74.5668" rx="10.4167" ry="10.4167" style="stroke:#009FDB;stroke-width:1.0416666666666667;" width="243.75" x="44.2708" y="513.0462"/><text fill="#FFFFFF" font-family="Verdana" font-size="16.6667" lengthAdjust="spacing" textLength="214.5833" x="58.8542" y="545.4462">&#1047;&#1072;&#1075;&#1088;&#1091;&#1078;&#1077;&#1085;&#1099; ModuleRelease</text><text fill="#FFFFFF" font-family="Verdana" font-size="16.6667" lengthAdjust="spacing" textLength="108.3333" x="111.9792" y="568.1463">v1.1.0 &#1080; v1.1.1</text><rect fill="url(#g17lbebi4e5v4y0)" height="51.8667" rx="10.4167" ry="10.4167" style="stroke:#009FDB;stroke-width:1.0416666666666667;" width="268.75" x="31.7708" y="624.0713"/><text fill="#FFFFFF" font-family="Verdana" font-size="16.6667" lengthAdjust="spacing" textLength="239.5833" x="46.3542" y="656.4713">&#1054;&#1073;&#1085;&#1086;&#1074;&#1083;&#1077;&#1085;&#1080;&#1077; &#1084;&#1086;&#1076;&#1091;&#1083;&#1103; &#1076;&#1086; v1.1.1</text><polygon fill="url(#g17lbebi4e5v4y1)" points="76.5625,324.221,255.7292,324.221,268.2292,355.2544,255.7292,386.2878,76.5625,386.2878,64.0625,355.2544,76.5625,324.221" style="stroke:#C2C2C2;stroke-width:1.0416666666666667;"/><text fill="#5A5A5A" font-family="Verdana" font-size="16.6667" font-style="italic" lengthAdjust="spacing" textLength="19.7917" x="178.6458" y="412.4378">&#1044;&#1072;</text><text fill="#5A5A5A" font-family="Verdana" font-size="16.6667" lengthAdjust="spacing" textLength="63.5417" x="134.375" y="350.3711">&#1052;&#1086;&#1076;&#1091;&#1083;&#1100;</text><text fill="#5A5A5A" font-family="Verdana" font-size="16.6667" lengthAdjust="spacing" textLength="162.5" x="84.8958" y="373.0711">&#1087;&#1086;&#1074;&#1090;&#1086;&#1088;&#1085;&#1086; &#1074;&#1082;&#1083;&#1102;&#1095;&#1105;&#1085;?</text><text fill="#5A5A5A" font-family="Verdana" font-size="16.6667" font-style="italic" lengthAdjust="spacing" textLength="34.375" x="276.5625" y="342.0378">&#1053;&#1077;&#1090;</text><ellipse cx="342.1875" cy="355.2544" fill="none" rx="11.4583" ry="11.4583" style="stroke:#007FAF;stroke-width:1.0416666666666667;"/><ellipse cx="342.1875" cy="355.2544" fill="none" rx="6.25" ry="6.25" style="stroke:#007FAF;stroke-width:1.0416666666666667;"/><rect fill="url(#g17lbebi4e5v4y0)" height="51.8667" rx="10.4167" ry="10.4167" style="stroke:#009FDB;stroke-width:1.0416666666666667;" width="259.375" x="474.4792" y="324.221"/><text fill="#FFFFFF" font-family="Verdana" font-size="16.6667" lengthAdjust="spacing" textLength="230.2083" x="489.0625" y="356.6211">ModuleRelease v1.0.0 &#1091;&#1076;&#1072;&#1083;&#1105;&#1085;</text><rect fill="url(#g17lbebi4e5v4y0)" height="51.8667" rx="10.4167" ry="10.4167" style="stroke:#009FDB;stroke-width:1.0416666666666667;" width="287.5" x="460.4167" y="513.0462"/><text fill="#FFFFFF" font-family="Verdana" font-size="16.6667" lengthAdjust="spacing" textLength="258.3333" x="475" y="545.4462">ModuleRelease v1.1.1 &#1088;&#1072;&#1079;&#1074;&#1105;&#1088;&#1085;&#1091;&#1090;</text><rect fill="url(#g17lbebi4e5v4y0)" height="51.8667" rx="10.4167" ry="10.4167" style="stroke:#009FDB;stroke-width:1.0416666666666667;" width="268.75" x="469.7917" y="601.3713"/><text fill="#FFFFFF" font-family="Verdana" font-size="16.6667" lengthAdjust="spacing" textLength="239.5833" x="484.375" y="633.7713">&#1054;&#1073;&#1085;&#1086;&#1074;&#1083;&#1077;&#1085;&#1080;&#1077; &#1084;&#1086;&#1076;&#1091;&#1083;&#1103; &#1076;&#1086; v1.1.1</text><polygon fill="url(#g17lbebi4e5v4y1)" points="514.5833,412.5461,693.75,412.5461,706.25,443.5795,693.75,474.6129,514.5833,474.6129,502.0833,443.5795,514.5833,412.5461" style="stroke:#C2C2C2;stroke-width:1.0416666666666667;"/><text fill="#5A5A5A" font-family="Verdana" font-size="16.6667" font-style="italic" lengthAdjust="spacing" textLength="19.7917" x="616.6667" y="500.7629">&#1044;&#1072;</text><text fill="#5A5A5A" font-family="Verdana" font-size="16.6667" lengthAdjust="spacing" textLength="63.5417" x="572.3958" y="438.6961">&#1052;&#1086;&#1076;&#1091;&#1083;&#1100;</text><text fill="#5A5A5A" font-family="Verdana" font-size="16.6667" lengthAdjust="spacing" textLength="162.5" x="522.9167" y="461.3962">&#1087;&#1086;&#1074;&#1090;&#1086;&#1088;&#1085;&#1086; &#1074;&#1082;&#1083;&#1102;&#1095;&#1105;&#1085;?</text><text fill="#5A5A5A" font-family="Verdana" font-size="16.6667" font-style="italic" lengthAdjust="spacing" textLength="34.375" x="714.5833" y="430.3628">&#1053;&#1077;&#1090;</text><ellipse cx="780.2083" cy="443.5795" fill="none" rx="11.4583" ry="11.4583" style="stroke:#007FAF;stroke-width:1.0416666666666667;"/><ellipse cx="780.2083" cy="443.5795" fill="none" rx="6.25" ry="6.25" style="stroke:#007FAF;stroke-width:1.0416666666666667;"/><polygon fill="url(#g17lbebi4e5v4y1)" points="385.1563,686.3547,397.6563,698.8547,385.1563,711.3547,372.6563,698.8547,385.1563,686.3547" style="stroke:#C2C2C2;stroke-width:1.0416666666666667;"/><rect fill="url(#g17lbebi4e5v4y0)" height="51.8667" rx="10.4167" ry="10.4167" style="stroke:#009FDB;stroke-width:1.0416666666666667;" width="177.0833" x="296.6146" y="732.188"/><text fill="#FFFFFF" font-family="Verdana" font-size="16.6667" lengthAdjust="spacing" textLength="147.9167" x="311.1979" y="764.588">&#1052;&#1086;&#1076;&#1091;&#1083;&#1100; &#1086;&#1073;&#1085;&#1086;&#1074;&#1083;&#1105;&#1085;</text><ellipse cx="385.1563" cy="816.3464" fill="none" rx="11.4583" ry="11.4583" style="stroke:#007FAF;stroke-width:1.0416666666666667;"/><ellipse cx="385.1563" cy="816.3464" fill="none" rx="6.25" ry="6.25" style="stroke:#007FAF;stroke-width:1.0416666666666667;"/><line style="stroke:#009FDB;stroke-width:3.125;" x1="385.1563" x2="385.1563" y1="31.25" y2="52.0833"/><polygon fill="#009FDB" points="380.9896,41.6667,385.1563,52.0833,389.3229,41.6667,385.1563,45.8333" style="stroke:#009FDB;stroke-width:1.0416666666666667;"/><line style="stroke:#009FDB;stroke-width:3.125;" x1="385.1563" x2="385.1563" y1="103.95" y2="124.7834"/><polygon fill="#009FDB" points="380.9896,114.3667,385.1563,124.7834,389.3229,114.3667,385.1563,118.5334" style="stroke:#009FDB;stroke-width:1.0416666666666667;"/><line style="stroke:#009FDB;stroke-width:3.125;" x1="385.1563" x2="385.1563" y1="176.6501" y2="197.4834"/><polygon fill="#009FDB" points="380.9896,187.0668,385.1563,197.4834,389.3229,187.0668,385.1563,191.2334" style="stroke:#009FDB;stroke-width:1.0416666666666667;"/><line style="stroke:#009FDB;stroke-width:3.125;" x1="166.1458" x2="166.1458" y1="476.5879" y2="513.0462"/><polygon fill="#009FDB" points="161.9792,502.6295,166.1458,513.0462,170.3125,502.6295,166.1458,506.7962" style="stroke:#009FDB;stroke-width:1.0416666666666667;"/><line style="stroke:#009FDB;stroke-width:3.125;" x1="166.1458" x2="166.1458" y1="587.613" y2="624.0713"/><polygon fill="#009FDB" points="161.9792,613.6546,166.1458,624.0713,170.3125,613.6546,166.1458,617.8213" style="stroke:#009FDB;stroke-width:1.0416666666666667;"/><line style="stroke:#009FDB;stroke-width:3.125;" x1="166.1458" x2="166.1458" y1="386.2878" y2="424.7212"/><polygon fill="#009FDB" points="161.9792,414.3045,166.1458,424.7212,170.3125,414.3045,166.1458,418.4712" style="stroke:#009FDB;stroke-width:1.0416666666666667;"/><line style="stroke:#009FDB;stroke-width:3.125;" x1="268.2292" x2="330.7292" y1="355.2544" y2="355.2544"/><polygon fill="#009FDB" points="320.3125,351.0878,330.7292,355.2544,320.3125,359.4211,324.4792,355.2544" style="stroke:#009FDB;stroke-width:1.0416666666666667;"/><line style="stroke:#009FDB;stroke-width:3.125;" x1="166.1458" x2="166.1458" y1="675.938" y2="698.8547"/><line style="stroke:#009FDB;stroke-width:3.125;" x1="166.1458" x2="372.6563" y1="698.8547" y2="698.8547"/><polygon fill="#009FDB" points="362.2396,694.688,372.6563,698.8547,362.2396,703.0213,366.4063,698.8547" style="stroke:#009FDB;stroke-width:1.0416666666666667;"/><line style="stroke:#009FDB;stroke-width:3.125;" x1="604.1667" x2="604.1667" y1="564.9129" y2="601.3713"/><polygon fill="#009FDB" points="600,590.9546,604.1667,601.3713,608.3333,590.9546,604.1667,595.1213" style="stroke:#009FDB;stroke-width:1.0416666666666667;"/><line style="stroke:#009FDB;stroke-width:3.125;" x1="604.1667" x2="604.1667" y1="474.6129" y2="513.0462"/><polygon fill="#009FDB" points="600,502.6295,604.1667,513.0462,608.3333,502.6295,604.1667,506.7962" style="stroke:#009FDB;stroke-width:1.0416666666666667;"/><line style="stroke:#009FDB;stroke-width:3.125;" x1="706.25" x2="768.75" y1="443.5795" y2="443.5795"/><polygon fill="#009FDB" points="758.3333,439.4128,768.75,443.5795,758.3333,447.7461,762.5,443.5795" style="stroke:#009FDB;stroke-width:1.0416666666666667;"/><line style="stroke:#009FDB;stroke-width:3.125;" x1="604.1667" x2="604.1667" y1="653.238" y2="698.8547"/><line style="stroke:#009FDB;stroke-width:3.125;" x1="604.1667" x2="397.6563" y1="698.8547" y2="698.8547"/><polygon fill="#009FDB" points="408.0729,694.688,397.6563,698.8547,408.0729,703.0213,403.9063,698.8547" style="stroke:#009FDB;stroke-width:1.0416666666666667;"/><line style="stroke:#009FDB;stroke-width:3.125;" x1="604.1667" x2="604.1667" y1="376.0878" y2="412.5461"/><polygon fill="#009FDB" points="600,402.1294,604.1667,412.5461,608.3333,402.1294,604.1667,406.2961" style="stroke:#009FDB;stroke-width:1.0416666666666667;"/><line style="stroke:#009FDB;stroke-width:3.125;" x1="294.5313" x2="166.1458" y1="294.121" y2="294.121"/><line style="stroke:#009FDB;stroke-width:3.125;" x1="166.1458" x2="166.1458" y1="294.121" y2="324.221"/><polygon fill="#009FDB" points="161.9792,313.8044,166.1458,324.221,170.3125,313.8044,166.1458,317.971" style="stroke:#009FDB;stroke-width:1.0416666666666667;"/><line style="stroke:#009FDB;stroke-width:3.125;" x1="475.7813" x2="604.1667" y1="294.121" y2="294.121"/><line style="stroke:#009FDB;stroke-width:3.125;" x1="604.1667" x2="604.1667" y1="294.121" y2="324.221"/><polygon fill="#009FDB" points="600,313.8044,604.1667,324.221,608.3333,313.8044,604.1667,317.971" style="stroke:#009FDB;stroke-width:1.0416666666666667;"/><line style="stroke:#009FDB;stroke-width:3.125;" x1="385.1563" x2="385.1563" y1="249.3501" y2="274.4377"/><polygon fill="#009FDB" points="380.9896,264.021,385.1563,274.4377,389.3229,264.021,385.1563,268.1877" style="stroke:#009FDB;stroke-width:1.0416666666666667;"/><line style="stroke:#009FDB;stroke-width:3.125;" x1="385.1563" x2="385.1563" y1="711.3547" y2="732.188"/><polygon fill="#009FDB" points="380.9896,721.7713,385.1563,732.188,389.3229,721.7713,385.1563,725.938" style="stroke:#009FDB;stroke-width:1.0416666666666667;"/><line style="stroke:#009FDB;stroke-width:3.125;" x1="385.1563" x2="385.1563" y1="784.0547" y2="804.8881"/><polygon fill="#009FDB" points="380.9896,794.4714,385.1563,804.8881,389.3229,794.4714,385.1563,798.6381" style="stroke:#009FDB;stroke-width:1.0416666666666667;"/><!--SRC=[jPAzJiCm4CVtFCMnqGLH1f3eW128ZOKoifZ6IIrS1pak1QRI3aK2WIeXiV3n2g5Gg2Y4LpY_4UTGQCh7Y28vjkx-F__lpbEcociSjcMTXveTUF6EKBjCingiye3LfLcBb2cBGmx5-LomofJVqC8OhY1WCkQvsBBMKIEJcGF9GHWcHUKdU9FlcsKfGbNZoa255gvpMTkiiXFggAxybKX66encAgOGvUMoobNcHmsXmf4BBpPC6yzRn2jCyS6sSMXF0NluJ9ipsx5TV2rvY-kHNvTyWqlEOWvxnPdPcLcmJKpm2NksIxjNsxQjqdTEQbkJ94y4C8st94ZjCGunXOKvi1rCx14cImMWxYfAkCQ-RHKyW2mzXznI-4Qd7d5JToi19isE6HUOE0B0x-x9-pDH1YGVE3lqJvp3J86NTBYtJRhq4VjKt0bCGBOKKOgECe1iL_mKtk2TSqMqeHCIlm_uybN0EU03UHvhE4qXNp10RA9T5r2-2BnHU5JB7tDe4pCX-4U7_wjfzFqwyl-fErj_FAVn9H_5Eiqx]--></g></svg>