<svg xmlns="http://www.w3.org/2000/svg" version="1.1" viewBox="0 0 2547 2868" style="background: #ffffff" width="2547" height="2868"><defs joint-selector="defs" /><g joint-selector="layers" transform="matrix(1,0,0,1,0,0)"><g /><g><!--z-index:1--><!--z-index:2--><!--z-index:3--><!--z-index:4--><!--z-index:5--><!--z-index:6--><!--z-index:7--><!--z-index:8--><!--z-index:9--><!--z-index:10--><!--z-index:11--><!--z-index:12--><!--z-index:13--><!--z-index:14--><!--z-index:15--><!--z-index:16--><!--z-index:17--><!--z-index:18--><!--z-index:19--><!--z-index:20--><!--z-index:21--><!--z-index:22--><!--z-index:23--><!--z-index:24--><!--z-index:25--><!--z-index:26--><!--z-index:27--><!--z-index:28--><!--z-index:29--><!--z-index:30--><!--z-index:31--><!--z-index:32--><!--z-index:33--><!--z-index:34--><!--z-index:35--><!--z-index:36--><!--z-index:37--><!--z-index:38--><!--z-index:39--><!--z-index:40--><!--z-index:41--><!--z-index:42--><!--z-index:43--><!--z-index:44--><!--z-index:45--><!--z-index:46--><!--z-index:47--><!--z-index:48--><!--z-index:49--><!--z-index:50--><!--z-index:51--><!--z-index:52--><!--z-index:53--><!--z-index:54--><!--z-index:55--><!--z-index:56--><!--z-index:57--><!--z-index:58--><!--z-index:59--><!--z-index:60--><!--z-index:61--><!--z-index:62--><!--z-index:63--><!--z-index:64--><!--z-index:65--><!--z-index:66--><!--z-index:67--><!--z-index:68--><!--z-index:69--><!--z-index:70--><!--z-index:71--><!--z-index:72--><!--z-index:73--><!--z-index:74--><!--z-index:75--><!--z-index:76--><!--z-index:77--><!--z-index:78--><!--z-index:79--><!--z-index:80--><!--z-index:81--><!--z-index:82--><!--z-index:83--><!--z-index:84--><!--z-index:85--><!--z-index:86--><!--z-index:87--><!--z-index:88--><!--z-index:89--><!--z-index:90--><!--z-index:91--><!--z-index:92--><!--z-index:93--><!--z-index:94--><!--z-index:95--><!--z-index:96--><!--z-index:97--><!--z-index:98--><!--z-index:99--><!--z-index:100--><!--z-index:101--><!--z-index:102--><!--z-index:103--><!--z-index:104--><!--z-index:105--><!--z-index:106--><!--z-index:107--><!--z-index:108--><!--z-index:109--><!--z-index:110--><!--z-index:111--><!--z-index:112--><!--z-index:113--><!--z-index:114--><!--z-index:115--><g id="j_314" transform="translate(20,2824)"><g id="v-3667"><text id="v-3668" font-size="24px" xml:space="preserve" y="0.8em" font-weight="normal" text-anchor="start" fill="#444444" pointer-events="none" display="block" font-family="Open Sans, Tahoma, Arial" /></g></g><!--z-index:116--><g id="j_313" transform="translate(20,2778)"><g id="v-3665"><text id="v-3666" font-size="36px" xml:space="preserve" y="0.8em" font-weight="normal" text-anchor="start" fill="#444444" pointer-events="none" display="block" font-family="Open Sans, Tahoma, Arial" /></g></g><!--z-index:117--><g id="j_315" transform="translate(50,1194)" style=""><g id="v-3672" style="opacity: 1;"><rect id="v-3673" rx="20" ry="20" stroke-width="1" pointer-events="visiblePainted" fill="#ededed" stroke="#696a6d" stroke-dasharray="" width="450" height="300" /><text id="v-3674" font-size="33.599999999999994px" xml:space="preserve" y="93.54" font-weight="bold" text-anchor="middle" pointer-events="visible" font-family="Open Sans, Tahoma, Arial" fill="#000000" dominant-baseline="hanging" transform="matrix(1,0,0,1,225,0)"><tspan dy="0">Deckhouse Virtualization</tspan><tspan dy="1.2em" x="0">Platform</tspan></text><text id="v-3676" font-size="24px" xml:space="preserve" y="182.45999999999998" text-anchor="middle" font-family="Open Sans, Tahoma, Arial" fill="#000000" dominant-baseline="hanging" transform="matrix(1,0,0,1,225,0)" style="display: block;"><tspan dy="0">Частное облако</tspan></text><image id="v-3678" /></g></g><!--z-index:118--><g id="j_318" transform="translate(790,9)" style=""><g id="v-3691"><rect id="v-3692" width="1640" height="2768" rx="20" ry="20" stroke-width="1" pointer-events="none" stroke="#004df2" fill="#ffffff" stroke-dasharray="" /><text id="v-3693" font-size="33.599999999999994px" xml:space="preserve" y="2729" font-weight="bold" text-anchor="start" pointer-events="visible" font-family="Open Sans, Tahoma, Arial" fill="#003ab5" transform="matrix(1,0,0,1,15,0)"><tspan dy="0">Deckhouse Platform</tspan></text><text id="v-3694" font-size="16.799999999999997px" xml:space="preserve" y="2753" font-weight="normal" text-anchor="start" pointer-events="visible" font-family="Open Sans, Tahoma, Arial" fill="#003ab5" transform="matrix(1,0,0,1,15,0)"><tspan dy="0">[Software System]</tspan></text><image id="v-3695" pointer-events="visible" /></g></g><!--z-index:119--><g id="j_317" transform="translate(810,29)" style=""><g id="v-3686"><rect id="v-3687" width="570" height="2649" rx="20" ry="20" stroke-width="1" pointer-events="none" stroke="#325ebd" fill="#f6f9ff" stroke-dasharray="1,2" /><text id="v-3688" font-size="33.599999999999994px" xml:space="preserve" y="2634" font-weight="bold" text-anchor="start" pointer-events="visible" font-family="Open Sans, Tahoma, Arial" fill="#325ebd" transform="matrix(1,0,0,1,15,0)"><tspan dy="0">Подсистема Cluster &amp; Infrastructure</tspan></text><image id="v-3690" pointer-events="visible" /></g></g><!--z-index:120--><g id="j_329" transform="translate(1840,1134)" style=""><g id="v-3773"><rect id="v-3774" width="570" height="609" rx="20" ry="20" stroke-width="1" pointer-events="none" stroke="#325ebd" fill="#f6f9ff" stroke-dasharray="1,2" /><text id="v-3775" font-size="33.599999999999994px" xml:space="preserve" y="594" font-weight="bold" text-anchor="start" pointer-events="visible" font-family="Open Sans, Tahoma, Arial" fill="#325ebd" transform="matrix(1,0,0,1,15,0)"><tspan dy="0">Подсистема Kubernetes &amp; Scheduling</tspan></text><image id="v-3777" pointer-events="visible" /></g></g><!--z-index:121--><g id="j_333" transform="translate(1840,2069)" style=""><g id="v-3798"><rect id="v-3799" width="570" height="609" rx="20" ry="20" stroke-width="1" pointer-events="none" stroke="#325ebd" fill="#f6f9ff" stroke-dasharray="1,2" /><text id="v-3800" font-size="33.599999999999994px" xml:space="preserve" y="594" font-weight="bold" text-anchor="start" pointer-events="visible" font-family="Open Sans, Tahoma, Arial" fill="#325ebd" transform="matrix(1,0,0,1,15,0)"><tspan dy="0">Подсистема Observability</tspan></text><image id="v-3802" pointer-events="visible" /></g></g><!--z-index:122--><g id="j_316" transform="translate(875,49)" style=""><g id="v-3679" style="opacity: 1;"><rect id="v-3680" rx="20" ry="20" stroke-width="1" pointer-events="visiblePainted" fill="#d8e4ff" stroke="#325ebd" stroke-dasharray="" width="450" height="300" /><text id="v-3681" font-size="33.599999999999994px" xml:space="preserve" y="101.30000000000001" font-weight="bold" text-anchor="middle" pointer-events="visible" font-family="Open Sans, Tahoma, Arial" fill="#325ebd" dominant-baseline="hanging" transform="matrix(1,0,0,1,225,0)"><tspan dy="0">node-manager</tspan></text><text id="v-3682" font-size="16.799999999999997px" xml:space="preserve" y="142.9" text-anchor="middle" font-family="Open Sans, Tahoma, Arial" fill="#325ebd" dominant-baseline="hanging" transform="matrix(1,0,0,1,225,0)" style="display: block;"><tspan dy="0">[Container]</tspan></text><text id="v-3683" font-size="24px" xml:space="preserve" y="174.7" text-anchor="middle" font-family="Open Sans, Tahoma, Arial" fill="#325ebd" dominant-baseline="hanging" transform="matrix(1,0,0,1,225,0)" style="display: block;"><tspan dy="0">Модуль</tspan></text><image id="v-3685" /></g></g><!--z-index:123--><g id="j_320" transform="translate(830,389)" style=""><g id="v-3706"><rect id="v-3707" width="530" height="2206" rx="20" ry="20" stroke-width="1" pointer-events="none" stroke="#325ebd" fill="#d8e4ff" stroke-dasharray="1,2" /><text id="v-3708" font-size="33.599999999999994px" xml:space="preserve" y="2191" font-weight="bold" text-anchor="start" pointer-events="visible" font-family="Open Sans, Tahoma, Arial" fill="#325ebd" transform="matrix(1,0,0,1,15,0)"><tspan dy="0">Модуль cloud-provider-dvp</tspan></text><image id="v-3710" pointer-events="visible" /></g></g><!--z-index:124--><g id="j_330" transform="translate(1860,1154)" style=""><g id="v-3778"><rect id="v-3779" width="530" height="506" rx="20" ry="20" stroke-width="1" pointer-events="none" stroke="#325ebd" fill="#d8e4ff" stroke-dasharray="1,2" /><text id="v-3780" font-size="33.599999999999994px" xml:space="preserve" y="491" font-weight="bold" text-anchor="start" pointer-events="visible" font-family="Open Sans, Tahoma, Arial" fill="#325ebd" transform="matrix(1,0,0,1,15,0)"><tspan dy="0">Сontrol plane Kubernetes-кластера</tspan></text><image id="v-3782" pointer-events="visible" /></g></g><!--z-index:125--><g id="j_334" transform="translate(1860,2089)" style=""><g id="v-3803"><rect id="v-3804" width="530" height="506" rx="20" ry="20" stroke-width="1" pointer-events="none" stroke="#325ebd" fill="#d8e4ff" stroke-dasharray="1,2" /><text id="v-3805" font-size="33.599999999999994px" xml:space="preserve" y="491" font-weight="bold" text-anchor="start" pointer-events="visible" font-family="Open Sans, Tahoma, Arial" fill="#325ebd" transform="matrix(1,0,0,1,15,0)"><tspan dy="0">Модуль prometheus</tspan></text><image id="v-3807" pointer-events="visible" /></g></g><!--z-index:126--><g id="j_319" transform="translate(870,409)" style=""><g id="v-3699" style="opacity: 1;"><rect id="v-3700" rx="20" ry="20" stroke-width="2" pointer-events="visiblePainted" fill="#e3ebff" stroke="#485d8e" stroke-dasharray="" width="450" height="300" /><text id="v-3701" font-size="33.599999999999994px" xml:space="preserve" y="101.30000000000001" font-weight="bold" text-anchor="middle" pointer-events="visible" font-family="Open Sans, Tahoma, Arial" fill="#000000" dominant-baseline="hanging" transform="matrix(1,0,0,1,225,0)"><tspan dy="0">CSI-драйвер (dvp)</tspan></text><text id="v-3702" font-size="16.799999999999997px" xml:space="preserve" y="142.9" text-anchor="middle" font-family="Open Sans, Tahoma, Arial" fill="#000000" dominant-baseline="hanging" transform="matrix(1,0,0,1,225,0)" style="display: block;"><tspan dy="0">[Container]</tspan></text><text id="v-3703" font-size="24px" xml:space="preserve" y="174.7" text-anchor="middle" font-family="Open Sans, Tahoma, Arial" fill="#000000" dominant-baseline="hanging" transform="matrix(1,0,0,1,225,0)" style="display: block;"><tspan dy="0">Приложение</tspan></text><image id="v-3705" /></g></g><!--z-index:127--><g id="j_322" transform="translate(850,744)" style=""><g id="v-3721"><rect id="v-3722" width="490" height="403" rx="20" ry="20" stroke-width="1" pointer-events="none" stroke="#000000" fill="#ffffff" stroke-dasharray="1,2" /><text id="v-3723" font-size="33.599999999999994px" xml:space="preserve" y="388" font-weight="bold" text-anchor="start" pointer-events="visible" font-family="Open Sans, Tahoma, Arial" fill="#000000" transform="matrix(1,0,0,1,15,0)"><tspan dy="0">capdvp-controller-manager [pod]</tspan></text><image id="v-3725" pointer-events="visible" /></g></g><!--z-index:128--><g id="j_324" transform="translate(850,1174)" style=""><g id="v-3736"><rect id="v-3737" width="490" height="403" rx="20" ry="20" stroke-width="1" pointer-events="none" stroke="#000000" fill="#ffffff" stroke-dasharray="1,2" /><text id="v-3738" font-size="33.599999999999994px" xml:space="preserve" y="388" font-weight="bold" text-anchor="start" pointer-events="visible" font-family="Open Sans, Tahoma, Arial" fill="#000000" transform="matrix(1,0,0,1,15,0)"><tspan dy="0">cloud-controller-manager (dvp) [pod]</tspan></text><image id="v-3740" pointer-events="visible" /></g></g><!--z-index:129--><g id="j_326" transform="translate(850,1604)" style=""><g id="v-3751"><rect id="v-3752" width="490" height="908" rx="20" ry="20" stroke-width="1" pointer-events="none" stroke="#000000" fill="#ffffff" stroke-dasharray="1,2" /><text id="v-3753" font-size="33.599999999999994px" xml:space="preserve" y="893" font-weight="bold" text-anchor="start" pointer-events="visible" font-family="Open Sans, Tahoma, Arial" fill="#000000" transform="matrix(1,0,0,1,15,0)"><tspan dy="0">cloud-data-discoverer (dvp) [pod]</tspan></text><image id="v-3755" pointer-events="visible" /></g></g><!--z-index:130--><g id="j_331" transform="translate(1880,1174)" style=""><g id="v-3783"><rect id="v-3784" width="490" height="403" rx="20" ry="20" stroke-width="1" pointer-events="none" stroke="#000000" fill="#ffffff" stroke-dasharray="1,2" /><text id="v-3785" font-size="33.599999999999994px" xml:space="preserve" y="388" font-weight="bold" text-anchor="start" pointer-events="visible" font-family="Open Sans, Tahoma, Arial" fill="#000000" transform="matrix(1,0,0,1,15,0)"><tspan dy="0">kube-apiserver [pod]</tspan></text><image id="v-3787" pointer-events="visible" /></g></g><!--z-index:131--><g id="j_335" transform="translate(1880,2109)" style=""><g id="v-3808"><rect id="v-3809" width="490" height="403" rx="20" ry="20" stroke-width="1" pointer-events="none" stroke="#000000" fill="#ffffff" stroke-dasharray="1,2" /><text id="v-3810" font-size="33.599999999999994px" xml:space="preserve" y="388" font-weight="bold" text-anchor="start" pointer-events="visible" font-family="Open Sans, Tahoma, Arial" fill="#000000" transform="matrix(1,0,0,1,15,0)"><tspan dy="0">prometheus-main [pod]</tspan></text><image id="v-3812" pointer-events="visible" /></g></g><!--z-index:132--><g id="j_321" transform="translate(870,764)" style=""><g id="v-3714" style="opacity: 1;"><rect id="v-3715" rx="20" ry="20" stroke-width="2" pointer-events="visiblePainted" fill="#e3ebff" stroke="#485d8e" stroke-dasharray="" width="450" height="300" /><text id="v-3716" font-size="33.599999999999994px" xml:space="preserve" y="100.64000000000001" font-weight="bold" text-anchor="middle" pointer-events="visible" font-family="Open Sans, Tahoma, Arial" fill="#000000" dominant-baseline="hanging" transform="matrix(1,0,0,1,225,0)"><tspan dy="0">capdvp-</tspan><tspan dy="1.2em" x="0">controller-manager</tspan></text><text id="v-3717" font-size="16.799999999999997px" xml:space="preserve" y="182.56" text-anchor="middle" font-family="Open Sans, Tahoma, Arial" fill="#000000" dominant-baseline="hanging" transform="matrix(1,0,0,1,225,0)" style="display: block;"><tspan dy="0">[Container]</tspan></text><image id="v-3720" /></g></g><!--z-index:133--><g id="j_323" transform="translate(870,1194)" style=""><g id="v-3729" style="opacity: 1;"><rect id="v-3730" rx="20" ry="20" stroke-width="2" pointer-events="visiblePainted" fill="#e3ebff" stroke="#485d8e" stroke-dasharray="" width="450" height="300" /><text id="v-3731" font-size="33.599999999999994px" xml:space="preserve" y="80.48000000000002" font-weight="bold" text-anchor="middle" pointer-events="visible" font-family="Open Sans, Tahoma, Arial" fill="#000000" dominant-baseline="hanging" transform="matrix(1,0,0,1,225,0)"><tspan dy="0">dvp-</tspan><tspan dy="1.2em" x="0">cloud-</tspan><tspan dy="1.2em" x="0">controller-manager</tspan></text><text id="v-3732" font-size="16.799999999999997px" xml:space="preserve" y="202.72" text-anchor="middle" font-family="Open Sans, Tahoma, Arial" fill="#000000" dominant-baseline="hanging" transform="matrix(1,0,0,1,225,0)" style="display: block;"><tspan dy="0">[Container]</tspan></text><image id="v-3735" /></g></g><!--z-index:134--><g id="j_325" transform="translate(870,1624)" style=""><g id="v-3744" style="opacity: 1;"><rect id="v-3745" rx="20" ry="20" stroke-width="2" pointer-events="visiblePainted" fill="#e3ebff" stroke="#485d8e" stroke-dasharray="" width="450" height="300" /><text id="v-3746" font-size="33.599999999999994px" xml:space="preserve" y="100.64000000000001" font-weight="bold" text-anchor="middle" pointer-events="visible" font-family="Open Sans, Tahoma, Arial" fill="#000000" dominant-baseline="hanging" transform="matrix(1,0,0,1,225,0)"><tspan dy="0">cloud-data-discoverer</tspan><tspan dy="1.2em" x="0">(dvp)</tspan></text><text id="v-3747" font-size="16.799999999999997px" xml:space="preserve" y="182.56" text-anchor="middle" font-family="Open Sans, Tahoma, Arial" fill="#000000" dominant-baseline="hanging" transform="matrix(1,0,0,1,225,0)" style="display: block;"><tspan dy="0">[Container]</tspan></text><image id="v-3750" /></g></g><!--z-index:135--><g id="j_327" transform="translate(870,2129)" style=""><g id="v-3759" style="opacity: 1;"><rect id="v-3760" rx="20" ry="20" stroke-width="2" pointer-events="visiblePainted" fill="#e3ebff" stroke="#485d8e" stroke-dasharray="" width="450" height="300" /><text id="v-3761" font-size="33.599999999999994px" xml:space="preserve" y="100.64000000000001" font-weight="bold" text-anchor="middle" pointer-events="visible" font-family="Open Sans, Tahoma, Arial" fill="#000000" dominant-baseline="hanging" transform="matrix(1,0,0,1,225,0)"><tspan dy="0">kube-rbac-proxy (cdd</tspan><tspan dy="1.2em" x="0">dvp)</tspan></text><text id="v-3762" font-size="16.799999999999997px" xml:space="preserve" y="182.56" text-anchor="middle" font-family="Open Sans, Tahoma, Arial" fill="#000000" dominant-baseline="hanging" transform="matrix(1,0,0,1,225,0)" style="display: block;"><tspan dy="0">[Container]</tspan></text><image id="v-3765" /></g></g><!--z-index:136--><g id="j_328" transform="translate(1900,1194)" style=""><g id="v-3766" style="opacity: 1;"><rect id="v-3767" rx="20" ry="20" stroke-width="2" pointer-events="visiblePainted" fill="#e3ebff" stroke="#485d8e" stroke-dasharray="" width="450" height="300" /><text id="v-3768" font-size="33.599999999999994px" xml:space="preserve" y="120.80000000000001" font-weight="bold" text-anchor="middle" pointer-events="visible" font-family="Open Sans, Tahoma, Arial" fill="#000000" dominant-baseline="hanging" transform="matrix(1,0,0,1,225,0)"><tspan dy="0">kube-apiserver</tspan></text><text id="v-3769" font-size="16.799999999999997px" xml:space="preserve" y="162.4" text-anchor="middle" font-family="Open Sans, Tahoma, Arial" fill="#000000" dominant-baseline="hanging" transform="matrix(1,0,0,1,225,0)" style="display: block;"><tspan dy="0">[Container]</tspan></text><image id="v-3772" /></g></g><!--z-index:137--><g id="j_332" transform="translate(1900,2129)" style=""><g id="v-3791" style="opacity: 1;"><rect id="v-3792" rx="20" ry="20" stroke-width="2" pointer-events="visiblePainted" fill="#e3ebff" stroke="#485d8e" stroke-dasharray="" width="450" height="300" /><text id="v-3793" font-size="33.599999999999994px" xml:space="preserve" y="120.80000000000001" font-weight="bold" text-anchor="middle" pointer-events="visible" font-family="Open Sans, Tahoma, Arial" fill="#000000" dominant-baseline="hanging" transform="matrix(1,0,0,1,225,0)"><tspan dy="0">prometheus (main)</tspan></text><text id="v-3794" font-size="16.799999999999997px" xml:space="preserve" y="162.4" text-anchor="middle" font-family="Open Sans, Tahoma, Arial" fill="#000000" dominant-baseline="hanging" transform="matrix(1,0,0,1,225,0)" style="display: block;"><tspan dy="0">[Container]</tspan></text><image id="v-3797" /></g></g><!--z-index:138--><g id="j_336"><path stroke="#000000" d="M 2125 2129 L 2125 1494" id="v-3825" stroke-width="1" stroke-dasharray="" fill="none" style="opacity: 1;" /><path fill="black" stroke="black" d="M 0 0 0 0" transform="matrix(-1.8369701987210297e-16,-1,1,-1.8369701987210297e-16,2125,2129)" /><path fill="#000000" stroke="#000000" d="M 10 0 L 0 5 L 10 10 z" id="v-3827" transform="matrix(6.123233995736766e-17,1,-1,6.123233995736766e-17,2130,1493.9999999999995)" style="opacity: 1;" /><path d="M 2125 2129 L 2125 1494" id="v-3826" fill="none" style="cursor: default;" /><g><g id="v-3819" label-idx="0" cursor="move" transform="matrix(1,0,0,1,2125,1811.5)" style="cursor: default; opacity: 1;"><rect joint-selector="rect" id="v-3822" fill="#ffffff" rx="3" ry="3" pointer-events="none" width="168.89431762695312" height="86.20847702026367" transform="matrix(1,0,0,1,-84.4,-43.1)" /><text joint-selector="text" id="v-3821" font-size="24px" xml:space="preserve" y="0.8em" fill="#000000" text-anchor="middle" pointer-events="none" font-family="Open Sans, Tahoma, Arial" font-weight="normal" transform="matrix(1,0,0,1,0,-38.5)"><tspan dy="0">Собирает</tspan><tspan dy="1.2em" x="0">метрики [6443</tspan><tspan dy="1.2em" x="0">TCP]</tspan></text></g><g id="v-3820" label-idx="1" cursor="move" transform="matrix(1,0,0,1,2115,1852.300048828125)" style="cursor: default; opacity: 1;"><text joint-selector="text" id="v-3823" fill="#000000" font-size="14" text-anchor="middle" pointer-events="none" /></g></g></g><!--z-index:139--><g id="j_337"><path stroke="#000000" d="M 1307 349 L 1762 678 C 1767.3333333333333 682 1771.6666666666665 687 1775 693 L 2044 1194" id="v-3843" stroke-width="1" stroke-dasharray="" fill="none" style="opacity: 1;" /><path fill="black" stroke="black" d="M 0 0 0 0" transform="matrix(0.8100390091348247,0.5863759917321576,-0.5863759917321576,0.8100390091348247,1307.219970703125,349)" /><path fill="#000000" stroke="#000000" d="M 10 0 L 0 5 L 10 10 z" id="v-3845" transform="matrix(-0.47370435847380615,-0.8806839278441044,0.8806839278441044,-0.47370435847380615,2039.9166402390863,1196.3684990487775)" style="opacity: 1;" /><path d="M 1307 349 L 1762 678 C 1767.3333333333333 682 1771.6666666666665 687 1775 693 L 2044 1194" id="v-3844" fill="none" style="cursor: default;" /><g><g id="v-3837" label-idx="0" cursor="move" transform="matrix(1,0,0,1,1771.53564453125,687.6050415039062)" style="cursor: default; opacity: 1;"><rect joint-selector="rect" id="v-3840" fill="#ffffff" rx="3" ry="3" pointer-events="none" width="193.3307342529297" height="143.80848693847656" transform="matrix(1,0,0,1,-96.7,-71.9)" /><text joint-selector="text" id="v-3839" font-size="24px" xml:space="preserve" y="0.8em" fill="#000000" text-anchor="middle" pointer-events="none" font-family="Open Sans, Tahoma, Arial" font-weight="normal" transform="matrix(1,0,0,1,0,-67.3)"><tspan dy="0">Получает секрет</tspan><tspan dy="1.2em" x="0">для</tspan><tspan dy="1.2em" x="0">подключения к</tspan><tspan dy="1.2em" x="0">облаку [6443</tspan><tspan dy="1.2em" x="0">TCP]</tspan></text></g><g id="v-3838" label-idx="1" cursor="move" transform="matrix(1,0,0,1,1761.53564453125,757.2050170898438)" style="cursor: default; opacity: 1;"><text joint-selector="text" id="v-3841" fill="#000000" font-size="14" text-anchor="middle" pointer-events="none" /></g></g></g><!--z-index:140--><g id="j_338"><path stroke="#000000" d="M 1325 268 L 2035 486 C 2041.6666666666665 488 2045.3333333333333 492.3333333333333 2046 499 L 2111 1194" id="v-3861" stroke-width="1" stroke-dasharray="" fill="none" style="opacity: 1;" /><path fill="black" stroke="black" d="M 0 0 0 0" transform="matrix(0.955998366220653,0.2933719887505316,-0.2933719887505316,0.955998366220653,1325,268.04998779296875)" /><path fill="#000000" stroke="#000000" d="M 10 0 L 0 5 L 10 10 z" id="v-3863" transform="matrix(-0.09315368107104996,-0.9956517421784151,0.9956517421784151,-0.09315368107104996,2105.9816503194634,1194.4657556318728)" style="opacity: 1;" /><path d="M 1325 268 L 2035 486 C 2041.6666666666665 488 2045.3333333333333 492.3333333333333 2046 499 L 2111 1194" id="v-3862" fill="none" style="cursor: default;" /><g><g id="v-3855" label-idx="0" cursor="move" transform="matrix(1,0,0,1,2022.3531494140625,482.11688232421875)" style="cursor: default; opacity: 1;"><rect joint-selector="rect" id="v-3858" fill="#ffffff" rx="3" ry="3" pointer-events="none" width="197.1302947998047" height="143.80848693847656" transform="matrix(1,0,0,1,-98.6,-71.9)" /><text joint-selector="text" id="v-3857" font-size="24px" xml:space="preserve" y="0.8em" fill="#000000" text-anchor="middle" pointer-events="none" font-family="Open Sans, Tahoma, Arial" font-weight="normal" transform="matrix(1,0,0,1,0,-67.3)"><tspan dy="0">Получает</tspan><tspan dy="1.2em" x="0">шаблоны для</tspan><tspan dy="1.2em" x="0">создания прова</tspan><tspan dy="1.2em" x="0">йдер-специфичн</tspan><tspan dy="1.2em" x="0">ых CR [6443 TCP]</tspan></text></g><g id="v-3856" label-idx="1" cursor="move" transform="matrix(1,0,0,1,2012.3531494140625,551.7168579101562)" style="cursor: default; opacity: 1;"><text joint-selector="text" id="v-3859" fill="#000000" font-size="14" text-anchor="middle" pointer-events="none" /></g></g></g><!--z-index:141--><g id="j_339"><path stroke="#000000" d="M 870 1656 L 500 1462" id="v-3878" stroke-width="1" stroke-dasharray="" fill="none" style="opacity: 1;" /><path fill="black" stroke="black" d="M 0 0 0 0" transform="matrix(-0.8856244188063319,-0.46440218433373753,0.46440218433373753,-0.8856244188063319,870,1656.010009765625)" /><path fill="#000000" stroke="#000000" d="M 10 0 L 0 5 L 10 10 z" id="v-3880" transform="matrix(0.885624372427159,0.4644022727797539,-0.4644022727797539,0.885624372427159,502.32202060527817,1457.5618784927153)" style="opacity: 1;" /><path d="M 870 1656 L 500 1462" id="v-3879" fill="none" style="cursor: default;" /><g><g id="v-3872" label-idx="0" cursor="move" transform="matrix(1,0,0,1,685,1559)" style="cursor: default; opacity: 1;"><rect joint-selector="rect" id="v-3875" fill="#ffffff" rx="3" ry="3" pointer-events="none" width="131.64370727539062" height="86.20847702026367" transform="matrix(1,0,0,1,-65.8,-43.1)" /><text joint-selector="text" id="v-3874" font-size="24px" xml:space="preserve" y="0.8em" fill="#000000" text-anchor="middle" pointer-events="none" font-family="Open Sans, Tahoma, Arial" font-weight="normal" transform="matrix(1,0,0,1,0,-38.5)"><tspan dy="0">Собирает</tspan><tspan dy="1.2em" x="0">параметры</tspan><tspan dy="1.2em" x="0">облака</tspan></text></g><g id="v-3873" label-idx="1" cursor="move" transform="matrix(1,0,0,1,675,1599.800048828125)" style="cursor: default; opacity: 1;"><text joint-selector="text" id="v-3876" fill="#000000" font-size="14" text-anchor="middle" pointer-events="none" /></g></g></g><!--z-index:142--><g id="j_340"><path stroke="#000000" d="M 1320 1680 L 1900 1438" id="v-3895" stroke-width="1" stroke-dasharray="" fill="none" style="opacity: 1;" /><path fill="black" stroke="black" d="M 0 0 0 0" transform="matrix(0.922809305250961,-0.38525703905605474,0.38525703905605474,0.922809305250961,1320,1680.0699462890625)" /><path fill="#000000" stroke="#000000" d="M 10 0 L 0 5 L 10 10 z" id="v-3897" transform="matrix(-0.9228093052509612,0.38525703905605463,-0.38525703905605463,-0.9228093052509612,1901.9263180496605,1442.5440845731619)" style="opacity: 1;" /><path d="M 1320 1680 L 1900 1438" id="v-3896" fill="none" style="cursor: default;" /><g><g id="v-3889" label-idx="0" cursor="move" transform="matrix(1,0,0,1,1610,1559)" style="cursor: default; opacity: 1;"><rect joint-selector="rect" id="v-3892" fill="#ffffff" rx="3" ry="3" pointer-events="none" width="176.04644775390625" height="172.6084747314453" transform="matrix(1,0,0,1,-88,-86.3)" /><text joint-selector="text" id="v-3891" font-size="24px" xml:space="preserve" y="0.8em" fill="#000000" text-anchor="middle" pointer-events="none" font-family="Open Sans, Tahoma, Arial" font-weight="normal" transform="matrix(1,0,0,1,0,-81.7)"><tspan dy="0">Создает секрет</tspan><tspan dy="1.2em" x="0">d8-</tspan><tspan dy="1.2em" x="0">cloud-</tspan><tspan dy="1.2em" x="0">provider-</tspan><tspan dy="1.2em" x="0">discovery-data</tspan><tspan dy="1.2em" x="0">[6443 TCP]</tspan></text></g><g id="v-3890" label-idx="1" cursor="move" transform="matrix(1,0,0,1,1600,1643)" style="cursor: default; opacity: 1;"><text joint-selector="text" id="v-3893" fill="#000000" font-size="14" text-anchor="middle" pointer-events="none" /></g></g></g><!--z-index:143--><g id="j_341"><path stroke="#000000" d="M 870 1032 L 500 1226" id="v-3912" stroke-width="1" stroke-dasharray="" fill="none" style="opacity: 1;" /><path fill="black" stroke="black" d="M 0 0 0 0" transform="matrix(-0.8856244188063318,0.46440218433373776,-0.46440218433373776,-0.8856244188063318,870,1031.989990234375)" /><path fill="#000000" stroke="#000000" d="M 10 0 L 0 5 L 10 10 z" id="v-3914" transform="matrix(0.885624418806332,-0.4644021843337375,0.4644021843337375,0.885624418806332,497.6779980878149,1221.5818771088873)" style="opacity: 1;" /><path d="M 870 1032 L 500 1226" id="v-3913" fill="none" style="cursor: default;" /><g><g id="v-3906" label-idx="0" cursor="move" transform="matrix(1,0,0,1,685,1129)" style="cursor: default; opacity: 1;"><rect joint-selector="rect" id="v-3909" fill="#ffffff" rx="3" ry="3" pointer-events="none" width="174.63092041015625" height="86.20847702026367" transform="matrix(1,0,0,1,-87.3,-43.1)" /><text joint-selector="text" id="v-3908" font-size="24px" xml:space="preserve" y="0.8em" fill="#000000" text-anchor="middle" pointer-events="none" font-family="Open Sans, Tahoma, Arial" font-weight="normal" transform="matrix(1,0,0,1,0,-38.5)"><tspan dy="0">Управляет</tspan><tspan dy="1.2em" x="0">виртуальными</tspan><tspan dy="1.2em" x="0">машинами</tspan></text></g><g id="v-3907" label-idx="1" cursor="move" transform="matrix(1,0,0,1,675,1169.800048828125)" style="cursor: default; opacity: 1;"><text joint-selector="text" id="v-3910" fill="#000000" font-size="14" text-anchor="middle" pointer-events="none" /></g></g></g><!--z-index:144--><g id="j_342"><path stroke="#000000" d="M 1320 1008 L 1900 1250" id="v-3929" stroke-width="1" stroke-dasharray="" fill="none" style="opacity: 1;" /><path fill="black" stroke="black" d="M 0 0 0 0" transform="matrix(0.922809330900998,0.3852569776163078,-0.3852569776163078,0.922809330900998,1320,1007.9299926757812)" /><path fill="#000000" stroke="#000000" d="M 10 0 L 0 5 L 10 10 z" id="v-3931" transform="matrix(-0.9228093052509613,-0.3852570390560544,0.3852570390560544,-0.9228093052509613,1898.0737476591,1254.6840084793478)" style="opacity: 1;" /><path d="M 1320 1008 L 1900 1250" id="v-3930" fill="none" style="cursor: default;" /><g><g id="v-3923" label-idx="0" cursor="move" transform="matrix(1,0,0,1,1610,1129)" style="cursor: default; opacity: 1;"><rect joint-selector="rect" id="v-3926" fill="#ffffff" rx="3" ry="3" pointer-events="none" width="184.01808166503906" height="115.00848770141602" transform="matrix(1,0,0,1,-92,-57.5)" /><text joint-selector="text" id="v-3925" font-size="24px" xml:space="preserve" y="0.8em" fill="#000000" text-anchor="middle" pointer-events="none" font-family="Open Sans, Tahoma, Arial" font-weight="normal" transform="matrix(1,0,0,1,0,-52.9)"><tspan dy="0">Следит за</tspan><tspan dy="1.2em" x="0">Custom</tspan><tspan dy="1.2em" x="0">Resources [6443</tspan><tspan dy="1.2em" x="0">TCP]</tspan></text></g><g id="v-3924" label-idx="1" cursor="move" transform="matrix(1,0,0,1,1600,1184.199951171875)" style="cursor: default; opacity: 1;"><text joint-selector="text" id="v-3927" fill="#000000" font-size="14" text-anchor="middle" pointer-events="none" /></g></g></g><!--z-index:145--><g id="j_343"><path stroke="#000000" d="M 870 1344 L 500 1344" id="v-3946" stroke-width="1" stroke-dasharray="" fill="none" style="opacity: 1;" /><path fill="black" stroke="black" d="M 0 0 0 0" transform="matrix(-1,1.2246467991473532e-16,-1.2246467991473532e-16,-1,870,1344)" /><path fill="#000000" stroke="#000000" d="M 10 0 L 0 5 L 10 10 z" id="v-3948" transform="matrix(1,0,0,1,499.99999999999955,1339)" style="opacity: 1;" /><path d="M 870 1344 L 500 1344" id="v-3947" fill="none" style="cursor: default;" /><g><g id="v-3940" label-idx="0" cursor="move" transform="matrix(1,0,0,1,685,1344)" style="cursor: default; opacity: 1;"><rect joint-selector="rect" id="v-3943" fill="#ffffff" rx="3" ry="3" pointer-events="none" width="196.53428649902344" height="173.57862854003906" transform="matrix(1,0,0,1,-98.3,-86.7)" /><text joint-selector="text" id="v-3942" font-size="24px" xml:space="preserve" y="0.8em" fill="#000000" text-anchor="middle" pointer-events="none" font-family="Open Sans, Tahoma, Arial" font-weight="normal" transform="matrix(1,0,0,1,0,-82.1)"><tspan dy="0">Синхронизирует</tspan><tspan dy="1.2em" x="0">узлы с</tspan><tspan dy="1.2em" x="0">виртуальными</tspan><tspan dy="1.2em" x="0">машинами,</tspan><tspan dy="1.2em" x="0">управляет балан</tspan><tspan dy="1.2em" x="0">сировщиками</tspan></text></g><g id="v-3941" label-idx="1" cursor="move" transform="matrix(1,0,0,1,675,1428)" style="cursor: default; opacity: 1;"><text joint-selector="text" id="v-3944" fill="#000000" font-size="14" text-anchor="middle" pointer-events="none" /></g></g></g><!--z-index:146--><g id="j_344"><path stroke="#000000" d="M 1320 1344 L 1900 1344" id="v-3963" stroke-width="1" stroke-dasharray="" fill="none" style="opacity: 1;" /><path fill="black" stroke="black" d="M 0 0 0 0" transform="matrix(1,0,0,1,1320,1344)" /><path fill="#000000" stroke="#000000" d="M 10 0 L 0 5 L 10 10 z" id="v-3965" transform="matrix(-1,1.2246467991473532e-16,-1.2246467991473532e-16,-1,1900.0000000000005,1349)" style="opacity: 1;" /><path d="M 1320 1344 L 1900 1344" id="v-3964" fill="none" style="cursor: default;" /><g><g id="v-3957" label-idx="0" cursor="move" transform="matrix(1,0,0,1,1610,1344)" style="cursor: default; opacity: 1;"><rect joint-selector="rect" id="v-3960" fill="#ffffff" rx="3" ry="3" pointer-events="none" width="195.9382781982422" height="172.6084747314453" transform="matrix(1,0,0,1,-98,-86.3)" /><text joint-selector="text" id="v-3959" font-size="24px" xml:space="preserve" y="0.8em" fill="#000000" text-anchor="middle" pointer-events="none" font-family="Open Sans, Tahoma, Arial" font-weight="normal" transform="matrix(1,0,0,1,0,-81.7)"><tspan dy="0">Синхронизирует</tspan><tspan dy="1.2em" x="0">узлы с ВМ в</tspan><tspan dy="1.2em" x="0">облаке, следит</tspan><tspan dy="1.2em" x="0">за сервисами</tspan><tspan dy="1.2em" x="0">LoadBalancer</tspan><tspan dy="1.2em" x="0">[6443 TCP]</tspan></text></g><g id="v-3958" label-idx="1" cursor="move" transform="matrix(1,0,0,1,1600,1428)" style="cursor: default; opacity: 1;"><text joint-selector="text" id="v-3961" fill="#000000" font-size="14" text-anchor="middle" pointer-events="none" /></g></g></g><!--z-index:147--><g id="j_345"><path stroke="#000000" d="M 880 709 L 573 923 C 567.6666666666666 926.9999999999999 563 931.6666666666665 559 937 L 380 1194" id="v-3981" stroke-width="1" stroke-dasharray="" fill="none" style="opacity: 1;" /><path fill="black" stroke="black" d="M 0 0 0 0" transform="matrix(-0.8199621890532375,0.5724176871158182,-0.5724176871158182,-0.8199621890532375,880.1400146484375,709)" /><path fill="#000000" stroke="#000000" d="M 10 0 L 0 5 L 10 10 z" id="v-3983" transform="matrix(0.5727978062460758,-0.8196966958330886,0.8196966958330886,0.5727978062460758,375.72151796811954,1191.135983705748)" style="opacity: 1;" /><path d="M 880 709 L 573 923 C 567.6666666666666 926.9999999999999 563 931.6666666666665 559 937 L 380 1194" id="v-3982" fill="none" style="cursor: default;" /><g><g id="v-3975" label-idx="0" cursor="move" transform="matrix(1,0,0,1,589.8873901367188,911.2283325195312)" style="cursor: default; opacity: 1;"><rect joint-selector="rect" id="v-3978" fill="#ffffff" rx="3" ry="3" pointer-events="none" width="123.22505950927734" height="57.40847969055176" transform="matrix(1,0,0,1,-61.6,-28.7)" /><text joint-selector="text" id="v-3977" font-size="24px" xml:space="preserve" y="0.8em" fill="#000000" text-anchor="middle" pointer-events="none" font-family="Open Sans, Tahoma, Arial" font-weight="normal" transform="matrix(1,0,0,1,0,-24.1)"><tspan dy="0">Управляет</tspan><tspan dy="1.2em" x="0">дисками</tspan></text></g><g id="v-3976" label-idx="1" cursor="move" transform="matrix(1,0,0,1,579.8873901367188,937.6283569335938)" style="cursor: default; opacity: 1;"><text joint-selector="text" id="v-3979" fill="#000000" font-size="14" text-anchor="middle" pointer-events="none" /></g></g></g><!--z-index:148--><g id="j_346"><path stroke="#000000" d="M 1292 709 L 1928 1194" id="v-3998" stroke-width="1" stroke-dasharray="" fill="none" style="opacity: 1;" /><path fill="black" stroke="black" d="M 0 0 0 0" transform="matrix(0.7953387535824861,0.6061652143185532,-0.6061652143185532,0.7953387535824861,1291.8199462890625,709)" /><path fill="#000000" stroke="#000000" d="M 10 0 L 0 5 L 10 10 z" id="v-4000" transform="matrix(-0.7953388342982596,-0.6061651084127868,0.6061651084127868,-0.7953388342982596,1925.1491156997402,1197.976635924493)" style="opacity: 1;" /><path d="M 1292 709 L 1928 1194" id="v-3999" fill="none" style="cursor: default;" /><g><g id="v-3992" label-idx="0" cursor="move" transform="matrix(1,0,0,1,1610,951.5)" style="cursor: default; opacity: 1;"><rect joint-selector="rect" id="v-3995" fill="#ffffff" rx="3" ry="3" pointer-events="none" width="193.03273010253906" height="86.20847702026367" transform="matrix(1,0,0,1,-96.5,-43.1)" /><text joint-selector="text" id="v-3994" font-size="24px" xml:space="preserve" y="0.8em" fill="#000000" text-anchor="middle" pointer-events="none" font-family="Open Sans, Tahoma, Arial" font-weight="normal" transform="matrix(1,0,0,1,0,-38.5)"><tspan dy="0">Следит за PVC, V</tspan><tspan dy="1.2em" x="0">olumeAttachmen</tspan><tspan dy="1.2em" x="0">ts [6443 TCP]</tspan></text></g><g id="v-3993" label-idx="1" cursor="move" transform="matrix(1,0,0,1,1600,992.2999877929688)" style="cursor: default; opacity: 1;"><text joint-selector="text" id="v-3996" fill="#000000" font-size="14" text-anchor="middle" pointer-events="none" /></g></g></g><!--z-index:149--><g id="j_347"><path stroke="#000000" d="M 1260 2129 L 1960 1494" id="v-4015" stroke-width="1" stroke-dasharray="" fill="none" style="opacity: 1;" /><path fill="black" stroke="black" d="M 0 0 0 0" transform="matrix(0.7404283102235217,-0.6721353415938938,0.6721353415938938,0.7404283102235217,1260.239990234375,2129)" /><path fill="#000000" stroke="#000000" d="M 10 0 L 0 5 L 10 10 z" id="v-4017" transform="matrix(-0.7404284892239645,0.6721351444058832,-0.6721351444058832,-0.7404284892239645,1963.1206794962745,1497.7021844975277)" style="opacity: 1;" /><path d="M 1260 2129 L 1960 1494" id="v-4016" fill="none" style="cursor: default;" /><g><g id="v-4009" label-idx="0" cursor="move" transform="matrix(1,0,0,1,1610,1811.5)" style="cursor: default; opacity: 1;"><rect joint-selector="rect" id="v-4012" fill="#ffffff" rx="3" ry="3" pointer-events="none" width="177.53646850585938" height="115.00848770141602" transform="matrix(1,0,0,1,-88.8,-57.5)" /><text joint-selector="text" id="v-4011" font-size="24px" xml:space="preserve" y="0.8em" fill="#000000" text-anchor="middle" pointer-events="none" font-family="Open Sans, Tahoma, Arial" font-weight="normal" transform="matrix(1,0,0,1,0,-52.9)"><tspan dy="0">Выполняет</tspan><tspan dy="1.2em" x="0">авторизацию</tspan><tspan dy="1.2em" x="0">запросов [6443</tspan><tspan dy="1.2em" x="0">TCP]</tspan></text></g><g id="v-4010" label-idx="1" cursor="move" transform="matrix(1,0,0,1,1600,1866.699951171875)" style="cursor: default; opacity: 1;"><text joint-selector="text" id="v-4013" fill="#000000" font-size="14" text-anchor="middle" pointer-events="none" /></g></g></g><!--z-index:150--><g id="j_348"><path stroke="#000000" d="M 1095 2129 L 1095 1924" id="v-4032" stroke-width="1" stroke-dasharray="" fill="none" style="opacity: 1;" /><path fill="black" stroke="black" d="M 0 0 0 0" transform="matrix(-1.8369701987210297e-16,-1,1,-1.8369701987210297e-16,1095,2129)" /><path fill="#000000" stroke="#000000" d="M 10 0 L 0 5 L 10 10 z" id="v-4034" transform="matrix(6.123233995736766e-17,1,-1,6.123233995736766e-17,1100,1923.9999999999995)" style="opacity: 1;" /><path d="M 1095 2129 L 1095 1924" id="v-4033" fill="none" style="cursor: default;" /><g><g id="v-4026" label-idx="0" cursor="move" transform="matrix(1,0,0,1,1095,2026.5)" style="cursor: default; opacity: 1;"><rect joint-selector="rect" id="v-4029" fill="#ffffff" rx="3" ry="3" pointer-events="none" width="198.09881591796875" height="143.80848693847656" transform="matrix(1,0,0,1,-99,-71.9)" /><text joint-selector="text" id="v-4028" font-size="24px" xml:space="preserve" y="0.8em" fill="#000000" text-anchor="middle" pointer-events="none" font-family="Open Sans, Tahoma, Arial" font-weight="normal" transform="matrix(1,0,0,1,0,-67.3)"><tspan dy="0">Пересылает</tspan><tspan dy="1.2em" x="0">авторизованные</tspan><tspan dy="1.2em" x="0">запросы на</tspan><tspan dy="1.2em" x="0">метрики [8081</tspan><tspan dy="1.2em" x="0">TCP]</tspan></text></g><g id="v-4027" label-idx="1" cursor="move" transform="matrix(1,0,0,1,1085,2096.10009765625)" style="cursor: default; opacity: 1;"><text joint-selector="text" id="v-4030" fill="#000000" font-size="14" text-anchor="middle" pointer-events="none" /></g></g></g><!--z-index:151--><g id="j_349"><path stroke="#000000" d="M 1900 2279 L 1320 2279" id="v-4049" stroke-width="1" stroke-dasharray="" fill="none" style="opacity: 1;" /><path fill="black" stroke="black" d="M 0 0 0 0" transform="matrix(-1,1.2246467991473532e-16,-1.2246467991473532e-16,-1,1900,2279)" /><path fill="#000000" stroke="#000000" d="M 10 0 L 0 5 L 10 10 z" id="v-4051" transform="matrix(1,0,0,1,1319.9999999999995,2274)" style="opacity: 1;" /><path d="M 1900 2279 L 1320 2279" id="v-4050" fill="none" style="cursor: default;" /><g><g id="v-4043" label-idx="0" cursor="move" transform="matrix(1,0,0,1,1610,2279)" style="cursor: default; opacity: 1;"><rect joint-selector="rect" id="v-4046" fill="#ffffff" rx="3" ry="3" pointer-events="none" width="168.89431762695312" height="86.20847702026367" transform="matrix(1,0,0,1,-84.4,-43.1)" /><text joint-selector="text" id="v-4045" font-size="24px" xml:space="preserve" y="0.8em" fill="#000000" text-anchor="middle" pointer-events="none" font-family="Open Sans, Tahoma, Arial" font-weight="normal" transform="matrix(1,0,0,1,0,-38.5)"><tspan dy="0">Собирает</tspan><tspan dy="1.2em" x="0">метрики [8080</tspan><tspan dy="1.2em" x="0">TCP]</tspan></text></g><g id="v-4044" label-idx="1" cursor="move" transform="matrix(1,0,0,1,1600,2319.800048828125)" style="cursor: default; opacity: 1;"><text joint-selector="text" id="v-4047" fill="#000000" font-size="14" text-anchor="middle" pointer-events="none" /></g></g></g><!--z-index:152--><!--z-index:153--><!--z-index:154--><!--z-index:155--><!--z-index:156--><!--z-index:157--><!--z-index:158--><!--z-index:159--><!--z-index:160--><!--z-index:161--><!--z-index:162--><!--z-index:163--><!--z-index:164--><!--z-index:165--><!--z-index:166--><!--z-index:167--><!--z-index:168--><!--z-index:169--><!--z-index:170--><!--z-index:171--><!--z-index:172--><!--z-index:173--><!--z-index:174--><!--z-index:175--><!--z-index:176--><!--z-index:177--><!--z-index:178--><!--z-index:179--><!--z-index:180--><!--z-index:181--><!--z-index:182--><!--z-index:183--><!--z-index:184--><!--z-index:185--><!--z-index:186--><!--z-index:187--><!--z-index:188--><!--z-index:189--><!--z-index:190--><!--z-index:191--><!--z-index:192--><!--z-index:193--><!--z-index:194--><!--z-index:195--><!--z-index:196--><!--z-index:197--><!--z-index:198--><!--z-index:199--><!--z-index:200--><!--z-index:201--><!--z-index:202--><!--z-index:203--><!--z-index:204--><!--z-index:205--><!--z-index:206--><!--z-index:207--><!--z-index:208--><!--z-index:209--><!--z-index:210--><!--z-index:211--><!--z-index:212--><!--z-index:213--><!--z-index:214--><!--z-index:215--><!--z-index:216--><!--z-index:217--><!--z-index:218--><!--z-index:219--><!--z-index:220--><!--z-index:221--><!--z-index:222--><!--z-index:223--><!--z-index:224--><!--z-index:225--><!--z-index:226--><!--z-index:227--><!--z-index:228--><!--z-index:229--><!--z-index:230--><!--z-index:231--><!--z-index:232--><!--z-index:233--><!--z-index:234--><!--z-index:235--><!--z-index:236--><!--z-index:237--><!--z-index:238--><!--z-index:239--><!--z-index:240--><!--z-index:241--><!--z-index:242--><!--z-index:243--><!--z-index:244--><!--z-index:245--><!--z-index:246--><!--z-index:247--><!--z-index:248--><!--z-index:249--><!--z-index:250--><!--z-index:251--><!--z-index:252--><!--z-index:253--><!--z-index:254--><!--z-index:255--><!--z-index:256--><!--z-index:257--><!--z-index:258--><!--z-index:259--><!--z-index:260--><!--z-index:261--><!--z-index:262--><!--z-index:263--><!--z-index:264--><!--z-index:265--><!--z-index:266--><!--z-index:267--><!--z-index:268--><!--z-index:269--><!--z-index:270--><!--z-index:271--><!--z-index:272--><!--z-index:273--><!--z-index:274--><!--z-index:275--><!--z-index:276--><!--z-index:277--><!--z-index:278--><!--z-index:279--><!--z-index:280--><!--z-index:281--><!--z-index:282--><!--z-index:283--><!--z-index:284--><!--z-index:285--><!--z-index:286--><!--z-index:287--><!--z-index:288--><!--z-index:289--><!--z-index:290--><!--z-index:291--><!--z-index:292--><!--z-index:293--><!--z-index:294--><!--z-index:295--><!--z-index:296--><!--z-index:297--><!--z-index:298--><!--z-index:299--><!--z-index:300--><!--z-index:301--><!--z-index:302--><!--z-index:303--><!--z-index:304--><!--z-index:305--><!--z-index:306--><!--z-index:307--><!--z-index:308--><!--z-index:309--><!--z-index:310--><!--z-index:311--><!--z-index:312--><!--z-index:313--><!--z-index:314--><!--z-index:315--><!--z-index:316--><!--z-index:317--><!--z-index:318--><!--z-index:319--><!--z-index:320--><!--z-index:321--><!--z-index:322--><!--z-index:323--><!--z-index:324--><!--z-index:325--><!--z-index:326--><!--z-index:327--><!--z-index:328--><!--z-index:329--><!--z-index:330--><!--z-index:331--><!--z-index:332--><!--z-index:333--><!--z-index:334--><!--z-index:335--><!--z-index:336--><!--z-index:337--><!--z-index:338--><!--z-index:339--><!--z-index:340--><!--z-index:341--><!--z-index:342--><!--z-index:343--><!--z-index:344--><!--z-index:345--><!--z-index:346--><!--z-index:347--><!--z-index:348--><!--z-index:349--><!--z-index:350--><!--z-index:351--><!--z-index:352--><!--z-index:353--><!--z-index:354--><!--z-index:355--><!--z-index:356--><!--z-index:357--><!--z-index:358--><!--z-index:359--><!--z-index:360--><!--z-index:361--><!--z-index:362--><!--z-index:363--><!--z-index:364--><!--z-index:365--><!--z-index:366--><!--z-index:367--><!--z-index:368--><!--z-index:369--><!--z-index:370--><!--z-index:371--><!--z-index:372--><!--z-index:373--><!--z-index:374--><!--z-index:375--><!--z-index:376--><!--z-index:377--><!--z-index:378--><!--z-index:379--><!--z-index:380--><!--z-index:381--><!--z-index:382--><!--z-index:383--><!--z-index:384--><!--z-index:385--><!--z-index:386--><!--z-index:387--><!--z-index:388--><!--z-index:389--><!--z-index:390--><!--z-index:391--><!--z-index:392--><!--z-index:393--><!--z-index:394--><!--z-index:395--><!--z-index:396--><!--z-index:397--><!--z-index:398--><!--z-index:399--><!--z-index:400--><!--z-index:401--><!--z-index:402--><!--z-index:403--><!--z-index:404--><!--z-index:405--><!--z-index:406--><!--z-index:407--><!--z-index:408--><!--z-index:409--><!--z-index:410--><!--z-index:411--><!--z-index:412--><!--z-index:413--><!--z-index:414--><!--z-index:415--><!--z-index:416--><!--z-index:417--><!--z-index:418--><!--z-index:419--><!--z-index:420--><!--z-index:421--><!--z-index:422--><!--z-index:423--><!--z-index:424--><!--z-index:425--></g><g /><g /><g /></g></svg>