<svg xmlns="http://www.w3.org/2000/svg" xmlns:xlink="http://www.w3.org/1999/xlink" version="1.1" viewBox="0 0 3010 2478" style="background: #ffffff"><defs joint-selector="defs"></defs><g joint-selector="layers"  transform="matrix(1,0,0,1,0,0)"><g ></g><g ><!--z-index:1--><!--z-index:2--><!--z-index:3--><!--z-index:4--><!--z-index:5--><!--z-index:6--><!--z-index:7--><!--z-index:8--><!--z-index:9--><!--z-index:10--><!--z-index:11--><!--z-index:12--><!--z-index:13--><!--z-index:14--><!--z-index:15--><!--z-index:16--><!--z-index:17--><!--z-index:18--><!--z-index:19--><!--z-index:20--><!--z-index:21--><!--z-index:22--><!--z-index:23--><!--z-index:24--><!--z-index:25--><!--z-index:26--><!--z-index:27--><!--z-index:28--><!--z-index:29--><!--z-index:30--><!--z-index:31--><!--z-index:32--><!--z-index:33--><!--z-index:34--><!--z-index:35--><!--z-index:36--><!--z-index:37--><!--z-index:38--><!--z-index:39--><!--z-index:40--><!--z-index:41--><!--z-index:42--><!--z-index:43--><!--z-index:44--><!--z-index:45--><!--z-index:46--><!--z-index:47--><!--z-index:48--><!--z-index:49--><!--z-index:50--><!--z-index:51--><!--z-index:52--><!--z-index:53--><!--z-index:54--><!--z-index:55--><!--z-index:56--><!--z-index:57--><!--z-index:58--><!--z-index:59--><!--z-index:60--><!--z-index:61--><!--z-index:62--><!--z-index:63--><!--z-index:64--><!--z-index:65--><!--z-index:66--><!--z-index:67--><!--z-index:68--><!--z-index:69--><!--z-index:70--><!--z-index:71--><!--z-index:72--><!--z-index:73--><!--z-index:74--><!--z-index:75--><!--z-index:76--><!--z-index:77--><!--z-index:78--><!--z-index:79--><!--z-index:80--><!--z-index:81--><!--z-index:82--><!--z-index:83--><!--z-index:84--><!--z-index:85--><!--z-index:86--><!--z-index:87--><!--z-index:88--><!--z-index:89--><!--z-index:90--><!--z-index:91--><!--z-index:92--><g   id="j_7"  transform="translate(20,2434)"><g id="v-52"><text  id="v-53" font-size="24px" xml:space="preserve" y="0.8em" font-weight="normal" text-anchor="start" fill="#444444" pointer-events="none" display="block" font-family="Open Sans, Tahoma, Arial"><tspan dy="0"  display="none">вторник, 23 июня 2026 г. в 15:07 Екатеринбург, стандартное время</tspan></text></g></g><!--z-index:93--><g   id="j_6"  transform="translate(20,2388)"><g id="v-50"><text  id="v-51" font-size="36px" xml:space="preserve" y="0.8em" font-weight="normal" text-anchor="start" fill="#444444" pointer-events="none" display="block" font-family="Open Sans, Tahoma, Arial"><tspan dy="0"  display="none">L2: Module runtime-audit-engine</tspan></text></g></g><!--z-index:94--><g   id="j_10"  transform="translate(100,60)" style=""><g id="v-66"><rect  id="v-67" width="2810" height="2278" rx="20" ry="20" stroke-width="1" pointer-events="none" stroke="#004df2" fill="#ffffff" stroke-dasharray=""></rect><text  id="v-68" font-size="33.599999999999994px" xml:space="preserve" y="2239" font-weight="bold" text-anchor="start" pointer-events="visible" font-family="Open Sans, Tahoma, Arial" fill="#003ab5" transform="matrix(1,0,0,1,15,0)"><tspan dy="0" >Deckhouse Kubernetes Platform</tspan></text><text  id="v-69" font-size="16.799999999999997px" xml:space="preserve" y="2263" font-weight="normal" text-anchor="start" pointer-events="visible" font-family="Open Sans, Tahoma, Arial" fill="#003ab5" transform="matrix(1,0,0,1,15,0)"><tspan dy="0" >[Software System]</tspan></text><image  id="v-70" pointer-events="visible"></image></g></g><!--z-index:95--><g   id="j_9"  transform="translate(1665,790)" style=""><g id="v-61"><rect  id="v-62" width="570" height="1283" rx="20" ry="20" stroke-width="1" pointer-events="none" stroke="#325ebd" fill="#f6f9ff" stroke-dasharray="1,2"></rect><text  id="v-63" font-size="33.599999999999994px" xml:space="preserve" y="1268" font-weight="bold" text-anchor="start" pointer-events="visible" font-family="Open Sans, Tahoma, Arial" fill="#325ebd" transform="matrix(1,0,0,1,15,0)"><tspan dy="0" >Kubernetes &amp; Scheduling subsystem</tspan></text><text  id="v-64" font-size="16.799999999999997px" xml:space="preserve" display="none" y="1268" font-weight="normal" text-anchor="start" pointer-events="visible" font-family="Open Sans, Tahoma, Arial" fill="#325ebd" transform="matrix(1,0,0,1,15,0)"><tspan dy="0" style="fill-opacity: 0; stroke-opacity: 0;" >-</tspan></text><image  id="v-65" pointer-events="visible"></image></g></g><!--z-index:96--><g   id="j_15"  transform="translate(2320,790)" style=""><g id="v-98"><rect  id="v-99" width="570" height="609" rx="20" ry="20" stroke-width="1" pointer-events="none" stroke="#325ebd" fill="#f6f9ff" stroke-dasharray="1,2"></rect><text  id="v-100" font-size="33.599999999999994px" xml:space="preserve" y="594" font-weight="bold" text-anchor="start" pointer-events="visible" font-family="Open Sans, Tahoma, Arial" fill="#325ebd" transform="matrix(1,0,0,1,15,0)"><tspan dy="0" >Observability subsystem</tspan></text><text  id="v-101" font-size="16.799999999999997px" xml:space="preserve" display="none" y="594" font-weight="normal" text-anchor="start" pointer-events="visible" font-family="Open Sans, Tahoma, Arial" fill="#325ebd" transform="matrix(1,0,0,1,15,0)"><tspan dy="0" style="fill-opacity: 0; stroke-opacity: 0;" >-</tspan></text><image  id="v-102" pointer-events="visible"></image></g></g><!--z-index:97--><g   id="j_19"  transform="translate(120,80)" style=""><g id="v-123"><rect  id="v-124" width="1295" height="2159" rx="20" ry="20" stroke-width="1" pointer-events="none" stroke="#325ebd" fill="#f6f9ff" stroke-dasharray="1,2"></rect><text  id="v-125" font-size="33.599999999999994px" xml:space="preserve" y="2144" font-weight="bold" text-anchor="start" pointer-events="visible" font-family="Open Sans, Tahoma, Arial" fill="#325ebd" transform="matrix(1,0,0,1,15,0)"><tspan dy="0" >Security subsystem</tspan></text><text  id="v-126" font-size="16.799999999999997px" xml:space="preserve" display="none" y="2144" font-weight="normal" text-anchor="start" pointer-events="visible" font-family="Open Sans, Tahoma, Arial" fill="#325ebd" transform="matrix(1,0,0,1,15,0)"><tspan dy="0" style="fill-opacity: 0; stroke-opacity: 0;" >-</tspan></text><image  id="v-127" pointer-events="visible"></image></g></g><!--z-index:98--><g   id="j_8"  transform="translate(1725,1690)" style=""><g  id="v-54" style="opacity: 1;"><rect  id="v-55" rx="20" ry="20" stroke-width="1" pointer-events="visiblePainted" fill="#efecff" stroke="#3f2cb4" stroke-dasharray="" width="450" height="300"></rect><text  id="v-56" font-size="33.599999999999994px" xml:space="preserve" y="101.30000000000001" font-weight="bold" text-anchor="middle" pointer-events="visible" font-family="Open Sans, Tahoma, Arial" fill="#3f2cb4" dominant-baseline="hanging" transform="matrix(1,0,0,1,225,0)"><tspan dy="0" >containerd</tspan></text><text  id="v-57" font-size="16.799999999999997px" xml:space="preserve" y="142.9" text-anchor="middle" font-family="Open Sans, Tahoma, Arial" fill="#3f2cb4" dominant-baseline="hanging" transform="matrix(1,0,0,1,225,0)" style="display: block;"><tspan dy="0" >[Container]</tspan></text><text  id="v-58" font-size="24px" xml:space="preserve" y="174.7" text-anchor="middle" font-family="Open Sans, Tahoma, Arial" fill="#3f2cb4" dominant-baseline="hanging" transform="matrix(1,0,0,1,225,0)" style="display: block;"><tspan dy="0" >Service</tspan></text><g  id="v-59" color="#3f2cb4" transform="matrix(1,0,0,1,222.5,268)" display="none"><g ></g><g ></g><g ></g><g ></g></g><image  id="v-60"></image></g></g><!--z-index:99--><g   id="j_12"  transform="translate(1685,810)" style=""><g id="v-78"><rect  id="v-79" width="530" height="506" rx="20" ry="20" stroke-width="1" pointer-events="none" stroke="#325ebd" fill="#d8e4ff" stroke-dasharray="1,2"></rect><text  id="v-80" font-size="33.599999999999994px" xml:space="preserve" y="491" font-weight="bold" text-anchor="start" pointer-events="visible" font-family="Open Sans, Tahoma, Arial" fill="#325ebd" transform="matrix(1,0,0,1,15,0)"><tspan dy="0" >Kubernetes cluster's control plane</tspan></text><text  id="v-81" font-size="16.799999999999997px" xml:space="preserve" display="none" y="491" font-weight="normal" text-anchor="start" pointer-events="visible" font-family="Open Sans, Tahoma, Arial" fill="#325ebd" transform="matrix(1,0,0,1,15,0)"><tspan dy="0" style="fill-opacity: 0; stroke-opacity: 0;" >-</tspan></text><image  id="v-82" pointer-events="visible"></image></g></g><!--z-index:100--><g   id="j_16"  transform="translate(2340,810)" style=""><g id="v-103"><rect  id="v-104" width="530" height="506" rx="20" ry="20" stroke-width="1" pointer-events="none" stroke="#325ebd" fill="#d8e4ff" stroke-dasharray="1,2"></rect><text  id="v-105" font-size="33.599999999999994px" xml:space="preserve" y="491" font-weight="bold" text-anchor="start" pointer-events="visible" font-family="Open Sans, Tahoma, Arial" fill="#325ebd" transform="matrix(1,0,0,1,15,0)"><tspan dy="0" >prometheus module</tspan></text><text  id="v-106" font-size="16.799999999999997px" xml:space="preserve" display="none" y="491" font-weight="normal" text-anchor="start" pointer-events="visible" font-family="Open Sans, Tahoma, Arial" fill="#325ebd" transform="matrix(1,0,0,1,15,0)"><tspan dy="0" style="fill-opacity: 0; stroke-opacity: 0;" >-</tspan></text><image  id="v-107" pointer-events="visible"></image></g></g><!--z-index:101--><g   id="j_20"  transform="translate(140,100)" style=""><g id="v-128"><rect  id="v-129" width="1255" height="2056" rx="20" ry="20" stroke-width="1" pointer-events="none" stroke="#325ebd" fill="#d8e4ff" stroke-dasharray="1,2"></rect><text  id="v-130" font-size="33.599999999999994px" xml:space="preserve" y="2041" font-weight="bold" text-anchor="start" pointer-events="visible" font-family="Open Sans, Tahoma, Arial" fill="#325ebd" transform="matrix(1,0,0,1,15,0)"><tspan dy="0" >runtime-audit-engine module</tspan></text><text  id="v-131" font-size="16.799999999999997px" xml:space="preserve" display="none" y="2041" font-weight="normal" text-anchor="start" pointer-events="visible" font-family="Open Sans, Tahoma, Arial" fill="#325ebd" transform="matrix(1,0,0,1,15,0)"><tspan dy="0" style="fill-opacity: 0; stroke-opacity: 0;" >-</tspan></text><image  id="v-132" pointer-events="visible"></image></g></g><!--z-index:102--><g   id="j_13"  transform="translate(1705,830)" style=""><g id="v-83"><rect  id="v-84" width="490" height="403" rx="20" ry="20" stroke-width="1" pointer-events="none" stroke="#000000" fill="#ffffff" stroke-dasharray="1,2"></rect><text  id="v-85" font-size="33.599999999999994px" xml:space="preserve" y="388" font-weight="bold" text-anchor="start" pointer-events="visible" font-family="Open Sans, Tahoma, Arial" fill="#000000" transform="matrix(1,0,0,1,15,0)"><tspan dy="0" >kube-apiserver [pod]</tspan></text><text  id="v-86" font-size="16.799999999999997px" xml:space="preserve" display="none" y="388" font-weight="normal" text-anchor="start" pointer-events="visible" font-family="Open Sans, Tahoma, Arial" fill="#000000" transform="matrix(1,0,0,1,15,0)"><tspan dy="0" style="fill-opacity: 0; stroke-opacity: 0;" >-</tspan></text><image  id="v-87" pointer-events="visible"></image></g></g><!--z-index:103--><g   id="j_17"  transform="translate(2360,830)" style=""><g id="v-108"><rect  id="v-109" width="490" height="403" rx="20" ry="20" stroke-width="1" pointer-events="none" stroke="#000000" fill="#ffffff" stroke-dasharray="1,2"></rect><text  id="v-110" font-size="33.599999999999994px" xml:space="preserve" y="388" font-weight="bold" text-anchor="start" pointer-events="visible" font-family="Open Sans, Tahoma, Arial" fill="#000000" transform="matrix(1,0,0,1,15,0)"><tspan dy="0" >prometheus-main [pod]</tspan></text><text  id="v-111" font-size="16.799999999999997px" xml:space="preserve" display="none" y="388" font-weight="normal" text-anchor="start" pointer-events="visible" font-family="Open Sans, Tahoma, Arial" fill="#000000" transform="matrix(1,0,0,1,15,0)"><tspan dy="0" style="fill-opacity: 0; stroke-opacity: 0;" >-</tspan></text><image  id="v-112" pointer-events="visible"></image></g></g><!--z-index:104--><g   id="j_21"  transform="translate(885,1145)" style=""><g id="v-133"><rect  id="v-134" width="490" height="928" rx="20" ry="20" stroke-width="1" pointer-events="none" stroke="#000000" fill="#ffffff" stroke-dasharray="1,2"></rect><text  id="v-135" font-size="33.599999999999994px" xml:space="preserve" y="913" font-weight="bold" text-anchor="start" pointer-events="visible" font-family="Open Sans, Tahoma, Arial" fill="#000000" transform="matrix(1,0,0,1,15,0)"><tspan dy="0" >k8s-metacollector [pod]</tspan></text><text  id="v-136" font-size="16.799999999999997px" xml:space="preserve" display="none" y="913" font-weight="normal" text-anchor="start" pointer-events="visible" font-family="Open Sans, Tahoma, Arial" fill="#000000" transform="matrix(1,0,0,1,15,0)"><tspan dy="0" style="fill-opacity: 0; stroke-opacity: 0;" >-</tspan></text><image  id="v-137" pointer-events="visible"></image></g></g><!--z-index:105--><g   id="j_24"  transform="translate(160,120)" style=""><g id="v-155"><rect  id="v-156" width="1215" height="963" rx="20" ry="20" stroke-width="1" pointer-events="none" stroke="#000000" fill="#ffffff" stroke-dasharray="1,2"></rect><text  id="v-157" font-size="33.599999999999994px" xml:space="preserve" y="948" font-weight="bold" text-anchor="start" pointer-events="visible" font-family="Open Sans, Tahoma, Arial" fill="#000000" transform="matrix(1,0,0,1,15,0)"><tspan dy="0" >runtime-audit-engine [pod]</tspan></text><text  id="v-158" font-size="16.799999999999997px" xml:space="preserve" display="none" y="948" font-weight="normal" text-anchor="start" pointer-events="visible" font-family="Open Sans, Tahoma, Arial" fill="#000000" transform="matrix(1,0,0,1,15,0)"><tspan dy="0" style="fill-opacity: 0; stroke-opacity: 0;" >-</tspan></text><image  id="v-159" pointer-events="visible"></image></g></g><!--z-index:106--><g   id="j_11"  transform="translate(1725,850)" style=""><g  id="v-71" style="opacity: 1;"><rect  id="v-72" rx="20" ry="20" stroke-width="2" pointer-events="visiblePainted" fill="#e3ebff" stroke="#485d8e" stroke-dasharray="" width="450" height="300"></rect><text  id="v-73" font-size="33.599999999999994px" xml:space="preserve" y="120.80000000000001" font-weight="bold" text-anchor="middle" pointer-events="visible" font-family="Open Sans, Tahoma, Arial" fill="#000000" dominant-baseline="hanging" transform="matrix(1,0,0,1,225,0)"><tspan dy="0" >kube-apiserver</tspan></text><text  id="v-74" font-size="16.799999999999997px" xml:space="preserve" y="162.4" text-anchor="middle" font-family="Open Sans, Tahoma, Arial" fill="#000000" dominant-baseline="hanging" transform="matrix(1,0,0,1,225,0)" style="display: block;"><tspan dy="0" >[Container]</tspan></text><text  id="v-75" font-size="24px" xml:space="preserve" display="none" y="120.80000000000001" text-anchor="middle" font-family="Open Sans, Tahoma, Arial" fill="#000000" dominant-baseline="hanging" transform="matrix(1,0,0,1,225,0)" style="display: block;"><tspan dy="0"  style="fill-opacity: 0; stroke-opacity: 0;">-</tspan></text><g  id="v-76" color="#000000" transform="matrix(1,0,0,1,222.5,268)" display="none"><g ></g><g ></g><g ></g><g ></g></g><image  id="v-77"></image></g></g><!--z-index:107--><g   id="j_14"  transform="translate(2380,850)" style=""><g  id="v-91" style="opacity: 1;"><rect  id="v-92" rx="20" ry="20" stroke-width="2" pointer-events="visiblePainted" fill="#e3ebff" stroke="#485d8e" stroke-dasharray="" width="450" height="300"></rect><text  id="v-93" font-size="33.599999999999994px" xml:space="preserve" y="120.80000000000001" font-weight="bold" text-anchor="middle" pointer-events="visible" font-family="Open Sans, Tahoma, Arial" fill="#000000" dominant-baseline="hanging" transform="matrix(1,0,0,1,225,0)"><tspan dy="0" >prometheus (main)</tspan></text><text  id="v-94" font-size="16.799999999999997px" xml:space="preserve" y="162.4" text-anchor="middle" font-family="Open Sans, Tahoma, Arial" fill="#000000" dominant-baseline="hanging" transform="matrix(1,0,0,1,225,0)" style="display: block;"><tspan dy="0" >[Container]</tspan></text><text  id="v-95" font-size="24px" xml:space="preserve" display="none" y="120.80000000000001" text-anchor="middle" font-family="Open Sans, Tahoma, Arial" fill="#000000" dominant-baseline="hanging" transform="matrix(1,0,0,1,225,0)" style="display: block;"><tspan dy="0"  style="fill-opacity: 0; stroke-opacity: 0;">-</tspan></text><g  id="v-96" color="#000000" transform="matrix(1,0,0,1,222.5,268)" display="none"><g ></g><g ></g><g ></g><g ></g></g><image  id="v-97"></image></g></g><!--z-index:108--><g   id="j_18"  transform="translate(905,1165)" style=""><g  id="v-116" style="opacity: 1;"><rect  id="v-117" rx="20" ry="20" stroke-width="2" pointer-events="visiblePainted" fill="#e3ebff" stroke="#485d8e" stroke-dasharray="" width="450" height="300"></rect><text  id="v-118" font-size="33.599999999999994px" xml:space="preserve" y="120.80000000000001" font-weight="bold" text-anchor="middle" pointer-events="visible" font-family="Open Sans, Tahoma, Arial" fill="#000000" dominant-baseline="hanging" transform="matrix(1,0,0,1,225,0)"><tspan dy="0" >k8s-metacollector</tspan></text><text  id="v-119" font-size="16.799999999999997px" xml:space="preserve" y="162.4" text-anchor="middle" font-family="Open Sans, Tahoma, Arial" fill="#000000" dominant-baseline="hanging" transform="matrix(1,0,0,1,225,0)" style="display: block;"><tspan dy="0" >[Container]</tspan></text><text  id="v-120" font-size="24px" xml:space="preserve" display="none" y="120.80000000000001" text-anchor="middle" font-family="Open Sans, Tahoma, Arial" fill="#000000" dominant-baseline="hanging" transform="matrix(1,0,0,1,225,0)" style="display: block;"><tspan dy="0"  style="fill-opacity: 0; stroke-opacity: 0;">-</tspan></text><g  id="v-121" color="#000000" transform="matrix(1,0,0,1,222.5,268)" display="none"><g ></g><g ></g><g ></g><g ></g></g><image  id="v-122"></image></g></g><!--z-index:109--><g   id="j_22"  transform="translate(905,1690)" style=""><g  id="v-141" style="opacity: 1;"><rect  id="v-142" rx="20" ry="20" stroke-width="2" pointer-events="visiblePainted" fill="#e3ebff" stroke="#485d8e" stroke-dasharray="" width="450" height="300"></rect><text  id="v-143" font-size="33.599999999999994px" xml:space="preserve" y="100.64000000000001" font-weight="bold" text-anchor="middle" pointer-events="visible" font-family="Open Sans, Tahoma, Arial" fill="#000000" dominant-baseline="hanging" transform="matrix(1,0,0,1,225,0)"><tspan dy="0" >kube-rbac-proxy</tspan><tspan dy="1.2em" x="0" >(k8s-metacollector)</tspan></text><text  id="v-144" font-size="16.799999999999997px" xml:space="preserve" y="182.56" text-anchor="middle" font-family="Open Sans, Tahoma, Arial" fill="#000000" dominant-baseline="hanging" transform="matrix(1,0,0,1,225,0)" style="display: block;"><tspan dy="0" >[Container]</tspan></text><text  id="v-145" font-size="24px" xml:space="preserve" display="none" y="100.64000000000001" text-anchor="middle" font-family="Open Sans, Tahoma, Arial" fill="#000000" dominant-baseline="hanging" transform="matrix(1,0,0,1,225,0)" style="display: block;"><tspan dy="0"  style="fill-opacity: 0; stroke-opacity: 0;">-</tspan></text><g  id="v-146" color="#000000" transform="matrix(1,0,0,1,222.5,268)" display="none"><g ></g><g ></g><g ></g><g ></g></g><image  id="v-147"></image></g></g><!--z-index:110--><g   id="j_23"  transform="translate(180,700)" style=""><g  id="v-148" style="opacity: 1;"><rect  id="v-149" rx="20" ry="20" stroke-width="2" pointer-events="visiblePainted" fill="#e3ebff" stroke="#485d8e" stroke-dasharray="" width="450" height="300"></rect><text  id="v-150" font-size="33.599999999999994px" xml:space="preserve" y="120.80000000000001" font-weight="bold" text-anchor="middle" pointer-events="visible" font-family="Open Sans, Tahoma, Arial" fill="#000000" dominant-baseline="hanging" transform="matrix(1,0,0,1,225,0)"><tspan dy="0" >falco</tspan></text><text  id="v-151" font-size="16.799999999999997px" xml:space="preserve" y="162.4" text-anchor="middle" font-family="Open Sans, Tahoma, Arial" fill="#000000" dominant-baseline="hanging" transform="matrix(1,0,0,1,225,0)" style="display: block;"><tspan dy="0" >[Container]</tspan></text><text  id="v-152" font-size="24px" xml:space="preserve" display="none" y="120.80000000000001" text-anchor="middle" font-family="Open Sans, Tahoma, Arial" fill="#000000" dominant-baseline="hanging" transform="matrix(1,0,0,1,225,0)" style="display: block;"><tspan dy="0"  style="fill-opacity: 0; stroke-opacity: 0;">-</tspan></text><g  id="v-153" color="#000000" transform="matrix(1,0,0,1,222.5,268)" display="none"><g ></g><g ></g><g ></g><g ></g></g><image  id="v-154"></image></g></g><!--z-index:111--><g   id="j_25"  transform="translate(180,140)" style=""><g  id="v-160" style="opacity: 1;"><rect  id="v-161" rx="20" ry="20" stroke-width="2" pointer-events="visiblePainted" fill="#e3ebff" stroke="#485d8e" stroke-dasharray="" width="450" height="300"></rect><text  id="v-162" font-size="33.599999999999994px" xml:space="preserve" y="120.80000000000001" font-weight="bold" text-anchor="middle" pointer-events="visible" font-family="Open Sans, Tahoma, Arial" fill="#000000" dominant-baseline="hanging" transform="matrix(1,0,0,1,225,0)"><tspan dy="0" >falcosidekick</tspan></text><text  id="v-163" font-size="16.799999999999997px" xml:space="preserve" y="162.4" text-anchor="middle" font-family="Open Sans, Tahoma, Arial" fill="#000000" dominant-baseline="hanging" transform="matrix(1,0,0,1,225,0)" style="display: block;"><tspan dy="0" >[Container]</tspan></text><text  id="v-164" font-size="24px" xml:space="preserve" display="none" y="120.80000000000001" text-anchor="middle" font-family="Open Sans, Tahoma, Arial" fill="#000000" dominant-baseline="hanging" transform="matrix(1,0,0,1,225,0)" style="display: block;"><tspan dy="0"  style="fill-opacity: 0; stroke-opacity: 0;">-</tspan></text><g  id="v-165" color="#000000" transform="matrix(1,0,0,1,222.5,268)" display="none"><g ></g><g ></g><g ></g><g ></g></g><image  id="v-166"></image></g></g><!--z-index:112--><g   id="j_26"  transform="translate(905,700)" style=""><g  id="v-167" style="opacity: 1;"><rect  id="v-168" rx="20" ry="20" stroke-width="2" pointer-events="visiblePainted" fill="#e3ebff" stroke="#485d8e" stroke-dasharray="" width="450" height="300"></rect><text  id="v-169" font-size="33.599999999999994px" xml:space="preserve" y="120.80000000000001" font-weight="bold" text-anchor="middle" pointer-events="visible" font-family="Open Sans, Tahoma, Arial" fill="#000000" dominant-baseline="hanging" transform="matrix(1,0,0,1,225,0)"><tspan dy="0" >rules-loader</tspan></text><text  id="v-170" font-size="16.799999999999997px" xml:space="preserve" y="162.4" text-anchor="middle" font-family="Open Sans, Tahoma, Arial" fill="#000000" dominant-baseline="hanging" transform="matrix(1,0,0,1,225,0)" style="display: block;"><tspan dy="0" >[Container]</tspan></text><text  id="v-171" font-size="24px" xml:space="preserve" display="none" y="120.80000000000001" text-anchor="middle" font-family="Open Sans, Tahoma, Arial" fill="#000000" dominant-baseline="hanging" transform="matrix(1,0,0,1,225,0)" style="display: block;"><tspan dy="0"  style="fill-opacity: 0; stroke-opacity: 0;">-</tspan></text><g  id="v-172" color="#000000" transform="matrix(1,0,0,1,222.5,268)" display="none"><g ></g><g ></g><g ></g><g ></g></g><image  id="v-173"></image></g></g><!--z-index:113--><g   id="j_27"  transform="translate(905,140)" style=""><g  id="v-177" style="opacity: 1;"><rect  id="v-178" rx="20" ry="20" stroke-width="2" pointer-events="visiblePainted" fill="#e3ebff" stroke="#485d8e" stroke-dasharray="" width="450" height="300"></rect><text  id="v-179" font-size="33.599999999999994px" xml:space="preserve" y="100.64000000000001" font-weight="bold" text-anchor="middle" pointer-events="visible" font-family="Open Sans, Tahoma, Arial" fill="#000000" dominant-baseline="hanging" transform="matrix(1,0,0,1,225,0)"><tspan dy="0" >kube-rbac-proxy</tspan><tspan dy="1.2em" x="0" >(runtime-audit-engine)</tspan></text><text  id="v-180" font-size="16.799999999999997px" xml:space="preserve" y="182.56" text-anchor="middle" font-family="Open Sans, Tahoma, Arial" fill="#000000" dominant-baseline="hanging" transform="matrix(1,0,0,1,225,0)" style="display: block;"><tspan dy="0" >[Container]</tspan></text><text  id="v-181" font-size="24px" xml:space="preserve" display="none" y="100.64000000000001" text-anchor="middle" font-family="Open Sans, Tahoma, Arial" fill="#000000" dominant-baseline="hanging" transform="matrix(1,0,0,1,225,0)" style="display: block;"><tspan dy="0"  style="fill-opacity: 0; stroke-opacity: 0;">-</tspan></text><g  id="v-182" color="#000000" transform="matrix(1,0,0,1,222.5,268)" display="none"><g ></g><g ></g><g ></g><g ></g></g><image  id="v-183"></image></g></g><!--z-index:114--><g   id="j_28" ><path  stroke="#000000" d="M 1345 1690 L 1602 1511 C 1607.3333333333333 1507 1612 1502.3333333333333 1616 1497 L 1849 1150" id="v-200" stroke-width="1" stroke-dasharray="" fill="none" style="opacity: 1;"></path><path  fill="black" stroke="black" d="M 0 0 0 0" transform="matrix(0.8200291063876781,-0.5723218191516256,0.5723218191516256,0.8200291063876781,1344.9300537109375,1690)"></path><path  fill="#000000" stroke="#000000" d="M 10 0 L 0 5 L 10 10 z" id="v-202" transform="matrix(-0.5584851909931315,0.8295144913992555,-0.8295144913992555,-0.5584851909931315,1853.1575277088368,1152.7924365057818)" style="opacity: 1;"></path><path  d="M 1345 1690 L 1602 1511 C 1607.3333333333333 1507 1612 1502.3333333333333 1616 1497 L 1849 1150" id="v-201" fill="none" style="cursor: default;"></path><g ><g id="v-191"  label-idx="0" cursor="move" transform="matrix(1,0,0,1,1591.510009765625,1504.90625)" style="cursor: default; opacity: 1;"><rect joint-selector="rect" id="v-195" fill="#ffffff" rx="3" ry="3" pointer-events="none" width="196.0706787109375" height="60.505043029785156" transform="matrix(1,0,0,1,-98,-30.2)"></rect><text joint-selector="text" id="v-194" font-size="24px" xml:space="preserve" y="0.8em" fill="#000000" text-anchor="middle" pointer-events="none" font-family="Open Sans, Tahoma, Arial" font-weight="normal" transform="matrix(1,0,0,1,0,-24.4)"><tspan dy="0" >Performs request</tspan><tspan dy="1.2em" x="0" >authorization</tspan></text></g><g id="v-192"  label-idx="1" cursor="move" transform="matrix(1,0,0,1,1591.510009765625,1549.7061767578125)" style="cursor: default; opacity: 1;"><rect joint-selector="rect" id="v-197" fill="#ffffff" rx="3" ry="3"  pointer-events="none" width="83.66899108886719" height="23.361613273620605" transform="matrix(1,0,0,1,-41.8,-11.7)" style="display: block;"></rect><text joint-selector="text" id="v-196" font-size="16.799999999999997px" xml:space="preserve" y="0.8em" fill="#000000" text-anchor="middle" pointer-events="none"  font-family="Open Sans, Tahoma, Arial" font-weight="normal" transform="matrix(1,0,0,1,0,-6.8)" style="display: block;"><tspan dy="0" >[6443 TCP]</tspan></text></g><g id="v-193"  label-idx="2" cursor="move" transform="matrix(1,0,0,1,1581.510009765625,1558.106201171875)" style="cursor: default; opacity: 1;"><rect joint-selector="rect" id="v-199" fill="#ffffff" rx="3" ry="3"  width="0" height="0" transform="matrix(1,0,0,1,0,0)" display="none"></rect><text joint-selector="text" id="v-198" fill="#000000" font-size="14" text-anchor="middle" pointer-events="none"></text></g></g><g  display="none"><g  transform="translate(1610, 1505)" id="v-188"><circle  idx="0" r="10"></circle><path  idx="0" d="M16,5.333c-7.732,0-14,4.701-14,10.5c0,1.982,0.741,3.833,2.016,5.414L2,25.667l5.613-1.441c2.339,1.317,5.237,2.107,8.387,2.107c7.732,0,14-4.701,14-10.5C30,10.034,23.732,5.333,16,5.333z" transform="translate(5, -33)"></path><path  idx="0" transform="scale(.8) translate(9.5, -37)" d="M24.778,21.419 19.276,15.917 24.777,10.415 21.949,7.585 16.447,13.087 10.945,7.585 8.117,10.415 13.618,15.917 8.116,21.419 10.946,24.248 16.447,18.746 21.948,24.248z"><title>Remove vertex.</title></path></g></g><g  id="v-204" display="none"><g  id="v-189"><path  end="source" d="M 26 0 L 0 13 L 26 26 z"></path></g><g  id="v-190"><path  end="target" d="M 26 0 L 0 13 L 26 26 z"></path></g></g><g  id="v-203" display="none"><g  id="v-187" transform="translate(1377.8231870281932, 1667.138714093204) "><g  event="remove"><circle r="11"></circle><path transform="scale(.8) translate(-16, -16)" d="M24.778,21.419 19.276,15.917 24.777,10.415 21.949,7.585 16.447,13.087 10.945,7.585 8.117,10.415 13.618,15.917 8.116,21.419 10.946,24.248 16.447,18.746 21.948,24.248z"></path><title>Remove link.</title></g><g  event="link:options"><circle r="11" transform="translate(25)"></circle><path fill="white" transform="scale(.55) translate(29, -16)" d="M31.229,17.736c0.064-0.571,0.104-1.148,0.104-1.736s-0.04-1.166-0.104-1.737l-4.377-1.557c-0.218-0.716-0.504-1.401-0.851-2.05l1.993-4.192c-0.725-0.91-1.549-1.734-2.458-2.459l-4.193,1.994c-0.647-0.347-1.334-0.632-2.049-0.849l-1.558-4.378C17.165,0.708,16.588,0.667,16,0.667s-1.166,0.041-1.737,0.105L12.707,5.15c-0.716,0.217-1.401,0.502-2.05,0.849L6.464,4.005C5.554,4.73,4.73,5.554,4.005,6.464l1.994,4.192c-0.347,0.648-0.632,1.334-0.849,2.05l-4.378,1.557C0.708,14.834,0.667,15.412,0.667,16s0.041,1.165,0.105,1.736l4.378,1.558c0.217,0.715,0.502,1.401,0.849,2.049l-1.994,4.193c0.725,0.909,1.549,1.733,2.459,2.458l4.192-1.993c0.648,0.347,1.334,0.633,2.05,0.851l1.557,4.377c0.571,0.064,1.148,0.104,1.737,0.104c0.588,0,1.165-0.04,1.736-0.104l1.558-4.377c0.715-0.218,1.399-0.504,2.049-0.851l4.193,1.993c0.909-0.725,1.733-1.549,2.458-2.458l-1.993-4.193c0.347-0.647,0.633-1.334,0.851-2.049L31.229,17.736zM16,20.871c-2.69,0-4.872-2.182-4.872-4.871c0-2.69,2.182-4.872,4.872-4.872c2.689,0,4.871,2.182,4.871,4.872C20.871,18.689,18.689,20.871,16,20.871z"></path><title>Link options.</title></g></g></g></g><!--z-index:115--><g   id="j_29" ><path  stroke="#000000" d="M 1130 1690 L 1130 1465" id="v-220" stroke-width="1" stroke-dasharray="" fill="none" style="opacity: 1;"></path><path  fill="black" stroke="black" d="M 0 0 0 0" transform="matrix(-1.8369701987210297e-16,-1,1,-1.8369701987210297e-16,1130,1690)"></path><path  fill="#000000" stroke="#000000" d="M 10 0 L 0 5 L 10 10 z" id="v-222" transform="matrix(6.123233995736766e-17,1,-1,6.123233995736766e-17,1135,1465)" style="opacity: 1;"></path><path  d="M 1130 1690 L 1130 1465" id="v-221" fill="none" style="cursor: default;"></path><g ><g id="v-211"  label-idx="0" cursor="move" transform="matrix(1,0,0,1,1130,1564.0999755859375)" style="cursor: default; opacity: 1;"><rect joint-selector="rect" id="v-215" fill="#ffffff" rx="3" ry="3" pointer-events="none" width="121.03192901611328" height="89.30504608154297" transform="matrix(1,0,0,1,-60.5,-44.6)"></rect><text joint-selector="text" id="v-214" font-size="24px" xml:space="preserve" y="0.8em" fill="#000000" text-anchor="middle" pointer-events="none" font-family="Open Sans, Tahoma, Arial" font-weight="normal" transform="matrix(1,0,0,1,0,-38.8)"><tspan dy="0" >Forwards</tspan><tspan dy="1.2em" x="0" >authorized</tspan><tspan dy="1.2em" x="0" >requests</tspan></text></g><g id="v-212"  label-idx="1" cursor="move" transform="matrix(1,0,0,1,1130,1623.300048828125)" style="cursor: default; opacity: 1;"><rect joint-selector="rect" id="v-217" fill="#ffffff" rx="3" ry="3"  pointer-events="none" width="83.66899108886719" height="23.361613273620605" transform="matrix(1,0,0,1,-41.8,-11.7)" style="display: block;"></rect><text joint-selector="text" id="v-216" font-size="16.799999999999997px" xml:space="preserve" y="0.8em" fill="#000000" text-anchor="middle" pointer-events="none"  font-family="Open Sans, Tahoma, Arial" font-weight="normal" transform="matrix(1,0,0,1,0,-6.8)" style="display: block;"><tspan dy="0" >[8080 TCP]</tspan></text></g><g id="v-213"  label-idx="2" cursor="move" transform="matrix(1,0,0,1,1120,1631.699951171875)" style="cursor: default; opacity: 1;"><rect joint-selector="rect" id="v-219" fill="#ffffff" rx="3" ry="3"  width="0" height="0" transform="matrix(1,0,0,1,0,0)" display="none"></rect><text joint-selector="text" id="v-218" fill="#000000" font-size="14" text-anchor="middle" pointer-events="none"></text></g></g><g  display="none"></g><g  id="v-224" display="none"><g  id="v-209"><path  end="source" d="M 26 0 L 0 13 L 26 26 z"></path></g><g  id="v-210"><path  end="target" d="M 26 0 L 0 13 L 26 26 z"></path></g></g><g  id="v-223" display="none"><g  id="v-208" transform="translate(1130, 1650) "><g  event="remove"><circle r="11"></circle><path transform="scale(.8) translate(-16, -16)" d="M24.778,21.419 19.276,15.917 24.777,10.415 21.949,7.585 16.447,13.087 10.945,7.585 8.117,10.415 13.618,15.917 8.116,21.419 10.946,24.248 16.447,18.746 21.948,24.248z"></path><title>Remove link.</title></g><g  event="link:options"><circle r="11" transform="translate(25)"></circle><path fill="white" transform="scale(.55) translate(29, -16)" d="M31.229,17.736c0.064-0.571,0.104-1.148,0.104-1.736s-0.04-1.166-0.104-1.737l-4.377-1.557c-0.218-0.716-0.504-1.401-0.851-2.05l1.993-4.192c-0.725-0.91-1.549-1.734-2.458-2.459l-4.193,1.994c-0.647-0.347-1.334-0.632-2.049-0.849l-1.558-4.378C17.165,0.708,16.588,0.667,16,0.667s-1.166,0.041-1.737,0.105L12.707,5.15c-0.716,0.217-1.401,0.502-2.05,0.849L6.464,4.005C5.554,4.73,4.73,5.554,4.005,6.464l1.994,4.192c-0.347,0.648-0.632,1.334-0.849,2.05l-4.378,1.557C0.708,14.834,0.667,15.412,0.667,16s0.041,1.165,0.105,1.736l4.378,1.558c0.217,0.715,0.502,1.401,0.849,2.049l-1.994,4.193c0.725,0.909,1.549,1.733,2.459,2.458l4.192-1.993c0.648,0.347,1.334,0.633,2.05,0.851l1.557,4.377c0.571,0.064,1.148,0.104,1.737,0.104c0.588,0,1.165-0.04,1.736-0.104l1.558-4.377c0.715-0.218,1.399-0.504,2.049-0.851l4.193,1.993c0.909-0.725,1.733-1.549,2.458-2.458l-1.993-4.193c0.347-0.647,0.633-1.334,0.851-2.049L31.229,17.736zM16,20.871c-2.69,0-4.872-2.182-4.872-4.871c0-2.69,2.182-4.872,4.872-4.872c2.689,0,4.871,2.182,4.871,4.872C20.871,18.689,18.689,20.871,16,20.871z"></path><title>Link options.</title></g></g></g></g><!--z-index:116--><g   id="j_30" ><path  stroke="#000000" d="M 2477 1150 L 2137 1547 C 2132.333333333333 1552.333333333333 2126.6666666666665 1555.9999999999998 2120 1558 L 1355 1776" id="v-241" stroke-width="1" stroke-dasharray="" fill="none" style="opacity: 1;"></path><path  fill="black" stroke="black" d="M 0 0 0 0" transform="matrix(-0.6502257453489683,0.7597410612079478,-0.7597410612079478,-0.6502257453489683,2476.6201171875,1150)"></path><path  fill="#000000" stroke="#000000" d="M 10 0 L 0 5 L 10 10 z" id="v-243" transform="matrix(0.9617035364439314,-0.27409178752971797,0.27409178752971797,0.9617035364439314,1353.6294950598192,1771.071462739804)" style="opacity: 1;"></path><path  d="M 2477 1150 L 2137 1547 C 2132.333333333333 1552.333333333333 2126.6666666666665 1555.9999999999998 2120 1558 L 1355 1776" id="v-242" fill="none" style="cursor: default;"></path><g ><g id="v-232"  label-idx="0" cursor="move" transform="matrix(1,0,0,1,1998.708251953125,1579.1641845703125)" style="cursor: default; opacity: 1;"><rect joint-selector="rect" id="v-236" fill="#ffffff" rx="3" ry="3" pointer-events="none" width="175.91607666015625" height="31.705045700073242" transform="matrix(1,0,0,1,-88,-15.8)"></rect><text joint-selector="text" id="v-235" font-size="24px" xml:space="preserve" y="0.8em" fill="#000000" text-anchor="middle" pointer-events="none" font-family="Open Sans, Tahoma, Arial" font-weight="normal" transform="matrix(1,0,0,1,0,-10)"><tspan dy="0" >Collects metrics</tspan></text></g><g id="v-233"  label-idx="1" cursor="move" transform="matrix(1,0,0,1,1998.708251953125,1609.564208984375)" style="cursor: default; opacity: 1;"><rect joint-selector="rect" id="v-238" fill="#ffffff" rx="3" ry="3"  pointer-events="none" width="83.66899108886719" height="23.361613273620605" transform="matrix(1,0,0,1,-41.8,-11.7)" style="display: block;"></rect><text joint-selector="text" id="v-237" font-size="16.799999999999997px" xml:space="preserve" y="0.8em" fill="#000000" text-anchor="middle" pointer-events="none"  font-family="Open Sans, Tahoma, Arial" font-weight="normal" transform="matrix(1,0,0,1,0,-6.8)" style="display: block;"><tspan dy="0" >[8080 TCP]</tspan></text></g><g id="v-234"  label-idx="2" cursor="move" transform="matrix(1,0,0,1,1988.708251953125,1617.964111328125)" style="cursor: default; opacity: 1;"><rect joint-selector="rect" id="v-240" fill="#ffffff" rx="3" ry="3"  width="0" height="0" transform="matrix(1,0,0,1,0,0)" display="none"></rect><text joint-selector="text" id="v-239" fill="#000000" font-size="14" text-anchor="middle" pointer-events="none"></text></g></g><g  display="none"><g  transform="translate(2130, 1555)" id="v-229"><circle  idx="0" r="10"></circle><path  idx="0" d="M16,5.333c-7.732,0-14,4.701-14,10.5c0,1.982,0.741,3.833,2.016,5.414L2,25.667l5.613-1.441c2.339,1.317,5.237,2.107,8.387,2.107c7.732,0,14-4.701,14-10.5C30,10.034,23.732,5.333,16,5.333z" transform="translate(5, -33)"></path><path  idx="0" transform="scale(.8) translate(9.5, -37)" d="M24.778,21.419 19.276,15.917 24.777,10.415 21.949,7.585 16.447,13.087 10.945,7.585 8.117,10.415 13.618,15.917 8.116,21.419 10.946,24.248 16.447,18.746 21.948,24.248z"><title>Remove vertex.</title></path></g></g><g  id="v-245" display="none"><g  id="v-230"><path  end="source" d="M 26 0 L 0 13 L 26 26 z"></path></g><g  id="v-231"><path  end="target" d="M 26 0 L 0 13 L 26 26 z"></path></g></g><g  id="v-244" display="none"><g  id="v-228" transform="translate(2450.9809516869354, 1180.3810652361371) "><g  event="remove"><circle r="11"></circle><path transform="scale(.8) translate(-16, -16)" d="M24.778,21.419 19.276,15.917 24.777,10.415 21.949,7.585 16.447,13.087 10.945,7.585 8.117,10.415 13.618,15.917 8.116,21.419 10.946,24.248 16.447,18.746 21.948,24.248z"></path><title>Remove link.</title></g><g  event="link:options"><circle r="11" transform="translate(25)"></circle><path fill="white" transform="scale(.55) translate(29, -16)" d="M31.229,17.736c0.064-0.571,0.104-1.148,0.104-1.736s-0.04-1.166-0.104-1.737l-4.377-1.557c-0.218-0.716-0.504-1.401-0.851-2.05l1.993-4.192c-0.725-0.91-1.549-1.734-2.458-2.459l-4.193,1.994c-0.647-0.347-1.334-0.632-2.049-0.849l-1.558-4.378C17.165,0.708,16.588,0.667,16,0.667s-1.166,0.041-1.737,0.105L12.707,5.15c-0.716,0.217-1.401,0.502-2.05,0.849L6.464,4.005C5.554,4.73,4.73,5.554,4.005,6.464l1.994,4.192c-0.347,0.648-0.632,1.334-0.849,2.05l-4.378,1.557C0.708,14.834,0.667,15.412,0.667,16s0.041,1.165,0.105,1.736l4.378,1.558c0.217,0.715,0.502,1.401,0.849,2.049l-1.994,4.193c0.725,0.909,1.549,1.733,2.459,2.458l4.192-1.993c0.648,0.347,1.334,0.633,2.05,0.851l1.557,4.377c0.571,0.064,1.148,0.104,1.737,0.104c0.588,0,1.165-0.04,1.736-0.104l1.558-4.377c0.715-0.218,1.399-0.504,2.049-0.851l4.193,1.993c0.909-0.725,1.733-1.549,2.458-2.458l-1.993-4.193c0.347-0.647,0.633-1.334,0.851-2.049L31.229,17.736zM16,20.871c-2.69,0-4.872-2.182-4.872-4.871c0-2.69,2.182-4.872,4.872-4.872c2.689,0,4.871,2.182,4.871,4.872C20.871,18.689,18.689,20.871,16,20.871z"></path><title>Link options.</title></g></g></g></g><!--z-index:117--><g   id="j_31" ><path  stroke="#000000" d="M 1725 888 L 1559 804 C 1553 801.3333333333333 1546.6666666666665 800.3333333333333 1540 801 L 1355 823" id="v-262" stroke-width="1" stroke-dasharray="" fill="none" style="opacity: 1;"></path><path  fill="black" stroke="black" d="M 0 0 0 0" transform="matrix(-0.8944272140983217,-0.44721354930314333,0.44721354930314333,-0.8944272140983217,1725,887.5)"></path><path  fill="#000000" stroke="#000000" d="M 10 0 L 0 5 L 10 10 z" id="v-264" transform="matrix(0.9929908629641331,-0.11819114209510907,0.11819114209510907,0.9929908629641331,1354.4090557950162,818.2450199503425)" style="opacity: 1;"></path><path  d="M 1725 888 L 1559 804 C 1553 801.3333333333333 1546.6666666666665 800.3333333333333 1540 801 L 1355 823" id="v-263" fill="none" style="cursor: default;"></path><g ><g id="v-253"  label-idx="0" cursor="move" transform="matrix(1,0,0,1,1549.5643310546875,787.8211669921875)" style="cursor: default; opacity: 1;"><rect joint-selector="rect" id="v-257" fill="#ffffff" rx="3" ry="3" pointer-events="none" width="177.40225219726562" height="89.30504608154297" transform="matrix(1,0,0,1,-88.7,-44.6)"></rect><text joint-selector="text" id="v-256" font-size="24px" xml:space="preserve" y="0.8em" fill="#000000" text-anchor="middle" pointer-events="none" font-family="Open Sans, Tahoma, Arial" font-weight="normal" transform="matrix(1,0,0,1,0,-38.8)"><tspan dy="0" >Validates</tspan><tspan dy="1.2em" x="0" >FalcoAuditRules</tspan><tspan dy="1.2em" x="0" >CR</tspan></text></g><g id="v-254"  label-idx="1" cursor="move" transform="matrix(1,0,0,1,1549.5643310546875,847.0211791992188)" style="cursor: default; opacity: 1;"><rect joint-selector="rect" id="v-259" fill="#ffffff" rx="3" ry="3"  pointer-events="none" width="83.66899108886719" height="23.361613273620605" transform="matrix(1,0,0,1,-41.8,-11.7)" style="display: block;"></rect><text joint-selector="text" id="v-258" font-size="16.799999999999997px" xml:space="preserve" y="0.8em" fill="#000000" text-anchor="middle" pointer-events="none"  font-family="Open Sans, Tahoma, Arial" font-weight="normal" transform="matrix(1,0,0,1,0,-6.8)" style="display: block;"><tspan dy="0" >[4227 TCP]</tspan></text></g><g id="v-255"  label-idx="2" cursor="move" transform="matrix(1,0,0,1,1539.5643310546875,855.4212036132812)" style="cursor: default; opacity: 1;"><rect joint-selector="rect" id="v-261" fill="#ffffff" rx="3" ry="3"  width="0" height="0" transform="matrix(1,0,0,1,0,0)" display="none"></rect><text joint-selector="text" id="v-260" fill="#000000" font-size="14" text-anchor="middle" pointer-events="none"></text></g></g><g  display="none"><g  transform="translate(1550, 800)" id="v-250"><circle  idx="0" r="10"></circle><path  idx="0" d="M16,5.333c-7.732,0-14,4.701-14,10.5c0,1.982,0.741,3.833,2.016,5.414L2,25.667l5.613-1.441c2.339,1.317,5.237,2.107,8.387,2.107c7.732,0,14-4.701,14-10.5C30,10.034,23.732,5.333,16,5.333z" transform="translate(5, -33)"></path><path  idx="0" transform="scale(.8) translate(9.5, -37)" d="M24.778,21.419 19.276,15.917 24.777,10.415 21.949,7.585 16.447,13.087 10.945,7.585 8.117,10.415 13.618,15.917 8.116,21.419 10.946,24.248 16.447,18.746 21.948,24.248z"><title>Remove vertex.</title></path></g></g><g  id="v-266" display="none"><g  id="v-251"><path  end="source" d="M 26 0 L 0 13 L 26 26 z"></path></g><g  id="v-252"><path  end="target" d="M 26 0 L 0 13 L 26 26 z"></path></g></g><g  id="v-265" display="none"><g  id="v-249" transform="translate(1689.3093274475523, 869.9396596722554) "><g  event="remove"><circle r="11"></circle><path transform="scale(.8) translate(-16, -16)" d="M24.778,21.419 19.276,15.917 24.777,10.415 21.949,7.585 16.447,13.087 10.945,7.585 8.117,10.415 13.618,15.917 8.116,21.419 10.946,24.248 16.447,18.746 21.948,24.248z"></path><title>Remove link.</title></g><g  event="link:options"><circle r="11" transform="translate(25)"></circle><path fill="white" transform="scale(.55) translate(29, -16)" d="M31.229,17.736c0.064-0.571,0.104-1.148,0.104-1.736s-0.04-1.166-0.104-1.737l-4.377-1.557c-0.218-0.716-0.504-1.401-0.851-2.05l1.993-4.192c-0.725-0.91-1.549-1.734-2.458-2.459l-4.193,1.994c-0.647-0.347-1.334-0.632-2.049-0.849l-1.558-4.378C17.165,0.708,16.588,0.667,16,0.667s-1.166,0.041-1.737,0.105L12.707,5.15c-0.716,0.217-1.401,0.502-2.05,0.849L6.464,4.005C5.554,4.73,4.73,5.554,4.005,6.464l1.994,4.192c-0.347,0.648-0.632,1.334-0.849,2.05l-4.378,1.557C0.708,14.834,0.667,15.412,0.667,16s0.041,1.165,0.105,1.736l4.378,1.558c0.217,0.715,0.502,1.401,0.849,2.049l-1.994,4.193c0.725,0.909,1.549,1.733,2.459,2.458l4.192-1.993c0.648,0.347,1.334,0.633,2.05,0.851l1.557,4.377c0.571,0.064,1.148,0.104,1.737,0.104c0.588,0,1.165-0.04,1.736-0.104l1.558-4.377c0.715-0.218,1.399-0.504,2.049-0.851l4.193,1.993c0.909-0.725,1.733-1.549,2.458-2.458l-1.993-4.193c0.347-0.647,0.633-1.334,0.851-2.049L31.229,17.736zM16,20.871c-2.69,0-4.872-2.182-4.872-4.871c0-2.69,2.182-4.872,4.872-4.872c2.689,0,4.871,2.182,4.871,4.872C20.871,18.689,18.689,20.871,16,20.871z"></path><title>Link options.</title></g></g></g></g><!--z-index:118--><g   id="j_32" ><path  stroke="#000000" d="M 905 290 L 630 290" id="v-282" stroke-width="1" stroke-dasharray="" fill="none" style="opacity: 1;"></path><path  fill="black" stroke="black" d="M 0 0 0 0" transform="matrix(-1,1.2246467991473532e-16,-1.2246467991473532e-16,-1,905,290)"></path><path  fill="#000000" stroke="#000000" d="M 10 0 L 0 5 L 10 10 z" id="v-284" transform="matrix(1,0,0,1,630,285.00000000000006)" style="opacity: 1;"></path><path  d="M 905 290 L 630 290" id="v-283" fill="none" style="cursor: default;"></path><g ><g id="v-273"  label-idx="0" cursor="move" transform="matrix(1,0,0,1,767.5,276.6000061035156)" style="cursor: default; opacity: 1;"><rect joint-selector="rect" id="v-277" fill="#ffffff" rx="3" ry="3" pointer-events="none" width="121.03192901611328" height="89.30504608154297" transform="matrix(1,0,0,1,-60.5,-44.6)"></rect><text joint-selector="text" id="v-276" font-size="24px" xml:space="preserve" y="0.8em" fill="#000000" text-anchor="middle" pointer-events="none" font-family="Open Sans, Tahoma, Arial" font-weight="normal" transform="matrix(1,0,0,1,0,-38.8)"><tspan dy="0" >Forwards</tspan><tspan dy="1.2em" x="0" >authorized</tspan><tspan dy="1.2em" x="0" >requests</tspan></text></g><g id="v-274"  label-idx="1" cursor="move" transform="matrix(1,0,0,1,767.5,335.79998779296875)" style="cursor: default; opacity: 1;"><rect joint-selector="rect" id="v-279" fill="#ffffff" rx="3" ry="3"  pointer-events="none" width="83.66899108886719" height="23.361613273620605" transform="matrix(1,0,0,1,-41.8,-11.7)" style="display: block;"></rect><text joint-selector="text" id="v-278" font-size="16.799999999999997px" xml:space="preserve" y="0.8em" fill="#000000" text-anchor="middle" pointer-events="none"  font-family="Open Sans, Tahoma, Arial" font-weight="normal" transform="matrix(1,0,0,1,0,-6.8)" style="display: block;"><tspan dy="0" >[2801 TCP]</tspan></text></g><g id="v-275"  label-idx="2" cursor="move" transform="matrix(1,0,0,1,757.5,344.20001220703125)" style="cursor: default; opacity: 1;"><rect joint-selector="rect" id="v-281" fill="#ffffff" rx="3" ry="3"  width="0" height="0" transform="matrix(1,0,0,1,0,0)" display="none"></rect><text joint-selector="text" id="v-280" fill="#000000" font-size="14" text-anchor="middle" pointer-events="none"></text></g></g><g  display="none"></g><g  id="v-286" display="none"><g  id="v-271"><path  end="source" d="M 26 0 L 0 13 L 26 26 z"></path></g><g  id="v-272"><path  end="target" d="M 26 0 L 0 13 L 26 26 z"></path></g></g><g  id="v-285" display="none"><g  id="v-270" transform="translate(865, 290) "><g  event="remove"><circle r="11"></circle><path transform="scale(.8) translate(-16, -16)" d="M24.778,21.419 19.276,15.917 24.777,10.415 21.949,7.585 16.447,13.087 10.945,7.585 8.117,10.415 13.618,15.917 8.116,21.419 10.946,24.248 16.447,18.746 21.948,24.248z"></path><title>Remove link.</title></g><g  event="link:options"><circle r="11" transform="translate(25)"></circle><path fill="white" transform="scale(.55) translate(29, -16)" d="M31.229,17.736c0.064-0.571,0.104-1.148,0.104-1.736s-0.04-1.166-0.104-1.737l-4.377-1.557c-0.218-0.716-0.504-1.401-0.851-2.05l1.993-4.192c-0.725-0.91-1.549-1.734-2.458-2.459l-4.193,1.994c-0.647-0.347-1.334-0.632-2.049-0.849l-1.558-4.378C17.165,0.708,16.588,0.667,16,0.667s-1.166,0.041-1.737,0.105L12.707,5.15c-0.716,0.217-1.401,0.502-2.05,0.849L6.464,4.005C5.554,4.73,4.73,5.554,4.005,6.464l1.994,4.192c-0.347,0.648-0.632,1.334-0.849,2.05l-4.378,1.557C0.708,14.834,0.667,15.412,0.667,16s0.041,1.165,0.105,1.736l4.378,1.558c0.217,0.715,0.502,1.401,0.849,2.049l-1.994,4.193c0.725,0.909,1.549,1.733,2.459,2.458l4.192-1.993c0.648,0.347,1.334,0.633,2.05,0.851l1.557,4.377c0.571,0.064,1.148,0.104,1.737,0.104c0.588,0,1.165-0.04,1.736-0.104l1.558-4.377c0.715-0.218,1.399-0.504,2.049-0.851l4.193,1.993c0.909-0.725,1.733-1.549,2.458-2.458l-1.993-4.193c0.347-0.647,0.633-1.334,0.851-2.049L31.229,17.736zM16,20.871c-2.69,0-4.872-2.182-4.872-4.871c0-2.69,2.182-4.872,4.872-4.872c2.689,0,4.871,2.182,4.871,4.872C20.871,18.689,18.689,20.871,16,20.871z"></path><title>Link options.</title></g></g></g></g><!--z-index:119--><g   id="j_33" ><path  stroke="#000000" d="M 936 440 L 599 700" id="v-302" stroke-width="1" stroke-dasharray="" fill="none" style="opacity: 1;"></path><path  fill="black" stroke="black" d="M 0 0 0 0" transform="matrix(-0.7913987698635232,0.6113002429727166,-0.6113002429727166,-0.7913987698635232,935.7999877929688,440)"></path><path  fill="#000000" stroke="#000000" d="M 10 0 L 0 5 L 10 10 z" id="v-304" transform="matrix(0.7913986070643928,-0.6113004537349361,0.6113004537349361,0.7913986070643928,596.1434871178784,696.0429906786652)" style="opacity: 1;"></path><path  d="M 936 440 L 599 700" id="v-303" fill="none" style="cursor: default;"></path><g ><g id="v-293"  label-idx="0" cursor="move" transform="matrix(1,0,0,1,767.5,556.5999755859375)" style="cursor: default; opacity: 1;"><rect joint-selector="rect" id="v-297" fill="#ffffff" rx="3" ry="3" pointer-events="none" width="121.03192901611328" height="89.30504608154297" transform="matrix(1,0,0,1,-60.5,-44.6)"></rect><text joint-selector="text" id="v-296" font-size="24px" xml:space="preserve" y="0.8em" fill="#000000" text-anchor="middle" pointer-events="none" font-family="Open Sans, Tahoma, Arial" font-weight="normal" transform="matrix(1,0,0,1,0,-38.8)"><tspan dy="0" >Forwards</tspan><tspan dy="1.2em" x="0" >authorized</tspan><tspan dy="1.2em" x="0" >requests</tspan></text></g><g id="v-294"  label-idx="1" cursor="move" transform="matrix(1,0,0,1,767.5,615.7999877929688)" style="cursor: default; opacity: 1;"><rect joint-selector="rect" id="v-299" fill="#ffffff" rx="3" ry="3"  pointer-events="none" width="83.66899108886719" height="23.361613273620605" transform="matrix(1,0,0,1,-41.8,-11.7)" style="display: block;"></rect><text joint-selector="text" id="v-298" font-size="16.799999999999997px" xml:space="preserve" y="0.8em" fill="#000000" text-anchor="middle" pointer-events="none"  font-family="Open Sans, Tahoma, Arial" font-weight="normal" transform="matrix(1,0,0,1,0,-6.8)" style="display: block;"><tspan dy="0" >[8765 TCP]</tspan></text></g><g id="v-295"  label-idx="2" cursor="move" transform="matrix(1,0,0,1,757.5,624.2000122070312)" style="cursor: default; opacity: 1;"><rect joint-selector="rect" id="v-301" fill="#ffffff" rx="3" ry="3"  width="0" height="0" transform="matrix(1,0,0,1,0,0)" display="none"></rect><text joint-selector="text" id="v-300" fill="#000000" font-size="14" text-anchor="middle" pointer-events="none"></text></g></g><g  display="none"></g><g  id="v-306" display="none"><g  id="v-291"><path  end="source" d="M 26 0 L 0 13 L 26 26 z"></path></g><g  id="v-292"><path  end="target" d="M 26 0 L 0 13 L 26 26 z"></path></g></g><g  id="v-305" display="none"><g  id="v-290" transform="translate(904.3300083679362, 464.43382143720066) "><g  event="remove"><circle r="11"></circle><path transform="scale(.8) translate(-16, -16)" d="M24.778,21.419 19.276,15.917 24.777,10.415 21.949,7.585 16.447,13.087 10.945,7.585 8.117,10.415 13.618,15.917 8.116,21.419 10.946,24.248 16.447,18.746 21.948,24.248z"></path><title>Remove link.</title></g><g  event="link:options"><circle r="11" transform="translate(25)"></circle><path fill="white" transform="scale(.55) translate(29, -16)" d="M31.229,17.736c0.064-0.571,0.104-1.148,0.104-1.736s-0.04-1.166-0.104-1.737l-4.377-1.557c-0.218-0.716-0.504-1.401-0.851-2.05l1.993-4.192c-0.725-0.91-1.549-1.734-2.458-2.459l-4.193,1.994c-0.647-0.347-1.334-0.632-2.049-0.849l-1.558-4.378C17.165,0.708,16.588,0.667,16,0.667s-1.166,0.041-1.737,0.105L12.707,5.15c-0.716,0.217-1.401,0.502-2.05,0.849L6.464,4.005C5.554,4.73,4.73,5.554,4.005,6.464l1.994,4.192c-0.347,0.648-0.632,1.334-0.849,2.05l-4.378,1.557C0.708,14.834,0.667,15.412,0.667,16s0.041,1.165,0.105,1.736l4.378,1.558c0.217,0.715,0.502,1.401,0.849,2.049l-1.994,4.193c0.725,0.909,1.549,1.733,2.459,2.458l4.192-1.993c0.648,0.347,1.334,0.633,2.05,0.851l1.557,4.377c0.571,0.064,1.148,0.104,1.737,0.104c0.588,0,1.165-0.04,1.736-0.104l1.558-4.377c0.715-0.218,1.399-0.504,2.049-0.851l4.193,1.993c0.909-0.725,1.733-1.549,2.458-2.458l-1.993-4.193c0.347-0.647,0.633-1.334,0.851-2.049L31.229,17.736zM16,20.871c-2.69,0-4.872-2.182-4.872-4.871c0-2.69,2.182-4.872,4.872-4.872c2.689,0,4.871,2.182,4.871,4.872C20.871,18.689,18.689,20.871,16,20.871z"></path><title>Link options.</title></g></g></g></g><!--z-index:120--><g   id="j_34" ><path  stroke="#000000" d="M 1130 440 L 1130 700" id="v-322" stroke-width="1" stroke-dasharray="" fill="none" style="opacity: 1;"></path><path  fill="black" stroke="black" d="M 0 0 0 0" transform="matrix(6.123233995736766e-17,1,-1,6.123233995736766e-17,1130,440)"></path><path  fill="#000000" stroke="#000000" d="M 10 0 L 0 5 L 10 10 z" id="v-324" transform="matrix(-1.8369701987210297e-16,-1,1,-1.8369701987210297e-16,1125,700)" style="opacity: 1;"></path><path  d="M 1130 440 L 1130 700" id="v-323" fill="none" style="cursor: default;"></path><g ><g id="v-313"  label-idx="0" cursor="move" transform="matrix(1,0,0,1,1130,556.5999755859375)" style="cursor: default; opacity: 1;"><rect joint-selector="rect" id="v-317" fill="#ffffff" rx="3" ry="3" pointer-events="none" width="121.03192901611328" height="89.30504608154297" transform="matrix(1,0,0,1,-60.5,-44.6)"></rect><text joint-selector="text" id="v-316" font-size="24px" xml:space="preserve" y="0.8em" fill="#000000" text-anchor="middle" pointer-events="none" font-family="Open Sans, Tahoma, Arial" font-weight="normal" transform="matrix(1,0,0,1,0,-38.8)"><tspan dy="0" >Forwards</tspan><tspan dy="1.2em" x="0" >authorized</tspan><tspan dy="1.2em" x="0" >requests</tspan></text></g><g id="v-314"  label-idx="1" cursor="move" transform="matrix(1,0,0,1,1130,615.7999877929688)" style="cursor: default; opacity: 1;"><rect joint-selector="rect" id="v-319" fill="#ffffff" rx="3" ry="3"  pointer-events="none" width="83.66899108886719" height="23.361613273620605" transform="matrix(1,0,0,1,-41.8,-11.7)" style="display: block;"></rect><text joint-selector="text" id="v-318" font-size="16.799999999999997px" xml:space="preserve" y="0.8em" fill="#000000" text-anchor="middle" pointer-events="none"  font-family="Open Sans, Tahoma, Arial" font-weight="normal" transform="matrix(1,0,0,1,0,-6.8)" style="display: block;"><tspan dy="0" >[9115 TCP]</tspan></text></g><g id="v-315"  label-idx="2" cursor="move" transform="matrix(1,0,0,1,1120,624.2000122070312)" style="cursor: default; opacity: 1;"><rect joint-selector="rect" id="v-321" fill="#ffffff" rx="3" ry="3"  width="0" height="0" transform="matrix(1,0,0,1,0,0)" display="none"></rect><text joint-selector="text" id="v-320" fill="#000000" font-size="14" text-anchor="middle" pointer-events="none"></text></g></g><g  display="none"></g><g  id="v-326" display="none"><g  id="v-311"><path  end="source" d="M 26 0 L 0 13 L 26 26 z"></path></g><g  id="v-312"><path  end="target" d="M 26 0 L 0 13 L 26 26 z"></path></g></g><g  id="v-325" display="none"><g  id="v-310" transform="translate(1130, 480) "><g  event="remove"><circle r="11"></circle><path transform="scale(.8) translate(-16, -16)" d="M24.778,21.419 19.276,15.917 24.777,10.415 21.949,7.585 16.447,13.087 10.945,7.585 8.117,10.415 13.618,15.917 8.116,21.419 10.946,24.248 16.447,18.746 21.948,24.248z"></path><title>Remove link.</title></g><g  event="link:options"><circle r="11" transform="translate(25)"></circle><path fill="white" transform="scale(.55) translate(29, -16)" d="M31.229,17.736c0.064-0.571,0.104-1.148,0.104-1.736s-0.04-1.166-0.104-1.737l-4.377-1.557c-0.218-0.716-0.504-1.401-0.851-2.05l1.993-4.192c-0.725-0.91-1.549-1.734-2.458-2.459l-4.193,1.994c-0.647-0.347-1.334-0.632-2.049-0.849l-1.558-4.378C17.165,0.708,16.588,0.667,16,0.667s-1.166,0.041-1.737,0.105L12.707,5.15c-0.716,0.217-1.401,0.502-2.05,0.849L6.464,4.005C5.554,4.73,4.73,5.554,4.005,6.464l1.994,4.192c-0.347,0.648-0.632,1.334-0.849,2.05l-4.378,1.557C0.708,14.834,0.667,15.412,0.667,16s0.041,1.165,0.105,1.736l4.378,1.558c0.217,0.715,0.502,1.401,0.849,2.049l-1.994,4.193c0.725,0.909,1.549,1.733,2.459,2.458l4.192-1.993c0.648,0.347,1.334,0.633,2.05,0.851l1.557,4.377c0.571,0.064,1.148,0.104,1.737,0.104c0.588,0,1.165-0.04,1.736-0.104l1.558-4.377c0.715-0.218,1.399-0.504,2.049-0.851l4.193,1.993c0.909-0.725,1.733-1.549,2.458-2.458l-1.993-4.193c0.347-0.647,0.633-1.334,0.851-2.049L31.229,17.736zM16,20.871c-2.69,0-4.872-2.182-4.872-4.871c0-2.69,2.182-4.872,4.872-4.872c2.689,0,4.871,2.182,4.871,4.872C20.871,18.689,18.689,20.871,16,20.871z"></path><title>Link options.</title></g></g></g></g><!--z-index:121--><g   id="j_35" ><path  stroke="#000000" d="M 1355 417 L 1671 595 C 1677 598.3333333333333 1682 602.6666666666666 1686 608 L 1849 850" id="v-343" stroke-width="1" stroke-dasharray="" fill="none" style="opacity: 1;"></path><path  fill="black" stroke="black" d="M 0 0 0 0" transform="matrix(0.8711542906146547,0.49100937052532695,-0.49100937052532695,0.8711542906146547,1355,416.82000732421875)"></path><path  fill="#000000" stroke="#000000" d="M 10 0 L 0 5 L 10 10 z" id="v-345" transform="matrix(-0.5594728283067668,-0.8288486920942972,0.8288486920942972,-0.5594728283067668,1844.6057573998123,852.7973815277866)" style="opacity: 1;"></path><path  d="M 1355 417 L 1671 595 C 1677 598.3333333333333 1682 602.6666666666666 1686 608 L 1849 850" id="v-344" fill="none" style="cursor: default;"></path><g ><g id="v-334"  label-idx="0" cursor="move" transform="matrix(1,0,0,1,1648.820556640625,569.1065063476562)" style="cursor: default; opacity: 1;"><rect joint-selector="rect" id="v-338" fill="#ffffff" rx="3" ry="3" pointer-events="none" width="196.0706787109375" height="60.505043029785156" transform="matrix(1,0,0,1,-98,-30.2)"></rect><text joint-selector="text" id="v-337" font-size="24px" xml:space="preserve" y="0.8em" fill="#000000" text-anchor="middle" pointer-events="none" font-family="Open Sans, Tahoma, Arial" font-weight="normal" transform="matrix(1,0,0,1,0,-24.4)"><tspan dy="0" >Performs request</tspan><tspan dy="1.2em" x="0" >authorization</tspan></text></g><g id="v-335"  label-idx="1" cursor="move" transform="matrix(1,0,0,1,1648.820556640625,613.906494140625)" style="cursor: default; opacity: 1;"><rect joint-selector="rect" id="v-340" fill="#ffffff" rx="3" ry="3"  pointer-events="none" width="83.66899108886719" height="23.361613273620605" transform="matrix(1,0,0,1,-41.8,-11.7)" style="display: block;"></rect><text joint-selector="text" id="v-339" font-size="16.799999999999997px" xml:space="preserve" y="0.8em" fill="#000000" text-anchor="middle" pointer-events="none"  font-family="Open Sans, Tahoma, Arial" font-weight="normal" transform="matrix(1,0,0,1,0,-6.8)" style="display: block;"><tspan dy="0" >[6443 TCP]</tspan></text></g><g id="v-336"  label-idx="2" cursor="move" transform="matrix(1,0,0,1,1638.820556640625,622.3065185546875)" style="cursor: default; opacity: 1;"><rect joint-selector="rect" id="v-342" fill="#ffffff" rx="3" ry="3"  width="0" height="0" transform="matrix(1,0,0,1,0,0)" display="none"></rect><text joint-selector="text" id="v-341" fill="#000000" font-size="14" text-anchor="middle" pointer-events="none"></text></g></g><g  display="none"><g  transform="translate(1680, 600)" id="v-331"><circle  idx="0" r="10"></circle><path  idx="0" d="M16,5.333c-7.732,0-14,4.701-14,10.5c0,1.982,0.741,3.833,2.016,5.414L2,25.667l5.613-1.441c2.339,1.317,5.237,2.107,8.387,2.107c7.732,0,14-4.701,14-10.5C30,10.034,23.732,5.333,16,5.333z" transform="translate(5, -33)"></path><path  idx="0" transform="scale(.8) translate(9.5, -37)" d="M24.778,21.419 19.276,15.917 24.777,10.415 21.949,7.585 16.447,13.087 10.945,7.585 8.117,10.415 13.618,15.917 8.116,21.419 10.946,24.248 16.447,18.746 21.948,24.248z"><title>Remove vertex.</title></path></g></g><g  id="v-347" display="none"><g  id="v-332"><path  end="source" d="M 26 0 L 0 13 L 26 26 z"></path></g><g  id="v-333"><path  end="target" d="M 26 0 L 0 13 L 26 26 z"></path></g></g><g  id="v-346" display="none"><g  id="v-330" transform="translate(1389.8512336096055, 436.6313910838917) "><g  event="remove"><circle r="11"></circle><path transform="scale(.8) translate(-16, -16)" d="M24.778,21.419 19.276,15.917 24.777,10.415 21.949,7.585 16.447,13.087 10.945,7.585 8.117,10.415 13.618,15.917 8.116,21.419 10.946,24.248 16.447,18.746 21.948,24.248z"></path><title>Remove link.</title></g><g  event="link:options"><circle r="11" transform="translate(25)"></circle><path fill="white" transform="scale(.55) translate(29, -16)" d="M31.229,17.736c0.064-0.571,0.104-1.148,0.104-1.736s-0.04-1.166-0.104-1.737l-4.377-1.557c-0.218-0.716-0.504-1.401-0.851-2.05l1.993-4.192c-0.725-0.91-1.549-1.734-2.458-2.459l-4.193,1.994c-0.647-0.347-1.334-0.632-2.049-0.849l-1.558-4.378C17.165,0.708,16.588,0.667,16,0.667s-1.166,0.041-1.737,0.105L12.707,5.15c-0.716,0.217-1.401,0.502-2.05,0.849L6.464,4.005C5.554,4.73,4.73,5.554,4.005,6.464l1.994,4.192c-0.347,0.648-0.632,1.334-0.849,2.05l-4.378,1.557C0.708,14.834,0.667,15.412,0.667,16s0.041,1.165,0.105,1.736l4.378,1.558c0.217,0.715,0.502,1.401,0.849,2.049l-1.994,4.193c0.725,0.909,1.549,1.733,2.459,2.458l4.192-1.993c0.648,0.347,1.334,0.633,2.05,0.851l1.557,4.377c0.571,0.064,1.148,0.104,1.737,0.104c0.588,0,1.165-0.04,1.736-0.104l1.558-4.377c0.715-0.218,1.399-0.504,2.049-0.851l4.193,1.993c0.909-0.725,1.733-1.549,2.458-2.458l-1.993-4.193c0.347-0.647,0.633-1.334,0.851-2.049L31.229,17.736zM16,20.871c-2.69,0-4.872-2.182-4.872-4.871c0-2.69,2.182-4.872,4.872-4.872c2.689,0,4.871,2.182,4.871,4.872C20.871,18.689,18.689,20.871,16,20.871z"></path><title>Link options.</title></g></g></g></g><!--z-index:122--><g   id="j_36" ><path  stroke="#000000" d="M 1355 920 L 1520 972 C 1526.6666666666665 974 1533.3333333333333 975.3333333333333 1540 976 L 1725 987" id="v-364" stroke-width="1" stroke-dasharray="" fill="none" style="opacity: 1;"></path><path  fill="black" stroke="black" d="M 0 0 0 0" transform="matrix(0.9544760942414485,0.29828742099121347,-0.29828742099121347,0.9544760942414485,1355,920.3099975585938)"></path><path  fill="#000000" stroke="#000000" d="M 10 0 L 0 5 L 10 10 z" id="v-366" transform="matrix(-0.9982322765187586,-0.05943334178873709,0.05943334178873709,-0.9982322765187586,1724.7027837361502,991.6011332673187)" style="opacity: 1;"></path><path  d="M 1355 920 L 1520 972 C 1526.6666666666665 974 1533.3333333333333 975.3333333333333 1540 976 L 1725 987" id="v-365" fill="none" style="cursor: default;"></path><g ><g id="v-355"  label-idx="0" cursor="move" transform="matrix(1,0,0,1,1535.9765625,962.11669921875)" style="cursor: default; opacity: 1;"><rect joint-selector="rect" id="v-359" fill="#ffffff" rx="3" ry="3" pointer-events="none" width="177.40225219726562" height="60.505043029785156" transform="matrix(1,0,0,1,-88.7,-30.2)"></rect><text joint-selector="text" id="v-358" font-size="24px" xml:space="preserve" y="0.8em" fill="#000000" text-anchor="middle" pointer-events="none" font-family="Open Sans, Tahoma, Arial" font-weight="normal" transform="matrix(1,0,0,1,0,-24.4)"><tspan dy="0" >Watches for</tspan><tspan dy="1.2em" x="0" >FalcoAuditRules</tspan></text></g><g id="v-356"  label-idx="1" cursor="move" transform="matrix(1,0,0,1,1535.9765625,1006.9166870117188)" style="cursor: default; opacity: 1;"><rect joint-selector="rect" id="v-361" fill="#ffffff" rx="3" ry="3"  pointer-events="none" width="83.66899108886719" height="23.361613273620605" transform="matrix(1,0,0,1,-41.8,-11.7)" style="display: block;"></rect><text joint-selector="text" id="v-360" font-size="16.799999999999997px" xml:space="preserve" y="0.8em" fill="#000000" text-anchor="middle" pointer-events="none"  font-family="Open Sans, Tahoma, Arial" font-weight="normal" transform="matrix(1,0,0,1,0,-6.8)" style="display: block;"><tspan dy="0" >[6443 TCP]</tspan></text></g><g id="v-357"  label-idx="2" cursor="move" transform="matrix(1,0,0,1,1525.9765625,1015.3167114257812)" style="cursor: default; opacity: 1;"><rect joint-selector="rect" id="v-363" fill="#ffffff" rx="3" ry="3"  width="0" height="0" transform="matrix(1,0,0,1,0,0)" display="none"></rect><text joint-selector="text" id="v-362" fill="#000000" font-size="14" text-anchor="middle" pointer-events="none"></text></g></g><g  display="none"><g  transform="translate(1530, 975)" id="v-352"><circle  idx="0" r="10"></circle><path  idx="0" d="M16,5.333c-7.732,0-14,4.701-14,10.5c0,1.982,0.741,3.833,2.016,5.414L2,25.667l5.613-1.441c2.339,1.317,5.237,2.107,8.387,2.107c7.732,0,14-4.701,14-10.5C30,10.034,23.732,5.333,16,5.333z" transform="translate(5, -33)"></path><path  idx="0" transform="scale(.8) translate(9.5, -37)" d="M24.778,21.419 19.276,15.917 24.777,10.415 21.949,7.585 16.447,13.087 10.945,7.585 8.117,10.415 13.618,15.917 8.116,21.419 10.946,24.248 16.447,18.746 21.948,24.248z"><title>Remove vertex.</title></path></g></g><g  id="v-368" display="none"><g  id="v-353"><path  end="source" d="M 26 0 L 0 13 L 26 26 z"></path></g><g  id="v-354"><path  end="target" d="M 26 0 L 0 13 L 26 26 z"></path></g></g><g  id="v-367" display="none"><g  id="v-351" transform="translate(1393.150289017341, 932.0231213872833) "><g  event="remove"><circle r="11"></circle><path transform="scale(.8) translate(-16, -16)" d="M24.778,21.419 19.276,15.917 24.777,10.415 21.949,7.585 16.447,13.087 10.945,7.585 8.117,10.415 13.618,15.917 8.116,21.419 10.946,24.248 16.447,18.746 21.948,24.248z"></path><title>Remove link.</title></g><g  event="link:options"><circle r="11" transform="translate(25)"></circle><path fill="white" transform="scale(.55) translate(29, -16)" d="M31.229,17.736c0.064-0.571,0.104-1.148,0.104-1.736s-0.04-1.166-0.104-1.737l-4.377-1.557c-0.218-0.716-0.504-1.401-0.851-2.05l1.993-4.192c-0.725-0.91-1.549-1.734-2.458-2.459l-4.193,1.994c-0.647-0.347-1.334-0.632-2.049-0.849l-1.558-4.378C17.165,0.708,16.588,0.667,16,0.667s-1.166,0.041-1.737,0.105L12.707,5.15c-0.716,0.217-1.401,0.502-2.05,0.849L6.464,4.005C5.554,4.73,4.73,5.554,4.005,6.464l1.994,4.192c-0.347,0.648-0.632,1.334-0.849,2.05l-4.378,1.557C0.708,14.834,0.667,15.412,0.667,16s0.041,1.165,0.105,1.736l4.378,1.558c0.217,0.715,0.502,1.401,0.849,2.049l-1.994,4.193c0.725,0.909,1.549,1.733,2.459,2.458l4.192-1.993c0.648,0.347,1.334,0.633,2.05,0.851l1.557,4.377c0.571,0.064,1.148,0.104,1.737,0.104c0.588,0,1.165-0.04,1.736-0.104l1.558-4.377c0.715-0.218,1.399-0.504,2.049-0.851l4.193,1.993c0.909-0.725,1.733-1.549,2.458-2.458l-1.993-4.193c0.347-0.647,0.633-1.334,0.851-2.049L31.229,17.736zM16,20.871c-2.69,0-4.872-2.182-4.872-4.871c0-2.69,2.182-4.872,4.872-4.872c2.689,0,4.871,2.182,4.871,4.872C20.871,18.689,18.689,20.871,16,20.871z"></path><title>Link options.</title></g></g></g></g><!--z-index:123--><g   id="j_37" ><path  stroke="#000000" d="M 2503 850 L 2256 488 C 2252 482.66666666666663 2246.6666666666665 479.3333333333333 2240 478 L 1355 328" id="v-385" stroke-width="1" stroke-dasharray="" fill="none" style="opacity: 1;"></path><path  fill="black" stroke="black" d="M 0 0 0 0" transform="matrix(-0.5638353780315178,-0.8258871996102466,0.8258871996102466,-0.5638353780315178,2502.60009765625,850)"></path><path  fill="#000000" stroke="#000000" d="M 10 0 L 0 5 L 10 10 z" id="v-387" transform="matrix(0.9859140302535723,0.16725287725225593,-0.16725287725225593,0.9859140302535723,1355.836259664681,323.24042156598654)" style="opacity: 1;"></path><path  d="M 2503 850 L 2256 488 C 2252 482.66666666666663 2246.6666666666665 479.3333333333333 2240 478 L 1355 328" id="v-386" fill="none" style="cursor: default;"></path><g ><g id="v-376"  label-idx="0" cursor="move" transform="matrix(1,0,0,1,2023.0601806640625,427.8305358886719)" style="cursor: default; opacity: 1;"><rect joint-selector="rect" id="v-380" fill="#ffffff" rx="3" ry="3" pointer-events="none" width="175.91607666015625" height="31.705045700073242" transform="matrix(1,0,0,1,-88,-15.8)"></rect><text joint-selector="text" id="v-379" font-size="24px" xml:space="preserve" y="0.8em" fill="#000000" text-anchor="middle" pointer-events="none" font-family="Open Sans, Tahoma, Arial" font-weight="normal" transform="matrix(1,0,0,1,0,-10)"><tspan dy="0" >Collects metrics</tspan></text></g><g id="v-377"  label-idx="1" cursor="move" transform="matrix(1,0,0,1,2023.0601806640625,458.23052978515625)" style="cursor: default; opacity: 1;"><rect joint-selector="rect" id="v-382" fill="#ffffff" rx="3" ry="3"  pointer-events="none" width="83.66899108886719" height="23.361613273620605" transform="matrix(1,0,0,1,-41.8,-11.7)" style="display: block;"></rect><text joint-selector="text" id="v-381" font-size="16.799999999999997px" xml:space="preserve" y="0.8em" fill="#000000" text-anchor="middle" pointer-events="none"  font-family="Open Sans, Tahoma, Arial" font-weight="normal" transform="matrix(1,0,0,1,0,-6.8)" style="display: block;"><tspan dy="0" >[4212 TCP]</tspan></text></g><g id="v-378"  label-idx="2" cursor="move" transform="matrix(1,0,0,1,2013.0601806640625,466.6305236816406)" style="cursor: default; opacity: 1;"><rect joint-selector="rect" id="v-384" fill="#ffffff" rx="3" ry="3"  width="0" height="0" transform="matrix(1,0,0,1,0,0)" display="none"></rect><text joint-selector="text" id="v-383" fill="#000000" font-size="14" text-anchor="middle" pointer-events="none"></text></g></g><g  display="none"><g  transform="translate(2250, 480)" id="v-373"><circle  idx="0" r="10"></circle><path  idx="0" d="M16,5.333c-7.732,0-14,4.701-14,10.5c0,1.982,0.741,3.833,2.016,5.414L2,25.667l5.613-1.441c2.339,1.317,5.237,2.107,8.387,2.107c7.732,0,14-4.701,14-10.5C30,10.034,23.732,5.333,16,5.333z" transform="translate(5, -33)"></path><path  idx="0" transform="scale(.8) translate(9.5, -37)" d="M24.778,21.419 19.276,15.917 24.777,10.415 21.949,7.585 16.447,13.087 10.945,7.585 8.117,10.415 13.618,15.917 8.116,21.419 10.946,24.248 16.447,18.746 21.948,24.248z"><title>Remove vertex.</title></path></g></g><g  id="v-389" display="none"><g  id="v-374"><path  end="source" d="M 26 0 L 0 13 L 26 26 z"></path></g><g  id="v-375"><path  end="target" d="M 26 0 L 0 13 L 26 26 z"></path></g></g><g  id="v-388" display="none"><g  id="v-372" transform="translate(2480.455199486818, 816.9586324462678) "><g  event="remove"><circle r="11"></circle><path transform="scale(.8) translate(-16, -16)" d="M24.778,21.419 19.276,15.917 24.777,10.415 21.949,7.585 16.447,13.087 10.945,7.585 8.117,10.415 13.618,15.917 8.116,21.419 10.946,24.248 16.447,18.746 21.948,24.248z"></path><title>Remove link.</title></g><g  event="link:options"><circle r="11" transform="translate(25)"></circle><path fill="white" transform="scale(.55) translate(29, -16)" d="M31.229,17.736c0.064-0.571,0.104-1.148,0.104-1.736s-0.04-1.166-0.104-1.737l-4.377-1.557c-0.218-0.716-0.504-1.401-0.851-2.05l1.993-4.192c-0.725-0.91-1.549-1.734-2.458-2.459l-4.193,1.994c-0.647-0.347-1.334-0.632-2.049-0.849l-1.558-4.378C17.165,0.708,16.588,0.667,16,0.667s-1.166,0.041-1.737,0.105L12.707,5.15c-0.716,0.217-1.401,0.502-2.05,0.849L6.464,4.005C5.554,4.73,4.73,5.554,4.005,6.464l1.994,4.192c-0.347,0.648-0.632,1.334-0.849,2.05l-4.378,1.557C0.708,14.834,0.667,15.412,0.667,16s0.041,1.165,0.105,1.736l4.378,1.558c0.217,0.715,0.502,1.401,0.849,2.049l-1.994,4.193c0.725,0.909,1.549,1.733,2.459,2.458l4.192-1.993c0.648,0.347,1.334,0.633,2.05,0.851l1.557,4.377c0.571,0.064,1.148,0.104,1.737,0.104c0.588,0,1.165-0.04,1.736-0.104l1.558-4.377c0.715-0.218,1.399-0.504,2.049-0.851l4.193,1.993c0.909-0.725,1.733-1.549,2.458-2.458l-1.993-4.193c0.347-0.647,0.633-1.334,0.851-2.049L31.229,17.736zM16,20.871c-2.69,0-4.872-2.182-4.872-4.871c0-2.69,2.182-4.872,4.872-4.872c2.689,0,4.871,2.182,4.871,4.872C20.871,18.689,18.689,20.871,16,20.871z"></path><title>Link options.</title></g></g></g></g><!--z-index:124--><g   id="j_38" ><path  stroke="#000000" d="M 405 700 L 405 440" id="v-405" stroke-width="1" stroke-dasharray="" fill="none" style="opacity: 1;"></path><path  fill="black" stroke="black" d="M 0 0 0 0" transform="matrix(-1.8369701987210297e-16,-1,1,-1.8369701987210297e-16,405,700)"></path><path  fill="#000000" stroke="#000000" d="M 10 0 L 0 5 L 10 10 z" id="v-407" transform="matrix(6.123233995736766e-17,1,-1,6.123233995736766e-17,409.99999999999994,440)" style="opacity: 1;"></path><path  d="M 405 700 L 405 440" id="v-406" fill="none" style="cursor: default;"></path><g ><g id="v-396"  label-idx="0" cursor="move" transform="matrix(1,0,0,1,405,556.5999755859375)" style="cursor: default; opacity: 1;"><rect joint-selector="rect" id="v-400" fill="#ffffff" rx="3" ry="3" pointer-events="none" width="131.40907287597656" height="60.505043029785156" transform="matrix(1,0,0,1,-65.7,-30.2)"></rect><text joint-selector="text" id="v-399" font-size="24px" xml:space="preserve" y="0.8em" fill="#000000" text-anchor="middle" pointer-events="none" font-family="Open Sans, Tahoma, Arial" font-weight="normal" transform="matrix(1,0,0,1,0,-24.4)"><tspan dy="0" >Sends Falco</tspan><tspan dy="1.2em" x="0" >events</tspan></text></g><g id="v-397"  label-idx="1" cursor="move" transform="matrix(1,0,0,1,405,601.4000244140625)" style="cursor: default; opacity: 1;"><rect joint-selector="rect" id="v-402" fill="#ffffff" rx="3" ry="3"  pointer-events="none" width="83.66899108886719" height="23.361613273620605" transform="matrix(1,0,0,1,-41.8,-11.7)" style="display: block;"></rect><text joint-selector="text" id="v-401" font-size="16.799999999999997px" xml:space="preserve" y="0.8em" fill="#000000" text-anchor="middle" pointer-events="none"  font-family="Open Sans, Tahoma, Arial" font-weight="normal" transform="matrix(1,0,0,1,0,-6.8)" style="display: block;"><tspan dy="0" >[2801 TCP]</tspan></text></g><g id="v-398"  label-idx="2" cursor="move" transform="matrix(1,0,0,1,395,609.7999877929688)" style="cursor: default; opacity: 1;"><rect joint-selector="rect" id="v-404" fill="#ffffff" rx="3" ry="3"  width="0" height="0" transform="matrix(1,0,0,1,0,0)" display="none"></rect><text joint-selector="text" id="v-403" fill="#000000" font-size="14" text-anchor="middle" pointer-events="none"></text></g></g><g  display="none"></g><g  id="v-409" display="none"><g  id="v-394"><path  end="source" d="M 26 0 L 0 13 L 26 26 z"></path></g><g  id="v-395"><path  end="target" d="M 26 0 L 0 13 L 26 26 z"></path></g></g><g  id="v-408" display="none"><g  id="v-393" transform="translate(405, 660) "><g  event="remove"><circle r="11"></circle><path transform="scale(.8) translate(-16, -16)" d="M24.778,21.419 19.276,15.917 24.777,10.415 21.949,7.585 16.447,13.087 10.945,7.585 8.117,10.415 13.618,15.917 8.116,21.419 10.946,24.248 16.447,18.746 21.948,24.248z"></path><title>Remove link.</title></g><g  event="link:options"><circle r="11" transform="translate(25)"></circle><path fill="white" transform="scale(.55) translate(29, -16)" d="M31.229,17.736c0.064-0.571,0.104-1.148,0.104-1.736s-0.04-1.166-0.104-1.737l-4.377-1.557c-0.218-0.716-0.504-1.401-0.851-2.05l1.993-4.192c-0.725-0.91-1.549-1.734-2.458-2.459l-4.193,1.994c-0.647-0.347-1.334-0.632-2.049-0.849l-1.558-4.378C17.165,0.708,16.588,0.667,16,0.667s-1.166,0.041-1.737,0.105L12.707,5.15c-0.716,0.217-1.401,0.502-2.05,0.849L6.464,4.005C5.554,4.73,4.73,5.554,4.005,6.464l1.994,4.192c-0.347,0.648-0.632,1.334-0.849,2.05l-4.378,1.557C0.708,14.834,0.667,15.412,0.667,16s0.041,1.165,0.105,1.736l4.378,1.558c0.217,0.715,0.502,1.401,0.849,2.049l-1.994,4.193c0.725,0.909,1.549,1.733,2.459,2.458l4.192-1.993c0.648,0.347,1.334,0.633,2.05,0.851l1.557,4.377c0.571,0.064,1.148,0.104,1.737,0.104c0.588,0,1.165-0.04,1.736-0.104l1.558-4.377c0.715-0.218,1.399-0.504,2.049-0.851l4.193,1.993c0.909-0.725,1.733-1.549,2.458-2.458l-1.993-4.193c0.347-0.647,0.633-1.334,0.851-2.049L31.229,17.736zM16,20.871c-2.69,0-4.872-2.182-4.872-4.871c0-2.69,2.182-4.872,4.872-4.872c2.689,0,4.871,2.182,4.871,4.872C20.871,18.689,18.689,20.871,16,20.871z"></path><title>Link options.</title></g></g></g></g><!--z-index:125--><g   id="j_39" ><path  stroke="#000000" d="M 479 1000 L 596 1236 C 598.6666666666666 1242 603.3333333333333 1245.3333333333333 610 1246 L 905 1285" id="v-426" stroke-width="1" stroke-dasharray="" fill="none" style="opacity: 1;"></path><path  fill="black" stroke="black" d="M 0 0 0 0" transform="matrix(0.44266949930076266,0.8966848467487404,-0.8966848467487404,0.44266949930076266,479.04998779296875,1000)"></path><path  fill="#000000" stroke="#000000" d="M 10 0 L 0 5 L 10 10 z" id="v-428" transform="matrix(-0.991391768737053,-0.13092883899438487,0.13092883899438487,-0.991391768737053,904.3453444338696,1290.2369692495947)" style="opacity: 1;"></path><path  d="M 479 1000 L 596 1236 C 598.6666666666666 1242 603.3333333333333 1245.3333333333333 610 1246 L 905 1285" id="v-427" fill="none" style="cursor: default;"></path><g ><g id="v-417"  label-idx="0" cursor="move" transform="matrix(1,0,0,1,646.651611328125,1237.4454345703125)" style="cursor: default; opacity: 1;"><rect joint-selector="rect" id="v-421" fill="#ffffff" rx="3" ry="3" pointer-events="none" width="194.1151885986328" height="233.3050308227539" transform="matrix(1,0,0,1,-97.1,-116.6)"></rect><text joint-selector="text" id="v-420" font-size="24px" xml:space="preserve" y="0.8em" fill="#000000" text-anchor="middle" pointer-events="none" font-family="Open Sans, Tahoma, Arial" font-weight="normal" transform="matrix(1,0,0,1,0,-110.8)"><tspan dy="0" >Retrieves Pod,</tspan><tspan dy="1.2em" x="0" >Namespace,</tspan><tspan dy="1.2em" x="0" >Deployment,</tspan><tspan dy="1.2em" x="0" >ReplicaSet, Replic</tspan><tspan dy="1.2em" x="0" >ationController,</tspan><tspan dy="1.2em" x="0" >and Service</tspan><tspan dy="1.2em" x="0" >related to the</tspan><tspan dy="1.2em" x="0" >node</tspan></text></g><g id="v-418"  label-idx="1" cursor="move" transform="matrix(1,0,0,1,646.651611328125,1368.6455078125)" style="cursor: default; opacity: 1;"><rect joint-selector="rect" id="v-423" fill="#ffffff" rx="3" ry="3"  pointer-events="none" width="93.2639389038086" height="23.361613273620605" transform="matrix(1,0,0,1,-46.6,-11.7)" style="display: block;"></rect><text joint-selector="text" id="v-422" font-size="16.799999999999997px" xml:space="preserve" y="0.8em" fill="#000000" text-anchor="middle" pointer-events="none"  font-family="Open Sans, Tahoma, Arial" font-weight="normal" transform="matrix(1,0,0,1,0,-6.8)" style="display: block;"><tspan dy="0" >[45000 TCP]</tspan></text></g><g id="v-419"  label-idx="2" cursor="move" transform="matrix(1,0,0,1,636.651611328125,1377.04541015625)" style="cursor: default; opacity: 1;"><rect joint-selector="rect" id="v-425" fill="#ffffff" rx="3" ry="3"  width="0" height="0" transform="matrix(1,0,0,1,0,0)" display="none"></rect><text joint-selector="text" id="v-424" fill="#000000" font-size="14" text-anchor="middle" pointer-events="none"></text></g></g><g  display="none"><g  transform="translate(600, 1245)" id="v-414"><circle  idx="0" r="10"></circle><path  idx="0" d="M16,5.333c-7.732,0-14,4.701-14,10.5c0,1.982,0.741,3.833,2.016,5.414L2,25.667l5.613-1.441c2.339,1.317,5.237,2.107,8.387,2.107c7.732,0,14-4.701,14-10.5C30,10.034,23.732,5.333,16,5.333z" transform="translate(5, -33)"></path><path  idx="0" transform="scale(.8) translate(9.5, -37)" d="M24.778,21.419 19.276,15.917 24.777,10.415 21.949,7.585 16.447,13.087 10.945,7.585 8.117,10.415 13.618,15.917 8.116,21.419 10.946,24.248 16.447,18.746 21.948,24.248z"><title>Remove vertex.</title></path></g></g><g  id="v-430" display="none"><g  id="v-415"><path  end="source" d="M 26 0 L 0 13 L 26 26 z"></path></g><g  id="v-416"><path  end="target" d="M 26 0 L 0 13 L 26 26 z"></path></g></g><g  id="v-429" display="none"><g  id="v-413" transform="translate(496.76695722520606, 1035.8376231209284) "><g  event="remove"><circle r="11"></circle><path transform="scale(.8) translate(-16, -16)" d="M24.778,21.419 19.276,15.917 24.777,10.415 21.949,7.585 16.447,13.087 10.945,7.585 8.117,10.415 13.618,15.917 8.116,21.419 10.946,24.248 16.447,18.746 21.948,24.248z"></path><title>Remove link.</title></g><g  event="link:options"><circle r="11" transform="translate(25)"></circle><path fill="white" transform="scale(.55) translate(29, -16)" d="M31.229,17.736c0.064-0.571,0.104-1.148,0.104-1.736s-0.04-1.166-0.104-1.737l-4.377-1.557c-0.218-0.716-0.504-1.401-0.851-2.05l1.993-4.192c-0.725-0.91-1.549-1.734-2.458-2.459l-4.193,1.994c-0.647-0.347-1.334-0.632-2.049-0.849l-1.558-4.378C17.165,0.708,16.588,0.667,16,0.667s-1.166,0.041-1.737,0.105L12.707,5.15c-0.716,0.217-1.401,0.502-2.05,0.849L6.464,4.005C5.554,4.73,4.73,5.554,4.005,6.464l1.994,4.192c-0.347,0.648-0.632,1.334-0.849,2.05l-4.378,1.557C0.708,14.834,0.667,15.412,0.667,16s0.041,1.165,0.105,1.736l4.378,1.558c0.217,0.715,0.502,1.401,0.849,2.049l-1.994,4.193c0.725,0.909,1.549,1.733,2.459,2.458l4.192-1.993c0.648,0.347,1.334,0.633,2.05,0.851l1.557,4.377c0.571,0.064,1.148,0.104,1.737,0.104c0.588,0,1.165-0.04,1.736-0.104l1.558-4.377c0.715-0.218,1.399-0.504,2.049-0.851l4.193,1.993c0.909-0.725,1.733-1.549,2.458-2.458l-1.993-4.193c0.347-0.647,0.633-1.334,0.851-2.049L31.229,17.736zM16,20.871c-2.69,0-4.872-2.182-4.872-4.871c0-2.69,2.182-4.872,4.872-4.872c2.689,0,4.871,2.182,4.871,4.872C20.871,18.689,18.689,20.871,16,20.871z"></path><title>Link options.</title></g></g></g></g><!--z-index:126--><g   id="j_40" ><path  stroke="#000000" d="M 1355 1281 L 1515 1257 C 1521.6666666666665 1255.6666666666665 1528 1253.3333333333333 1534 1250 L 1725 1135" id="v-447" stroke-width="1" stroke-dasharray="" fill="none" style="opacity: 1;"></path><path  fill="black" stroke="black" d="M 0 0 0 0" transform="matrix(0.988661706029869,-0.1501600180810749,0.1501600180810749,0.988661706029869,1355,1280.8199462890625)"></path><path  fill="#000000" stroke="#000000" d="M 10 0 L 0 5 L 10 10 z" id="v-449" transform="matrix(-0.8574928911956577,0.5144958129556662,-0.5144958129556662,-0.8574928911956577,1727.572467934819,1139.287495156825)" style="opacity: 1;"></path><path  d="M 1355 1281 L 1515 1257 C 1521.6666666666665 1255.6666666666665 1528 1253.3333333333333 1534 1250 L 1725 1135" id="v-448" fill="none" style="cursor: default;"></path><g ><g id="v-438"  label-idx="0" cursor="move" transform="matrix(1,0,0,1,1551.4908447265625,1226.06884765625)" style="cursor: default; opacity: 1;"><rect joint-selector="rect" id="v-442" fill="#ffffff" rx="3" ry="3" pointer-events="none" width="194.1151885986328" height="175.7050552368164" transform="matrix(1,0,0,1,-97.1,-87.8)"></rect><text joint-selector="text" id="v-441" font-size="24px" xml:space="preserve" y="0.8em" fill="#000000" text-anchor="middle" pointer-events="none" font-family="Open Sans, Tahoma, Arial" font-weight="normal" transform="matrix(1,0,0,1,0,-82)"><tspan dy="0" >Retrieves Pod,</tspan><tspan dy="1.2em" x="0" >Namespace,</tspan><tspan dy="1.2em" x="0" >Deployment,</tspan><tspan dy="1.2em" x="0" >ReplicaSet, Replic</tspan><tspan dy="1.2em" x="0" >ationController,</tspan><tspan dy="1.2em" x="0" >and Service</tspan></text></g><g id="v-439"  label-idx="1" cursor="move" transform="matrix(1,0,0,1,1551.4908447265625,1328.4688720703125)" style="cursor: default; opacity: 1;"><rect joint-selector="rect" id="v-444" fill="#ffffff" rx="3" ry="3"  pointer-events="none" width="83.66899108886719" height="23.361613273620605" transform="matrix(1,0,0,1,-41.8,-11.7)" style="display: block;"></rect><text joint-selector="text" id="v-443" font-size="16.799999999999997px" xml:space="preserve" y="0.8em" fill="#000000" text-anchor="middle" pointer-events="none"  font-family="Open Sans, Tahoma, Arial" font-weight="normal" transform="matrix(1,0,0,1,0,-6.8)" style="display: block;"><tspan dy="0" >[6443 TCP]</tspan></text></g><g id="v-440"  label-idx="2" cursor="move" transform="matrix(1,0,0,1,1541.4908447265625,1336.868896484375)" style="cursor: default; opacity: 1;"><rect joint-selector="rect" id="v-446" fill="#ffffff" rx="3" ry="3"  width="0" height="0" transform="matrix(1,0,0,1,0,0)" display="none"></rect><text joint-selector="text" id="v-445" fill="#000000" font-size="14" text-anchor="middle" pointer-events="none"></text></g></g><g  display="none"><g  transform="translate(1525, 1255)" id="v-435"><circle  idx="0" r="10"></circle><path  idx="0" d="M16,5.333c-7.732,0-14,4.701-14,10.5c0,1.982,0.741,3.833,2.016,5.414L2,25.667l5.613-1.441c2.339,1.317,5.237,2.107,8.387,2.107c7.732,0,14-4.701,14-10.5C30,10.034,23.732,5.333,16,5.333z" transform="translate(5, -33)"></path><path  idx="0" transform="scale(.8) translate(9.5, -37)" d="M24.778,21.419 19.276,15.917 24.777,10.415 21.949,7.585 16.447,13.087 10.945,7.585 8.117,10.415 13.618,15.917 8.116,21.419 10.946,24.248 16.447,18.746 21.948,24.248z"><title>Remove vertex.</title></path></g></g><g  id="v-451" display="none"><g  id="v-436"><path  end="source" d="M 26 0 L 0 13 L 26 26 z"></path></g><g  id="v-437"><path  end="target" d="M 26 0 L 0 13 L 26 26 z"></path></g></g><g  id="v-450" display="none"><g  id="v-434" transform="translate(1394.5574541147319, 1275.0663818827902) "><g  event="remove"><circle r="11"></circle><path transform="scale(.8) translate(-16, -16)" d="M24.778,21.419 19.276,15.917 24.777,10.415 21.949,7.585 16.447,13.087 10.945,7.585 8.117,10.415 13.618,15.917 8.116,21.419 10.946,24.248 16.447,18.746 21.948,24.248z"></path><title>Remove link.</title></g><g  event="link:options"><circle r="11" transform="translate(25)"></circle><path fill="white" transform="scale(.55) translate(29, -16)" d="M31.229,17.736c0.064-0.571,0.104-1.148,0.104-1.736s-0.04-1.166-0.104-1.737l-4.377-1.557c-0.218-0.716-0.504-1.401-0.851-2.05l1.993-4.192c-0.725-0.91-1.549-1.734-2.458-2.459l-4.193,1.994c-0.647-0.347-1.334-0.632-2.049-0.849l-1.558-4.378C17.165,0.708,16.588,0.667,16,0.667s-1.166,0.041-1.737,0.105L12.707,5.15c-0.716,0.217-1.401,0.502-2.05,0.849L6.464,4.005C5.554,4.73,4.73,5.554,4.005,6.464l1.994,4.192c-0.347,0.648-0.632,1.334-0.849,2.05l-4.378,1.557C0.708,14.834,0.667,15.412,0.667,16s0.041,1.165,0.105,1.736l4.378,1.558c0.217,0.715,0.502,1.401,0.849,2.049l-1.994,4.193c0.725,0.909,1.549,1.733,2.459,2.458l4.192-1.993c0.648,0.347,1.334,0.633,2.05,0.851l1.557,4.377c0.571,0.064,1.148,0.104,1.737,0.104c0.588,0,1.165-0.04,1.736-0.104l1.558-4.377c0.715-0.218,1.399-0.504,2.049-0.851l4.193,1.993c0.909-0.725,1.733-1.549,2.458-2.458l-1.993-4.193c0.347-0.647,0.633-1.334,0.851-2.049L31.229,17.736zM16,20.871c-2.69,0-4.872-2.182-4.872-4.871c0-2.69,2.182-4.872,4.872-4.872c2.689,0,4.871,2.182,4.871,4.872C20.871,18.689,18.689,20.871,16,20.871z"></path><title>Link options.</title></g></g></g></g><!--z-index:127--><g   id="j_41" ><path  stroke="#000000" d="M 414 1000 L 464 1800 C 464.66666666666663 1806.6666666666665 467.3333333333333 1812.333333333333 472 1817 L 798 2108 C 802.6666666666666 2112.6666666666665 808.3333333333333 2115 815 2115 L 1535 2120 C 1541.6666666666665 2120 1547.6666666666665 2118 1553 2114 L 1733 1990" id="v-470" stroke-width="1" stroke-dasharray="" fill="none" style="opacity: 1;"></path><path  fill="black" stroke="black" d="M 0 0 0 0" transform="matrix(0.06237213304871485,0.9980529630330013,-0.9980529630330013,0.06237213304871485,414.3800048828125,1000)"></path><path  fill="#000000" stroke="#000000" d="M 10 0 L 0 5 L 10 10 z" id="v-472" transform="matrix(-0.8225636511440743,0.5686730517762643,-0.5686730517762643,-0.8225636511440743,1735.8833075380392,1994.1128367859014)" style="opacity: 1;"></path><path  d="M 414 1000 L 464 1800 C 464.66666666666663 1806.6666666666665 467.3333333333333 1812.333333333333 472 1817 L 798 2108 C 802.6666666666666 2112.6666666666665 808.3333333333333 2115 815 2115 L 1535 2120 C 1541.6666666666665 2120 1547.6666666666665 2118 1553 2114 L 1733 1990" id="v-471" fill="none" style="cursor: default;"></path><g ><g id="v-461"  label-idx="0" cursor="move" transform="matrix(1,0,0,1,462.7850646972656,1767.1610107421875)" style="cursor: default; opacity: 1;"><rect joint-selector="rect" id="v-465" fill="#ffffff" rx="3" ry="3" pointer-events="none" width="187.6750946044922" height="89.30504608154297" transform="matrix(1,0,0,1,-93.8,-44.6)"></rect><text joint-selector="text" id="v-464" font-size="24px" xml:space="preserve" y="0.8em" fill="#000000" text-anchor="middle" pointer-events="none" font-family="Open Sans, Tahoma, Arial" font-weight="normal" transform="matrix(1,0,0,1,0,-38.8)"><tspan dy="0" >Reads metadata,</tspan><tspan dy="1.2em" x="0" >subscribes to</tspan><tspan dy="1.2em" x="0" >events</tspan></text></g><g id="v-462"  label-idx="1" cursor="move" transform="matrix(1,0,0,1,462.7850646972656,1826.361083984375)" style="cursor: default; opacity: 1;"><rect joint-selector="rect" id="v-467" fill="#ffffff" rx="3" ry="3"  pointer-events="none" width="99.33900451660156" height="23.361613273620605" transform="matrix(1,0,0,1,-49.7,-11.7)" style="display: block;"></rect><text joint-selector="text" id="v-466" font-size="16.799999999999997px" xml:space="preserve" y="0.8em" fill="#000000" text-anchor="middle" pointer-events="none"  font-family="Open Sans, Tahoma, Arial" font-weight="normal" transform="matrix(1,0,0,1,0,-6.8)" style="display: block;"><tspan dy="0" >[unix socket]</tspan></text></g><g id="v-463"  label-idx="2" cursor="move" transform="matrix(1,0,0,1,452.7850646972656,1834.760986328125)" style="cursor: default; opacity: 1;"><rect joint-selector="rect" id="v-469" fill="#ffffff" rx="3" ry="3"  width="0" height="0" transform="matrix(1,0,0,1,0,0)" display="none"></rect><text joint-selector="text" id="v-468" fill="#000000" font-size="14" text-anchor="middle" pointer-events="none"></text></g></g><g  display="none"><g  transform="translate(465, 1810)" id="v-456"><circle  idx="0" r="10"></circle><path  idx="0" d="M16,5.333c-7.732,0-14,4.701-14,10.5c0,1.982,0.741,3.833,2.016,5.414L2,25.667l5.613-1.441c2.339,1.317,5.237,2.107,8.387,2.107c7.732,0,14-4.701,14-10.5C30,10.034,23.732,5.333,16,5.333z" transform="translate(5, -33)"></path><path  idx="0" transform="scale(.8) translate(9.5, -37)" d="M24.778,21.419 19.276,15.917 24.777,10.415 21.949,7.585 16.447,13.087 10.945,7.585 8.117,10.415 13.618,15.917 8.116,21.419 10.946,24.248 16.447,18.746 21.948,24.248z"><title>Remove vertex.</title></path></g><g  transform="translate(805, 2115)" id="v-457"><circle  idx="1" r="10"></circle><path  idx="1" d="M16,5.333c-7.732,0-14,4.701-14,10.5c0,1.982,0.741,3.833,2.016,5.414L2,25.667l5.613-1.441c2.339,1.317,5.237,2.107,8.387,2.107c7.732,0,14-4.701,14-10.5C30,10.034,23.732,5.333,16,5.333z" transform="translate(5, -33)"></path><path  idx="1" transform="scale(.8) translate(9.5, -37)" d="M24.778,21.419 19.276,15.917 24.777,10.415 21.949,7.585 16.447,13.087 10.945,7.585 8.117,10.415 13.618,15.917 8.116,21.419 10.946,24.248 16.447,18.746 21.948,24.248z"><title>Remove vertex.</title></path></g><g  transform="translate(1545, 2120)" id="v-458"><circle  idx="2" r="10"></circle><path  idx="2" d="M16,5.333c-7.732,0-14,4.701-14,10.5c0,1.982,0.741,3.833,2.016,5.414L2,25.667l5.613-1.441c2.339,1.317,5.237,2.107,8.387,2.107c7.732,0,14-4.701,14-10.5C30,10.034,23.732,5.333,16,5.333z" transform="translate(5, -33)"></path><path  idx="2" transform="scale(.8) translate(9.5, -37)" d="M24.778,21.419 19.276,15.917 24.777,10.415 21.949,7.585 16.447,13.087 10.945,7.585 8.117,10.415 13.618,15.917 8.116,21.419 10.946,24.248 16.447,18.746 21.948,24.248z"><title>Remove vertex.</title></path></g></g><g  id="v-474" display="none"><g  id="v-459"><path  end="source" d="M 26 0 L 0 13 L 26 26 z"></path></g><g  id="v-460"><path  end="target" d="M 26 0 L 0 13 L 26 26 z"></path></g></g><g  id="v-473" display="none"><g  id="v-455" transform="translate(416.4951314462072, 1039.9221031393156) "><g  event="remove"><circle r="11"></circle><path transform="scale(.8) translate(-16, -16)" d="M24.778,21.419 19.276,15.917 24.777,10.415 21.949,7.585 16.447,13.087 10.945,7.585 8.117,10.415 13.618,15.917 8.116,21.419 10.946,24.248 16.447,18.746 21.948,24.248z"></path><title>Remove link.</title></g><g  event="link:options"><circle r="11" transform="translate(25)"></circle><path fill="white" transform="scale(.55) translate(29, -16)" d="M31.229,17.736c0.064-0.571,0.104-1.148,0.104-1.736s-0.04-1.166-0.104-1.737l-4.377-1.557c-0.218-0.716-0.504-1.401-0.851-2.05l1.993-4.192c-0.725-0.91-1.549-1.734-2.458-2.459l-4.193,1.994c-0.647-0.347-1.334-0.632-2.049-0.849l-1.558-4.378C17.165,0.708,16.588,0.667,16,0.667s-1.166,0.041-1.737,0.105L12.707,5.15c-0.716,0.217-1.401,0.502-2.05,0.849L6.464,4.005C5.554,4.73,4.73,5.554,4.005,6.464l1.994,4.192c-0.347,0.648-0.632,1.334-0.849,2.05l-4.378,1.557C0.708,14.834,0.667,15.412,0.667,16s0.041,1.165,0.105,1.736l4.378,1.558c0.217,0.715,0.502,1.401,0.849,2.049l-1.994,4.193c0.725,0.909,1.549,1.733,2.459,2.458l4.192-1.993c0.648,0.347,1.334,0.633,2.05,0.851l1.557,4.377c0.571,0.064,1.148,0.104,1.737,0.104c0.588,0,1.165-0.04,1.736-0.104l1.558-4.377c0.715-0.218,1.399-0.504,2.049-0.851l4.193,1.993c0.909-0.725,1.733-1.549,2.458-2.458l-1.993-4.193c0.347-0.647,0.633-1.334,0.851-2.049L31.229,17.736zM16,20.871c-2.69,0-4.872-2.182-4.872-4.871c0-2.69,2.182-4.872,4.872-4.872c2.689,0,4.871,2.182,4.871,4.872C20.871,18.689,18.689,20.871,16,20.871z"></path><title>Link options.</title></g></g></g></g><!--z-index:128--><g   id="j_42" ><path  stroke="#000000" d="M 1725 1031 L 1530 1059 C 1523.3333333333333 1059.6666666666665 1516.6666666666665 1059.6666666666665 1510 1059 L 765 1021 C 758.3333333333333 1020.3333333333333 752 1018.6666666666666 746 1016 L 630 959" id="v-492" stroke-width="1" stroke-dasharray="" fill="none" style="opacity: 1;"></path><path  fill="black" stroke="black" d="M 0 0 0 0" transform="matrix(-0.9904079634043425,0.13817404251617862,-0.13817404251617862,-0.9904079634043425,1725,1031.4000244140625)"></path><path  fill="#000000" stroke="#000000" d="M 10 0 L 0 5 L 10 10 z" id="v-494" transform="matrix(0.8995202775183495,0.4368790110926726,-0.4368790110926726,0.8995202775183495,632.1844132967778,954.79236879132)" style="opacity: 1;"></path><path  d="M 1725 1031 L 1530 1059 C 1523.3333333333333 1059.6666666666665 1516.6666666666665 1059.6666666666665 1510 1059 L 765 1021 C 758.3333333333333 1020.3333333333333 752 1018.6666666666666 746 1016 L 630 959" id="v-493" fill="none" style="cursor: default;"></path><g ><g id="v-483"  label-idx="0" cursor="move" transform="matrix(1,0,0,1,782.7991943359375,1008.5078735351562)" style="cursor: default; opacity: 1;"><rect joint-selector="rect" id="v-487" fill="#ffffff" rx="3" ry="3" pointer-events="none" width="131.04405212402344" height="60.505043029785156" transform="matrix(1,0,0,1,-65.5,-30.2)"></rect><text joint-selector="text" id="v-486" font-size="24px" xml:space="preserve" y="0.8em" fill="#000000" text-anchor="middle" pointer-events="none" font-family="Open Sans, Tahoma, Arial" font-weight="normal" transform="matrix(1,0,0,1,0,-24.4)"><tspan dy="0" >Sends audit</tspan><tspan dy="1.2em" x="0" >events</tspan></text></g><g id="v-484"  label-idx="1" cursor="move" transform="matrix(1,0,0,1,782.7991943359375,1053.307861328125)" style="cursor: default; opacity: 1;"><rect joint-selector="rect" id="v-489" fill="#ffffff" rx="3" ry="3"  pointer-events="none" width="83.66899108886719" height="23.361613273620605" transform="matrix(1,0,0,1,-41.8,-11.7)" style="display: block;"></rect><text joint-selector="text" id="v-488" font-size="16.799999999999997px" xml:space="preserve" y="0.8em" fill="#000000" text-anchor="middle" pointer-events="none"  font-family="Open Sans, Tahoma, Arial" font-weight="normal" transform="matrix(1,0,0,1,0,-6.8)" style="display: block;"><tspan dy="0" >[9765 TCP]</tspan></text></g><g id="v-485"  label-idx="2" cursor="move" transform="matrix(1,0,0,1,772.7991943359375,1061.7078857421875)" style="cursor: default; opacity: 1;"><rect joint-selector="rect" id="v-491" fill="#ffffff" rx="3" ry="3"  width="0" height="0" transform="matrix(1,0,0,1,0,0)" display="none"></rect><text joint-selector="text" id="v-490" fill="#000000" font-size="14" text-anchor="middle" pointer-events="none"></text></g></g><g  display="none"><g  transform="translate(1520, 1060)" id="v-479"><circle  idx="0" r="10"></circle><path  idx="0" d="M16,5.333c-7.732,0-14,4.701-14,10.5c0,1.982,0.741,3.833,2.016,5.414L2,25.667l5.613-1.441c2.339,1.317,5.237,2.107,8.387,2.107c7.732,0,14-4.701,14-10.5C30,10.034,23.732,5.333,16,5.333z" transform="translate(5, -33)"></path><path  idx="0" transform="scale(.8) translate(9.5, -37)" d="M24.778,21.419 19.276,15.917 24.777,10.415 21.949,7.585 16.447,13.087 10.945,7.585 8.117,10.415 13.618,15.917 8.116,21.419 10.946,24.248 16.447,18.746 21.948,24.248z"><title>Remove vertex.</title></path></g><g  transform="translate(755, 1020)" id="v-480"><circle  idx="1" r="10"></circle><path  idx="1" d="M16,5.333c-7.732,0-14,4.701-14,10.5c0,1.982,0.741,3.833,2.016,5.414L2,25.667l5.613-1.441c2.339,1.317,5.237,2.107,8.387,2.107c7.732,0,14-4.701,14-10.5C30,10.034,23.732,5.333,16,5.333z" transform="translate(5, -33)"></path><path  idx="1" transform="scale(.8) translate(9.5, -37)" d="M24.778,21.419 19.276,15.917 24.777,10.415 21.949,7.585 16.447,13.087 10.945,7.585 8.117,10.415 13.618,15.917 8.116,21.419 10.946,24.248 16.447,18.746 21.948,24.248z"><title>Remove vertex.</title></path></g></g><g  id="v-496" display="none"><g  id="v-481"><path  end="source" d="M 26 0 L 0 13 L 26 26 z"></path></g><g  id="v-482"><path  end="target" d="M 26 0 L 0 13 L 26 26 z"></path></g></g><g  id="v-495" display="none"><g  id="v-478" transform="translate(1685.4060913705584, 1036.6852791878173) "><g  event="remove"><circle r="11"></circle><path transform="scale(.8) translate(-16, -16)" d="M24.778,21.419 19.276,15.917 24.777,10.415 21.949,7.585 16.447,13.087 10.945,7.585 8.117,10.415 13.618,15.917 8.116,21.419 10.946,24.248 16.447,18.746 21.948,24.248z"></path><title>Remove link.</title></g><g  event="link:options"><circle r="11" transform="translate(25)"></circle><path fill="white" transform="scale(.55) translate(29, -16)" d="M31.229,17.736c0.064-0.571,0.104-1.148,0.104-1.736s-0.04-1.166-0.104-1.737l-4.377-1.557c-0.218-0.716-0.504-1.401-0.851-2.05l1.993-4.192c-0.725-0.91-1.549-1.734-2.458-2.459l-4.193,1.994c-0.647-0.347-1.334-0.632-2.049-0.849l-1.558-4.378C17.165,0.708,16.588,0.667,16,0.667s-1.166,0.041-1.737,0.105L12.707,5.15c-0.716,0.217-1.401,0.502-2.05,0.849L6.464,4.005C5.554,4.73,4.73,5.554,4.005,6.464l1.994,4.192c-0.347,0.648-0.632,1.334-0.849,2.05l-4.378,1.557C0.708,14.834,0.667,15.412,0.667,16s0.041,1.165,0.105,1.736l4.378,1.558c0.217,0.715,0.502,1.401,0.849,2.049l-1.994,4.193c0.725,0.909,1.549,1.733,2.459,2.458l4.192-1.993c0.648,0.347,1.334,0.633,2.05,0.851l1.557,4.377c0.571,0.064,1.148,0.104,1.737,0.104c0.588,0,1.165-0.04,1.736-0.104l1.558-4.377c0.715-0.218,1.399-0.504,2.049-0.851l4.193,1.993c0.909-0.725,1.733-1.549,2.458-2.458l-1.993-4.193c0.347-0.647,0.633-1.334,0.851-2.049L31.229,17.736zM16,20.871c-2.69,0-4.872-2.182-4.872-4.871c0-2.69,2.182-4.872,4.872-4.872c2.689,0,4.871,2.182,4.871,4.872C20.871,18.689,18.689,20.871,16,20.871z"></path><title>Link options.</title></g></g></g></g><!--z-index:129--></g><g ></g><g ></g><g ></g></g></svg>