<svg xmlns="http://www.w3.org/2000/svg" xmlns:xlink="http://www.w3.org/1999/xlink" version="1.1" viewBox="0 0 3010 2478" style="background: #ffffff"><defs joint-selector="defs"></defs><g joint-selector="layers"  transform="matrix(1,0,0,1,0,0)"><g ></g><g ><!--z-index:1--><!--z-index:2--><!--z-index:3--><!--z-index:4--><!--z-index:5--><!--z-index:6--><!--z-index:7--><!--z-index:8--><!--z-index:9--><!--z-index:10--><!--z-index:11--><!--z-index:12--><!--z-index:13--><!--z-index:14--><!--z-index:15--><!--z-index:16--><!--z-index:17--><!--z-index:18--><!--z-index:19--><!--z-index:20--><!--z-index:21--><!--z-index:22--><!--z-index:23--><!--z-index:24--><!--z-index:25--><!--z-index:26--><!--z-index:27--><!--z-index:28--><!--z-index:29--><!--z-index:30--><!--z-index:31--><!--z-index:32--><!--z-index:33--><!--z-index:34--><!--z-index:35--><!--z-index:36--><!--z-index:37--><!--z-index:38--><!--z-index:39--><!--z-index:40--><!--z-index:41--><!--z-index:42--><!--z-index:43--><!--z-index:44--><!--z-index:45--><!--z-index:46--><!--z-index:47--><!--z-index:48--><!--z-index:49--><!--z-index:50--><!--z-index:51--><!--z-index:52--><!--z-index:53--><!--z-index:54--><!--z-index:55--><!--z-index:56--><!--z-index:57--><!--z-index:58--><!--z-index:59--><!--z-index:60--><!--z-index:61--><!--z-index:62--><!--z-index:63--><!--z-index:64--><!--z-index:65--><!--z-index:66--><!--z-index:67--><!--z-index:68--><!--z-index:69--><!--z-index:70--><!--z-index:71--><!--z-index:72--><!--z-index:73--><!--z-index:74--><!--z-index:75--><!--z-index:76--><!--z-index:77--><!--z-index:78--><!--z-index:79--><!--z-index:80--><!--z-index:81--><!--z-index:82--><!--z-index:83--><!--z-index:84--><!--z-index:85--><!--z-index:86--><!--z-index:87--><!--z-index:88--><!--z-index:89--><!--z-index:90--><!--z-index:91--><!--z-index:92--><g   id="j_2"  transform="translate(20,2434)"><g id="v-5"><text  id="v-6" font-size="24px" xml:space="preserve" y="0.8em" font-weight="normal" text-anchor="start" fill="#444444" pointer-events="none" display="block" font-family="Open Sans, Tahoma, Arial"><tspan dy="0"  display="none">среда, 10 июня 2026 г. в 16:27 Екатеринбург, стандартное время</tspan></text></g></g><!--z-index:93--><g   id="j_1"  transform="translate(20,2388)"><g id="v-3"><text  id="v-4" font-size="36px" xml:space="preserve" y="0.8em" font-weight="normal" text-anchor="start" fill="#444444" pointer-events="none" display="block" font-family="Open Sans, Tahoma, Arial"><tspan dy="0"  display="none">L2: Module runtime-audit-engine</tspan></text></g></g><!--z-index:94--><g   id="j_5"  transform="translate(100,60)" style=""><g id="v-19"><rect  id="v-20" width="2810" height="2278" rx="20" ry="20" stroke-width="1" pointer-events="none" stroke="#004df2" fill="#ffffff" stroke-dasharray=""></rect><text  id="v-21" font-size="33.599999999999994px" xml:space="preserve" y="2239" font-weight="bold" text-anchor="start" pointer-events="visible" font-family="Open Sans, Tahoma, Arial" fill="#003ab5" transform="matrix(1,0,0,1,15,0)"><tspan dy="0" >Deckhouse Kubernetes Platform</tspan></text><text  id="v-22" font-size="16.799999999999997px" xml:space="preserve" y="2263" font-weight="normal" text-anchor="start" pointer-events="visible" font-family="Open Sans, Tahoma, Arial" fill="#003ab5" transform="matrix(1,0,0,1,15,0)"><tspan dy="0" >[Software System]</tspan></text><image  id="v-23" pointer-events="visible"></image></g></g><!--z-index:95--><g   id="j_4"  transform="translate(1665,790)" style=""><g id="v-14"><rect  id="v-15" width="570" height="1283" rx="20" ry="20" stroke-width="1" pointer-events="none" stroke="#325ebd" fill="#f6f9ff" stroke-dasharray="1,2"></rect><text  id="v-16" font-size="33.599999999999994px" xml:space="preserve" y="1268" font-weight="bold" text-anchor="start" pointer-events="visible" font-family="Open Sans, Tahoma, Arial" fill="#325ebd" transform="matrix(1,0,0,1,15,0)"><tspan dy="0" >Подсистема Kubernetes &amp; Scheduling</tspan></text><text  id="v-17" font-size="16.799999999999997px" xml:space="preserve" display="none" y="1268" font-weight="normal" text-anchor="start" pointer-events="visible" font-family="Open Sans, Tahoma, Arial" fill="#325ebd" transform="matrix(1,0,0,1,15,0)"><tspan dy="0" style="fill-opacity: 0; stroke-opacity: 0;" >-</tspan></text><image  id="v-18" pointer-events="visible"></image></g></g><!--z-index:96--><g   id="j_10"  transform="translate(2320,790)" style=""><g id="v-51"><rect  id="v-52" width="570" height="609" rx="20" ry="20" stroke-width="1" pointer-events="none" stroke="#325ebd" fill="#f6f9ff" stroke-dasharray="1,2"></rect><text  id="v-53" font-size="33.599999999999994px" xml:space="preserve" y="594" font-weight="bold" text-anchor="start" pointer-events="visible" font-family="Open Sans, Tahoma, Arial" fill="#325ebd" transform="matrix(1,0,0,1,15,0)"><tspan dy="0" >Подсистема Observability</tspan></text><text  id="v-54" font-size="16.799999999999997px" xml:space="preserve" display="none" y="594" font-weight="normal" text-anchor="start" pointer-events="visible" font-family="Open Sans, Tahoma, Arial" fill="#325ebd" transform="matrix(1,0,0,1,15,0)"><tspan dy="0" style="fill-opacity: 0; stroke-opacity: 0;" >-</tspan></text><image  id="v-55" pointer-events="visible"></image></g></g><!--z-index:97--><g   id="j_14"  transform="translate(120,80)" style=""><g id="v-76"><rect  id="v-77" width="1295" height="2159" rx="20" ry="20" stroke-width="1" pointer-events="none" stroke="#325ebd" fill="#f6f9ff" stroke-dasharray="1,2"></rect><text  id="v-78" font-size="33.599999999999994px" xml:space="preserve" y="2144" font-weight="bold" text-anchor="start" pointer-events="visible" font-family="Open Sans, Tahoma, Arial" fill="#325ebd" transform="matrix(1,0,0,1,15,0)"><tspan dy="0" >Подсистема Security</tspan></text><text  id="v-79" font-size="16.799999999999997px" xml:space="preserve" display="none" y="2144" font-weight="normal" text-anchor="start" pointer-events="visible" font-family="Open Sans, Tahoma, Arial" fill="#325ebd" transform="matrix(1,0,0,1,15,0)"><tspan dy="0" style="fill-opacity: 0; stroke-opacity: 0;" >-</tspan></text><image  id="v-80" pointer-events="visible"></image></g></g><!--z-index:98--><g   id="j_3"  transform="translate(1725,1690)" style=""><g  id="v-7" style="opacity: 1;"><rect  id="v-8" rx="20" ry="20" stroke-width="1" pointer-events="visiblePainted" fill="#efecff" stroke="#3f2cb4" stroke-dasharray="" width="450" height="300"></rect><text  id="v-9" font-size="33.599999999999994px" xml:space="preserve" y="101.30000000000001" font-weight="bold" text-anchor="middle" pointer-events="visible" font-family="Open Sans, Tahoma, Arial" fill="#3f2cb4" dominant-baseline="hanging" transform="matrix(1,0,0,1,225,0)"><tspan dy="0" >containerd</tspan></text><text  id="v-10" font-size="16.799999999999997px" xml:space="preserve" y="142.9" text-anchor="middle" font-family="Open Sans, Tahoma, Arial" fill="#3f2cb4" dominant-baseline="hanging" transform="matrix(1,0,0,1,225,0)" style="display: block;"><tspan dy="0" >[Container]</tspan></text><text  id="v-11" font-size="24px" xml:space="preserve" y="174.7" text-anchor="middle" font-family="Open Sans, Tahoma, Arial" fill="#3f2cb4" dominant-baseline="hanging" transform="matrix(1,0,0,1,225,0)" style="display: block;"><tspan dy="0" >Служба</tspan></text><g  id="v-12" color="#3f2cb4" transform="matrix(1,0,0,1,222.5,268)" display="none"><g ></g><g ></g><g ></g><g ></g></g><image  id="v-13"></image></g></g><!--z-index:99--><g   id="j_7"  transform="translate(1685,810)" style=""><g id="v-31"><rect  id="v-32" width="530" height="506" rx="20" ry="20" stroke-width="1" pointer-events="none" stroke="#325ebd" fill="#d8e4ff" stroke-dasharray="1,2"></rect><text  id="v-33" font-size="33.599999999999994px" xml:space="preserve" y="491" font-weight="bold" text-anchor="start" pointer-events="visible" font-family="Open Sans, Tahoma, Arial" fill="#325ebd" transform="matrix(1,0,0,1,15,0)"><tspan dy="0" >Сontrol plane Kubernetes-кластера</tspan></text><text  id="v-34" font-size="16.799999999999997px" xml:space="preserve" display="none" y="491" font-weight="normal" text-anchor="start" pointer-events="visible" font-family="Open Sans, Tahoma, Arial" fill="#325ebd" transform="matrix(1,0,0,1,15,0)"><tspan dy="0" style="fill-opacity: 0; stroke-opacity: 0;" >-</tspan></text><image  id="v-35" pointer-events="visible"></image></g></g><!--z-index:100--><g   id="j_11"  transform="translate(2340,810)" style=""><g id="v-56"><rect  id="v-57" width="530" height="506" rx="20" ry="20" stroke-width="1" pointer-events="none" stroke="#325ebd" fill="#d8e4ff" stroke-dasharray="1,2"></rect><text  id="v-58" font-size="33.599999999999994px" xml:space="preserve" y="491" font-weight="bold" text-anchor="start" pointer-events="visible" font-family="Open Sans, Tahoma, Arial" fill="#325ebd" transform="matrix(1,0,0,1,15,0)"><tspan dy="0" >Модуль prometheus</tspan></text><text  id="v-59" font-size="16.799999999999997px" xml:space="preserve" display="none" y="491" font-weight="normal" text-anchor="start" pointer-events="visible" font-family="Open Sans, Tahoma, Arial" fill="#325ebd" transform="matrix(1,0,0,1,15,0)"><tspan dy="0" style="fill-opacity: 0; stroke-opacity: 0;" >-</tspan></text><image  id="v-60" pointer-events="visible"></image></g></g><!--z-index:101--><g   id="j_15"  transform="translate(140,100)" style=""><g id="v-81"><rect  id="v-82" width="1255" height="2056" rx="20" ry="20" stroke-width="1" pointer-events="none" stroke="#325ebd" fill="#d8e4ff" stroke-dasharray="1,2"></rect><text  id="v-83" font-size="33.599999999999994px" xml:space="preserve" y="2041" font-weight="bold" text-anchor="start" pointer-events="visible" font-family="Open Sans, Tahoma, Arial" fill="#325ebd" transform="matrix(1,0,0,1,15,0)"><tspan dy="0" >Модуль runtime-audit-engine</tspan></text><text  id="v-84" font-size="16.799999999999997px" xml:space="preserve" display="none" y="2041" font-weight="normal" text-anchor="start" pointer-events="visible" font-family="Open Sans, Tahoma, Arial" fill="#325ebd" transform="matrix(1,0,0,1,15,0)"><tspan dy="0" style="fill-opacity: 0; stroke-opacity: 0;" >-</tspan></text><image  id="v-85" pointer-events="visible"></image></g></g><!--z-index:102--><g   id="j_8"  transform="translate(1705,830)" style=""><g id="v-36"><rect  id="v-37" width="490" height="403" rx="20" ry="20" stroke-width="1" pointer-events="none" stroke="#000000" fill="#ffffff" stroke-dasharray="1,2"></rect><text  id="v-38" font-size="33.599999999999994px" xml:space="preserve" y="388" font-weight="bold" text-anchor="start" pointer-events="visible" font-family="Open Sans, Tahoma, Arial" fill="#000000" transform="matrix(1,0,0,1,15,0)"><tspan dy="0" >kube-apiserver [pod]</tspan></text><text  id="v-39" font-size="16.799999999999997px" xml:space="preserve" display="none" y="388" font-weight="normal" text-anchor="start" pointer-events="visible" font-family="Open Sans, Tahoma, Arial" fill="#000000" transform="matrix(1,0,0,1,15,0)"><tspan dy="0" style="fill-opacity: 0; stroke-opacity: 0;" >-</tspan></text><image  id="v-40" pointer-events="visible"></image></g></g><!--z-index:103--><g   id="j_12"  transform="translate(2360,830)" style=""><g id="v-61"><rect  id="v-62" width="490" height="403" rx="20" ry="20" stroke-width="1" pointer-events="none" stroke="#000000" fill="#ffffff" stroke-dasharray="1,2"></rect><text  id="v-63" font-size="33.599999999999994px" xml:space="preserve" y="388" font-weight="bold" text-anchor="start" pointer-events="visible" font-family="Open Sans, Tahoma, Arial" fill="#000000" transform="matrix(1,0,0,1,15,0)"><tspan dy="0" >prometheus-main [pod]</tspan></text><text  id="v-64" font-size="16.799999999999997px" xml:space="preserve" display="none" y="388" font-weight="normal" text-anchor="start" pointer-events="visible" font-family="Open Sans, Tahoma, Arial" fill="#000000" transform="matrix(1,0,0,1,15,0)"><tspan dy="0" style="fill-opacity: 0; stroke-opacity: 0;" >-</tspan></text><image  id="v-65" pointer-events="visible"></image></g></g><!--z-index:104--><g   id="j_16"  transform="translate(885,1145)" style=""><g id="v-86"><rect  id="v-87" width="490" height="928" rx="20" ry="20" stroke-width="1" pointer-events="none" stroke="#000000" fill="#ffffff" stroke-dasharray="1,2"></rect><text  id="v-88" font-size="33.599999999999994px" xml:space="preserve" y="913" font-weight="bold" text-anchor="start" pointer-events="visible" font-family="Open Sans, Tahoma, Arial" fill="#000000" transform="matrix(1,0,0,1,15,0)"><tspan dy="0" >k8s-metacollector [pod]</tspan></text><text  id="v-89" font-size="16.799999999999997px" xml:space="preserve" display="none" y="913" font-weight="normal" text-anchor="start" pointer-events="visible" font-family="Open Sans, Tahoma, Arial" fill="#000000" transform="matrix(1,0,0,1,15,0)"><tspan dy="0" style="fill-opacity: 0; stroke-opacity: 0;" >-</tspan></text><image  id="v-90" pointer-events="visible"></image></g></g><!--z-index:105--><g   id="j_19"  transform="translate(160,120)" style=""><g id="v-108"><rect  id="v-109" width="1215" height="963" rx="20" ry="20" stroke-width="1" pointer-events="none" stroke="#000000" fill="#ffffff" stroke-dasharray="1,2"></rect><text  id="v-110" font-size="33.599999999999994px" xml:space="preserve" y="948" font-weight="bold" text-anchor="start" pointer-events="visible" font-family="Open Sans, Tahoma, Arial" fill="#000000" transform="matrix(1,0,0,1,15,0)"><tspan dy="0" >runtime-audit-engine [pod]</tspan></text><text  id="v-111" font-size="16.799999999999997px" xml:space="preserve" display="none" y="948" font-weight="normal" text-anchor="start" pointer-events="visible" font-family="Open Sans, Tahoma, Arial" fill="#000000" transform="matrix(1,0,0,1,15,0)"><tspan dy="0" style="fill-opacity: 0; stroke-opacity: 0;" >-</tspan></text><image  id="v-112" pointer-events="visible"></image></g></g><!--z-index:106--><g   id="j_6"  transform="translate(1725,850)" style=""><g  id="v-24" style="opacity: 1;"><rect  id="v-25" rx="20" ry="20" stroke-width="2" pointer-events="visiblePainted" fill="#e3ebff" stroke="#485d8e" stroke-dasharray="" width="450" height="300"></rect><text  id="v-26" font-size="33.599999999999994px" xml:space="preserve" y="120.80000000000001" font-weight="bold" text-anchor="middle" pointer-events="visible" font-family="Open Sans, Tahoma, Arial" fill="#000000" dominant-baseline="hanging" transform="matrix(1,0,0,1,225,0)"><tspan dy="0" >kube-apiserver</tspan></text><text  id="v-27" font-size="16.799999999999997px" xml:space="preserve" y="162.4" text-anchor="middle" font-family="Open Sans, Tahoma, Arial" fill="#000000" dominant-baseline="hanging" transform="matrix(1,0,0,1,225,0)" style="display: block;"><tspan dy="0" >[Container]</tspan></text><text  id="v-28" font-size="24px" xml:space="preserve" display="none" y="120.80000000000001" text-anchor="middle" font-family="Open Sans, Tahoma, Arial" fill="#000000" dominant-baseline="hanging" transform="matrix(1,0,0,1,225,0)" style="display: block;"><tspan dy="0"  style="fill-opacity: 0; stroke-opacity: 0;">-</tspan></text><g  id="v-29" color="#000000" transform="matrix(1,0,0,1,222.5,268)" display="none"><g ></g><g ></g><g ></g><g ></g></g><image  id="v-30"></image></g></g><!--z-index:107--><g   id="j_9"  transform="translate(2380,850)" style=""><g  id="v-44" style="opacity: 1;"><rect  id="v-45" rx="20" ry="20" stroke-width="2" pointer-events="visiblePainted" fill="#e3ebff" stroke="#485d8e" stroke-dasharray="" width="450" height="300"></rect><text  id="v-46" font-size="33.599999999999994px" xml:space="preserve" y="120.80000000000001" font-weight="bold" text-anchor="middle" pointer-events="visible" font-family="Open Sans, Tahoma, Arial" fill="#000000" dominant-baseline="hanging" transform="matrix(1,0,0,1,225,0)"><tspan dy="0" >prometheus (main)</tspan></text><text  id="v-47" font-size="16.799999999999997px" xml:space="preserve" y="162.4" text-anchor="middle" font-family="Open Sans, Tahoma, Arial" fill="#000000" dominant-baseline="hanging" transform="matrix(1,0,0,1,225,0)" style="display: block;"><tspan dy="0" >[Container]</tspan></text><text  id="v-48" font-size="24px" xml:space="preserve" display="none" y="120.80000000000001" text-anchor="middle" font-family="Open Sans, Tahoma, Arial" fill="#000000" dominant-baseline="hanging" transform="matrix(1,0,0,1,225,0)" style="display: block;"><tspan dy="0"  style="fill-opacity: 0; stroke-opacity: 0;">-</tspan></text><g  id="v-49" color="#000000" transform="matrix(1,0,0,1,222.5,268)" display="none"><g ></g><g ></g><g ></g><g ></g></g><image  id="v-50"></image></g></g><!--z-index:108--><g   id="j_13"  transform="translate(905,1165)" style=""><g  id="v-69" style="opacity: 1;"><rect  id="v-70" rx="20" ry="20" stroke-width="2" pointer-events="visiblePainted" fill="#e3ebff" stroke="#485d8e" stroke-dasharray="" width="450" height="300"></rect><text  id="v-71" font-size="33.599999999999994px" xml:space="preserve" y="120.80000000000001" font-weight="bold" text-anchor="middle" pointer-events="visible" font-family="Open Sans, Tahoma, Arial" fill="#000000" dominant-baseline="hanging" transform="matrix(1,0,0,1,225,0)"><tspan dy="0" >k8s-metacollector</tspan></text><text  id="v-72" font-size="16.799999999999997px" xml:space="preserve" y="162.4" text-anchor="middle" font-family="Open Sans, Tahoma, Arial" fill="#000000" dominant-baseline="hanging" transform="matrix(1,0,0,1,225,0)" style="display: block;"><tspan dy="0" >[Container]</tspan></text><text  id="v-73" font-size="24px" xml:space="preserve" display="none" y="120.80000000000001" text-anchor="middle" font-family="Open Sans, Tahoma, Arial" fill="#000000" dominant-baseline="hanging" transform="matrix(1,0,0,1,225,0)" style="display: block;"><tspan dy="0"  style="fill-opacity: 0; stroke-opacity: 0;">-</tspan></text><g  id="v-74" color="#000000" transform="matrix(1,0,0,1,222.5,268)" display="none"><g ></g><g ></g><g ></g><g ></g></g><image  id="v-75"></image></g></g><!--z-index:109--><g   id="j_17"  transform="translate(905,1690)" style=""><g  id="v-94" style="opacity: 1;"><rect  id="v-95" rx="20" ry="20" stroke-width="2" pointer-events="visiblePainted" fill="#e3ebff" stroke="#485d8e" stroke-dasharray="" width="450" height="300"></rect><text  id="v-96" font-size="33.599999999999994px" xml:space="preserve" y="100.64000000000001" font-weight="bold" text-anchor="middle" pointer-events="visible" font-family="Open Sans, Tahoma, Arial" fill="#000000" dominant-baseline="hanging" transform="matrix(1,0,0,1,225,0)"><tspan dy="0" >kube-rbac-proxy</tspan><tspan dy="1.2em" x="0" >(k8s-metacollector)</tspan></text><text  id="v-97" font-size="16.799999999999997px" xml:space="preserve" y="182.56" text-anchor="middle" font-family="Open Sans, Tahoma, Arial" fill="#000000" dominant-baseline="hanging" transform="matrix(1,0,0,1,225,0)" style="display: block;"><tspan dy="0" >[Container]</tspan></text><text  id="v-98" font-size="24px" xml:space="preserve" display="none" y="100.64000000000001" text-anchor="middle" font-family="Open Sans, Tahoma, Arial" fill="#000000" dominant-baseline="hanging" transform="matrix(1,0,0,1,225,0)" style="display: block;"><tspan dy="0"  style="fill-opacity: 0; stroke-opacity: 0;">-</tspan></text><g  id="v-99" color="#000000" transform="matrix(1,0,0,1,222.5,268)" display="none"><g ></g><g ></g><g ></g><g ></g></g><image  id="v-100"></image></g></g><!--z-index:110--><g   id="j_18"  transform="translate(180,700)" style=""><g  id="v-101" style="opacity: 1;"><rect  id="v-102" rx="20" ry="20" stroke-width="2" pointer-events="visiblePainted" fill="#e3ebff" stroke="#485d8e" stroke-dasharray="" width="450" height="300"></rect><text  id="v-103" font-size="33.599999999999994px" xml:space="preserve" y="120.80000000000001" font-weight="bold" text-anchor="middle" pointer-events="visible" font-family="Open Sans, Tahoma, Arial" fill="#000000" dominant-baseline="hanging" transform="matrix(1,0,0,1,225,0)"><tspan dy="0" >falco</tspan></text><text  id="v-104" font-size="16.799999999999997px" xml:space="preserve" y="162.4" text-anchor="middle" font-family="Open Sans, Tahoma, Arial" fill="#000000" dominant-baseline="hanging" transform="matrix(1,0,0,1,225,0)" style="display: block;"><tspan dy="0" >[Container]</tspan></text><text  id="v-105" font-size="24px" xml:space="preserve" display="none" y="120.80000000000001" text-anchor="middle" font-family="Open Sans, Tahoma, Arial" fill="#000000" dominant-baseline="hanging" transform="matrix(1,0,0,1,225,0)" style="display: block;"><tspan dy="0"  style="fill-opacity: 0; stroke-opacity: 0;">-</tspan></text><g  id="v-106" color="#000000" transform="matrix(1,0,0,1,222.5,268)" display="none"><g ></g><g ></g><g ></g><g ></g></g><image  id="v-107"></image></g></g><!--z-index:111--><g   id="j_20"  transform="translate(180,140)" style=""><g  id="v-113" style="opacity: 1;"><rect  id="v-114" rx="20" ry="20" stroke-width="2" pointer-events="visiblePainted" fill="#e3ebff" stroke="#485d8e" stroke-dasharray="" width="450" height="300"></rect><text  id="v-115" font-size="33.599999999999994px" xml:space="preserve" y="120.80000000000001" font-weight="bold" text-anchor="middle" pointer-events="visible" font-family="Open Sans, Tahoma, Arial" fill="#000000" dominant-baseline="hanging" transform="matrix(1,0,0,1,225,0)"><tspan dy="0" >falcosidekick</tspan></text><text  id="v-116" font-size="16.799999999999997px" xml:space="preserve" y="162.4" text-anchor="middle" font-family="Open Sans, Tahoma, Arial" fill="#000000" dominant-baseline="hanging" transform="matrix(1,0,0,1,225,0)" style="display: block;"><tspan dy="0" >[Container]</tspan></text><text  id="v-117" font-size="24px" xml:space="preserve" display="none" y="120.80000000000001" text-anchor="middle" font-family="Open Sans, Tahoma, Arial" fill="#000000" dominant-baseline="hanging" transform="matrix(1,0,0,1,225,0)" style="display: block;"><tspan dy="0"  style="fill-opacity: 0; stroke-opacity: 0;">-</tspan></text><g  id="v-118" color="#000000" transform="matrix(1,0,0,1,222.5,268)" display="none"><g ></g><g ></g><g ></g><g ></g></g><image  id="v-119"></image></g></g><!--z-index:112--><g   id="j_21"  transform="translate(905,700)" style=""><g  id="v-120" style="opacity: 1;"><rect  id="v-121" rx="20" ry="20" stroke-width="2" pointer-events="visiblePainted" fill="#e3ebff" stroke="#485d8e" stroke-dasharray="" width="450" height="300"></rect><text  id="v-122" font-size="33.599999999999994px" xml:space="preserve" y="120.80000000000001" font-weight="bold" text-anchor="middle" pointer-events="visible" font-family="Open Sans, Tahoma, Arial" fill="#000000" dominant-baseline="hanging" transform="matrix(1,0,0,1,225,0)"><tspan dy="0" >rules-loader</tspan></text><text  id="v-123" font-size="16.799999999999997px" xml:space="preserve" y="162.4" text-anchor="middle" font-family="Open Sans, Tahoma, Arial" fill="#000000" dominant-baseline="hanging" transform="matrix(1,0,0,1,225,0)" style="display: block;"><tspan dy="0" >[Container]</tspan></text><text  id="v-124" font-size="24px" xml:space="preserve" display="none" y="120.80000000000001" text-anchor="middle" font-family="Open Sans, Tahoma, Arial" fill="#000000" dominant-baseline="hanging" transform="matrix(1,0,0,1,225,0)" style="display: block;"><tspan dy="0"  style="fill-opacity: 0; stroke-opacity: 0;">-</tspan></text><g  id="v-125" color="#000000" transform="matrix(1,0,0,1,222.5,268)" display="none"><g ></g><g ></g><g ></g><g ></g></g><image  id="v-126"></image></g></g><!--z-index:113--><g   id="j_22"  transform="translate(905,140)" style=""><g  id="v-130" style="opacity: 1;"><rect  id="v-131" rx="20" ry="20" stroke-width="2" pointer-events="visiblePainted" fill="#e3ebff" stroke="#485d8e" stroke-dasharray="" width="450" height="300"></rect><text  id="v-132" font-size="33.599999999999994px" xml:space="preserve" y="100.64000000000001" font-weight="bold" text-anchor="middle" pointer-events="visible" font-family="Open Sans, Tahoma, Arial" fill="#000000" dominant-baseline="hanging" transform="matrix(1,0,0,1,225,0)"><tspan dy="0" >kube-rbac-proxy</tspan><tspan dy="1.2em" x="0" >(runtime-audit-engine)</tspan></text><text  id="v-133" font-size="16.799999999999997px" xml:space="preserve" y="182.56" text-anchor="middle" font-family="Open Sans, Tahoma, Arial" fill="#000000" dominant-baseline="hanging" transform="matrix(1,0,0,1,225,0)" style="display: block;"><tspan dy="0" >[Container]</tspan></text><text  id="v-134" font-size="24px" xml:space="preserve" display="none" y="100.64000000000001" text-anchor="middle" font-family="Open Sans, Tahoma, Arial" fill="#000000" dominant-baseline="hanging" transform="matrix(1,0,0,1,225,0)" style="display: block;"><tspan dy="0"  style="fill-opacity: 0; stroke-opacity: 0;">-</tspan></text><g  id="v-135" color="#000000" transform="matrix(1,0,0,1,222.5,268)" display="none"><g ></g><g ></g><g ></g><g ></g></g><image  id="v-136"></image></g></g><!--z-index:114--><g   id="j_23" ><path  stroke="#000000" d="M 1345 1690 L 1602 1511 C 1607.3333333333333 1507 1612 1502.3333333333333 1616 1497 L 1849 1150" id="v-153" stroke-width="1" stroke-dasharray="" fill="none" style="opacity: 1;"></path><path  fill="black" stroke="black" d="M 0 0 0 0" transform="matrix(0.820029106387678,-0.5723218191516255,0.5723218191516255,0.820029106387678,1344.9300537109375,1690)"></path><path  fill="#000000" stroke="#000000" d="M 10 0 L 0 5 L 10 10 z" id="v-155" transform="matrix(-0.5584851909931314,0.8295144913992554,-0.8295144913992554,-0.5584851909931314,1853.157527708837,1152.792436505782)" style="opacity: 1;"></path><path  d="M 1345 1690 L 1602 1511 C 1607.3333333333333 1507 1612 1502.3333333333333 1616 1497 L 1849 1150" id="v-154" fill="none" style="cursor: default;"></path><g ><g id="v-144"  label-idx="0" cursor="move" transform="matrix(1,0,0,1,1591.510009765625,1504.90625)" style="cursor: default; opacity: 1;"><rect joint-selector="rect" id="v-148" fill="#ffffff" rx="3" ry="3" pointer-events="none" width="145.2960662841797" height="90.26473236083984" transform="matrix(1,0,0,1,-72.6,-45.2)"></rect><text joint-selector="text" id="v-147" font-size="24px" xml:space="preserve" y="0.8em" fill="#000000" text-anchor="middle" pointer-events="none" font-family="Open Sans, Tahoma, Arial" font-weight="normal" transform="matrix(1,0,0,1,0,-38.7)"><tspan dy="0" >Выполняет</tspan><tspan dy="1.2em" x="0" >авторизацию</tspan><tspan dy="1.2em" x="0" >запросов</tspan></text></g><g id="v-145"  label-idx="1" cursor="move" transform="matrix(1,0,0,1,1591.510009765625,1564.106201171875)" style="cursor: default; opacity: 1;"><rect joint-selector="rect" id="v-150" fill="#ffffff" rx="3" ry="3"  pointer-events="none" width="83.72159576416016" height="22.16535186767578" transform="matrix(1,0,0,1,-41.9,-11.1)" style="display: block;"></rect><text joint-selector="text" id="v-149" font-size="16.799999999999997px" xml:space="preserve" y="0.8em" fill="#000000" text-anchor="middle" pointer-events="none"  font-family="Open Sans, Tahoma, Arial" font-weight="normal" transform="matrix(1,0,0,1,0,-7)" style="display: block;"><tspan dy="0" >[6443 TCP]</tspan></text></g><g id="v-146"  label-idx="2" cursor="move" transform="matrix(1,0,0,1,1581.510009765625,1572.5062255859375)" style="cursor: default; opacity: 1;"><rect joint-selector="rect" id="v-152" fill="#ffffff" rx="3" ry="3"  width="0" height="0" transform="matrix(1,0,0,1,0,0)" display="none"></rect><text joint-selector="text" id="v-151" fill="#000000" font-size="14" text-anchor="middle" pointer-events="none"></text></g></g><g  display="none"><g  transform="translate(1610, 1505)" id="v-720"><circle  idx="0" r="10"></circle><path  idx="0" d="M16,5.333c-7.732,0-14,4.701-14,10.5c0,1.982,0.741,3.833,2.016,5.414L2,25.667l5.613-1.441c2.339,1.317,5.237,2.107,8.387,2.107c7.732,0,14-4.701,14-10.5C30,10.034,23.732,5.333,16,5.333z" transform="translate(5, -33)"></path><path  idx="0" transform="scale(.8) translate(9.5, -37)" d="M24.778,21.419 19.276,15.917 24.777,10.415 21.949,7.585 16.447,13.087 10.945,7.585 8.117,10.415 13.618,15.917 8.116,21.419 10.946,24.248 16.447,18.746 21.948,24.248z"><title>Remove vertex.</title></path></g></g><g  id="v-157" display="none"><g  id="v-142"><path  end="source" d="M 26 0 L 0 13 L 26 26 z"></path></g><g  id="v-143"><path  end="target" d="M 26 0 L 0 13 L 26 26 z"></path></g></g><g  id="v-156" display="none"><g  id="v-140" transform="translate(1377.8231870281932, 1667.138714093204) "><g  event="remove"><circle r="11"></circle><path transform="scale(.8) translate(-16, -16)" d="M24.778,21.419 19.276,15.917 24.777,10.415 21.949,7.585 16.447,13.087 10.945,7.585 8.117,10.415 13.618,15.917 8.116,21.419 10.946,24.248 16.447,18.746 21.948,24.248z"></path><title>Remove link.</title></g><g  event="link:options"><circle r="11" transform="translate(25)"></circle><path fill="white" transform="scale(.55) translate(29, -16)" d="M31.229,17.736c0.064-0.571,0.104-1.148,0.104-1.736s-0.04-1.166-0.104-1.737l-4.377-1.557c-0.218-0.716-0.504-1.401-0.851-2.05l1.993-4.192c-0.725-0.91-1.549-1.734-2.458-2.459l-4.193,1.994c-0.647-0.347-1.334-0.632-2.049-0.849l-1.558-4.378C17.165,0.708,16.588,0.667,16,0.667s-1.166,0.041-1.737,0.105L12.707,5.15c-0.716,0.217-1.401,0.502-2.05,0.849L6.464,4.005C5.554,4.73,4.73,5.554,4.005,6.464l1.994,4.192c-0.347,0.648-0.632,1.334-0.849,2.05l-4.378,1.557C0.708,14.834,0.667,15.412,0.667,16s0.041,1.165,0.105,1.736l4.378,1.558c0.217,0.715,0.502,1.401,0.849,2.049l-1.994,4.193c0.725,0.909,1.549,1.733,2.459,2.458l4.192-1.993c0.648,0.347,1.334,0.633,2.05,0.851l1.557,4.377c0.571,0.064,1.148,0.104,1.737,0.104c0.588,0,1.165-0.04,1.736-0.104l1.558-4.377c0.715-0.218,1.399-0.504,2.049-0.851l4.193,1.993c0.909-0.725,1.733-1.549,2.458-2.458l-1.993-4.193c0.347-0.647,0.633-1.334,0.851-2.049L31.229,17.736zM16,20.871c-2.69,0-4.872-2.182-4.872-4.871c0-2.69,2.182-4.872,4.872-4.872c2.689,0,4.871,2.182,4.871,4.872C20.871,18.689,18.689,20.871,16,20.871z"></path><title>Link options.</title></g></g></g></g><!--z-index:115--><g   id="j_24" ><path  stroke="#000000" d="M 1130 1690 L 1130 1465" id="v-173" stroke-width="1" stroke-dasharray="" fill="none" style="opacity: 1;"></path><path  fill="black" stroke="black" d="M 0 0 0 0" transform="matrix(-1.8369701987210294e-16,-0.9999999999999999,0.9999999999999999,-1.8369701987210294e-16,1130,1690)"></path><path  fill="#000000" stroke="#000000" d="M 10 0 L 0 5 L 10 10 z" id="v-175" transform="matrix(6.123233995736765e-17,0.9999999999999999,-0.9999999999999999,6.123233995736765e-17,1135,1465)" style="opacity: 1;"></path><path  d="M 1130 1690 L 1130 1465" id="v-174" fill="none" style="cursor: default;"></path><g ><g id="v-164"  label-idx="0" cursor="move" transform="matrix(1,0,0,1,1130,1564.0999755859375)" style="cursor: default; opacity: 1;"><rect joint-selector="rect" id="v-168" fill="#ffffff" rx="3" ry="3" pointer-events="none" width="181.67933654785156" height="90.26473236083984" transform="matrix(1,0,0,1,-90.8,-45.2)"></rect><text joint-selector="text" id="v-167" font-size="24px" xml:space="preserve" y="0.8em" fill="#000000" text-anchor="middle" pointer-events="none" font-family="Open Sans, Tahoma, Arial" font-weight="normal" transform="matrix(1,0,0,1,0,-38.7)"><tspan dy="0" >Пересылает</tspan><tspan dy="1.2em" x="0" >авторизованные</tspan><tspan dy="1.2em" x="0" >запросы</tspan></text></g><g id="v-165"  label-idx="1" cursor="move" transform="matrix(1,0,0,1,1130,1623.300048828125)" style="cursor: default; opacity: 1;"><rect joint-selector="rect" id="v-170" fill="#ffffff" rx="3" ry="3"  pointer-events="none" width="83.72159576416016" height="22.16535186767578" transform="matrix(1,0,0,1,-41.9,-11.1)" style="display: block;"></rect><text joint-selector="text" id="v-169" font-size="16.799999999999997px" xml:space="preserve" y="0.8em" fill="#000000" text-anchor="middle" pointer-events="none"  font-family="Open Sans, Tahoma, Arial" font-weight="normal" transform="matrix(1,0,0,1,0,-7)" style="display: block;"><tspan dy="0" >[8080 TCP]</tspan></text></g><g id="v-166"  label-idx="2" cursor="move" transform="matrix(1,0,0,1,1120,1631.699951171875)" style="cursor: default; opacity: 1;"><rect joint-selector="rect" id="v-172" fill="#ffffff" rx="3" ry="3"  width="0" height="0" transform="matrix(1,0,0,1,0,0)" display="none"></rect><text joint-selector="text" id="v-171" fill="#000000" font-size="14" text-anchor="middle" pointer-events="none"></text></g></g><g  display="none"></g><g  id="v-177" display="none"><g  id="v-162"><path  end="source" d="M 26 0 L 0 13 L 26 26 z"></path></g><g  id="v-163"><path  end="target" d="M 26 0 L 0 13 L 26 26 z"></path></g></g><g  id="v-176" display="none"><g  id="v-161" transform="translate(1130, 1650) "><g  event="remove"><circle r="11"></circle><path transform="scale(.8) translate(-16, -16)" d="M24.778,21.419 19.276,15.917 24.777,10.415 21.949,7.585 16.447,13.087 10.945,7.585 8.117,10.415 13.618,15.917 8.116,21.419 10.946,24.248 16.447,18.746 21.948,24.248z"></path><title>Remove link.</title></g><g  event="link:options"><circle r="11" transform="translate(25)"></circle><path fill="white" transform="scale(.55) translate(29, -16)" d="M31.229,17.736c0.064-0.571,0.104-1.148,0.104-1.736s-0.04-1.166-0.104-1.737l-4.377-1.557c-0.218-0.716-0.504-1.401-0.851-2.05l1.993-4.192c-0.725-0.91-1.549-1.734-2.458-2.459l-4.193,1.994c-0.647-0.347-1.334-0.632-2.049-0.849l-1.558-4.378C17.165,0.708,16.588,0.667,16,0.667s-1.166,0.041-1.737,0.105L12.707,5.15c-0.716,0.217-1.401,0.502-2.05,0.849L6.464,4.005C5.554,4.73,4.73,5.554,4.005,6.464l1.994,4.192c-0.347,0.648-0.632,1.334-0.849,2.05l-4.378,1.557C0.708,14.834,0.667,15.412,0.667,16s0.041,1.165,0.105,1.736l4.378,1.558c0.217,0.715,0.502,1.401,0.849,2.049l-1.994,4.193c0.725,0.909,1.549,1.733,2.459,2.458l4.192-1.993c0.648,0.347,1.334,0.633,2.05,0.851l1.557,4.377c0.571,0.064,1.148,0.104,1.737,0.104c0.588,0,1.165-0.04,1.736-0.104l1.558-4.377c0.715-0.218,1.399-0.504,2.049-0.851l4.193,1.993c0.909-0.725,1.733-1.549,2.458-2.458l-1.993-4.193c0.347-0.647,0.633-1.334,0.851-2.049L31.229,17.736zM16,20.871c-2.69,0-4.872-2.182-4.872-4.871c0-2.69,2.182-4.872,4.872-4.872c2.689,0,4.871,2.182,4.871,4.872C20.871,18.689,18.689,20.871,16,20.871z"></path><title>Link options.</title></g></g></g></g><!--z-index:116--><g   id="j_25" ><path  stroke="#000000" d="M 2477 1150 L 2137 1547 C 2132.333333333333 1552.333333333333 2126.6666666666665 1555.9999999999998 2120 1558 L 1355 1776" id="v-194" stroke-width="1" stroke-dasharray="" fill="none" style="opacity: 1;"></path><path  fill="black" stroke="black" d="M 0 0 0 0" transform="matrix(-0.6502257453489682,0.7597410612079477,-0.7597410612079477,-0.6502257453489682,2476.6201171875,1150)"></path><path  fill="#000000" stroke="#000000" d="M 10 0 L 0 5 L 10 10 z" id="v-196" transform="matrix(0.9617035364439313,-0.2740917875297179,0.2740917875297179,0.9617035364439313,1353.6294950598192,1771.0714627398038)" style="opacity: 1;"></path><path  d="M 2477 1150 L 2137 1547 C 2132.333333333333 1552.333333333333 2126.6666666666665 1555.9999999999998 2120 1558 L 1355 1776" id="v-195" fill="none" style="cursor: default;"></path><g ><g id="v-185"  label-idx="0" cursor="move" transform="matrix(1,0,0,1,1998.708251953125,1579.1641845703125)" style="cursor: default; opacity: 1;"><rect joint-selector="rect" id="v-189" fill="#ffffff" rx="3" ry="3" pointer-events="none" width="103.86363220214844" height="61.46473503112793" transform="matrix(1,0,0,1,-51.9,-30.8)"></rect><text joint-selector="text" id="v-188" font-size="24px" xml:space="preserve" y="0.8em" fill="#000000" text-anchor="middle" pointer-events="none" font-family="Open Sans, Tahoma, Arial" font-weight="normal" transform="matrix(1,0,0,1,0,-24.3)"><tspan dy="0" >Собирает</tspan><tspan dy="1.2em" x="0" >метрики</tspan></text></g><g id="v-186"  label-idx="1" cursor="move" transform="matrix(1,0,0,1,1998.708251953125,1623.964111328125)" style="cursor: default; opacity: 1;"><rect joint-selector="rect" id="v-191" fill="#ffffff" rx="3" ry="3"  pointer-events="none" width="83.72159576416016" height="22.16535186767578" transform="matrix(1,0,0,1,-41.9,-11.1)" style="display: block;"></rect><text joint-selector="text" id="v-190" font-size="16.799999999999997px" xml:space="preserve" y="0.8em" fill="#000000" text-anchor="middle" pointer-events="none"  font-family="Open Sans, Tahoma, Arial" font-weight="normal" transform="matrix(1,0,0,1,0,-7)" style="display: block;"><tspan dy="0" >[8080 TCP]</tspan></text></g><g id="v-187"  label-idx="2" cursor="move" transform="matrix(1,0,0,1,1988.708251953125,1632.3641357421875)" style="cursor: default; opacity: 1;"><rect joint-selector="rect" id="v-193" fill="#ffffff" rx="3" ry="3"  width="0" height="0" transform="matrix(1,0,0,1,0,0)" display="none"></rect><text joint-selector="text" id="v-192" fill="#000000" font-size="14" text-anchor="middle" pointer-events="none"></text></g></g><g  display="none"><g  transform="translate(2130, 1555)" id="v-721"><circle  idx="0" r="10"></circle><path  idx="0" d="M16,5.333c-7.732,0-14,4.701-14,10.5c0,1.982,0.741,3.833,2.016,5.414L2,25.667l5.613-1.441c2.339,1.317,5.237,2.107,8.387,2.107c7.732,0,14-4.701,14-10.5C30,10.034,23.732,5.333,16,5.333z" transform="translate(5, -33)"></path><path  idx="0" transform="scale(.8) translate(9.5, -37)" d="M24.778,21.419 19.276,15.917 24.777,10.415 21.949,7.585 16.447,13.087 10.945,7.585 8.117,10.415 13.618,15.917 8.116,21.419 10.946,24.248 16.447,18.746 21.948,24.248z"><title>Remove vertex.</title></path></g></g><g  id="v-198" display="none"><g  id="v-183"><path  end="source" d="M 26 0 L 0 13 L 26 26 z"></path></g><g  id="v-184"><path  end="target" d="M 26 0 L 0 13 L 26 26 z"></path></g></g><g  id="v-197" display="none"><g  id="v-181" transform="translate(2450.9809516869354, 1180.3810652361371) "><g  event="remove"><circle r="11"></circle><path transform="scale(.8) translate(-16, -16)" d="M24.778,21.419 19.276,15.917 24.777,10.415 21.949,7.585 16.447,13.087 10.945,7.585 8.117,10.415 13.618,15.917 8.116,21.419 10.946,24.248 16.447,18.746 21.948,24.248z"></path><title>Remove link.</title></g><g  event="link:options"><circle r="11" transform="translate(25)"></circle><path fill="white" transform="scale(.55) translate(29, -16)" d="M31.229,17.736c0.064-0.571,0.104-1.148,0.104-1.736s-0.04-1.166-0.104-1.737l-4.377-1.557c-0.218-0.716-0.504-1.401-0.851-2.05l1.993-4.192c-0.725-0.91-1.549-1.734-2.458-2.459l-4.193,1.994c-0.647-0.347-1.334-0.632-2.049-0.849l-1.558-4.378C17.165,0.708,16.588,0.667,16,0.667s-1.166,0.041-1.737,0.105L12.707,5.15c-0.716,0.217-1.401,0.502-2.05,0.849L6.464,4.005C5.554,4.73,4.73,5.554,4.005,6.464l1.994,4.192c-0.347,0.648-0.632,1.334-0.849,2.05l-4.378,1.557C0.708,14.834,0.667,15.412,0.667,16s0.041,1.165,0.105,1.736l4.378,1.558c0.217,0.715,0.502,1.401,0.849,2.049l-1.994,4.193c0.725,0.909,1.549,1.733,2.459,2.458l4.192-1.993c0.648,0.347,1.334,0.633,2.05,0.851l1.557,4.377c0.571,0.064,1.148,0.104,1.737,0.104c0.588,0,1.165-0.04,1.736-0.104l1.558-4.377c0.715-0.218,1.399-0.504,2.049-0.851l4.193,1.993c0.909-0.725,1.733-1.549,2.458-2.458l-1.993-4.193c0.347-0.647,0.633-1.334,0.851-2.049L31.229,17.736zM16,20.871c-2.69,0-4.872-2.182-4.872-4.871c0-2.69,2.182-4.872,4.872-4.872c2.689,0,4.871,2.182,4.871,4.872C20.871,18.689,18.689,20.871,16,20.871z"></path><title>Link options.</title></g></g></g></g><!--z-index:117--><g   id="j_26" ><path  stroke="#000000" d="M 1725 888 L 1559 804 C 1553 801.3333333333333 1546.6666666666665 800.3333333333333 1540 801 L 1355 823" id="v-215" stroke-width="1" stroke-dasharray="" fill="none" style="opacity: 1;"></path><path  fill="black" stroke="black" d="M 0 0 0 0" transform="matrix(-0.8944272140983216,-0.4472135493031433,0.4472135493031433,-0.8944272140983216,1725,887.5)"></path><path  fill="#000000" stroke="#000000" d="M 10 0 L 0 5 L 10 10 z" id="v-217" transform="matrix(0.992990862964133,-0.11819114209510906,0.11819114209510906,0.992990862964133,1354.4090557950162,818.2450199503423)" style="opacity: 1;"></path><path  d="M 1725 888 L 1559 804 C 1553 801.3333333333333 1546.6666666666665 800.3333333333333 1540 801 L 1355 823" id="v-216" fill="none" style="cursor: default;"></path><g ><g id="v-206"  label-idx="0" cursor="move" transform="matrix(1,0,0,1,1549.5643310546875,787.8211669921875)" style="cursor: default; opacity: 1;"><rect joint-selector="rect" id="v-210" fill="#ffffff" rx="3" ry="3" pointer-events="none" width="177.39573669433594" height="90.26473236083984" transform="matrix(1,0,0,1,-88.7,-45.2)"></rect><text joint-selector="text" id="v-209" font-size="24px" xml:space="preserve" y="0.8em" fill="#000000" text-anchor="middle" pointer-events="none" font-family="Open Sans, Tahoma, Arial" font-weight="normal" transform="matrix(1,0,0,1,0,-38.7)"><tspan dy="0" >Валидирует</tspan><tspan dy="1.2em" x="0" >FalcoAuditRules</tspan><tspan dy="1.2em" x="0" >CR</tspan></text></g><g id="v-207"  label-idx="1" cursor="move" transform="matrix(1,0,0,1,1549.5643310546875,847.0211791992188)" style="cursor: default; opacity: 1;"><rect joint-selector="rect" id="v-212" fill="#ffffff" rx="3" ry="3"  pointer-events="none" width="83.72159576416016" height="22.16535186767578" transform="matrix(1,0,0,1,-41.9,-11.1)" style="display: block;"></rect><text joint-selector="text" id="v-211" font-size="16.799999999999997px" xml:space="preserve" y="0.8em" fill="#000000" text-anchor="middle" pointer-events="none"  font-family="Open Sans, Tahoma, Arial" font-weight="normal" transform="matrix(1,0,0,1,0,-7)" style="display: block;"><tspan dy="0" >[4227 TCP]</tspan></text></g><g id="v-208"  label-idx="2" cursor="move" transform="matrix(1,0,0,1,1539.5643310546875,855.4212036132812)" style="cursor: default; opacity: 1;"><rect joint-selector="rect" id="v-214" fill="#ffffff" rx="3" ry="3"  width="0" height="0" transform="matrix(1,0,0,1,0,0)" display="none"></rect><text joint-selector="text" id="v-213" fill="#000000" font-size="14" text-anchor="middle" pointer-events="none"></text></g></g><g  display="none"><g  transform="translate(1550, 800)" id="v-722"><circle  idx="0" r="10"></circle><path  idx="0" d="M16,5.333c-7.732,0-14,4.701-14,10.5c0,1.982,0.741,3.833,2.016,5.414L2,25.667l5.613-1.441c2.339,1.317,5.237,2.107,8.387,2.107c7.732,0,14-4.701,14-10.5C30,10.034,23.732,5.333,16,5.333z" transform="translate(5, -33)"></path><path  idx="0" transform="scale(.8) translate(9.5, -37)" d="M24.778,21.419 19.276,15.917 24.777,10.415 21.949,7.585 16.447,13.087 10.945,7.585 8.117,10.415 13.618,15.917 8.116,21.419 10.946,24.248 16.447,18.746 21.948,24.248z"><title>Remove vertex.</title></path></g></g><g  id="v-219" display="none"><g  id="v-204"><path  end="source" d="M 26 0 L 0 13 L 26 26 z"></path></g><g  id="v-205"><path  end="target" d="M 26 0 L 0 13 L 26 26 z"></path></g></g><g  id="v-218" display="none"><g  id="v-202" transform="translate(1689.3093274475523, 869.9396596722554) "><g  event="remove"><circle r="11"></circle><path transform="scale(.8) translate(-16, -16)" d="M24.778,21.419 19.276,15.917 24.777,10.415 21.949,7.585 16.447,13.087 10.945,7.585 8.117,10.415 13.618,15.917 8.116,21.419 10.946,24.248 16.447,18.746 21.948,24.248z"></path><title>Remove link.</title></g><g  event="link:options"><circle r="11" transform="translate(25)"></circle><path fill="white" transform="scale(.55) translate(29, -16)" d="M31.229,17.736c0.064-0.571,0.104-1.148,0.104-1.736s-0.04-1.166-0.104-1.737l-4.377-1.557c-0.218-0.716-0.504-1.401-0.851-2.05l1.993-4.192c-0.725-0.91-1.549-1.734-2.458-2.459l-4.193,1.994c-0.647-0.347-1.334-0.632-2.049-0.849l-1.558-4.378C17.165,0.708,16.588,0.667,16,0.667s-1.166,0.041-1.737,0.105L12.707,5.15c-0.716,0.217-1.401,0.502-2.05,0.849L6.464,4.005C5.554,4.73,4.73,5.554,4.005,6.464l1.994,4.192c-0.347,0.648-0.632,1.334-0.849,2.05l-4.378,1.557C0.708,14.834,0.667,15.412,0.667,16s0.041,1.165,0.105,1.736l4.378,1.558c0.217,0.715,0.502,1.401,0.849,2.049l-1.994,4.193c0.725,0.909,1.549,1.733,2.459,2.458l4.192-1.993c0.648,0.347,1.334,0.633,2.05,0.851l1.557,4.377c0.571,0.064,1.148,0.104,1.737,0.104c0.588,0,1.165-0.04,1.736-0.104l1.558-4.377c0.715-0.218,1.399-0.504,2.049-0.851l4.193,1.993c0.909-0.725,1.733-1.549,2.458-2.458l-1.993-4.193c0.347-0.647,0.633-1.334,0.851-2.049L31.229,17.736zM16,20.871c-2.69,0-4.872-2.182-4.872-4.871c0-2.69,2.182-4.872,4.872-4.872c2.689,0,4.871,2.182,4.871,4.872C20.871,18.689,18.689,20.871,16,20.871z"></path><title>Link options.</title></g></g></g></g><!--z-index:118--><g   id="j_27" ><path  stroke="#000000" d="M 905 290 L 630 290" id="v-235" stroke-width="1" stroke-dasharray="" fill="none" style="opacity: 1;"></path><path  fill="black" stroke="black" d="M 0 0 0 0" transform="matrix(-0.9999999999999999,1.224646799147353e-16,-1.224646799147353e-16,-0.9999999999999999,905,290)"></path><path  fill="#000000" stroke="#000000" d="M 10 0 L 0 5 L 10 10 z" id="v-237" transform="matrix(0.9999999999999999,0,0,0.9999999999999999,630,285)" style="opacity: 1;"></path><path  d="M 905 290 L 630 290" id="v-236" fill="none" style="cursor: default;"></path><g ><g id="v-226"  label-idx="0" cursor="move" transform="matrix(1,0,0,1,767.5,276.6000061035156)" style="cursor: default; opacity: 1;"><rect joint-selector="rect" id="v-230" fill="#ffffff" rx="3" ry="3" pointer-events="none" width="181.67933654785156" height="90.26473236083984" transform="matrix(1,0,0,1,-90.8,-45.2)"></rect><text joint-selector="text" id="v-229" font-size="24px" xml:space="preserve" y="0.8em" fill="#000000" text-anchor="middle" pointer-events="none" font-family="Open Sans, Tahoma, Arial" font-weight="normal" transform="matrix(1,0,0,1,0,-38.7)"><tspan dy="0" >Пересылает</tspan><tspan dy="1.2em" x="0" >авторизованные</tspan><tspan dy="1.2em" x="0" >запросы</tspan></text></g><g id="v-227"  label-idx="1" cursor="move" transform="matrix(1,0,0,1,767.5,335.79998779296875)" style="cursor: default; opacity: 1;"><rect joint-selector="rect" id="v-232" fill="#ffffff" rx="3" ry="3"  pointer-events="none" width="83.72159576416016" height="22.16535186767578" transform="matrix(1,0,0,1,-41.9,-11.1)" style="display: block;"></rect><text joint-selector="text" id="v-231" font-size="16.799999999999997px" xml:space="preserve" y="0.8em" fill="#000000" text-anchor="middle" pointer-events="none"  font-family="Open Sans, Tahoma, Arial" font-weight="normal" transform="matrix(1,0,0,1,0,-7)" style="display: block;"><tspan dy="0" >[2801 TCP]</tspan></text></g><g id="v-228"  label-idx="2" cursor="move" transform="matrix(1,0,0,1,757.5,344.20001220703125)" style="cursor: default; opacity: 1;"><rect joint-selector="rect" id="v-234" fill="#ffffff" rx="3" ry="3"  width="0" height="0" transform="matrix(1,0,0,1,0,0)" display="none"></rect><text joint-selector="text" id="v-233" fill="#000000" font-size="14" text-anchor="middle" pointer-events="none"></text></g></g><g  display="none"></g><g  id="v-239" display="none"><g  id="v-224"><path  end="source" d="M 26 0 L 0 13 L 26 26 z"></path></g><g  id="v-225"><path  end="target" d="M 26 0 L 0 13 L 26 26 z"></path></g></g><g  id="v-238" display="none"><g  id="v-223" transform="translate(865, 290) "><g  event="remove"><circle r="11"></circle><path transform="scale(.8) translate(-16, -16)" d="M24.778,21.419 19.276,15.917 24.777,10.415 21.949,7.585 16.447,13.087 10.945,7.585 8.117,10.415 13.618,15.917 8.116,21.419 10.946,24.248 16.447,18.746 21.948,24.248z"></path><title>Remove link.</title></g><g  event="link:options"><circle r="11" transform="translate(25)"></circle><path fill="white" transform="scale(.55) translate(29, -16)" d="M31.229,17.736c0.064-0.571,0.104-1.148,0.104-1.736s-0.04-1.166-0.104-1.737l-4.377-1.557c-0.218-0.716-0.504-1.401-0.851-2.05l1.993-4.192c-0.725-0.91-1.549-1.734-2.458-2.459l-4.193,1.994c-0.647-0.347-1.334-0.632-2.049-0.849l-1.558-4.378C17.165,0.708,16.588,0.667,16,0.667s-1.166,0.041-1.737,0.105L12.707,5.15c-0.716,0.217-1.401,0.502-2.05,0.849L6.464,4.005C5.554,4.73,4.73,5.554,4.005,6.464l1.994,4.192c-0.347,0.648-0.632,1.334-0.849,2.05l-4.378,1.557C0.708,14.834,0.667,15.412,0.667,16s0.041,1.165,0.105,1.736l4.378,1.558c0.217,0.715,0.502,1.401,0.849,2.049l-1.994,4.193c0.725,0.909,1.549,1.733,2.459,2.458l4.192-1.993c0.648,0.347,1.334,0.633,2.05,0.851l1.557,4.377c0.571,0.064,1.148,0.104,1.737,0.104c0.588,0,1.165-0.04,1.736-0.104l1.558-4.377c0.715-0.218,1.399-0.504,2.049-0.851l4.193,1.993c0.909-0.725,1.733-1.549,2.458-2.458l-1.993-4.193c0.347-0.647,0.633-1.334,0.851-2.049L31.229,17.736zM16,20.871c-2.69,0-4.872-2.182-4.872-4.871c0-2.69,2.182-4.872,4.872-4.872c2.689,0,4.871,2.182,4.871,4.872C20.871,18.689,18.689,20.871,16,20.871z"></path><title>Link options.</title></g></g></g></g><!--z-index:119--><g   id="j_28" ><path  stroke="#000000" d="M 936 440 L 599 700" id="v-255" stroke-width="1" stroke-dasharray="" fill="none" style="opacity: 1;"></path><path  fill="black" stroke="black" d="M 0 0 0 0" transform="matrix(-0.7913987698635231,0.6113002429727165,-0.6113002429727165,-0.7913987698635231,935.7999877929688,440)"></path><path  fill="#000000" stroke="#000000" d="M 10 0 L 0 5 L 10 10 z" id="v-257" transform="matrix(0.7913986070643927,-0.611300453734936,0.611300453734936,0.7913986070643927,596.1434871178783,696.0429906786652)" style="opacity: 1;"></path><path  d="M 936 440 L 599 700" id="v-256" fill="none" style="cursor: default;"></path><g ><g id="v-246"  label-idx="0" cursor="move" transform="matrix(1,0,0,1,767.5,556.5999755859375)" style="cursor: default; opacity: 1;"><rect joint-selector="rect" id="v-250" fill="#ffffff" rx="3" ry="3" pointer-events="none" width="181.67933654785156" height="90.26473236083984" transform="matrix(1,0,0,1,-90.8,-45.2)"></rect><text joint-selector="text" id="v-249" font-size="24px" xml:space="preserve" y="0.8em" fill="#000000" text-anchor="middle" pointer-events="none" font-family="Open Sans, Tahoma, Arial" font-weight="normal" transform="matrix(1,0,0,1,0,-38.7)"><tspan dy="0" >Пересылает</tspan><tspan dy="1.2em" x="0" >авторизованные</tspan><tspan dy="1.2em" x="0" >запросы</tspan></text></g><g id="v-247"  label-idx="1" cursor="move" transform="matrix(1,0,0,1,767.5,615.7999877929688)" style="cursor: default; opacity: 1;"><rect joint-selector="rect" id="v-252" fill="#ffffff" rx="3" ry="3"  pointer-events="none" width="83.72159576416016" height="22.16535186767578" transform="matrix(1,0,0,1,-41.9,-11.1)" style="display: block;"></rect><text joint-selector="text" id="v-251" font-size="16.799999999999997px" xml:space="preserve" y="0.8em" fill="#000000" text-anchor="middle" pointer-events="none"  font-family="Open Sans, Tahoma, Arial" font-weight="normal" transform="matrix(1,0,0,1,0,-7)" style="display: block;"><tspan dy="0" >[8765 TCP]</tspan></text></g><g id="v-248"  label-idx="2" cursor="move" transform="matrix(1,0,0,1,757.5,624.2000122070312)" style="cursor: default; opacity: 1;"><rect joint-selector="rect" id="v-254" fill="#ffffff" rx="3" ry="3"  width="0" height="0" transform="matrix(1,0,0,1,0,0)" display="none"></rect><text joint-selector="text" id="v-253" fill="#000000" font-size="14" text-anchor="middle" pointer-events="none"></text></g></g><g  display="none"></g><g  id="v-259" display="none"><g  id="v-244"><path  end="source" d="M 26 0 L 0 13 L 26 26 z"></path></g><g  id="v-245"><path  end="target" d="M 26 0 L 0 13 L 26 26 z"></path></g></g><g  id="v-258" display="none"><g  id="v-243" transform="translate(904.3300083679362, 464.43382143720066) "><g  event="remove"><circle r="11"></circle><path transform="scale(.8) translate(-16, -16)" d="M24.778,21.419 19.276,15.917 24.777,10.415 21.949,7.585 16.447,13.087 10.945,7.585 8.117,10.415 13.618,15.917 8.116,21.419 10.946,24.248 16.447,18.746 21.948,24.248z"></path><title>Remove link.</title></g><g  event="link:options"><circle r="11" transform="translate(25)"></circle><path fill="white" transform="scale(.55) translate(29, -16)" d="M31.229,17.736c0.064-0.571,0.104-1.148,0.104-1.736s-0.04-1.166-0.104-1.737l-4.377-1.557c-0.218-0.716-0.504-1.401-0.851-2.05l1.993-4.192c-0.725-0.91-1.549-1.734-2.458-2.459l-4.193,1.994c-0.647-0.347-1.334-0.632-2.049-0.849l-1.558-4.378C17.165,0.708,16.588,0.667,16,0.667s-1.166,0.041-1.737,0.105L12.707,5.15c-0.716,0.217-1.401,0.502-2.05,0.849L6.464,4.005C5.554,4.73,4.73,5.554,4.005,6.464l1.994,4.192c-0.347,0.648-0.632,1.334-0.849,2.05l-4.378,1.557C0.708,14.834,0.667,15.412,0.667,16s0.041,1.165,0.105,1.736l4.378,1.558c0.217,0.715,0.502,1.401,0.849,2.049l-1.994,4.193c0.725,0.909,1.549,1.733,2.459,2.458l4.192-1.993c0.648,0.347,1.334,0.633,2.05,0.851l1.557,4.377c0.571,0.064,1.148,0.104,1.737,0.104c0.588,0,1.165-0.04,1.736-0.104l1.558-4.377c0.715-0.218,1.399-0.504,2.049-0.851l4.193,1.993c0.909-0.725,1.733-1.549,2.458-2.458l-1.993-4.193c0.347-0.647,0.633-1.334,0.851-2.049L31.229,17.736zM16,20.871c-2.69,0-4.872-2.182-4.872-4.871c0-2.69,2.182-4.872,4.872-4.872c2.689,0,4.871,2.182,4.871,4.872C20.871,18.689,18.689,20.871,16,20.871z"></path><title>Link options.</title></g></g></g></g><!--z-index:120--><g   id="j_29" ><path  stroke="#000000" d="M 1130 440 L 1130 700" id="v-275" stroke-width="1" stroke-dasharray="" fill="none" style="opacity: 1;"></path><path  fill="black" stroke="black" d="M 0 0 0 0" transform="matrix(6.123233995736765e-17,0.9999999999999999,-0.9999999999999999,6.123233995736765e-17,1130,440)"></path><path  fill="#000000" stroke="#000000" d="M 10 0 L 0 5 L 10 10 z" id="v-277" transform="matrix(-1.8369701987210294e-16,-0.9999999999999999,0.9999999999999999,-1.8369701987210294e-16,1125,700)" style="opacity: 1;"></path><path  d="M 1130 440 L 1130 700" id="v-276" fill="none" style="cursor: default;"></path><g ><g id="v-266"  label-idx="0" cursor="move" transform="matrix(1,0,0,1,1130,556.5999755859375)" style="cursor: default; opacity: 1;"><rect joint-selector="rect" id="v-270" fill="#ffffff" rx="3" ry="3" pointer-events="none" width="181.67933654785156" height="90.26473236083984" transform="matrix(1,0,0,1,-90.8,-45.2)"></rect><text joint-selector="text" id="v-269" font-size="24px" xml:space="preserve" y="0.8em" fill="#000000" text-anchor="middle" pointer-events="none" font-family="Open Sans, Tahoma, Arial" font-weight="normal" transform="matrix(1,0,0,1,0,-38.7)"><tspan dy="0" >Пересылает</tspan><tspan dy="1.2em" x="0" >авторизованные</tspan><tspan dy="1.2em" x="0" >запросы</tspan></text></g><g id="v-267"  label-idx="1" cursor="move" transform="matrix(1,0,0,1,1130,615.7999877929688)" style="cursor: default; opacity: 1;"><rect joint-selector="rect" id="v-272" fill="#ffffff" rx="3" ry="3"  pointer-events="none" width="83.72159576416016" height="22.16535186767578" transform="matrix(1,0,0,1,-41.9,-11.1)" style="display: block;"></rect><text joint-selector="text" id="v-271" font-size="16.799999999999997px" xml:space="preserve" y="0.8em" fill="#000000" text-anchor="middle" pointer-events="none"  font-family="Open Sans, Tahoma, Arial" font-weight="normal" transform="matrix(1,0,0,1,0,-7)" style="display: block;"><tspan dy="0" >[9115 TCP]</tspan></text></g><g id="v-268"  label-idx="2" cursor="move" transform="matrix(1,0,0,1,1120,624.2000122070312)" style="cursor: default; opacity: 1;"><rect joint-selector="rect" id="v-274" fill="#ffffff" rx="3" ry="3"  width="0" height="0" transform="matrix(1,0,0,1,0,0)" display="none"></rect><text joint-selector="text" id="v-273" fill="#000000" font-size="14" text-anchor="middle" pointer-events="none"></text></g></g><g  display="none"></g><g  id="v-279" display="none"><g  id="v-264"><path  end="source" d="M 26 0 L 0 13 L 26 26 z"></path></g><g  id="v-265"><path  end="target" d="M 26 0 L 0 13 L 26 26 z"></path></g></g><g  id="v-278" display="none"><g  id="v-263" transform="translate(1130, 480) "><g  event="remove"><circle r="11"></circle><path transform="scale(.8) translate(-16, -16)" d="M24.778,21.419 19.276,15.917 24.777,10.415 21.949,7.585 16.447,13.087 10.945,7.585 8.117,10.415 13.618,15.917 8.116,21.419 10.946,24.248 16.447,18.746 21.948,24.248z"></path><title>Remove link.</title></g><g  event="link:options"><circle r="11" transform="translate(25)"></circle><path fill="white" transform="scale(.55) translate(29, -16)" d="M31.229,17.736c0.064-0.571,0.104-1.148,0.104-1.736s-0.04-1.166-0.104-1.737l-4.377-1.557c-0.218-0.716-0.504-1.401-0.851-2.05l1.993-4.192c-0.725-0.91-1.549-1.734-2.458-2.459l-4.193,1.994c-0.647-0.347-1.334-0.632-2.049-0.849l-1.558-4.378C17.165,0.708,16.588,0.667,16,0.667s-1.166,0.041-1.737,0.105L12.707,5.15c-0.716,0.217-1.401,0.502-2.05,0.849L6.464,4.005C5.554,4.73,4.73,5.554,4.005,6.464l1.994,4.192c-0.347,0.648-0.632,1.334-0.849,2.05l-4.378,1.557C0.708,14.834,0.667,15.412,0.667,16s0.041,1.165,0.105,1.736l4.378,1.558c0.217,0.715,0.502,1.401,0.849,2.049l-1.994,4.193c0.725,0.909,1.549,1.733,2.459,2.458l4.192-1.993c0.648,0.347,1.334,0.633,2.05,0.851l1.557,4.377c0.571,0.064,1.148,0.104,1.737,0.104c0.588,0,1.165-0.04,1.736-0.104l1.558-4.377c0.715-0.218,1.399-0.504,2.049-0.851l4.193,1.993c0.909-0.725,1.733-1.549,2.458-2.458l-1.993-4.193c0.347-0.647,0.633-1.334,0.851-2.049L31.229,17.736zM16,20.871c-2.69,0-4.872-2.182-4.872-4.871c0-2.69,2.182-4.872,4.872-4.872c2.689,0,4.871,2.182,4.871,4.872C20.871,18.689,18.689,20.871,16,20.871z"></path><title>Link options.</title></g></g></g></g><!--z-index:121--><g   id="j_30" ><path  stroke="#000000" d="M 1355 417 L 1671 595 C 1677 598.3333333333333 1682 602.6666666666666 1686 608 L 1849 850" id="v-296" stroke-width="1" stroke-dasharray="" fill="none" style="opacity: 1;"></path><path  fill="black" stroke="black" d="M 0 0 0 0" transform="matrix(0.8711542906146545,0.4910093705253269,-0.4910093705253269,0.8711542906146545,1355,416.82000732421875)"></path><path  fill="#000000" stroke="#000000" d="M 10 0 L 0 5 L 10 10 z" id="v-298" transform="matrix(-0.5594728283067667,-0.8288486920942971,0.8288486920942971,-0.5594728283067667,1844.6057573998123,852.7973815277866)" style="opacity: 1;"></path><path  d="M 1355 417 L 1671 595 C 1677 598.3333333333333 1682 602.6666666666666 1686 608 L 1849 850" id="v-297" fill="none" style="cursor: default;"></path><g ><g id="v-287"  label-idx="0" cursor="move" transform="matrix(1,0,0,1,1648.820556640625,569.1065063476562)" style="cursor: default; opacity: 1;"><rect joint-selector="rect" id="v-291" fill="#ffffff" rx="3" ry="3" pointer-events="none" width="145.2960662841797" height="90.26473236083984" transform="matrix(1,0,0,1,-72.6,-45.2)"></rect><text joint-selector="text" id="v-290" font-size="24px" xml:space="preserve" y="0.8em" fill="#000000" text-anchor="middle" pointer-events="none" font-family="Open Sans, Tahoma, Arial" font-weight="normal" transform="matrix(1,0,0,1,0,-38.7)"><tspan dy="0" >Выполняет</tspan><tspan dy="1.2em" x="0" >авторизацию</tspan><tspan dy="1.2em" x="0" >запросов</tspan></text></g><g id="v-288"  label-idx="1" cursor="move" transform="matrix(1,0,0,1,1648.820556640625,628.3065185546875)" style="cursor: default; opacity: 1;"><rect joint-selector="rect" id="v-293" fill="#ffffff" rx="3" ry="3"  pointer-events="none" width="83.72159576416016" height="22.16535186767578" transform="matrix(1,0,0,1,-41.9,-11.1)" style="display: block;"></rect><text joint-selector="text" id="v-292" font-size="16.799999999999997px" xml:space="preserve" y="0.8em" fill="#000000" text-anchor="middle" pointer-events="none"  font-family="Open Sans, Tahoma, Arial" font-weight="normal" transform="matrix(1,0,0,1,0,-7)" style="display: block;"><tspan dy="0" >[6443 TCP]</tspan></text></g><g id="v-289"  label-idx="2" cursor="move" transform="matrix(1,0,0,1,1638.820556640625,636.7064819335938)" style="cursor: default; opacity: 1;"><rect joint-selector="rect" id="v-295" fill="#ffffff" rx="3" ry="3"  width="0" height="0" transform="matrix(1,0,0,1,0,0)" display="none"></rect><text joint-selector="text" id="v-294" fill="#000000" font-size="14" text-anchor="middle" pointer-events="none"></text></g></g><g  display="none"><g  transform="translate(1680, 600)" id="v-723"><circle  idx="0" r="10"></circle><path  idx="0" d="M16,5.333c-7.732,0-14,4.701-14,10.5c0,1.982,0.741,3.833,2.016,5.414L2,25.667l5.613-1.441c2.339,1.317,5.237,2.107,8.387,2.107c7.732,0,14-4.701,14-10.5C30,10.034,23.732,5.333,16,5.333z" transform="translate(5, -33)"></path><path  idx="0" transform="scale(.8) translate(9.5, -37)" d="M24.778,21.419 19.276,15.917 24.777,10.415 21.949,7.585 16.447,13.087 10.945,7.585 8.117,10.415 13.618,15.917 8.116,21.419 10.946,24.248 16.447,18.746 21.948,24.248z"><title>Remove vertex.</title></path></g></g><g  id="v-300" display="none"><g  id="v-285"><path  end="source" d="M 26 0 L 0 13 L 26 26 z"></path></g><g  id="v-286"><path  end="target" d="M 26 0 L 0 13 L 26 26 z"></path></g></g><g  id="v-299" display="none"><g  id="v-283" transform="translate(1389.8512336096055, 436.6313910838917) "><g  event="remove"><circle r="11"></circle><path transform="scale(.8) translate(-16, -16)" d="M24.778,21.419 19.276,15.917 24.777,10.415 21.949,7.585 16.447,13.087 10.945,7.585 8.117,10.415 13.618,15.917 8.116,21.419 10.946,24.248 16.447,18.746 21.948,24.248z"></path><title>Remove link.</title></g><g  event="link:options"><circle r="11" transform="translate(25)"></circle><path fill="white" transform="scale(.55) translate(29, -16)" d="M31.229,17.736c0.064-0.571,0.104-1.148,0.104-1.736s-0.04-1.166-0.104-1.737l-4.377-1.557c-0.218-0.716-0.504-1.401-0.851-2.05l1.993-4.192c-0.725-0.91-1.549-1.734-2.458-2.459l-4.193,1.994c-0.647-0.347-1.334-0.632-2.049-0.849l-1.558-4.378C17.165,0.708,16.588,0.667,16,0.667s-1.166,0.041-1.737,0.105L12.707,5.15c-0.716,0.217-1.401,0.502-2.05,0.849L6.464,4.005C5.554,4.73,4.73,5.554,4.005,6.464l1.994,4.192c-0.347,0.648-0.632,1.334-0.849,2.05l-4.378,1.557C0.708,14.834,0.667,15.412,0.667,16s0.041,1.165,0.105,1.736l4.378,1.558c0.217,0.715,0.502,1.401,0.849,2.049l-1.994,4.193c0.725,0.909,1.549,1.733,2.459,2.458l4.192-1.993c0.648,0.347,1.334,0.633,2.05,0.851l1.557,4.377c0.571,0.064,1.148,0.104,1.737,0.104c0.588,0,1.165-0.04,1.736-0.104l1.558-4.377c0.715-0.218,1.399-0.504,2.049-0.851l4.193,1.993c0.909-0.725,1.733-1.549,2.458-2.458l-1.993-4.193c0.347-0.647,0.633-1.334,0.851-2.049L31.229,17.736zM16,20.871c-2.69,0-4.872-2.182-4.872-4.871c0-2.69,2.182-4.872,4.872-4.872c2.689,0,4.871,2.182,4.871,4.872C20.871,18.689,18.689,20.871,16,20.871z"></path><title>Link options.</title></g></g></g></g><!--z-index:122--><g   id="j_31" ><path  stroke="#000000" d="M 1355 920 L 1520 972 C 1526.6666666666665 974 1533.3333333333333 975.3333333333333 1540 976 L 1725 987" id="v-317" stroke-width="1" stroke-dasharray="" fill="none" style="opacity: 1;"></path><path  fill="black" stroke="black" d="M 0 0 0 0" transform="matrix(0.9544760942414484,0.2982874209912134,-0.2982874209912134,0.9544760942414484,1355,920.3099975585938)"></path><path  fill="#000000" stroke="#000000" d="M 10 0 L 0 5 L 10 10 z" id="v-319" transform="matrix(-0.9982322765187585,-0.05943334178873708,0.05943334178873708,-0.9982322765187585,1724.7027837361502,991.6011332673188)" style="opacity: 1;"></path><path  d="M 1355 920 L 1520 972 C 1526.6666666666665 974 1533.3333333333333 975.3333333333333 1540 976 L 1725 987" id="v-318" fill="none" style="cursor: default;"></path><g ><g id="v-308"  label-idx="0" cursor="move" transform="matrix(1,0,0,1,1535.9765625,962.11669921875)" style="cursor: default; opacity: 1;"><rect joint-selector="rect" id="v-312" fill="#ffffff" rx="3" ry="3" pointer-events="none" width="177.39573669433594" height="61.46473503112793" transform="matrix(1,0,0,1,-88.7,-30.8)"></rect><text joint-selector="text" id="v-311" font-size="24px" xml:space="preserve" y="0.8em" fill="#000000" text-anchor="middle" pointer-events="none" font-family="Open Sans, Tahoma, Arial" font-weight="normal" transform="matrix(1,0,0,1,0,-24.3)"><tspan dy="0" >Следит за</tspan><tspan dy="1.2em" x="0" >FalcoAuditRules</tspan></text></g><g id="v-309"  label-idx="1" cursor="move" transform="matrix(1,0,0,1,1535.9765625,1006.9166870117188)" style="cursor: default; opacity: 1;"><rect joint-selector="rect" id="v-314" fill="#ffffff" rx="3" ry="3"  pointer-events="none" width="83.72159576416016" height="22.16535186767578" transform="matrix(1,0,0,1,-41.9,-11.1)" style="display: block;"></rect><text joint-selector="text" id="v-313" font-size="16.799999999999997px" xml:space="preserve" y="0.8em" fill="#000000" text-anchor="middle" pointer-events="none"  font-family="Open Sans, Tahoma, Arial" font-weight="normal" transform="matrix(1,0,0,1,0,-7)" style="display: block;"><tspan dy="0" >[6443 TCP]</tspan></text></g><g id="v-310"  label-idx="2" cursor="move" transform="matrix(1,0,0,1,1525.9765625,1015.3167114257812)" style="cursor: default; opacity: 1;"><rect joint-selector="rect" id="v-316" fill="#ffffff" rx="3" ry="3"  width="0" height="0" transform="matrix(1,0,0,1,0,0)" display="none"></rect><text joint-selector="text" id="v-315" fill="#000000" font-size="14" text-anchor="middle" pointer-events="none"></text></g></g><g  display="none"><g  transform="translate(1530, 975)" id="v-724"><circle  idx="0" r="10"></circle><path  idx="0" d="M16,5.333c-7.732,0-14,4.701-14,10.5c0,1.982,0.741,3.833,2.016,5.414L2,25.667l5.613-1.441c2.339,1.317,5.237,2.107,8.387,2.107c7.732,0,14-4.701,14-10.5C30,10.034,23.732,5.333,16,5.333z" transform="translate(5, -33)"></path><path  idx="0" transform="scale(.8) translate(9.5, -37)" d="M24.778,21.419 19.276,15.917 24.777,10.415 21.949,7.585 16.447,13.087 10.945,7.585 8.117,10.415 13.618,15.917 8.116,21.419 10.946,24.248 16.447,18.746 21.948,24.248z"><title>Remove vertex.</title></path></g></g><g  id="v-321" display="none"><g  id="v-306"><path  end="source" d="M 26 0 L 0 13 L 26 26 z"></path></g><g  id="v-307"><path  end="target" d="M 26 0 L 0 13 L 26 26 z"></path></g></g><g  id="v-320" display="none"><g  id="v-304" transform="translate(1393.150289017341, 932.0231213872833) "><g  event="remove"><circle r="11"></circle><path transform="scale(.8) translate(-16, -16)" d="M24.778,21.419 19.276,15.917 24.777,10.415 21.949,7.585 16.447,13.087 10.945,7.585 8.117,10.415 13.618,15.917 8.116,21.419 10.946,24.248 16.447,18.746 21.948,24.248z"></path><title>Remove link.</title></g><g  event="link:options"><circle r="11" transform="translate(25)"></circle><path fill="white" transform="scale(.55) translate(29, -16)" d="M31.229,17.736c0.064-0.571,0.104-1.148,0.104-1.736s-0.04-1.166-0.104-1.737l-4.377-1.557c-0.218-0.716-0.504-1.401-0.851-2.05l1.993-4.192c-0.725-0.91-1.549-1.734-2.458-2.459l-4.193,1.994c-0.647-0.347-1.334-0.632-2.049-0.849l-1.558-4.378C17.165,0.708,16.588,0.667,16,0.667s-1.166,0.041-1.737,0.105L12.707,5.15c-0.716,0.217-1.401,0.502-2.05,0.849L6.464,4.005C5.554,4.73,4.73,5.554,4.005,6.464l1.994,4.192c-0.347,0.648-0.632,1.334-0.849,2.05l-4.378,1.557C0.708,14.834,0.667,15.412,0.667,16s0.041,1.165,0.105,1.736l4.378,1.558c0.217,0.715,0.502,1.401,0.849,2.049l-1.994,4.193c0.725,0.909,1.549,1.733,2.459,2.458l4.192-1.993c0.648,0.347,1.334,0.633,2.05,0.851l1.557,4.377c0.571,0.064,1.148,0.104,1.737,0.104c0.588,0,1.165-0.04,1.736-0.104l1.558-4.377c0.715-0.218,1.399-0.504,2.049-0.851l4.193,1.993c0.909-0.725,1.733-1.549,2.458-2.458l-1.993-4.193c0.347-0.647,0.633-1.334,0.851-2.049L31.229,17.736zM16,20.871c-2.69,0-4.872-2.182-4.872-4.871c0-2.69,2.182-4.872,4.872-4.872c2.689,0,4.871,2.182,4.871,4.872C20.871,18.689,18.689,20.871,16,20.871z"></path><title>Link options.</title></g></g></g></g><!--z-index:123--><g   id="j_32" ><path  stroke="#000000" d="M 2503 850 L 2256 488 C 2252 482.66666666666663 2246.6666666666665 479.3333333333333 2240 478 L 1355 328" id="v-338" stroke-width="1" stroke-dasharray="" fill="none" style="opacity: 1;"></path><path  fill="black" stroke="black" d="M 0 0 0 0" transform="matrix(-0.5638353780315177,-0.8258871996102465,0.8258871996102465,-0.5638353780315177,2502.60009765625,850)"></path><path  fill="#000000" stroke="#000000" d="M 10 0 L 0 5 L 10 10 z" id="v-340" transform="matrix(0.9859140302535722,0.1672528772522559,-0.1672528772522559,0.9859140302535722,1355.836259664681,323.2404215659865)" style="opacity: 1;"></path><path  d="M 2503 850 L 2256 488 C 2252 482.66666666666663 2246.6666666666665 479.3333333333333 2240 478 L 1355 328" id="v-339" fill="none" style="cursor: default;"></path><g ><g id="v-329"  label-idx="0" cursor="move" transform="matrix(1,0,0,1,2023.0601806640625,427.8305358886719)" style="cursor: default; opacity: 1;"><rect joint-selector="rect" id="v-333" fill="#ffffff" rx="3" ry="3" pointer-events="none" width="103.86363220214844" height="61.46473503112793" transform="matrix(1,0,0,1,-51.9,-30.8)"></rect><text joint-selector="text" id="v-332" font-size="24px" xml:space="preserve" y="0.8em" fill="#000000" text-anchor="middle" pointer-events="none" font-family="Open Sans, Tahoma, Arial" font-weight="normal" transform="matrix(1,0,0,1,0,-24.3)"><tspan dy="0" >Собирает</tspan><tspan dy="1.2em" x="0" >метрики</tspan></text></g><g id="v-330"  label-idx="1" cursor="move" transform="matrix(1,0,0,1,2023.0601806640625,472.6305236816406)" style="cursor: default; opacity: 1;"><rect joint-selector="rect" id="v-335" fill="#ffffff" rx="3" ry="3"  pointer-events="none" width="83.72159576416016" height="22.16535186767578" transform="matrix(1,0,0,1,-41.9,-11.1)" style="display: block;"></rect><text joint-selector="text" id="v-334" font-size="16.799999999999997px" xml:space="preserve" y="0.8em" fill="#000000" text-anchor="middle" pointer-events="none"  font-family="Open Sans, Tahoma, Arial" font-weight="normal" transform="matrix(1,0,0,1,0,-7)" style="display: block;"><tspan dy="0" >[4212 TCP]</tspan></text></g><g id="v-331"  label-idx="2" cursor="move" transform="matrix(1,0,0,1,2013.0601806640625,481.0305480957031)" style="cursor: default; opacity: 1;"><rect joint-selector="rect" id="v-337" fill="#ffffff" rx="3" ry="3"  width="0" height="0" transform="matrix(1,0,0,1,0,0)" display="none"></rect><text joint-selector="text" id="v-336" fill="#000000" font-size="14" text-anchor="middle" pointer-events="none"></text></g></g><g  display="none"><g  transform="translate(2250, 480)" id="v-725"><circle  idx="0" r="10"></circle><path  idx="0" d="M16,5.333c-7.732,0-14,4.701-14,10.5c0,1.982,0.741,3.833,2.016,5.414L2,25.667l5.613-1.441c2.339,1.317,5.237,2.107,8.387,2.107c7.732,0,14-4.701,14-10.5C30,10.034,23.732,5.333,16,5.333z" transform="translate(5, -33)"></path><path  idx="0" transform="scale(.8) translate(9.5, -37)" d="M24.778,21.419 19.276,15.917 24.777,10.415 21.949,7.585 16.447,13.087 10.945,7.585 8.117,10.415 13.618,15.917 8.116,21.419 10.946,24.248 16.447,18.746 21.948,24.248z"><title>Remove vertex.</title></path></g></g><g  id="v-342" display="none"><g  id="v-327"><path  end="source" d="M 26 0 L 0 13 L 26 26 z"></path></g><g  id="v-328"><path  end="target" d="M 26 0 L 0 13 L 26 26 z"></path></g></g><g  id="v-341" display="none"><g  id="v-325" transform="translate(2480.455199486818, 816.9586324462678) "><g  event="remove"><circle r="11"></circle><path transform="scale(.8) translate(-16, -16)" d="M24.778,21.419 19.276,15.917 24.777,10.415 21.949,7.585 16.447,13.087 10.945,7.585 8.117,10.415 13.618,15.917 8.116,21.419 10.946,24.248 16.447,18.746 21.948,24.248z"></path><title>Remove link.</title></g><g  event="link:options"><circle r="11" transform="translate(25)"></circle><path fill="white" transform="scale(.55) translate(29, -16)" d="M31.229,17.736c0.064-0.571,0.104-1.148,0.104-1.736s-0.04-1.166-0.104-1.737l-4.377-1.557c-0.218-0.716-0.504-1.401-0.851-2.05l1.993-4.192c-0.725-0.91-1.549-1.734-2.458-2.459l-4.193,1.994c-0.647-0.347-1.334-0.632-2.049-0.849l-1.558-4.378C17.165,0.708,16.588,0.667,16,0.667s-1.166,0.041-1.737,0.105L12.707,5.15c-0.716,0.217-1.401,0.502-2.05,0.849L6.464,4.005C5.554,4.73,4.73,5.554,4.005,6.464l1.994,4.192c-0.347,0.648-0.632,1.334-0.849,2.05l-4.378,1.557C0.708,14.834,0.667,15.412,0.667,16s0.041,1.165,0.105,1.736l4.378,1.558c0.217,0.715,0.502,1.401,0.849,2.049l-1.994,4.193c0.725,0.909,1.549,1.733,2.459,2.458l4.192-1.993c0.648,0.347,1.334,0.633,2.05,0.851l1.557,4.377c0.571,0.064,1.148,0.104,1.737,0.104c0.588,0,1.165-0.04,1.736-0.104l1.558-4.377c0.715-0.218,1.399-0.504,2.049-0.851l4.193,1.993c0.909-0.725,1.733-1.549,2.458-2.458l-1.993-4.193c0.347-0.647,0.633-1.334,0.851-2.049L31.229,17.736zM16,20.871c-2.69,0-4.872-2.182-4.872-4.871c0-2.69,2.182-4.872,4.872-4.872c2.689,0,4.871,2.182,4.871,4.872C20.871,18.689,18.689,20.871,16,20.871z"></path><title>Link options.</title></g></g></g></g><!--z-index:124--><g   id="j_33" ><path  stroke="#000000" d="M 405 700 L 405 440" id="v-358" stroke-width="1" stroke-dasharray="" fill="none" style="opacity: 1;"></path><path  fill="black" stroke="black" d="M 0 0 0 0" transform="matrix(-1.8369701987210294e-16,-0.9999999999999999,0.9999999999999999,-1.8369701987210294e-16,405,700)"></path><path  fill="#000000" stroke="#000000" d="M 10 0 L 0 5 L 10 10 z" id="v-360" transform="matrix(6.123233995736765e-17,0.9999999999999999,-0.9999999999999999,6.123233995736765e-17,410,440)" style="opacity: 1;"></path><path  d="M 405 700 L 405 440" id="v-359" fill="none" style="cursor: default;"></path><g ><g id="v-349"  label-idx="0" cursor="move" transform="matrix(1,0,0,1,405,556.5999755859375)" style="cursor: default; opacity: 1;"><rect joint-selector="rect" id="v-353" fill="#ffffff" rx="3" ry="3" pointer-events="none" width="155.26683044433594" height="61.46473503112793" transform="matrix(1,0,0,1,-77.6,-30.8)"></rect><text joint-selector="text" id="v-352" font-size="24px" xml:space="preserve" y="0.8em" fill="#000000" text-anchor="middle" pointer-events="none" font-family="Open Sans, Tahoma, Arial" font-weight="normal" transform="matrix(1,0,0,1,0,-24.3)"><tspan dy="0" >Отправляет</tspan><tspan dy="1.2em" x="0" >события Falco</tspan></text></g><g id="v-350"  label-idx="1" cursor="move" transform="matrix(1,0,0,1,405,601.4000244140625)" style="cursor: default; opacity: 1;"><rect joint-selector="rect" id="v-355" fill="#ffffff" rx="3" ry="3"  pointer-events="none" width="83.72159576416016" height="22.16535186767578" transform="matrix(1,0,0,1,-41.9,-11.1)" style="display: block;"></rect><text joint-selector="text" id="v-354" font-size="16.799999999999997px" xml:space="preserve" y="0.8em" fill="#000000" text-anchor="middle" pointer-events="none"  font-family="Open Sans, Tahoma, Arial" font-weight="normal" transform="matrix(1,0,0,1,0,-7)" style="display: block;"><tspan dy="0" >[2801 TCP]</tspan></text></g><g id="v-351"  label-idx="2" cursor="move" transform="matrix(1,0,0,1,395,609.7999877929688)" style="cursor: default; opacity: 1;"><rect joint-selector="rect" id="v-357" fill="#ffffff" rx="3" ry="3"  width="0" height="0" transform="matrix(1,0,0,1,0,0)" display="none"></rect><text joint-selector="text" id="v-356" fill="#000000" font-size="14" text-anchor="middle" pointer-events="none"></text></g></g><g  display="none"></g><g  id="v-362" display="none"><g  id="v-347"><path  end="source" d="M 26 0 L 0 13 L 26 26 z"></path></g><g  id="v-348"><path  end="target" d="M 26 0 L 0 13 L 26 26 z"></path></g></g><g  id="v-361" display="none"><g  id="v-346" transform="translate(405, 660) "><g  event="remove"><circle r="11"></circle><path transform="scale(.8) translate(-16, -16)" d="M24.778,21.419 19.276,15.917 24.777,10.415 21.949,7.585 16.447,13.087 10.945,7.585 8.117,10.415 13.618,15.917 8.116,21.419 10.946,24.248 16.447,18.746 21.948,24.248z"></path><title>Remove link.</title></g><g  event="link:options"><circle r="11" transform="translate(25)"></circle><path fill="white" transform="scale(.55) translate(29, -16)" d="M31.229,17.736c0.064-0.571,0.104-1.148,0.104-1.736s-0.04-1.166-0.104-1.737l-4.377-1.557c-0.218-0.716-0.504-1.401-0.851-2.05l1.993-4.192c-0.725-0.91-1.549-1.734-2.458-2.459l-4.193,1.994c-0.647-0.347-1.334-0.632-2.049-0.849l-1.558-4.378C17.165,0.708,16.588,0.667,16,0.667s-1.166,0.041-1.737,0.105L12.707,5.15c-0.716,0.217-1.401,0.502-2.05,0.849L6.464,4.005C5.554,4.73,4.73,5.554,4.005,6.464l1.994,4.192c-0.347,0.648-0.632,1.334-0.849,2.05l-4.378,1.557C0.708,14.834,0.667,15.412,0.667,16s0.041,1.165,0.105,1.736l4.378,1.558c0.217,0.715,0.502,1.401,0.849,2.049l-1.994,4.193c0.725,0.909,1.549,1.733,2.459,2.458l4.192-1.993c0.648,0.347,1.334,0.633,2.05,0.851l1.557,4.377c0.571,0.064,1.148,0.104,1.737,0.104c0.588,0,1.165-0.04,1.736-0.104l1.558-4.377c0.715-0.218,1.399-0.504,2.049-0.851l4.193,1.993c0.909-0.725,1.733-1.549,2.458-2.458l-1.993-4.193c0.347-0.647,0.633-1.334,0.851-2.049L31.229,17.736zM16,20.871c-2.69,0-4.872-2.182-4.872-4.871c0-2.69,2.182-4.872,4.872-4.872c2.689,0,4.871,2.182,4.871,4.872C20.871,18.689,18.689,20.871,16,20.871z"></path><title>Link options.</title></g></g></g></g><!--z-index:125--><g   id="j_34" ><path  stroke="#000000" d="M 479 1000 L 596 1236 C 598.6666666666666 1242 603.3333333333333 1245.3333333333333 610 1246 L 905 1285" id="v-379" stroke-width="1" stroke-dasharray="" fill="none" style="opacity: 1;"></path><path  fill="black" stroke="black" d="M 0 0 0 0" transform="matrix(0.4426694993007626,0.8966848467487403,-0.8966848467487403,0.4426694993007626,479.04998779296875,1000)"></path><path  fill="#000000" stroke="#000000" d="M 10 0 L 0 5 L 10 10 z" id="v-381" transform="matrix(-0.9913917687370529,-0.13092883899438484,0.13092883899438484,-0.9913917687370529,904.3453444338696,1290.2369692495947)" style="opacity: 1;"></path><path  d="M 479 1000 L 596 1236 C 598.6666666666666 1242 603.3333333333333 1245.3333333333333 610 1246 L 905 1285" id="v-380" fill="none" style="cursor: default;"></path><g ><g id="v-370"  label-idx="0" cursor="move" transform="matrix(1,0,0,1,646.651611328125,1237.4454345703125)" style="cursor: default; opacity: 1;"><rect joint-selector="rect" id="v-374" fill="#ffffff" rx="3" ry="3" pointer-events="none" width="194.12911987304688" height="234.26473236083984" transform="matrix(1,0,0,1,-97.1,-117.2)"></rect><text joint-selector="text" id="v-373" font-size="24px" xml:space="preserve" y="0.8em" fill="#000000" text-anchor="middle" pointer-events="none" font-family="Open Sans, Tahoma, Arial" font-weight="normal" transform="matrix(1,0,0,1,0,-110.7)"><tspan dy="0" >Получение Pod,</tspan><tspan dy="1.2em" x="0" >Namespace,</tspan><tspan dy="1.2em" x="0" >Deployment,</tspan><tspan dy="1.2em" x="0" >ReplicaSet, Replic</tspan><tspan dy="1.2em" x="0" >ationController и</tspan><tspan dy="1.2em" x="0" >Service</tspan><tspan dy="1.2em" x="0" >относящиеся к</tspan><tspan dy="1.2em" x="0" >узлу</tspan></text></g><g id="v-371"  label-idx="1" cursor="move" transform="matrix(1,0,0,1,646.651611328125,1368.6455078125)" style="cursor: default; opacity: 1;"><rect joint-selector="rect" id="v-376" fill="#ffffff" rx="3" ry="3"  pointer-events="none" width="93.32779693603516" height="22.16535186767578" transform="matrix(1,0,0,1,-46.7,-11.1)" style="display: block;"></rect><text joint-selector="text" id="v-375" font-size="16.799999999999997px" xml:space="preserve" y="0.8em" fill="#000000" text-anchor="middle" pointer-events="none"  font-family="Open Sans, Tahoma, Arial" font-weight="normal" transform="matrix(1,0,0,1,0,-7)" style="display: block;"><tspan dy="0" >[45000 TCP]</tspan></text></g><g id="v-372"  label-idx="2" cursor="move" transform="matrix(1,0,0,1,636.651611328125,1377.04541015625)" style="cursor: default; opacity: 1;"><rect joint-selector="rect" id="v-378" fill="#ffffff" rx="3" ry="3"  width="0" height="0" transform="matrix(1,0,0,1,0,0)" display="none"></rect><text joint-selector="text" id="v-377" fill="#000000" font-size="14" text-anchor="middle" pointer-events="none"></text></g></g><g  display="none"><g  transform="translate(600, 1245)" id="v-726"><circle  idx="0" r="10"></circle><path  idx="0" d="M16,5.333c-7.732,0-14,4.701-14,10.5c0,1.982,0.741,3.833,2.016,5.414L2,25.667l5.613-1.441c2.339,1.317,5.237,2.107,8.387,2.107c7.732,0,14-4.701,14-10.5C30,10.034,23.732,5.333,16,5.333z" transform="translate(5, -33)"></path><path  idx="0" transform="scale(.8) translate(9.5, -37)" d="M24.778,21.419 19.276,15.917 24.777,10.415 21.949,7.585 16.447,13.087 10.945,7.585 8.117,10.415 13.618,15.917 8.116,21.419 10.946,24.248 16.447,18.746 21.948,24.248z"><title>Remove vertex.</title></path></g></g><g  id="v-383" display="none"><g  id="v-368"><path  end="source" d="M 26 0 L 0 13 L 26 26 z"></path></g><g  id="v-369"><path  end="target" d="M 26 0 L 0 13 L 26 26 z"></path></g></g><g  id="v-382" display="none"><g  id="v-366" transform="translate(496.76695722520606, 1035.8376231209284) "><g  event="remove"><circle r="11"></circle><path transform="scale(.8) translate(-16, -16)" d="M24.778,21.419 19.276,15.917 24.777,10.415 21.949,7.585 16.447,13.087 10.945,7.585 8.117,10.415 13.618,15.917 8.116,21.419 10.946,24.248 16.447,18.746 21.948,24.248z"></path><title>Remove link.</title></g><g  event="link:options"><circle r="11" transform="translate(25)"></circle><path fill="white" transform="scale(.55) translate(29, -16)" d="M31.229,17.736c0.064-0.571,0.104-1.148,0.104-1.736s-0.04-1.166-0.104-1.737l-4.377-1.557c-0.218-0.716-0.504-1.401-0.851-2.05l1.993-4.192c-0.725-0.91-1.549-1.734-2.458-2.459l-4.193,1.994c-0.647-0.347-1.334-0.632-2.049-0.849l-1.558-4.378C17.165,0.708,16.588,0.667,16,0.667s-1.166,0.041-1.737,0.105L12.707,5.15c-0.716,0.217-1.401,0.502-2.05,0.849L6.464,4.005C5.554,4.73,4.73,5.554,4.005,6.464l1.994,4.192c-0.347,0.648-0.632,1.334-0.849,2.05l-4.378,1.557C0.708,14.834,0.667,15.412,0.667,16s0.041,1.165,0.105,1.736l4.378,1.558c0.217,0.715,0.502,1.401,0.849,2.049l-1.994,4.193c0.725,0.909,1.549,1.733,2.459,2.458l4.192-1.993c0.648,0.347,1.334,0.633,2.05,0.851l1.557,4.377c0.571,0.064,1.148,0.104,1.737,0.104c0.588,0,1.165-0.04,1.736-0.104l1.558-4.377c0.715-0.218,1.399-0.504,2.049-0.851l4.193,1.993c0.909-0.725,1.733-1.549,2.458-2.458l-1.993-4.193c0.347-0.647,0.633-1.334,0.851-2.049L31.229,17.736zM16,20.871c-2.69,0-4.872-2.182-4.872-4.871c0-2.69,2.182-4.872,4.872-4.872c2.689,0,4.871,2.182,4.871,4.872C20.871,18.689,18.689,20.871,16,20.871z"></path><title>Link options.</title></g></g></g></g><!--z-index:126--><g   id="j_35" ><path  stroke="#000000" d="M 1355 1281 L 1515 1257 C 1521.6666666666665 1255.6666666666665 1528 1253.3333333333333 1534 1250 L 1725 1135" id="v-400" stroke-width="1" stroke-dasharray="" fill="none" style="opacity: 1;"></path><path  fill="black" stroke="black" d="M 0 0 0 0" transform="matrix(0.9886617060298689,-0.15016001808107488,0.15016001808107488,0.9886617060298689,1355,1280.8199462890625)"></path><path  fill="#000000" stroke="#000000" d="M 10 0 L 0 5 L 10 10 z" id="v-402" transform="matrix(-0.8574928911956576,0.514495812955666,-0.514495812955666,-0.8574928911956576,1727.572467934819,1139.287495156825)" style="opacity: 1;"></path><path  d="M 1355 1281 L 1515 1257 C 1521.6666666666665 1255.6666666666665 1528 1253.3333333333333 1534 1250 L 1725 1135" id="v-401" fill="none" style="cursor: default;"></path><g ><g id="v-391"  label-idx="0" cursor="move" transform="matrix(1,0,0,1,1551.4908447265625,1226.06884765625)" style="cursor: default; opacity: 1;"><rect joint-selector="rect" id="v-395" fill="#ffffff" rx="3" ry="3" pointer-events="none" width="194.12911987304688" height="176.66472625732422" transform="matrix(1,0,0,1,-97.1,-88.4)"></rect><text joint-selector="text" id="v-394" font-size="24px" xml:space="preserve" y="0.8em" fill="#000000" text-anchor="middle" pointer-events="none" font-family="Open Sans, Tahoma, Arial" font-weight="normal" transform="matrix(1,0,0,1,0,-81.9)"><tspan dy="0" >Получение Pod,</tspan><tspan dy="1.2em" x="0" >Namespace,</tspan><tspan dy="1.2em" x="0" >Deployment,</tspan><tspan dy="1.2em" x="0" >ReplicaSet, Replic</tspan><tspan dy="1.2em" x="0" >ationController и</tspan><tspan dy="1.2em" x="0" >Service</tspan></text></g><g id="v-392"  label-idx="1" cursor="move" transform="matrix(1,0,0,1,1551.4908447265625,1328.4688720703125)" style="cursor: default; opacity: 1;"><rect joint-selector="rect" id="v-397" fill="#ffffff" rx="3" ry="3"  pointer-events="none" width="83.72159576416016" height="22.16535186767578" transform="matrix(1,0,0,1,-41.9,-11.1)" style="display: block;"></rect><text joint-selector="text" id="v-396" font-size="16.799999999999997px" xml:space="preserve" y="0.8em" fill="#000000" text-anchor="middle" pointer-events="none"  font-family="Open Sans, Tahoma, Arial" font-weight="normal" transform="matrix(1,0,0,1,0,-7)" style="display: block;"><tspan dy="0" >[6443 TCP]</tspan></text></g><g id="v-393"  label-idx="2" cursor="move" transform="matrix(1,0,0,1,1541.4908447265625,1336.868896484375)" style="cursor: default; opacity: 1;"><rect joint-selector="rect" id="v-399" fill="#ffffff" rx="3" ry="3"  width="0" height="0" transform="matrix(1,0,0,1,0,0)" display="none"></rect><text joint-selector="text" id="v-398" fill="#000000" font-size="14" text-anchor="middle" pointer-events="none"></text></g></g><g  display="none"><g  transform="translate(1525, 1255)" id="v-727"><circle  idx="0" r="10"></circle><path  idx="0" d="M16,5.333c-7.732,0-14,4.701-14,10.5c0,1.982,0.741,3.833,2.016,5.414L2,25.667l5.613-1.441c2.339,1.317,5.237,2.107,8.387,2.107c7.732,0,14-4.701,14-10.5C30,10.034,23.732,5.333,16,5.333z" transform="translate(5, -33)"></path><path  idx="0" transform="scale(.8) translate(9.5, -37)" d="M24.778,21.419 19.276,15.917 24.777,10.415 21.949,7.585 16.447,13.087 10.945,7.585 8.117,10.415 13.618,15.917 8.116,21.419 10.946,24.248 16.447,18.746 21.948,24.248z"><title>Remove vertex.</title></path></g></g><g  id="v-404" display="none"><g  id="v-389"><path  end="source" d="M 26 0 L 0 13 L 26 26 z"></path></g><g  id="v-390"><path  end="target" d="M 26 0 L 0 13 L 26 26 z"></path></g></g><g  id="v-403" display="none"><g  id="v-387" transform="translate(1394.5574541147319, 1275.0663818827902) "><g  event="remove"><circle r="11"></circle><path transform="scale(.8) translate(-16, -16)" d="M24.778,21.419 19.276,15.917 24.777,10.415 21.949,7.585 16.447,13.087 10.945,7.585 8.117,10.415 13.618,15.917 8.116,21.419 10.946,24.248 16.447,18.746 21.948,24.248z"></path><title>Remove link.</title></g><g  event="link:options"><circle r="11" transform="translate(25)"></circle><path fill="white" transform="scale(.55) translate(29, -16)" d="M31.229,17.736c0.064-0.571,0.104-1.148,0.104-1.736s-0.04-1.166-0.104-1.737l-4.377-1.557c-0.218-0.716-0.504-1.401-0.851-2.05l1.993-4.192c-0.725-0.91-1.549-1.734-2.458-2.459l-4.193,1.994c-0.647-0.347-1.334-0.632-2.049-0.849l-1.558-4.378C17.165,0.708,16.588,0.667,16,0.667s-1.166,0.041-1.737,0.105L12.707,5.15c-0.716,0.217-1.401,0.502-2.05,0.849L6.464,4.005C5.554,4.73,4.73,5.554,4.005,6.464l1.994,4.192c-0.347,0.648-0.632,1.334-0.849,2.05l-4.378,1.557C0.708,14.834,0.667,15.412,0.667,16s0.041,1.165,0.105,1.736l4.378,1.558c0.217,0.715,0.502,1.401,0.849,2.049l-1.994,4.193c0.725,0.909,1.549,1.733,2.459,2.458l4.192-1.993c0.648,0.347,1.334,0.633,2.05,0.851l1.557,4.377c0.571,0.064,1.148,0.104,1.737,0.104c0.588,0,1.165-0.04,1.736-0.104l1.558-4.377c0.715-0.218,1.399-0.504,2.049-0.851l4.193,1.993c0.909-0.725,1.733-1.549,2.458-2.458l-1.993-4.193c0.347-0.647,0.633-1.334,0.851-2.049L31.229,17.736zM16,20.871c-2.69,0-4.872-2.182-4.872-4.871c0-2.69,2.182-4.872,4.872-4.872c2.689,0,4.871,2.182,4.871,4.872C20.871,18.689,18.689,20.871,16,20.871z"></path><title>Link options.</title></g></g></g></g><!--z-index:127--><g   id="j_36" ><path  stroke="#000000" d="M 414 1000 L 464 1800 C 464.66666666666663 1806.6666666666665 467.3333333333333 1812.333333333333 472 1817 L 798 2108 C 802.6666666666666 2112.6666666666665 808.3333333333333 2115 815 2115 L 1535 2120 C 1541.6666666666665 2120 1547.6666666666665 2118 1553 2114 L 1733 1990" id="v-423" stroke-width="1" stroke-dasharray="" fill="none" style="opacity: 1;"></path><path  fill="black" stroke="black" d="M 0 0 0 0" transform="matrix(0.06237213304871484,0.9980529630330012,-0.9980529630330012,0.06237213304871484,414.3800048828125,1000)"></path><path  fill="#000000" stroke="#000000" d="M 10 0 L 0 5 L 10 10 z" id="v-425" transform="matrix(-0.8225636511440741,0.5686730517762641,-0.5686730517762641,-0.8225636511440741,1735.8833075380392,1994.1128367859017)" style="opacity: 1;"></path><path  d="M 414 1000 L 464 1800 C 464.66666666666663 1806.6666666666665 467.3333333333333 1812.333333333333 472 1817 L 798 2108 C 802.6666666666666 2112.6666666666665 808.3333333333333 2115 815 2115 L 1535 2120 C 1541.6666666666665 2120 1547.6666666666665 2118 1553 2114 L 1733 1990" id="v-424" fill="none" style="cursor: default;"></path><g ><g id="v-414"  label-idx="0" cursor="move" transform="matrix(1,0,0,1,462.7850646972656,1767.1610107421875)" style="cursor: default; opacity: 1;"><rect joint-selector="rect" id="v-418" fill="#ffffff" rx="3" ry="3" pointer-events="none" width="167.4431915283203" height="119.06473541259766" transform="matrix(1,0,0,1,-83.7,-59.6)"></rect><text joint-selector="text" id="v-417" font-size="24px" xml:space="preserve" y="0.8em" fill="#000000" text-anchor="middle" pointer-events="none" font-family="Open Sans, Tahoma, Arial" font-weight="normal" transform="matrix(1,0,0,1,0,-53.1)"><tspan dy="0" >Читает</tspan><tspan dy="1.2em" x="0" >метаданные,</tspan><tspan dy="1.2em" x="0" >подписывается</tspan><tspan dy="1.2em" x="0" >на события</tspan></text></g><g id="v-415"  label-idx="1" cursor="move" transform="matrix(1,0,0,1,462.7850646972656,1840.760986328125)" style="cursor: default; opacity: 1;"><rect joint-selector="rect" id="v-420" fill="#ffffff" rx="3" ry="3"  pointer-events="none" width="99.41597747802734" height="22.16535186767578" transform="matrix(1,0,0,1,-49.7,-11.1)" style="display: block;"></rect><text joint-selector="text" id="v-419" font-size="16.799999999999997px" xml:space="preserve" y="0.8em" fill="#000000" text-anchor="middle" pointer-events="none"  font-family="Open Sans, Tahoma, Arial" font-weight="normal" transform="matrix(1,0,0,1,0,-7)" style="display: block;"><tspan dy="0" >[unix socket]</tspan></text></g><g id="v-416"  label-idx="2" cursor="move" transform="matrix(1,0,0,1,452.7850646972656,1849.1610107421875)" style="cursor: default; opacity: 1;"><rect joint-selector="rect" id="v-422" fill="#ffffff" rx="3" ry="3"  width="0" height="0" transform="matrix(1,0,0,1,0,0)" display="none"></rect><text joint-selector="text" id="v-421" fill="#000000" font-size="14" text-anchor="middle" pointer-events="none"></text></g></g><g  display="none"><g  transform="translate(465, 1810)" id="v-728"><circle  idx="0" r="10"></circle><path  idx="0" d="M16,5.333c-7.732,0-14,4.701-14,10.5c0,1.982,0.741,3.833,2.016,5.414L2,25.667l5.613-1.441c2.339,1.317,5.237,2.107,8.387,2.107c7.732,0,14-4.701,14-10.5C30,10.034,23.732,5.333,16,5.333z" transform="translate(5, -33)"></path><path  idx="0" transform="scale(.8) translate(9.5, -37)" d="M24.778,21.419 19.276,15.917 24.777,10.415 21.949,7.585 16.447,13.087 10.945,7.585 8.117,10.415 13.618,15.917 8.116,21.419 10.946,24.248 16.447,18.746 21.948,24.248z"><title>Remove vertex.</title></path></g><g  transform="translate(805, 2115)" id="v-729"><circle  idx="1" r="10"></circle><path  idx="1" d="M16,5.333c-7.732,0-14,4.701-14,10.5c0,1.982,0.741,3.833,2.016,5.414L2,25.667l5.613-1.441c2.339,1.317,5.237,2.107,8.387,2.107c7.732,0,14-4.701,14-10.5C30,10.034,23.732,5.333,16,5.333z" transform="translate(5, -33)"></path><path  idx="1" transform="scale(.8) translate(9.5, -37)" d="M24.778,21.419 19.276,15.917 24.777,10.415 21.949,7.585 16.447,13.087 10.945,7.585 8.117,10.415 13.618,15.917 8.116,21.419 10.946,24.248 16.447,18.746 21.948,24.248z"><title>Remove vertex.</title></path></g><g  transform="translate(1545, 2120)" id="v-730"><circle  idx="2" r="10"></circle><path  idx="2" d="M16,5.333c-7.732,0-14,4.701-14,10.5c0,1.982,0.741,3.833,2.016,5.414L2,25.667l5.613-1.441c2.339,1.317,5.237,2.107,8.387,2.107c7.732,0,14-4.701,14-10.5C30,10.034,23.732,5.333,16,5.333z" transform="translate(5, -33)"></path><path  idx="2" transform="scale(.8) translate(9.5, -37)" d="M24.778,21.419 19.276,15.917 24.777,10.415 21.949,7.585 16.447,13.087 10.945,7.585 8.117,10.415 13.618,15.917 8.116,21.419 10.946,24.248 16.447,18.746 21.948,24.248z"><title>Remove vertex.</title></path></g></g><g  id="v-427" display="none"><g  id="v-412"><path  end="source" d="M 26 0 L 0 13 L 26 26 z"></path></g><g  id="v-413"><path  end="target" d="M 26 0 L 0 13 L 26 26 z"></path></g></g><g  id="v-426" display="none"><g  id="v-408" transform="translate(416.4951314462072, 1039.9221031393156) "><g  event="remove"><circle r="11"></circle><path transform="scale(.8) translate(-16, -16)" d="M24.778,21.419 19.276,15.917 24.777,10.415 21.949,7.585 16.447,13.087 10.945,7.585 8.117,10.415 13.618,15.917 8.116,21.419 10.946,24.248 16.447,18.746 21.948,24.248z"></path><title>Remove link.</title></g><g  event="link:options"><circle r="11" transform="translate(25)"></circle><path fill="white" transform="scale(.55) translate(29, -16)" d="M31.229,17.736c0.064-0.571,0.104-1.148,0.104-1.736s-0.04-1.166-0.104-1.737l-4.377-1.557c-0.218-0.716-0.504-1.401-0.851-2.05l1.993-4.192c-0.725-0.91-1.549-1.734-2.458-2.459l-4.193,1.994c-0.647-0.347-1.334-0.632-2.049-0.849l-1.558-4.378C17.165,0.708,16.588,0.667,16,0.667s-1.166,0.041-1.737,0.105L12.707,5.15c-0.716,0.217-1.401,0.502-2.05,0.849L6.464,4.005C5.554,4.73,4.73,5.554,4.005,6.464l1.994,4.192c-0.347,0.648-0.632,1.334-0.849,2.05l-4.378,1.557C0.708,14.834,0.667,15.412,0.667,16s0.041,1.165,0.105,1.736l4.378,1.558c0.217,0.715,0.502,1.401,0.849,2.049l-1.994,4.193c0.725,0.909,1.549,1.733,2.459,2.458l4.192-1.993c0.648,0.347,1.334,0.633,2.05,0.851l1.557,4.377c0.571,0.064,1.148,0.104,1.737,0.104c0.588,0,1.165-0.04,1.736-0.104l1.558-4.377c0.715-0.218,1.399-0.504,2.049-0.851l4.193,1.993c0.909-0.725,1.733-1.549,2.458-2.458l-1.993-4.193c0.347-0.647,0.633-1.334,0.851-2.049L31.229,17.736zM16,20.871c-2.69,0-4.872-2.182-4.872-4.871c0-2.69,2.182-4.872,4.872-4.872c2.689,0,4.871,2.182,4.871,4.872C20.871,18.689,18.689,20.871,16,20.871z"></path><title>Link options.</title></g></g></g></g><!--z-index:128--><g   id="j_37" ><path  stroke="#000000" d="M 1725 1031 L 1530 1059 C 1523.3333333333333 1059.6666666666665 1516.6666666666665 1059.6666666666665 1510 1059 L 765 1021 C 758.3333333333333 1020.3333333333333 752 1018.6666666666666 746 1016 L 630 959" id="v-443" stroke-width="1" stroke-dasharray="" fill="none" style="opacity: 1;"></path><path  fill="black" stroke="black" d="M 0 0 0 0" transform="matrix(-0.9904079634043423,0.1381740425161786,-0.1381740425161786,-0.9904079634043423,1725,1031.4000244140625)"></path><path  fill="#000000" stroke="#000000" d="M 10 0 L 0 5 L 10 10 z" id="v-445" transform="matrix(0.8995202775183494,0.4368790110926725,-0.4368790110926725,0.8995202775183494,632.1844132967778,954.7923687913199)" style="opacity: 1;"></path><path  d="M 1725 1031 L 1530 1059 C 1523.3333333333333 1059.6666666666665 1516.6666666666665 1059.6666666666665 1510 1059 L 765 1021 C 758.3333333333333 1020.3333333333333 752 1018.6666666666666 746 1016 L 630 959" id="v-444" fill="none" style="cursor: default;"></path><g ><g id="v-434"  label-idx="0" cursor="move" transform="matrix(1,0,0,1,782.7991943359375,1008.5078735351562)" style="cursor: default; opacity: 1;"><rect joint-selector="rect" id="v-438" fill="#ffffff" rx="3" ry="3" pointer-events="none" width="183.73910522460938" height="61.46473503112793" transform="matrix(1,0,0,1,-91.9,-30.8)"></rect><text joint-selector="text" id="v-437" font-size="24px" xml:space="preserve" y="0.8em" fill="#000000" text-anchor="middle" pointer-events="none" font-family="Open Sans, Tahoma, Arial" font-weight="normal" transform="matrix(1,0,0,1,0,-24.3)"><tspan dy="0" >Отправляет</tspan><tspan dy="1.2em" x="0" >события аудита</tspan></text></g><g id="v-435"  label-idx="1" cursor="move" transform="matrix(1,0,0,1,782.7991943359375,1053.307861328125)" style="cursor: default; opacity: 1;"><rect joint-selector="rect" id="v-440" fill="#ffffff" rx="3" ry="3"  pointer-events="none" width="83.72159576416016" height="22.16535186767578" transform="matrix(1,0,0,1,-41.9,-11.1)" style="display: block;"></rect><text joint-selector="text" id="v-439" font-size="16.799999999999997px" xml:space="preserve" y="0.8em" fill="#000000" text-anchor="middle" pointer-events="none"  font-family="Open Sans, Tahoma, Arial" font-weight="normal" transform="matrix(1,0,0,1,0,-7)" style="display: block;"><tspan dy="0" >[9765 TCP]</tspan></text></g><g id="v-436"  label-idx="2" cursor="move" transform="matrix(1,0,0,1,772.7991943359375,1061.7078857421875)" style="cursor: default; opacity: 1;"><rect joint-selector="rect" id="v-442" fill="#ffffff" rx="3" ry="3"  width="0" height="0" transform="matrix(1,0,0,1,0,0)" display="none"></rect><text joint-selector="text" id="v-441" fill="#000000" font-size="14" text-anchor="middle" pointer-events="none"></text></g></g><g  display="none"><g  transform="translate(1520, 1060)" id="v-731"><circle  idx="0" r="10"></circle><path  idx="0" d="M16,5.333c-7.732,0-14,4.701-14,10.5c0,1.982,0.741,3.833,2.016,5.414L2,25.667l5.613-1.441c2.339,1.317,5.237,2.107,8.387,2.107c7.732,0,14-4.701,14-10.5C30,10.034,23.732,5.333,16,5.333z" transform="translate(5, -33)"></path><path  idx="0" transform="scale(.8) translate(9.5, -37)" d="M24.778,21.419 19.276,15.917 24.777,10.415 21.949,7.585 16.447,13.087 10.945,7.585 8.117,10.415 13.618,15.917 8.116,21.419 10.946,24.248 16.447,18.746 21.948,24.248z"><title>Remove vertex.</title></path></g><g  transform="translate(755, 1020)" id="v-732"><circle  idx="1" r="10"></circle><path  idx="1" d="M16,5.333c-7.732,0-14,4.701-14,10.5c0,1.982,0.741,3.833,2.016,5.414L2,25.667l5.613-1.441c2.339,1.317,5.237,2.107,8.387,2.107c7.732,0,14-4.701,14-10.5C30,10.034,23.732,5.333,16,5.333z" transform="translate(5, -33)"></path><path  idx="1" transform="scale(.8) translate(9.5, -37)" d="M24.778,21.419 19.276,15.917 24.777,10.415 21.949,7.585 16.447,13.087 10.945,7.585 8.117,10.415 13.618,15.917 8.116,21.419 10.946,24.248 16.447,18.746 21.948,24.248z"><title>Remove vertex.</title></path></g></g><g  id="v-447" display="none"><g  id="v-432"><path  end="source" d="M 26 0 L 0 13 L 26 26 z"></path></g><g  id="v-433"><path  end="target" d="M 26 0 L 0 13 L 26 26 z"></path></g></g><g  id="v-446" display="none"><g  id="v-431" transform="translate(1685.4060913705584, 1036.6852791878173) "><g  event="remove"><circle r="11"></circle><path transform="scale(.8) translate(-16, -16)" d="M24.778,21.419 19.276,15.917 24.777,10.415 21.949,7.585 16.447,13.087 10.945,7.585 8.117,10.415 13.618,15.917 8.116,21.419 10.946,24.248 16.447,18.746 21.948,24.248z"></path><title>Remove link.</title></g><g  event="link:options"><circle r="11" transform="translate(25)"></circle><path fill="white" transform="scale(.55) translate(29, -16)" d="M31.229,17.736c0.064-0.571,0.104-1.148,0.104-1.736s-0.04-1.166-0.104-1.737l-4.377-1.557c-0.218-0.716-0.504-1.401-0.851-2.05l1.993-4.192c-0.725-0.91-1.549-1.734-2.458-2.459l-4.193,1.994c-0.647-0.347-1.334-0.632-2.049-0.849l-1.558-4.378C17.165,0.708,16.588,0.667,16,0.667s-1.166,0.041-1.737,0.105L12.707,5.15c-0.716,0.217-1.401,0.502-2.05,0.849L6.464,4.005C5.554,4.73,4.73,5.554,4.005,6.464l1.994,4.192c-0.347,0.648-0.632,1.334-0.849,2.05l-4.378,1.557C0.708,14.834,0.667,15.412,0.667,16s0.041,1.165,0.105,1.736l4.378,1.558c0.217,0.715,0.502,1.401,0.849,2.049l-1.994,4.193c0.725,0.909,1.549,1.733,2.459,2.458l4.192-1.993c0.648,0.347,1.334,0.633,2.05,0.851l1.557,4.377c0.571,0.064,1.148,0.104,1.737,0.104c0.588,0,1.165-0.04,1.736-0.104l1.558-4.377c0.715-0.218,1.399-0.504,2.049-0.851l4.193,1.993c0.909-0.725,1.733-1.549,2.458-2.458l-1.993-4.193c0.347-0.647,0.633-1.334,0.851-2.049L31.229,17.736zM16,20.871c-2.69,0-4.872-2.182-4.872-4.871c0-2.69,2.182-4.872,4.872-4.872c2.689,0,4.871,2.182,4.871,4.872C20.871,18.689,18.689,20.871,16,20.871z"></path><title>Link options.</title></g></g></g></g><!--z-index:129--></g><g ></g><g ></g><g ></g></g></svg>