<svg width="371" height="95" viewBox="0 0 371 95" fill="none" xmlns="http://www.w3.org/2000/svg">
<path d="M47.3345 57.0892H35.181V32.7823H47.3345C54.0509 32.7823 59.4879 38.2194 59.4879 44.9358C59.4879 51.6522 54.0509 57.0892 47.3345 57.0892Z" fill="#0064FF"/>
<path d="M24.4668 34.2215L17.9103 27.5051L0.479736 44.9357L17.9103 62.2064L24.4668 55.65L21.2685 52.2918V37.4198L24.4668 34.2215Z" fill="#00003C"/>
<path d="M73.0805 27.5051L66.3641 34.2215L69.7223 37.4198V52.2918L66.3641 55.65L73.0805 62.2064L90.3512 44.9357L73.0805 27.5051Z" fill="#00003C"/>
<path d="M28.1448 17.4306L34.7012 23.9871L38.0594 20.6289H52.9314L56.2896 23.9871L62.8461 17.4306L45.4155 0L28.1448 17.4306Z" fill="#00003C"/>
<path d="M59.4879 69.2427L56.2896 65.8845L52.9314 69.2427H38.0594L34.7012 65.8845L31.3431 69.2427L28.1448 72.441L45.4155 89.8716L62.8461 72.441L59.4879 69.2427Z" fill="#00003C"/>
<path d="M112.419 1.91895V3.19825H109.541V4.9573H111.78V6.0767H109.541V8.79524H107.942V1.91895H112.419V1.91895Z" fill="#00003C"/>
<path d="M116.257 1.91895V7.51593H118.976V8.79524H114.658V1.91895H116.257Z" fill="#00003C"/>
<path d="M125.212 1.91895L127.451 8.79524H125.852L125.372 7.1961H122.814L122.334 8.79524H120.895L123.134 1.91895H125.212ZM125.053 6.23662L124.093 3.19825L123.134 6.23662H125.053Z" fill="#00003C"/>
<path d="M131.449 1.91895L134.008 6.39653V1.91895H135.447V8.79524H133.848L130.969 3.83791V8.79524H129.53V1.91895H131.449Z" fill="#00003C"/>
<path d="M137.686 3.19825V1.91895H142.963V3.19825H141.044V8.79524H139.445V3.19825H137.686Z" fill="#00003C"/>
<path d="M108.581 91.7905C107.942 91.1508 107.622 90.3513 107.622 89.2319C107.622 88.2724 107.942 87.3129 108.581 86.6732C109.221 86.0336 110.021 85.7137 110.98 85.7137C111.78 85.7137 112.579 85.8737 113.059 86.3534C113.539 86.8331 114.019 87.3129 114.019 88.2724H112.419C112.259 87.4728 111.78 86.9931 110.98 86.9931C109.861 86.9931 109.221 87.7926 109.221 89.2319C109.221 90.6711 109.861 91.4706 110.98 91.4706C111.78 91.4706 112.419 90.9909 112.579 90.1913H114.178C114.019 90.9909 113.699 91.6306 113.219 92.1103C112.739 92.59 111.94 92.75 111.14 92.75C110.021 92.75 109.061 92.4301 108.581 91.7905Z" fill="#0064FF"/>
<path d="M117.057 91.7905C116.417 91.1508 116.097 90.3513 116.097 89.2319C116.097 88.2724 116.417 87.3129 117.057 86.6732C117.697 86.0336 118.496 85.7137 119.616 85.7137C120.575 85.7137 121.534 86.0336 122.174 86.6732C122.814 87.3129 123.134 88.1125 123.134 89.2319C123.134 90.1913 122.814 91.1508 122.174 91.7905C121.534 92.4301 120.735 92.75 119.616 92.75C118.656 92.75 117.697 92.4301 117.057 91.7905ZM121.055 90.831C121.375 90.5112 121.534 89.8715 121.534 89.2319C121.534 88.5922 121.375 87.9525 121.055 87.6327C120.735 87.3129 120.255 86.9931 119.616 86.9931C118.976 86.9931 118.496 87.153 118.176 87.6327C117.856 87.9525 117.697 88.5922 117.697 89.2319C117.697 89.8715 117.856 90.5112 118.176 90.831C118.496 91.1508 118.976 91.4706 119.616 91.4706C120.255 91.4706 120.735 91.3107 121.055 90.831Z" fill="#0064FF"/>
<path d="M127.771 85.8737L129.37 90.1913L130.969 85.8737H133.048V92.7499H131.449V87.9525L129.53 92.7499H129.05L127.131 87.9525V92.7499H125.692V85.8737H127.771Z" fill="#0064FF"/>
<path d="M137.846 85.8737L139.445 90.1913L141.044 85.8737H143.123V92.7499H141.524V87.9525L139.605 92.7499H139.125L137.206 87.9525V92.7499H135.767V85.8737H137.846Z" fill="#0064FF"/>
<path d="M145.841 90.0314V85.8737H147.44V90.0314C147.44 91.1508 147.76 91.6306 148.72 91.6306C149.679 91.6306 149.999 91.1508 149.999 89.8715V85.8737H151.598V90.0314C151.598 91.9504 150.639 92.9099 148.72 92.9099C146.801 92.7499 145.841 91.7905 145.841 90.0314Z" fill="#0064FF"/>
<path d="M156.076 85.8737L158.634 90.3512V85.8737H160.074V92.7499H158.475L155.596 87.7926V92.7499H154.157V85.8737H156.076Z" fill="#0064FF"/>
<path d="M164.391 85.8737V92.7499H162.792V85.8737H164.391Z" fill="#0064FF"/>
<path d="M166.63 86.9931V85.7137H171.907V86.9931H169.988V92.59H168.389V86.9931H166.63Z" fill="#0064FF"/>
<path d="M173.826 85.8737H175.585L177.024 88.4323L178.464 85.8737H179.903L177.824 89.7116V92.59H176.225V89.7116L173.826 85.8737Z" fill="#0064FF"/>
<path d="M189.178 85.8737V87.153H186.3V88.7521H188.698V89.8715H186.3V91.6306H189.338V92.9099H184.7V86.0336H189.178V85.8737Z" fill="#0064FF"/>
<path d="M193.975 85.8737C195.095 85.8737 196.054 86.1935 196.694 86.8331C197.334 87.4728 197.653 88.2724 197.653 89.2319C197.653 90.1913 197.334 91.1508 196.694 91.7905C196.054 92.4301 195.255 92.7499 193.975 92.7499H191.737V85.8737H193.975V85.8737ZM196.054 89.2319C196.054 87.7926 195.415 86.9931 193.975 86.9931H193.336V91.4706H193.975C195.415 91.4706 196.054 90.6711 196.054 89.2319Z" fill="#0064FF"/>
<path d="M201.651 85.8737V92.7499H200.052V85.8737H201.651Z" fill="#0064FF"/>
<path d="M203.89 86.9931V85.7137H209.167V86.9931H207.248V92.59H205.649V86.9931H203.89Z" fill="#0064FF"/>
<path d="M213.005 85.8737V92.7499H211.406V85.8737H213.005Z" fill="#0064FF"/>
<path d="M216.363 91.7905C215.724 91.1508 215.404 90.3513 215.404 89.2319C215.404 88.2724 215.724 87.3129 216.363 86.6732C217.003 86.0336 217.803 85.7137 218.922 85.7137C219.881 85.7137 220.841 86.0336 221.481 86.6732C222.12 87.3129 222.44 88.1125 222.44 89.2319C222.44 90.1913 222.12 91.1508 221.481 91.7905C220.841 92.4301 220.041 92.75 218.922 92.75C217.803 92.75 217.003 92.4301 216.363 91.7905ZM220.361 90.831C220.681 90.5112 220.841 89.8715 220.841 89.2319C220.841 88.5922 220.681 87.9525 220.361 87.6327C220.041 87.3129 219.562 86.9931 218.922 86.9931C218.282 86.9931 217.803 87.153 217.483 87.6327C217.163 87.9525 217.003 88.5922 217.003 89.2319C217.003 89.8715 217.163 90.5112 217.483 90.831C217.803 91.1508 218.282 91.4706 218.922 91.4706C219.562 91.4706 220.041 91.3107 220.361 90.831Z" fill="#0064FF"/>
<path d="M226.758 85.8737L229.316 90.3512V85.8737H230.756V92.7499H229.156L226.278 87.7926V92.7499H224.839V85.8737H226.758Z" fill="#0064FF"/>
<path d="M123.773 29.4242C123.773 34.5414 119.935 38.3793 114.658 38.3793H107.942V20.469H114.658C120.095 20.469 123.773 24.3069 123.773 29.4242ZM119.935 29.4242C119.935 26.2259 117.856 24.147 114.658 24.147H111.78V34.8612H114.658C117.697 34.8612 119.935 32.6224 119.935 29.4242Z" fill="#0064FF"/>
<path d="M140.084 32.6224H129.53C129.85 34.5414 131.129 35.5008 132.888 35.5008C134.168 35.5008 135.287 34.8612 135.767 33.9017H139.765C138.805 36.9401 136.087 38.859 132.888 38.859C128.731 38.859 125.692 35.6608 125.692 31.503C125.692 27.3452 128.731 24.147 132.888 24.147C137.206 24.147 140.084 27.3452 140.084 31.3431C140.084 31.8228 140.084 32.1427 140.084 32.6224ZM129.69 30.0638H136.406C135.927 28.3047 134.647 27.5052 133.048 27.5052C131.289 27.3452 130.17 28.3047 129.69 30.0638Z" fill="#0064FF"/>
<path d="M149.2 38.859C145.042 38.859 141.844 35.6608 141.844 31.503C141.844 27.3452 145.042 24.3069 149.2 24.3069C152.718 24.3069 155.596 26.5457 156.236 29.9039H152.558C151.918 28.4646 150.639 27.825 149.2 27.825C147.121 27.825 145.681 29.4241 145.681 31.6629C145.681 33.9017 147.281 35.5008 149.2 35.5008C150.639 35.5008 151.918 34.7013 152.558 33.2621H156.396C155.596 36.4603 152.878 38.859 149.2 38.859Z" fill="#0064FF"/>
<path d="M167.11 38.3793L162.632 31.8229V38.3793H158.954V19.6694H162.632V30.8634L166.79 24.7867H171.108L166.47 31.3431L171.587 38.5393H167.11V38.3793Z" fill="#0064FF"/>
<path d="M186.3 30.0638V38.3793H182.622V30.5436C182.622 28.4647 181.822 27.5052 180.223 27.5052C178.304 27.5052 177.184 28.7845 177.184 31.1832V38.3793H173.506V19.6694H177.184V25.9061C178.304 24.9466 179.743 24.3069 181.342 24.3069C184.381 24.3069 186.3 26.5457 186.3 30.0638Z" fill="#0064FF"/>
<path d="M188.698 31.503C188.698 27.3452 191.897 24.147 196.214 24.147C200.532 24.147 203.73 27.1853 203.73 31.503C203.73 35.6608 200.532 38.859 196.214 38.859C191.897 38.859 188.698 35.6608 188.698 31.503ZM199.892 31.503C199.892 29.2642 198.293 27.6651 196.214 27.6651C194.135 27.6651 192.536 29.2642 192.536 31.503C192.536 33.7418 194.135 35.3409 196.214 35.3409C198.453 35.3409 199.892 33.7418 199.892 31.503Z" fill="#0064FF"/>
<path d="M206.129 32.6224V24.6267H209.807V32.1427C209.807 34.0616 210.926 35.3409 212.525 35.3409C214.285 35.3409 215.244 34.2215 215.244 32.1427V24.6267H218.922V32.6224C218.922 36.3004 216.363 38.859 212.366 38.859C208.688 38.859 206.129 36.3004 206.129 32.6224Z" fill="#0064FF"/>
<path d="M227.397 38.859C223.879 38.859 221.641 36.9401 221.641 33.9017H225.319C225.319 35.181 226.278 35.8207 227.557 35.8207C228.517 35.8207 229.476 35.3409 229.476 34.3815C229.476 33.422 228.197 33.1021 226.758 32.9422C224.519 32.6224 221.8 31.9827 221.8 28.7845C221.8 26.2258 224.039 24.3069 227.397 24.3069C230.756 24.3069 232.994 26.2258 232.994 28.9444H229.476C229.476 27.825 228.677 27.3452 227.397 27.3452C226.278 27.3452 225.478 27.825 225.478 28.6246C225.478 29.584 226.598 29.744 228.037 30.0638C230.276 30.5435 233.154 31.0233 233.154 34.3815C233.154 36.9401 230.915 38.859 227.397 38.859Z" fill="#0064FF"/>
<path d="M249.306 32.6224H238.911C239.231 34.5414 240.51 35.5008 242.269 35.5008C243.549 35.5008 244.668 34.8612 245.148 33.9017H249.146C248.186 36.9401 245.468 38.859 242.269 38.859C238.112 38.859 235.073 35.6608 235.073 31.503C235.073 27.3452 238.112 24.147 242.269 24.147C246.587 24.147 249.465 27.3452 249.465 31.3431C249.306 31.8228 249.306 32.1427 249.306 32.6224ZM238.911 30.0638H245.628C245.148 28.3047 243.869 27.5052 242.269 27.5052C240.51 27.3452 239.391 28.3047 238.911 30.0638Z" fill="#0064FF"/>
<path d="M118.176 69.0828L111.78 60.2876V69.0828H107.942V51.1725H111.78V59.488L117.697 51.1725H122.174L116.097 59.8078L122.814 69.0828H118.176Z" fill="#00003C"/>
<path d="M123.453 63.3259V55.3302H127.131V62.8462C127.131 64.7651 128.251 66.0444 129.85 66.0444C131.609 66.0444 132.568 64.7651 132.568 62.8462V55.3302H136.246V63.3259C136.246 67.0039 133.688 69.5625 129.69 69.5625C126.012 69.5625 123.453 67.0039 123.453 63.3259Z" fill="#00003C"/>
<path d="M154.637 62.2065C154.637 66.3643 151.598 69.5626 147.44 69.5626C145.681 69.5626 144.242 68.9229 143.123 67.9634L142.643 69.0828H139.925V50.3729H143.603V56.1298C144.722 55.3302 146.001 55.0104 147.44 55.0104C151.438 54.8505 154.637 58.0488 154.637 62.2065ZM150.799 62.2065C150.799 59.9678 149.2 58.3686 146.961 58.3686C144.722 58.3686 143.123 59.9678 143.123 62.2065C143.123 64.2854 144.722 66.0445 146.961 66.0445C149.2 66.0445 150.799 64.4453 150.799 62.2065Z" fill="#00003C"/>
<path d="M170.628 63.3259H160.234C160.553 65.2448 161.833 66.2043 163.592 66.2043C164.871 66.2043 165.99 65.5647 166.47 64.6052H170.468C169.509 67.6436 166.79 69.5625 163.592 69.5625C159.434 69.5625 156.396 66.3643 156.396 62.2065C156.396 58.0487 159.434 54.8505 163.592 54.8505C167.909 54.8505 170.788 58.0487 170.788 62.0466C170.628 62.5263 170.628 62.8461 170.628 63.3259ZM160.234 60.7673H166.95C166.47 59.0082 165.191 58.2087 163.592 58.2087C161.833 58.0487 160.713 59.0082 160.234 60.7673Z" fill="#00003C"/>
<path d="M181.662 55.1703V58.6884H180.063C177.984 58.6884 177.184 59.6479 177.184 61.8867V69.0828H173.506V55.3302H175.905L176.545 57.0892C177.504 55.8099 178.784 55.3302 180.543 55.3302H181.662V55.1703Z" fill="#00003C"/>
<path d="M196.534 60.7673V69.0828H192.856V61.247C192.856 59.1681 192.057 58.2087 190.457 58.2087C188.538 58.2087 187.419 59.6479 187.419 61.8867V69.0828H183.741V55.3302H186.3L187.099 57.0892C188.219 55.8099 189.818 55.0104 191.737 55.0104C194.455 55.0104 196.534 57.2492 196.534 60.7673Z" fill="#00003C"/>
<path d="M213.165 63.3259H202.771C203.091 65.2448 204.37 66.2043 206.129 66.2043C207.408 66.2043 208.528 65.5647 209.007 64.6052H213.005C212.046 67.6436 209.327 69.5625 206.129 69.5625C201.971 69.5625 198.933 66.3643 198.933 62.2065C198.933 58.0487 201.971 54.8505 206.129 54.8505C210.447 54.8505 213.325 58.0487 213.325 62.0466C213.325 62.5263 213.165 62.8461 213.165 63.3259ZM202.771 60.7673H209.487C209.007 59.0082 207.728 58.2087 206.129 58.2087C204.37 58.0487 203.25 59.0082 202.771 60.7673Z" fill="#00003C"/>
<path d="M224.359 65.7246V69.0828H221.64C218.602 69.0828 216.683 67.1638 216.683 64.1255V58.2087H214.284V57.569L219.721 51.8121H220.361V55.4901H224.199V58.5285H220.521V63.9656C220.521 65.2449 221.321 66.0445 222.6 66.0445H224.359V65.7246Z" fill="#00003C"/>
<path d="M240.031 63.3259H229.636C229.956 65.2448 231.235 66.2043 232.994 66.2043C234.274 66.2043 235.393 65.5647 235.873 64.6052H239.871C238.911 67.6436 236.193 69.5625 232.994 69.5625C228.837 69.5625 225.798 66.3643 225.798 62.2065C225.798 58.0487 228.837 54.8505 232.994 54.8505C237.312 54.8505 240.19 58.0487 240.19 62.0466C240.19 62.5263 240.031 62.8461 240.031 63.3259ZM229.636 60.7673H236.353C235.873 59.0082 234.593 58.2087 232.994 58.2087C231.235 58.0487 230.116 59.0082 229.636 60.7673Z" fill="#00003C"/>
<path d="M247.706 69.5625C244.188 69.5625 241.95 67.6436 241.95 64.6052H245.628C245.628 65.8845 246.587 66.5242 247.866 66.5242C248.826 66.5242 249.785 66.0444 249.785 65.0849C249.785 64.1255 248.666 63.8056 247.067 63.6457C244.828 63.3259 242.109 62.6862 242.109 59.488C242.109 56.9293 244.348 55.0104 247.706 55.0104C251.065 55.0104 253.303 56.9293 253.303 59.6479H249.785C249.785 58.5285 248.986 58.0487 247.706 58.0487C246.587 58.0487 245.788 58.5285 245.788 59.328C245.788 60.2875 246.907 60.4474 248.346 60.7673C250.585 61.247 253.463 61.7268 253.463 65.0849C253.463 67.6436 251.225 69.5625 247.706 69.5625Z" fill="#00003C"/>
<path d="M275.691 57.4091C275.691 60.9272 272.973 63.6458 269.295 63.6458H266.256V69.2428H262.418V51.1725H269.295C272.973 51.1725 275.691 53.891 275.691 57.4091ZM271.853 57.4091C271.853 55.9699 270.894 54.8505 269.295 54.8505H266.416V59.9677H269.295C270.734 59.9677 271.853 58.8484 271.853 57.4091Z" fill="#00003C"/>
<path d="M277.93 50.3729H281.608V69.2428H277.93V50.3729Z" fill="#00003C"/>
<path d="M299.199 55.3302V69.0828H296.32L296 67.8035C294.881 68.9229 293.282 69.4026 291.523 69.4026C287.365 69.4026 284.327 66.2044 284.327 62.0466C284.327 57.8888 287.365 54.6906 291.523 54.6906C293.282 54.6906 294.881 55.3302 296 56.4496L296.32 55.1703H299.199V55.3302ZM295.521 62.2065C295.521 59.9677 293.921 58.3686 291.683 58.3686C289.444 58.3686 287.845 59.9677 287.845 62.2065C287.845 64.4453 289.444 66.0444 291.683 66.0444C294.081 66.0444 295.521 64.4453 295.521 62.2065Z" fill="#00003C"/>
<path d="M320.787 58.5285H317.269V69.0829H313.591V58.5285H307.354V63.6458C307.354 64.9251 308.154 65.7247 309.433 65.7247H310.872V69.0829H308.474C305.435 69.0829 303.516 67.1639 303.516 64.1255V58.5285H300.958V57.729L306.395 51.6523H307.034V55.4902H313.431V54.051C313.431 51.3324 314.87 49.7333 317.749 49.7333H320.467V52.6117H318.388C317.429 52.6117 316.949 53.0915 316.949 54.051V55.3303H320.467V58.5285H320.787Z" fill="#00003C"/>
<path d="M322.066 62.2065C322.066 58.0487 325.265 54.8505 329.582 54.8505C333.9 54.8505 337.098 57.8888 337.098 62.2065C337.098 66.3643 333.9 69.5625 329.582 69.5625C325.265 69.5625 322.066 66.3643 322.066 62.2065ZM333.26 62.2065C333.26 59.9677 331.661 58.3686 329.582 58.3686C327.503 58.3686 325.904 59.9677 325.904 62.2065C325.904 64.4453 327.503 66.0444 329.582 66.0444C331.661 66.0444 333.26 64.4453 333.26 62.2065Z" fill="#00003C"/>
<path d="M347.972 55.1703V58.6884H346.373C344.294 58.6884 343.495 59.6479 343.495 61.8867V69.0828H339.817V55.3302H342.215L342.855 57.0892C343.815 55.8099 345.094 55.3302 346.853 55.3302H347.972V55.1703Z" fill="#00003C"/>
<path d="M370.36 60.4474V69.0828H366.682V61.0871C366.682 59.1681 365.883 58.2087 364.603 58.2087C363.004 58.2087 361.885 59.488 361.885 61.5668V69.0828H358.207V61.0871C358.207 59.1681 357.567 58.2087 356.128 58.2087C354.369 58.2087 353.409 59.488 353.409 61.5668V69.0828H349.731V55.3302H352.29L352.93 57.0892C353.889 55.8099 355.488 55.0104 357.087 55.0104C358.846 55.0104 360.286 55.8099 361.085 57.2492C362.045 55.9699 363.644 55.0104 365.403 55.0104C368.441 55.0104 370.36 57.2492 370.36 60.4474Z" fill="#00003C"/>
</svg>
