<svg width="295" height="101" viewBox="0 0 295 101" fill="none" xmlns="http://www.w3.org/2000/svg">
<path d="M111.532 0.320557V1.6031H108.693V3.36658H110.901V4.48881H108.693V7.21421H107.115V0.320557H111.532V0.320557Z" fill="#00003C"/>
<path d="M115.318 0.320557V5.93167H118V7.21421H113.741V0.320557H115.318Z" fill="#00003C"/>
<path d="M124.152 0.320557L126.361 7.21421H124.783L124.31 5.61103H121.786L121.313 7.21421H119.893L122.102 0.320557H124.152ZM123.995 4.64913L123.048 1.6031L122.102 4.64913H123.995Z" fill="#00003C"/>
<path d="M130.305 0.320557L132.829 4.80944V0.320557H134.249V7.21421H132.671L129.832 2.24437V7.21421H128.412V0.320557H130.305Z" fill="#00003C"/>
<path d="M136.457 1.6031V0.320557H141.663V1.6031H139.77V7.21421H138.193V1.6031H136.457Z" fill="#00003C"/>
<path d="M122.733 27.8953C122.733 33.0254 118.946 36.873 113.741 36.873H107.115V18.9175H113.741C118.946 18.9175 122.733 22.6048 122.733 27.8953ZM118.789 27.8953C118.789 24.6889 116.738 22.6048 113.583 22.6048H110.743V33.3461H113.583C116.738 33.1857 118.789 30.9413 118.789 27.8953Z" fill="#0064FF"/>
<path d="M138.823 30.9413H128.569C128.885 32.8651 130.147 33.827 131.882 33.827C133.144 33.827 134.249 33.1857 134.722 32.2238H138.666C137.719 35.2699 135.037 37.1937 131.882 37.1937C127.781 37.1937 124.783 33.9873 124.783 29.8191C124.783 25.6508 127.781 22.4445 131.882 22.4445C136.142 22.4445 138.981 25.6508 138.981 29.6587C138.823 30.3 138.823 30.6206 138.823 30.9413ZM128.569 28.3762H135.195C134.722 26.6127 133.46 25.8111 131.882 25.8111C130.147 25.8111 129.043 26.773 128.569 28.3762Z" fill="#0064FF"/>
<path d="M147.816 37.1936C143.714 37.1936 140.559 33.9873 140.559 29.819C140.559 25.6508 143.714 22.6047 147.816 22.6047C151.286 22.6047 154.126 24.8492 154.757 28.2159H151.128C150.497 26.773 149.235 26.1317 147.816 26.1317C145.765 26.1317 144.345 27.7349 144.345 29.9793C144.345 32.0635 145.922 33.827 147.816 33.827C149.235 33.827 150.497 33.0254 151.128 31.5825H154.914C154.126 34.9492 151.444 37.1936 147.816 37.1936Z" fill="#0064FF"/>
<path d="M165.484 36.873L161.067 30.3V36.873H157.438V17.9556H161.067V29.1778L165.168 23.0857H169.428L164.853 29.6587L169.901 36.873H165.484Z" fill="#0064FF"/>
<path d="M184.414 28.3762V36.873H180.786V29.0175C180.786 26.9333 179.997 25.9714 178.42 25.9714C176.527 25.9714 175.422 27.254 175.422 29.6587V36.873H171.794V17.9556H175.422V24.2079C176.527 23.246 177.947 22.6048 179.524 22.6048C182.521 22.7651 184.414 24.8492 184.414 28.3762Z" fill="#0064FF"/>
<path d="M186.781 29.9793C186.781 25.8111 189.936 22.6047 194.195 22.6047C198.454 22.6047 201.61 25.6508 201.61 29.9793C201.61 34.1476 198.454 37.354 194.195 37.354C189.936 37.1936 186.781 34.1476 186.781 29.9793ZM197.823 29.9793C197.823 27.7349 196.246 26.1317 194.195 26.1317C192.144 26.1317 190.567 27.7349 190.567 29.9793C190.567 32.2238 192.144 33.827 194.195 33.827C196.246 33.827 197.823 32.2238 197.823 29.9793Z" fill="#0064FF"/>
<path d="M203.976 30.9413V22.9254H207.604V30.4603C207.604 32.3841 208.708 33.6667 210.286 33.6667C212.021 33.6667 212.968 32.5445 212.968 30.4603V22.9254H216.596V30.9413C216.596 34.6286 214.072 37.1937 210.128 37.1937C206.5 37.1937 203.976 34.7889 203.976 30.9413Z" fill="#0064FF"/>
<path d="M224.957 37.1936C221.487 37.1936 219.278 35.2698 219.278 32.2238H222.906C222.906 33.5063 223.853 34.1476 225.115 34.1476C226.061 34.1476 227.008 33.6667 227.008 32.7047C227.008 31.7428 225.746 31.4222 224.326 31.2619C222.118 30.9413 219.436 30.3 219.436 27.0936C219.436 24.5286 221.644 22.6047 224.957 22.6047C228.27 22.6047 230.479 24.5285 230.479 27.2539H227.008C227.008 26.1317 226.219 25.6508 224.957 25.6508C223.853 25.6508 223.064 26.1317 223.064 26.9333C223.064 27.8952 224.168 28.0555 225.588 28.3762C227.797 28.8571 230.636 29.3381 230.636 32.7047C230.636 35.4301 228.428 37.1936 224.957 37.1936Z" fill="#0064FF"/>
<path d="M246.569 30.9413H236.315C236.631 32.8651 237.893 33.827 239.628 33.827C240.89 33.827 241.995 33.1857 242.468 32.2238H246.412C245.465 35.2699 242.783 37.1937 239.628 37.1937C235.527 37.1937 232.529 33.9873 232.529 29.8191C232.529 25.6508 235.527 22.4445 239.628 22.4445C243.888 22.4445 246.727 25.6508 246.727 29.6587C246.569 30.3 246.569 30.6206 246.569 30.9413ZM236.315 28.3762H242.941C242.468 26.6127 241.206 25.8111 239.628 25.8111C237.893 25.8111 236.631 26.773 236.315 28.3762Z" fill="#0064FF"/>
<path d="M117.211 67.654L110.901 58.8366V67.654H107.115V49.6985H110.901V58.035L116.738 49.6985H121.155L115.16 58.3556L121.786 67.654H117.211Z" fill="#00003C"/>
<path d="M122.417 61.7223V53.7064H126.045V61.2413C126.045 63.1652 127.15 64.4477 128.727 64.4477C130.462 64.4477 131.409 63.1652 131.409 61.2413V53.7064H135.037V61.7223C135.037 65.4096 132.513 67.9747 128.569 67.9747C124.941 67.9747 122.417 65.5699 122.417 61.7223Z" fill="#00003C"/>
<path d="M153.021 60.7603C153.021 64.9285 150.024 68.1349 145.922 68.1349C144.187 68.1349 142.767 67.4936 141.663 66.5317L141.19 67.6539H138.508V48.7365H142.136V54.5079C143.241 53.7063 144.503 53.3857 145.922 53.3857C150.024 53.3857 153.021 56.592 153.021 60.7603ZM149.393 60.7603C149.393 58.5158 147.815 56.9126 145.607 56.9126C143.398 56.9126 141.821 58.5158 141.821 60.7603C141.821 62.8444 143.398 64.6079 145.607 64.6079C147.815 64.4476 149.393 62.8444 149.393 60.7603Z" fill="#00003C"/>
<path d="M168.954 61.7223H158.7C159.016 63.6461 160.278 64.608 162.013 64.608C163.275 64.608 164.38 63.9667 164.853 63.0048H168.797C167.85 66.0509 165.168 67.9747 162.013 67.9747C157.912 67.9747 154.914 64.7683 154.914 60.6001C154.914 56.4318 157.912 53.2255 162.013 53.2255C166.273 53.2255 169.112 56.4318 169.112 60.4397C168.954 61.081 168.954 61.4017 168.954 61.7223ZM158.7 59.1572H165.326C164.853 57.3937 163.591 56.5921 162.013 56.5921C160.278 56.5921 159.174 57.554 158.7 59.1572Z" fill="#00003C"/>
<path d="M179.84 53.7064V57.2334H178.262C176.211 57.2334 175.422 58.1953 175.422 60.4398V67.6541H171.794V53.8667H174.16L174.791 55.6302C175.738 54.3477 177 53.8667 178.735 53.8667H179.84V53.7064Z" fill="#00003C"/>
<path d="M194.511 59.3174V67.6539H190.882V59.7984C190.882 57.7143 190.093 56.7524 188.516 56.7524C186.623 56.7524 185.519 58.1952 185.519 60.4397V67.6539H181.89V53.8667H184.414L185.203 55.6301C186.307 54.3476 187.885 53.546 189.778 53.546C192.46 53.546 194.511 55.7905 194.511 59.3174Z" fill="#00003C"/>
<path d="M210.917 61.7223H200.663C200.979 63.6461 202.241 64.608 203.976 64.608C205.238 64.608 206.342 63.9667 206.815 63.0048H210.759C209.813 66.0509 207.131 67.9747 203.976 67.9747C199.874 67.9747 196.877 64.7683 196.877 60.6001C196.877 56.4318 199.874 53.2255 203.976 53.2255C208.235 53.2255 211.075 56.4318 211.075 60.4397C211.075 61.081 210.917 61.4017 210.917 61.7223ZM200.663 59.1572H207.289C206.815 57.3937 205.553 56.5921 203.976 56.5921C202.241 56.5921 201.136 57.554 200.663 59.1572Z" fill="#00003C"/>
<path d="M221.802 64.2874V67.654H219.278C216.281 67.654 214.388 65.7302 214.388 62.6842V56.7525H211.864V55.9509L217.227 50.1794H217.858V53.8667H221.644V56.9128H218.016V62.3636C218.016 63.6461 218.805 64.4477 220.067 64.4477H221.802V64.2874Z" fill="#00003C"/>
<path d="M237.42 61.7223H227.166C227.481 63.6461 228.743 64.608 230.479 64.608C231.741 64.608 232.845 63.9667 233.318 63.0048H237.262C236.315 66.0509 233.634 67.9747 230.479 67.9747C226.377 67.9747 223.38 64.7683 223.38 60.6001C223.38 56.4318 226.377 53.2255 230.479 53.2255C234.738 53.2255 237.577 56.4318 237.577 60.4397C237.577 61.081 237.42 61.4017 237.42 61.7223ZM227.166 59.1572H233.791C233.318 57.3937 232.056 56.5921 230.479 56.5921C228.743 56.5921 227.639 57.554 227.166 59.1572Z" fill="#00003C"/>
<path d="M244.992 67.9747C241.521 67.9747 239.313 66.0508 239.313 63.0048H242.941C242.941 64.2873 243.888 64.9286 245.15 64.9286C246.096 64.9286 247.043 64.4477 247.043 63.4858C247.043 62.5238 245.938 62.2032 244.361 62.0429C242.152 61.7223 239.471 61.081 239.471 57.8746C239.471 55.3095 241.679 53.3857 244.992 53.3857C248.305 53.3857 250.513 55.3095 250.513 58.0349H247.043C247.043 56.9127 246.254 56.4318 244.992 56.4318C243.888 56.4318 243.099 56.9127 243.099 57.7143C243.099 58.6762 244.203 58.8365 245.623 59.1572C247.831 59.6381 250.671 60.1191 250.671 63.4858C250.671 66.2112 248.305 67.9747 244.992 67.9747Z" fill="#00003C"/>
<path d="M115.16 98.7556C109.954 98.7556 106.011 94.7476 106.011 89.4572C106.011 84.1667 109.954 79.9984 115.16 79.9984C119.42 79.9984 122.89 82.8841 123.679 87.2127H119.893C119.104 85.1286 117.369 83.846 115.16 83.846C112.163 83.846 109.954 86.2508 109.954 89.4572C109.954 92.6635 112.163 95.0683 115.16 95.0683C117.527 95.0683 119.262 93.6254 119.893 91.381H123.679C123.048 95.8698 119.577 98.7556 115.16 98.7556Z" fill="#00003C"/>
<path d="M126.519 79.5175H130.147V98.4349H126.519V79.5175Z" fill="#00003C"/>
<path d="M133.46 92.5032V84.4873H137.088V92.0222C137.088 93.946 138.192 95.2286 139.77 95.2286C141.505 95.2286 142.452 93.946 142.452 92.0222V84.4873H146.08V92.5032C146.08 96.1905 143.556 98.7556 139.612 98.7556C135.984 98.7556 133.46 96.3508 133.46 92.5032Z" fill="#00003C"/>
<path d="M154.441 98.7555C150.971 98.7555 148.762 96.8317 148.762 93.7857H152.39C152.39 95.0682 153.337 95.7095 154.599 95.7095C155.545 95.7095 156.492 95.2286 156.492 94.2666C156.492 93.3047 155.388 92.9841 153.81 92.8238C151.602 92.5032 148.92 91.8619 148.92 88.6555C148.92 86.0904 151.128 84.1666 154.441 84.1666C157.754 84.1666 159.963 86.0904 159.963 88.8158H156.492C156.492 87.6936 155.703 87.2127 154.441 87.2127C153.337 87.2127 152.548 87.6936 152.548 88.4952C152.548 89.4571 153.652 89.6174 155.072 89.9381C157.281 90.419 160.12 90.9 160.12 94.2666C160.12 96.9921 157.912 98.7555 154.441 98.7555Z" fill="#00003C"/>
<path d="M171.321 95.0683V98.4349H168.639C165.642 98.4349 163.749 96.5111 163.749 93.4651V87.5333H161.224V86.7318L166.588 80.9603H167.219V84.6476H171.005V87.6937H167.377V93.1445C167.377 94.427 168.166 95.2286 169.428 95.2286H171.321V95.0683Z" fill="#00003C"/>
<path d="M186.781 92.5032H176.527C176.842 94.427 178.104 95.3889 179.84 95.3889C181.102 95.3889 182.206 94.7476 182.679 93.7857H186.623C185.676 96.8318 182.995 98.7556 179.84 98.7556C175.738 98.7556 172.741 95.5492 172.741 91.381C172.741 87.2127 175.738 84.0063 179.84 84.0063C184.099 84.0063 186.938 87.2127 186.938 91.2206C186.938 91.8619 186.938 92.1825 186.781 92.5032ZM176.527 89.9381H183.152C182.679 88.1746 181.417 87.373 179.84 87.373C178.262 87.373 177 88.3349 176.527 89.9381Z" fill="#00003C"/>
<path d="M197.666 84.4873V88.0143H196.088C194.037 88.0143 193.249 88.9762 193.249 91.2206V98.4349H189.62V84.6476H191.987L192.618 86.4111C193.564 85.1286 194.826 84.6476 196.561 84.6476H197.666V84.4873Z" fill="#00003C"/>
<path d="M214.072 98.7556C208.866 98.7556 204.922 94.7476 204.922 89.4572C204.922 84.1667 208.866 79.9984 214.072 79.9984C218.331 79.9984 221.802 82.8841 222.591 87.2127H218.805C218.016 85.1286 216.281 83.846 214.072 83.846C211.075 83.846 208.866 86.2508 208.866 89.4572C208.866 92.6635 211.075 95.0683 214.072 95.0683C216.438 95.0683 218.174 93.6254 218.805 91.381H222.591C221.96 95.8698 218.489 98.7556 214.072 98.7556Z" fill="#00003C"/>
<path d="M239.313 84.4873V98.2747H236.473L236.158 96.9921C235.053 98.1143 233.476 98.5953 231.741 98.5953C227.639 98.5953 224.642 95.3889 224.642 91.2207C224.642 87.0524 227.639 83.8461 231.741 83.8461C233.476 83.8461 235.053 84.4873 236.158 85.6096L236.473 84.327H239.313V84.4873ZM235.684 91.5413C235.684 89.2969 234.107 87.6937 231.898 87.6937C229.69 87.6937 228.112 89.2969 228.112 91.5413C228.112 93.7858 229.69 95.3889 231.898 95.3889C234.107 95.3889 235.684 93.6254 235.684 91.5413Z" fill="#00003C"/>
<path d="M250.987 84.4873V88.0143H249.409C247.358 88.0143 246.57 88.9762 246.57 91.2206V98.4349H242.941V84.6476H245.307L245.938 86.4111C246.885 85.1286 248.147 84.6476 249.882 84.6476H250.987V84.4873Z" fill="#00003C"/>
<path d="M260.925 84.4873V88.0143H259.348C257.297 88.0143 256.508 88.9762 256.508 91.2206V98.4349H252.88V84.6476H255.246L255.877 86.4111C256.823 85.1286 258.085 84.6476 259.821 84.6476H260.925V84.4873Z" fill="#00003C"/>
<path d="M262.818 84.6476H266.446V98.4349H262.818V84.6476ZM262.818 79.1968H266.446V82.7238H262.818V79.1968Z" fill="#00003C"/>
<path d="M283.168 92.5032H272.914C273.23 94.427 274.492 95.3889 276.227 95.3889C277.489 95.3889 278.594 94.7476 279.067 93.7857H283.011C282.064 96.8318 279.382 98.7556 276.227 98.7556C272.126 98.7556 269.128 95.5492 269.128 91.381C269.128 87.2127 272.126 84.0063 276.227 84.0063C280.487 84.0063 283.326 87.2127 283.326 91.2206C283.326 91.8619 283.326 92.1825 283.168 92.5032ZM273.072 89.9381H279.698C279.225 88.1746 277.962 87.373 276.385 87.373C274.65 87.373 273.388 88.3349 273.072 89.9381Z" fill="#00003C"/>
<path d="M294.053 84.4873V88.0143H292.476C290.425 88.0143 289.636 88.9762 289.636 91.2206V98.4349H286.008V84.6476H288.374L289.005 86.4111C289.952 85.1286 291.214 84.6476 292.949 84.6476H294.053V84.4873Z" fill="#00003C"/>
<path d="M43.8556 46.1715H32.4973V69.2572H43.8556C50.1658 69.2572 55.2139 64.1271 55.2139 57.7144C55.3716 51.3017 50.1658 46.1715 43.8556 46.1715Z" fill="#0066FF"/>
<path d="M66.8877 32.5445L62.3128 15.3905H62.1551L52.6898 25.0096L57.2647 42.4842L74.3021 47.1334L83.9251 37.354V37.1937L66.8877 32.5445Z" fill="#00003C"/>
<path d="M17.5107 82.7239L22.0855 100.038H22.2433L31.8663 90.2588L27.2914 72.9445L10.0962 68.2953L0.630981 77.9143V78.235L17.5107 82.7239Z" fill="#00003C"/>
<path d="M17.5107 32.5445L0.630981 37.1937V37.354L10.0962 47.1334L27.2914 42.4842L31.8663 25.0096L22.2433 15.3905H22.0855L17.5107 32.5445Z" fill="#00003C"/>
<path d="M66.8877 82.7239L83.9251 78.235V77.9143L74.3021 68.2953L57.2647 72.9445L52.6898 90.2588L62.1551 100.038H62.3128L66.8877 82.7239Z" fill="#00003C"/>
</svg>
