<svg version="1.1" xmlns="http://www.w3.org/2000/svg" viewBox="0 0 1102.56640625 947.859375" width="2205.1328125" height="1895.71875">
  <!-- svg-source:excalidraw -->
  
  <defs>
    <style class="style-fonts">
      @font-face {
        font-family: "Virgil";
        src: url("https://excalidraw.com/Virgil.woff2");
      }
      @font-face {
        font-family: "Cascadia";
        src: url("https://excalidraw.com/Cascadia.woff2");
      }
    </style>
  </defs>
  <rect x="0" y="0" width="1102.56640625" height="947.859375" fill="#ffffff"></rect><g stroke-linecap="round" transform="translate(425.42578125 380.4375) rotate(0 117.669921875 28.44140625)"><path d="M-0.56 1 C57.67 1.22, 111.38 0.2, 234.85 0.92 M0.8 0.72 C55.2 -0.2, 110.6 -0.75, 234.51 -0.55 M233.77 0.61 C235.11 20.23, 235.83 37.95, 236.84 54.97 M234.37 -0.17 C235.33 19.54, 236.34 41.58, 236 57.16 M233.69 56.45 C167.1 55.19, 100.07 57.63, 0.84 57.94 M235.99 57.32 C172.39 54.64, 110.05 54.27, 0.48 56.52 M-0.61 57.77 C-1.29 37.55, 0.07 16.25, -0.54 1.62 M-0.32 57.33 C-0.57 42.9, 0.5 27.82, 0.28 0.06" stroke="#5c940d" stroke-width="2" fill="none"></path></g><g transform="translate(435.875 388.2890625) rotate(0 91 17)"><text x="0" y="27" font-family="Cascadia, Segoe UI Emoji" font-size="28px" fill="#5c940d" text-anchor="start" style="white-space: pre;" direction="ltr">Application</text></g><g stroke-linecap="round" transform="translate(414.640625 677.7734375) rotate(0 122.81640625 68.740234375)"><path d="M-0.12 -0.7 L245.86 -0.55 L247.52 136.15 L-0.26 137.88" stroke="none" stroke-width="0" fill="#ffffff"></path><path d="M-0.1 -1.62 C55.25 1.09, 108.12 1.06, 244.08 0.54 M0.67 0.69 C52.68 1.1, 104.96 0.16, 245.87 0.02 M245.53 0.54 C245.1 42.92, 245.46 83.5, 244.15 135.5 M245.96 0.02 C246.17 39.76, 246.61 80.5, 245.69 137.8 M244.44 137.38 C177.75 138.03, 105.85 136.61, -0.01 138.34 M246.16 137.07 C154.28 135.99, 62.69 136.01, 0.71 137.03 M-1.04 136.93 C1.1 86.64, -0.19 36.38, 0.92 1.77 M-0.28 138.31 C-1.8 89.51, -0.38 42.39, 0.18 -0.04" stroke="#5c940d" stroke-width="2" fill="none"></path></g><g transform="translate(427.8671875 694.13671875) rotate(0 99.5 50.5)"><text x="99.5" y="26.666666666666664" font-family="Cascadia, Segoe UI Emoji" font-size="28px" fill="#5c940d" text-anchor="middle" style="white-space: pre;" direction="ltr">Application</text><text x="99.5" y="60.33333333333333" font-family="Cascadia, Segoe UI Emoji" font-size="28px" fill="#5c940d" text-anchor="middle" style="white-space: pre;" direction="ltr">of</text><text x="99.5" y="94" font-family="Cascadia, Segoe UI Emoji" font-size="28px" fill="#5c940d" text-anchor="middle" style="white-space: pre;" direction="ltr">Applications</text></g><g stroke-linecap="round" transform="translate(425.42578125 127.57421875) rotate(0 117.669921875 28.44140625)"><path d="M1.03 0.11 C81.97 -2.19, 164.9 -2.68, 234.28 1.61 M-0.23 0.42 C49.64 -0.02, 99.15 -1.02, 235.37 0.58 M234.33 -1.93 C236.55 9.99, 234.99 21.49, 234.33 55.21 M235.71 0.06 C235.51 21.04, 236.34 42.37, 236 57.3 M234.41 56.53 C156.53 57.18, 81.29 58.35, 1.07 57.39 M235.17 57.58 C171.39 59.51, 109.19 58.68, -0.65 56.87 M1.92 56.49 C-2.04 39.9, -1.67 23.77, -1.76 1.99 M0.45 56.54 C-0.32 41.73, -1.11 25.1, 0.52 -0.55" stroke="#000000" stroke-width="2" fill="none"></path></g><g transform="translate(435.875 135.42578125) rotate(0 83 17)"><text x="0" y="27" font-family="Cascadia, Segoe UI Emoji" font-size="28px" fill="#000000" text-anchor="start" style="white-space: pre;" direction="ltr">Deployment</text></g><g stroke-linecap="round" transform="translate(783.7421875 387.50390625) rotate(0 117.669921875 28.44140625)"><path d="M-0.47 1.14 C62.68 -1.22, 125.95 -1.79, 233.79 0.43 M0.72 -0.48 C73.41 0.93, 147.06 2.2, 236.11 0.77 M234.96 1.94 C236.41 20.58, 234.76 40.55, 236.64 58.7 M236.17 0.34 C234.78 13.81, 235.23 26.16, 234.95 57.36 M234.58 57.29 C168.9 54.05, 105.78 56.58, 0.03 58.37 M234.76 57.42 C168.6 56.38, 100.38 56.04, 0.23 56.48 M0.54 57.83 C-1.94 41.31, -0.47 24.13, 1.13 0.54 M-0.85 57.2 C0.06 41.83, -0.02 24.62, -0.09 -0.77" stroke="#e67700" stroke-width="4" fill="none"></path></g><g stroke-linecap="round" transform="translate(783.7421875 251.1484375) rotate(0 117.669921875 28.44140625)"><path d="M0.39 -1.64 C81.52 -1.92, 164.87 0.69, 234.52 -1.28 M0.67 -0.06 C66.03 -1.56, 130.89 -0.51, 235.23 0.78 M234.24 1.09 C236 16.66, 236.84 31.04, 235.63 56.67 M235.42 0.78 C234.71 22.15, 234.42 43.6, 234.75 57.38 M235.22 57.68 C150.63 57.83, 66.81 57.77, 0.34 57.62 M234.64 57.46 C179.63 56.95, 123.35 57.07, 0.65 57.02 M0.69 55.52 C1.37 44.34, -0.61 29.72, 1.95 -1.74 M-0.88 56.87 C0.34 39.4, 0.29 23.25, -0.3 -0.28" stroke="#a61e4d" stroke-width="4" fill="none"></path></g><g transform="translate(794.19140625 259) rotate(0 107.5 17)"><text x="0" y="27" font-family="Cascadia, Segoe UI Emoji" font-size="28px" fill="#a61e4d" text-anchor="start" style="white-space: pre;" direction="ltr">Image Updater</text></g><g transform="translate(794.19140625 395.35546875) rotate(0 58.5 17)"><text x="0" y="27" font-family="Cascadia, Segoe UI Emoji" font-size="28px" fill="#e67700" text-anchor="start" style="white-space: pre;" direction="ltr">Argo CD</text></g><g stroke-opacity="0.4" fill-opacity="0.4" stroke-linecap="round" transform="translate(783.7109375 456.53515625) rotate(0 117.669921875 28.44140625)"><path d="M0.28 -0.92 C77.85 -2.88, 156.25 -2.47, 236.33 -0.65 M-0.25 -0.8 C53.41 0, 107.1 0.54, 235.26 0.3 M236.27 -1.76 C234.26 14.54, 232.97 33.42, 235.54 54.98 M235.31 0.96 C235.54 12.76, 235 25.96, 235.77 56.43 M236.14 56.33 C176.05 56.1, 116.62 57.14, 1.48 56 M236.1 56.17 C172.92 58.35, 110.05 58.1, 0.22 56.41 M-1.45 55.37 C-2 44.81, 1.72 29.08, 1.18 1.53 M-0.83 57.2 C-0.1 42.06, -0.43 28.31, 0.76 0.17" stroke="#3366ff" stroke-width="4" fill="none"></path></g><g stroke-opacity="0.4" fill-opacity="0.4" transform="translate(794.16015625 464.38671875) rotate(0 99.5 17)"><text x="0" y="27" font-family="Cascadia, Segoe UI Emoji" font-size="28px" fill="#3366ff" text-anchor="start" style="white-space: pre;" direction="ltr">werf sidecar</text></g><g stroke-opacity="0.5" fill-opacity="0.5" stroke-linecap="round" transform="translate(765.3359375 123.83203125) rotate(0 137.185546875 222.9453125)"><path d="M-0.11 0.33 C87.61 0.33, 173.81 -0.82, 275.83 1.04 M-0.26 0.65 C64.81 0.09, 129.57 -0.02, 274.71 0.18 M273.86 -0.63 C273.87 101.95, 273.57 202.09, 274.21 445.43 M274.09 -0.24 C273.35 160.95, 273 321.96, 274.76 445.97 M273.67 445.6 C174.32 447.02, 70.58 446.98, 0.47 446.19 M274.49 446.55 C198 445.39, 122.05 444.22, -0.48 445.15 M0.96 446.49 C1.4 318, 1.42 192.15, 0.84 0.17 M0.19 445.72 C-0.3 309.04, -0.05 173.03, -0.38 0.22" stroke="#364fc7" stroke-width="2" fill="none"></path></g><g transform="translate(776.92578125 135.734375) rotate(0 75 17)"><text x="0" y="27" font-family="Cascadia, Segoe UI Emoji" font-size="28px" fill="#364fc7" text-anchor="start" style="white-space: pre;" direction="ltr">Deckhouse</text></g><g stroke-opacity="0.2" fill-opacity="0.2" stroke-linecap="round" transform="translate(392.31640625 10) rotate(0 350.125 415.001953125)"><path d="M-0.49 -0.71 C168.69 -0.05, 337.89 1.31, 700.87 -0.25 M-0.35 -0.36 C169.15 1.42, 338.84 1.11, 700.31 0.34 M700.95 -0.75 C698.92 184.05, 700 368.26, 699.72 829.48 M699.9 -0.02 C699.52 271.77, 699.95 542.75, 700.49 830.29 M699.46 830.34 C494.94 830.7, 289.01 830.96, -0.75 830.32 M700.03 829.98 C499.7 832.32, 300.22 832.19, 0.18 830.07 M0.4 829.86 C-2.97 515.28, -3.77 200.32, 0.57 -0.37 M-0.17 830.18 C-3.16 600.51, -3.44 371.63, -0.26 -0.09" stroke="#364fff" stroke-width="4" fill="none"></path></g><g transform="translate(404.4609375 23.7578125) rotate(0 83 17)"><text x="0" y="27" font-family="Cascadia, Segoe UI Emoji" font-size="28px" fill="#364fc7" text-anchor="start" style="white-space: pre;" direction="ltr">Kubernetes</text></g><g stroke-opacity="0.2" fill-opacity="0.2" stroke-linecap="round" transform="translate(27.5234375 10) rotate(0 142.099609375 210.171875)"><path d="M-0.8 0.56 C105.32 0.13, 210.08 1.12, 282.81 -0.63 M0.2 -0.65 C71.64 1.74, 143.86 0.68, 284.16 -0.41 M284.67 0.64 C286.59 145.7, 286.14 294.06, 284.28 419.28 M284.45 0.33 C285.15 160.58, 284.81 320.66, 284.02 420.7 M285.7 420.22 C197.77 420.08, 114.11 417.61, -0.84 420.32 M284.91 419.99 C196.39 420.32, 108.15 420.99, -0.35 420.1 M-0.77 419.31 C0.67 319.57, -0.44 219.58, -0.3 0.01 M-0.51 419.99 C-0.84 286.51, -1.55 152.54, -0.11 -0.28" stroke="#5c940d" stroke-width="4" fill="none"></path></g><g transform="translate(42.8984375 25.10546875) rotate(0 74.5 33.5)"><text x="0" y="27.5" font-family="Cascadia, Segoe UI Emoji" font-size="28px" fill="#5c940d" text-anchor="start" style="white-space: pre;" direction="ltr">Container</text><text x="0" y="61" font-family="Cascadia, Segoe UI Emoji" font-size="28px" fill="#5c940d" text-anchor="start" style="white-space: pre;" direction="ltr">Registry</text></g><g stroke-linecap="round" transform="translate(81.515625 259.296875) rotate(0 93.71875 28.44140625)"><path d="M-0.2 -0.18 C56.21 2.51, 113.54 1.79, 186.51 0.36 M0.7 -0.24 C74.68 -0.55, 149.34 -0.1, 187.3 0.72 M185.96 -1.43 C185.78 19.34, 188.71 44.14, 186.44 57.32 M187.1 0.17 C188.11 22.27, 186.91 44.46, 187.32 57.47 M187.76 57.02 C112.94 56.72, 37.27 55.87, 0.92 57.18 M186.93 56.64 C130.35 54.46, 72.67 55.82, 0.45 56.24 M-0.85 57.83 C-0.37 42.7, -2.14 28.04, -0.39 0.64 M-0.1 57.51 C1.48 43.93, -0.02 29.42, -0.76 0.15" stroke="#e67700" stroke-width="2" fill="none"></path></g><g transform="translate(91.734375 267.1484375) rotate(0 83 17)"><text x="0" y="27" font-family="Cascadia, Segoe UI Emoji" font-size="28px" fill="#e67700" text-anchor="start" style="white-space: pre;" direction="ltr">Helm Chart</text></g><g stroke-linecap="round" transform="translate(81.515625 329.890625) rotate(0 93.71875 28.44140625)"><path d="M-1.45 -1.35 C61.81 0.39, 122.84 1.86, 185.79 -0.29 M0.38 0.93 C45.31 1.12, 90.69 1.86, 186.48 -0.57 M185.83 1.25 C186.7 21.95, 188.72 40.62, 189.3 57.7 M187.96 0.38 C187.09 11.69, 186.8 23.86, 186.86 56.43 M188.7 57.81 C115.41 58.23, 42.38 55.21, 0.65 58.18 M188.21 57.64 C122.32 59.27, 58.54 58.35, -0.79 56.74 M0.49 58.78 C0.56 40.35, 0.39 19.69, -1.28 1.83 M0.18 56.58 C0.32 41.22, 1.36 25.43, -0.51 -0.06" stroke="#a61e4d" stroke-width="2" fill="none"></path></g><g transform="translate(91.734375 337.7421875) rotate(0 42 17)"><text x="0" y="27" font-family="Cascadia, Segoe UI Emoji" font-size="28px" fill="#a61e4d" text-anchor="start" style="white-space: pre;" direction="ltr">Image</text></g><g stroke-linecap="round" transform="translate(64.18359375 162.89453125) rotate(0 115.041015625 122.751953125)"><path d="M0.68 -1.27 C55.72 1.87, 113.36 -0.22, 229.51 -0.49 M0.66 0.33 C91.5 -1.24, 181.31 -1.56, 229.6 -0.01 M229.6 1 C228.66 53.1, 229.63 109.4, 228.85 246.67 M230.51 -0.45 C228.23 93.92, 228.1 186.5, 230.78 245.32 M230.13 245.94 C157.93 245.86, 83.8 248.24, 0.97 247 M229.89 245.31 C178.29 247.16, 126.96 247.33, -0.37 244.76 M0.81 246.67 C-0.25 147.14, -1.89 51.49, -0.5 0.21 M0.79 246.21 C0.06 174.2, 1.24 101.78, 0.26 -0.5" stroke="#3366ff" stroke-width="4" fill="none"></path></g><g transform="translate(80.1796875 174.33203125) rotate(0 50 17)"><text x="0" y="27" font-family="Cascadia, Segoe UI Emoji" font-size="28px" fill="#3366ff" text-anchor="start" style="white-space: pre;" direction="ltr">Bundle</text></g><g stroke-linecap="round" transform="translate(27.5234375 552.48046875) rotate(0 137.74609375 25.638671875)"><path d="M-1.88 -1.5 L275.5 -1.11 L275.06 51.79 L0.37 53.01" stroke="none" stroke-width="0" fill="#ffffff"></path><path d="M0.05 -0.73 C61.59 -2.58, 121.82 -2.32, 274.38 -0.02 M0.23 -0.45 C73.33 -1.31, 145.54 -1.37, 275.84 0.11 M277.24 1.41 C276.81 17.09, 275.64 38.76, 274.25 51.27 M275.74 0.62 C274.79 12.9, 275.41 28.13, 274.59 50.57 M277 52.53 C177.35 52.97, 79.55 54.1, -0.99 52.81 M275.59 50.9 C204.17 49.65, 131.63 50.12, -0.63 50.75 M-0.19 51.44 C-0.78 33.15, 1.9 13.03, 0.12 -0.15 M-0.9 52.18 C0.9 37.54, 0.78 23.97, -0.24 -0.35" stroke="#000000" stroke-width="2" fill="none"></path></g><g transform="translate(32.9453125 559.2265625) rotate(0 107.5 17)"><text x="0" y="27" font-family="Cascadia, Segoe UI Emoji" font-size="28px" fill="#000000" text-anchor="start" style="white-space: pre;" direction="ltr">git: App repo</text></g><g stroke-linecap="round" transform="translate(66.11524507509057 766.1530605233243) rotate(0 101.68261183745471 34.02698536333787)"><path d="M1.95 -0.46 L204.47 1.61 L205.36 68.25 L-0.12 67.68" stroke="none" stroke-width="0" fill="#ffffff"></path><path d="M-1.17 1.53 C63.87 0.21, 130.15 0.05, 201.68 1.56 M-0.12 0.84 C57.54 1.62, 115.88 1.49, 203.04 -0.89 M204.03 1 C203.1 15.6, 203.58 28.88, 201.65 67.87 M203.53 0.62 C204.08 25.07, 204.03 48.55, 204.12 68.85 M204.73 66.4 C138.19 67.96, 73.03 70.5, 0.58 68.72 M202.61 67.71 C123.07 68.87, 41.89 69.55, -0.75 67.65 M0.18 66.1 C0.93 51.2, -1.2 34.75, -1.41 -0.05 M0.69 68.27 C-0.47 54.06, -0.62 40.05, -0.25 -0.57" stroke="#5c940d" stroke-width="2" fill="none"></path></g><g transform="translate(74.12705616979429 772.1731503552323) rotate(0 69.5 25.5)"><text x="0" y="20.5" font-family="Cascadia, Segoe UI Emoji" font-size="21.46865866423784px" fill="#5c940d" text-anchor="start" style="white-space: pre;" direction="ltr">Application</text><text x="0" y="46" font-family="Cascadia, Segoe UI Emoji" font-size="21.46865866423784px" fill="#5c940d" text-anchor="start" style="white-space: pre;" direction="ltr">manifest</text></g><g stroke-linecap="round" transform="translate(57.29776026656464 758.9409330033068) rotate(0 101.68261183745449 34.02698536333787)"><path d="M1.93 0.78 L202.52 -0.48 L202.96 68.66 L0.98 68.77" stroke="none" stroke-width="0" fill="#ffffff"></path><path d="M0.57 -0.61 C54.44 0.95, 106.76 -0.67, 201.94 -1.39 M-0.41 0.39 C60.95 -0.64, 121.67 -1.11, 203.29 0.17 M201.84 1.94 C200.94 21.83, 203.67 48.6, 202.6 66.16 M203.04 -0.73 C203.43 22.51, 203.41 42.84, 203.72 67.35 M204.85 68.88 C136.54 68.33, 66.05 66.55, -0.32 66.75 M204.16 67.59 C149.36 69.43, 93.85 68.07, -0.85 68.63 M-0.41 66.05 C-1.76 52.25, -1.08 39.18, 1.3 -1.73 M-0.67 68.42 C0.94 45.19, -0.15 23.06, 0.32 0.31" stroke="#5c940d" stroke-width="2" fill="none"></path></g><g transform="translate(65.30957136126835 764.9610228352149) rotate(0 69.5 25.5)"><text x="0" y="20.5" font-family="Cascadia, Segoe UI Emoji" font-size="21.46865866423784px" fill="#5c940d" text-anchor="start" style="white-space: pre;" direction="ltr">Application</text><text x="0" y="46" font-family="Cascadia, Segoe UI Emoji" font-size="21.46865866423784px" fill="#5c940d" text-anchor="start" style="white-space: pre;" direction="ltr">manifest</text></g><g stroke-linecap="round" transform="translate(49.16015625 751.2615746306637) rotate(0 101.68261183745471 34.02698536333787)"><path d="M0.95 -2 L204.08 -1.19 L204.88 68.04 L-1.71 69.76" stroke="none" stroke-width="0" fill="#ffffff"></path><path d="M-0.84 -1.24 C74.67 -0.26, 147.53 -0.16, 204.85 0.39 M-0.1 0.05 C58.34 0.75, 116.07 0.69, 202.53 -0.02 M202.54 0.05 C201.73 14.55, 203.98 30.6, 205.34 66.93 M204.11 -0.33 C203.82 14.43, 202.5 29.74, 202.38 69.05 M205.09 68.15 C141.93 66.89, 83.21 67.23, 1.27 69.43 M203.1 67.82 C144.97 67.9, 85.6 67.43, -0.43 68.81 M0.13 67.13 C-1.27 41.07, 2.37 15.91, -1.56 -1.88 M-0.63 68.69 C-0.21 48.82, 0.7 29.96, -0.31 -0.66" stroke="#5c940d" stroke-width="2" fill="none"></path></g><g transform="translate(57.17196734470372 757.2816644625718) rotate(0 69.5 25.5)"><text x="0" y="20.5" font-family="Cascadia, Segoe UI Emoji" font-size="21.46865866423784px" fill="#5c940d" text-anchor="start" style="white-space: pre;" direction="ltr">Application</text><text x="0" y="46" font-family="Cascadia, Segoe UI Emoji" font-size="21.46865866423784px" fill="#5c940d" text-anchor="start" style="white-space: pre;" direction="ltr">manifest</text></g><g stroke-linecap="round" transform="translate(27.5234375 677.7734375) rotate(0 137.74609375 25.638671875)"><path d="M1.75 -1.9 L273.76 -0.92 L274.45 51.47 L-0.59 50.84" stroke="none" stroke-width="0" fill="#ffffff"></path><path d="M-1.43 1.12 C74.29 1.6, 146.85 1.65, 275.25 0.77 M-0.08 0.37 C103.1 -1.35, 205.66 -0.81, 274.77 0.25 M277.35 0.72 C276.36 14, 274.8 26.47, 274.65 51.92 M276.06 0.39 C274.84 13.89, 275.6 27.64, 274.52 52.2 M274.39 50.29 C172.24 52.22, 69.34 51.55, 1.55 50.92 M275.51 51.98 C182.79 53.05, 90.05 52.78, 0.19 50.93 M0.22 52.19 C-0.44 32.63, 1.77 17.82, -1.07 1.44 M-0.5 50.36 C0.02 31.43, -0.91 12.16, 0.91 -0.71" stroke="#000000" stroke-width="2" fill="none"></path></g><g stroke-linecap="round" transform="translate(28.26953125 730.484375) rotate(0 137.74609375 65.6875)"><path d="M-0.05 -1.34 C69.03 0.84, 138.49 -0.43, 275.29 -0.1 M275.1 -0.87 C276.12 36.64, 275.73 74.79, 274.17 131.33 M275.15 129.86 C198.93 132.13, 121.46 134.09, -1.41 130.19 M1.88 129.67 C-0.89 91.31, 0.85 50.01, 0.55 -0.54" stroke="#000000" stroke-width="2.5" fill="none" stroke-dasharray="8 10"></path></g><g transform="translate(31.9296875 684.98828125) rotate(0 124 17)"><text x="0" y="27" font-family="Cascadia, Segoe UI Emoji" font-size="28px" fill="#000000" text-anchor="start" style="white-space: pre;" direction="ltr">git: Infra repo</text></g><g stroke-opacity="0.2" fill-opacity="0.2" stroke-linecap="round" transform="translate(10 660.875) rotate(0 335.193359375 138.4921875)"><path d="M-0.18 -0.23 C137.55 2.3, 273.32 2.53, 670.64 -0.48 M0.34 0.39 C134.68 0.37, 268.71 0.6, 670.32 -0.08 M671.09 0.41 C669.25 92.01, 667.91 182.4, 671.66 277.77 M670.18 -0.42 C668.36 97.66, 667.89 195.38, 670.53 276.25 M670.27 276.39 C500.7 278.7, 332.86 279.26, 0.48 276.63 M670.26 277.15 C429.07 276.18, 187.91 276.1, 0.29 276.76 M0.26 277.04 C0.91 186.05, 1.87 95.47, 1.03 0.88 M0.36 277.02 C-0.6 170.32, -0.7 62.55, -0.17 0.49" stroke="#ff2e9c" stroke-width="4" fill="none"></path></g><g stroke-opacity="0.2" fill-opacity="0.2" transform="translate(290.2421875 896.1171875) rotate(0 66.5 17)"><text x="0" y="27" font-family="Cascadia, Segoe UI Emoji" font-size="28px" fill="#ff2e9c" text-anchor="start" style="white-space: pre;" direction="ltr">Optional</text></g><g stroke-linecap="round"><g transform="translate(140.921875 555.046875) rotate(0 3.9779347356882226 -72.66583646988033)"><path d="M0.85 1.19 C0.51 -13.51, -2.59 -63.45, -0.99 -87.72 C0.62 -111.99, 8.67 -134.92, 10.48 -144.44 M-0.17 0.77 C-0.76 -13.86, -3.7 -62.19, -2 -86.74 C-0.29 -111.29, 8.06 -137.03, 10.08 -146.52" stroke="#3366ff" stroke-width="4" fill="none"></path></g><g transform="translate(140.921875 555.046875) rotate(0 3.9779347356882226 -72.66583646988033)"><path d="M15 -117.24 C9.98 -127.25, 11.44 -139.68, 10.24 -144.75 M12.54 -117.07 C11.16 -124.71, 11.41 -134.22, 10.57 -146.26" stroke="#3366ff" stroke-width="4" fill="none"></path></g><g transform="translate(140.921875 555.046875) rotate(0 3.9779347356882226 -72.66583646988033)"><path d="M-4.63 -122.25 C-2.06 -130.46, 6.98 -140.96, 10.24 -144.75 M-7.1 -122.07 C-2.94 -128.44, 2.81 -136.55, 10.57 -146.26" stroke="#3366ff" stroke-width="4" fill="none"></path></g></g><g transform="translate(154.81640625 451.55859375) rotate(0 50 33.5)"><text x="0" y="27.5" font-family="Cascadia, Segoe UI Emoji" font-size="28px" fill="#3366ff" text-anchor="start" style="white-space: pre;" direction="ltr">werf</text><text x="0" y="61" font-family="Cascadia, Segoe UI Emoji" font-size="28px" fill="#3366ff" text-anchor="start" style="white-space: pre;" direction="ltr">bundle</text></g><g stroke-linecap="round"><g transform="translate(407.41015625 796.16796875) rotate(0 -37.86481346647997 -172.6395713970578)"><path d="M-0.06 -0.96 C-21.1 -4.11, -129.36 8.16, -126.22 -19.71 C-123.08 -47.58, -10.69 -113.73, 18.79 -168.18 C48.26 -222.63, 45.43 -316.9, 50.64 -346.43 M-1.55 1.15 C-22.71 -2.29, -130.2 6.39, -126.95 -21.6 C-123.7 -49.59, -11.75 -112.84, 17.95 -166.8 C47.66 -220.76, 46.19 -315.14, 51.29 -345.35" stroke="#e67700" stroke-width="4" fill="none"></path></g><g transform="translate(407.41015625 796.16796875) rotate(0 -37.86481346647997 -172.6395713970578)"><path d="M57.32 -315.64 C57.57 -325.3, 54.71 -332.54, 51.21 -345.13 M59.61 -316.98 C56.73 -327.96, 53.93 -338.76, 52.03 -345.45" stroke="#e67700" stroke-width="4" fill="none"></path></g><g transform="translate(407.41015625 796.16796875) rotate(0 -37.86481346647997 -172.6395713970578)"><path d="M36.89 -317.52 C43.29 -326.61, 46.58 -333.27, 51.21 -345.13 M39.18 -318.86 C44.17 -329.09, 49.25 -339.17, 52.03 -345.45" stroke="#e67700" stroke-width="4" fill="none"></path></g></g><g stroke-linecap="round"><g transform="translate(778.890625 414.8046875) rotate(0 -161.1675885222853 41.56803452000008)"><path d="M-0.04 0.61 C-17.91 12.31, -52.65 57.45, -106.36 71.1 C-160.06 84.76, -286.29 80.32, -322.29 82.53" stroke="#e67700" stroke-width="2.5" fill="none" stroke-dasharray="8 10"></path></g></g><g stroke-linecap="round"><g transform="translate(781.1796875 413.671875) rotate(0 -164.6309994958342 -33.10467573914775)"><path d="M0.4 -0.43 C-20.94 -10.63, -73.9 -49.73, -128.9 -60.22 C-183.91 -70.71, -296.01 -63.07, -329.66 -63.36" stroke="#e67700" stroke-width="2.5" fill="none" stroke-dasharray="8 10"></path></g></g><g stroke-linecap="round"><g transform="translate(779.21875 275.14843750000045) rotate(0 -134.5895368359984 -1.0866766095666662)"><path d="M-0.48 -0.34 C-23.72 -0.71, -94.61 -2.4, -139.31 -2.32 C-184.02 -2.24, -247.18 -0.15, -268.7 0.15" stroke="#a61e4d" stroke-width="2.5" fill="none" stroke-dasharray="8 10"></path></g></g><g stroke-linecap="round"><g transform="translate(415.625 399.2578125) rotate(0 -15.777147842623208 -99.62681256826045)"><path d="M-0.07 -1.1 C-9.72 -2.93, -35.4 -2.3, -58.93 -10.32 C-82.46 -18.33, -161.33 -35.41, -141.26 -49.2 C-121.19 -62.99, 18.93 -67.94, 61.5 -93.07 C104.06 -118.21, 105.31 -182.19, 114.13 -200 M-1.57 0.94 C-11.29 -0.75, -36.46 -0.15, -59.93 -8.79 C-83.4 -17.44, -162.71 -36.95, -142.39 -50.91 C-122.07 -64.88, 19.44 -67.7, 61.99 -92.58 C104.54 -117.46, 104.47 -182.65, 112.89 -200.2" stroke="#a61e4d" stroke-width="4" fill="none"></path></g><g transform="translate(415.625 399.2578125) rotate(0 -15.777147842623208 -99.62681256826045)"><path d="M114.08 -170.52 C115.05 -177.86, 116.44 -182.27, 110.95 -199.45 M115.99 -171.15 C114.7 -176.35, 114.3 -181.87, 112.24 -199.54" stroke="#a61e4d" stroke-width="4" fill="none"></path></g><g transform="translate(415.625 399.2578125) rotate(0 -15.777147842623208 -99.62681256826045)"><path d="M94.18 -175.57 C99.42 -181.82, 105.05 -185.16, 110.95 -199.45 M96.1 -176.2 C98.95 -180.19, 102.65 -184.66, 112.24 -199.54" stroke="#a61e4d" stroke-width="4" fill="none"></path></g></g><g stroke-linecap="round"><g transform="translate(500.359375 372.05078125) rotate(0 -113.51537116296481 -86.42153078094111)"><path d="M0.52 0.84 C-7.36 -2.73, -10.61 -7.43, -48.45 -21.19 C-86.29 -34.94, -223.26 -65.39, -226.5 -81.68 C-229.75 -97.96, -99.74 -103.58, -67.92 -118.92 C-36.11 -134.25, -40.87 -164.87, -35.59 -173.68 M-0.67 0.23 C-8.61 -3.73, -11.68 -9.59, -49.48 -23.09 C-87.28 -36.6, -224.39 -65.03, -227.49 -80.78 C-230.6 -96.53, -100.44 -102.12, -68.12 -117.6 C-35.8 -133.08, -39.03 -164.56, -33.56 -173.66" stroke="#e67700" stroke-width="4" fill="none"></path></g><g transform="translate(500.359375 372.05078125) rotate(0 -113.51537116296481 -86.42153078094111)"><path d="M-30.03 -144 C-31.23 -150.44, -33.68 -157.1, -32.9 -174.19 M-32.1 -142.98 C-32.34 -150.28, -32.2 -158.4, -33.91 -174.47" stroke="#e67700" stroke-width="4" fill="none"></path></g><g transform="translate(500.359375 372.05078125) rotate(0 -113.51537116296481 -86.42153078094111)"><path d="M-49.76 -149.62 C-47 -155.02, -45.5 -160.56, -32.9 -174.19 M-51.83 -148.61 C-47.36 -154.75, -42.47 -161.51, -33.91 -174.47" stroke="#e67700" stroke-width="4" fill="none"></path></g></g></svg>