<svg xmlns="http://www.w3.org/2000/svg" xmlns:xlink="http://www.w3.org/1999/xlink" version="1.1" viewBox="0 0 1600 2587" style="background: #ffffff"><defs joint-selector="defs"></defs><g joint-selector="layers"  transform="matrix(1,0,0,1,0,0)"><g ></g><g ><!--z-index:1--><!--z-index:2--><!--z-index:3--><!--z-index:4--><!--z-index:5--><!--z-index:6--><!--z-index:7--><!--z-index:8--><!--z-index:9--><!--z-index:10--><!--z-index:11--><!--z-index:12--><!--z-index:13--><!--z-index:14--><!--z-index:15--><!--z-index:16--><!--z-index:17--><!--z-index:18--><!--z-index:19--><!--z-index:20--><!--z-index:21--><!--z-index:22--><!--z-index:23--><!--z-index:24--><!--z-index:25--><!--z-index:26--><!--z-index:27--><!--z-index:28--><!--z-index:29--><!--z-index:30--><!--z-index:31--><!--z-index:32--><!--z-index:33--><!--z-index:34--><!--z-index:35--><!--z-index:36--><!--z-index:37--><!--z-index:38--><!--z-index:39--><!--z-index:40--><!--z-index:41--><!--z-index:42--><!--z-index:43--><!--z-index:44--><!--z-index:45--><!--z-index:46--><!--z-index:47--><!--z-index:48--><!--z-index:49--><!--z-index:50--><!--z-index:51--><!--z-index:52--><!--z-index:53--><!--z-index:54--><!--z-index:55--><!--z-index:56--><!--z-index:57--><!--z-index:58--><!--z-index:59--><!--z-index:60--><!--z-index:61--><!--z-index:62--><!--z-index:63--><!--z-index:64--><g   id="j_2"  transform="translate(20,2543)"><g id="v-5"><text  id="v-6" font-size="24px" xml:space="preserve" y="0.8em" font-weight="normal" text-anchor="start" fill="#444444" pointer-events="none" display="block" font-family="Open Sans, Tahoma, Arial"><tspan dy="0"  display="none">пятница, 19 июня 2026 г. в 15:10 Восточная Европа, стандартное время</tspan></text></g></g><!--z-index:65--><g   id="j_1"  transform="translate(20,2497)"><g id="v-3"><text  id="v-4" font-size="36px" xml:space="preserve" y="0.8em" font-weight="normal" text-anchor="start" fill="#444444" pointer-events="none" display="block" font-family="Open Sans, Tahoma, Arial"><tspan dy="0"  display="none">L2: Module registry (Direct mode)</tspan></text></g></g><!--z-index:66--><g   id="j_3"  transform="translate(969,59)" style=""><g  id="v-10" style="opacity: 1;"><rect  id="v-11" rx="20" ry="20" stroke-width="1" pointer-events="visiblePainted" fill="#ededed" stroke="#696a6d" stroke-dasharray="" width="450" height="300"></rect><text  id="v-12" font-size="33.599999999999994px" xml:space="preserve" y="133.2" font-weight="bold" text-anchor="middle" pointer-events="visible" font-family="Open Sans, Tahoma, Arial" fill="#000000" dominant-baseline="hanging" transform="matrix(1,0,0,1,225,0)"><tspan dy="0" >Хранилище образов</tspan></text><text  id="v-13" font-size="16.799999999999997px" xml:space="preserve" display="none" y="133.2" text-anchor="middle" font-family="Open Sans, Tahoma, Arial" fill="#000000" dominant-baseline="hanging" transform="matrix(1,0,0,1,225,0)" style="display: block;"><tspan dy="0"  style="fill-opacity: 0; stroke-opacity: 0;">-</tspan></text><text  id="v-14" font-size="24px" xml:space="preserve" display="none" y="133.2" text-anchor="middle" font-family="Open Sans, Tahoma, Arial" fill="#000000" dominant-baseline="hanging" transform="matrix(1,0,0,1,225,0)" style="display: block;"><tspan dy="0"  style="fill-opacity: 0; stroke-opacity: 0;">-</tspan></text><g  id="v-15" color="#000000" transform="matrix(1,0,0,1,222.5,268)" display="none"><g ></g><g ></g><g ></g><g ></g></g><image  id="v-16"></image></g></g><!--z-index:67--><g   id="j_8"  transform="translate(99,384)" style=""><g id="v-42"><rect  id="v-43" width="1400" height="2062" rx="20" ry="20" stroke-width="1" pointer-events="none" stroke="#004df2" fill="#ffffff" stroke-dasharray=""></rect><text  id="v-44" font-size="33.599999999999994px" xml:space="preserve" y="2023" font-weight="bold" text-anchor="start" pointer-events="visible" font-family="Open Sans, Tahoma, Arial" fill="#003ab5" transform="matrix(1,0,0,1,15,0)"><tspan dy="0" >Deckhouse Kubernetes Platform</tspan></text><text  id="v-45" font-size="16.799999999999997px" xml:space="preserve" y="2047" font-weight="normal" text-anchor="start" pointer-events="visible" font-family="Open Sans, Tahoma, Arial" fill="#003ab5" transform="matrix(1,0,0,1,15,0)"><tspan dy="0" >[Software System]</tspan></text><image  id="v-46" pointer-events="visible"></image></g></g><!--z-index:68--><g   id="j_5"  transform="translate(119,839)" style=""><g id="v-27"><rect  id="v-28" width="1360" height="1074" rx="20" ry="20" stroke-width="1" pointer-events="none" stroke="#325ebd" fill="#f6f9ff" stroke-dasharray="1,2"></rect><text  id="v-29" font-size="33.599999999999994px" xml:space="preserve" y="1059" font-weight="bold" text-anchor="start" pointer-events="visible" font-family="Open Sans, Tahoma, Arial" fill="#325ebd" transform="matrix(1,0,0,1,15,0)"><tspan dy="0" >Подсистема Deckhouse</tspan></text><text  id="v-30" font-size="16.799999999999997px" xml:space="preserve" display="none" y="1059" font-weight="normal" text-anchor="start" pointer-events="visible" font-family="Open Sans, Tahoma, Arial" fill="#325ebd" transform="matrix(1,0,0,1,15,0)"><tspan dy="0" style="fill-opacity: 0; stroke-opacity: 0;" >-</tspan></text><image  id="v-31" pointer-events="visible"></image></g></g><!--z-index:69--><g   id="j_14"  transform="translate(159,404)" style=""><g id="v-84"><rect  id="v-85" width="490" height="403" rx="20" ry="20" stroke-width="1" pointer-events="none" stroke="#325ebd" fill="#f6f9ff" stroke-dasharray="1,2"></rect><text  id="v-86" font-size="33.599999999999994px" xml:space="preserve" y="388" font-weight="bold" text-anchor="start" pointer-events="visible" font-family="Open Sans, Tahoma, Arial" fill="#325ebd" transform="matrix(1,0,0,1,15,0)"><tspan dy="0" >Подсистема Kubernetes &amp; Scheduling</tspan></text><text  id="v-87" font-size="16.799999999999997px" xml:space="preserve" display="none" y="388" font-weight="normal" text-anchor="start" pointer-events="visible" font-family="Open Sans, Tahoma, Arial" fill="#325ebd" transform="matrix(1,0,0,1,15,0)"><tspan dy="0" style="fill-opacity: 0; stroke-opacity: 0;" >-</tspan></text><image  id="v-88" pointer-events="visible"></image></g></g><!--z-index:70--><g   id="j_16"  transform="translate(159,1944)" style=""><g id="v-96"><rect  id="v-97" width="490" height="403" rx="20" ry="20" stroke-width="1" pointer-events="none" stroke="#325ebd" fill="#f6f9ff" stroke-dasharray="1,2"></rect><text  id="v-98" font-size="33.599999999999994px" xml:space="preserve" y="388" font-weight="bold" text-anchor="start" pointer-events="visible" font-family="Open Sans, Tahoma, Arial" fill="#325ebd" transform="matrix(1,0,0,1,15,0)"><tspan dy="0" >Подсистема Security</tspan></text><text  id="v-99" font-size="16.799999999999997px" xml:space="preserve" display="none" y="388" font-weight="normal" text-anchor="start" pointer-events="visible" font-family="Open Sans, Tahoma, Arial" fill="#325ebd" transform="matrix(1,0,0,1,15,0)"><tspan dy="0" style="fill-opacity: 0; stroke-opacity: 0;" >-</tspan></text><image  id="v-100" pointer-events="visible"></image></g></g><!--z-index:71--><g   id="j_6"  transform="translate(139,859)" style=""><g id="v-32"><rect  id="v-33" width="530" height="506" rx="20" ry="20" stroke-width="1" pointer-events="none" stroke="#325ebd" fill="#d8e4ff" stroke-dasharray="1,2"></rect><text  id="v-34" font-size="33.599999999999994px" xml:space="preserve" y="491" font-weight="bold" text-anchor="start" pointer-events="visible" font-family="Open Sans, Tahoma, Arial" fill="#325ebd" transform="matrix(1,0,0,1,15,0)"><tspan dy="0" >Модуль deckhouse</tspan></text><text  id="v-35" font-size="16.799999999999997px" xml:space="preserve" display="none" y="491" font-weight="normal" text-anchor="start" pointer-events="visible" font-family="Open Sans, Tahoma, Arial" fill="#325ebd" transform="matrix(1,0,0,1,15,0)"><tspan dy="0" style="fill-opacity: 0; stroke-opacity: 0;" >-</tspan></text><image  id="v-36" pointer-events="visible"></image></g></g><!--z-index:72--><g   id="j_10"  transform="translate(929,859)" style=""><g id="v-57"><rect  id="v-58" width="530" height="971" rx="20" ry="20" stroke-width="1" pointer-events="none" stroke="#325ebd" fill="#d8e4ff" stroke-dasharray="1,2"></rect><text  id="v-59" font-size="33.599999999999994px" xml:space="preserve" y="956" font-weight="bold" text-anchor="start" pointer-events="visible" font-family="Open Sans, Tahoma, Arial" fill="#325ebd" transform="matrix(1,0,0,1,15,0)"><tspan dy="0" >Модуль registry</tspan></text><text  id="v-60" font-size="16.799999999999997px" xml:space="preserve" display="none" y="956" font-weight="normal" text-anchor="start" pointer-events="visible" font-family="Open Sans, Tahoma, Arial" fill="#325ebd" transform="matrix(1,0,0,1,15,0)"><tspan dy="0" style="fill-opacity: 0; stroke-opacity: 0;" >-</tspan></text><image  id="v-61" pointer-events="visible"></image></g></g><!--z-index:73--><g   id="j_13"  transform="translate(179,424)" style=""><g  id="v-77" style="opacity: 1;"><rect  id="v-78" rx="20" ry="20" stroke-width="1" pointer-events="visiblePainted" fill="#efecff" stroke="#3f2cb4" stroke-dasharray="" width="450" height="300"></rect><text  id="v-79" font-size="33.599999999999994px" xml:space="preserve" y="101.30000000000001" font-weight="bold" text-anchor="middle" pointer-events="visible" font-family="Open Sans, Tahoma, Arial" fill="#3f2cb4" dominant-baseline="hanging" transform="matrix(1,0,0,1,225,0)"><tspan dy="0" >containerd</tspan></text><text  id="v-80" font-size="16.799999999999997px" xml:space="preserve" y="142.9" text-anchor="middle" font-family="Open Sans, Tahoma, Arial" fill="#3f2cb4" dominant-baseline="hanging" transform="matrix(1,0,0,1,225,0)" style="display: block;"><tspan dy="0" >[Container]</tspan></text><text  id="v-81" font-size="24px" xml:space="preserve" y="174.7" text-anchor="middle" font-family="Open Sans, Tahoma, Arial" fill="#3f2cb4" dominant-baseline="hanging" transform="matrix(1,0,0,1,225,0)" style="display: block;"><tspan dy="0" >Служба</tspan></text><g  id="v-82" color="#3f2cb4" transform="matrix(1,0,0,1,222.5,268)" display="none"><g ></g><g ></g><g ></g><g ></g></g><image  id="v-83"></image></g></g><!--z-index:74--><g   id="j_15"  transform="translate(179,1964)" style=""><g  id="v-89" style="opacity: 1;"><rect  id="v-90" rx="20" ry="20" stroke-width="1" pointer-events="visiblePainted" fill="#d8e4ff" stroke="#325ebd" stroke-dasharray="" width="450" height="300"></rect><text  id="v-91" font-size="33.599999999999994px" xml:space="preserve" y="101.30000000000001" font-weight="bold" text-anchor="middle" pointer-events="visible" font-family="Open Sans, Tahoma, Arial" fill="#325ebd" dominant-baseline="hanging" transform="matrix(1,0,0,1,225,0)"><tspan dy="0" >operator-trivy</tspan></text><text  id="v-92" font-size="16.799999999999997px" xml:space="preserve" y="142.9" text-anchor="middle" font-family="Open Sans, Tahoma, Arial" fill="#325ebd" dominant-baseline="hanging" transform="matrix(1,0,0,1,225,0)" style="display: block;"><tspan dy="0" >[Container]</tspan></text><text  id="v-93" font-size="24px" xml:space="preserve" y="174.7" text-anchor="middle" font-family="Open Sans, Tahoma, Arial" fill="#325ebd" dominant-baseline="hanging" transform="matrix(1,0,0,1,225,0)" style="display: block;"><tspan dy="0" >Модуль</tspan></text><g  id="v-94" color="#325ebd" transform="matrix(1,0,0,1,222.5,268)" display="none"><g ></g><g ></g><g ></g><g ></g></g><image  id="v-95"></image></g></g><!--z-index:75--><g   id="j_7"  transform="translate(159,879)" style=""><g id="v-37"><rect  id="v-38" width="490" height="403" rx="20" ry="20" stroke-width="1" pointer-events="none" stroke="#000000" fill="#ffffff" stroke-dasharray="1,2"></rect><text  id="v-39" font-size="33.599999999999994px" xml:space="preserve" y="388" font-weight="bold" text-anchor="start" pointer-events="visible" font-family="Open Sans, Tahoma, Arial" fill="#000000" transform="matrix(1,0,0,1,15,0)"><tspan dy="0" >deckhouse [pod]</tspan></text><text  id="v-40" font-size="16.799999999999997px" xml:space="preserve" display="none" y="388" font-weight="normal" text-anchor="start" pointer-events="visible" font-family="Open Sans, Tahoma, Arial" fill="#000000" transform="matrix(1,0,0,1,15,0)"><tspan dy="0" style="fill-opacity: 0; stroke-opacity: 0;" >-</tspan></text><image  id="v-41" pointer-events="visible"></image></g></g><!--z-index:76--><g   id="j_11"  transform="translate(949,879)" style=""><g id="v-62"><rect  id="v-63" width="490" height="868" rx="20" ry="20" stroke-width="1" pointer-events="none" stroke="#000000" fill="#ffffff" stroke-dasharray="1,2"></rect><text  id="v-64" font-size="33.599999999999994px" xml:space="preserve" y="853" font-weight="bold" text-anchor="start" pointer-events="visible" font-family="Open Sans, Tahoma, Arial" fill="#000000" transform="matrix(1,0,0,1,15,0)"><tspan dy="0" >registry-incluster-proxy [pod]</tspan></text><text  id="v-65" font-size="16.799999999999997px" xml:space="preserve" display="none" y="853" font-weight="normal" text-anchor="start" pointer-events="visible" font-family="Open Sans, Tahoma, Arial" fill="#000000" transform="matrix(1,0,0,1,15,0)"><tspan dy="0" style="fill-opacity: 0; stroke-opacity: 0;" >-</tspan></text><image  id="v-66" pointer-events="visible"></image></g></g><!--z-index:77--><g   id="j_4"  transform="translate(179,899)" style=""><g  id="v-20" style="opacity: 1;"><rect  id="v-21" rx="20" ry="20" stroke-width="2" pointer-events="visiblePainted" fill="#e3ebff" stroke="#485d8e" stroke-dasharray="" width="450" height="300"></rect><text  id="v-22" font-size="33.599999999999994px" xml:space="preserve" y="120.80000000000001" font-weight="bold" text-anchor="middle" pointer-events="visible" font-family="Open Sans, Tahoma, Arial" fill="#000000" dominant-baseline="hanging" transform="matrix(1,0,0,1,225,0)"><tspan dy="0" >deckhouse (controller)</tspan></text><text  id="v-23" font-size="16.799999999999997px" xml:space="preserve" y="162.4" text-anchor="middle" font-family="Open Sans, Tahoma, Arial" fill="#000000" dominant-baseline="hanging" transform="matrix(1,0,0,1,225,0)" style="display: block;"><tspan dy="0" >[Container]</tspan></text><text  id="v-24" font-size="24px" xml:space="preserve" display="none" y="120.80000000000001" text-anchor="middle" font-family="Open Sans, Tahoma, Arial" fill="#000000" dominant-baseline="hanging" transform="matrix(1,0,0,1,225,0)" style="display: block;"><tspan dy="0"  style="fill-opacity: 0; stroke-opacity: 0;">-</tspan></text><g  id="v-25" color="#000000" transform="matrix(1,0,0,1,222.5,268)" display="none"><g ></g><g ></g><g ></g><g ></g></g><image  id="v-26"></image></g></g><!--z-index:78--><g   id="j_9"  transform="translate(969,899)" style=""><g  id="v-50" style="opacity: 1;"><rect  id="v-51" rx="20" ry="20" stroke-width="2" pointer-events="visiblePainted" fill="#e3ebff" stroke="#485d8e" stroke-dasharray="" width="450" height="300"></rect><text  id="v-52" font-size="33.599999999999994px" xml:space="preserve" y="100.64000000000001" font-weight="bold" text-anchor="middle" pointer-events="visible" font-family="Open Sans, Tahoma, Arial" fill="#000000" dominant-baseline="hanging" transform="matrix(1,0,0,1,225,0)"><tspan dy="0" >distribution</tspan><tspan dy="1.2em" x="0" >(registry-incluster-proxy)</tspan></text><text  id="v-53" font-size="16.799999999999997px" xml:space="preserve" y="182.56" text-anchor="middle" font-family="Open Sans, Tahoma, Arial" fill="#000000" dominant-baseline="hanging" transform="matrix(1,0,0,1,225,0)" style="display: block;"><tspan dy="0" >[Container]</tspan></text><text  id="v-54" font-size="24px" xml:space="preserve" display="none" y="100.64000000000001" text-anchor="middle" font-family="Open Sans, Tahoma, Arial" fill="#000000" dominant-baseline="hanging" transform="matrix(1,0,0,1,225,0)" style="display: block;"><tspan dy="0"  style="fill-opacity: 0; stroke-opacity: 0;">-</tspan></text><g  id="v-55" color="#000000" transform="matrix(1,0,0,1,222.5,268)" display="none"><g ></g><g ></g><g ></g><g ></g></g><image  id="v-56"></image></g></g><!--z-index:79--><g   id="j_12"  transform="translate(969,1364)" style=""><g  id="v-70" style="opacity: 1;"><rect  id="v-71" rx="20" ry="20" stroke-width="2" pointer-events="visiblePainted" fill="#e3ebff" stroke="#485d8e" stroke-dasharray="" width="450" height="300"></rect><text  id="v-72" font-size="33.599999999999994px" xml:space="preserve" y="100.64000000000001" font-weight="bold" text-anchor="middle" pointer-events="visible" font-family="Open Sans, Tahoma, Arial" fill="#000000" dominant-baseline="hanging" transform="matrix(1,0,0,1,225,0)"><tspan dy="0" >auth</tspan><tspan dy="1.2em" x="0" >(registry-incluster-proxy)</tspan></text><text  id="v-73" font-size="16.799999999999997px" xml:space="preserve" y="182.56" text-anchor="middle" font-family="Open Sans, Tahoma, Arial" fill="#000000" dominant-baseline="hanging" transform="matrix(1,0,0,1,225,0)" style="display: block;"><tspan dy="0" >[Container]</tspan></text><text  id="v-74" font-size="24px" xml:space="preserve" display="none" y="100.64000000000001" text-anchor="middle" font-family="Open Sans, Tahoma, Arial" fill="#000000" dominant-baseline="hanging" transform="matrix(1,0,0,1,225,0)" style="display: block;"><tspan dy="0"  style="fill-opacity: 0; stroke-opacity: 0;">-</tspan></text><g  id="v-75" color="#000000" transform="matrix(1,0,0,1,222.5,268)" display="none"><g ></g><g ></g><g ></g><g ></g></g><image  id="v-76"></image></g></g><!--z-index:80--><g   id="j_17" ><path  stroke="#000000" d="M 629 962 L 756 914 C 762 911.3333333333333 768.3333333333333 911 775 913 L 969 976" id="v-114" stroke-width="1" stroke-dasharray="" fill="none" style="opacity: 1;"></path><path  fill="black" stroke="black" d="M 0 0 0 0" transform="matrix(0.9332023511397812,-0.35935132089249994,0.35935132089249994,0.9332023511397812,629,962.3699951171875)"></path><path  fill="#000000" stroke="#000000" d="M 10 0 L 0 5 L 10 10 z" id="v-116" transform="matrix(-0.9513078626691098,-0.3082423566350512,0.3082423566350512,-0.9513078626691098,967.4587967684515,980.8565279519895)" style="opacity: 1;"></path><path  d="M 629 962 L 756 914 C 762 911.3333333333333 768.3333333333333 911 775 913 L 969 976" id="v-115" fill="none" style="cursor: default;"></path><g ><g id="v-108"  label-idx="0" cursor="move" transform="matrix(1,0,0,1,798.1873779296875,920.5299072265625)" style="cursor: default; opacity: 1;"><rect joint-selector="rect" id="v-111" fill="#ffffff" rx="3" ry="3" pointer-events="none" width="199.27496337890625" height="118.75194549560547" transform="matrix(1,0,0,1,-99.6,-59.4)"></rect><text joint-selector="text" id="v-110" font-size="24px" xml:space="preserve" y="0.8em" fill="#000000" text-anchor="middle" pointer-events="none" font-family="Open Sans, Tahoma, Arial" font-weight="normal" transform="matrix(1,0,0,1,0,-53.2)"><tspan dy="0" >Получает автори</tspan><tspan dy="1.2em" x="0" >зационный</tspan><tspan dy="1.2em" x="0" >токен через svc</tspan><tspan dy="1.2em" x="0" >[5001 TCP]</tspan></text></g><g id="v-109"  label-idx="1" cursor="move" transform="matrix(1,0,0,1,788.1873779296875,975.7299194335938)" style="cursor: default; opacity: 1;"><rect joint-selector="rect" id="v-113" fill="#ffffff" rx="3" ry="3"  width="0" height="0" transform="matrix(1,0,0,1,0,0)" display="none"></rect><text joint-selector="text" id="v-112" fill="#000000" font-size="14" text-anchor="middle" pointer-events="none"></text></g></g><g  display="none"><g  transform="translate(765, 910)" id="v-105"><circle  idx="0" r="10"></circle><path  idx="0" d="M16,5.333c-7.732,0-14,4.701-14,10.5c0,1.982,0.741,3.833,2.016,5.414L2,25.667l5.613-1.441c2.339,1.317,5.237,2.107,8.387,2.107c7.732,0,14-4.701,14-10.5C30,10.034,23.732,5.333,16,5.333z" transform="translate(5, -33)"></path><path  idx="0" transform="scale(.8) translate(9.5, -37)" d="M24.778,21.419 19.276,15.917 24.777,10.415 21.949,7.585 16.447,13.087 10.945,7.585 8.117,10.415 13.618,15.917 8.116,21.419 10.946,24.248 16.447,18.746 21.948,24.248z"><title>Remove vertex.</title></path></g></g><g  id="v-118" display="none"><g  id="v-106"><path  end="source" d="M 26 0 L 0 13 L 26 26 z"></path></g><g  id="v-107"><path  end="target" d="M 26 0 L 0 13 L 26 26 z"></path></g></g><g  id="v-117" display="none"><g  id="v-104" transform="translate(666.4167188580958, 947.8582479906408) "><g  event="remove"><circle r="11"></circle><path transform="scale(.8) translate(-16, -16)" d="M24.778,21.419 19.276,15.917 24.777,10.415 21.949,7.585 16.447,13.087 10.945,7.585 8.117,10.415 13.618,15.917 8.116,21.419 10.946,24.248 16.447,18.746 21.948,24.248z"></path><title>Remove link.</title></g><g  event="link:options"><circle r="11" transform="translate(25)"></circle><path fill="white" transform="scale(.55) translate(29, -16)" d="M31.229,17.736c0.064-0.571,0.104-1.148,0.104-1.736s-0.04-1.166-0.104-1.737l-4.377-1.557c-0.218-0.716-0.504-1.401-0.851-2.05l1.993-4.192c-0.725-0.91-1.549-1.734-2.458-2.459l-4.193,1.994c-0.647-0.347-1.334-0.632-2.049-0.849l-1.558-4.378C17.165,0.708,16.588,0.667,16,0.667s-1.166,0.041-1.737,0.105L12.707,5.15c-0.716,0.217-1.401,0.502-2.05,0.849L6.464,4.005C5.554,4.73,4.73,5.554,4.005,6.464l1.994,4.192c-0.347,0.648-0.632,1.334-0.849,2.05l-4.378,1.557C0.708,14.834,0.667,15.412,0.667,16s0.041,1.165,0.105,1.736l4.378,1.558c0.217,0.715,0.502,1.401,0.849,2.049l-1.994,4.193c0.725,0.909,1.549,1.733,2.459,2.458l4.192-1.993c0.648,0.347,1.334,0.633,2.05,0.851l1.557,4.377c0.571,0.064,1.148,0.104,1.737,0.104c0.588,0,1.165-0.04,1.736-0.104l1.558-4.377c0.715-0.218,1.399-0.504,2.049-0.851l4.193,1.993c0.909-0.725,1.733-1.549,2.458-2.458l-1.993-4.193c0.347-0.647,0.633-1.334,0.851-2.049L31.229,17.736zM16,20.871c-2.69,0-4.872-2.182-4.872-4.871c0-2.69,2.182-4.872,4.872-4.872c2.689,0,4.871,2.182,4.871,4.872C20.871,18.689,18.689,20.871,16,20.871z"></path><title>Link options.</title></g></g></g></g><!--z-index:81--><g   id="j_18" ><path  stroke="#000000" d="M 629 1096 L 780 1128 C 786.6666666666666 1129.3333333333333 793.3333333333333 1129.3333333333333 800 1128 L 969 1094" id="v-132" stroke-width="1" stroke-dasharray="" fill="none" style="opacity: 1;"></path><path  fill="black" stroke="black" d="M 0 0 0 0" transform="matrix(0.9786901612356335,0.20534256329502104,-0.20534256329502104,0.9786901612356335,629,1096.219970703125)"></path><path  fill="#000000" stroke="#000000" d="M 10 0 L 0 5 L 10 10 z" id="v-134" transform="matrix(-0.9804857518206619,0.1965901586465389,-0.1965901586465389,-0.9804857518206619,969.9829747671797,1099.012373473683)" style="opacity: 1;"></path><path  d="M 629 1096 L 780 1128 C 786.6666666666666 1129.3333333333333 793.3333333333333 1129.3333333333333 800 1128 L 969 1094" id="v-133" fill="none" style="cursor: default;"></path><g ><g id="v-126"  label-idx="0" cursor="move" transform="matrix(1,0,0,1,798.984375,1128.19287109375)" style="cursor: default; opacity: 1;"><rect joint-selector="rect" id="v-129" fill="#ffffff" rx="3" ry="3" pointer-events="none" width="170.49761962890625" height="176.3519515991211" transform="matrix(1,0,0,1,-85.2,-88.2)"></rect><text joint-selector="text" id="v-128" font-size="24px" xml:space="preserve" y="0.8em" fill="#000000" text-anchor="middle" pointer-events="none" font-family="Open Sans, Tahoma, Arial" font-weight="normal" transform="matrix(1,0,0,1,0,-82)"><tspan dy="0" >Отправляет</tspan><tspan dy="1.2em" x="0" >запросы с</tspan><tspan dy="1.2em" x="0" >токеном к</tspan><tspan dy="1.2em" x="0" >хранилищу</tspan><tspan dy="1.2em" x="0" >образов через</tspan><tspan dy="1.2em" x="0" >svc [5001 TCP]</tspan></text></g><g id="v-127"  label-idx="1" cursor="move" transform="matrix(1,0,0,1,788.984375,1212.19287109375)" style="cursor: default; opacity: 1;"><rect joint-selector="rect" id="v-131" fill="#ffffff" rx="3" ry="3"  width="0" height="0" transform="matrix(1,0,0,1,0,0)" display="none"></rect><text joint-selector="text" id="v-130" fill="#000000" font-size="14" text-anchor="middle" pointer-events="none"></text></g></g><g  display="none"><g  transform="translate(790, 1130)" id="v-123"><circle  idx="0" r="10"></circle><path  idx="0" d="M16,5.333c-7.732,0-14,4.701-14,10.5c0,1.982,0.741,3.833,2.016,5.414L2,25.667l5.613-1.441c2.339,1.317,5.237,2.107,8.387,2.107c7.732,0,14-4.701,14-10.5C30,10.034,23.732,5.333,16,5.333z" transform="translate(5, -33)"></path><path  idx="0" transform="scale(.8) translate(9.5, -37)" d="M24.778,21.419 19.276,15.917 24.777,10.415 21.949,7.585 16.447,13.087 10.945,7.585 8.117,10.415 13.618,15.917 8.116,21.419 10.946,24.248 16.447,18.746 21.948,24.248z"><title>Remove vertex.</title></path></g></g><g  id="v-136" display="none"><g  id="v-124"><path  end="source" d="M 26 0 L 0 13 L 26 26 z"></path></g><g  id="v-125"><path  end="target" d="M 26 0 L 0 13 L 26 26 z"></path></g></g><g  id="v-135" display="none"><g  id="v-122" transform="translate(668.1309583228609, 1104.2926534194144) "><g  event="remove"><circle r="11"></circle><path transform="scale(.8) translate(-16, -16)" d="M24.778,21.419 19.276,15.917 24.777,10.415 21.949,7.585 16.447,13.087 10.945,7.585 8.117,10.415 13.618,15.917 8.116,21.419 10.946,24.248 16.447,18.746 21.948,24.248z"></path><title>Remove link.</title></g><g  event="link:options"><circle r="11" transform="translate(25)"></circle><path fill="white" transform="scale(.55) translate(29, -16)" d="M31.229,17.736c0.064-0.571,0.104-1.148,0.104-1.736s-0.04-1.166-0.104-1.737l-4.377-1.557c-0.218-0.716-0.504-1.401-0.851-2.05l1.993-4.192c-0.725-0.91-1.549-1.734-2.458-2.459l-4.193,1.994c-0.647-0.347-1.334-0.632-2.049-0.849l-1.558-4.378C17.165,0.708,16.588,0.667,16,0.667s-1.166,0.041-1.737,0.105L12.707,5.15c-0.716,0.217-1.401,0.502-2.05,0.849L6.464,4.005C5.554,4.73,4.73,5.554,4.005,6.464l1.994,4.192c-0.347,0.648-0.632,1.334-0.849,2.05l-4.378,1.557C0.708,14.834,0.667,15.412,0.667,16s0.041,1.165,0.105,1.736l4.378,1.558c0.217,0.715,0.502,1.401,0.849,2.049l-1.994,4.193c0.725,0.909,1.549,1.733,2.459,2.458l4.192-1.993c0.648,0.347,1.334,0.633,2.05,0.851l1.557,4.377c0.571,0.064,1.148,0.104,1.737,0.104c0.588,0,1.165-0.04,1.736-0.104l1.558-4.377c0.715-0.218,1.399-0.504,2.049-0.851l4.193,1.993c0.909-0.725,1.733-1.549,2.458-2.458l-1.993-4.193c0.347-0.647,0.633-1.334,0.851-2.049L31.229,17.736zM16,20.871c-2.69,0-4.872-2.182-4.872-4.871c0-2.69,2.182-4.872,4.872-4.872c2.689,0,4.871,2.182,4.871,4.872C20.871,18.689,18.689,20.871,16,20.871z"></path><title>Link options.</title></g></g></g></g><!--z-index:82--><g   id="j_19" ><path  stroke="#000000" d="M 407 1964 L 415 1540 C 414.99999999999994 1533.3333333333333 417.99999999999994 1528.3333333333333 424 1525 L 969 1188" id="v-150" stroke-width="1" stroke-dasharray="" fill="none" style="opacity: 1;"></path><path  fill="black" stroke="black" d="M 0 0 0 0" transform="matrix(0.018821578512208084,-0.9998228584015815,0.9998228584015815,0.018821578512208084,406.8299865722656,1964)"></path><path  fill="#000000" stroke="#000000" d="M 10 0 L 0 5 L 10 10 z" id="v-152" transform="matrix(-0.8508711667858501,0.525374397484771,-0.525374397484771,-0.8508711667858501,971.6268943252593,1192.1843686121304)" style="opacity: 1;"></path><path  d="M 407 1964 L 415 1540 C 414.99999999999994 1533.3333333333333 417.99999999999994 1528.3333333333333 424 1525 L 969 1188" id="v-151" fill="none" style="cursor: default;"></path><g ><g id="v-144"  label-idx="0" cursor="move" transform="matrix(1,0,0,1,508.3084716796875,1472.867919921875)" style="cursor: default; opacity: 1;"><rect joint-selector="rect" id="v-147" fill="#ffffff" rx="3" ry="3" pointer-events="none" width="199.27496337890625" height="118.75194549560547" transform="matrix(1,0,0,1,-99.6,-59.4)"></rect><text joint-selector="text" id="v-146" font-size="24px" xml:space="preserve" y="0.8em" fill="#000000" text-anchor="middle" pointer-events="none" font-family="Open Sans, Tahoma, Arial" font-weight="normal" transform="matrix(1,0,0,1,0,-53.2)"><tspan dy="0" >Получает автори</tspan><tspan dy="1.2em" x="0" >зационный</tspan><tspan dy="1.2em" x="0" >токен через svc</tspan><tspan dy="1.2em" x="0" >[5001 TCP]</tspan></text></g><g id="v-145"  label-idx="1" cursor="move" transform="matrix(1,0,0,1,498.3084716796875,1528.0679931640625)" style="cursor: default; opacity: 1;"><rect joint-selector="rect" id="v-149" fill="#ffffff" rx="3" ry="3"  width="0" height="0" transform="matrix(1,0,0,1,0,0)" display="none"></rect><text joint-selector="text" id="v-148" fill="#000000" font-size="14" text-anchor="middle" pointer-events="none"></text></g></g><g  display="none"><g  transform="translate(415, 1530)" id="v-141"><circle  idx="0" r="10"></circle><path  idx="0" d="M16,5.333c-7.732,0-14,4.701-14,10.5c0,1.982,0.741,3.833,2.016,5.414L2,25.667l5.613-1.441c2.339,1.317,5.237,2.107,8.387,2.107c7.732,0,14-4.701,14-10.5C30,10.034,23.732,5.333,16,5.333z" transform="translate(5, -33)"></path><path  idx="0" transform="scale(.8) translate(9.5, -37)" d="M24.778,21.419 19.276,15.917 24.777,10.415 21.949,7.585 16.447,13.087 10.945,7.585 8.117,10.415 13.618,15.917 8.116,21.419 10.946,24.248 16.447,18.746 21.948,24.248z"><title>Remove vertex.</title></path></g></g><g  id="v-154" display="none"><g  id="v-142"><path  end="source" d="M 26 0 L 0 13 L 26 26 z"></path></g><g  id="v-143"><path  end="target" d="M 26 0 L 0 13 L 26 26 z"></path></g></g><g  id="v-153" display="none"><g  id="v-140" transform="translate(407.7545826779045, 1924.0071180710593) "><g  event="remove"><circle r="11"></circle><path transform="scale(.8) translate(-16, -16)" d="M24.778,21.419 19.276,15.917 24.777,10.415 21.949,7.585 16.447,13.087 10.945,7.585 8.117,10.415 13.618,15.917 8.116,21.419 10.946,24.248 16.447,18.746 21.948,24.248z"></path><title>Remove link.</title></g><g  event="link:options"><circle r="11" transform="translate(25)"></circle><path fill="white" transform="scale(.55) translate(29, -16)" d="M31.229,17.736c0.064-0.571,0.104-1.148,0.104-1.736s-0.04-1.166-0.104-1.737l-4.377-1.557c-0.218-0.716-0.504-1.401-0.851-2.05l1.993-4.192c-0.725-0.91-1.549-1.734-2.458-2.459l-4.193,1.994c-0.647-0.347-1.334-0.632-2.049-0.849l-1.558-4.378C17.165,0.708,16.588,0.667,16,0.667s-1.166,0.041-1.737,0.105L12.707,5.15c-0.716,0.217-1.401,0.502-2.05,0.849L6.464,4.005C5.554,4.73,4.73,5.554,4.005,6.464l1.994,4.192c-0.347,0.648-0.632,1.334-0.849,2.05l-4.378,1.557C0.708,14.834,0.667,15.412,0.667,16s0.041,1.165,0.105,1.736l4.378,1.558c0.217,0.715,0.502,1.401,0.849,2.049l-1.994,4.193c0.725,0.909,1.549,1.733,2.459,2.458l4.192-1.993c0.648,0.347,1.334,0.633,2.05,0.851l1.557,4.377c0.571,0.064,1.148,0.104,1.737,0.104c0.588,0,1.165-0.04,1.736-0.104l1.558-4.377c0.715-0.218,1.399-0.504,2.049-0.851l4.193,1.993c0.909-0.725,1.733-1.549,2.458-2.458l-1.993-4.193c0.347-0.647,0.633-1.334,0.851-2.049L31.229,17.736zM16,20.871c-2.69,0-4.872-2.182-4.872-4.871c0-2.69,2.182-4.872,4.872-4.872c2.689,0,4.871,2.182,4.871,4.872C20.871,18.689,18.689,20.871,16,20.871z"></path><title>Link options.</title></g></g></g></g><!--z-index:83--><g   id="j_20" ><path  stroke="#000000" d="M 515 1964 L 1083 1199" id="v-167" stroke-width="1" stroke-dasharray="" fill="none" style="opacity: 1;"></path><path  fill="black" stroke="black" d="M 0 0 0 0" transform="matrix(0.5957651858765683,-0.8031586663278047,0.8031586663278047,0.5957651858765683,515.27001953125,1964)"></path><path  fill="#000000" stroke="#000000" d="M 10 0 L 0 5 L 10 10 z" id="v-169" transform="matrix(-0.5957651858765685,0.8031586663278046,-0.8031586663278046,-0.5957651858765685,1086.7458399641469,1201.9787796680562)" style="opacity: 1;"></path><path  d="M 515 1964 L 1083 1199" id="v-168" fill="none" style="cursor: default;"></path><g ><g id="v-161"  label-idx="0" cursor="move" transform="matrix(1,0,0,1,799,1581.5)" style="cursor: default; opacity: 1;"><rect joint-selector="rect" id="v-164" fill="#ffffff" rx="3" ry="3" pointer-events="none" width="170.49761962890625" height="176.3519515991211" transform="matrix(1,0,0,1,-85.2,-88.2)"></rect><text joint-selector="text" id="v-163" font-size="24px" xml:space="preserve" y="0.8em" fill="#000000" text-anchor="middle" pointer-events="none" font-family="Open Sans, Tahoma, Arial" font-weight="normal" transform="matrix(1,0,0,1,0,-82)"><tspan dy="0" >Отправляет</tspan><tspan dy="1.2em" x="0" >запросы с</tspan><tspan dy="1.2em" x="0" >токеном к</tspan><tspan dy="1.2em" x="0" >хранилищу</tspan><tspan dy="1.2em" x="0" >образов через</tspan><tspan dy="1.2em" x="0" >svc [5001 TCP]</tspan></text></g><g id="v-162"  label-idx="1" cursor="move" transform="matrix(1,0,0,1,789,1665.5)" style="cursor: default; opacity: 1;"><rect joint-selector="rect" id="v-166" fill="#ffffff" rx="3" ry="3"  width="0" height="0" transform="matrix(1,0,0,1,0,0)" display="none"></rect><text joint-selector="text" id="v-165" fill="#000000" font-size="14" text-anchor="middle" pointer-events="none"></text></g></g><g  display="none"></g><g  id="v-171" display="none"><g  id="v-159"><path  end="source" d="M 26 0 L 0 13 L 26 26 z"></path></g><g  id="v-160"><path  end="target" d="M 26 0 L 0 13 L 26 26 z"></path></g></g><g  id="v-170" display="none"><g  id="v-158" transform="translate(538.8452300812187, 1931.8845052603303) "><g  event="remove"><circle r="11"></circle><path transform="scale(.8) translate(-16, -16)" d="M24.778,21.419 19.276,15.917 24.777,10.415 21.949,7.585 16.447,13.087 10.945,7.585 8.117,10.415 13.618,15.917 8.116,21.419 10.946,24.248 16.447,18.746 21.948,24.248z"></path><title>Remove link.</title></g><g  event="link:options"><circle r="11" transform="translate(25)"></circle><path fill="white" transform="scale(.55) translate(29, -16)" d="M31.229,17.736c0.064-0.571,0.104-1.148,0.104-1.736s-0.04-1.166-0.104-1.737l-4.377-1.557c-0.218-0.716-0.504-1.401-0.851-2.05l1.993-4.192c-0.725-0.91-1.549-1.734-2.458-2.459l-4.193,1.994c-0.647-0.347-1.334-0.632-2.049-0.849l-1.558-4.378C17.165,0.708,16.588,0.667,16,0.667s-1.166,0.041-1.737,0.105L12.707,5.15c-0.716,0.217-1.401,0.502-2.05,0.849L6.464,4.005C5.554,4.73,4.73,5.554,4.005,6.464l1.994,4.192c-0.347,0.648-0.632,1.334-0.849,2.05l-4.378,1.557C0.708,14.834,0.667,15.412,0.667,16s0.041,1.165,0.105,1.736l4.378,1.558c0.217,0.715,0.502,1.401,0.849,2.049l-1.994,4.193c0.725,0.909,1.549,1.733,2.459,2.458l4.192-1.993c0.648,0.347,1.334,0.633,2.05,0.851l1.557,4.377c0.571,0.064,1.148,0.104,1.737,0.104c0.588,0,1.165-0.04,1.736-0.104l1.558-4.377c0.715-0.218,1.399-0.504,2.049-0.851l4.193,1.993c0.909-0.725,1.733-1.549,2.458-2.458l-1.993-4.193c0.347-0.647,0.633-1.334,0.851-2.049L31.229,17.736zM16,20.871c-2.69,0-4.872-2.182-4.872-4.871c0-2.69,2.182-4.872,4.872-4.872c2.689,0,4.871,2.182,4.871,4.872C20.871,18.689,18.689,20.871,16,20.871z"></path><title>Link options.</title></g></g></g></g><!--z-index:84--><g   id="j_21" ><path  stroke="#000000" d="M 618 424 L 796 300 C 801.3333333333333 296 807.3333333333333 293.3333333333333 814 292 L 969 258" id="v-185" stroke-width="1" stroke-dasharray="" fill="none" style="opacity: 1;"></path><path  fill="black" stroke="black" d="M 0 0 0 0" transform="matrix(0.8192256643148058,-0.5734712816941795,0.5734712816941795,0.8192256643148058,618.2899780273438,424)"></path><path  fill="#000000" stroke="#000000" d="M 10 0 L 0 5 L 10 10 z" id="v-187" transform="matrix(-0.9770650752909068,0.21294092759912206,-0.21294092759912206,-0.9770650752909068,970.0647150730439,262.9253265490057)" style="opacity: 1;"></path><path  d="M 618 424 L 796 300 C 801.3333333333333 296 807.3333333333333 293.3333333333333 814 292 L 969 258" id="v-186" fill="none" style="cursor: default;"></path><g ><g id="v-179"  label-idx="0" cursor="move" transform="matrix(1,0,0,1,780.2518920898438,310.9705810546875)" style="cursor: default; opacity: 1;"><rect joint-selector="rect" id="v-182" fill="#ffffff" rx="3" ry="3" pointer-events="none" width="138.3984375" height="118.75194549560547" transform="matrix(1,0,0,1,-69.2,-59.4)"></rect><text joint-selector="text" id="v-181" font-size="24px" xml:space="preserve" y="0.8em" fill="#000000" text-anchor="middle" pointer-events="none" font-family="Open Sans, Tahoma, Arial" font-weight="normal" transform="matrix(1,0,0,1,0,-53.2)"><tspan dy="0" >Отправляет</tspan><tspan dy="1.2em" x="0" >запросы к</tspan><tspan dy="1.2em" x="0" >хранилищу</tspan><tspan dy="1.2em" x="0" >образов</tspan></text></g><g id="v-180"  label-idx="1" cursor="move" transform="matrix(1,0,0,1,770.2518920898438,366.17059326171875)" style="cursor: default; opacity: 1;"><rect joint-selector="rect" id="v-184" fill="#ffffff" rx="3" ry="3"  width="0" height="0" transform="matrix(1,0,0,1,0,0)" display="none"></rect><text joint-selector="text" id="v-183" fill="#000000" font-size="14" text-anchor="middle" pointer-events="none"></text></g></g><g  display="none"><g  transform="translate(804, 294)" id="v-176"><circle  idx="0" r="10"></circle><path  idx="0" d="M16,5.333c-7.732,0-14,4.701-14,10.5c0,1.982,0.741,3.833,2.016,5.414L2,25.667l5.613-1.441c2.339,1.317,5.237,2.107,8.387,2.107c7.732,0,14-4.701,14-10.5C30,10.034,23.732,5.333,16,5.333z" transform="translate(5, -33)"></path><path  idx="0" transform="scale(.8) translate(9.5, -37)" d="M24.778,21.419 19.276,15.917 24.777,10.415 21.949,7.585 16.447,13.087 10.945,7.585 8.117,10.415 13.618,15.917 8.116,21.419 10.946,24.248 16.447,18.746 21.948,24.248z"><title>Remove vertex.</title></path></g></g><g  id="v-189" display="none"><g  id="v-177"><path  end="source" d="M 26 0 L 0 13 L 26 26 z"></path></g><g  id="v-178"><path  end="target" d="M 26 0 L 0 13 L 26 26 z"></path></g></g><g  id="v-188" display="none"><g  id="v-175" transform="translate(650.8211680059268, 401.13581554643304) "><g  event="remove"><circle r="11"></circle><path transform="scale(.8) translate(-16, -16)" d="M24.778,21.419 19.276,15.917 24.777,10.415 21.949,7.585 16.447,13.087 10.945,7.585 8.117,10.415 13.618,15.917 8.116,21.419 10.946,24.248 16.447,18.746 21.948,24.248z"></path><title>Remove link.</title></g><g  event="link:options"><circle r="11" transform="translate(25)"></circle><path fill="white" transform="scale(.55) translate(29, -16)" d="M31.229,17.736c0.064-0.571,0.104-1.148,0.104-1.736s-0.04-1.166-0.104-1.737l-4.377-1.557c-0.218-0.716-0.504-1.401-0.851-2.05l1.993-4.192c-0.725-0.91-1.549-1.734-2.458-2.459l-4.193,1.994c-0.647-0.347-1.334-0.632-2.049-0.849l-1.558-4.378C17.165,0.708,16.588,0.667,16,0.667s-1.166,0.041-1.737,0.105L12.707,5.15c-0.716,0.217-1.401,0.502-2.05,0.849L6.464,4.005C5.554,4.73,4.73,5.554,4.005,6.464l1.994,4.192c-0.347,0.648-0.632,1.334-0.849,2.05l-4.378,1.557C0.708,14.834,0.667,15.412,0.667,16s0.041,1.165,0.105,1.736l4.378,1.558c0.217,0.715,0.502,1.401,0.849,2.049l-1.994,4.193c0.725,0.909,1.549,1.733,2.459,2.458l4.192-1.993c0.648,0.347,1.334,0.633,2.05,0.851l1.557,4.377c0.571,0.064,1.148,0.104,1.737,0.104c0.588,0,1.165-0.04,1.736-0.104l1.558-4.377c0.715-0.218,1.399-0.504,2.049-0.851l4.193,1.993c0.909-0.725,1.733-1.549,2.458-2.458l-1.993-4.193c0.347-0.647,0.633-1.334,0.851-2.049L31.229,17.736zM16,20.871c-2.69,0-4.872-2.182-4.872-4.871c0-2.69,2.182-4.872,4.872-4.872c2.689,0,4.871,2.182,4.871,4.872C20.871,18.689,18.689,20.871,16,20.871z"></path><title>Link options.</title></g></g></g></g><!--z-index:85--><g   id="j_22" ><path  stroke="#000000" d="M 1194 1199 L 1194 1364" id="v-202" stroke-width="1" stroke-dasharray="" fill="none" style="opacity: 1;"></path><path  fill="black" stroke="black" d="M 0 0 0 0" transform="matrix(6.123233995736766e-17,1,-1,6.123233995736766e-17,1194,1199)"></path><path  fill="#000000" stroke="#000000" d="M 10 0 L 0 5 L 10 10 z" id="v-204" transform="matrix(-1.8369701987210297e-16,-1,1,-1.8369701987210297e-16,1189,1364)" style="opacity: 1;"></path><path  d="M 1194 1199 L 1194 1364" id="v-203" fill="none" style="cursor: default;"></path><g ><g id="v-196"  label-idx="0" cursor="move" transform="matrix(1,0,0,1,1194,1281.5)" style="cursor: default; opacity: 1;"><rect joint-selector="rect" id="v-199" fill="#ffffff" rx="3" ry="3" pointer-events="none" width="195.33929443359375" height="118.75194549560547" transform="matrix(1,0,0,1,-97.7,-59.4)"></rect><text joint-selector="text" id="v-198" font-size="24px" xml:space="preserve" y="0.8em" fill="#000000" text-anchor="middle" pointer-events="none" font-family="Open Sans, Tahoma, Arial" font-weight="normal" transform="matrix(1,0,0,1,0,-53.2)"><tspan dy="0" >Аутентификация</tspan><tspan dy="1.2em" x="0" >и авторизация</tspan><tspan dy="1.2em" x="0" >запросов [5051</tspan><tspan dy="1.2em" x="0" >TCP]</tspan></text></g><g id="v-197"  label-idx="1" cursor="move" transform="matrix(1,0,0,1,1184,1336.699951171875)" style="cursor: default; opacity: 1;"><rect joint-selector="rect" id="v-201" fill="#ffffff" rx="3" ry="3"  width="0" height="0" transform="matrix(1,0,0,1,0,0)" display="none"></rect><text joint-selector="text" id="v-200" fill="#000000" font-size="14" text-anchor="middle" pointer-events="none"></text></g></g><g  display="none"></g><g  id="v-206" display="none"><g  id="v-194"><path  end="source" d="M 26 0 L 0 13 L 26 26 z"></path></g><g  id="v-195"><path  end="target" d="M 26 0 L 0 13 L 26 26 z"></path></g></g><g  id="v-205" display="none"><g  id="v-193" transform="translate(1194, 1239) "><g  event="remove"><circle r="11"></circle><path transform="scale(.8) translate(-16, -16)" d="M24.778,21.419 19.276,15.917 24.777,10.415 21.949,7.585 16.447,13.087 10.945,7.585 8.117,10.415 13.618,15.917 8.116,21.419 10.946,24.248 16.447,18.746 21.948,24.248z"></path><title>Remove link.</title></g><g  event="link:options"><circle r="11" transform="translate(25)"></circle><path fill="white" transform="scale(.55) translate(29, -16)" d="M31.229,17.736c0.064-0.571,0.104-1.148,0.104-1.736s-0.04-1.166-0.104-1.737l-4.377-1.557c-0.218-0.716-0.504-1.401-0.851-2.05l1.993-4.192c-0.725-0.91-1.549-1.734-2.458-2.459l-4.193,1.994c-0.647-0.347-1.334-0.632-2.049-0.849l-1.558-4.378C17.165,0.708,16.588,0.667,16,0.667s-1.166,0.041-1.737,0.105L12.707,5.15c-0.716,0.217-1.401,0.502-2.05,0.849L6.464,4.005C5.554,4.73,4.73,5.554,4.005,6.464l1.994,4.192c-0.347,0.648-0.632,1.334-0.849,2.05l-4.378,1.557C0.708,14.834,0.667,15.412,0.667,16s0.041,1.165,0.105,1.736l4.378,1.558c0.217,0.715,0.502,1.401,0.849,2.049l-1.994,4.193c0.725,0.909,1.549,1.733,2.459,2.458l4.192-1.993c0.648,0.347,1.334,0.633,2.05,0.851l1.557,4.377c0.571,0.064,1.148,0.104,1.737,0.104c0.588,0,1.165-0.04,1.736-0.104l1.558-4.377c0.715-0.218,1.399-0.504,2.049-0.851l4.193,1.993c0.909-0.725,1.733-1.549,2.458-2.458l-1.993-4.193c0.347-0.647,0.633-1.334,0.851-2.049L31.229,17.736zM16,20.871c-2.69,0-4.872-2.182-4.872-4.871c0-2.69,2.182-4.872,4.872-4.872c2.689,0,4.871,2.182,4.871,4.872C20.871,18.689,18.689,20.871,16,20.871z"></path><title>Link options.</title></g></g></g></g><!--z-index:86--><g   id="j_23" ><path  stroke="#000000" d="M 1194 899 L 1194 359" id="v-219" stroke-width="1" stroke-dasharray="" fill="none" style="opacity: 1;"></path><path  fill="black" stroke="black" d="M 0 0 0 0" transform="matrix(-1.8369701987210297e-16,-1,1,-1.8369701987210297e-16,1194,899)"></path><path  fill="#000000" stroke="#000000" d="M 10 0 L 0 5 L 10 10 z" id="v-221" transform="matrix(6.123233995736766e-17,1,-1,6.123233995736766e-17,1199,359)" style="opacity: 1;"></path><path  d="M 1194 899 L 1194 359" id="v-220" fill="none" style="cursor: default;"></path><g ><g id="v-213"  label-idx="0" cursor="move" transform="matrix(1,0,0,1,1194,575)" style="cursor: default; opacity: 1;"><rect joint-selector="rect" id="v-216" fill="#ffffff" rx="3" ry="3" pointer-events="none" width="140.81761169433594" height="118.75194549560547" transform="matrix(1,0,0,1,-70.4,-59.4)"></rect><text joint-selector="text" id="v-215" font-size="24px" xml:space="preserve" y="0.8em" fill="#000000" text-anchor="middle" pointer-events="none" font-family="Open Sans, Tahoma, Arial" font-weight="normal" transform="matrix(1,0,0,1,0,-53.2)"><tspan dy="0" >Пересылает</tspan><tspan dy="1.2em" x="0" >запросы к</tspan><tspan dy="1.2em" x="0" >хранилищу</tspan><tspan dy="1.2em" x="0" >образов</tspan></text></g><g id="v-214"  label-idx="1" cursor="move" transform="matrix(1,0,0,1,1184,630.2000122070312)" style="cursor: default; opacity: 1;"><rect joint-selector="rect" id="v-218" fill="#ffffff" rx="3" ry="3"  width="0" height="0" transform="matrix(1,0,0,1,0,0)" display="none"></rect><text joint-selector="text" id="v-217" fill="#000000" font-size="14" text-anchor="middle" pointer-events="none"></text></g></g><g  display="none"></g><g  id="v-223" display="none"><g  id="v-211"><path  end="source" d="M 26 0 L 0 13 L 26 26 z"></path></g><g  id="v-212"><path  end="target" d="M 26 0 L 0 13 L 26 26 z"></path></g></g><g  id="v-222" display="none"><g  id="v-210" transform="translate(1194, 859) "><g  event="remove"><circle r="11"></circle><path transform="scale(.8) translate(-16, -16)" d="M24.778,21.419 19.276,15.917 24.777,10.415 21.949,7.585 16.447,13.087 10.945,7.585 8.117,10.415 13.618,15.917 8.116,21.419 10.946,24.248 16.447,18.746 21.948,24.248z"></path><title>Remove link.</title></g><g  event="link:options"><circle r="11" transform="translate(25)"></circle><path fill="white" transform="scale(.55) translate(29, -16)" d="M31.229,17.736c0.064-0.571,0.104-1.148,0.104-1.736s-0.04-1.166-0.104-1.737l-4.377-1.557c-0.218-0.716-0.504-1.401-0.851-2.05l1.993-4.192c-0.725-0.91-1.549-1.734-2.458-2.459l-4.193,1.994c-0.647-0.347-1.334-0.632-2.049-0.849l-1.558-4.378C17.165,0.708,16.588,0.667,16,0.667s-1.166,0.041-1.737,0.105L12.707,5.15c-0.716,0.217-1.401,0.502-2.05,0.849L6.464,4.005C5.554,4.73,4.73,5.554,4.005,6.464l1.994,4.192c-0.347,0.648-0.632,1.334-0.849,2.05l-4.378,1.557C0.708,14.834,0.667,15.412,0.667,16s0.041,1.165,0.105,1.736l4.378,1.558c0.217,0.715,0.502,1.401,0.849,2.049l-1.994,4.193c0.725,0.909,1.549,1.733,2.459,2.458l4.192-1.993c0.648,0.347,1.334,0.633,2.05,0.851l1.557,4.377c0.571,0.064,1.148,0.104,1.737,0.104c0.588,0,1.165-0.04,1.736-0.104l1.558-4.377c0.715-0.218,1.399-0.504,2.049-0.851l4.193,1.993c0.909-0.725,1.733-1.549,2.458-2.458l-1.993-4.193c0.347-0.647,0.633-1.334,0.851-2.049L31.229,17.736zM16,20.871c-2.69,0-4.872-2.182-4.872-4.871c0-2.69,2.182-4.872,4.872-4.872c2.689,0,4.871,2.182,4.871,4.872C20.871,18.689,18.689,20.871,16,20.871z"></path><title>Link options.</title></g></g></g></g><!--z-index:87--></g><g ></g><g ></g><g ></g></g></svg>