<svg xmlns="http://www.w3.org/2000/svg" xmlns:xlink="http://www.w3.org/1999/xlink" version="1.1" viewBox="0 0 1600 2587" style="background: #ffffff"><defs joint-selector="defs"></defs><g joint-selector="layers"  transform="matrix(1,0,0,1,0,0)"><g ></g><g ><!--z-index:1--><!--z-index:2--><!--z-index:3--><!--z-index:4--><!--z-index:5--><!--z-index:6--><!--z-index:7--><!--z-index:8--><!--z-index:9--><!--z-index:10--><!--z-index:11--><!--z-index:12--><!--z-index:13--><!--z-index:14--><!--z-index:15--><!--z-index:16--><!--z-index:17--><!--z-index:18--><!--z-index:19--><!--z-index:20--><!--z-index:21--><!--z-index:22--><!--z-index:23--><!--z-index:24--><!--z-index:25--><!--z-index:26--><!--z-index:27--><!--z-index:28--><!--z-index:29--><!--z-index:30--><!--z-index:31--><!--z-index:32--><!--z-index:33--><!--z-index:34--><!--z-index:35--><!--z-index:36--><!--z-index:37--><!--z-index:38--><!--z-index:39--><!--z-index:40--><!--z-index:41--><!--z-index:42--><!--z-index:43--><!--z-index:44--><!--z-index:45--><!--z-index:46--><!--z-index:47--><!--z-index:48--><!--z-index:49--><!--z-index:50--><!--z-index:51--><!--z-index:52--><!--z-index:53--><!--z-index:54--><!--z-index:55--><!--z-index:56--><!--z-index:57--><!--z-index:58--><!--z-index:59--><!--z-index:60--><!--z-index:61--><!--z-index:62--><!--z-index:63--><!--z-index:64--><g   id="j_42"  transform="translate(20,2543)"><g id="v-435"><text  id="v-436" font-size="24px" xml:space="preserve" y="0.8em" font-weight="normal" text-anchor="start" fill="#444444" pointer-events="none" display="block" font-family="Open Sans, Tahoma, Arial"><tspan dy="0"  display="none">пятница, 19 июня 2026 г. в 22:29 Восточная Европа, стандартное время</tspan></text></g></g><!--z-index:65--><g   id="j_41"  transform="translate(20,2497)"><g id="v-433"><text  id="v-434" font-size="36px" xml:space="preserve" y="0.8em" font-weight="normal" text-anchor="start" fill="#444444" pointer-events="none" display="block" font-family="Open Sans, Tahoma, Arial"><tspan dy="0"  display="none">L2: Module registry (Direct mode)</tspan></text></g></g><!--z-index:66--><g   id="j_43"  transform="translate(969,59)" style=""><g  id="v-440" style="opacity: 1;"><rect  id="v-441" rx="20" ry="20" stroke-width="1" pointer-events="visiblePainted" fill="#ededed" stroke="#696a6d" stroke-dasharray="" width="450" height="300"></rect><text  id="v-442" font-size="33.599999999999994px" xml:space="preserve" y="133.2" font-weight="bold" text-anchor="middle" pointer-events="visible" font-family="Open Sans, Tahoma, Arial" fill="#000000" dominant-baseline="hanging" transform="matrix(1,0,0,1,225,0)"><tspan dy="0" >Хранилище образов</tspan></text><text  id="v-443" font-size="16.799999999999997px" xml:space="preserve" display="none" y="133.2" text-anchor="middle" font-family="Open Sans, Tahoma, Arial" fill="#000000" dominant-baseline="hanging" transform="matrix(1,0,0,1,225,0)" style="display: block;"><tspan dy="0"  style="fill-opacity: 0; stroke-opacity: 0;">-</tspan></text><text  id="v-444" font-size="24px" xml:space="preserve" display="none" y="133.2" text-anchor="middle" font-family="Open Sans, Tahoma, Arial" fill="#000000" dominant-baseline="hanging" transform="matrix(1,0,0,1,225,0)" style="display: block;"><tspan dy="0"  style="fill-opacity: 0; stroke-opacity: 0;">-</tspan></text><g  id="v-445" color="#000000" transform="matrix(1,0,0,1,222.5,268)" display="none"><g ></g><g ></g><g ></g><g ></g></g><image  id="v-446"></image></g></g><!--z-index:67--><g   id="j_48"  transform="translate(99,384)" style=""><g id="v-472"><rect  id="v-473" width="1400" height="2062" rx="20" ry="20" stroke-width="1" pointer-events="none" stroke="#004df2" fill="#ffffff" stroke-dasharray=""></rect><text  id="v-474" font-size="33.599999999999994px" xml:space="preserve" y="2023" font-weight="bold" text-anchor="start" pointer-events="visible" font-family="Open Sans, Tahoma, Arial" fill="#003ab5" transform="matrix(1,0,0,1,15,0)"><tspan dy="0" >Deckhouse Kubernetes Platform</tspan></text><text  id="v-475" font-size="16.799999999999997px" xml:space="preserve" y="2047" font-weight="normal" text-anchor="start" pointer-events="visible" font-family="Open Sans, Tahoma, Arial" fill="#003ab5" transform="matrix(1,0,0,1,15,0)"><tspan dy="0" >[Software System]</tspan></text><image  id="v-476" pointer-events="visible"></image></g></g><!--z-index:68--><g   id="j_45"  transform="translate(119,839)" style=""><g id="v-457"><rect  id="v-458" width="1360" height="1074" rx="20" ry="20" stroke-width="1" pointer-events="none" stroke="#325ebd" fill="#f6f9ff" stroke-dasharray="1,2"></rect><text  id="v-459" font-size="33.599999999999994px" xml:space="preserve" y="1059" font-weight="bold" text-anchor="start" pointer-events="visible" font-family="Open Sans, Tahoma, Arial" fill="#325ebd" transform="matrix(1,0,0,1,15,0)"><tspan dy="0" >Подсистема Deckhouse</tspan></text><text  id="v-460" font-size="16.799999999999997px" xml:space="preserve" display="none" y="1059" font-weight="normal" text-anchor="start" pointer-events="visible" font-family="Open Sans, Tahoma, Arial" fill="#325ebd" transform="matrix(1,0,0,1,15,0)"><tspan dy="0" style="fill-opacity: 0; stroke-opacity: 0;" >-</tspan></text><image  id="v-461" pointer-events="visible"></image></g></g><!--z-index:69--><g   id="j_54"  transform="translate(159,404)" style=""><g id="v-514"><rect  id="v-515" width="490" height="403" rx="20" ry="20" stroke-width="1" pointer-events="none" stroke="#325ebd" fill="#f6f9ff" stroke-dasharray="1,2"></rect><text  id="v-516" font-size="33.599999999999994px" xml:space="preserve" y="388" font-weight="bold" text-anchor="start" pointer-events="visible" font-family="Open Sans, Tahoma, Arial" fill="#325ebd" transform="matrix(1,0,0,1,15,0)"><tspan dy="0" >Подсистема Kubernetes &amp; Scheduling</tspan></text><text  id="v-517" font-size="16.799999999999997px" xml:space="preserve" display="none" y="388" font-weight="normal" text-anchor="start" pointer-events="visible" font-family="Open Sans, Tahoma, Arial" fill="#325ebd" transform="matrix(1,0,0,1,15,0)"><tspan dy="0" style="fill-opacity: 0; stroke-opacity: 0;" >-</tspan></text><image  id="v-518" pointer-events="visible"></image></g></g><!--z-index:70--><g   id="j_56"  transform="translate(159,1944)" style=""><g id="v-526"><rect  id="v-527" width="490" height="403" rx="20" ry="20" stroke-width="1" pointer-events="none" stroke="#325ebd" fill="#f6f9ff" stroke-dasharray="1,2"></rect><text  id="v-528" font-size="33.599999999999994px" xml:space="preserve" y="388" font-weight="bold" text-anchor="start" pointer-events="visible" font-family="Open Sans, Tahoma, Arial" fill="#325ebd" transform="matrix(1,0,0,1,15,0)"><tspan dy="0" >Подсистема Security</tspan></text><text  id="v-529" font-size="16.799999999999997px" xml:space="preserve" display="none" y="388" font-weight="normal" text-anchor="start" pointer-events="visible" font-family="Open Sans, Tahoma, Arial" fill="#325ebd" transform="matrix(1,0,0,1,15,0)"><tspan dy="0" style="fill-opacity: 0; stroke-opacity: 0;" >-</tspan></text><image  id="v-530" pointer-events="visible"></image></g></g><!--z-index:71--><g   id="j_46"  transform="translate(139,859)" style=""><g id="v-462"><rect  id="v-463" width="530" height="506" rx="20" ry="20" stroke-width="1" pointer-events="none" stroke="#325ebd" fill="#d8e4ff" stroke-dasharray="1,2"></rect><text  id="v-464" font-size="33.599999999999994px" xml:space="preserve" y="491" font-weight="bold" text-anchor="start" pointer-events="visible" font-family="Open Sans, Tahoma, Arial" fill="#325ebd" transform="matrix(1,0,0,1,15,0)"><tspan dy="0" >Модуль deckhouse</tspan></text><text  id="v-465" font-size="16.799999999999997px" xml:space="preserve" display="none" y="491" font-weight="normal" text-anchor="start" pointer-events="visible" font-family="Open Sans, Tahoma, Arial" fill="#325ebd" transform="matrix(1,0,0,1,15,0)"><tspan dy="0" style="fill-opacity: 0; stroke-opacity: 0;" >-</tspan></text><image  id="v-466" pointer-events="visible"></image></g></g><!--z-index:72--><g   id="j_50"  transform="translate(929,859)" style=""><g id="v-487"><rect  id="v-488" width="530" height="971" rx="20" ry="20" stroke-width="1" pointer-events="none" stroke="#325ebd" fill="#d8e4ff" stroke-dasharray="1,2"></rect><text  id="v-489" font-size="33.599999999999994px" xml:space="preserve" y="956" font-weight="bold" text-anchor="start" pointer-events="visible" font-family="Open Sans, Tahoma, Arial" fill="#325ebd" transform="matrix(1,0,0,1,15,0)"><tspan dy="0" >Модуль registry</tspan></text><text  id="v-490" font-size="16.799999999999997px" xml:space="preserve" display="none" y="956" font-weight="normal" text-anchor="start" pointer-events="visible" font-family="Open Sans, Tahoma, Arial" fill="#325ebd" transform="matrix(1,0,0,1,15,0)"><tspan dy="0" style="fill-opacity: 0; stroke-opacity: 0;" >-</tspan></text><image  id="v-491" pointer-events="visible"></image></g></g><!--z-index:73--><g   id="j_53"  transform="translate(179,424)" style=""><g  id="v-507" style="opacity: 1;"><rect  id="v-508" rx="20" ry="20" stroke-width="1" pointer-events="visiblePainted" fill="#efecff" stroke="#3f2cb4" stroke-dasharray="" width="450" height="300"></rect><text  id="v-509" font-size="33.599999999999994px" xml:space="preserve" y="101.30000000000001" font-weight="bold" text-anchor="middle" pointer-events="visible" font-family="Open Sans, Tahoma, Arial" fill="#3f2cb4" dominant-baseline="hanging" transform="matrix(1,0,0,1,225,0)"><tspan dy="0" >containerd</tspan></text><text  id="v-510" font-size="16.799999999999997px" xml:space="preserve" y="142.9" text-anchor="middle" font-family="Open Sans, Tahoma, Arial" fill="#3f2cb4" dominant-baseline="hanging" transform="matrix(1,0,0,1,225,0)" style="display: block;"><tspan dy="0" >[Container]</tspan></text><text  id="v-511" font-size="24px" xml:space="preserve" y="174.7" text-anchor="middle" font-family="Open Sans, Tahoma, Arial" fill="#3f2cb4" dominant-baseline="hanging" transform="matrix(1,0,0,1,225,0)" style="display: block;"><tspan dy="0" >Служба</tspan></text><g  id="v-512" color="#3f2cb4" transform="matrix(1,0,0,1,222.5,268)" display="none"><g ></g><g ></g><g ></g><g ></g></g><image  id="v-513"></image></g></g><!--z-index:74--><g   id="j_55"  transform="translate(179,1964)" style=""><g  id="v-519" style="opacity: 1;"><rect  id="v-520" rx="20" ry="20" stroke-width="1" pointer-events="visiblePainted" fill="#d8e4ff" stroke="#325ebd" stroke-dasharray="" width="450" height="300"></rect><text  id="v-521" font-size="33.599999999999994px" xml:space="preserve" y="101.30000000000001" font-weight="bold" text-anchor="middle" pointer-events="visible" font-family="Open Sans, Tahoma, Arial" fill="#325ebd" dominant-baseline="hanging" transform="matrix(1,0,0,1,225,0)"><tspan dy="0" >operator-trivy</tspan></text><text  id="v-522" font-size="16.799999999999997px" xml:space="preserve" y="142.9" text-anchor="middle" font-family="Open Sans, Tahoma, Arial" fill="#325ebd" dominant-baseline="hanging" transform="matrix(1,0,0,1,225,0)" style="display: block;"><tspan dy="0" >[Container]</tspan></text><text  id="v-523" font-size="24px" xml:space="preserve" y="174.7" text-anchor="middle" font-family="Open Sans, Tahoma, Arial" fill="#325ebd" dominant-baseline="hanging" transform="matrix(1,0,0,1,225,0)" style="display: block;"><tspan dy="0" >Модуль</tspan></text><g  id="v-524" color="#325ebd" transform="matrix(1,0,0,1,222.5,268)" display="none"><g ></g><g ></g><g ></g><g ></g></g><image  id="v-525"></image></g></g><!--z-index:75--><g   id="j_47"  transform="translate(159,879)" style=""><g id="v-467"><rect  id="v-468" width="490" height="403" rx="20" ry="20" stroke-width="1" pointer-events="none" stroke="#000000" fill="#ffffff" stroke-dasharray="1,2"></rect><text  id="v-469" font-size="33.599999999999994px" xml:space="preserve" y="388" font-weight="bold" text-anchor="start" pointer-events="visible" font-family="Open Sans, Tahoma, Arial" fill="#000000" transform="matrix(1,0,0,1,15,0)"><tspan dy="0" >deckhouse [pod]</tspan></text><text  id="v-470" font-size="16.799999999999997px" xml:space="preserve" display="none" y="388" font-weight="normal" text-anchor="start" pointer-events="visible" font-family="Open Sans, Tahoma, Arial" fill="#000000" transform="matrix(1,0,0,1,15,0)"><tspan dy="0" style="fill-opacity: 0; stroke-opacity: 0;" >-</tspan></text><image  id="v-471" pointer-events="visible"></image></g></g><!--z-index:76--><g   id="j_51"  transform="translate(949,879)" style=""><g id="v-492"><rect  id="v-493" width="490" height="868" rx="20" ry="20" stroke-width="1" pointer-events="none" stroke="#000000" fill="#ffffff" stroke-dasharray="1,2"></rect><text  id="v-494" font-size="33.599999999999994px" xml:space="preserve" y="853" font-weight="bold" text-anchor="start" pointer-events="visible" font-family="Open Sans, Tahoma, Arial" fill="#000000" transform="matrix(1,0,0,1,15,0)"><tspan dy="0" >registry-incluster-proxy [pod]</tspan></text><text  id="v-495" font-size="16.799999999999997px" xml:space="preserve" display="none" y="853" font-weight="normal" text-anchor="start" pointer-events="visible" font-family="Open Sans, Tahoma, Arial" fill="#000000" transform="matrix(1,0,0,1,15,0)"><tspan dy="0" style="fill-opacity: 0; stroke-opacity: 0;" >-</tspan></text><image  id="v-496" pointer-events="visible"></image></g></g><!--z-index:77--><g   id="j_44"  transform="translate(179,899)" style=""><g  id="v-450" style="opacity: 1;"><rect  id="v-451" rx="20" ry="20" stroke-width="2" pointer-events="visiblePainted" fill="#e3ebff" stroke="#485d8e" stroke-dasharray="" width="450" height="300"></rect><text  id="v-452" font-size="33.599999999999994px" xml:space="preserve" y="120.80000000000001" font-weight="bold" text-anchor="middle" pointer-events="visible" font-family="Open Sans, Tahoma, Arial" fill="#000000" dominant-baseline="hanging" transform="matrix(1,0,0,1,225,0)"><tspan dy="0" >deckhouse (controller)</tspan></text><text  id="v-453" font-size="16.799999999999997px" xml:space="preserve" y="162.4" text-anchor="middle" font-family="Open Sans, Tahoma, Arial" fill="#000000" dominant-baseline="hanging" transform="matrix(1,0,0,1,225,0)" style="display: block;"><tspan dy="0" >[Container]</tspan></text><text  id="v-454" font-size="24px" xml:space="preserve" display="none" y="120.80000000000001" text-anchor="middle" font-family="Open Sans, Tahoma, Arial" fill="#000000" dominant-baseline="hanging" transform="matrix(1,0,0,1,225,0)" style="display: block;"><tspan dy="0"  style="fill-opacity: 0; stroke-opacity: 0;">-</tspan></text><g  id="v-455" color="#000000" transform="matrix(1,0,0,1,222.5,268)" display="none"><g ></g><g ></g><g ></g><g ></g></g><image  id="v-456"></image></g></g><!--z-index:78--><g   id="j_49"  transform="translate(969,899)" style=""><g  id="v-480" style="opacity: 1;"><rect  id="v-481" rx="20" ry="20" stroke-width="2" pointer-events="visiblePainted" fill="#e3ebff" stroke="#485d8e" stroke-dasharray="" width="450" height="300"></rect><text  id="v-482" font-size="33.599999999999994px" xml:space="preserve" y="100.64000000000001" font-weight="bold" text-anchor="middle" pointer-events="visible" font-family="Open Sans, Tahoma, Arial" fill="#000000" dominant-baseline="hanging" transform="matrix(1,0,0,1,225,0)"><tspan dy="0" >distribution</tspan><tspan dy="1.2em" x="0" >(registry-incluster-proxy)</tspan></text><text  id="v-483" font-size="16.799999999999997px" xml:space="preserve" y="182.56" text-anchor="middle" font-family="Open Sans, Tahoma, Arial" fill="#000000" dominant-baseline="hanging" transform="matrix(1,0,0,1,225,0)" style="display: block;"><tspan dy="0" >[Container]</tspan></text><text  id="v-484" font-size="24px" xml:space="preserve" display="none" y="100.64000000000001" text-anchor="middle" font-family="Open Sans, Tahoma, Arial" fill="#000000" dominant-baseline="hanging" transform="matrix(1,0,0,1,225,0)" style="display: block;"><tspan dy="0"  style="fill-opacity: 0; stroke-opacity: 0;">-</tspan></text><g  id="v-485" color="#000000" transform="matrix(1,0,0,1,222.5,268)" display="none"><g ></g><g ></g><g ></g><g ></g></g><image  id="v-486"></image></g></g><!--z-index:79--><g   id="j_52"  transform="translate(969,1364)" style=""><g  id="v-500" style="opacity: 1;"><rect  id="v-501" rx="20" ry="20" stroke-width="2" pointer-events="visiblePainted" fill="#e3ebff" stroke="#485d8e" stroke-dasharray="" width="450" height="300"></rect><text  id="v-502" font-size="33.599999999999994px" xml:space="preserve" y="100.64000000000001" font-weight="bold" text-anchor="middle" pointer-events="visible" font-family="Open Sans, Tahoma, Arial" fill="#000000" dominant-baseline="hanging" transform="matrix(1,0,0,1,225,0)"><tspan dy="0" >auth</tspan><tspan dy="1.2em" x="0" >(registry-incluster-proxy)</tspan></text><text  id="v-503" font-size="16.799999999999997px" xml:space="preserve" y="182.56" text-anchor="middle" font-family="Open Sans, Tahoma, Arial" fill="#000000" dominant-baseline="hanging" transform="matrix(1,0,0,1,225,0)" style="display: block;"><tspan dy="0" >[Container]</tspan></text><text  id="v-504" font-size="24px" xml:space="preserve" display="none" y="100.64000000000001" text-anchor="middle" font-family="Open Sans, Tahoma, Arial" fill="#000000" dominant-baseline="hanging" transform="matrix(1,0,0,1,225,0)" style="display: block;"><tspan dy="0"  style="fill-opacity: 0; stroke-opacity: 0;">-</tspan></text><g  id="v-505" color="#000000" transform="matrix(1,0,0,1,222.5,268)" display="none"><g ></g><g ></g><g ></g><g ></g></g><image  id="v-506"></image></g></g><!--z-index:80--><g   id="j_57" ><path  stroke="#000000" d="M 629 962 L 756 914 C 762 911.3333333333333 768.3333333333333 911 775 913 L 969 976" id="v-544" stroke-width="1" stroke-dasharray="" fill="none" style="opacity: 1;"></path><path  fill="black" stroke="black" d="M 0 0 0 0" transform="matrix(0.9332023511397812,-0.35935132089249994,0.35935132089249994,0.9332023511397812,629,962.3699951171875)"></path><path  fill="#000000" stroke="#000000" d="M 10 0 L 0 5 L 10 10 z" id="v-546" transform="matrix(-0.9513078626691098,-0.3082423566350512,0.3082423566350512,-0.9513078626691098,967.4587967684515,980.8565279519895)" style="opacity: 1;"></path><path  d="M 629 962 L 756 914 C 762 911.3333333333333 768.3333333333333 911 775 913 L 969 976" id="v-545" fill="none" style="cursor: default;"></path><g ><g id="v-538"  label-idx="0" cursor="move" transform="matrix(1,0,0,1,798.1873779296875,920.5299072265625)" style="cursor: default; opacity: 1;"><rect joint-selector="rect" id="v-541" fill="#ffffff" rx="3" ry="3" pointer-events="none" width="199.27496337890625" height="118.75194549560547" transform="matrix(1,0,0,1,-99.6,-59.4)"></rect><text joint-selector="text" id="v-540" font-size="24px" xml:space="preserve" y="0.8em" fill="#000000" text-anchor="middle" pointer-events="none" font-family="Open Sans, Tahoma, Arial" font-weight="normal" transform="matrix(1,0,0,1,0,-53.2)"><tspan dy="0" >Получает автори</tspan><tspan dy="1.2em" x="0" >зационный</tspan><tspan dy="1.2em" x="0" >токен через svc</tspan><tspan dy="1.2em" x="0" >[5001 TCP]</tspan></text></g><g id="v-539"  label-idx="1" cursor="move" transform="matrix(1,0,0,1,788.1873779296875,975.7299194335938)" style="cursor: default; opacity: 1;"><rect joint-selector="rect" id="v-543" fill="#ffffff" rx="3" ry="3"  width="0" height="0" transform="matrix(1,0,0,1,0,0)" display="none"></rect><text joint-selector="text" id="v-542" fill="#000000" font-size="14" text-anchor="middle" pointer-events="none"></text></g></g><g  display="none"><g  transform="translate(765, 910)" id="v-535"><circle  idx="0" r="10"></circle><path  idx="0" d="M16,5.333c-7.732,0-14,4.701-14,10.5c0,1.982,0.741,3.833,2.016,5.414L2,25.667l5.613-1.441c2.339,1.317,5.237,2.107,8.387,2.107c7.732,0,14-4.701,14-10.5C30,10.034,23.732,5.333,16,5.333z" transform="translate(5, -33)"></path><path  idx="0" transform="scale(.8) translate(9.5, -37)" d="M24.778,21.419 19.276,15.917 24.777,10.415 21.949,7.585 16.447,13.087 10.945,7.585 8.117,10.415 13.618,15.917 8.116,21.419 10.946,24.248 16.447,18.746 21.948,24.248z"><title>Remove vertex.</title></path></g></g><g  id="v-548" display="none"><g  id="v-536"><path  end="source" d="M 26 0 L 0 13 L 26 26 z"></path></g><g  id="v-537"><path  end="target" d="M 26 0 L 0 13 L 26 26 z"></path></g></g><g  id="v-547" display="none"><g  id="v-534" transform="translate(666.4167188580958, 947.8582479906408) "><g  event="remove"><circle r="11"></circle><path transform="scale(.8) translate(-16, -16)" d="M24.778,21.419 19.276,15.917 24.777,10.415 21.949,7.585 16.447,13.087 10.945,7.585 8.117,10.415 13.618,15.917 8.116,21.419 10.946,24.248 16.447,18.746 21.948,24.248z"></path><title>Remove link.</title></g><g  event="link:options"><circle r="11" transform="translate(25)"></circle><path fill="white" transform="scale(.55) translate(29, -16)" d="M31.229,17.736c0.064-0.571,0.104-1.148,0.104-1.736s-0.04-1.166-0.104-1.737l-4.377-1.557c-0.218-0.716-0.504-1.401-0.851-2.05l1.993-4.192c-0.725-0.91-1.549-1.734-2.458-2.459l-4.193,1.994c-0.647-0.347-1.334-0.632-2.049-0.849l-1.558-4.378C17.165,0.708,16.588,0.667,16,0.667s-1.166,0.041-1.737,0.105L12.707,5.15c-0.716,0.217-1.401,0.502-2.05,0.849L6.464,4.005C5.554,4.73,4.73,5.554,4.005,6.464l1.994,4.192c-0.347,0.648-0.632,1.334-0.849,2.05l-4.378,1.557C0.708,14.834,0.667,15.412,0.667,16s0.041,1.165,0.105,1.736l4.378,1.558c0.217,0.715,0.502,1.401,0.849,2.049l-1.994,4.193c0.725,0.909,1.549,1.733,2.459,2.458l4.192-1.993c0.648,0.347,1.334,0.633,2.05,0.851l1.557,4.377c0.571,0.064,1.148,0.104,1.737,0.104c0.588,0,1.165-0.04,1.736-0.104l1.558-4.377c0.715-0.218,1.399-0.504,2.049-0.851l4.193,1.993c0.909-0.725,1.733-1.549,2.458-2.458l-1.993-4.193c0.347-0.647,0.633-1.334,0.851-2.049L31.229,17.736zM16,20.871c-2.69,0-4.872-2.182-4.872-4.871c0-2.69,2.182-4.872,4.872-4.872c2.689,0,4.871,2.182,4.871,4.872C20.871,18.689,18.689,20.871,16,20.871z"></path><title>Link options.</title></g></g></g></g><!--z-index:81--><g   id="j_58" ><path  stroke="#000000" d="M 629 1096 L 780 1128 C 786.6666666666666 1129.3333333333333 793.3333333333333 1129.3333333333333 800 1128 L 969 1094" id="v-562" stroke-width="1" stroke-dasharray="" fill="none" style="opacity: 1;"></path><path  fill="black" stroke="black" d="M 0 0 0 0" transform="matrix(0.9786901612356335,0.20534256329502104,-0.20534256329502104,0.9786901612356335,629,1096.219970703125)"></path><path  fill="#000000" stroke="#000000" d="M 10 0 L 0 5 L 10 10 z" id="v-564" transform="matrix(-0.9804857518206619,0.1965901586465389,-0.1965901586465389,-0.9804857518206619,969.9829747671797,1099.012373473683)" style="opacity: 1;"></path><path  d="M 629 1096 L 780 1128 C 786.6666666666666 1129.3333333333333 793.3333333333333 1129.3333333333333 800 1128 L 969 1094" id="v-563" fill="none" style="cursor: default;"></path><g ><g id="v-556"  label-idx="0" cursor="move" transform="matrix(1,0,0,1,798.984375,1128.19287109375)" style="cursor: default; opacity: 1;"><rect joint-selector="rect" id="v-559" fill="#ffffff" rx="3" ry="3" pointer-events="none" width="170.49761962890625" height="176.3519515991211" transform="matrix(1,0,0,1,-85.2,-88.2)"></rect><text joint-selector="text" id="v-558" font-size="24px" xml:space="preserve" y="0.8em" fill="#000000" text-anchor="middle" pointer-events="none" font-family="Open Sans, Tahoma, Arial" font-weight="normal" transform="matrix(1,0,0,1,0,-82)"><tspan dy="0" >Отправляет</tspan><tspan dy="1.2em" x="0" >запросы с</tspan><tspan dy="1.2em" x="0" >токеном к</tspan><tspan dy="1.2em" x="0" >хранилищу</tspan><tspan dy="1.2em" x="0" >образов через</tspan><tspan dy="1.2em" x="0" >svc [5001 TCP]</tspan></text></g><g id="v-557"  label-idx="1" cursor="move" transform="matrix(1,0,0,1,788.984375,1212.19287109375)" style="cursor: default; opacity: 1;"><rect joint-selector="rect" id="v-561" fill="#ffffff" rx="3" ry="3"  width="0" height="0" transform="matrix(1,0,0,1,0,0)" display="none"></rect><text joint-selector="text" id="v-560" fill="#000000" font-size="14" text-anchor="middle" pointer-events="none"></text></g></g><g  display="none"><g  transform="translate(790, 1130)" id="v-553"><circle  idx="0" r="10"></circle><path  idx="0" d="M16,5.333c-7.732,0-14,4.701-14,10.5c0,1.982,0.741,3.833,2.016,5.414L2,25.667l5.613-1.441c2.339,1.317,5.237,2.107,8.387,2.107c7.732,0,14-4.701,14-10.5C30,10.034,23.732,5.333,16,5.333z" transform="translate(5, -33)"></path><path  idx="0" transform="scale(.8) translate(9.5, -37)" d="M24.778,21.419 19.276,15.917 24.777,10.415 21.949,7.585 16.447,13.087 10.945,7.585 8.117,10.415 13.618,15.917 8.116,21.419 10.946,24.248 16.447,18.746 21.948,24.248z"><title>Remove vertex.</title></path></g></g><g  id="v-566" display="none"><g  id="v-554"><path  end="source" d="M 26 0 L 0 13 L 26 26 z"></path></g><g  id="v-555"><path  end="target" d="M 26 0 L 0 13 L 26 26 z"></path></g></g><g  id="v-565" display="none"><g  id="v-552" transform="translate(668.1309583228609, 1104.2926534194144) "><g  event="remove"><circle r="11"></circle><path transform="scale(.8) translate(-16, -16)" d="M24.778,21.419 19.276,15.917 24.777,10.415 21.949,7.585 16.447,13.087 10.945,7.585 8.117,10.415 13.618,15.917 8.116,21.419 10.946,24.248 16.447,18.746 21.948,24.248z"></path><title>Remove link.</title></g><g  event="link:options"><circle r="11" transform="translate(25)"></circle><path fill="white" transform="scale(.55) translate(29, -16)" d="M31.229,17.736c0.064-0.571,0.104-1.148,0.104-1.736s-0.04-1.166-0.104-1.737l-4.377-1.557c-0.218-0.716-0.504-1.401-0.851-2.05l1.993-4.192c-0.725-0.91-1.549-1.734-2.458-2.459l-4.193,1.994c-0.647-0.347-1.334-0.632-2.049-0.849l-1.558-4.378C17.165,0.708,16.588,0.667,16,0.667s-1.166,0.041-1.737,0.105L12.707,5.15c-0.716,0.217-1.401,0.502-2.05,0.849L6.464,4.005C5.554,4.73,4.73,5.554,4.005,6.464l1.994,4.192c-0.347,0.648-0.632,1.334-0.849,2.05l-4.378,1.557C0.708,14.834,0.667,15.412,0.667,16s0.041,1.165,0.105,1.736l4.378,1.558c0.217,0.715,0.502,1.401,0.849,2.049l-1.994,4.193c0.725,0.909,1.549,1.733,2.459,2.458l4.192-1.993c0.648,0.347,1.334,0.633,2.05,0.851l1.557,4.377c0.571,0.064,1.148,0.104,1.737,0.104c0.588,0,1.165-0.04,1.736-0.104l1.558-4.377c0.715-0.218,1.399-0.504,2.049-0.851l4.193,1.993c0.909-0.725,1.733-1.549,2.458-2.458l-1.993-4.193c0.347-0.647,0.633-1.334,0.851-2.049L31.229,17.736zM16,20.871c-2.69,0-4.872-2.182-4.872-4.871c0-2.69,2.182-4.872,4.872-4.872c2.689,0,4.871,2.182,4.871,4.872C20.871,18.689,18.689,20.871,16,20.871z"></path><title>Link options.</title></g></g></g></g><!--z-index:82--><g   id="j_59" ><path  stroke="#000000" d="M 404 1964 L 405 1535 C 405 1528.3333333333333 408 1523.3333333333333 414 1520 L 969 1185" id="v-580" stroke-width="1" stroke-dasharray="" fill="none" style="opacity: 1;"></path><path  fill="black" stroke="black" d="M 0 0 0 0" transform="matrix(0.0017086833239490563,-0.9999985401995837,0.9999985401995837,0.0017086833239490563,404.25,1964)"></path><path  fill="#000000" stroke="#000000" d="M 10 0 L 0 5 L 10 10 z" id="v-582" transform="matrix(-0.8562446062982934,0.5165705897407251,-0.5165705897407251,-0.8562446062982934,971.5828259801951,1189.0212460593502)" style="opacity: 1;"></path><path  d="M 404 1964 L 405 1535 C 405 1528.3333333333333 408 1523.3333333333333 414 1520 L 969 1185" id="v-581" fill="none" style="cursor: default;"></path><g ><g id="v-574"  label-idx="0" cursor="move" transform="matrix(1,0,0,1,499.96136474609375,1468.1134033203125)" style="cursor: default; opacity: 1;"><rect joint-selector="rect" id="v-577" fill="#ffffff" rx="3" ry="3" pointer-events="none" width="199.27496337890625" height="118.75194549560547" transform="matrix(1,0,0,1,-99.6,-59.4)"></rect><text joint-selector="text" id="v-576" font-size="24px" xml:space="preserve" y="0.8em" fill="#000000" text-anchor="middle" pointer-events="none" font-family="Open Sans, Tahoma, Arial" font-weight="normal" transform="matrix(1,0,0,1,0,-53.2)"><tspan dy="0" >Получает автори</tspan><tspan dy="1.2em" x="0" >зационный</tspan><tspan dy="1.2em" x="0" >токен через svc</tspan><tspan dy="1.2em" x="0" >[5001 TCP]</tspan></text></g><g id="v-575"  label-idx="1" cursor="move" transform="matrix(1,0,0,1,489.96136474609375,1523.3133544921875)" style="cursor: default; opacity: 1;"><rect joint-selector="rect" id="v-579" fill="#ffffff" rx="3" ry="3"  width="0" height="0" transform="matrix(1,0,0,1,0,0)" display="none"></rect><text joint-selector="text" id="v-578" fill="#000000" font-size="14" text-anchor="middle" pointer-events="none"></text></g></g><g  display="none"><g  transform="translate(405, 1525)" id="v-851"><circle  idx="0" r="10"></circle><path  idx="0" d="M16,5.333c-7.732,0-14,4.701-14,10.5c0,1.982,0.741,3.833,2.016,5.414L2,25.667l5.613-1.441c2.339,1.317,5.237,2.107,8.387,2.107c7.732,0,14-4.701,14-10.5C30,10.034,23.732,5.333,16,5.333z" transform="translate(5, -33)"></path><path  idx="0" transform="scale(.8) translate(9.5, -37)" d="M24.778,21.419 19.276,15.917 24.777,10.415 21.949,7.585 16.447,13.087 10.945,7.585 8.117,10.415 13.618,15.917 8.116,21.419 10.946,24.248 16.447,18.746 21.948,24.248z"><title>Remove vertex.</title></path></g></g><g  id="v-584" display="none"><g  id="v-572"><path  end="source" d="M 26 0 L 0 13 L 26 26 z"></path></g><g  id="v-573"><path  end="target" d="M 26 0 L 0 13 L 26 26 z"></path></g></g><g  id="v-583" display="none"><g  id="v-570" transform="translate(404.0932398399277, 1924.0001086709945) "><g  event="remove"><circle r="11"></circle><path transform="scale(.8) translate(-16, -16)" d="M24.778,21.419 19.276,15.917 24.777,10.415 21.949,7.585 16.447,13.087 10.945,7.585 8.117,10.415 13.618,15.917 8.116,21.419 10.946,24.248 16.447,18.746 21.948,24.248z"></path><title>Remove link.</title></g><g  event="link:options"><circle r="11" transform="translate(25)"></circle><path fill="white" transform="scale(.55) translate(29, -16)" d="M31.229,17.736c0.064-0.571,0.104-1.148,0.104-1.736s-0.04-1.166-0.104-1.737l-4.377-1.557c-0.218-0.716-0.504-1.401-0.851-2.05l1.993-4.192c-0.725-0.91-1.549-1.734-2.458-2.459l-4.193,1.994c-0.647-0.347-1.334-0.632-2.049-0.849l-1.558-4.378C17.165,0.708,16.588,0.667,16,0.667s-1.166,0.041-1.737,0.105L12.707,5.15c-0.716,0.217-1.401,0.502-2.05,0.849L6.464,4.005C5.554,4.73,4.73,5.554,4.005,6.464l1.994,4.192c-0.347,0.648-0.632,1.334-0.849,2.05l-4.378,1.557C0.708,14.834,0.667,15.412,0.667,16s0.041,1.165,0.105,1.736l4.378,1.558c0.217,0.715,0.502,1.401,0.849,2.049l-1.994,4.193c0.725,0.909,1.549,1.733,2.459,2.458l4.192-1.993c0.648,0.347,1.334,0.633,2.05,0.851l1.557,4.377c0.571,0.064,1.148,0.104,1.737,0.104c0.588,0,1.165-0.04,1.736-0.104l1.558-4.377c0.715-0.218,1.399-0.504,2.049-0.851l4.193,1.993c0.909-0.725,1.733-1.549,2.458-2.458l-1.993-4.193c0.347-0.647,0.633-1.334,0.851-2.049L31.229,17.736zM16,20.871c-2.69,0-4.872-2.182-4.872-4.871c0-2.69,2.182-4.872,4.872-4.872c2.689,0,4.871,2.182,4.871,4.872C20.871,18.689,18.689,20.871,16,20.871z"></path><title>Link options.</title></g></g></g></g><!--z-index:83--><g   id="j_60" ><path  stroke="#000000" d="M 515 1964 L 1083 1199" id="v-597" stroke-width="1" stroke-dasharray="" fill="none" style="opacity: 1;"></path><path  fill="black" stroke="black" d="M 0 0 0 0" transform="matrix(0.5957651858765683,-0.8031586663278047,0.8031586663278047,0.5957651858765683,515.27001953125,1964)"></path><path  fill="#000000" stroke="#000000" d="M 10 0 L 0 5 L 10 10 z" id="v-599" transform="matrix(-0.5957651858765685,0.8031586663278046,-0.8031586663278046,-0.5957651858765685,1086.7458399641469,1201.9787796680562)" style="opacity: 1;"></path><path  d="M 515 1964 L 1083 1199" id="v-598" fill="none" style="cursor: default;"></path><g ><g id="v-591"  label-idx="0" cursor="move" transform="matrix(1,0,0,1,799,1581.5)" style="cursor: default; opacity: 1;"><rect joint-selector="rect" id="v-594" fill="#ffffff" rx="3" ry="3" pointer-events="none" width="170.49761962890625" height="176.3519515991211" transform="matrix(1,0,0,1,-85.2,-88.2)"></rect><text joint-selector="text" id="v-593" font-size="24px" xml:space="preserve" y="0.8em" fill="#000000" text-anchor="middle" pointer-events="none" font-family="Open Sans, Tahoma, Arial" font-weight="normal" transform="matrix(1,0,0,1,0,-82)"><tspan dy="0" >Отправляет</tspan><tspan dy="1.2em" x="0" >запросы с</tspan><tspan dy="1.2em" x="0" >токеном к</tspan><tspan dy="1.2em" x="0" >хранилищу</tspan><tspan dy="1.2em" x="0" >образов через</tspan><tspan dy="1.2em" x="0" >svc [5001 TCP]</tspan></text></g><g id="v-592"  label-idx="1" cursor="move" transform="matrix(1,0,0,1,789,1665.5)" style="cursor: default; opacity: 1;"><rect joint-selector="rect" id="v-596" fill="#ffffff" rx="3" ry="3"  width="0" height="0" transform="matrix(1,0,0,1,0,0)" display="none"></rect><text joint-selector="text" id="v-595" fill="#000000" font-size="14" text-anchor="middle" pointer-events="none"></text></g></g><g  display="none"></g><g  id="v-601" display="none"><g  id="v-589"><path  end="source" d="M 26 0 L 0 13 L 26 26 z"></path></g><g  id="v-590"><path  end="target" d="M 26 0 L 0 13 L 26 26 z"></path></g></g><g  id="v-600" display="none"><g  id="v-588" transform="translate(538.8452300812187, 1931.8845052603303) "><g  event="remove"><circle r="11"></circle><path transform="scale(.8) translate(-16, -16)" d="M24.778,21.419 19.276,15.917 24.777,10.415 21.949,7.585 16.447,13.087 10.945,7.585 8.117,10.415 13.618,15.917 8.116,21.419 10.946,24.248 16.447,18.746 21.948,24.248z"></path><title>Remove link.</title></g><g  event="link:options"><circle r="11" transform="translate(25)"></circle><path fill="white" transform="scale(.55) translate(29, -16)" d="M31.229,17.736c0.064-0.571,0.104-1.148,0.104-1.736s-0.04-1.166-0.104-1.737l-4.377-1.557c-0.218-0.716-0.504-1.401-0.851-2.05l1.993-4.192c-0.725-0.91-1.549-1.734-2.458-2.459l-4.193,1.994c-0.647-0.347-1.334-0.632-2.049-0.849l-1.558-4.378C17.165,0.708,16.588,0.667,16,0.667s-1.166,0.041-1.737,0.105L12.707,5.15c-0.716,0.217-1.401,0.502-2.05,0.849L6.464,4.005C5.554,4.73,4.73,5.554,4.005,6.464l1.994,4.192c-0.347,0.648-0.632,1.334-0.849,2.05l-4.378,1.557C0.708,14.834,0.667,15.412,0.667,16s0.041,1.165,0.105,1.736l4.378,1.558c0.217,0.715,0.502,1.401,0.849,2.049l-1.994,4.193c0.725,0.909,1.549,1.733,2.459,2.458l4.192-1.993c0.648,0.347,1.334,0.633,2.05,0.851l1.557,4.377c0.571,0.064,1.148,0.104,1.737,0.104c0.588,0,1.165-0.04,1.736-0.104l1.558-4.377c0.715-0.218,1.399-0.504,2.049-0.851l4.193,1.993c0.909-0.725,1.733-1.549,2.458-2.458l-1.993-4.193c0.347-0.647,0.633-1.334,0.851-2.049L31.229,17.736zM16,20.871c-2.69,0-4.872-2.182-4.872-4.871c0-2.69,2.182-4.872,4.872-4.872c2.689,0,4.871,2.182,4.871,4.872C20.871,18.689,18.689,20.871,16,20.871z"></path><title>Link options.</title></g></g></g></g><!--z-index:84--><g   id="j_61" ><path  stroke="#000000" d="M 629 425 L 802 311 C 807.3333333333333 307 813.3333333333333 304.3333333333333 820 303 L 969 265" id="v-615" stroke-width="1" stroke-dasharray="" fill="none" style="opacity: 1;"></path><path  fill="black" stroke="black" d="M 0 0 0 0" transform="matrix(0.8336340890197421,-0.5523171241453815,0.5523171241453815,0.8336340890197421,629,424.9200134277344)"></path><path  fill="#000000" stroke="#000000" d="M 10 0 L 0 5 L 10 10 z" id="v-617" transform="matrix(-0.9701425164167451,0.24253555995067105,-0.24253555995067105,-0.9701425164167451,970.2126823740246,270.10071178428353)" style="opacity: 1;"></path><path  d="M 629 425 L 802 311 C 807.3333333333333 307 813.3333333333333 304.3333333333333 820 303 L 969 265" id="v-616" fill="none" style="cursor: default;"></path><g ><g id="v-609"  label-idx="0" cursor="move" transform="matrix(1,0,0,1,787.9921264648438,320.2306213378906)" style="cursor: default; opacity: 1;"><rect joint-selector="rect" id="v-612" fill="#ffffff" rx="3" ry="3" pointer-events="none" width="138.3984375" height="118.75194549560547" transform="matrix(1,0,0,1,-69.2,-59.4)"></rect><text joint-selector="text" id="v-611" font-size="24px" xml:space="preserve" y="0.8em" fill="#000000" text-anchor="middle" pointer-events="none" font-family="Open Sans, Tahoma, Arial" font-weight="normal" transform="matrix(1,0,0,1,0,-53.2)"><tspan dy="0" >Отправляет</tspan><tspan dy="1.2em" x="0" >запросы к</tspan><tspan dy="1.2em" x="0" >хранилищу</tspan><tspan dy="1.2em" x="0" >образов</tspan></text></g><g id="v-610"  label-idx="1" cursor="move" transform="matrix(1,0,0,1,777.9921264648438,375.4306335449219)" style="cursor: default; opacity: 1;"><rect joint-selector="rect" id="v-614" fill="#ffffff" rx="3" ry="3"  width="0" height="0" transform="matrix(1,0,0,1,0,0)" display="none"></rect><text joint-selector="text" id="v-613" fill="#000000" font-size="14" text-anchor="middle" pointer-events="none"></text></g></g><g  display="none"><g  transform="translate(810, 305)" id="v-861"><circle  idx="0" r="10"></circle><path  idx="0" d="M16,5.333c-7.732,0-14,4.701-14,10.5c0,1.982,0.741,3.833,2.016,5.414L2,25.667l5.613-1.441c2.339,1.317,5.237,2.107,8.387,2.107c7.732,0,14-4.701,14-10.5C30,10.034,23.732,5.333,16,5.333z" transform="translate(5, -33)"></path><path  idx="0" transform="scale(.8) translate(9.5, -37)" d="M24.778,21.419 19.276,15.917 24.777,10.415 21.949,7.585 16.447,13.087 10.945,7.585 8.117,10.415 13.618,15.917 8.116,21.419 10.946,24.248 16.447,18.746 21.948,24.248z"><title>Remove vertex.</title></path></g></g><g  id="v-619" display="none"><g  id="v-607"><path  end="source" d="M 26 0 L 0 13 L 26 26 z"></path></g><g  id="v-608"><path  end="target" d="M 26 0 L 0 13 L 26 26 z"></path></g></g><g  id="v-618" display="none"><g  id="v-605" transform="translate(662.4003442136975, 402.99052462218776) "><g  event="remove"><circle r="11"></circle><path transform="scale(.8) translate(-16, -16)" d="M24.778,21.419 19.276,15.917 24.777,10.415 21.949,7.585 16.447,13.087 10.945,7.585 8.117,10.415 13.618,15.917 8.116,21.419 10.946,24.248 16.447,18.746 21.948,24.248z"></path><title>Remove link.</title></g><g  event="link:options"><circle r="11" transform="translate(25)"></circle><path fill="white" transform="scale(.55) translate(29, -16)" d="M31.229,17.736c0.064-0.571,0.104-1.148,0.104-1.736s-0.04-1.166-0.104-1.737l-4.377-1.557c-0.218-0.716-0.504-1.401-0.851-2.05l1.993-4.192c-0.725-0.91-1.549-1.734-2.458-2.459l-4.193,1.994c-0.647-0.347-1.334-0.632-2.049-0.849l-1.558-4.378C17.165,0.708,16.588,0.667,16,0.667s-1.166,0.041-1.737,0.105L12.707,5.15c-0.716,0.217-1.401,0.502-2.05,0.849L6.464,4.005C5.554,4.73,4.73,5.554,4.005,6.464l1.994,4.192c-0.347,0.648-0.632,1.334-0.849,2.05l-4.378,1.557C0.708,14.834,0.667,15.412,0.667,16s0.041,1.165,0.105,1.736l4.378,1.558c0.217,0.715,0.502,1.401,0.849,2.049l-1.994,4.193c0.725,0.909,1.549,1.733,2.459,2.458l4.192-1.993c0.648,0.347,1.334,0.633,2.05,0.851l1.557,4.377c0.571,0.064,1.148,0.104,1.737,0.104c0.588,0,1.165-0.04,1.736-0.104l1.558-4.377c0.715-0.218,1.399-0.504,2.049-0.851l4.193,1.993c0.909-0.725,1.733-1.549,2.458-2.458l-1.993-4.193c0.347-0.647,0.633-1.334,0.851-2.049L31.229,17.736zM16,20.871c-2.69,0-4.872-2.182-4.872-4.871c0-2.69,2.182-4.872,4.872-4.872c2.689,0,4.871,2.182,4.871,4.872C20.871,18.689,18.689,20.871,16,20.871z"></path><title>Link options.</title></g></g></g></g><!--z-index:85--><g   id="j_62" ><path  stroke="#000000" d="M 1194 1199 L 1194 1364" id="v-632" stroke-width="1" stroke-dasharray="" fill="none" style="opacity: 1;"></path><path  fill="black" stroke="black" d="M 0 0 0 0" transform="matrix(6.123233995736766e-17,1,-1,6.123233995736766e-17,1194,1199)"></path><path  fill="#000000" stroke="#000000" d="M 10 0 L 0 5 L 10 10 z" id="v-634" transform="matrix(-1.8369701987210297e-16,-1,1,-1.8369701987210297e-16,1189,1364)" style="opacity: 1;"></path><path  d="M 1194 1199 L 1194 1364" id="v-633" fill="none" style="cursor: default;"></path><g ><g id="v-626"  label-idx="0" cursor="move" transform="matrix(1,0,0,1,1194,1281.5)" style="cursor: default; opacity: 1;"><rect joint-selector="rect" id="v-629" fill="#ffffff" rx="3" ry="3" pointer-events="none" width="195.33929443359375" height="118.75194549560547" transform="matrix(1,0,0,1,-97.7,-59.4)"></rect><text joint-selector="text" id="v-628" font-size="24px" xml:space="preserve" y="0.8em" fill="#000000" text-anchor="middle" pointer-events="none" font-family="Open Sans, Tahoma, Arial" font-weight="normal" transform="matrix(1,0,0,1,0,-53.2)"><tspan dy="0" >Аутентификация</tspan><tspan dy="1.2em" x="0" >и авторизация</tspan><tspan dy="1.2em" x="0" >запросов [5051</tspan><tspan dy="1.2em" x="0" >TCP]</tspan></text></g><g id="v-627"  label-idx="1" cursor="move" transform="matrix(1,0,0,1,1184,1336.699951171875)" style="cursor: default; opacity: 1;"><rect joint-selector="rect" id="v-631" fill="#ffffff" rx="3" ry="3"  width="0" height="0" transform="matrix(1,0,0,1,0,0)" display="none"></rect><text joint-selector="text" id="v-630" fill="#000000" font-size="14" text-anchor="middle" pointer-events="none"></text></g></g><g  display="none"></g><g  id="v-636" display="none"><g  id="v-624"><path  end="source" d="M 26 0 L 0 13 L 26 26 z"></path></g><g  id="v-625"><path  end="target" d="M 26 0 L 0 13 L 26 26 z"></path></g></g><g  id="v-635" display="none"><g  id="v-623" transform="translate(1194, 1239) "><g  event="remove"><circle r="11"></circle><path transform="scale(.8) translate(-16, -16)" d="M24.778,21.419 19.276,15.917 24.777,10.415 21.949,7.585 16.447,13.087 10.945,7.585 8.117,10.415 13.618,15.917 8.116,21.419 10.946,24.248 16.447,18.746 21.948,24.248z"></path><title>Remove link.</title></g><g  event="link:options"><circle r="11" transform="translate(25)"></circle><path fill="white" transform="scale(.55) translate(29, -16)" d="M31.229,17.736c0.064-0.571,0.104-1.148,0.104-1.736s-0.04-1.166-0.104-1.737l-4.377-1.557c-0.218-0.716-0.504-1.401-0.851-2.05l1.993-4.192c-0.725-0.91-1.549-1.734-2.458-2.459l-4.193,1.994c-0.647-0.347-1.334-0.632-2.049-0.849l-1.558-4.378C17.165,0.708,16.588,0.667,16,0.667s-1.166,0.041-1.737,0.105L12.707,5.15c-0.716,0.217-1.401,0.502-2.05,0.849L6.464,4.005C5.554,4.73,4.73,5.554,4.005,6.464l1.994,4.192c-0.347,0.648-0.632,1.334-0.849,2.05l-4.378,1.557C0.708,14.834,0.667,15.412,0.667,16s0.041,1.165,0.105,1.736l4.378,1.558c0.217,0.715,0.502,1.401,0.849,2.049l-1.994,4.193c0.725,0.909,1.549,1.733,2.459,2.458l4.192-1.993c0.648,0.347,1.334,0.633,2.05,0.851l1.557,4.377c0.571,0.064,1.148,0.104,1.737,0.104c0.588,0,1.165-0.04,1.736-0.104l1.558-4.377c0.715-0.218,1.399-0.504,2.049-0.851l4.193,1.993c0.909-0.725,1.733-1.549,2.458-2.458l-1.993-4.193c0.347-0.647,0.633-1.334,0.851-2.049L31.229,17.736zM16,20.871c-2.69,0-4.872-2.182-4.872-4.871c0-2.69,2.182-4.872,4.872-4.872c2.689,0,4.871,2.182,4.871,4.872C20.871,18.689,18.689,20.871,16,20.871z"></path><title>Link options.</title></g></g></g></g><!--z-index:86--><g   id="j_63" ><path  stroke="#000000" d="M 1194 899 L 1194 359" id="v-649" stroke-width="1" stroke-dasharray="" fill="none" style="opacity: 1;"></path><path  fill="black" stroke="black" d="M 0 0 0 0" transform="matrix(-1.8369701987210297e-16,-1,1,-1.8369701987210297e-16,1194,899)"></path><path  fill="#000000" stroke="#000000" d="M 10 0 L 0 5 L 10 10 z" id="v-651" transform="matrix(6.123233995736766e-17,1,-1,6.123233995736766e-17,1199,359)" style="opacity: 1;"></path><path  d="M 1194 899 L 1194 359" id="v-650" fill="none" style="cursor: default;"></path><g ><g id="v-643"  label-idx="0" cursor="move" transform="matrix(1,0,0,1,1194,575)" style="cursor: default; opacity: 1;"><rect joint-selector="rect" id="v-646" fill="#ffffff" rx="3" ry="3" pointer-events="none" width="140.81761169433594" height="118.75194549560547" transform="matrix(1,0,0,1,-70.4,-59.4)"></rect><text joint-selector="text" id="v-645" font-size="24px" xml:space="preserve" y="0.8em" fill="#000000" text-anchor="middle" pointer-events="none" font-family="Open Sans, Tahoma, Arial" font-weight="normal" transform="matrix(1,0,0,1,0,-53.2)"><tspan dy="0" >Пересылает</tspan><tspan dy="1.2em" x="0" >запросы к</tspan><tspan dy="1.2em" x="0" >хранилищу</tspan><tspan dy="1.2em" x="0" >образов</tspan></text></g><g id="v-644"  label-idx="1" cursor="move" transform="matrix(1,0,0,1,1184,630.2000122070312)" style="cursor: default; opacity: 1;"><rect joint-selector="rect" id="v-648" fill="#ffffff" rx="3" ry="3"  width="0" height="0" transform="matrix(1,0,0,1,0,0)" display="none"></rect><text joint-selector="text" id="v-647" fill="#000000" font-size="14" text-anchor="middle" pointer-events="none"></text></g></g><g  display="none"></g><g  id="v-653" display="none"><g  id="v-641"><path  end="source" d="M 26 0 L 0 13 L 26 26 z"></path></g><g  id="v-642"><path  end="target" d="M 26 0 L 0 13 L 26 26 z"></path></g></g><g  id="v-652" display="none"><g  id="v-640" transform="translate(1194, 859) "><g  event="remove"><circle r="11"></circle><path transform="scale(.8) translate(-16, -16)" d="M24.778,21.419 19.276,15.917 24.777,10.415 21.949,7.585 16.447,13.087 10.945,7.585 8.117,10.415 13.618,15.917 8.116,21.419 10.946,24.248 16.447,18.746 21.948,24.248z"></path><title>Remove link.</title></g><g  event="link:options"><circle r="11" transform="translate(25)"></circle><path fill="white" transform="scale(.55) translate(29, -16)" d="M31.229,17.736c0.064-0.571,0.104-1.148,0.104-1.736s-0.04-1.166-0.104-1.737l-4.377-1.557c-0.218-0.716-0.504-1.401-0.851-2.05l1.993-4.192c-0.725-0.91-1.549-1.734-2.458-2.459l-4.193,1.994c-0.647-0.347-1.334-0.632-2.049-0.849l-1.558-4.378C17.165,0.708,16.588,0.667,16,0.667s-1.166,0.041-1.737,0.105L12.707,5.15c-0.716,0.217-1.401,0.502-2.05,0.849L6.464,4.005C5.554,4.73,4.73,5.554,4.005,6.464l1.994,4.192c-0.347,0.648-0.632,1.334-0.849,2.05l-4.378,1.557C0.708,14.834,0.667,15.412,0.667,16s0.041,1.165,0.105,1.736l4.378,1.558c0.217,0.715,0.502,1.401,0.849,2.049l-1.994,4.193c0.725,0.909,1.549,1.733,2.459,2.458l4.192-1.993c0.648,0.347,1.334,0.633,2.05,0.851l1.557,4.377c0.571,0.064,1.148,0.104,1.737,0.104c0.588,0,1.165-0.04,1.736-0.104l1.558-4.377c0.715-0.218,1.399-0.504,2.049-0.851l4.193,1.993c0.909-0.725,1.733-1.549,2.458-2.458l-1.993-4.193c0.347-0.647,0.633-1.334,0.851-2.049L31.229,17.736zM16,20.871c-2.69,0-4.872-2.182-4.872-4.871c0-2.69,2.182-4.872,4.872-4.872c2.689,0,4.871,2.182,4.871,4.872C20.871,18.689,18.689,20.871,16,20.871z"></path><title>Link options.</title></g></g></g></g><!--z-index:87--><!--z-index:88--><!--z-index:89--><!--z-index:90--><!--z-index:91--><!--z-index:92--><!--z-index:93--><!--z-index:94--><!--z-index:95--><!--z-index:96--><!--z-index:97--><!--z-index:98--><!--z-index:99--><!--z-index:100--><!--z-index:101--><!--z-index:102--><!--z-index:103--><!--z-index:104--><!--z-index:105--><!--z-index:106--><!--z-index:107--><!--z-index:108--><!--z-index:109--><!--z-index:110--><!--z-index:111--><!--z-index:112--><!--z-index:113--><!--z-index:114--><!--z-index:115--><!--z-index:116--><!--z-index:117--><!--z-index:118--><!--z-index:119--><!--z-index:120--><!--z-index:121--><!--z-index:122--><!--z-index:123--><!--z-index:124--><!--z-index:125--><!--z-index:126--><!--z-index:127--><!--z-index:128--><!--z-index:129--><!--z-index:130--><!--z-index:131--><!--z-index:132--><!--z-index:133--><!--z-index:134--><!--z-index:135--><!--z-index:136--><!--z-index:137--><!--z-index:138--><!--z-index:139--><!--z-index:140--><!--z-index:141--><!--z-index:142--><!--z-index:143--><!--z-index:144--><!--z-index:145--><!--z-index:146--><!--z-index:147--><!--z-index:148--><!--z-index:149--><!--z-index:150--><!--z-index:151--><!--z-index:152--><!--z-index:153--><!--z-index:154--><!--z-index:155--><!--z-index:156--><!--z-index:157--><!--z-index:158--><!--z-index:159--><!--z-index:160--><!--z-index:161--><!--z-index:162--><!--z-index:163--><!--z-index:164--><!--z-index:165--><!--z-index:166--><!--z-index:167--><!--z-index:168--><!--z-index:169--><!--z-index:170--><!--z-index:171--><!--z-index:172--><!--z-index:173--><!--z-index:174--><!--z-index:175--><!--z-index:176--><!--z-index:177--><!--z-index:178--><!--z-index:179--><!--z-index:180--><!--z-index:181--><!--z-index:182--><!--z-index:183--><!--z-index:184--><!--z-index:185--><!--z-index:186--><!--z-index:187--><!--z-index:188--><!--z-index:189--><!--z-index:190--><!--z-index:191--><!--z-index:192--><!--z-index:193--><!--z-index:194--><!--z-index:195--><!--z-index:196--><!--z-index:197--><!--z-index:198--><!--z-index:199--><!--z-index:200--><!--z-index:201--><!--z-index:202--><!--z-index:203--><!--z-index:204--><!--z-index:205--><!--z-index:206--></g><g ></g><g ></g><g ></g></g></svg>