<svg width="368" height="100" viewBox="0 0 368 100" fill="none" xmlns="http://www.w3.org/2000/svg">
<path fill-rule="evenodd" clip-rule="evenodd" d="M141.351 59.3114C141.351 66.907 135.576 71.9879 126.272 71.9879C121.406 71.9879 116.753 70.5437 114.186 68.0297L117.02 62.5199C118.945 64.5534 121.993 65.7291 125.416 65.7291C130.443 65.7291 133.544 63.1622 133.544 59.3651C133.544 55.5665 130.549 53.1599 126.004 53.1599C123.972 53.1599 122.207 53.5881 120.602 54.4438L118.571 50.6474L129.48 38.1305H116.004V31.8717H139.319V36.5781L129.105 47.4375C136.485 47.5971 141.351 52.3565 141.351 59.3106V59.3114ZM144.06 51.4258C144.06 39.2841 152.456 31.2081 165.022 31.2081C171.493 31.2081 176.733 33.3476 180.637 37.5721L175.878 42.3867C173.632 39.4982 169.835 37.4654 165.129 37.4654C157.161 37.4654 151.867 43.082 151.867 51.4795C151.867 59.9838 157.268 65.5996 165.236 65.5996C170.583 65.5996 174.273 63.1931 176.787 59.3423L181.867 63.8891C178.071 69.0767 172.295 71.8584 165.075 71.8584C152.509 71.8584 144.06 63.6757 144.06 51.4258H144.06ZM205.88 56.7554C205.88 51.5141 202.724 48.0371 198.019 48.0371C193.259 48.0371 190.104 51.5141 190.104 56.7554C190.104 61.9982 193.259 65.4738 198.019 65.4738C202.725 65.4738 205.88 61.9982 205.88 56.7554ZM182.564 56.7554C182.564 47.823 188.767 41.8327 198.019 41.8327C207.216 41.8327 213.42 47.823 213.42 56.7554C213.42 65.7416 207.216 71.7319 198.019 71.7319C188.767 71.7319 182.564 65.7416 182.564 56.7554ZM261.876 53.065V71.197H254.604V54.2415C254.604 50.4981 252.251 48.0371 248.668 48.0371C245.138 48.0371 242.785 50.4981 242.785 54.2415V71.1963H235.513V54.2415C235.513 50.4981 233.16 48.0371 229.577 48.0371C226.047 48.0371 223.694 50.4981 223.694 54.2415V71.1963H216.422V42.3683H223.427L223.535 45.7902C225.566 43.1703 228.615 41.8327 232.144 41.8327C235.94 41.8327 238.988 43.4366 240.86 46.1647C242.946 43.3306 246.314 41.8327 250.165 41.8327C257.171 41.8327 261.876 46.3265 261.876 53.065V53.065ZM312.33 53.065V71.197H305.058V54.2415C305.058 50.4981 302.705 48.0371 299.122 48.0371C295.592 48.0371 293.239 50.4981 293.239 54.2415V71.1963H285.967V54.2415C285.967 50.4981 283.614 48.0371 280.031 48.0371C276.502 48.0371 274.148 50.4981 274.148 54.2415V71.1963H266.876V42.3683H273.881L273.989 45.7902C276.02 43.1703 279.069 41.8327 282.598 41.8327C286.394 41.8327 289.442 43.4366 291.314 46.1647C293.4 43.3306 296.769 41.8327 300.619 41.8327C307.625 41.8327 312.33 46.3265 312.33 53.065ZM334.001 59.1627C332.129 58.7883 330.205 58.5742 328.547 58.5742C325.125 58.5742 322.931 60.178 322.931 62.6398C322.931 64.9926 324.483 66.5436 327.424 66.5436C330.793 66.5436 333.948 63.8692 334.001 59.1627V59.1627ZM341.273 53.065V71.197H334.269L334.107 67.0784C332.183 70.0743 328.868 71.7319 325.338 71.7319C319.349 71.7319 315.338 68.1474 315.338 62.8002C315.338 57.2373 320.258 53.5999 327.637 53.5999C329.616 53.5999 331.809 53.8133 334.001 54.2415V53.7073C334.001 49.8558 331.434 47.5567 327.05 47.5567C324.321 47.5567 322.129 48.3586 320.312 49.8558L317.156 45.5768C320.258 43.0628 323.895 41.8327 328.921 41.8327C336.301 41.8327 341.273 46.2728 341.273 53.065V53.065ZM344.549 68.3093L347.276 63.9229C350.004 65.5275 352.73 66.0624 355.565 66.0624C358.238 66.0624 360.057 64.9382 360.057 63.1739C360.057 61.4082 358.024 60.4473 355.137 59.6976L352.73 59.0553C347.864 57.7715 344.549 55.8998 344.549 51.3537C344.549 45.6298 349.04 41.8334 355.885 41.8334C360.216 41.8334 363.907 42.7421 366.74 44.6675L363.693 49.4276C361.393 48.1445 358.934 47.5559 356.367 47.5559C353.746 47.5559 351.928 48.519 351.928 50.1766C351.928 51.8879 353.746 52.6906 356.259 53.3328L358.666 54.0281C363.587 55.3112 367.489 57.5574 367.489 62.6398C367.489 68.0945 362.677 71.7319 355.457 71.7319C351.073 71.7319 347.169 70.6092 344.549 68.3093" fill="#39535C"/>
<path fill-rule="evenodd" clip-rule="evenodd" d="M99.5812 0V100H0V0H99.5812Z" fill="#00A59A"/>
<path fill-rule="evenodd" clip-rule="evenodd" d="M65.2169 61.7532H76.4204C76.4513 61.7533 76.4815 61.7436 76.5066 61.7255C76.5316 61.7074 76.5504 61.6818 76.5601 61.6525L80.3505 50.2502C80.351 50.2485 80.3515 50.2467 80.352 50.245L83.6378 38.9347C83.6486 38.8979 83.6447 38.8583 83.6267 38.8243L83.1486 37.9267C83.1361 37.9031 83.1173 37.8834 83.0944 37.8697C83.0714 37.8559 83.0452 37.8487 83.0184 37.8488H69.278C69.2431 37.8488 69.2094 37.8613 69.1829 37.8839C69.1563 37.9066 69.1387 37.9379 69.1331 37.9724L67.1647 50.2457C67.1645 50.247 67.1643 50.2482 67.164 50.2494L65.0735 61.5796C65.0696 61.6008 65.0705 61.6226 65.0759 61.6434C65.0814 61.6642 65.0913 61.6836 65.105 61.7001C65.1188 61.7167 65.136 61.73 65.1555 61.7392C65.1749 61.7484 65.1962 61.7532 65.2177 61.7532H65.2169ZM39.9892 61.7532H51.1455C51.1764 61.7533 51.2065 61.7437 51.2315 61.7258C51.2566 61.7078 51.2754 61.6824 51.2853 61.6532L55.1014 50.2502C55.1019 50.2485 55.1024 50.2467 55.1029 50.245L58.4107 38.9347C58.4214 38.8978 58.4171 38.8582 58.399 38.8243L57.9179 37.9267C57.9054 37.9032 57.8868 37.8836 57.864 37.8698C57.8412 37.8561 57.8151 37.8488 57.7885 37.8488H43.9524C43.9177 37.849 43.8841 37.8615 43.8577 37.8842C43.8313 37.9068 43.8138 37.938 43.8082 37.9724L41.8244 50.2472V50.2487L39.8443 61.5811C39.8406 61.6022 39.8416 61.6239 39.8472 61.6446C39.8528 61.6653 39.8629 61.6845 39.8767 61.7009C39.8905 61.7173 39.9077 61.7305 39.9272 61.7395C39.9466 61.7486 39.9677 61.7532 39.9892 61.7532V61.7532ZM15.4271 61.7532H26.6298C26.6607 61.7533 26.6909 61.7436 26.716 61.7255C26.7411 61.7074 26.7598 61.6818 26.7696 61.6525L30.5599 50.2502C30.5607 50.2485 30.5614 50.2467 30.5621 50.245L33.8479 38.9347C33.8586 38.8978 33.8543 38.8582 33.8362 38.8243L33.358 37.9267C33.3455 37.9032 33.3269 37.8836 33.3041 37.8698C33.2813 37.8561 33.2552 37.8488 33.2286 37.8488H19.4882C19.4533 37.8488 19.4196 37.8613 19.393 37.8839C19.3665 37.9066 19.3488 37.9379 19.3433 37.9724L17.3734 50.2457C17.3734 50.247 17.3734 50.2482 17.3734 50.2494L15.2822 61.5796C15.2783 61.6008 15.2791 61.6227 15.2846 61.6436C15.2901 61.6644 15.3001 61.6838 15.314 61.7004C15.3278 61.717 15.3451 61.7303 15.3646 61.7394C15.3842 61.7486 15.4055 61.7533 15.4271 61.7532V61.7532Z" fill="white"/>
</svg>