<svg width="392" height="81" viewBox="0 0 392 81" fill="none" xmlns="http://www.w3.org/2000/svg">
  <path
    d="M76.1985 40.3945H92.6658L103.612 79.8026H96.9492L87.954 46.3128H80.9102L71.915 79.8026H65.252L76.1985 40.3945Z"
    fill="#362783"></path>
  <path
    d="M125.507 39.5977C136.834 39.5977 145.449 48.2872 145.449 59.701V62.0495H111.8C112.657 69.3769 118.321 74.6845 125.507 74.6845C130.219 74.6845 133.312 72.9466 135.454 71.1148C136.644 70.0814 137.643 68.9072 138.405 67.545H144.687C143.735 69.9875 142.403 72.1951 140.689 74.0739C137.643 77.3148 132.932 80.5558 125.507 80.5558C114.132 80.5558 105.565 71.8663 105.565 60.0767C105.565 48.2872 114.18 39.5977 125.507 39.5977ZM138.833 56.554C137.977 50.6357 133.027 45.5159 125.507 45.5159C117.987 45.5159 112.99 50.6357 111.943 56.554H138.833Z"
    fill="#362783"></path>
  <path
    d="M152.681 40.3945H158.963V56.5523H180.856V40.3945H187.138V79.8026H180.856V62.4706H158.963V79.8026H152.681V40.3945Z"
    fill="#362783"></path>
  <path d="M191.897 40.3945H225.546V46.3128H211.839V79.8026H205.604V46.3128H191.897V40.3945Z" fill="#362783"></path>
  <path
    d="M247.485 39.5977C259.241 39.5977 267.855 48.2872 267.855 60.0767C267.855 71.9133 259.241 80.5558 247.485 80.5558C235.73 80.5558 227.115 71.8663 227.115 60.0767C227.163 48.2872 235.73 39.5977 247.485 39.5977ZM247.485 74.6845C255.624 74.6845 261.573 68.6723 261.573 60.1237C261.573 51.5281 255.624 45.5159 247.485 45.5159C239.347 45.5159 233.398 51.5281 233.398 60.1237C233.398 68.7193 239.347 74.6845 247.485 74.6845Z"
    fill="#362783"></path>
  <path
    d="M273.238 40.3945H279.521V54.2038C279.521 59.3236 282.567 62.4706 288.516 62.4706C292.038 62.4706 294.798 61.86 296.654 61.1085C297.749 60.7327 298.701 60.263 299.462 59.6993V40.3945H305.745V79.8026H299.462V65.1949C298.606 65.7585 297.654 66.3222 296.559 66.7919C294.703 67.6373 291.8 68.3889 288.087 68.3889C278.616 68.3889 273.238 63.0342 273.238 54.5796V40.3945Z"
    fill="#362783"></path>
  <path
    d="M315.211 40.3945H321.493V56.1766H329.346L341.863 40.3945H349.288L334.819 58.9478L350.478 79.8026H342.625L329.346 62.0948H321.493V79.8026H315.211V40.3945Z"
    fill="#362783"></path>
  <path d="M0 43.4938L19.7037 31.3754L45.1186 15.7812V40.5346L0 56.3167V43.4938Z" fill="#362783"></path>
  <path d="M0 12.8229L45.1186 40.5354V15.782L0 0V12.8229Z" fill="#FFD600"></path>
  <path
    d="M371.229 39.6914C378.892 39.6914 383.223 43.6369 384.746 45.6566L385.46 46.8309H385.555V40.4429H391.932V79.7101H385.555V73.4161H385.507L384.793 74.4964C383.365 76.6101 378.892 80.4617 371.277 80.4617C360.854 80.4617 352.192 71.8191 352.192 60.0296C352.144 48.3339 360.806 39.6914 371.229 39.6914ZM372.038 74.6373C379.701 74.6373 385.555 68.6721 385.555 60.1235C385.555 51.5749 379.653 45.6097 372.038 45.6097C364.376 45.6097 358.522 51.5749 358.522 60.1235C358.522 68.6721 364.376 74.6373 372.038 74.6373Z"
    fill="#362783"></path>
</svg>