<svg width="165" height="100" viewBox="0 0 165 100" fill="none" xmlns="http://www.w3.org/2000/svg">
<path d="M14.7038 97.1701L24.6749 87.1628L21.3271 83.803L15.0771 90.0771L3.7211 78.673L0 82.4181L14.7038 97.1701ZM18.8102 69.5569L21.3271 72.0737L26.4933 66.8714L29.4918 69.882L24.3136 75.0843L27.5169 78.2876L33.9114 71.869L36.9099 74.8796L26.7943 85.0434L12.0785 70.2914L22.2062 60.1156L25.2047 63.1262L18.8102 69.5569V69.5569ZM51.5535 60.212L41.5463 57.3338C42.1036 56.1366 42.2698 54.7943 42.0212 53.4974C41.7726 52.2004 41.1219 51.0147 40.1614 50.1084C39.5867 49.572 38.9107 49.1558 38.173 48.8843C37.4353 48.6128 36.6507 48.4914 35.8655 48.5273C35.0802 48.5632 34.31 48.7557 33.6001 49.0934C32.8903 49.431 32.255 49.9072 31.7317 50.4938L24.2775 57.9721L39.0535 72.7361L42.7866 68.9909L30.8887 57.0448L33.2972 54.6363C33.5419 54.381 33.8347 54.1766 34.1586 54.0347C34.4825 53.8928 34.8313 53.8164 35.1849 53.8097C35.5385 53.8029 35.8899 53.8661 36.219 53.9956C36.5481 54.1251 36.8484 54.3183 37.1026 54.5641C37.6021 55.0801 37.8763 55.7732 37.8651 56.4913C37.8538 57.2093 37.5579 57.8935 37.0424 58.3936L34.8507 60.5973L47.5675 64.21L51.5535 60.212ZM44.8218 36.7775C49.422 32.1652 55.5034 32.6108 59.8025 36.934C64.1017 41.2572 64.5593 47.3627 59.9591 51.975C55.3589 56.5872 49.2895 56.1416 44.9783 51.7823C40.6672 47.4229 40.2216 41.3536 44.8218 36.7413V36.7775ZM47.736 39.7399C45.3998 42.0761 46.1826 44.9302 49.0246 47.7842C51.8666 50.6383 54.6965 51.3969 57.0328 49.0727C59.369 46.7486 58.5862 43.8825 55.7442 41.0284C52.9022 38.1744 50.0723 37.3314 47.736 39.7399ZM64.2341 29.0222L61.4885 20.6888L65.8478 16.3174L69.4966 30.6118L75.2529 36.3921L71.5318 40.1373L65.7996 34.381L52.1556 30.0578L56.2621 25.9393L64.1498 29.0101L64.2341 29.0222V29.0222ZM132.262 79.8892L146.977 65.1373L143.052 61.1994L128.348 75.9514L132.262 79.8892V79.8892ZM75.9995 23.4104L87.4398 17.9311L78.986 26.409L82.394 29.829L97.0858 15.065L92.4254 10.3805L81.3584 15.7996L86.8979 4.829L82.081 0L67.3772 14.7519L70.7731 18.172L79.2269 9.69413L73.7717 21.1705L75.9995 23.4104V23.4104ZM101.493 25.5058L98.9764 28.0226L104.624 33.6826L101.626 36.6932L95.9899 31.0332L92.7866 34.2365L99.6508 41.1248L96.6522 44.1354L86.0549 33.5019L100.759 18.738L111.356 29.3714L108.357 32.382L101.493 25.5058V25.5058ZM115.679 63.2587L125.65 73.278L129.01 69.9061L122.76 63.644L134.116 52.2399L130.383 48.5068L115.679 63.2587ZM155.299 73.4827L150.578 89.1257H150.566L160.73 78.9379L164.222 82.4422L149.518 97.1941L144.906 92.5699L148.928 76.4451H148.94L138.897 86.5246L135.501 83.1166L150.193 68.3647L155.299 73.4827V73.4827ZM112.897 60.4649L115.727 50.4215C116.924 50.9867 118.269 51.1561 119.569 50.9049C120.868 50.6537 122.053 49.9951 122.953 49.0246C123.484 48.4477 123.896 47.7714 124.165 47.0347C124.433 46.2981 124.554 45.5155 124.519 44.7321C124.485 43.9487 124.295 43.1798 123.962 42.4698C123.63 41.7598 123.16 41.1226 122.58 40.5949L114.668 32.6469L99.9519 47.447L103.685 51.1922L115.607 39.2462L118.437 42.1484C118.684 42.3943 118.879 42.6864 119.013 43.008C119.147 43.3296 119.216 43.6744 119.217 44.0227C119.217 44.3711 119.149 44.7161 119.017 45.0381C118.884 45.3602 118.689 45.6529 118.443 45.8996C118.197 46.1463 117.905 46.3421 117.583 46.476C117.262 46.6098 116.917 46.6789 116.569 46.6795C116.22 46.68 115.875 46.612 115.553 46.4792C115.231 46.3464 114.938 46.1515 114.692 45.9056L111.994 43.2201L108.863 56.4668L112.897 60.4649Z" fill="#251B00"/>
<path d="M17.4976 99.9999H146.749L82.117 35.1276L17.4976 99.9999Z" fill="#66C05D"/>
</svg>
