<svg width="631" height="100" viewBox="0 0 631 100" fill="none" xmlns="http://www.w3.org/2000/svg">
<path fill-rule="evenodd" clip-rule="evenodd" d="M630.656 44.0242V44.3875C630.835 53.4709 629.939 62.7359 626.354 71.0926C623.487 78.541 619.007 84.536 612.196 88.5327C607.895 91.076 603.236 92.711 598.217 91.2577C597.964 91.2577 597.8 91.1668 597.473 90.9852C597.337 90.9099 597.173 90.8191 596.963 90.7127C597.204 90.393 597.445 90.0792 597.685 89.7673C599.762 87.0648 601.734 84.4981 602.698 79.4493H588.181C576.712 79.4493 567.213 70.0026 567.213 58.1942V44.2059C567.213 32.5792 576.712 22.9508 588.181 22.9508H609.508C620.978 22.9508 630.476 32.3975 630.656 44.0242ZM619.9 40.3136H577.99V47.4982H619.9V40.3136ZM598.945 54.6828H577.99V61.8674H598.945V54.6828Z" fill="#2399F0"/>
<path d="M0 69.6175L4.5057 63.8251C7.06993 66.3024 10.1104 68.3424 13.627 69.9453C17.2169 71.4754 20.8435 72.2404 24.5066 72.2404C29.1222 72.2404 32.8587 71.0382 35.7159 68.6339C38.6465 66.2295 40.1118 63.0601 40.1118 59.1257C40.1118 56.5027 39.3791 54.2076 37.9138 52.2404C36.5218 50.2004 34.6903 48.5246 32.4191 47.2131C30.2212 45.8288 27.7302 44.5537 24.9462 43.388C22.2355 42.1494 19.4881 40.8743 16.7041 39.5628C13.9933 38.2514 11.5024 36.8306 9.2312 35.3005C7.03329 33.6976 5.20171 31.6576 3.73644 29.1803C2.34443 26.6302 1.64843 23.7523 1.64843 20.5464C1.64843 14.3534 3.95623 9.3989 8.57183 5.68306C13.1874 1.89435 18.9752 0 25.9353 0C34.214 0 41.0275 2.47723 46.3758 7.4317L42.6393 13.7705C40.5147 11.8033 37.9138 10.2368 34.8368 9.07104C31.7597 7.83242 28.6827 7.21311 25.6056 7.21311C21.0633 7.21311 17.2169 8.37887 14.0666 10.7104C10.9895 13.0419 9.45099 16.1749 9.45099 20.1093C9.45099 22.5865 10.147 24.8087 11.539 26.776C13.0043 28.6703 14.8359 30.2368 17.0338 31.4754C19.3049 32.714 21.7959 33.9162 24.5066 35.082C27.2906 36.2477 30.038 37.4863 32.7488 38.7978C35.5328 40.1093 38.0237 41.5665 40.2216 43.1694C42.4928 44.7723 44.3244 46.8852 45.7164 49.5082C47.1817 52.0583 47.9143 55.0091 47.9143 58.3607C47.9143 64.4809 45.7897 69.5446 41.5404 73.5519C37.2911 77.4863 31.5399 79.4535 24.2868 79.4535C14.6893 79.4535 6.59371 76.1749 0 69.6175Z" fill="#222C3B"/>
<path d="M57.7147 10.6011V1.31148H65.847V10.6011H57.7147ZM58.0444 78.1421V23.1694H65.5173V78.1421H58.0444Z" fill="#222C3B"/>
<path d="M78.976 78.1421V23.1694H86.339V31.8033L85.8994 36.1749H86.1192C87.5112 32.3862 90.1853 29.071 94.1416 26.2295C98.0978 23.3151 102.201 21.8579 106.45 21.8579C116.194 21.8579 121.872 26.4481 123.484 35.6284H123.703C125.315 31.9126 127.989 28.7067 131.726 26.0109C135.535 23.2423 139.638 21.8579 144.034 21.8579C150.554 21.8579 155.243 23.643 158.101 27.2131C160.958 30.7832 162.386 36.102 162.386 43.1694V78.1421H154.914V45.0273C154.914 39.8543 154.071 35.847 152.386 33.0055C150.774 30.1639 147.661 28.7432 143.045 28.7432C137.697 28.7432 133.264 31.0747 129.748 35.7377C126.231 40.3279 124.473 45.6102 124.473 51.5847V78.1421H117V45.0273C117 39.9271 116.231 35.9563 114.692 33.1147C113.153 30.2004 110.04 28.7432 105.351 28.7432C99.9294 28.7432 95.4237 31.1111 91.8338 35.847C88.2438 40.51 86.4489 45.7559 86.4489 51.5847V78.1421H78.976Z" fill="#222C3B"/>
<path d="M175.246 100V23.1694H182.389V28.9617L182.059 33.224H182.279C183.964 29.6539 186.492 26.8852 189.862 24.918C193.305 22.878 197.188 21.8579 201.511 21.8579C208.911 21.8579 214.772 24.5173 219.094 29.8361C223.417 35.082 225.578 42.0036 225.578 50.6011C225.578 59.2714 223.27 66.2659 218.655 71.5847C214.039 76.8306 208.105 79.4535 200.852 79.4535C196.969 79.4535 193.415 78.5064 190.192 76.612C186.968 74.6448 184.441 71.949 182.609 68.5246H182.389C182.609 69.8361 182.719 71.439 182.719 73.3333V100H175.246ZM182.499 50.8197C182.499 56.7213 184.074 61.8579 187.225 66.2295C190.448 70.6011 194.734 72.7869 200.082 72.7869C205.137 72.7869 209.387 70.8197 212.83 66.8852C216.273 62.878 217.995 57.4863 217.995 50.7104C217.995 44.0801 216.347 38.7614 213.05 34.7541C209.826 30.6739 205.614 28.6339 200.412 28.6339C195.357 28.6339 191.107 30.4918 187.664 34.2077C184.221 37.9235 182.499 43.4608 182.499 50.8197Z" fill="#222C3B"/>
<path d="M235.564 65.1366V1.31148H243.037V63.4973C243.037 69.0346 245.125 71.8033 249.301 71.8033C250.033 71.8033 250.619 71.7668 251.059 71.694V78.3607C250.18 78.5064 249.264 78.5792 248.312 78.5792C247.213 78.5792 246.187 78.5064 245.235 78.3607C244.282 78.2149 243.183 77.8871 241.938 77.377C240.692 76.7942 239.63 76.0291 238.751 75.082C237.872 74.1348 237.102 72.8233 236.443 71.1475C235.857 69.3989 235.564 67.3953 235.564 65.1366Z" fill="#222C3B"/>
<path d="M254.476 50.7104C254.476 41.9672 257.077 34.9727 262.279 29.7268C267.554 24.4809 274.074 21.8579 281.84 21.8579C289.166 21.8579 294.844 24.2987 298.874 29.1803C302.903 33.9891 304.918 40 304.918 47.2131C304.918 48.0874 304.845 49.326 304.698 50.929H262.279C262.425 57.7049 264.55 63.0237 268.653 66.8852C272.755 70.7468 277.774 72.6776 283.708 72.6776C290.082 72.6776 295.687 70.4918 300.522 66.1202L303.929 71.8033C301.365 74.1348 298.214 75.9927 294.478 77.377C290.815 78.7614 287.152 79.4535 283.488 79.4535C275.21 79.4535 268.286 76.7577 262.718 71.3661C257.223 65.9745 254.476 59.0893 254.476 50.7104ZM262.608 45.0273H297.335C297.115 39.5628 295.54 35.3734 292.61 32.459C289.679 29.4718 286.016 27.9781 281.62 27.9781C276.858 27.9781 272.719 29.4718 269.202 32.459C265.685 35.4463 263.488 39.6357 262.608 45.0273Z" fill="#222C3B"/>
<path d="M324.368 79.0072V8.46268H296.721V1.63934H359.694V8.46268H331.938V79.0072H324.368Z" fill="#2399F0"/>
<path d="M351.228 51.3837C351.228 42.5794 353.825 35.5359 359.018 30.2533C364.284 24.9708 370.793 22.3295 378.546 22.3295C385.859 22.3295 391.528 24.7873 395.55 29.7031C399.573 34.5454 401.584 40.5984 401.584 47.862C401.584 48.7424 401.511 49.9897 401.365 51.6038H359.018C359.164 58.4271 361.285 63.7831 365.381 67.6717C369.476 71.5602 374.486 73.5045 380.411 73.5045C386.774 73.5045 392.369 71.3034 397.196 66.9013L400.597 72.6241C398.037 74.9719 394.892 76.8428 391.162 78.2368C387.505 79.6309 383.848 80.3279 380.191 80.3279C371.927 80.3279 365.015 77.6132 359.456 72.1839C353.971 66.7545 351.228 59.8212 351.228 51.3837ZM359.347 45.6609H394.014C393.795 40.1582 392.223 35.9395 389.297 33.0047C386.371 29.9966 382.715 28.4925 378.326 28.4925C373.572 28.4925 369.44 29.9966 365.929 33.0047C362.419 36.0128 360.224 40.2316 359.347 45.6609Z" fill="#2399F0"/>
<path d="M404.089 79.0072L423.397 50.1731L405.625 23.6501H414.401L426.25 42.2492L428.115 45.4408H428.334C428.992 44.2669 429.614 43.203 430.199 42.2492L442.048 23.6501H450.715L432.942 50.1731L452.36 79.0072H443.584L430.199 58.207L428.334 55.1255H428.115C427.53 56.1527 426.908 57.1799 426.25 58.207L412.756 79.0072H404.089Z" fill="#2399F0"/>
<path d="M460.864 58.8674V30.3634H453.624V24.0903H460.974V8.35263H468.325V24.0903H482.258V30.3634H468.325V58.097C468.325 61.1051 468.763 63.673 469.641 65.8008C470.519 67.8551 471.652 69.3592 473.042 70.313C474.432 71.1934 475.748 71.817 476.992 72.1839C478.235 72.5507 479.515 72.7341 480.831 72.7341C481.855 72.7341 482.696 72.6608 483.355 72.514V79.2273C482.477 79.3741 481.416 79.4474 480.173 79.4474C478.637 79.4474 477.138 79.3374 475.675 79.1173C474.212 78.8972 472.53 78.3836 470.628 77.5765C468.8 76.6961 467.191 75.5589 465.801 74.1648C464.412 72.7708 463.241 70.7532 462.291 68.1119C461.34 65.4706 460.864 62.3891 460.864 58.8674Z" fill="#2399F0"/>
<path d="M489.849 10.9939V1.63934H497.967V10.9939H489.849ZM490.178 79.0072V23.6501H497.638V79.0072H490.178Z" fill="#2399F0"/>
<path d="M511.074 79.0072V23.6501H518.424V32.3444L517.986 36.7465H518.205C519.595 33.3715 522.191 30.1433 525.994 27.0618C529.871 23.9069 534.698 22.3295 540.476 22.3295C547.131 22.3295 551.885 24.127 554.738 27.7221C557.59 31.3172 559.016 36.6732 559.016 43.79V79.0072H551.556V45.7709C551.556 40.5617 550.752 36.5264 549.143 33.665C547.534 30.8036 544.315 29.3729 539.488 29.3729C533.564 29.3729 528.591 31.5373 524.568 35.8661C520.545 40.1949 518.534 45.5508 518.534 51.934V79.0072H511.074Z" fill="#2399F0"/>
</svg>
