<svg width="1133.9" height="566.9" fill="#d60000" viewBox="0 0 1133.9 566.9" xmlns="http://www.w3.org/2000/svg">
  <path d="M181.7,266.7c-8.3,4.9-18.6,5.1-25.4,5.1h-16v-52.6h13.7c8,0,17.4,0,25.4,3.7c12,5.4,14,15.7,14,21.7C193.4,252.2,190.8,261.3,181.7,266.7z M673.1,384.4c-6.9,0-14.2,4.5-15.7,13.4H689C687.4,388.7,680.1,384.4,673.1,384.4zM892.6,413.3c-2-1.4-4.8-1.5-6.5-1.5h-9.2v13.4h8.8c2,0,4.9-0.2,6.9-1.7c1.2-0.9,2.5-2.8,2.5-5.4C895.1,415.7,893.8,414.1,892.6,413.3z M430.2,199c-12.9,0-26.3,8.3-29.2,24.9h58.6C456.8,207,443.1,199,430.2,199z M427.2,387.8c-4.9,0-8.8,1.4-12.2,4.5c-4.2,3.5-6.3,8.2-6.3,14.3c0,6.2,2.5,11.2,6.2,14.5c2.5,2.2,6.5,4.5,12.3,4.5c6.2,0,10.2-2.5,12.6-4.8c4-3.7,5.9-9.2,5.9-14.2c0-4.9-2-10.5-5.7-14C436.6,389.5,431.7,387.8,427.2,387.8z M179.7,165.8c0-17.4-13.4-24-28.6-24h-10.9v48.9h10.6C156.5,190.7,179.7,190.1,179.7,165.8z M1133.9,70.9v425.2c0,39-31.9,70.9-70.9,70.9H70.9C31.9,566.9,0,535,0,496.1V70.9C0,31.9,31.9,0,70.9,0H1063C1102,0,1133.9,31.9,1133.9,70.9z M246.6,240.7c0,23.2,10.3,38.6,19.7,47.5c11.1,10.6,28.3,18,47.7,18c14.3,0,25.2-4.3,32-7.7v-34c-9.4,8.6-19.7,10.9-27.4,10.9c-20.9,0-36-14.9-36-35.2c0-18,11.7-34.9,34.9-34.9c12,0,21.2,4,28.6,10.9v-34.3c-10-4.9-20.6-7.4-33.5-7.4c-12,0-29.4,2.6-44.6,16C255.4,201.6,246.6,219,246.6,240.7z M103,302.2h64c16.6,0,34-2.9,48.3-15.4c13.1-11.7,16.3-27.4,16.3-38.6c0-10-2.3-24.9-13.7-35.7c-4.9-4.6-12.3-10-24.9-12c5.1-2.9,21.4-12.9,21.4-37.5c0-16-6.6-30.9-17.7-39.5c-15.4-12-36-12-46.6-12H103V302.2z M171.4,373.3h-18.8l-30.8,41.1v-41.1H103V440h18.8l30.8-41.1V440h18.8V373.3z M251.9,373.3h-18.8v23.6h-26.2v-23.6h-18.8V440h18.8v-27.1h26.2V440h18.8V373.3z M316.5,375.1c-5.4-2.6-11.1-4-18-4c-6.5,0-15.9,1.4-24,8.6c-6.8,6-11.6,15.4-11.6,27.1c0,12.5,5.5,20.8,10.6,25.6c6,5.7,15.3,9.7,25.7,9.7c7.7,0,13.6-2.3,17.3-4.2v-18.3c-5.1,4.6-10.6,5.9-14.8,5.9c-11.2,0-19.4-8-19.4-18.9c0-9.7,6.3-18.8,18.8-18.8c6.5,0,11.4,2.2,15.4,5.9V375.1z M381.9,373.3h-55.8v16h18.5V440h18.8v-50.7h18.5V373.3z M383.3,288.8c12.3,11.7,27.4,17.4,47.5,17.4c43.2,0,57.2-29.4,60.9-38.6l-32-5.1c-5.7,10-15.7,16.3-28.9,16.3c-13.4,0-21.2-6.6-24.9-11.7c-4-5.4-6-13.4-6-20.9h92.6v-2.9c0-13.4-1.7-32.9-14.9-48.6c-8.6-10.3-23.2-20.3-48.3-20.3c-14.9,0-32,3.1-46.6,17.4c-8.9,8.9-18.9,24-18.9,48.6C363.9,259.9,369.6,275.9,383.3,288.8z M465.1,406.6c0-13.2-5.1-21.6-10-26.5c-7.5-7.5-16.9-8.9-22.8-8.9c-12.3,0-18.8,6.6-21.7,10.8v-8.6h-18.8v102h18.8v-43.9c7.4,10,16.8,10.8,21.4,10.8c9.9,0,17.6-3.9,22.6-8.6C458.5,429.8,465.1,421.7,465.1,406.6z M492.4,475.3l53.8-102h-21.3l-18.5,37.9l-20.6-37.9h-21.9l31.7,56.7l-24.5,45.3H492.4z M631.2,440L619,373.3h-13.9l-18.3,38.4l-18.3-38.4h-13.9L542.4,440h18.8l5.5-36.2l16.6,36.2h6.8l16.6-36.2l5.5,36.2H631.2z M706.7,408.3c0-7.2-0.9-17.7-8-26.2c-4.6-5.5-12.5-10.9-26-10.9c-8,0-17.3,1.7-25.1,9.4c-4.8,4.8-10.2,12.9-10.2,26.2c0,10.5,3.1,19.1,10.5,26c6.6,6.3,14.8,9.4,25.6,9.4c23.3,0,30.8-15.9,32.8-20.8l-17.3-2.8c-3.1,5.4-8.5,8.8-15.6,8.8c-7.2,0-11.4-3.5-13.4-6.3c-2.2-2.9-3.2-7.2-3.2-11.2h49.9V408.3z M782.6,373.3h-18.8v23.6h-26.2v-23.6h-18.8V440h18.8v-27.1h26.2V440h18.8V373.3z M848.2,373.3h-55.8v16h18.5V440h18.8v-50.7h18.5V373.3z M914.5,418.1c0-6.6-2.2-11.2-5.1-14.3c-4.6-5.1-12-6.8-17.9-6.8h-14.6v-23.7h-18.8V440h34.4c4.5,0,10-0.6,14.9-4.9C910.6,432.3,914.5,426.9,914.5,418.1z M940.3,373.3h-18.8V440h18.8V373.3z M1030.8,244c0-39.1-31.7-70.9-70.9-70.9c-39.1,0-70.9,31.7-70.9,70.9c0,39.1,31.7,70.9,70.9,70.9C999.1,314.8,1030.8,283.1,1030.8,244z M993.2,243.3l-12.9-23.6h-13.6l19.8,35.3l-15.3,28.2h13.2l33.5-63.6h-13.2L993.2,243.3z M962,223.9c3.1,3.1,6.2,8.3,6.2,16.5c0,9.4-4.1,14.5-6.5,16.8c-3.2,3-8,5.4-14.1,5.4c-2.9,0-8.7-0.5-13.3-6.7v27.4h-11.7v-63.6h11.7v5.4c1.8-2.6,5.9-6.7,13.5-6.7C951.4,218.3,957.3,219.2,962,223.9z M956.1,240.4c0-3.1-1.3-6.5-3.6-8.7c-2.1-1.9-5.2-3-8-3c-3.1,0-5.5,0.9-7.6,2.8c-2.6,2.2-3.9,5.1-3.9,8.9c0,3.8,1.5,7,3.8,9c1.5,1.3,4,2.8,7.7,2.8c3.8,0,6.3-1.5,7.9-3C955,246.9,956.1,243.5,956.1,240.4zM907.1,247.5c-4.2,0-7.5,3.3-7.5,7.5c0,4.2,3.3,7.5,7.5,7.5c4.2,0,7.5-3.3,7.5-7.5C914.6,250.8,911.3,247.5,907.1,247.5z"></path>
</svg>