<svg xmlns="http://www.w3.org/2000/svg" xmlns:xlink="http://www.w3.org/1999/xlink" contentStyleType="text/css" data-diagram-type="ACTIVITY" height="759.375px" preserveAspectRatio="none" style="width:1448px;height:759px;" version="1.1" viewBox="0 0 1448 759" width="1448.9583px" zoomAndPan="magnify"><defs><linearGradient id="g85xp8xezvmfl0" x1="50%" x2="50%" y1="0%" y2="100%"><stop offset="0%" stop-color="#F5F5F5"/><stop offset="100%" stop-color="#C2C2C2"/></linearGradient><linearGradient id="g85xp8xezvmfl1" x1="50%" x2="50%" y1="0%" y2="100%"><stop offset="0%" stop-color="#33B2E2"/><stop offset="100%" stop-color="#009FDB"/></linearGradient></defs><g><rect fill="#FFFFCC" height="27.7507" rx="2.6042" ry="2.6042" style="stroke:#FFDD88;stroke-width:3.125;" width="1437.5773" x="5.2083" y="5.2083"/><text fill="#000000" font-family="monospace" font-size="10.4167" lengthAdjust="spacing" textLength="370.0104" x="10.4167" y="20.8333">Please&#160;use&#160;'!option&#160;handwritten&#160;true'&#160;to&#160;enable&#160;handwritten</text><ellipse cx="395.9391" cy="59.0007" fill="#0568AE" rx="10.4167" ry="10.4167" style="stroke:#007FAF;stroke-width:1.0417;"/><polygon fill="url(#g85xp8xezvmfl0)" points="276.9857,91.9027,514.8926,91.9027,527.3926,109.9365,514.8926,127.9704,276.9857,127.9704,264.4857,109.9365,276.9857,91.9027" style="stroke:#C2C2C2;stroke-width:1.0417;"/><text fill="#5A5A5A" font-family="Verdana" font-size="16.6667" lengthAdjust="spacing" textLength="221.2402" x="285.319" y="115.7064">&#1047;&#1072;&#1076;&#1072;&#1085;&#1099; &#1087;&#1088;&#1072;&#1074;&#1080;&#1083;&#1072; from-to?</text><text fill="#5A5A5A" font-family="Verdana" font-size="16.6667" font-style="italic" lengthAdjust="spacing" textLength="32.4951" x="223.6572" y="97.6725">&#1053;&#1077;&#1090;</text><text fill="#5A5A5A" font-family="Verdana" font-size="16.6667" font-style="italic" lengthAdjust="spacing" textLength="23.234" x="535.7259" y="97.6725">&#1044;&#1072;</text><rect fill="url(#g85xp8xezvmfl1)" height="48.5677" rx="10.4167" ry="10.4167" style="stroke:#009FDB;stroke-width:1.0417;" width="241.2109" x="11.4583" y="138.387"/><text fill="#FFFFFF" font-family="Verdana" font-size="16.6667" lengthAdjust="spacing" textLength="212.0443" x="26.0417" y="168.4408">&#1054;&#1073;&#1085;&#1086;&#1074;&#1083;&#1077;&#1085;&#1080;&#1077; &#1087;&#1086; &#1087;&#1086;&#1088;&#1103;&#1076;&#1082;&#1091;</text><ellipse cx="132.0638" cy="234.8714" fill="none" rx="11.4583" ry="11.4583" style="stroke:#007FAF;stroke-width:1.0417;"/><ellipse cx="132.0638" cy="234.8714" fill="none" rx="6.25" ry="6.25" style="stroke:#007FAF;stroke-width:1.0417;"/><polygon fill="url(#g85xp8xezvmfl0)" points="545.2759,138.387,774.353,138.387,786.853,166.1214,774.353,193.8558,545.2759,193.8558,532.7759,166.1214,545.2759,138.387" style="stroke:#C2C2C2;stroke-width:1.0417;"/><text fill="#5A5A5A" font-family="Verdana" font-size="16.6667" lengthAdjust="spacing" textLength="212.4105" x="553.6092" y="162.1908">&#1058;&#1077;&#1082;&#1091;&#1097;&#1072;&#1103; &#1074;&#1077;&#1088;&#1089;&#1080;&#1103; &#1084;&#1086;&#1076;&#1091;&#1083;&#1103;</text><text fill="#5A5A5A" font-family="Verdana" font-size="16.6667" lengthAdjust="spacing" textLength="187.4186" x="566.1051" y="181.5918">&#1085;&#1080;&#1078;&#1077; &#1079;&#1085;&#1072;&#1095;&#1077;&#1085;&#1080;&#1103; from?</text><text fill="#5A5A5A" font-family="Verdana" font-size="16.6667" font-style="italic" lengthAdjust="spacing" textLength="23.234" x="501.2085" y="153.8574">&#1044;&#1072;</text><text fill="#5A5A5A" font-family="Verdana" font-size="16.6667" font-style="italic" lengthAdjust="spacing" textLength="32.4951" x="795.1864" y="153.8574">&#1053;&#1077;&#1090;</text><rect fill="url(#g85xp8xezvmfl1)" height="48.5677" rx="10.4167" ry="10.4167" style="stroke:#009FDB;stroke-width:1.0417;" width="241.2109" x="283.9193" y="204.2725"/><text fill="#FFFFFF" font-family="Verdana" font-size="16.6667" lengthAdjust="spacing" textLength="212.0443" x="298.5026" y="234.3262">&#1054;&#1073;&#1085;&#1086;&#1074;&#1083;&#1077;&#1085;&#1080;&#1077; &#1087;&#1086; &#1087;&#1086;&#1088;&#1103;&#1076;&#1082;&#1091;</text><ellipse cx="404.5247" cy="300.7568" fill="none" rx="11.4583" ry="11.4583" style="stroke:#007FAF;stroke-width:1.0417;"/><ellipse cx="404.5247" cy="300.7568" fill="none" rx="6.25" ry="6.25" style="stroke:#007FAF;stroke-width:1.0417;"/><rect fill="url(#g85xp8xezvmfl1)" height="67.9688" rx="10.4167" ry="10.4167" style="stroke:#009FDB;stroke-width:1.0417;" width="464.0137" x="683.0973" y="204.2725"/><text fill="#FFFFFF" font-family="Verdana" font-size="16.6667" lengthAdjust="spacing" textLength="228.0518" x="801.0783" y="234.3262">&#1045;&#1089;&#1083;&#1080; &#1087;&#1088;&#1072;&#1074;&#1080;&#1083; &#1085;&#1077;&#1089;&#1082;&#1086;&#1083;&#1100;&#1082;&#1086; &#8212;</text><text fill="#FFFFFF" font-family="Verdana" font-size="16.6667" lengthAdjust="spacing" textLength="434.847" x="697.6807" y="253.7272">&#1080;&#1089;&#1087;&#1086;&#1083;&#1100;&#1079;&#1091;&#1077;&#1090;&#1089;&#1103; &#1079;&#1085;&#1072;&#1095;&#1077;&#1085;&#1080;&#1077; to &#1089; &#1085;&#1072;&#1080;&#1073;&#1086;&#1083;&#1100;&#1096;&#1077;&#1081; &#1074;&#1077;&#1088;&#1089;&#1080;&#1077;&#1081;</text><polygon fill="url(#g85xp8xezvmfl0)" points="699.9023,308.6995,1130.306,308.6995,1142.806,336.4339,1130.306,364.1683,699.9023,364.1683,687.4023,336.4339,699.9023,308.6995" style="stroke:#C2C2C2;stroke-width:1.0417;"/><text fill="#5A5A5A" font-family="Verdana" font-size="16.6667" lengthAdjust="spacing" textLength="189.9089" x="820.1497" y="332.5033">&#1044;&#1083;&#1103; &#1101;&#1090;&#1086;&#1081; &#1074;&#1077;&#1088;&#1089;&#1080;&#1080; &#1077;&#1089;&#1090;&#1100;</text><text fill="#5A5A5A" font-family="Verdana" font-size="16.6667" lengthAdjust="spacing" textLength="413.737" x="708.2357" y="351.9043">update-&#1085;&#1072;&#1089;&#1090;&#1088;&#1086;&#1081;&#1082;&#1080; (&#1087;&#1072;&#1088;&#1072;&#1084;&#1077;&#1090;&#1088; update.versions) ?</text><text fill="#5A5A5A" font-family="Verdana" font-size="16.6667" font-style="italic" lengthAdjust="spacing" textLength="32.4951" x="646.5739" y="324.1699">&#1053;&#1077;&#1090;</text><text fill="#5A5A5A" font-family="Verdana" font-size="16.6667" font-style="italic" lengthAdjust="spacing" textLength="23.234" x="1151.1393" y="324.1699">&#1044;&#1072;</text><rect fill="url(#g85xp8xezvmfl1)" height="48.5677" rx="10.4167" ry="10.4167" style="stroke:#009FDB;stroke-width:1.0417;" width="241.2109" x="556.3802" y="374.585"/><text fill="#FFFFFF" font-family="Verdana" font-size="16.6667" lengthAdjust="spacing" textLength="212.0443" x="570.9635" y="404.6387">&#1054;&#1073;&#1085;&#1086;&#1074;&#1083;&#1077;&#1085;&#1080;&#1077; &#1087;&#1086; &#1087;&#1086;&#1088;&#1103;&#1076;&#1082;&#1091;</text><ellipse cx="676.9857" cy="471.0693" fill="none" rx="11.4583" ry="11.4583" style="stroke:#007FAF;stroke-width:1.0417;"/><ellipse cx="676.9857" cy="471.0693" fill="none" rx="6.25" ry="6.25" style="stroke:#007FAF;stroke-width:1.0417;"/><rect fill="url(#g85xp8xezvmfl1)" height="67.9688" rx="10.4167" ry="10.4167" style="stroke:#009FDB;stroke-width:1.0417;" width="376.7334" x="964.856" y="374.585"/><text fill="#FFFFFF" font-family="Verdana" font-size="16.6667" lengthAdjust="spacing" textLength="347.5667" x="979.4393" y="404.6387">&#1059;&#1089;&#1090;&#1072;&#1085;&#1072;&#1074;&#1083;&#1080;&#1074;&#1072;&#1077;&#1090;&#1089;&#1103; &#1087;&#1086;&#1089;&#1083;&#1077;&#1076;&#1085;&#1103;&#1103; &#1076;&#1086;&#1089;&#1090;&#1091;&#1087;&#1085;&#1072;&#1103;</text><text fill="#FFFFFF" font-family="Verdana" font-size="16.6667" lengthAdjust="spacing" textLength="344.6208" x="980.9123" y="424.0397">&#1074;&#1077;&#1088;&#1089;&#1080;&#1103; &#1084;&#1086;&#1076;&#1091;&#1083;&#1103; &#1074; &#1087;&#1088;&#1077;&#1076;&#1077;&#1083;&#1072;&#1093; &#1079;&#1085;&#1072;&#1095;&#1077;&#1085;&#1080;&#1103; to</text><rect fill="url(#g85xp8xezvmfl1)" height="67.9688" rx="10.4167" ry="10.4167" style="stroke:#009FDB;stroke-width:1.0417;" width="537.4593" x="884.493" y="479.012"/><text fill="#FFFFFF" font-family="Verdana" font-size="16.6667" lengthAdjust="spacing" textLength="508.2926" x="899.0763" y="509.0658">&#1054;&#1078;&#1080;&#1076;&#1072;&#1077;&#1090;&#1089;&#1103; &#1087;&#1086;&#1076;&#1090;&#1074;&#1077;&#1088;&#1078;&#1076;&#1077;&#1085;&#1080;&#1077; &#1074;&#1099;&#1073;&#1086;&#1088;&#1072; &#1088;&#1077;&#1083;&#1080;&#1079;&#1072; &#1089; &#1072;&#1085;&#1085;&#1086;&#1090;&#1072;&#1094;&#1080;&#1077;&#1081;</text><text fill="#FFFFFF" font-family="Verdana" font-size="16.6667" lengthAdjust="spacing" textLength="334.7087" x="985.8683" y="528.4668">modules.deckhouse.io/approved="true"</text><rect fill="url(#g85xp8xezvmfl1)" height="48.5677" rx="10.4167" ry="10.4167" style="stroke:#009FDB;stroke-width:1.0417;" width="459.139" x="923.6532" y="567.8141"/><text fill="#FFFFFF" font-family="Verdana" font-size="16.6667" lengthAdjust="spacing" textLength="429.9723" x="938.2365" y="597.8678">&#1055;&#1088;&#1086;&#1084;&#1077;&#1078;&#1091;&#1090;&#1086;&#1095;&#1085;&#1099;&#1077; &#1088;&#1077;&#1083;&#1080;&#1079;&#1099; &#1087;&#1088;&#1086;&#1087;&#1091;&#1089;&#1082;&#1072;&#1102;&#1090;&#1089;&#1103; (Skipped)</text><rect fill="url(#g85xp8xezvmfl1)" height="67.9688" rx="10.4167" ry="10.4167" style="stroke:#009FDB;stroke-width:1.0417;" width="471.2809" x="917.5822" y="637.2152"/><text fill="#FFFFFF" font-family="Verdana" font-size="16.6667" lengthAdjust="spacing" textLength="308.8949" x="998.7752" y="667.2689">&#1059;&#1089;&#1090;&#1072;&#1085;&#1086;&#1074;&#1083;&#1077;&#1085;&#1072; &#1087;&#1086;&#1089;&#1083;&#1077;&#1076;&#1085;&#1103;&#1103; &#1076;&#1086;&#1089;&#1090;&#1091;&#1087;&#1085;&#1072;&#1103;</text><text fill="#FFFFFF" font-family="Verdana" font-size="16.6667" lengthAdjust="spacing" textLength="442.1143" x="932.1655" y="686.6699">&#1074;&#1077;&#1088;&#1089;&#1080;&#1103; &#1084;&#1086;&#1076;&#1091;&#1083;&#1103; &#1074; &#1087;&#1088;&#1077;&#1076;&#1077;&#1083;&#1072;&#1093; &#1079;&#1085;&#1072;&#1095;&#1077;&#1085;&#1080;&#1103; to (Deployed)</text><ellipse cx="1153.2227" cy="737.4756" fill="none" rx="11.4583" ry="11.4583" style="stroke:#007FAF;stroke-width:1.0417;"/><ellipse cx="1153.2227" cy="737.4756" fill="none" rx="6.25" ry="6.25" style="stroke:#007FAF;stroke-width:1.0417;"/><line style="stroke:#009FDB;stroke-width:3.125;" x1="132.0638" x2="132.0638" y1="186.9548" y2="223.4131"/><polygon fill="#009FDB" points="127.8971,212.9964,132.0638,223.4131,136.2305,212.9964,132.0638,217.1631" style="stroke:#009FDB;stroke-width:1.0417;"/><line style="stroke:#009FDB;stroke-width:3.125;" x1="404.5247" x2="404.5247" y1="252.8402" y2="289.2985"/><polygon fill="#009FDB" points="400.3581,278.8818,404.5247,289.2985,408.6914,278.8818,404.5247,283.0485" style="stroke:#009FDB;stroke-width:1.0417;"/><line style="stroke:#009FDB;stroke-width:3.125;" x1="676.9857" x2="676.9857" y1="423.1527" y2="459.611"/><polygon fill="#009FDB" points="672.819,449.1943,676.9857,459.611,681.1523,449.1943,676.9857,453.361" style="stroke:#009FDB;stroke-width:1.0417;"/><line style="stroke:#009FDB;stroke-width:3.125;" x1="1153.2227" x2="1153.2227" y1="442.5537" y2="479.012"/><polygon fill="#009FDB" points="1149.056,468.5954,1153.2227,479.012,1157.3893,468.5954,1153.2227,472.762" style="stroke:#009FDB;stroke-width:1.0417;"/><line style="stroke:#009FDB;stroke-width:3.125;" x1="1153.2227" x2="1153.2227" y1="546.9808" y2="567.8141"/><polygon fill="#009FDB" points="1149.056,557.3975,1153.2227,567.8141,1157.3893,557.3975,1153.2227,561.5641" style="stroke:#009FDB;stroke-width:1.0417;"/><line style="stroke:#009FDB;stroke-width:3.125;" x1="1153.2227" x2="1153.2227" y1="616.3818" y2="637.2152"/><polygon fill="#009FDB" points="1149.056,626.7985,1153.2227,637.2152,1157.3893,626.7985,1153.2227,630.9652" style="stroke:#009FDB;stroke-width:1.0417;"/><line style="stroke:#009FDB;stroke-width:3.125;" x1="1153.2227" x2="1153.2227" y1="705.1839" y2="726.0173"/><polygon fill="#009FDB" points="1149.056,715.6006,1153.2227,726.0173,1157.3893,715.6006,1153.2227,719.7673" style="stroke:#009FDB;stroke-width:1.0417;"/><line style="stroke:#009FDB;stroke-width:3.125;" x1="687.4023" x2="676.9857" y1="336.4339" y2="336.4339"/><line style="stroke:#009FDB;stroke-width:3.125;" x1="676.9857" x2="676.9857" y1="336.4339" y2="374.585"/><polygon fill="#009FDB" points="672.819,364.1683,676.9857,374.585,681.1523,364.1683,676.9857,368.335" style="stroke:#009FDB;stroke-width:1.0417;"/><line style="stroke:#009FDB;stroke-width:3.125;" x1="1142.806" x2="1153.2227" y1="336.4339" y2="336.4339"/><line style="stroke:#009FDB;stroke-width:3.125;" x1="1153.2227" x2="1153.2227" y1="336.4339" y2="374.585"/><polygon fill="#009FDB" points="1149.056,364.1683,1153.2227,374.585,1157.3893,364.1683,1153.2227,368.335" style="stroke:#009FDB;stroke-width:1.0417;"/><line style="stroke:#009FDB;stroke-width:3.125;" x1="915.1042" x2="915.1042" y1="272.2412" y2="308.6995"/><polygon fill="#009FDB" points="910.9375,298.2829,915.1042,308.6995,919.2708,298.2829,915.1042,302.4495" style="stroke:#009FDB;stroke-width:1.0417;"/><line style="stroke:#009FDB;stroke-width:3.125;" x1="532.7759" x2="404.5247" y1="166.1214" y2="166.1214"/><line style="stroke:#009FDB;stroke-width:3.125;" x1="404.5247" x2="404.5247" y1="166.1214" y2="204.2725"/><polygon fill="#009FDB" points="400.3581,193.8558,404.5247,204.2725,408.6914,193.8558,404.5247,198.0225" style="stroke:#009FDB;stroke-width:1.0417;"/><line style="stroke:#009FDB;stroke-width:3.125;" x1="786.853" x2="915.1042" y1="166.1214" y2="166.1214"/><line style="stroke:#009FDB;stroke-width:3.125;" x1="915.1042" x2="915.1042" y1="166.1214" y2="204.2725"/><polygon fill="#009FDB" points="910.9375,193.8558,915.1042,204.2725,919.2708,193.8558,915.1042,198.0225" style="stroke:#009FDB;stroke-width:1.0417;"/><line style="stroke:#009FDB;stroke-width:3.125;" x1="264.4857" x2="132.0638" y1="109.9365" y2="109.9365"/><line style="stroke:#009FDB;stroke-width:3.125;" x1="132.0638" x2="132.0638" y1="109.9365" y2="138.387"/><polygon fill="#009FDB" points="127.8971,127.9704,132.0638,138.387,136.2305,127.9704,132.0638,132.137" style="stroke:#009FDB;stroke-width:1.0417;"/><line style="stroke:#009FDB;stroke-width:3.125;" x1="527.3926" x2="659.8145" y1="109.9365" y2="109.9365"/><line style="stroke:#009FDB;stroke-width:3.125;" x1="659.8145" x2="659.8145" y1="109.9365" y2="138.387"/><polygon fill="#009FDB" points="655.6478,127.9704,659.8145,138.387,663.9811,127.9704,659.8145,132.137" style="stroke:#009FDB;stroke-width:1.0417;"/><line style="stroke:#009FDB;stroke-width:3.125;" x1="395.9391" x2="395.9391" y1="69.4173" y2="91.9027"/><polygon fill="#009FDB" points="391.7725,81.486,395.9391,91.9027,400.1058,81.486,395.9391,85.6527" style="stroke:#009FDB;stroke-width:1.0417;"/><!--SRC=[lLFBRjD05DtxAuQkcaM3sB2WGgYYuWV2ifjfF4ciE3FMUDnILaaZNceXco9MW0G_u5P96ves_OMPN-1BE7Vi9Yuj2rYmyDXp7-UUU-xrFTCHFS6suqoqDTyBqcua4wvvZssA5izYyqn9quXU2lRWOSNPuJBSrP4nGh8MZrDnE_6vU64sugWjUq8QriGXT2LgGskrwy7DNYnOP7WSDIl-RTxijhNAPFXKnKepexbCuG9E9QhHuQ7QZMIxP16aXciJ156BhTfFDhTZF9VkWDahryVdYPtQcSrPIwlUcb5FQWpzIyH-jXEtNmiOUsI_s6DxQUU8dTa9lgPsWdGxzuVhkn50pzrm7S6fKKaWK1W8HpQdV5_v6n8HujxPt8qOa2R86zWfNIu0FNP3EtEZBUdXJwd06JvpzwQeY3XYkAHNWlyblP8WOoN5HPE4yn64PdPwGna6l0divy2VkKDwiv_z8_2SmdfLMi_07a1kGEtSu0qgHZ4t89mSr-CYmxs5-qT51xgk1vw8r-k8r63klTj7mer0y0CX53lSabaISYFMV44ozIaO7AT0k8ADshZmpFgiYAtl29r6IgOrTiUe_q7FXQ8BJHUJ8Qpln8ispWiATN7cIwq8SE3BZB6K8pADoGJ_44xgYtRYJ-i2NOffKVw4zjYzkhquHfNA5isTWiJuDn80t2-gm3rUTdtY3cXa92JpPQY3CxfWejGLTAB-tEjYX5kofy8i5caz5CrkHsMfg4VgFayIhNP4-7Z5w4oiLEXyzJF3ZEmf_WuC6xpnTwBsijprpph7EVIxcBiF9VdLHZTA4X7Mrk-GV3d2_Bz9pLOtHHAhlGgbvOB8C6e5r-_Y_0K0]--></g></svg>