<svg xmlns="http://www.w3.org/2000/svg" xmlns:xlink="http://www.w3.org/1999/xlink" contentStyleType="text/css" data-diagram-type="ACTIVITY" height="721.875px" preserveAspectRatio="none" style="width:1433px;height:721px;" version="1.1" viewBox="0 0 1433 721" width="1433.3333px" zoomAndPan="magnify"><defs><linearGradient id="g1nauftfux9j8g0" x1="50%" x2="50%" y1="0%" y2="100%"><stop offset="0%" stop-color="#F5F5F5"/><stop offset="100%" stop-color="#C2C2C2"/></linearGradient><linearGradient id="g1nauftfux9j8g1" x1="50%" x2="50%" y1="0%" y2="100%"><stop offset="0%" stop-color="#33B2E2"/><stop offset="100%" stop-color="#009FDB"/></linearGradient></defs><g><ellipse cx="395.9391" cy="20.8333" fill="#0568AE" rx="10.4167" ry="10.4167" style="stroke:#007FAF;stroke-width:1.0417;"/><polygon fill="url(#g1nauftfux9j8g0)" points="276.9857,53.7354,514.8926,53.7354,527.3926,71.7692,514.8926,89.8031,276.9857,89.8031,264.4857,71.7692,276.9857,53.7354" style="stroke:#C2C2C2;stroke-width:1.0417;"/><text fill="#5A5A5A" font-family="Verdana" font-size="16.6667" lengthAdjust="spacing" textLength="221.2402" x="285.319" y="77.5391">&#1047;&#1072;&#1076;&#1072;&#1085;&#1099; &#1087;&#1088;&#1072;&#1074;&#1080;&#1083;&#1072; from-to?</text><text fill="#5A5A5A" font-family="Verdana" font-size="16.6667" font-style="italic" lengthAdjust="spacing" textLength="32.4951" x="223.6572" y="59.5052">&#1053;&#1077;&#1090;</text><text fill="#5A5A5A" font-family="Verdana" font-size="16.6667" font-style="italic" lengthAdjust="spacing" textLength="23.234" x="535.7259" y="59.5052">&#1044;&#1072;</text><rect fill="url(#g1nauftfux9j8g1)" height="48.5677" rx="10.4167" ry="10.4167" style="stroke:#009FDB;stroke-width:1.0417;" width="241.2109" x="11.4583" y="100.2197"/><text fill="#FFFFFF" font-family="Verdana" font-size="16.6667" lengthAdjust="spacing" textLength="212.0443" x="26.0417" y="130.2734">&#1054;&#1073;&#1085;&#1086;&#1074;&#1083;&#1077;&#1085;&#1080;&#1077; &#1087;&#1086; &#1087;&#1086;&#1088;&#1103;&#1076;&#1082;&#1091;</text><ellipse cx="132.0638" cy="196.7041" fill="none" rx="11.4583" ry="11.4583" style="stroke:#007FAF;stroke-width:1.0417;"/><ellipse cx="132.0638" cy="196.7041" fill="none" rx="6.25" ry="6.25" style="stroke:#007FAF;stroke-width:1.0417;"/><polygon fill="url(#g1nauftfux9j8g0)" points="545.2759,100.2197,774.353,100.2197,786.853,127.9541,774.353,155.6885,545.2759,155.6885,532.7759,127.9541,545.2759,100.2197" style="stroke:#C2C2C2;stroke-width:1.0417;"/><text fill="#5A5A5A" font-family="Verdana" font-size="16.6667" lengthAdjust="spacing" textLength="212.4105" x="553.6092" y="124.0234">&#1058;&#1077;&#1082;&#1091;&#1097;&#1072;&#1103; &#1074;&#1077;&#1088;&#1089;&#1080;&#1103; &#1084;&#1086;&#1076;&#1091;&#1083;&#1103;</text><text fill="#5A5A5A" font-family="Verdana" font-size="16.6667" lengthAdjust="spacing" textLength="187.4186" x="566.1051" y="143.4245">&#1085;&#1080;&#1078;&#1077; &#1079;&#1085;&#1072;&#1095;&#1077;&#1085;&#1080;&#1103; from?</text><text fill="#5A5A5A" font-family="Verdana" font-size="16.6667" font-style="italic" lengthAdjust="spacing" textLength="23.234" x="501.2085" y="115.6901">&#1044;&#1072;</text><text fill="#5A5A5A" font-family="Verdana" font-size="16.6667" font-style="italic" lengthAdjust="spacing" textLength="32.4951" x="795.1864" y="115.6901">&#1053;&#1077;&#1090;</text><rect fill="url(#g1nauftfux9j8g1)" height="48.5677" rx="10.4167" ry="10.4167" style="stroke:#009FDB;stroke-width:1.0417;" width="241.2109" x="283.9193" y="166.1051"/><text fill="#FFFFFF" font-family="Verdana" font-size="16.6667" lengthAdjust="spacing" textLength="212.0443" x="298.5026" y="196.1589">&#1054;&#1073;&#1085;&#1086;&#1074;&#1083;&#1077;&#1085;&#1080;&#1077; &#1087;&#1086; &#1087;&#1086;&#1088;&#1103;&#1076;&#1082;&#1091;</text><ellipse cx="404.5247" cy="262.5895" fill="none" rx="11.4583" ry="11.4583" style="stroke:#007FAF;stroke-width:1.0417;"/><ellipse cx="404.5247" cy="262.5895" fill="none" rx="6.25" ry="6.25" style="stroke:#007FAF;stroke-width:1.0417;"/><rect fill="url(#g1nauftfux9j8g1)" height="67.9688" rx="10.4167" ry="10.4167" style="stroke:#009FDB;stroke-width:1.0417;" width="464.0137" x="683.0973" y="166.1051"/><text fill="#FFFFFF" font-family="Verdana" font-size="16.6667" lengthAdjust="spacing" textLength="228.0518" x="801.0783" y="196.1589">&#1045;&#1089;&#1083;&#1080; &#1087;&#1088;&#1072;&#1074;&#1080;&#1083; &#1085;&#1077;&#1089;&#1082;&#1086;&#1083;&#1100;&#1082;&#1086; &#8212;</text><text fill="#FFFFFF" font-family="Verdana" font-size="16.6667" lengthAdjust="spacing" textLength="434.847" x="697.6807" y="215.5599">&#1080;&#1089;&#1087;&#1086;&#1083;&#1100;&#1079;&#1091;&#1077;&#1090;&#1089;&#1103; &#1079;&#1085;&#1072;&#1095;&#1077;&#1085;&#1080;&#1077; to &#1089; &#1085;&#1072;&#1080;&#1073;&#1086;&#1083;&#1100;&#1096;&#1077;&#1081; &#1074;&#1077;&#1088;&#1089;&#1080;&#1077;&#1081;</text><polygon fill="url(#g1nauftfux9j8g0)" points="699.9023,270.5322,1130.306,270.5322,1142.806,298.2666,1130.306,326.001,699.9023,326.001,687.4023,298.2666,699.9023,270.5322" style="stroke:#C2C2C2;stroke-width:1.0417;"/><text fill="#5A5A5A" font-family="Verdana" font-size="16.6667" lengthAdjust="spacing" textLength="189.9089" x="820.1497" y="294.3359">&#1044;&#1083;&#1103; &#1101;&#1090;&#1086;&#1081; &#1074;&#1077;&#1088;&#1089;&#1080;&#1080; &#1077;&#1089;&#1090;&#1100;</text><text fill="#5A5A5A" font-family="Verdana" font-size="16.6667" lengthAdjust="spacing" textLength="413.737" x="708.2357" y="313.737">update-&#1085;&#1072;&#1089;&#1090;&#1088;&#1086;&#1081;&#1082;&#1080; (&#1087;&#1072;&#1088;&#1072;&#1084;&#1077;&#1090;&#1088; update.versions) ?</text><text fill="#5A5A5A" font-family="Verdana" font-size="16.6667" font-style="italic" lengthAdjust="spacing" textLength="32.4951" x="646.5739" y="286.0026">&#1053;&#1077;&#1090;</text><text fill="#5A5A5A" font-family="Verdana" font-size="16.6667" font-style="italic" lengthAdjust="spacing" textLength="23.234" x="1151.1393" y="286.0026">&#1044;&#1072;</text><rect fill="url(#g1nauftfux9j8g1)" height="48.5677" rx="10.4167" ry="10.4167" style="stroke:#009FDB;stroke-width:1.0417;" width="241.2109" x="556.3802" y="336.4176"/><text fill="#FFFFFF" font-family="Verdana" font-size="16.6667" lengthAdjust="spacing" textLength="212.0443" x="570.9635" y="366.4714">&#1054;&#1073;&#1085;&#1086;&#1074;&#1083;&#1077;&#1085;&#1080;&#1077; &#1087;&#1086; &#1087;&#1086;&#1088;&#1103;&#1076;&#1082;&#1091;</text><ellipse cx="676.9857" cy="432.902" fill="none" rx="11.4583" ry="11.4583" style="stroke:#007FAF;stroke-width:1.0417;"/><ellipse cx="676.9857" cy="432.902" fill="none" rx="6.25" ry="6.25" style="stroke:#007FAF;stroke-width:1.0417;"/><rect fill="url(#g1nauftfux9j8g1)" height="67.9688" rx="10.4167" ry="10.4167" style="stroke:#009FDB;stroke-width:1.0417;" width="376.7334" x="964.856" y="336.4176"/><text fill="#FFFFFF" font-family="Verdana" font-size="16.6667" lengthAdjust="spacing" textLength="347.5667" x="979.4393" y="366.4714">&#1059;&#1089;&#1090;&#1072;&#1085;&#1072;&#1074;&#1083;&#1080;&#1074;&#1072;&#1077;&#1090;&#1089;&#1103; &#1087;&#1086;&#1089;&#1083;&#1077;&#1076;&#1085;&#1103;&#1103; &#1076;&#1086;&#1089;&#1090;&#1091;&#1087;&#1085;&#1072;&#1103;</text><text fill="#FFFFFF" font-family="Verdana" font-size="16.6667" lengthAdjust="spacing" textLength="344.6208" x="980.9123" y="385.8724">&#1074;&#1077;&#1088;&#1089;&#1080;&#1103; &#1084;&#1086;&#1076;&#1091;&#1083;&#1103; &#1074; &#1087;&#1088;&#1077;&#1076;&#1077;&#1083;&#1072;&#1093; &#1079;&#1085;&#1072;&#1095;&#1077;&#1085;&#1080;&#1103; to</text><rect fill="url(#g1nauftfux9j8g1)" height="67.9688" rx="10.4167" ry="10.4167" style="stroke:#009FDB;stroke-width:1.0417;" width="537.4593" x="884.493" y="440.8447"/><text fill="#FFFFFF" font-family="Verdana" font-size="16.6667" lengthAdjust="spacing" textLength="508.2926" x="899.0763" y="470.8984">&#1054;&#1078;&#1080;&#1076;&#1072;&#1077;&#1090;&#1089;&#1103; &#1087;&#1086;&#1076;&#1090;&#1074;&#1077;&#1088;&#1078;&#1076;&#1077;&#1085;&#1080;&#1077; &#1074;&#1099;&#1073;&#1086;&#1088;&#1072; &#1088;&#1077;&#1083;&#1080;&#1079;&#1072; &#1089; &#1072;&#1085;&#1085;&#1086;&#1090;&#1072;&#1094;&#1080;&#1077;&#1081;</text><text fill="#FFFFFF" font-family="Verdana" font-size="16.6667" lengthAdjust="spacing" textLength="334.7087" x="985.8683" y="490.2995">modules.deckhouse.io/approved="true"</text><rect fill="url(#g1nauftfux9j8g1)" height="48.5677" rx="10.4167" ry="10.4167" style="stroke:#009FDB;stroke-width:1.0417;" width="459.139" x="923.6532" y="529.6468"/><text fill="#FFFFFF" font-family="Verdana" font-size="16.6667" lengthAdjust="spacing" textLength="429.9723" x="938.2365" y="559.7005">&#1055;&#1088;&#1086;&#1084;&#1077;&#1078;&#1091;&#1090;&#1086;&#1095;&#1085;&#1099;&#1077; &#1088;&#1077;&#1083;&#1080;&#1079;&#1099; &#1087;&#1088;&#1086;&#1087;&#1091;&#1089;&#1082;&#1072;&#1102;&#1090;&#1089;&#1103; (Skipped)</text><rect fill="url(#g1nauftfux9j8g1)" height="67.9688" rx="10.4167" ry="10.4167" style="stroke:#009FDB;stroke-width:1.0417;" width="471.2809" x="917.5822" y="599.0479"/><text fill="#FFFFFF" font-family="Verdana" font-size="16.6667" lengthAdjust="spacing" textLength="308.8949" x="998.7752" y="629.1016">&#1059;&#1089;&#1090;&#1072;&#1085;&#1086;&#1074;&#1083;&#1077;&#1085;&#1072; &#1087;&#1086;&#1089;&#1083;&#1077;&#1076;&#1085;&#1103;&#1103; &#1076;&#1086;&#1089;&#1090;&#1091;&#1087;&#1085;&#1072;&#1103;</text><text fill="#FFFFFF" font-family="Verdana" font-size="16.6667" lengthAdjust="spacing" textLength="442.1143" x="932.1655" y="648.5026">&#1074;&#1077;&#1088;&#1089;&#1080;&#1103; &#1084;&#1086;&#1076;&#1091;&#1083;&#1103; &#1074; &#1087;&#1088;&#1077;&#1076;&#1077;&#1083;&#1072;&#1093; &#1079;&#1085;&#1072;&#1095;&#1077;&#1085;&#1080;&#1103; to (Deployed)</text><ellipse cx="1153.2227" cy="699.3083" fill="none" rx="11.4583" ry="11.4583" style="stroke:#007FAF;stroke-width:1.0417;"/><ellipse cx="1153.2227" cy="699.3083" fill="none" rx="6.25" ry="6.25" style="stroke:#007FAF;stroke-width:1.0417;"/><line style="stroke:#009FDB;stroke-width:3.125;" x1="132.0638" x2="132.0638" y1="148.7874" y2="185.2458"/><polygon fill="#009FDB" points="127.8971,174.8291,132.0638,185.2458,136.2305,174.8291,132.0638,178.9958" style="stroke:#009FDB;stroke-width:1.0417;"/><line style="stroke:#009FDB;stroke-width:3.125;" x1="404.5247" x2="404.5247" y1="214.6729" y2="251.1312"/><polygon fill="#009FDB" points="400.3581,240.7145,404.5247,251.1312,408.6914,240.7145,404.5247,244.8812" style="stroke:#009FDB;stroke-width:1.0417;"/><line style="stroke:#009FDB;stroke-width:3.125;" x1="676.9857" x2="676.9857" y1="384.9854" y2="421.4437"/><polygon fill="#009FDB" points="672.819,411.027,676.9857,421.4437,681.1523,411.027,676.9857,415.1937" style="stroke:#009FDB;stroke-width:1.0417;"/><line style="stroke:#009FDB;stroke-width:3.125;" x1="1153.2227" x2="1153.2227" y1="404.3864" y2="440.8447"/><polygon fill="#009FDB" points="1149.056,430.4281,1153.2227,440.8447,1157.3893,430.4281,1153.2227,434.5947" style="stroke:#009FDB;stroke-width:1.0417;"/><line style="stroke:#009FDB;stroke-width:3.125;" x1="1153.2227" x2="1153.2227" y1="508.8135" y2="529.6468"/><polygon fill="#009FDB" points="1149.056,519.2301,1153.2227,529.6468,1157.3893,519.2301,1153.2227,523.3968" style="stroke:#009FDB;stroke-width:1.0417;"/><line style="stroke:#009FDB;stroke-width:3.125;" x1="1153.2227" x2="1153.2227" y1="578.2145" y2="599.0479"/><polygon fill="#009FDB" points="1149.056,588.6312,1153.2227,599.0479,1157.3893,588.6312,1153.2227,592.7979" style="stroke:#009FDB;stroke-width:1.0417;"/><line style="stroke:#009FDB;stroke-width:3.125;" x1="1153.2227" x2="1153.2227" y1="667.0166" y2="687.8499"/><polygon fill="#009FDB" points="1149.056,677.4333,1153.2227,687.8499,1157.3893,677.4333,1153.2227,681.5999" style="stroke:#009FDB;stroke-width:1.0417;"/><line style="stroke:#009FDB;stroke-width:3.125;" x1="687.4023" x2="676.9857" y1="298.2666" y2="298.2666"/><line style="stroke:#009FDB;stroke-width:3.125;" x1="676.9857" x2="676.9857" y1="298.2666" y2="336.4176"/><polygon fill="#009FDB" points="672.819,326.001,676.9857,336.4176,681.1523,326.001,676.9857,330.1676" style="stroke:#009FDB;stroke-width:1.0417;"/><line style="stroke:#009FDB;stroke-width:3.125;" x1="1142.806" x2="1153.2227" y1="298.2666" y2="298.2666"/><line style="stroke:#009FDB;stroke-width:3.125;" x1="1153.2227" x2="1153.2227" y1="298.2666" y2="336.4176"/><polygon fill="#009FDB" points="1149.056,326.001,1153.2227,336.4176,1157.3893,326.001,1153.2227,330.1676" style="stroke:#009FDB;stroke-width:1.0417;"/><line style="stroke:#009FDB;stroke-width:3.125;" x1="915.1042" x2="915.1042" y1="234.0739" y2="270.5322"/><polygon fill="#009FDB" points="910.9375,260.1156,915.1042,270.5322,919.2708,260.1156,915.1042,264.2822" style="stroke:#009FDB;stroke-width:1.0417;"/><line style="stroke:#009FDB;stroke-width:3.125;" x1="532.7759" x2="404.5247" y1="127.9541" y2="127.9541"/><line style="stroke:#009FDB;stroke-width:3.125;" x1="404.5247" x2="404.5247" y1="127.9541" y2="166.1051"/><polygon fill="#009FDB" points="400.3581,155.6885,404.5247,166.1051,408.6914,155.6885,404.5247,159.8551" style="stroke:#009FDB;stroke-width:1.0417;"/><line style="stroke:#009FDB;stroke-width:3.125;" x1="786.853" x2="915.1042" y1="127.9541" y2="127.9541"/><line style="stroke:#009FDB;stroke-width:3.125;" x1="915.1042" x2="915.1042" y1="127.9541" y2="166.1051"/><polygon fill="#009FDB" points="910.9375,155.6885,915.1042,166.1051,919.2708,155.6885,915.1042,159.8551" style="stroke:#009FDB;stroke-width:1.0417;"/><line style="stroke:#009FDB;stroke-width:3.125;" x1="264.4857" x2="132.0638" y1="71.7692" y2="71.7692"/><line style="stroke:#009FDB;stroke-width:3.125;" x1="132.0638" x2="132.0638" y1="71.7692" y2="100.2197"/><polygon fill="#009FDB" points="127.8971,89.8031,132.0638,100.2197,136.2305,89.8031,132.0638,93.9697" style="stroke:#009FDB;stroke-width:1.0417;"/><line style="stroke:#009FDB;stroke-width:3.125;" x1="527.3926" x2="659.8145" y1="71.7692" y2="71.7692"/><line style="stroke:#009FDB;stroke-width:3.125;" x1="659.8145" x2="659.8145" y1="71.7692" y2="100.2197"/><polygon fill="#009FDB" points="655.6478,89.8031,659.8145,100.2197,663.9811,89.8031,659.8145,93.9697" style="stroke:#009FDB;stroke-width:1.0417;"/><line style="stroke:#009FDB;stroke-width:3.125;" x1="395.9391" x2="395.9391" y1="31.25" y2="53.7354"/><polygon fill="#009FDB" points="391.7725,43.3187,395.9391,53.7354,400.1058,43.3187,395.9391,47.4854" style="stroke:#009FDB;stroke-width:1.0417;"/><!--SRC=[lLFBRjD05DtxAuQkaaM3sB2WGgYYuWV2CXitdYHMd1bhF6u9gwGHBxMGJH0hG88VSAkyQDha5sP-WI_Xt76Q1oqBMB3ms7CVvvvxxlKztU0jpWwZbDULt_QIPYXYN_ajTi1hVXhfPrBeSlYIimSFRpkVynTwFmhheiM5PbKSN6r4xIibZns0RaUSXTgFmkg6_z2lDkjAfY9uAYEfc5Q-IE02paPKkU47yZWKTLRpeuHxNg9zfJqlhB62-MGoCyHpRK-PMTWEFY_CrCnCncfAjdQrV59aw54WzhCPsPEYnzWZyyMScsipH-pCZF0rDIEacxaxRCVs0NffUti8JhICFOx2G1YOZF9TvMz8H8XzPpBRPq0Q8QzhfdIv0lJGzipCzYl2mO-fm0IVcNsJLqGSCLpJMuB_9RqbGSQM55TD4iv749gPwPOo37WZs2-1FxDdz6O_EmFmdCAwM5edO0yWswLsjdY3YfRCTWadm_Kypx1luVwneGDTzpn7nEar83MOVMzFaB0L27uWX69d5P76WQ_vhYj8fWu5W-CK20lOg8qhnwp3yjZI4LT9A4LIP7UC-X_qN2cwqdGr6SBwJhneuvoWK1TdjjQA0Bkkp11BsIVJa4pmz-2alcWd_hGkq2MV5kMFQ8_jgzkBe-LIsRovCKWCVoC1m9Ey2jp3TTSNzfH6Ha8oLuOwcD054wMke1FrPr_d8wo8bWpIY2UbW5UR3Pacl1JA-tuSAtd4WySxMgLyPuFELpSppCYCyNTWsE2DlnErr-LkVjOvpfxRnSn-M98lb9jX7FEWk7U7vEiHPlzDQbOuu74asnkKrWiYWh3ctRppynS0]--></g></svg>