<svg width="59" height="57" viewBox="0 0 59 57" fill="none" xmlns="http://www.w3.org/2000/svg">
<path fill-rule="evenodd" clip-rule="evenodd" d="M45.4879 22.6576C45.1779 24.3628 44.8678 25.5255 44.1702 26.9208C43.3176 28.471 42.6975 30.2538 41.1472 29.0136C40.0621 28.0835 39.0544 27.2308 38.2793 26.1456C37.4266 24.9829 36.574 23.5102 35.9539 22.425C35.0237 20.7197 35.2563 20.5647 33.551 20.0996L31.9232 19.6346C32.0782 18.9369 32.1558 18.1618 32.1558 17.3092C32.1558 17.2317 32.1558 16.9991 32.1558 16.8441L35.4113 16.224C35.4113 16.224 42.3874 20.4097 44.6353 20.1771C46.4956 20.0996 45.798 21.1073 45.4879 22.6576Z" fill="white"/>
<path fill-rule="evenodd" clip-rule="evenodd" d="M44.8678 4.82956C45.8755 6.92241 47.9683 17.8517 44.3252 18.4718C43.5501 18.6268 42.3874 18.6268 40.9147 18.3168C40.0621 18.0842 39.0544 17.4641 38.0467 16.844C36.3414 15.7589 35.7988 15.3713 33.861 15.5263L32.0782 15.6813C32.0007 15.2163 31.9232 14.7512 31.7682 14.3636C37.6592 11.0306 37.7367 9.71286 41.6898 4.82956C42.93 3.27931 44.0927 3.27931 44.8678 4.82956Z" fill="white"/>
<path fill-rule="evenodd" clip-rule="evenodd" d="M35.7214 0.333489C37.7368 0.64354 39.2095 1.0311 40.3722 1.49618C42.155 2.42633 41.9224 2.42633 40.8373 3.82156C39.9071 5.13928 39.0545 6.30197 38.3569 7.6972C37.4267 9.40248 37.4267 10.1001 35.7214 10.9527L31.3807 13.2006C31.0707 12.5805 30.6831 12.1154 30.2955 11.8829C32.2334 11.8054 33.7836 10.9527 33.7836 8.78238C33.7836 7.30963 32.931 5.52684 31.8458 4.28664C32.0783 2.8139 32.7759 1.57369 33.4736 0.798565C34.1712 0.100951 34.7913 0.255976 35.7214 0.333489Z" fill="white"/>
<path fill-rule="evenodd" clip-rule="evenodd" d="M27.5826 0.0235948C28.2802 0.0235948 28.9778 0.0235948 29.6755 0.0235948C30.1405 0.0235948 30.6831 0.0235948 31.1482 0.0235948C32.931 0.0235948 33.0085 -0.286456 32.3109 1.34131C32.0008 2.11644 31.6133 2.96908 31.3032 3.74421C30.8382 3.27913 30.218 2.96908 29.6755 2.81405C29.0554 3.04659 28.4353 3.43415 27.8927 3.89923C27.5826 3.04659 27.1951 2.19395 26.8075 1.41882C26.1874 0.0235949 25.8773 0.101108 27.5826 0.0235948Z" fill="white"/>
<path fill-rule="evenodd" clip-rule="evenodd" d="M17.8159 1.26385C19.3662 0.643746 20.9164 0.798772 23.5519 0.256183C25.4897 -0.208894 27.04 2.58156 27.35 4.44187C26.2648 5.68207 25.5672 7.38735 25.5672 8.78258C25.5672 10.8754 26.8849 11.6506 28.7452 11.8831C28.3577 12.1156 27.9701 12.5807 27.6601 13.1233L23.0093 10.7979C21.9241 10.2553 21.9241 10.1778 21.3815 9.09263C20.4514 7.0773 19.3662 5.37202 17.971 3.58923C17.1958 2.65908 16.7308 1.88395 17.8159 1.26385Z" fill="white"/>
<path fill-rule="evenodd" clip-rule="evenodd" d="M14.5604 4.4417C15.0255 3.35652 16.0331 3.58906 16.9633 4.75175C19.1336 7.46469 20.5289 10.9528 23.7844 12.348C24.8696 12.8131 26.1098 13.6657 27.1949 14.2083C27.1174 14.6734 26.9624 15.1385 26.8849 15.6035L21.8466 15.526C19.8312 16.4562 19.5987 17.6189 18.126 18.0064C16.5757 18.3165 15.3355 18.4715 14.6379 18.3165C11.4599 17.2313 13.2427 6.61205 14.5604 4.4417Z" fill="white"/>
<path fill-rule="evenodd" clip-rule="evenodd" d="M15.413 27.3081C14.6379 25.6028 13.9403 23.665 13.6302 21.4946C13.4752 20.4094 13.3202 19.6343 14.5604 19.7893C16.8857 19.9444 22.1566 16.3788 22.1566 16.3788L26.7299 16.8439C26.7299 16.9989 26.7299 17.1539 26.7299 17.3089C26.7299 18.1616 26.8074 18.9367 26.9624 19.6343L25.4897 20.0219C23.0092 20.642 22.2341 24.5176 20.7614 26.6105C20.0638 27.6956 19.0561 28.6258 17.8934 28.8583C16.0331 29.3234 16.1881 28.8583 15.413 27.3081Z" fill="white"/>
<path fill-rule="evenodd" clip-rule="evenodd" d="M29.9079 35.292C32.4658 34.0518 34.7137 30.0211 34.7137 26.7656C34.7137 23.8201 33.0084 22.6574 30.683 22.3474C31.0706 21.9598 31.3806 21.4172 31.6132 20.7971L34.7912 21.6498C34.7912 21.6498 37.1166 27.4632 40.2946 30.4862C41.8448 31.959 39.907 32.7341 38.9769 33.9743C37.1166 36.3772 34.3261 37.6949 32.0782 38.47C29.9854 39.1676 29.8304 40.0203 29.9079 37.9274C29.9079 36.9198 29.9079 35.9896 29.9079 35.292Z" fill="white"/>
<path fill-rule="evenodd" clip-rule="evenodd" d="M28.3577 39.0902C26.4198 38.3926 22.4667 36.4548 19.1336 32.8117C17.1958 30.7189 18.2035 31.1839 19.7537 29.3236C21.3815 27.3858 22.6992 24.8279 23.4744 23.2777C24.172 21.7274 23.9394 21.7274 25.4897 21.3398L27.2725 20.8748C27.5825 21.5724 27.8926 22.115 28.2801 22.5025C26.1098 22.8126 24.5595 23.9753 24.5595 26.8432C24.5595 30.0213 26.6524 33.8194 29.0553 35.2146C29.1328 36.3773 28.9002 37.85 28.3577 39.0902Z" fill="white"/>
<path fill-rule="evenodd" clip-rule="evenodd" d="M6.49909 46.0661C6.34406 46.0661 6.18903 46.0661 6.03401 46.0661C6.03401 45.291 6.18903 45.136 5.41391 45.136C5.18137 45.136 5.02634 45.136 4.79381 45.136C3.86365 45.136 4.09619 45.136 4.09619 46.0661C3.94116 46.0661 3.70863 46.0661 3.5536 46.0661C-0.477062 46.0661 -0.709599 55.1351 3.47609 55.1351C3.63111 55.1351 3.86365 55.1351 4.01868 55.1351C4.01868 55.8327 3.78614 56.0653 4.48375 56.0653C4.7938 56.0653 4.94883 56.0653 5.25888 56.0653C6.18903 56.0653 5.9565 56.0653 5.9565 55.1351C6.11152 55.1351 6.26655 55.1351 6.42157 55.1351C10.7623 55.1351 10.6073 46.0661 6.49909 46.0661ZM6.42157 53.3523C6.26655 53.3523 6.11152 53.3523 5.9565 53.3523C5.9565 51.6471 6.03401 49.5542 6.03401 47.8489C6.18903 47.8489 6.34406 47.8489 6.49909 47.8489C8.04934 47.7714 8.20437 53.2748 6.42157 53.3523ZM4.01868 53.3523C3.86365 53.3523 3.70863 53.3523 3.5536 53.3523C1.92583 53.3523 2.23589 47.8489 3.63111 47.8489C4.32873 47.8489 4.09619 48.004 4.09619 48.6241C4.01868 50.0968 4.01868 51.8796 4.01868 53.3523ZM21.9241 54.8251C21.7691 52.1121 21.7691 49.2442 21.9241 46.2987C22.0016 45.2135 21.8466 45.446 20.8389 45.446C19.8313 45.446 18.7461 45.446 17.5834 45.446C17.1183 45.7561 16.7308 45.9111 16.5757 46.7638C16.6533 48.8566 16.8858 51.4145 16.4207 53.4298C16.3432 53.8174 16.1107 54.1275 15.8781 54.0499C15.0255 53.9724 14.3279 56.0653 15.7231 56.0653C17.8159 56.0653 18.436 54.515 18.5136 52.1896C18.5911 50.5619 18.5911 48.9341 18.5911 47.3063C19.9088 47.3063 20.0638 46.9963 20.0638 48.2365C20.0638 50.5619 19.9088 52.9648 19.9088 55.2901C19.9088 56.2203 19.8313 56.1428 20.6839 56.1428C22.0016 56.0653 22.0016 56.2203 21.9241 54.8251ZM34.2486 53.9724C33.7061 51.647 33.1635 49.3217 32.6209 47.0738C32.3108 45.7561 32.5434 45.5235 31.1481 45.5235C30.218 45.5235 30.4505 45.9111 30.218 46.8413C30.063 47.6939 29.2878 50.9494 28.7452 53.2748C28.3577 55.1351 28.0476 56.1428 28.8228 56.1428C30.063 56.2203 30.1405 56.4528 30.1405 55.2901C30.1405 54.9801 30.218 54.7476 30.2955 54.4375C30.9931 54.4375 31.7682 54.4375 32.4659 54.4375C32.5434 54.7476 32.5434 54.9801 32.6209 55.2901C32.7759 56.2203 32.6984 56.1428 33.7061 56.1428C35.3338 56.0653 34.5587 55.2901 34.2486 53.9724ZM32.1558 52.8097C31.6907 52.8097 31.1481 52.8097 30.6831 52.8097L31.2256 50.0968C31.3032 49.7092 31.3032 49.3217 31.3807 48.9341C31.4582 49.3217 31.5357 49.7092 31.6132 50.0968C31.7682 51.0269 31.9233 51.8796 32.1558 52.8097ZM46.5732 53.4298C46.4957 51.4145 46.4957 49.3217 46.5732 47.1513C46.5732 45.8336 46.9607 45.446 45.5655 45.446C44.0153 45.446 44.6353 46.4537 44.6353 47.8489C44.6353 48.5465 44.6353 49.1666 44.6353 49.7867C44.0152 49.7867 43.3951 49.7867 42.775 49.7867C42.775 48.3915 42.775 47.0738 42.775 45.6786C42.775 45.2135 42.31 45.3685 41.8449 45.3685C40.4497 45.3685 40.7597 45.6786 40.8372 46.9963C40.9922 49.4767 40.9923 51.8796 40.9147 54.2825C40.9147 55.7552 40.4497 55.9878 41.9999 55.9878C43.3176 55.9878 42.8526 55.2901 42.8526 54.0499C42.8526 53.1973 42.8526 52.3447 42.8526 51.5695C43.4727 51.5695 44.0928 51.5695 44.7129 51.5695C44.7129 52.5772 44.7129 53.5849 44.7129 54.5925C44.7129 55.9102 44.4028 55.9878 45.643 55.9878C47.1933 56.0653 46.6507 54.9026 46.5732 53.4298ZM58.4326 46.3762C58.4326 45.291 58.3551 45.446 57.2699 45.446C56.1847 45.446 54.9445 45.446 53.7819 45.446C52.6967 45.446 52.8517 45.291 52.6967 46.3762C52.4641 47.8489 53.0842 47.3063 54.557 47.3063C54.6345 48.9341 54.6345 50.6394 54.557 52.5772C54.402 54.4375 54.0919 56.4528 55.5646 56.2978C57.1924 56.1428 56.4948 55.2901 56.4948 53.5849C56.4948 51.492 56.4948 49.4767 56.4948 47.3839C57.89 47.2288 58.4326 47.6939 58.4326 46.3762Z" fill="white"/>

</svg>
