<svg width="20" height="20" viewBox="0 0 20 20" fill="none" xmlns="http://www.w3.org/2000/svg">
<g clip-path="url(#clip0_1_24)">
<path d="M19.6 10.2273C19.6 9.51819 19.5364 8.83637 19.4182 8.18182H10V12.05H15.3818C15.15 13.3 14.4455 14.3591 13.3864 15.0682V17.5773H16.6182C18.5091 15.8364 19.6 13.2727 19.6 10.2273Z" fill="#4285F4"/>
<path d="M9.99999 20C12.7 20 14.9636 19.1045 16.6182 17.5773L13.3864 15.0682C12.4909 15.6682 11.3454 16.0227 9.99999 16.0227C7.39545 16.0227 5.1909 14.2636 4.40454 11.9H1.06363V14.4909C2.70908 17.7591 6.0909 20 9.99999 20Z" fill="#34A853"/>
<path d="M4.40455 11.9C4.20455 11.3 4.09091 10.6591 4.09091 10C4.09091 9.34091 4.20455 8.7 4.40455 8.1V5.50909H1.06364C0.386364 6.85909 0 8.38637 0 10C0 11.6136 0.386364 13.1409 1.06364 14.4909L4.40455 11.9Z" fill="#FBBC05"/>
<path d="M9.99999 3.97727C11.4682 3.97727 12.7864 4.48182 13.8227 5.47273L16.6909 2.60455C14.9591 0.990909 12.6954 0 9.99999 0C6.0909 0 2.70908 2.24091 1.06363 5.50909L4.40454 8.1C5.1909 5.73636 7.39545 3.97727 9.99999 3.97727Z" fill="#EA4335"/>
</g>
<defs>
<clipPath id="clip0_1_24">
<rect width="20" height="20" fill="white"/>
</clipPath>
</defs>
</svg>