<svg width="35" height="31" xmlns="http://www.w3.org/2000/svg"><path d="M18.509 20.322c0-.193.001-.308.257-.386.898-.276 1.786-.58 2.687-.85.694-.207 1.368-.481 2.062-.692.657-.199 1.315-.391 1.963-.62.162-.056.2.035.193.175-.024.46-.054 6.864-.05 9.45 0 .262-.016.43-.348.53-.734.22-1.46.472-2.19.709-.93.301-1.847.641-2.776.943-.49.16-.975.331-1.458.512-.326.122-.338.099-.339-.253 0-1.586.001-7.932-.001-9.518zm-1.606 4.776v4.758c0 .326-.032.35-.324.237-1.081-.42-5.494-1.85-6.596-2.21-.122-.04-.165-.119-.18-.221-.014-.101-.008-.206-.008-.309l-.003-9.35c0-.12.116-.206.23-.17l5.98 1.887c.262.083.521.172.784.25.182.054.114.2.114.307.005 1.607.003 3.214.003 4.82zm8.84-14.56v4.634c0 .083.008.167-.006.247-.023.13-.038.198-.233.13-1.131-.402-2.274-.77-3.411-1.152-1.07-.36-2.136-.736-3.213-1.077-.238-.075-.238-.205-.238-.386-.001-2.214-.005-4.428-.008-6.643V3.45c0-.176-.04-.294.254-.196.89.295 1.785.573 2.675.87 1.092.363 2.202.673 3.296 1.031.19.062.387.142.577.186.292.067.309.238.308.47-.003 1.576-.001 3.152-.001 4.728zM.956 3.4c0-.107.104-.183.206-.151 1.102.35 6.263 1.992 6.746 2.138.099.03.129.103.142.18.017.101.014.205.014.308v9.388c-.005.348-.03.364-.353.251-1.17-.406-2.338-.82-3.511-1.215a160.056 160.056 0 00-3.08-.997c-.128-.04-.167-.096-.163-.212V3.4zm15.823 4.857v4.697c.001.18.003.31-.236.378-.59.167-1.168.385-1.751.58-.708.236-1.418.468-2.126.703-.66.219-1.321.438-1.981.66-.269.09-.546.165-.799.287-.172.083-.198.015-.213-.118-.008-.071-.003-.144-.003-.216 0-3.12.001-6.242-.002-9.363 0-.262.015-.432.35-.529.882-.255 1.751-.559 2.63-.829.83-.254 1.647-.55 2.472-.817.509-.166 1.024-.312 1.534-.472.186-.058.127.095.129.157.008.433.005.865.005 1.298v3.584h-.01zm17.678.017c0 1.565-.002 3.13.004 4.694 0 .194-.028.306-.247.37-.59.173-1.169.382-1.753.575l-2.096.694c-.67.223-1.34.445-2.008.67-.258.086-.527.155-.768.276-.19.094-.182.002-.186-.124-.002-.072-.001-.144-.001-.216 0-1.256.006-2.512-.002-3.767-.012-1.861-.032-3.722-.053-5.583-.003-.262.018-.417.353-.52 1.022-.31 2.034-.655 3.057-.964.685-.208 1.355-.463 2.036-.684.471-.153.953-.272 1.423-.428.29-.096.25.087.25.252v4.755h-.009zm-17.389 6.537c.42-.128.868-.128 1.289 0 1.409.428 4.709 1.43 5.603 1.705.113.034.113.194 0 .23-1.197.381-4.948 1.579-5.528 1.799-.46.174-.888.211-1.35.041-1.112-.408-4.875-1.592-5.624-1.835-.065-.021-.113-.045-.118-.119-.004-.078.043-.1.11-.12.56-.164 4.134-1.25 5.618-1.7zM25.865.255a2.22 2.22 0 011.289 0c1.409.428 4.709 1.43 5.603 1.705.113.035.113.194 0 .23-1.197.381-4.948 1.579-5.528 1.799-.46.175-.888.211-1.35.042-1.112-.409-4.875-1.593-5.624-1.836-.066-.021-.113-.045-.118-.119-.004-.077.043-.1.11-.12.56-.164 4.134-1.25 5.618-1.7zM8.28.255a2.223 2.223 0 011.29 0c1.408.428 4.708 1.43 5.602 1.705a.12.12 0 01.001.23c-1.198.381-4.948 1.579-5.529 1.799-.46.175-.887.211-1.35.042-1.11-.409-4.874-1.593-5.624-1.836-.065-.021-.113-.045-.117-.119-.005-.077.043-.1.11-.12.56-.164 4.134-1.25 5.618-1.7z" fill="#F3BF46"/></svg>