<svg width="19" height="10" xmlns="http://www.w3.org/2000/svg" xmlns:xlink="http://www.w3.org/1999/xlink"><defs><path id="a" d="M0 0h19v10.533H0z"/><path id="c" d="M0 66h51V0H0z"/><path id="e" d="M0 66h51V0H0z"/><path id="g" d="M0 5.244h7.358V.063H.001z"/><path id="i" d="M0 66h51V0H0z"/><path id="k" d="M0 66h51V0H0z"/><path id="m" d="M0 66h51V0H0z"/><path id="o" d="M0 66h51V0H0z"/><path id="q" d="M.017 3.865h3.825V.043H.017z"/><path id="s" d="M0 66h51V0H0z"/><path id="u" d="M.034 5.182h17.7V.031H.034z"/><path id="w" d="M0 66h51V0H0z"/><path id="y" d="M.043 6.22h16.615V.07H.043z"/></defs><g fill="none" fill-rule="evenodd"><mask id="b" fill="#fff"><use xlink:href="#a"/></mask><g mask="url(#b)"><g transform="matrix(1 0 0 -1 -2.57 61.329)"><mask id="d" fill="#fff"><use xlink:href="#c"/></mask><g mask="url(#d)"><path d="M17.573 57.54c.132-1.537-2.288-3-5.405-3.268-3.117-.268-5.75.762-5.882 2.3-.132 1.538 2.288 3.001 5.405 3.269 3.117.267 5.75-.763 5.882-2.3" fill="#BBE6FB" fill-rule="nonzero"/></g></g><g transform="matrix(1 0 0 -1 -2.57 61.329)"><mask id="f" fill="#fff"><use xlink:href="#e"/></mask><g mask="url(#f)"><g transform="translate(8 54.417)"><mask id="h" fill="#fff"><use xlink:href="#g"/></mask><g opacity=".35" mask="url(#h)"><path d="M3.782 5.244c-1.189.019-2.58-.453-3.616-.895a2.99 2.99 0 01-.165-.983C0 1.542 1.648.063 3.679.063c2.032 0 3.68 1.479 3.68 3.303 0 .577-.166 1.12-.456 1.591-.828.13-1.967.268-3.121.287" fill="#FFF" fill-rule="nonzero"/></g></g></g></g><g transform="matrix(1 0 0 -1 -2.57 61.329)"><mask id="j" fill="#fff"><use xlink:href="#i"/></mask><g mask="url(#j)"><path d="M11.68 59.66c-.659.04-1.793-.303-2.74-.645a2.812 2.812 0 01-.223-1.1c0-1.598 1.449-2.894 2.982-2.894 1.522 0 2.87 1.298 2.982 2.894.036.52-.143 1.01-.391 1.431-.981.173-2.022.279-2.61.315" fill="#FFF" fill-rule="nonzero"/></g></g><g transform="matrix(1 0 0 -1 -2.57 61.329)"><mask id="l" fill="#fff"><use xlink:href="#k"/></mask><g mask="url(#l)" fill="#373535" fill-rule="nonzero"><path d="M9.99 58.125c.08.178.203.266.322.416a.929.929 0 00-.042.192.326.326 0 00.445.302 2.372 2.372 0 002.153.378c-.705.098-1.499-.151-2.039-.587a.801.801 0 00.062-.195c0-.18-.116-.224-.296-.224-.04 0-.08.008-.116.022a3.297 3.297 0 01-.344-.671c.298-.267.568-.364.92-.496-.001.017.012.033.012.05 0 .542.477.982 1.019.982a.98.98 0 00.966-.816c.243.154.477.272.656.5a.576.576 0 00-.087.266.295.295 0 00.362.287c.09.186.16.384.203.587-.847.628-2.487.542-2.487.542s-1.305.068-2.188-.362a2.6 2.6 0 01.48-1.173"/><path d="M14.04 58.369a.546.546 0 00.12-.148c.078-.142-.08-.272-.244-.272a.292.292 0 00-.048.004c-.184-.287-.506-.655-.792-.84a2.489 2.489 0 001.181-.52c.24.43.424 1.05.424 1.577 0 .4-.177.694-.444.91-.014-.215-.129-.515-.196-.711m-3.559-2.719c.146.404.505.716.845.991-.05.068-.124.237-.155.317a2.379 2.379 0 00-1.066.674l-.007-.027a2.156 2.156 0 01-.037-.715.428.428 0 00.35-.42c0-.124-.11-.304-.194-.382a2.01 2.01 0 01.264-.438"/><path d="M10.456 55.312c-.174.173-.294.518-.408.735a.427.427 0 00-.065-.005c-.236 0-.483.198-.427.428.03.127.118.21.261.28-.033.262-.041.64.02.914.017.078.054.115.079.19-.26.38-.43.882-.43 1.379l.002.054c-.44-.221-.771-.57-.771-1.117 0-1.213.698-2.402 1.737-2.868l.002.01m2.554 1.676a.98.98 0 00-1.53-.446c-.344-.268-.656-.739-.814-1.147.071-.076.12-.14.2-.207.241-.063.572 0 .833 0 1.047 0 1.975.466 2.507 1.283-.354.245-.77.478-1.195.517"/></g></g><g transform="matrix(1 0 0 -1 -2.57 61.329)"><mask id="n" fill="#fff"><use xlink:href="#m"/></mask><g mask="url(#n)" fill="#1287B1" fill-rule="nonzero"><path d="M9.963 57.983c.081.179.182.344.3.494a.326.326 0 00.425.416 2.372 2.372 0 002.153.379 2.61 2.61 0 01-1.973-.555.326.326 0 00-.416-.43 2.191 2.191 0 01-.294-.54c.256-.276.57-.495.922-.626l-.002.05a.981.981 0 001.947.165c.243.154.458.352.637.58a.295.295 0 00.295.473c.09.187.158.384.202.588-.847.627-2.487.542-2.487.542s-1.305.068-2.188-.363a2.6 2.6 0 01.48-1.173"/><path d="M14.087 58.32a.296.296 0 00-.246-.509 2.39 2.39 0 00-.713-.717c.422-.066.82-.245 1.15-.516.239.429.376.923.376 1.45 0 .4-.177.694-.444.91a2.376 2.376 0 00-.123-.617m-3.56-2.768c.146.404.4.766.74 1.04a.98.98 0 00-.122.223 2.378 2.378 0 00-1.066.675l-.007-.027a2.152 2.152 0 01-.036-.716.428.428 0 00.21-.734c.077-.162.171-.317.281-.46"/><path d="M10.455 55.317c-.174.173-.32.372-.433.589a.428.428 0 00-.251.807 2.372 2.372 0 00.102 1.038c-.26.382-.413.843-.413 1.34l.001.054c-.44-.22-.771-.57-.771-1.117a2.98 2.98 0 011.763-2.721l.002.01m2.529 1.529a.98.98 0 00-1.53-.446 2.43 2.43 0 01-.762-1.041c.07-.077.147-.149.226-.217a2.986 2.986 0 013.254 1.262 2.5 2.5 0 01-1.188.442"/></g></g><g transform="matrix(1 0 0 -1 -2.57 61.329)"><mask id="p" fill="#fff"><use xlink:href="#o"/></mask><g mask="url(#p)"><g transform="translate(10.083 55.167)"><mask id="r" fill="#fff"><use xlink:href="#q"/></mask><g mask="url(#r)"><path fill="#FFF" fill-rule="nonzero" d="M2.935 1.932l.907.216-.91.047.74.566-.84-.301.571.791-.789-.524.276.926-.542-.763-.012.965-.356-.86-.297.87.016-1.025-.514.919.278-.976-.833.606.652-.82-1.034.38.816-.603-1.046-.032 1.07-.277-1.071-.231 1.057-.077-.891-.57.918.332L.464.684l.805.65L.979.25l.621.88L1.513.09l.353.944.3-.992.073.995.446-.849-.264.97.816-.632-.526.806.895-.348-.685.672.918-.072z"/></g></g></g></g><g transform="matrix(1 0 0 -1 -2.57 61.329)"><mask id="t" fill="#fff"><use xlink:href="#s"/></mask><g mask="url(#t)"><g transform="translate(3.333 55.333)"><mask id="v" fill="#fff"><use xlink:href="#u"/></mask><g opacity=".35" mask="url(#v)" fill-rule="nonzero" fill="#373535"><path d="M.034.03C2.845 2.843 5.09 3.71 7.129 4.108c.27.052.32.641.32.641s.038-.434.227-.49c.189-.057.434.68.434.68s-.226-.661 0-.7c.226-.037.642.642.642.642s-.17-.584-.057-.622c.113-.038.68.849.68.849s-.34-.585-.02-.642c.321-.056.79.4.79.4s-.369-.418-.205-.475c.699-.246 1.264.662 1.264.662s-.131-.398-.471-.832c.736-.189 1.282.92 1.282.92L11.47 4.03c.283-.15 1.415 1.151 1.415 1.151s-.585-1.019-.924-1.226c.188-.151.868.453.868.453s-.548-.68-.34-.717c.302-.246 1.415 1.264 1.415 1.264s-.434-.887-1.075-1.585c.536-.268 1.868 1.453 1.868 1.453s-.038-.547-1-1.415c.717.094 1.641 1.453 1.641 1.453s-.34-1.02-1.15-1.736c.703.073 1.83 1.811 1.83 1.811s-.434-1.208-1.321-1.906c.98-.217 2.396 1.246 2.396 1.246s-.556-1.038-1.283-1.463c.811-.311 1.925.972 1.925.972s-1.114-1.717-2.887-1.642c-.582.025-2.343 1.766-6.114 1.623C3.75 3.578 2.694 1.465.033.031"/></g></g><path d="M3.482 55.578c2.812 2.811 5.057 3.68 7.095 4.076.27.052.321.641.321.641s.038-.434.227-.49c.188-.057.434.679.434.679s-.227-.66 0-.698c.226-.038.641.641.641.641s-.17-.585-.057-.622c.114-.038.68.849.68.849s-.34-.585-.02-.642c.322-.057.79.4.79.4s-.368-.418-.204-.475c.698-.246 1.263.662 1.263.662s-.131-.398-.47-.832c.735-.189 1.282.92 1.282.92l-.547-1.109c.283-.15 1.416 1.151 1.416 1.151s-.585-1.019-.925-1.226c.189-.151.868.452.868.452s-.547-.679-.34-.717c.302-.245 1.416 1.265 1.416 1.265s-.434-.887-1.076-1.585c.536-.269 1.868 1.453 1.868 1.453s-.037-.548-1-1.416c.717.095 1.642 1.453 1.642 1.453s-.34-1.019-1.151-1.736c.704.074 1.83 1.812 1.83 1.812s-.434-1.208-1.32-1.906c.98-.217 2.396 1.245 2.396 1.245s-.557-1.037-1.283-1.462c.811-.311 1.924.972 1.924.972s-1.113-1.717-2.887-1.642c-.582.025-2.342 1.766-6.114 1.623-4.981-.189-6.038-2.302-8.699-3.736" fill="#373535" fill-rule="nonzero"/></g></g><g transform="matrix(1 0 0 -1 -2.57 61.329)"><mask id="x" fill="#fff"><use xlink:href="#w"/></mask><g mask="url(#x)"><g transform="translate(3.25 51.167)"><mask id="z" fill="#fff"><use xlink:href="#y"/></mask><g opacity=".35" mask="url(#z)" fill-rule="nonzero" fill="#373535"><path d="M.043 3.89c1.486-.745 2.845.113 4.557-.37 1.302-.366 2.888-.819 5.039-.507 2.15.31 3.99 1.245 4.868 2.915.274.745 1.387-.17 1.387-.17s-.811.34-.792.18c.019-.161 1.217-.718 1.217-.718s-1.085.34-1.02.085c.067-.254 1.36-1.273 1.36-1.273s-1.463 1.113-1.586.962c-.122-.151.623-.764.623-.764s-1.236.764-1.67.539c-.312-.162 1.283-1.21 1.283-1.21s-1.038.793-1.283.586c-.245-.208 1.17-1.906 1.17-1.906s-1.604 1.736-1.764 1.651c-.16-.085.443-.915.443-.915s-.793.868-1.01.717c-.216-.151 1.133-2.406 1.133-2.406S12.535 3.597 11.93 3.21c.949-2.08.595-2.378.595-2.378s-.121 2.123-1.302 2.066c-.595-.028.283-1.585.283-1.585s-.808 1.422-1.346 1.394c.992-1.876.638-2.64.638-2.64s.164 1.603-1.18 2.495c.51-.453-.32-2.494-.32-2.494s.73 3.007-.538 2.434c-.2-.09-.014-1.5-.014-1.5S8.492 2.616 8.11 2.53C7.888 2.481 6.695.295 6.695.295s.977 2.364.68 2.265c-.217-.073-.623-1.048-.623-1.048s.198.963 0 1.02c-.198.056-1.302-1.02-1.302-1.02s.82.963.679 1.16c-.215.301-.466.315-.764.199-.434-.17-1.02-.962-1.02-.962s.584.803.482 1.104c-.164.483-1.84-.934-1.84-.934s.99.934.764 1.132c-.226.198-1.456.137-1.84.138C.78 3.352.387 3.618.043 3.89"/></g></g><path d="M3.237 55.227c1.486-.746 2.844.113 4.557-.37 1.302-.367 2.887-.82 5.038-.508 2.151.311 3.991 1.246 4.869 2.915.273.746 1.386-.17 1.386-.17s-.81.34-.792.18c.019-.16 1.217-.717 1.217-.717s-1.085.34-1.019.085c.066-.255 1.359-1.274 1.359-1.274s-1.463 1.113-1.585.962c-.123-.15.622-.764.622-.764s-1.236.764-1.67.54c-.312-.163 1.284-1.21 1.284-1.21s-1.038.793-1.284.585c-.245-.207 1.17-1.906 1.17-1.906s-1.604 1.736-1.764 1.652c-.16-.085.443-.916.443-.916s-.792.868-1.01.717c-.216-.15 1.133-2.406 1.133-2.406s-1.462 2.312-2.066 1.925c.948-2.08.594-2.377.594-2.377s-.12 2.122-1.302 2.066c-.594-.029.283-1.585.283-1.585s-.807 1.422-1.345 1.393c.991-1.876.638-2.639.638-2.639s.164 1.603-1.18 2.494c.509-.453-.32-2.494-.32-2.494s.729 3.008-.538 2.435c-.2-.091-.014-1.5-.014-1.5s-.255 1.613-.637 1.528c-.223-.05-1.416-2.236-1.416-2.236s.977 2.363.68 2.264c-.217-.072-.623-1.047-.623-1.047s.198.962 0 1.019c-.198.056-1.302-1.02-1.302-1.02s.82.963.68 1.161c-.215.3-.467.315-.765.198-.434-.169-1.019-.962-1.019-.962s.583.803.481 1.104c-.163.483-1.84-.934-1.84-.934s.991.934.765 1.132c-.227.198-1.456.137-1.84.138-1.132.004-1.525.27-1.868.542" fill="#373535" fill-rule="nonzero"/></g></g></g></g></svg>