<svg xmlns="http://www.w3.org/2000/svg" id="svg30" width="500" height="500"><style id="style2"/><path d="M405.365 303.996c0 20.375-11.207 30.563-31.582 31.582H125.199c-20.376 0-31.583-10.188-31.583-31.582 0-20.376 11.207-30.564 31.583-31.583H374.8c20.376 1.019 30.564 11.207 30.564 31.583zM374.8 350.86H125.2c-20.376 0-31.583 10.188-31.583 31.582 0 20.376 11.207 30.564 31.583 31.583h249.6c20.376 0 31.583-10.188 31.583-31.583-1.02-21.394-11.207-31.582-31.583-31.582zm77.428-172.175c-20.376 0-31.582 10.188-31.582 30.563v172.175c0 20.376 11.206 30.564 31.582 31.583 30.564-1.019 46.864-31.583 46.864-93.729V241.85c0-41.77-16.3-62.146-46.864-63.165zm-404.458 0C17.207 179.704.907 200.079.907 241.85v77.427c0 62.146 16.3 92.71 46.864 93.729 20.376 0 31.582-10.188 31.582-31.583V210.267c-1.019-20.375-11.206-30.563-31.582-31.582zm404.458-15.282c0-51.958-27.507-76.409-77.428-77.428H125.2c-50.94 1.02-77.428 26.489-77.428 77.428 30.563 0 46.864 16.3 46.864 46.864 0 30.564 16.3 46.864 46.864 46.864h218.02c30.564 0 46.865-16.3 46.865-46.864-1.02-31.582 16.3-45.845 45.845-46.864z" id="path28" fill="#e42528" stroke-width="10.188"/></svg>