<svg width="26" height="22" xmlns="http://www.w3.org/2000/svg"><g fill="none" fill-rule="evenodd"><path fill="#DE5626" d="M12.583 10.897l1.881 3.259h-3.763z"/><path fill="#EFB8A6" d="M14.464 7.638l1.882 3.259h-3.763zm-3.763 0l1.882 3.259H8.82z"/><path fill="#EB977D" d="M12.583 10.897h3.763l-1.882 3.259zm-3.763 0h3.763L10.7 14.156z"/><path fill="#F6DBD2" d="M10.701 7.638h3.763l-1.881 3.259z"/><path fill="#AB3D24" d="M9.437 5.448h6.291L12.583 0zm-3.146 5.449l3.146 5.448H3.146zm6.292 10.897h6.291l-3.146-5.449z"/><path fill="#E5E5E4" d="M15.728 5.448h6.292L18.874 0z"/><path fill="#CCC" d="M18.874 10.897h6.291L22.02 5.448z"/><path fill="#AB3D24" d="M0 10.897h6.291L3.146 5.448z"/><path fill="#DE5626" d="M9.437 16.345l3.146 5.449 3.145-5.449z"/><path fill="#626363" d="M15.728 16.345l3.146 5.449 3.146-5.449z"/><path fill="#712A14" d="M0 10.897l3.146 5.448 3.145-5.448z"/><path fill="#DE5626" d="M12.583 0l3.145 5.448L18.874 0z"/><path fill="#B3B3B4" d="M15.728 5.448h6.292l-3.146 5.449z"/><path fill="#828282" d="M18.874 10.897l-3.146 5.448h6.292l3.145-5.448z"/><path fill="#712A14" d="M3.146 16.345l3.145 5.449h6.292l-3.146-5.449z"/><path fill="#DE5626" d="M6.291 0L3.146 5.448l3.145 5.449L12.583 0z"/></g></svg>