<svg width="19" height="19" xmlns="http://www.w3.org/2000/svg"><g fill="none"><path d="M18.997 9.974a3.738 3.738 0 00-2.466-3.52c.063-.337.094-.68.093-1.023A5.367 5.367 0 0011.26.065a5.322 5.322 0 00-4.343 2.233 2.856 2.856 0 00-4.59 2.264c0 .341.062.683.17.993A3.73 3.73 0 000 9.075c0 1.597.993 2.993 2.481 3.536a5.467 5.467 0 00-.093 1.023 5.36 5.36 0 005.35 5.35 5.342 5.342 0 004.343-2.233 2.858 2.858 0 001.752.605 2.856 2.856 0 002.853-2.853 3.05 3.05 0 00-.17-.993 3.794 3.794 0 002.481-3.536z" fill="#FFF"/><path d="M7.428 8.191l4.234 1.939 4.28-3.753A4.778 4.778 0 0011.259.655a4.75 4.75 0 00-3.94 2.077l-.713 3.691.822 1.768z" fill="#F4BD19"/><path d="M3.04 12.673a4.805 4.805 0 004.699 5.753 4.82 4.82 0 003.97-2.093l.697-3.691-.946-1.8-4.249-1.938-4.172 3.769z" fill="#3CBEB1"/><path d="M3.009 5.338l2.9.682.65-3.303a2.257 2.257 0 00-1.395-.465 2.3 2.3 0 00-2.156 3.086z" fill="#E9478C"/><path d="M2.76 6.035C1.458 6.455.558 7.71.558 9.075c0 1.334.822 2.528 2.063 2.993l4.078-3.69-.744-1.598-3.195-.744z" fill="#2C458F"/><path d="M12.453 16.317c.403.31.884.48 1.38.48a2.3 2.3 0 002.155-3.085l-2.9-.682-.635 3.287z" fill="#95C63D"/><path d="M13.042 12.27l3.195.744a3.234 3.234 0 002.202-3.04 3.207 3.207 0 00-2.063-2.992l-4.187 3.66.853 1.628z" fill="#176655"/></g></svg>