<svg xmlns="http://www.w3.org/2000/svg" width="235" height="225" viewBox="189.5 283.5 235 225"><g fill="#419EDA"><path d="M296.544 384.038c0 8.063-6.533 14.585-14.585 14.585-8.058 0-14.573-6.521-14.573-14.585 0-8.029 6.516-14.576 14.573-14.576 8.052 0 14.585 6.547 14.585 14.576zm18.846 0c0 8.063 6.534 14.585 14.586 14.585 8.05 0 14.577-6.521 14.577-14.585 0-8.032-6.527-14.579-14.577-14.579-8.052 0-14.586 6.547-14.586 14.579z"/><path d="M414.636 399.847c-1.05.088-2.105.129-3.226.129a41.982 41.982 0 01-18.504-4.318 171.222 171.222 0 002.49-32.735 170.02 170.02 0 00-21.185-25.107c3.454-6.476 8.56-12.048 14.934-15.999l2.737-1.692-2.133-2.405c-10.988-12.373-24.102-21.939-38.97-28.43l-2.965-1.29-.753 3.134c-1.773 7.304-5.479 13.893-10.567 19.181a169.296 169.296 0 00-30.53-12.581 169.444 169.444 0 00-30.483 12.554c-5.067-5.281-8.764-11.854-10.53-19.137l-.758-3.133-2.954 1.284c-14.681 6.397-28.156 16.222-38.964 28.411l-2.139 2.41 2.734 1.692c6.354 3.936 11.446 9.475 14.894 15.916a170.757 170.757 0 00-21.148 25.009c-.24 10.907.525 21.939 2.429 32.96a41.896 41.896 0 01-18.398 4.275c-1.134 0-2.195-.041-3.226-.127l-3.212-.245.301 3.207c1.574 16.225 6.612 31.657 14.982 45.872l1.634 2.774 2.453-2.082a41.956 41.956 0 0119.858-9.302 170.185 170.185 0 0016.996 27.683c10.33 3.613 21.093 6.31 32.208 7.915 1.066 7.351.217 14.954-2.683 21.984l-1.223 2.979 3.145.692c8.053 1.771 16.177 2.673 24.132 2.673l24.125-2.673 3.148-.692-1.226-2.985c-2.892-7.03-3.741-14.642-2.675-21.994 11.071-1.606 21.794-4.297 32.086-7.899a170.401 170.401 0 0017.015-27.709 42.144 42.144 0 0119.955 9.31l2.453 2.079 1.626-2.767c8.385-14.233 13.422-29.664 14.972-45.863l.301-3.201-3.156.243zm-74.146 39.211c-11.413 3.104-23.004 4.671-34.526 4.671-11.553 0-23.13-1.566-34.553-4.671a133.848 133.848 0 01-14.788-31.153c-3.551-10.932-5.629-22.385-6.232-34.178 7.377-9.121 15.766-17.111 25.035-23.837a133.295 133.295 0 0130.538-16.604 133.837 133.837 0 0130.479 16.568c9.305 6.762 17.731 14.814 25.144 23.992-.632 11.726-2.735 23.113-6.292 34.027a133.422 133.422 0 01-14.805 31.185z"/></g></svg>