<?xml version="1.0" encoding="UTF-8" standalone="no"?>
<!-- Generator: Adobe Illustrator 21.0.0, SVG Export Plug-In . SVG Version: 6.00 Build 0)  -->

<svg
   version="1.1"
   id="Layer_1"
   x="0px"
   y="0px"
   viewBox="0 0 103.7 112.69999"
   xml:space="preserve"
   sodipodi:docname="grafana.svg"
   width="103.7"
   height="112.7"
   inkscape:version="1.2.2 (b0a8486541, 2022-12-01)"
   xmlns:inkscape="http://www.inkscape.org/namespaces/inkscape"
   xmlns:sodipodi="http://sodipodi.sourceforge.net/DTD/sodipodi-0.dtd"
   xmlns="http://www.w3.org/2000/svg"
   xmlns:svg="http://www.w3.org/2000/svg"><defs
   id="defs30" /><sodipodi:namedview
   id="namedview28"
   pagecolor="#ffffff"
   bordercolor="#666666"
   borderopacity="1.0"
   inkscape:showpageshadow="2"
   inkscape:pageopacity="0.0"
   inkscape:pagecheckerboard="0"
   inkscape:deskcolor="#d1d1d1"
   showgrid="false"
   inkscape:zoom="6.8818678"
   inkscape:cx="51.730142"
   inkscape:cy="73.017967"
   inkscape:window-width="2560"
   inkscape:window-height="1376"
   inkscape:window-x="0"
   inkscape:window-y="0"
   inkscape:window-maximized="1"
   inkscape:current-layer="Layer_1" />
<style
   type="text/css"
   id="style2">
	.st0{fill:#565656;}
	.st1{fill:url(#SVGID_1_);}
</style>

<linearGradient
   id="SVGID_1_"
   gradientUnits="userSpaceOnUse"
   x1="71.25"
   y1="10.4893"
   x2="71.25"
   y2="113.3415"
   gradientTransform="matrix(1,0,0,-1,-19.4,148.6)">
	<stop
   offset="0"
   style="stop-color:#FCEE1F"
   id="stop20" />
	<stop
   offset="1"
   style="stop-color:#F15B2A"
   id="stop22" />
</linearGradient>
<path
   class="st1"
   d="M 103.5,49.9 C 103.3,48 103,45.8 102.4,43.4 101.8,41 100.8,38.4 99.5,35.6 98.1,32.9 96.4,30 94.1,27.3 93.2,26.2 92.2,25.2 91.2,24.1 92.8,17.8 89.3,12.3 89.3,12.3 83.2,11.9 79.4,14.2 78,15.2 77.8,15.1 77.5,15 77.3,14.9 76.3,14.5 75.2,14.1 74.1,13.7 73,13.4 71.9,13 70.8,12.8 69.7,12.5 68.5,12.3 67.3,12.1 67.1,12.1 66.9,12 66.7,12 64.1,3.6 56.5,0 56.5,0 47.8,5.6 46.1,13.1 46.1,13.1 c 0,0 0,0.2 -0.1,0.4 -0.5,0.1 -0.9,0.3 -1.4,0.4 -0.6,0.2 -1.3,0.4 -1.9,0.7 -0.6,0.3 -1.3,0.5 -1.9,0.8 -1.3,0.6 -2.5,1.2 -3.8,1.9 -1.2,0.7 -2.4,1.4 -3.5,2.2 -0.2,-0.1 -0.3,-0.2 -0.3,-0.2 -11.7,-4.5 -22.1,0.9 -22.1,0.9 -0.9,12.5 4.7,20.3 5.8,21.7 -0.3,0.8 -0.5,1.5 -0.8,2.3 -0.9,2.8 -1.5,5.7 -1.9,8.7 -0.1,0.4 -0.1,0.9 -0.2,1.3 C 3.2,59.5 0,70.5 0,70.5 c 9,10.4 19.6,11 19.6,11 v 0 c 1.3,2.4 2.9,4.7 4.6,6.8 0.7,0.9 1.5,1.7 2.3,2.6 -3.3,9.4 0.5,17.3 0.5,17.3 10.1,0.4 16.7,-4.4 18.1,-5.5 1,0.3 2,0.6 3,0.9 3.1,0.8 6.3,1.3 9.4,1.4 0.8,0 1.6,0 2.4,0 h 0.4 0.3 0.5 0.5 v 0 c 4.7,6.8 13.1,7.7 13.1,7.7 5.9,-6.3 6.3,-12.4 6.3,-13.8 v 0 c 0,0 0,0 0,-0.1 0,-0.1 0,-0.2 0,-0.2 v 0 c 0,-0.1 0,-0.2 0,-0.3 1.2,-0.9 2.4,-1.8 3.6,-2.8 2.4,-2.1 4.4,-4.6 6.2,-7.2 0.2,-0.2 0.3,-0.5 0.5,-0.7 6.7,0.4 11.4,-4.2 11.4,-4.2 -1.1,-7 -5.1,-10.4 -5.9,-11 v 0 c 0,0 0,0 -0.1,-0.1 l -0.1,-0.1 v 0 l -0.1,-0.1 c 0,-0.4 0.1,-0.8 0.1,-1.3 0.1,-0.8 0.1,-1.5 0.1,-2.3 v -0.6 -0.3 -0.1 c 0,-0.2 0,-0.1 0,-0.2 v -0.5 -0.6 c 0,-0.2 0,-0.4 0,-0.6 0,-0.2 0,-0.4 -0.1,-0.6 L 96.5,64.4 96.4,63.8 C 96.3,63 96.1,62.3 96,61.5 95.3,58.5 94.1,55.6 92.6,53.1 91,50.5 89.1,48.3 86.9,46.3 84.7,44.4 82.3,42.8 79.7,41.7 77.1,40.5 74.5,39.8 71.8,39.5 70.5,39.3 69.1,39.3 67.8,39.3 H 67.3 67.2 67 66.8 66.3 c -0.2,0 -0.4,0 -0.5,0 -0.7,0.1 -1.4,0.2 -2,0.3 -2.7,0.5 -5.2,1.5 -7.4,2.8 -2.2,1.3 -4.1,3 -5.7,4.9 -1.6,1.9 -2.8,3.9 -3.6,6.1 -0.8,2.1 -1.3,4.4 -1.4,6.5 0,0.5 0,1.1 0,1.6 0,0.1 0,0.3 0,0.4 v 0.4 c 0,0.3 0,0.5 0.1,0.8 0.1,1.1 0.3,2.1 0.6,3.1 0.6,2 1.5,3.8 2.7,5.4 1.2,1.6 2.5,2.8 4,3.8 1.5,1 3,1.7 4.6,2.2 1.6,0.5 3.1,0.7 4.5,0.6 0.2,0 0.4,0 0.5,0 0.1,0 0.2,0 0.3,0 0.1,0 0.2,0 0.3,0 0.2,0 0.3,0 0.5,0 h 0.1 0.1 c 0.1,0 0.2,0 0.3,0 0.2,0 0.4,-0.1 0.5,-0.1 0.2,0 0.3,-0.1 0.5,-0.1 0.3,-0.1 0.7,-0.2 1,-0.3 0.6,-0.2 1.2,-0.5 1.8,-0.7 0.6,-0.3 1.1,-0.6 1.5,-0.9 0.1,-0.1 0.3,-0.2 0.4,-0.3 0.5,-0.4 0.6,-1.1 0.2,-1.6 -0.4,-0.4 -1,-0.5 -1.5,-0.3 -0.1,0.1 -0.2,0.1 -0.4,0.2 -0.4,0.2 -0.9,0.4 -1.3,0.5 -0.5,0.1 -1,0.3 -1.5,0.4 -0.3,0 -0.5,0.1 -0.8,0.1 -0.1,0 -0.3,0 -0.4,0 -0.1,0 -0.3,0 -0.4,0 -0.1,0 -0.3,0 -0.4,0 -0.2,0 -0.3,0 -0.5,0 0,0 -0.1,0 0,0 h -0.1 -0.1 c -0.1,0 -0.1,0 -0.2,0 -0.1,0 -0.3,0 -0.4,-0.1 -1.1,-0.2 -2.3,-0.5 -3.4,-1 -1.1,-0.5 -2.2,-1.2 -3.1,-2.1 -1,-0.9 -1.8,-1.9 -2.5,-3.1 -0.7,-1.2 -1.1,-2.5 -1.3,-3.8 -0.1,-0.7 -0.2,-1.4 -0.1,-2.1 0,-0.2 0,-0.4 0,-0.6 0,0.1 0,0 0,0 v -0.1 -0.1 c 0,-0.1 0,-0.2 0,-0.3 0,-0.4 0.1,-0.7 0.2,-1.1 0.5,-3 2,-5.9 4.3,-8.1 0.6,-0.6 1.2,-1.1 1.9,-1.5 0.7,-0.5 1.4,-0.9 2.1,-1.2 0.7,-0.3 1.5,-0.6 2.3,-0.8 0.8,-0.2 1.6,-0.4 2.4,-0.4 0.4,0 0.8,-0.1 1.2,-0.1 0.1,0 0.2,0 0.3,0 h 0.3 0.2 c 0.1,0 0,0 0,0 h 0.1 0.3 c 0.9,0.1 1.8,0.2 2.6,0.4 1.7,0.4 3.4,1 5,1.9 3.2,1.8 5.9,4.5 7.5,7.8 0.8,1.6 1.4,3.4 1.7,5.3 0.1,0.5 0.1,0.9 0.2,1.4 v 0.3 0.3 c 0,0.1 0,0.2 0,0.3 0,0.1 0,0.2 0,0.3 v 0.3 0.3 c 0,0.2 0,0.6 0,0.8 0,0.5 -0.1,1 -0.1,1.5 -0.1,0.5 -0.1,1 -0.2,1.5 -0.1,0.5 -0.2,1 -0.3,1.5 -0.2,1 -0.6,1.9 -0.9,2.9 -0.7,1.9 -1.7,3.7 -2.9,5.3 -2.4,3.3 -5.7,6 -9.4,7.7 -1.9,0.8 -3.8,1.5 -5.8,1.8 -1,0.2 -2,0.3 -3,0.3 h -0.2 -0.2 -0.3 -0.5 -0.3 c 0.1,0 0,0 0,0 h -0.1 c -0.5,0 -1.1,0 -1.6,-0.1 -2.2,-0.2 -4.3,-0.6 -6.4,-1.2 -2.1,-0.6 -4.1,-1.4 -6,-2.4 -3.8,-2 -7.2,-4.9 -9.9,-8.2 -1.3,-1.7 -2.5,-3.5 -3.5,-5.4 -1,-1.9 -1.7,-3.9 -2.3,-5.9 -0.6,-2 -0.9,-4.1 -1,-6.2 V 60.7 60.6 60.5 60.3 60 59.9 59.8 59.6 59.1 59 59 58.8 c 0,-0.3 0,-0.5 0,-0.8 0,-1 0.1,-2.1 0.3,-3.2 0.1,-1.1 0.3,-2.1 0.5,-3.2 0.2,-1.1 0.5,-2.1 0.8,-3.2 0.6,-2.1 1.3,-4.1 2.2,-6 1.8,-3.8 4.1,-7.2 6.8,-9.9 0.7,-0.7 1.4,-1.3 2.2,-1.9 0.3,-0.3 1,-0.9 1.8,-1.4 0.8,-0.5 1.6,-1 2.5,-1.4 0.4,-0.2 0.8,-0.4 1.3,-0.6 0.2,-0.1 0.4,-0.2 0.7,-0.3 0.2,-0.1 0.4,-0.2 0.7,-0.3 0.9,-0.4 1.8,-0.7 2.7,-1 0.2,-0.1 0.5,-0.1 0.7,-0.2 0.2,-0.1 0.5,-0.1 0.7,-0.2 0.5,-0.1 0.9,-0.2 1.4,-0.4 0.2,-0.1 0.5,-0.1 0.7,-0.2 0.2,0 0.5,-0.1 0.7,-0.1 0.2,0 0.5,-0.1 0.7,-0.1 l 0.4,-0.1 0.4,-0.1 c 0.2,0 0.5,-0.1 0.7,-0.1 0.3,0 0.5,-0.1 0.8,-0.1 0.2,0 0.6,-0.1 0.8,-0.1 0.2,0 0.3,0 0.5,-0.1 h 0.3 0.2 0.2 c 0.3,0 0.5,0 0.8,-0.1 h 0.4 c 0,0 0.1,0 0,0 h 0.1 0.2 c 0.2,0 0.5,0 0.7,0 0.9,0 1.8,0 2.7,0 1.8,0.1 3.6,0.3 5.3,0.6 3.4,0.6 6.7,1.7 9.6,3.2 2.9,1.4 5.6,3.2 7.8,5.1 0.1,0.1 0.3,0.2 0.4,0.4 0.1,0.1 0.3,0.2 0.4,0.4 0.3,0.2 0.5,0.5 0.8,0.7 0.3,0.2 0.5,0.5 0.8,0.7 0.2,0.3 0.5,0.5 0.7,0.8 1,1 1.9,2.1 2.7,3.1 1.6,2.1 2.9,4.2 3.9,6.2 0.1,0.1 0.1,0.2 0.2,0.4 0.1,0.1 0.1,0.2 0.2,0.4 0.1,0.2 0.2,0.5 0.4,0.7 0.1,0.2 0.2,0.5 0.3,0.7 0.1,0.2 0.2,0.5 0.3,0.7 0.4,0.9 0.7,1.8 1,2.7 0.5,1.4 0.8,2.6 1.1,3.6 0.1,0.4 0.5,0.7 0.9,0.7 0.5,0 0.8,-0.4 0.8,-0.9 -0.1,-1.2 -0.1,-2.5 -0.2,-4 z"
   id="path25"
   style="fill:url(#SVGID_1_)" />
</svg>
