<svg width="15" height="24" xmlns="http://www.w3.org/2000/svg"><path d="M11.653 13.293a3.12 3.12 0 00-2.346 1.066l-1.47-1.04c.156-.43.245-.892.245-1.375 0-.475-.086-.928-.237-1.352l1.467-1.03a3.119 3.119 0 002.341 1.061 3.132 3.132 0 003.129-3.129 3.132 3.132 0 00-3.129-3.128 3.132 3.132 0 00-3.129 3.128c0 .31.047.607.13.889l-1.467 1.03A4.039 4.039 0 004.685 7.96V6.19A3.134 3.134 0 007.17 3.13 3.132 3.132 0 004.04 0 3.132 3.132 0 00.912 3.129a3.132 3.132 0 002.43 3.047v1.792A4.044 4.044 0 000 11.944c0 2 1.46 3.66 3.37 3.98v1.893a3.133 3.133 0 00-2.458 3.054A3.132 3.132 0 004.042 24a3.132 3.132 0 003.128-3.129 3.133 3.133 0 00-2.457-3.054v-1.892a4.04 4.04 0 002.46-1.43l1.48 1.047c-.083.28-.129.574-.129.88a3.132 3.132 0 003.13 3.128 3.132 3.132 0 003.128-3.128 3.132 3.132 0 00-3.129-3.129zm0-7.316a1.518 1.518 0 11-1.517 1.517c0-.836.68-1.517 1.517-1.517zM2.524 3.13a1.518 1.518 0 013.034 0c0 .836-.68 1.517-1.517 1.517A1.52 1.52 0 012.524 3.13zm3.034 17.74a1.518 1.518 0 01-3.034 0c0-.836.68-1.517 1.517-1.517.837 0 1.517.681 1.517 1.517zm-1.517-6.81a2.118 2.118 0 01-2.116-2.116c0-1.167.95-2.116 2.116-2.116 1.167 0 2.116.95 2.116 2.116 0 1.167-.95 2.116-2.116 2.116zm7.612 3.879a1.518 1.518 0 111.517-1.517c0 .836-.68 1.517-1.517 1.517z"/></svg>