<svg width="21" height="21" xmlns="http://www.w3.org/2000/svg"><g fill="none" fill-rule="evenodd"><path d="M19.916 10.501a9.458 9.458 0 11-18.916 0 9.458 9.458 0 0118.916 0" stroke="#FFF" stroke-width=".8" fill="#326DE6"/><path d="M10.458 9.837h-.277a.064.064 0 00-.056.027 47.1 47.1 0 01-.34.424.07.07 0 00-.016.065l.122.53c.005.021.014.036.035.046l.503.241c.021.01.038.008.058-.001l.499-.24a.059.059 0 00.036-.045c.04-.178.08-.356.123-.534a.063.063 0 00-.015-.06 48.635 48.635 0 01-.34-.425.068.068 0 00-.06-.028h-.272m2.774-2.21l-.012-.016a4.026 4.026 0 00-2.045-1.055c-.062-.012-.125-.021-.187-.03-.039-.006-.04-.005-.039.035 0 .023.002.045.003.067l.016.266.035.63c.02.338.04.676.058 1.015.01.176.15.313.326.316a.358.358 0 00.22-.073c.53-.377 1.063-.754 1.594-1.13l.03-.025m-4.93 6.191c.02-.02.023-.038.03-.056l.665-1.605c.031-.076.066-.15.09-.23a.336.336 0 00-.372-.432c-.244.04-.488.083-.732.124-.376.064-.752.127-1.127.192-.045.007-.09.01-.138.028.315.833.842 1.49 1.584 1.98m3.434.435l-.028-.053a7953.301 7953.301 0 00-.968-1.745c-.166-.24-.475-.162-.573.018-.312.578-.633 1.15-.951 1.725-.008.015-.02.028-.019.052a3.988 3.988 0 002.539.003m2.118-5.86c-.02.005-.028.016-.038.025L12.339 9.74a.332.332 0 00-.038.455.377.377 0 00.205.127l1.872.539c.014.004.029.012.05.004a4.026 4.026 0 00-.575-2.47m-6.8 0a3.974 3.974 0 00-.56 2.478c.027.007.046-.004.065-.01.419-.12.837-.24 1.256-.362.213-.062.428-.12.64-.187a.335.335 0 00.135-.551A3339.11 3339.11 0 007.1 8.427c-.013-.011-.023-.026-.047-.033m2.86-.866l.014-.241.041-.733c.002-.033 0-.035-.034-.03a3.943 3.943 0 00-2.23 1.064c-.039.036-.039.036.002.065.54.382 1.08.764 1.62 1.148.202.145.497.02.527-.239.007-.06.008-.12.011-.179l.05-.855m1.897 4.296a.298.298 0 00.027.123l.302.73.457 1.103c.02.05.015.057.065.023l.004-.003a3.964 3.964 0 001.44-1.71c.035-.077.064-.156.095-.233.009-.021.004-.032-.02-.035l-.086-.014c-.63-.107-1.26-.211-1.89-.32a.34.34 0 00-.394.336m-1.644-6.845c.002-.15-.017-.297-.033-.445-.011-.114-.037-.226-.052-.34a.942.942 0 01.004-.352.42.42 0 01.112-.199.361.361 0 01.537.016c.07.078.105.17.111.275.009.136-.009.27-.033.403a4.64 4.64 0 00-.066.637c-.001.043.004.086.004.128 0 .073.028.135.083.18a.13.13 0 01.05.112l.003.046c.002.059.002.058.063.064a4.963 4.963 0 012.027.664c.39.229.744.505 1.06.829l.018.018c.012.015.024.015.04.004.032-.025.066-.047.1-.072a.067.067 0 01.056-.015c.015.003.031.003.046.005a.23.23 0 00.175-.043c.06-.042.118-.088.172-.138.148-.135.292-.274.423-.426a1.57 1.57 0 01.234-.222.447.447 0 01.364-.101.36.36 0 01.29.456.48.48 0 01-.171.256 1.71 1.71 0 01-.278.183 4.346 4.346 0 00-.606.394c-.014.01-.026.022-.04.033a.267.267 0 00-.11.22c0 .027-.01.046-.03.062-.025.02-.049.043-.073.064-.04.038-.036.03-.01.07a4.976 4.976 0 01.75 1.926 4.97 4.97 0 01.032 1.416c-.01.087-.016.067.057.09l.01.004a.155.155 0 01.126.09c.03.06.084.091.148.11.145.042.294.06.443.08.158.022.317.029.476.04a1.1 1.1 0 01.26.052.43.43 0 01.242.189.36.36 0 01-.12.502.456.456 0 01-.345.053 1.709 1.709 0 01-.317-.102 4.206 4.206 0 00-.71-.234 1.378 1.378 0 00-.075-.015.247.247 0 00-.192.054c-.027.02-.053.028-.086.018-.026-.008-.054-.008-.08-.014-.028-.006-.04.004-.048.03a4.966 4.966 0 01-2.155 2.716c-.007.005-.014.01-.021.013-.017.009-.021.02-.013.038.015.032.027.067.042.099a.07.07 0 010 .063.29.29 0 00.007.262 3.8 3.8 0 00.217.39c.061.099.124.196.194.29.07.093.128.194.171.303.04.1.045.203.011.306a.36.36 0 01-.473.23.463.463 0 01-.259-.243 1.932 1.932 0 01-.122-.332 4.263 4.263 0 00-.245-.663l-.026-.05a.247.247 0 00-.171-.143.107.107 0 01-.078-.065c-.01-.024-.026-.045-.036-.068-.012-.026-.027-.029-.053-.02a5.007 5.007 0 01-3.446.003.196.196 0 01-.034-.012c-.018-.008-.028-.001-.037.015-.019.035-.039.068-.057.103a.072.072 0 01-.052.044.286.286 0 00-.197.165c-.07.14-.124.285-.177.431a5.22 5.22 0 00-.113.362c-.028.1-.068.194-.12.283a.414.414 0 01-.325.216.361.361 0 01-.397-.312.46.46 0 01.028-.247c.046-.113.109-.216.18-.315a4.31 4.31 0 00.387-.635l.022-.052a.243.243 0 00.005-.222.107.107 0 01.003-.102c.015-.029.024-.06.038-.09.01-.021.005-.034-.015-.045-.074-.041-.143-.088-.213-.135a4.969 4.969 0 01-1.956-2.57c-.013-.04-.014-.04-.053-.033l-.015.003a.212.212 0 01-.206-.034c-.046-.036-.106-.032-.163-.023a3.01 3.01 0 00-.468.132c-.11.038-.219.079-.326.125-.118.052-.24.09-.37.102a.426.426 0 01-.21-.035.366.366 0 01-.126-.596.484.484 0 01.251-.141c.114-.027.23-.038.346-.045a3.96 3.96 0 00.765-.107.255.255 0 00.173-.134.108.108 0 01.081-.062c.029-.005.056-.016.084-.023.021-.005.028-.016.025-.037-.006-.04-.01-.081-.014-.122a4.966 4.966 0 01.765-3.256c.037-.06.042-.044-.013-.094-.005-.004-.01-.01-.015-.013-.044-.033-.073-.07-.073-.131 0-.07-.037-.126-.09-.172a3.132 3.132 0 00-.391-.281 3.88 3.88 0 00-.301-.176 1.411 1.411 0 01-.255-.172.454.454 0 01-.173-.315.36.36 0 01.336-.396.474.474 0 01.333.11c.087.068.164.145.237.227.16.18.33.352.518.504l.037.028a.274.274 0 00.249.062.07.07 0 01.061.015c.027.02.057.038.084.06.018.015.03.012.047-.004a4.941 4.941 0 012.563-1.423 5.43 5.43 0 01.567-.088c.045-.005.05-.006.048-.051-.002-.08.016-.145.082-.197.04-.033.053-.088.055-.14.002-.044 0-.089 0-.133" fill="#FEFFFF"/></g></svg>