<?xml version="1.0" encoding="UTF-8" standalone="no"?>
<svg
   role="img"
   viewBox="-8.85 -8.85 372.99999 265.99999"
   version="1.1"
   id="svg21"
   sodipodi:docname="grafana-mimir.svg"
   width="373"
   height="266"
   inkscape:version="1.2.2 (b0a8486541, 2022-12-01)"
   xmlns:inkscape="http://www.inkscape.org/namespaces/inkscape"
   xmlns:sodipodi="http://sodipodi.sourceforge.net/DTD/sodipodi-0.dtd"
   xmlns="http://www.w3.org/2000/svg"
   xmlns:svg="http://www.w3.org/2000/svg"
   xmlns:rdf="http://www.w3.org/1999/02/22-rdf-syntax-ns#"
   xmlns:cc="http://creativecommons.org/ns#"
   xmlns:dc="http://purl.org/dc/elements/1.1/">
  <sodipodi:namedview
     id="namedview23"
     pagecolor="#ffffff"
     bordercolor="#666666"
     borderopacity="1.0"
     inkscape:showpageshadow="2"
     inkscape:pageopacity="0.0"
     inkscape:pagecheckerboard="0"
     inkscape:deskcolor="#d1d1d1"
     showgrid="false"
     inkscape:zoom="2.1773142"
     inkscape:cx="186.46827"
     inkscape:cy="221.6033"
     inkscape:window-width="2560"
     inkscape:window-height="1376"
     inkscape:window-x="0"
     inkscape:window-y="0"
     inkscape:window-maximized="1"
     inkscape:current-layer="svg21" />
  <title
     id="title2">Grafana Mimir logo</title>
  <path
     fill="url(#paint0_linear_632_152)"
     d="M 36.8519,257.15 H 90.6864 L 128.405,184.717 102.299,134.61 Z m 292.8031,-124.585 -29.436,56.498 34.474,67.256 29.457,-56.732 z M 320.711,115.266 257.868,-6.67696 226.874,47.9887 291.232,171.828 Z m -97.893,74.564 35.05,67.277 h 59.769 L 252.66,132.416 Z M 93.376,117.397 64.068,60.8562 26.6484,132.821 55.4014,188.466 Z M 17.8966,149.949 -8.85,202.761 20.5862,256.213 46.671,205.744 Z M 216.927,64.2436 185.762,119.271 213.895,172.723 243.78,115.309 Z M 99.374,-8.85 72.4782,43.4723 177.074,243.494 204.973,189.958 152.12,88.53 Z"
     id="path6"
     style="fill:url(#paint0_linear_632_152)" />
  <defs
     id="defs19">
    <linearGradient
       id="paint0_linear_632_152"
       x1="186.564"
       x2="186.564"
       y1="4.2179999"
       y2="357.05301"
       gradientUnits="userSpaceOnUse"
       gradientTransform="translate(-8.85,-8.85)">
      <stop
         stop-color="#F2C144"
         id="stop8" />
      <stop
         offset=".24"
         stop-color="#F1A03B"
         id="stop10" />
      <stop
         offset=".57"
         stop-color="#F17A31"
         id="stop12" />
      <stop
         offset=".84"
         stop-color="#F0632A"
         id="stop14" />
      <stop
         offset="1"
         stop-color="#F05A28"
         id="stop16" />
    </linearGradient>
  </defs>
  <metadata
     id="metadata306">
    <rdf:RDF>
      <cc:Work
         rdf:about="">
        <dc:title>Grafana Mimir logo</dc:title>
      </cc:Work>
    </rdf:RDF>
  </metadata>
</svg>
