<svg width="9" height="19" xmlns="http://www.w3.org/2000/svg" xmlns:xlink="http://www.w3.org/1999/xlink"><defs><linearGradient x1="-70.443%" y1="56.045%" x2="160.736%" y2="44.147%" id="c"><stop stop-color="#929669" offset="0%"/><stop stop-color="#929669" offset="23.077%"/><stop stop-color="#FDFCF1" offset="100%"/></linearGradient><linearGradient x1="-16.607%" y1="99.299%" x2="78.15%" y2="2.536%" id="f"><stop stop-color="#45AA3A" offset="0%"/><stop stop-color="#3D9439" offset="100%"/></linearGradient><linearGradient x1="-9.624%" y1="43.904%" x2="152.344%" y2="53.689%" id="i"><stop stop-color="#41A83B" offset="0%"/><stop stop-color="#5EBC44" offset="100%"/></linearGradient><path d="M1.571.011l-.5.166s.063 2.536-.852 2.714c-.603.699.093 29.853 2.284.1 0 0-.75-.377-.892-1.016-.141-.64-.04-1.964-.04-1.964z" id="a"/><path d="M.771.002S5.125 2.87 4.105 8.826c-.982 4.327-3.302 5.75-3.55 6.292-.275.385-.552 1.066-.552 1.066L.19 4.127S-.195.446.77.002z" id="d"/><path d="M3.876.009S-.209 2.795.026 7.71c.236 4.917 3.12 7.334 3.682 7.773.364.387.379.536.407.918.254-.547.212-8.169.239-9.06C4.459 3.874 4.162.663 3.876.01z" id="g"/></defs><g fill="none" fill-rule="evenodd"><g transform="matrix(1 0 0 -1 3.178 18.828)"><mask id="b" fill="#fff"><use xlink:href="#a"/></mask><g mask="url(#b)" fill-rule="nonzero" fill="url(#c)"><path d="M1.571.011l-.5.166s.063 2.536-.852 2.714c-.603.699.093 29.853 2.284.1 0 0-.75-.377-.892-1.016-.141-.64-.04-1.964-.04-1.964"/></g></g><g transform="matrix(1 0 0 -1 4.248 16.37)"><mask id="e" fill="#fff"><use xlink:href="#d"/></mask><g mask="url(#e)" fill-rule="nonzero" fill="url(#f)"><path d="M.771.002S5.125 2.87 4.105 8.826c-.982 4.327-3.302 5.75-3.55 6.292-.275.385-.552 1.066-.552 1.066L.19 4.127S-.195.446.77.002"/></g></g><g transform="matrix(1 0 0 -1 .117 16.536)"><mask id="h" fill="#fff"><use xlink:href="#g"/></mask><g mask="url(#h)" fill-rule="nonzero" fill="url(#i)"><path d="M3.876.009S-.209 2.795.026 7.71c.236 4.917 3.12 7.334 3.682 7.773.364.387.379.536.407.918.254-.547.212-8.169.239-9.06C4.459 3.874 4.162.663 3.876.01"/></g></g></g></svg>