<svg width="14" height="10" xmlns="http://www.w3.org/2000/svg"><g fill="none" fill-rule="evenodd"><path d="M-1.946-1.943H16.97v13.111H-1.946z"/><path d="M3.844 8.646h-.512a28.568 28.568 0 00-.15-2.438h-.004l-.78 2.438h-.39l-.775-2.438H1.23a39.877 39.877 0 00-.11 2.438H.654a31.2 31.2 0 01.227-3.06h.634l.739 2.249h.005L3 5.587h.607c.133 1.115.212 2.135.236 3.06zm2.22-2.257c-.208 1.131-.483 1.953-.824 2.467-.266.395-.558.592-.875.592a.86.86 0 01-.313-.076V9.1c.06.01.132.014.213.014.148 0 .268-.04.358-.122a.447.447 0 00.163-.336c0-.085-.042-.258-.126-.521L4.098 6.39H4.6l.403 1.305c.09.296.129.503.113.621a8.51 8.51 0 00.463-1.926h.485z" fill="#5D87A1" fill-rule="nonzero"/><path d="M12.882 8.646h-1.455v-3.06h.49V8.27h.965v.376zm-1.836.074l-.562-.277c.05-.041.097-.086.14-.137.24-.28.358-.696.358-1.246 0-1.013-.397-1.519-1.192-1.519-.39 0-.693.128-.91.385-.24.282-.359.695-.359 1.242 0 .538.106.933.317 1.183.194.227.486.34.876.34.145 0 .278-.017.4-.053l.732.426.2-.344zm-1.822-.686c-.124-.2-.186-.52-.186-.96 0-.771.234-1.157.703-1.157.245 0 .424.093.539.277.124.2.186.516.186.952 0 .776-.234 1.165-.703 1.165-.245 0-.424-.092-.539-.277zm-.916-.236c0 .26-.095.472-.285.64-.19.165-.446.249-.766.249-.3 0-.59-.096-.87-.286l.131-.263c.242.121.46.181.657.181.184 0 .329-.04.433-.122a.416.416 0 00.167-.34c0-.181-.127-.337-.36-.467a55.116 55.116 0 01-.643-.364c-.232-.17-.349-.351-.349-.65a.76.76 0 01.26-.601c.175-.153.399-.23.674-.23.284 0 .542.077.775.227l-.118.263a1.498 1.498 0 00-.59-.126c-.156 0-.277.037-.361.113a.38.38 0 00-.138.29c0 .181.13.338.369.471.217.118.657.369.657.369.238.169.357.349.357.646z" fill="#F8981D" fill-rule="nonzero"/><path d="M13.496 4.562c-.296-.008-.525.022-.717.103-.056.023-.144.023-.152.093.03.03.034.077.06.118a.859.859 0 00.192.225c.077.06.155.119.237.17.143.09.306.141.446.23.082.051.163.118.245.174.04.03.066.077.118.096v-.012c-.026-.033-.033-.081-.06-.118l-.11-.107a1.76 1.76 0 00-.384-.373c-.119-.082-.378-.193-.426-.329l-.007-.008c.081-.007.178-.037.255-.06.126-.032.24-.025.37-.058.059-.015.118-.034.177-.052v-.033c-.067-.067-.114-.155-.185-.218a4.922 4.922 0 00-.61-.455c-.115-.074-.262-.122-.384-.185-.044-.022-.119-.033-.145-.07-.066-.081-.103-.188-.151-.285a9.254 9.254 0 01-.303-.643c-.067-.144-.107-.288-.189-.421-.38-.629-.795-1.01-1.43-1.383-.137-.078-.3-.11-.473-.152L9.592.795c-.059-.026-.118-.097-.17-.13-.21-.133-.754-.421-.91-.04-.1.24.149.477.234.599.063.084.144.18.188.277.026.063.033.13.06.196.059.162.114.343.192.495.04.078.084.159.136.23.03.04.082.058.093.125-.052.074-.056.185-.085.277-.133.418-.081.935.107 1.242.06.093.2.296.388.218.167-.066.13-.277.178-.462.01-.044.004-.074.026-.103v.007c.051.104.103.203.151.307.115.181.314.37.48.495.09.067.16.181.27.222v-.01h-.007c-.022-.034-.055-.049-.085-.075a1.795 1.795 0 01-.192-.221 4.762 4.762 0 01-.414-.673c-.06-.115-.11-.24-.159-.355-.022-.045-.022-.111-.06-.134-.055.082-.136.152-.176.252-.07.159-.078.355-.104.558l-.015.007c-.118-.03-.158-.15-.203-.254a1.603 1.603 0 01-.033-.988c.025-.077.137-.321.092-.395-.022-.07-.096-.11-.137-.167a1.52 1.52 0 01-.133-.236c-.089-.207-.133-.436-.229-.643-.044-.097-.122-.196-.185-.285-.07-.1-.147-.17-.203-.288C8.668.802 8.643.736 8.672.69c.007-.03.022-.04.052-.048.048-.04.185.011.233.033.137.056.251.108.366.185.051.037.107.107.173.126h.078c.118.026.251.007.362.04.196.063.374.156.533.255a3.28 3.28 0 011.153 1.265c.044.085.063.163.103.251.078.181.174.366.252.544.077.173.151.35.262.495.056.078.278.118.378.159.073.033.188.063.255.103.125.078.25.167.369.252.059.044.244.137.255.21M9.725 1.35a.576.576 0 00-.151.019v.007h.007c.03.06.081.1.118.152.03.06.056.118.085.177l.007-.007c.052-.037.078-.096.078-.185-.022-.026-.026-.052-.044-.078-.022-.037-.07-.055-.1-.085" fill="#5D87A1" fill-rule="nonzero"/></g></svg>