<svg width="19" height="21" xmlns="http://www.w3.org/2000/svg"><path d="M18.216 8.038h-6.315a.574.574 0 01-.574-.574V.883A.883.883 0 0010.445 0H8.19a.883.883 0 00-.882.883v6.542a.616.616 0 01-.614.616l-2.07.01a.617.617 0 01-.62-.618L4.018.884A.882.882 0 003.135 0H.882A.883.883 0 000 .883v18.43c0 .432.35.783.783.783h17.433c.433 0 .784-.35.784-.784V8.822a.784.784 0 00-.784-.784zm-2.961 6.92c0 .568-.46 1.028-1.028 1.028h-1.781c-.568 0-1.028-.46-1.028-1.028v-1.781c0-.568.46-1.028 1.028-1.028h1.781c.568 0 1.028.46 1.028 1.028v1.781z" fill="#F60"/></svg>