<svg width="13" height="12" fill="none" xmlns="http://www.w3.org/2000/svg"><path fill-rule="evenodd" clip-rule="evenodd" d="M6.227.311a5.842 5.842 0 100 11.684 5.842 5.842 0 000-11.684zm4.92 5.393H9.356a8.073 8.073 0 00-.377-2.023l.106-.053c.335-.185.595-.364.773-.504.069-.054.122-.099.162-.135a4.881 4.881 0 011.129 2.715zM8.655 9.47c.281.152.502.31.648.422.03.023.053.045.08.063-.441.364-.948.656-1.498.854.1-.144.204-.292.303-.463.156-.26.313-.557.462-.88 0 0 0 .004.005.004zm-4.849-.005a8.113 8.113 0 00.765 1.344 4.875 4.875 0 01-1.498-.854c.021-.018.05-.04.08-.063.146-.112.366-.27.648-.422.005 0 .005-.005.005-.005zm1.973 1.43a6.706 6.706 0 01-.74-1.016c-.142-.23-.28-.49-.41-.773a4.924 4.924 0 011.145-.239v2.027h.005zM4.307 8.27a7.14 7.14 0 01-.308-1.667h1.78v1.366c-.55.04-1.045.152-1.472.3zM3.8 2.837c-.282-.153-.5-.31-.648-.423l-.075-.063a5.05 5.05 0 011.495-.854c-.098.144-.201.293-.305.463a9.08 9.08 0 00-.462.881s0-.004-.005-.004zm1.24-.41a7.384 7.384 0 01.74-1.015v2.022a4.923 4.923 0 01-1.144-.238c.125-.283.266-.54.404-.768zm.738 1.91v1.367h-1.78c.04-.607.147-1.169.309-1.667.427.148.921.26 1.471.3zM7.414 9.88a7.386 7.386 0 01-.741 1.015V8.872c.425.036.807.126 1.145.238-.125.283-.266.54-.404.769zm-.738-1.91V6.603h1.779a6.875 6.875 0 01-.308 1.667 5.785 5.785 0 00-1.471-.301zm0-2.265V4.338a5.986 5.986 0 001.47-.301 7.14 7.14 0 01.309 1.667h-1.78zM8.649 2.84a8.12 8.12 0 00-.765-1.344 4.873 4.873 0 011.498.854l-.08.063c-.146.113-.367.27-.648.423-.005 0-.005.004-.005.004zM6.676 1.412c.005.005.01.009.013.014.2.224.465.561.728 1.002.14.229.278.49.408.773-.34.107-.722.197-1.15.233V1.412zM2.437 2.99c.046.04.096.081.162.135.181.14.436.324.773.504.032.018.072.036.104.053a8.318 8.318 0 00-.377 2.023H1.306a4.865 4.865 0 011.131-2.715zm-1.13 3.614h1.792c.04.746.186 1.42.377 2.022l-.106.054a5.833 5.833 0 00-.773.503 2.996 2.996 0 00-.162.135 4.881 4.881 0 01-1.129-2.714zm8.71 2.714a5.413 5.413 0 00-.935-.638l-.11-.054a7.841 7.841 0 00.378-2.022h1.792a4.823 4.823 0 01-1.126 2.714z" fill="#008BDB"/></svg>