<svg width="13" height="14" fill="none" xmlns="http://www.w3.org/2000/svg"><path d="M7.944 8.158c.418-.419.627-.924.627-1.515 0-.592-.209-1.097-.627-1.515A2.065 2.065 0 006.429 4.5c-.592 0-1.097.21-1.516.628a2.065 2.065 0 00-.627 1.515c0 .591.209 1.096.628 1.515.418.418.923.628 1.515.628.591 0 1.096-.21 1.515-.628zm4.913-2.428V7.59a.323.323 0 01-.067.192.255.255 0 01-.167.11l-1.549.233a5.36 5.36 0 01-.326.762c.195.28.494.664.895 1.155a.324.324 0 01.084.21.28.28 0 01-.075.192c-.15.207-.427.508-.829.904-.402.396-.664.594-.787.594a.409.409 0 01-.217-.075l-1.155-.904a4.78 4.78 0 01-.762.318c-.09.76-.17 1.278-.243 1.557-.039.156-.14.234-.301.234H5.499a.322.322 0 01-.209-.075.24.24 0 01-.092-.176l-.234-1.54a5.173 5.173 0 01-.754-.31l-1.18.896a.301.301 0 01-.21.075.288.288 0 01-.208-.092c-.704-.636-1.164-1.105-1.382-1.406a.327.327 0 01.009-.385c.084-.117.226-.301.427-.552.2-.257.351-.455.452-.595a4.142 4.142 0 01-.343-.828L.243 7.857a.27.27 0 01-.176-.1A.334.334 0 010 7.554V5.697c0-.067.022-.131.067-.193a.252.252 0 01.159-.108l1.557-.235c.078-.256.187-.513.326-.77a19.058 19.058 0 00-.895-1.155.315.315 0 01-.084-.2c0-.057.025-.12.075-.193.145-.201.419-.5.82-.896.408-.402.673-.603.796-.603.072 0 .145.028.217.084l1.156.896c.245-.129.5-.235.761-.318.09-.76.17-1.278.243-1.557.04-.157.14-.235.301-.235h1.859a.29.29 0 01.2.076.231.231 0 01.101.175l.234 1.54c.274.09.525.193.754.31l1.188-.895a.272.272 0 01.201-.076c.073 0 .143.028.21.084.72.664 1.18 1.138 1.38 1.423a.27.27 0 01.06.184.323.323 0 01-.068.193c-.083.117-.226.304-.427.56-.2.252-.351.447-.452.586.145.28.26.553.344.82l1.531.235a.26.26 0 01.176.109.3.3 0 01.067.192z" fill="#C4C4C4"/></svg>