<svg width="228" height="244" viewBox="0 0 228 244" fill="none" xmlns="http://www.w3.org/2000/svg">
<rect width="84.9858" height="73.3079" transform="matrix(0.86601 0.500028 3.18351e-05 1 113.884 84.0684)" fill="#F5F5F5"/>
<rect width="84.9858" height="73.3079" transform="matrix(0.86601 -0.500028 -3.18351e-05 1 40.2913 126.562)" fill="#F5F5F5"/>
<rect width="84.9858" height="84.9858" transform="matrix(0.866041 0.499972 -0.866041 0.499972 113.871 157.375)" fill="#F5F5F5"/>
<rect width="84.9858" height="73.3079" transform="matrix(0.86601 0.500028 3.18351e-05 1 40.289 126.556)" fill="#0E56C7"/>
<rect width="84.9858" height="73.3079" transform="matrix(0.86601 -0.500028 -3.18351e-05 1 113.888 169.049)" fill="#0064FF"/>
<rect width="84.9858" height="73.3079" transform="matrix(0.86601 0.500028 3.18351e-05 1 40.2853 126.556)" stroke="#00003C"/>
<rect width="84.9858" height="73.3079" transform="matrix(0.86601 -0.500028 -3.18351e-05 1 113.886 169.049)" stroke="#00003C"/>
<path d="M187.482 199.872L187.48 126.564L113.882 84.0685L113.884 157.376L124.338 163.413" stroke="#00003C"/>
<path d="M40.287 199.87L40.2893 126.562L113.888 84.0665L113.885 157.374L104.304 162.907" stroke="#00003C"/>
<rect width="50.2885" height="35.8853" transform="matrix(0.86601 0.500028 3.18351e-05 1 103.286 126.485)" fill="white"/>
<rect width="30.124" height="35.8853" transform="matrix(0.86601 -0.500028 -3.18351e-05 1 146.859 151.63)" fill="white"/>
<rect width="30.124" height="50.2885" transform="matrix(0.866041 -0.499972 0.866041 0.499972 103.286 126.487)" fill="white"/>
<rect width="50.2885" height="35.8853" transform="matrix(0.86601 0.500028 3.18351e-05 1 103.286 126.485)" stroke="#00003C" stroke-linejoin="bevel"/>
<rect width="30.124" height="35.8853" transform="matrix(0.86601 -0.500028 -3.18351e-05 1 146.859 151.63)" stroke="#00003C" stroke-linejoin="bevel"/>
<rect width="30.124" height="50.2885" transform="matrix(0.866041 -0.499972 0.866041 0.499972 103.286 126.487)" stroke="#00003C" stroke-linejoin="bevel"/>
<rect width="21.482" height="30.124" transform="matrix(0.86601 0.500028 3.18351e-05 1 65.8521 145.689)" fill="#0064FF"/>
<rect width="30.124" height="30.124" transform="matrix(0.86601 -0.500028 -3.18351e-05 1 84.475 156.432)" fill="#0E56C7"/>
<rect width="30.124" height="21.482" transform="matrix(0.866041 -0.499972 0.866041 0.499972 65.8521 145.691)" fill="#0064FF"/>
<rect width="21.482" height="30.124" transform="matrix(0.86601 0.500028 3.18351e-05 1 65.8521 145.689)" stroke="#00003C" stroke-linejoin="bevel"/>
<rect width="30.124" height="30.124" transform="matrix(0.86601 -0.500028 -3.18351e-05 1 84.475 156.432)" stroke="#00003C" stroke-linejoin="bevel"/>
<rect width="30.124" height="21.482" transform="matrix(0.866041 -0.499972 0.866041 0.499972 65.8521 145.691)" stroke="#00003C" stroke-linejoin="bevel"/>
<rect width="18.4994" height="15.1096" transform="matrix(0.86601 0.500028 3.18351e-05 1 135.389 118.752)" fill="#0E56C7"/>
<rect width="18.4994" height="15.1096" transform="matrix(0.86601 -0.500028 -3.18351e-05 1 151.429 128.004)" fill="#0064FF"/>
<rect width="18.4994" height="18.4994" transform="matrix(0.866041 -0.499972 0.866041 0.499972 135.389 118.754)" fill="#0064FF"/>
<rect width="18.4994" height="15.1096" transform="matrix(0.86601 0.500028 3.18351e-05 1 135.389 118.752)" stroke="#00003C" stroke-linejoin="bevel"/>
<rect width="18.4994" height="15.1096" transform="matrix(0.86601 -0.500028 -3.18351e-05 1 151.429 128.004)" stroke="#00003C" stroke-linejoin="bevel"/>
<rect width="18.4994" height="18.4994" transform="matrix(0.866041 -0.499972 0.866041 0.499972 135.389 118.754)" stroke="#00003C" stroke-linejoin="bevel"/>
<rect width="45.3998" height="84.9858" transform="matrix(0.866041 -0.499972 0.866041 0.499972 113.506 83.968)" fill="white"/>
<rect width="45.3998" height="84.9858" transform="matrix(-0.866041 -0.499972 -0.866041 0.499972 113.919 84.2648)" fill="white"/>
<rect width="85.055" height="45.4012" transform="matrix(-0.866041 -0.499972 -0.866041 0.499972 114.515 169.18)" fill="white"/>
<rect width="85.055" height="45.4012" transform="matrix(0.866041 -0.499972 0.866041 0.499972 113.498 169.18)" fill="white"/>
<rect width="45.3998" height="84.9858" transform="matrix(0.866041 -0.499972 0.866041 0.499972 113.506 83.968)" stroke="#00003C"/>
<rect width="45.3998" height="84.9858" transform="matrix(-0.866041 -0.499972 -0.866041 0.499972 113.919 84.2648)" stroke="#00003C"/>
<rect width="85.055" height="45.4012" transform="matrix(-0.866041 -0.499972 -0.866041 0.499972 114.515 169.18)" stroke="#00003C"/>
<rect width="85.055" height="45.4012" transform="matrix(0.866041 -0.499972 0.866041 0.499972 113.498 169.18)" stroke="#00003C"/>
<rect width="10.4353" height="8.52317" transform="matrix(0.86601 0.500028 3.18351e-05 1 38.951 93.5959)" fill="#0E56C7"/>
<rect width="10.4353" height="8.52317" transform="matrix(0.86601 -0.500028 -3.18351e-05 1 47.9989 98.8145)" fill="#0064FF"/>
<rect width="10.4353" height="10.4353" transform="matrix(0.866041 -0.499972 0.866041 0.499972 38.951 93.597)" fill="#0064FF"/>
<rect width="10.4353" height="8.52317" transform="matrix(0.86601 0.500028 3.18351e-05 1 38.951 93.5959)" stroke="#00003C" stroke-linejoin="bevel"/>
<rect width="10.4353" height="8.52317" transform="matrix(0.86601 -0.500028 -3.18351e-05 1 47.9989 98.8145)" stroke="#00003C" stroke-linejoin="bevel"/>
<rect width="10.4353" height="10.4353" transform="matrix(0.866041 -0.499972 0.866041 0.499972 38.951 93.597)" stroke="#00003C" stroke-linejoin="bevel"/>
<rect width="12.9336" height="10.5637" transform="matrix(0.86601 0.500028 3.18351e-05 1 163.954 88.465)" fill="#F5F5F5"/>
<rect width="12.9336" height="10.5637" transform="matrix(0.86601 -0.500028 -3.18351e-05 1 175.167 94.9331)" fill="white"/>
<rect width="12.9336" height="12.9336" transform="matrix(0.866041 -0.499972 0.866041 0.499972 163.954 88.4665)" fill="white"/>
<rect width="12.9336" height="10.5637" transform="matrix(0.86601 0.500028 3.18351e-05 1 163.954 88.465)" stroke="#00003C" stroke-linejoin="bevel"/>
<rect width="12.9336" height="10.5637" transform="matrix(0.86601 -0.500028 -3.18351e-05 1 175.167 94.9331)" stroke="#00003C" stroke-linejoin="bevel"/>
<rect width="12.9336" height="12.9336" transform="matrix(0.866041 -0.499972 0.866041 0.499972 163.954 88.4665)" stroke="#00003C" stroke-linejoin="bevel"/>
<rect width="14.9502" height="75.6477" transform="matrix(0.86601 0.500028 3.18351e-05 1 76.0132 38.817)" fill="#F5F5F5"/>
<rect width="75.6477" height="75.6477" transform="matrix(0.86601 -0.500028 -3.18351e-05 1 88.9543 46.2946)" fill="white"/>
<rect width="75.6477" height="14.9502" transform="matrix(0.866041 -0.499972 0.866041 0.499972 76.0132 38.8218)" fill="white"/>
<rect width="14.9502" height="75.6477" transform="matrix(0.86601 0.500028 3.18351e-05 1 76.0132 38.817)" stroke="#00003C" stroke-linejoin="bevel"/>
<rect width="75.6477" height="75.6477" transform="matrix(0.86601 -0.500028 -3.18351e-05 1 88.9543 46.2946)" stroke="#00003C" stroke-linejoin="bevel"/>
<rect width="75.6477" height="14.9502" transform="matrix(0.866041 -0.499972 0.866041 0.499972 76.0132 38.8218)" stroke="#00003C" stroke-linejoin="bevel"/>
<path d="M123.486 71.0176L116.991 75.3749L116.991 61.5891L123.486 57.2317C127.063 54.832 129.982 55.9711 129.982 59.7673C129.982 63.5634 127.063 68.6178 123.486 71.0176Z" fill="#0064FF"/>
<path d="M111.432 64.0258L107.949 63.0572L98.7234 79.5446L107.949 82.1101L111.432 75.788L109.643 75.3879L109.643 67.2223L111.432 64.0258Z" fill="#00003C"/>
<path d="M137.133 47.2268L133.65 53.4517L135.345 54.0201L135.345 62.1857L133.65 65.214L137.133 66.2798L146.359 49.7923L137.133 47.2268Z" fill="#00003C"/>
<path d="M113.313 53.8L116.796 54.707L118.585 51.7136L126.492 46.1261L128.187 46.6584L131.764 40.7626L122.538 38.3601L113.313 53.8Z" fill="#00003C"/>
<path d="M129.975 75.0711L128.187 74.6963L126.492 77.5322L118.585 83.1197L116.796 82.745L115.102 85.5809L113.313 88.5743L122.538 90.9768L131.764 75.5369L129.975 75.0711Z" fill="#00003C"/>
</svg>
