<svg width="178" height="254" viewBox="0 0 178 254" fill="none" xmlns="http://www.w3.org/2000/svg">
<path fill-rule="evenodd" clip-rule="evenodd" d="M83.3066 61.6429C91.3253 60.1568 97.4982 52.3489 97.0941 44.2037C96.69 36.0584 89.862 30.6601 81.8433 32.1463C73.8246 33.6325 67.6517 41.4403 68.0557 49.5856C68.4598 57.7309 75.2878 63.1291 83.3066 61.6429ZM83.5898 67.352C94.7125 65.2905 103.275 54.4603 102.714 43.162C102.154 31.8637 92.6828 24.3758 81.5601 26.4373C70.4373 28.4988 61.8749 39.329 62.4354 50.6273C62.9959 61.9255 72.467 69.4134 83.5898 67.352Z" fill="black"/>
<path d="M77.9522 58.5324C77.8811 57.0992 78.9673 55.7254 80.3782 55.4639L86.5095 54.3275C87.9204 54.066 89.1218 55.0159 89.1929 56.4491L90.0683 74.0951C90.1394 75.5283 89.0532 76.9021 87.6423 77.1636L81.5111 78.3C80.1001 78.5615 78.8987 77.6117 78.8276 76.1785L77.9522 58.5324Z" fill="black"/>
<path d="M163.988 135.033C166.1 177.598 133.841 218.401 91.9369 226.167C50.0326 233.934 14.3507 205.723 12.2391 163.158C10.1275 120.592 42.3859 79.79 84.2902 72.0235C126.194 64.257 161.876 92.4673 163.988 135.033Z" fill="black"/>
<path d="M150.874 137.463C152.621 172.672 125.938 206.422 91.2761 212.846C56.6145 219.27 27.0998 195.936 25.3532 160.727C23.6066 125.519 50.2894 91.7687 84.951 85.3446C119.613 78.9204 149.127 102.255 150.874 137.463Z" fill="black"/>
<path d="M84.962 85.3426C95.1609 83.4523 105.332 84.1153 114.593 87.2742C123.855 90.4331 131.929 95.9927 138.117 103.472L88.1245 149.093L84.962 85.3426Z" fill="black"/>
<path d="M150.874 137.463C152.621 172.672 125.938 206.422 91.2761 212.846C56.6145 219.27 27.0998 195.936 25.3532 160.727C23.6066 125.519 50.2894 91.7687 84.951 85.3446C119.613 78.9204 149.127 102.255 150.874 137.463Z" fill="black"/>
<path d="M92.8008 148.227C92.9311 150.854 90.9399 153.373 88.3532 153.852C85.7665 154.332 83.5639 152.59 83.4336 149.963C83.3032 147.335 85.2945 144.817 87.8812 144.337C90.4679 143.858 92.6704 145.599 92.8008 148.227Z" fill="black"/>
<path d="M70.1663 167.915C70.2084 168.765 70.0143 169.571 69.5838 170.333C69.153 171.088 68.5658 171.694 67.8222 172.15C68.7241 172.309 69.46 172.7 70.0301 173.323C70.6002 173.945 70.9088 174.73 70.9557 175.677C71.0255 177.083 70.6344 178.282 69.7826 179.274C68.9304 180.259 67.7697 180.888 66.3003 181.16C64.817 181.435 63.6085 181.245 62.675 180.592C61.7486 179.936 61.2503 178.902 61.1802 177.489C61.134 176.557 61.3494 175.679 61.8264 174.855C62.3034 174.03 62.9804 173.374 63.8572 172.885C63.0822 172.71 62.4532 172.33 61.9701 171.744C61.4866 171.151 61.2238 170.43 61.1816 169.581C61.1141 168.22 61.4682 167.062 62.2438 166.107C63.0265 165.15 64.0927 164.547 65.4425 164.296C66.7923 164.046 67.8986 164.251 68.7614 164.91C69.6312 165.568 70.0995 166.57 70.1663 167.915ZM69.6909 175.923C69.6401 174.901 69.2576 174.126 68.5432 173.598C67.8285 173.063 66.9403 172.894 65.8788 173.091C64.8172 173.288 63.965 173.772 63.3222 174.543C62.6793 175.315 62.3838 176.223 62.4357 177.268C62.4875 178.313 62.8558 179.087 63.5405 179.589C64.2249 180.084 65.126 180.228 66.2438 180.021C67.3335 179.819 68.1935 179.349 68.8238 178.61C69.454 177.871 69.7431 176.976 69.6909 175.923ZM68.9003 168.139C68.8537 167.199 68.5091 166.474 67.8665 165.964C67.2306 165.444 66.4416 165.272 65.4995 165.446C64.5434 165.624 63.7817 166.072 63.2143 166.792C62.6536 167.502 62.3977 168.35 62.4465 169.335C62.4943 170.297 62.8279 171.017 63.4476 171.493C64.0742 171.969 64.8691 172.117 65.8323 171.939C66.7813 171.763 67.5401 171.327 68.1086 170.629C68.6837 169.924 68.9476 169.093 68.9003 168.139Z" fill="black"/>
<path d="M80.5626 165.977L80.7032 167.954C81.0885 167.139 81.5884 166.489 82.2028 166.003C82.8173 165.518 83.5112 165.203 84.2845 165.06C86.0842 164.726 87.2658 165.304 87.8292 166.792C88.1993 165.958 88.7152 165.274 89.377 164.742C90.0384 164.202 90.7804 163.856 91.603 163.703C94.0495 163.25 95.3682 164.447 95.5591 167.294L95.9629 175.435L94.6975 175.669L94.2987 167.63C94.2376 166.542 93.9761 165.775 93.5141 165.329C93.0591 164.882 92.3431 164.75 91.3659 164.931C90.4597 165.114 89.7091 165.572 89.114 166.304C88.5185 167.029 88.2074 167.837 88.1807 168.73L88.5812 176.803L87.3158 177.037L86.9119 168.897C86.853 167.853 86.5825 167.118 86.1001 166.692C85.6245 166.257 84.9156 166.126 83.9736 166.301C83.1791 166.448 82.5093 166.819 81.9641 167.413C81.4185 168 81.0323 168.796 80.8055 169.801L81.2205 178.167L79.9551 178.402L79.3499 166.202L80.5626 165.977Z" fill="black"/>
<path d="M101.014 174.499L99.7483 174.733L99.1431 162.534L100.409 162.299L101.014 174.499ZM98.7466 159.045C98.7339 158.79 98.8006 158.561 98.9467 158.36C99.0924 158.151 99.2988 158.021 99.566 157.972C99.8331 157.922 100.049 157.974 100.212 158.125C100.382 158.268 100.474 158.467 100.487 158.723C100.499 158.979 100.429 159.208 100.276 159.411C100.13 159.612 99.9232 159.738 99.6561 159.787C99.3889 159.837 99.1737 159.789 99.0105 159.645C98.8472 159.501 98.7592 159.301 98.7466 159.045Z" fill="black"/>
<path d="M105.48 161.359L105.626 163.437C106.018 162.606 106.524 161.936 107.144 161.426C107.764 160.909 108.461 160.579 109.234 160.436C110.457 160.209 111.386 160.409 112.02 161.035C112.654 161.66 113.011 162.709 113.091 164.181L113.488 172.187L112.234 172.419L111.836 164.403C111.775 163.314 111.517 162.543 111.061 162.088C110.613 161.633 109.921 161.492 108.986 161.665C108.206 161.81 107.527 162.201 106.948 162.839C106.376 163.469 105.968 164.254 105.724 165.194L106.138 173.549L104.883 173.781L104.278 161.582L105.48 161.359Z" fill="black"/>
<path d="M117.033 170.71C117.02 170.447 117.087 170.211 117.232 170.002C117.385 169.784 117.601 169.649 117.883 169.597C118.164 169.545 118.39 169.598 118.561 169.756C118.732 169.906 118.823 170.113 118.836 170.376C118.85 170.639 118.779 170.872 118.626 171.075C118.473 171.27 118.256 171.394 117.974 171.446C117.693 171.498 117.468 171.457 117.298 171.321C117.134 171.177 117.046 170.973 117.033 170.71Z" fill="black"/>
<path d="M88.4824 64.0439C96.7726 62.5074 103.155 54.4352 102.737 46.0141C102.319 37.593 95.2598 32.012 86.9695 33.5485C78.6793 35.085 72.2974 43.1572 72.7151 51.5783C73.1329 59.9993 80.1921 65.5804 88.4824 64.0439ZM107.374 45.1547C107.921 56.1771 99.5673 66.743 88.716 68.7541C77.8648 70.7653 68.6249 63.4602 68.0781 52.4377C67.5313 41.4152 75.8847 30.8494 86.7359 28.8382C97.5871 26.8271 106.827 34.1322 107.374 45.1547Z" fill="white" stroke="black"/>
<rect width="11.4321" height="22.8642" rx="2" transform="matrix(0.983255 -0.182236 0.0495471 0.998772 82.9728 57.839)" fill="#00003C"/>
<rect width="7.62139" height="11.9059" rx="2" transform="matrix(0.890789 0.309457 -0.419214 0.966949 124.848 65.7225)" fill="#00003C"/>
<circle r="76.6666" transform="matrix(0.983255 -0.182236 0.0495471 0.998772 93.2637 150.997)" fill="#F5F5F5" stroke="#00003C"/>
<circle r="63.8292" transform="matrix(0.983255 -0.182236 0.0495471 0.998772 93.2623 150.997)" fill="white"/>
<path d="M90.1128 87.244C100.312 85.3537 110.482 86.0167 119.744 89.1756C129.006 92.3345 137.08 97.8941 143.267 105.373L93.2753 150.995L90.1128 87.244Z" fill="#0064FF"/>
<circle r="63.3292" transform="matrix(0.983255 -0.182236 0.0495471 0.998772 93.2623 150.997)" stroke="#00003C"/>
<path d="M124.713 121.313L119.09 122.915L122.62 126.997L124.713 121.313ZM120.935 124.238L92.9737 150.641L93.5852 151.348L121.547 124.945L120.935 124.238Z" fill="#00003C"/>
<circle r="4.26337" transform="matrix(0.983255 -0.182236 0.0495471 0.998772 93.2728 150.996)" fill="#F5F5F5" stroke="#00003C"/>
<path d="M90.0999 87.2458L90.7843 101.043" stroke="#00003C"/>
<path d="M95.7175 200.475L96.4019 214.272" stroke="#00003C"/>
<path d="M31.1938 162.261L44.7762 159.743" stroke="#00003C"/>
<path d="M141.775 142.726L155.357 140.209" stroke="#00003C"/>
<path d="M37.466 129.714L43.3098 131.992" stroke="#00003C"/>
<path d="M142.328 171.127L148.172 173.404" stroke="#00003C"/>
<path d="M60.0227 101.552L63.5873 106.713" stroke="#00003C"/>
<path d="M122.938 195.281L126.502 200.441" stroke="#00003C"/>
<path d="M121.872 90.5702L118.88 96.946" stroke="#00003C"/>
<path d="M67.6447 205.047L64.6524 211.423" stroke="#00003C"/>
<path d="M146.459 110.346L140.945 114.728" stroke="#00003C"/>
<path d="M46.5648 188.043L41.0514 192.426" stroke="#00003C"/>
<path d="M75.3195 169.817C75.3616 170.666 75.1675 171.472 74.737 172.235C74.3062 172.99 73.719 173.595 72.9754 174.052C73.8773 174.211 74.6132 174.602 75.1833 175.224C75.7534 175.847 76.062 176.632 76.1089 177.579C76.1787 178.984 75.7876 180.183 74.9358 181.176C74.0836 182.161 72.9229 182.789 71.4535 183.061C69.9702 183.336 68.7617 183.147 67.8282 182.493C66.9018 181.838 66.4035 180.804 66.3334 179.391C66.2872 178.459 66.5026 177.58 66.9796 176.756C67.4566 175.932 68.1336 175.275 69.0104 174.787C68.2354 174.612 67.6064 174.231 67.1233 173.646C66.6398 173.053 66.377 172.332 66.3348 171.482C66.2673 170.122 66.6214 168.964 67.397 168.008C68.1797 167.051 69.2459 166.448 70.5957 166.198C71.9455 165.948 73.0518 166.152 73.9146 166.812C74.7844 167.47 75.2527 168.471 75.3195 169.817ZM74.8441 177.825C74.7934 176.802 74.4108 176.027 73.6964 175.5C72.9817 174.965 72.0935 174.796 71.032 174.992C69.9704 175.189 69.1182 175.673 68.4754 176.445C67.8325 177.216 67.537 178.125 67.5889 179.169C67.6407 180.214 68.009 180.988 68.6937 181.491C69.3781 181.986 70.2792 182.13 71.397 181.923C72.4867 181.721 73.3467 181.25 73.977 180.511C74.6072 179.773 74.8963 178.877 74.8441 177.825ZM74.0535 170.04C74.0069 169.101 73.6623 168.376 73.0197 167.865C72.3838 167.346 71.5948 167.173 70.6527 167.348C69.6966 167.525 68.9349 167.973 68.3675 168.693C67.8068 169.404 67.5509 170.252 67.5997 171.236C67.6475 172.198 67.9811 172.918 68.6008 173.395C69.2274 173.87 70.0223 174.019 70.9855 173.84C71.9345 173.664 72.6933 173.228 73.2618 172.531C73.8369 171.825 74.1008 170.995 74.0535 170.04Z" fill="black"/>
<path d="M85.7158 167.879L85.8564 169.855C86.2417 169.04 86.7416 168.39 87.356 167.905C87.9705 167.419 88.6644 167.105 89.4377 166.961C91.2374 166.628 92.419 167.205 92.9824 168.694C93.3525 167.859 93.8684 167.176 94.5302 166.643C95.1916 166.103 95.9336 165.757 96.7562 165.605C99.2027 165.151 100.521 166.348 100.712 169.196L101.116 177.336L99.8507 177.571L99.4519 169.532C99.3908 168.443 99.1293 167.676 98.6673 167.231C98.2123 166.784 97.4963 166.651 96.5191 166.832C95.6129 167.015 94.8623 167.473 94.2672 168.205C93.6717 168.93 93.3606 169.739 93.3339 170.631L93.7344 178.704L92.469 178.939L92.0651 170.798C92.0062 169.755 91.7357 169.02 91.2533 168.593C90.7777 168.158 90.0688 168.028 89.1268 168.202C88.3323 168.35 87.6625 168.72 87.1173 169.314C86.5717 169.901 86.1855 170.697 85.9587 171.702L86.3737 180.069L85.1083 180.303L84.5031 168.103L85.7158 167.879Z" fill="black"/>
<path d="M106.167 176.4L104.902 176.635L104.296 164.435L105.562 164.2L106.167 176.4ZM103.9 160.947C103.887 160.691 103.954 160.463 104.1 160.261C104.246 160.052 104.452 159.923 104.719 159.873C104.986 159.824 105.202 159.875 105.365 160.027C105.536 160.17 105.627 160.369 105.64 160.624C105.652 160.88 105.582 161.109 105.429 161.312C105.283 161.514 105.076 161.639 104.809 161.689C104.542 161.738 104.327 161.691 104.164 161.547C104 161.402 103.912 161.203 103.9 160.947Z" fill="black"/>
<path d="M110.634 163.26L110.779 165.339C111.171 164.507 111.677 163.837 112.297 163.328C112.917 162.811 113.614 162.481 114.387 162.337C115.61 162.11 116.539 162.31 117.173 162.936C117.807 163.562 118.164 164.611 118.245 166.083L118.642 174.088L117.387 174.321L116.989 166.304C116.928 165.215 116.67 164.444 116.214 163.99C115.766 163.534 115.075 163.393 114.14 163.566C113.359 163.711 112.68 164.103 112.101 164.741C111.529 165.37 111.121 166.155 110.877 167.095L111.292 175.45L110.037 175.683L109.431 163.483L110.634 163.26Z" fill="black"/>
<path d="M122.186 172.612C122.173 172.349 122.24 172.113 122.385 171.904C122.538 171.686 122.755 171.551 123.036 171.499C123.317 171.446 123.543 171.499 123.714 171.657C123.885 171.808 123.977 172.015 123.99 172.278C124.003 172.541 123.933 172.774 123.78 172.977C123.626 173.172 123.409 173.296 123.128 173.348C122.846 173.4 122.621 173.358 122.451 173.223C122.288 173.079 122.199 172.875 122.186 172.612Z" fill="black"/>
</svg>
