<svg width="266" height="258" viewBox="0 0 266 258" fill="none" xmlns="http://www.w3.org/2000/svg">
<circle r="76.2166" transform="matrix(0.866025 0.5 -0.866025 0.5 132.877 180.775)" fill="#00003C" stroke="#00003C"/>
<circle r="76.2166" transform="matrix(0.866025 0.5 -0.866025 0.5 132.949 170.438)" fill="white" stroke="#00003C"/>
<g filter="url(#filter0_d)">
<circle r="48.7758" transform="matrix(0.866025 0.5 -0.866025 0.5 132.114 169.648)" stroke="#00003C"/>
</g>
<g opacity="0.4">
<path d="M197.213 48.0647C197.95 52.8369 201.105 64.7092 214.251 72.9733C232.866 82.5177 245.802 95.0885 250.114 109.056C250.43 109.987 250.85 111.151 251.271 112.082C251.692 111.267 251.692 111.267 251.692 109.172V85.544C251.692 71.693 250.956 68.6667 250.114 64.8256C245.802 50.8582 232.866 38.2874 214.251 28.743C199.317 23.5052 195.741 38.9858 197.213 48.0647Z" fill="#0064FF"/>
<path d="M59.1543 23.0115C78.3847 15.2249 101.386 9.8326 126.256 8.14874C129.506 7.89813 132.766 7.76357 136.025 7.62901C158.006 8.15247 167.734 33.0855 155.486 45.2369C149.797 50.8121 142.562 51.3699 139.407 51.4963C136.148 51.6309 132.888 51.7655 129.638 52.0161C104.768 53.6999 81.7667 59.0922 62.5363 66.8788C43.0245 73.7531 40.1443 51.4442 46.0182 37.3327C48.0811 32.6207 51.915 26.2546 59.1543 23.0115Z" fill="#0064FF"/>
<path d="M0.753906 119.415C1.27976 112.431 1.70044 106.961 8.11584 97.3C21.6828 75.1848 18.9484 49.4614 11.4813 50.6254C10.3244 50.8582 9.06238 52.2549 8.11584 53.1861C3.59351 59.7042 0.964247 66.8044 0.753906 74.1373C0.753906 74.4865 0.753906 74.952 0.753906 75.3012V119.415Z" fill="#0064FF"/>
<path d="M15.3726 132.335C14.4261 140.366 10.6399 145.255 6.64346 139.202C1.4901 131.52 1.06942 123.954 0.753906 119.415V75.3011C0.753906 82.2849 2.85732 88.9194 6.64346 95.0884C15.0571 110.569 16.1088 125.817 15.3726 132.335Z" fill="#4F94FF"/>
<path d="M251.689 105.215C251.584 124.304 250.533 127.796 249.27 132.102C243.907 145.953 230.129 158.291 210.778 167.486C193.846 172.957 189.218 153.519 196.054 139.086C200.787 129.309 208.044 125.002 210.778 123.373C230.129 114.177 243.907 101.956 249.27 87.9884C249.691 87.0572 250.217 85.8932 250.743 84.9621C250.848 84.9621 251.058 84.9621 251.164 84.8457C251.479 85.8932 251.584 86.2424 251.689 91.4802V105.215Z" fill="#4F94FF"/>
</g>
<path d="M35.6964 87.1091C45.5876 103.8 78.6964 120.609 103.614 102.394" stroke="#00003C" stroke-width="8"/>
<path d="M44.0835 84.1042C45.7942 86.0878 46.475 88.1269 46.3392 90.004C46.2033 91.8825 45.2446 93.6663 43.5479 95.1296C41.8478 96.5958 39.7776 97.4195 37.7299 97.3992C35.6928 97.379 33.6422 96.524 31.9531 94.5655C30.25 92.5906 28.9924 89.4748 28.6039 86.4684C28.2114 83.4313 28.7266 80.7093 30.3074 79.3459C31.8664 78.0015 34.3529 78.0863 37.0385 79.139C39.6928 80.1793 42.3562 82.1013 44.0835 84.1042Z" fill="white" stroke="#00003C"/>
<rect width="54.7062" height="71.3977" transform="matrix(0.86601 0.500028 3.18351e-05 1 96.6013 87.6463)" fill="#F5F5F5"/>
<rect width="29.6692" height="71.3977" transform="matrix(0.86601 -0.500028 -3.18351e-05 1 143.989 115.001)" fill="#D8D8D8"/>
<rect width="29.6692" height="54.7062" transform="matrix(0.866041 -0.499972 0.866041 0.499972 96.6013 87.6515)" fill="white"/>
<rect width="29.6692" height="54.7062" transform="matrix(0.866041 -0.499972 0.866041 0.499972 96.6013 87.6515)" fill="white"/>
<rect width="54.7062" height="71.3977" transform="matrix(0.86601 0.500028 3.18351e-05 1 96.6013 87.6463)" stroke="#00003C" stroke-linejoin="bevel"/>
<rect width="29.6692" height="71.3977" transform="matrix(0.86601 -0.500028 -3.18351e-05 1 143.989 115.001)" stroke="#00003C" stroke-linejoin="bevel"/>
<rect width="29.6692" height="54.7062" transform="matrix(0.866041 -0.499972 0.866041 0.499972 96.6013 87.6515)" stroke="#00003C" stroke-linejoin="bevel"/>
<path d="M158.644 116.926C157.594 131.245 167.218 174.355 114.958 155.404" stroke="#00003C" stroke-width="8"/>
<rect x="0.433013" y="0.75" width="25.163" height="34.4845" rx="1.5" transform="matrix(0.866025 0.5 -2.20305e-08 1 88.2392 124.691)" fill="#0064FF" stroke="#00003C"/>
<path d="M114.432 146.42C116.942 147.169 118.614 148.52 119.511 150.175C120.409 151.83 120.563 153.85 119.922 155.997C119.28 158.148 117.98 159.957 116.244 161.044C114.518 162.124 112.329 162.509 109.851 161.77C107.352 161.024 104.614 159.077 102.666 156.754C100.699 154.407 99.6661 151.836 100.263 149.836C100.852 147.863 102.992 146.595 105.822 146.034C108.618 145.48 111.897 145.664 114.432 146.42Z" fill="white" stroke="#00003C"/>
<rect width="79.7433" height="46.3605" transform="matrix(0.86601 0.500028 3.18351e-05 1 75.283 45.9174)" fill="white"/>
<rect width="46.3605" height="46.3605" transform="matrix(0.86601 -0.500028 -3.18351e-05 1 144.35 85.7904)" fill="#F5F5F5"/>
<rect width="46.3605" height="79.7433" transform="matrix(0.866041 -0.499972 0.866041 0.499972 75.283 45.9225)" fill="white"/>
<rect width="79.7433" height="46.3605" transform="matrix(0.86601 0.500028 3.18351e-05 1 75.283 45.9174)" stroke="#00003C" stroke-linejoin="bevel"/>
<rect width="46.3605" height="46.3605" transform="matrix(0.86601 -0.500028 -3.18351e-05 1 144.35 85.7904)" stroke="#00003C" stroke-linejoin="bevel"/>
<rect width="46.3605" height="79.7433" transform="matrix(0.866041 -0.499972 0.866041 0.499972 75.283 45.9225)" stroke="#00003C" stroke-linejoin="bevel"/>
<rect width="57.8207" height="18.4719" rx="3" transform="matrix(0.866025 0.5 -2.20305e-08 1 82.7008 64.3079)" fill="#F5F5F5"/>
<rect width="5.5638" height="8.3457" transform="matrix(0.866025 0.5 -2.20305e-08 1 88.2661 72.8177)" fill="#00003C"/>
<rect width="5.5638" height="8.3457" transform="matrix(0.866025 0.5 -2.20305e-08 1 122.575 92.291)" fill="#00003C"/>
<path fill-rule="evenodd" clip-rule="evenodd" d="M168.512 80.6041C166.233 79.9934 163.566 80.8318 161.05 83.2642C156.019 88.1291 153.5 97.5275 155.425 104.256C156.388 107.621 158.279 109.68 160.558 110.291L166.495 111.882C168.775 112.493 171.442 111.654 173.958 109.222C178.989 104.357 181.507 94.9588 179.583 88.23C178.62 84.8657 176.729 82.8058 174.45 82.195L168.512 80.6041Z" fill="#00003C"/>
<circle r="6.66814" transform="matrix(0.258788 0.965934 -0.707084 0.707129 171.519 97.0706)" stroke="white"/>
<circle r="10.6779" transform="matrix(0.258788 0.965934 -0.707084 0.707129 170.772 97.1191)" stroke="white" stroke-width="2"/>
<path opacity="0.4" d="M133.536 140.215C130.367 140.332 127.197 140.332 124.028 140.332C98.8849 140.098 75.5376 136.001 56.0991 129.33C36.6606 123.595 35.4985 146.067 42.2597 159.996C47.1194 169.944 53.6693 172.637 56.0991 173.69C75.5376 180.479 98.8849 184.458 124.028 184.692C127.197 184.692 130.472 184.692 133.536 184.575C156.355 182.702 162.377 158.474 151.707 147.121C148.643 143.96 143.15 140.215 133.536 140.215Z" fill="#4F94FF"/>
<defs>
<filter id="filter0_d" x="53.764" y="120.805" width="156.701" height="105.687" filterUnits="userSpaceOnUse" color-interpolation-filters="sRGB">
<feFlood flood-opacity="0" result="BackgroundImageFix"/>
<feColorMatrix in="SourceAlpha" type="matrix" values="0 0 0 0 0 0 0 0 0 0 0 0 0 0 0 0 0 0 127 0"/>
<feOffset dy="4"/>
<feGaussianBlur stdDeviation="9"/>
<feColorMatrix type="matrix" values="0 0 0 0 0 0 0 0 0 0.392157 0 0 0 0 1 0 0 0 1 0"/>
<feBlend mode="normal" in2="BackgroundImageFix" result="effect1_dropShadow"/>
<feBlend mode="normal" in="SourceGraphic" in2="effect1_dropShadow" result="shape"/>
</filter>
</defs>
</svg>
