<svg width="116" height="258" viewBox="0 0 116 258" fill="none" xmlns="http://www.w3.org/2000/svg">
<path d="M20.1958 210.694L20.1958 210.694C29.7736 205.241 42.3978 202.5 55.0375 202.5C67.6771 202.5 80.3011 205.241 89.879 210.694C99.0855 215.942 104.037 222.819 104.037 229.996C104.037 237.172 99.0972 244.05 89.8792 249.297L89.8789 249.297C80.3011 254.756 67.6831 257.5 55.0375 257.5C42.3918 257.5 29.7738 254.756 20.196 249.297C10.9895 244.05 6.03748 237.172 6.03748 229.996C6.03748 222.819 10.9777 215.941 20.1958 210.694Z" stroke="#00003C"/>
<path d="M36.2362 220.044L36.2362 220.044C41.3246 217.348 48.0475 215.986 54.7918 215.986C61.536 215.986 68.2589 217.348 73.3473 220.044C78.2501 222.644 80.7982 226.005 80.7982 229.435C80.7982 232.865 78.2562 236.226 73.3474 238.826L73.3471 238.826C68.2588 241.525 61.5392 242.888 54.7918 242.888C48.0444 242.888 41.3248 241.525 36.2364 238.826L36.0022 239.268L36.2364 238.826C31.3335 236.226 28.7854 232.865 28.7854 229.435C28.7854 226.005 31.3274 222.644 36.2362 220.044Z" stroke="#00003C"/>
<path d="M0.00511563 138.804V59.6712L29.513 39.0769C44.4068 28.681 59.427 20.0461 74.3208 13.3252L103.838 0L115.753 6.94561L102.565 16.461V78.4054C102.565 78.4054 104.181 128.903 50.6532 187.181C43.7659 187.603 37.7993 187.091 32.6181 185.905L33.5027 188.771L23.0229 182.626C22.1202 182.14 21.2536 181.628 20.4142 181.098L20.2698 181.008C-0.870464 167.396 0.00511563 138.804 0.00511563 138.804Z" fill="#00003C"/>
<path d="M51.9801 24.7814C59.436 20.4954 66.901 16.6677 74.3299 13.3162L103.838 0L115.753 6.94561L102.565 16.461V53.8577L51.9801 24.7904V24.7814Z" fill="#00003C"/>
<path d="M62.2613 19.1835L87.1295 33.4701L66.6482 45.2408L41.771 30.9453C48.5951 26.6413 55.4372 22.7148 62.2613 19.1746V19.1835Z" fill="#00003C"/>
<path d="M86.4416 20.7264L86.4415 20.7265C71.5789 27.4334 56.5855 36.0523 41.7142 46.4325L41.428 46.0225L41.7142 46.4325L12.4202 66.8775V145.25H12.4449L12.429 145.765L12.4091 145.765C12.429 145.765 12.429 145.765 12.429 145.766L12.4289 145.767L12.4288 145.773L12.4281 145.799C12.4276 145.823 12.4268 145.859 12.4262 145.907C12.4248 146.003 12.4235 146.147 12.4241 146.336C12.4253 146.712 12.434 147.267 12.4639 147.972C12.5237 149.384 12.6684 151.4 13.0082 153.81C13.6883 158.634 15.1477 165.021 18.2602 171.3C21.3713 177.576 26.129 183.734 33.4062 188.126C40.6447 192.494 50.4133 195.137 63.6094 194.367C90.2285 165.341 103.137 138.271 109.393 118.462C112.526 108.539 113.991 100.436 114.672 94.8194C115.013 92.011 115.158 89.8242 115.218 88.3423C115.248 87.6013 115.257 87.0366 115.258 86.6585C115.258 86.4695 115.257 86.3271 115.256 86.2328C115.255 86.1856 115.254 86.1504 115.254 86.1273L115.253 86.1019L115.253 86.096L115.253 86.0948C115.253 86.0948 115.253 86.0948 115.254 86.0948L115.253 86.0948L115.253 86.0868V86.0788V7.71987L86.4416 20.7264Z" fill="#F5F5F5" stroke="black"/>
<path d="M22.6562 157.114C24.0611 163.28 26.9142 170.78 32.6857 176.429H32.6938L32.8391 176.569C39.1147 182.632 48.0606 185.715 59.526 185.632C106.871 132.446 106.36 86.7058 106.353 86.3679H106.353V86.3574V21.4583L90.1154 28.7863C90.1154 28.7863 90.1154 28.7863 90.1154 28.7863C75.7763 35.2596 61.2071 43.6359 46.8141 53.6748L21.3113 71.478V146.02V146.032L21.3108 146.043C21.3108 146.043 21.3108 146.044 21.3107 146.048C21.3105 146.065 21.3093 146.138 21.3098 146.269C21.3104 146.419 21.313 146.637 21.3206 146.916C21.3359 147.473 21.3715 148.275 21.4515 149.269C21.6115 151.257 21.949 154.01 22.6562 157.114Z" fill="white" stroke="#00003C"/>
<path fill-rule="evenodd" clip-rule="evenodd" d="M82.4712 94.4925L90.4053 89.9118L90.4053 65.4407L82.4712 70.0214L82.4712 94.4608L82.4712 94.4925ZM81.6384 62.8775C81.6384 64.5272 82.104 65.5486 83.0264 65.9467C83.9488 66.3448 85.095 66.1589 86.4472 65.3782C87.7994 64.5975 88.9456 63.4704 89.868 61.9967C90.7903 60.523 91.247 58.9691 91.247 57.3299C91.247 55.6908 90.7903 54.6008 89.868 54.2027C88.9456 53.7941 87.7994 53.9905 86.4472 54.7712C85.095 55.5519 83.9488 56.679 83.0264 58.1527C82.104 59.6264 81.6384 61.2066 81.6384 62.8775ZM79.2295 95.5816L79.2295 89.4585C78.1907 90.5024 77.2236 91.4097 76.3191 92.1646C75.4147 92.93 74.4923 93.5789 73.5431 94.1269C72.5939 94.6749 71.77 95.0131 70.9731 95.1877C70.1761 95.3623 69.4776 95.3532 68.8865 95.1339C68.2955 94.9252 67.8209 94.5013 67.4717 93.8569C67.1224 93.2231 66.9433 92.3536 66.9433 91.2432C66.9433 89.0964 67.4985 87.1155 68.6268 85.3114C69.7462 83.5124 71.1969 82.0932 72.979 81.0643C74.0894 80.4233 75.1281 79.9927 76.0953 79.7833C77.0714 79.5582 77.9489 79.4851 78.728 79.5535L78.728 72.9968C77.743 73.1425 77.7161 73.1157 76.4624 73.5117C75.2177 73.9131 73.7849 74.6875 72.2536 75.5716C70.2566 76.7245 68.4298 78.0859 66.7732 79.6346C65.1165 81.1939 63.6837 82.8777 62.4838 84.6809C61.2838 86.4841 60.3525 88.3542 59.6898 90.2914C59.0272 92.2391 58.6958 94.1542 58.6958 96.0366C58.6958 97.919 59.0092 99.5041 59.6271 100.712C60.245 101.91 61.1495 102.71 62.3405 103.112C63.5315 103.513 64.9822 103.511 66.6926 103.116C68.4119 102.715 70.3552 101.89 72.5402 100.628C74.0804 99.7388 75.4595 98.8051 76.6684 97.8322C77.8863 96.8541 77.9848 96.7444 79.2295 95.5921L79.2295 95.5816ZM57.1466 93.0287C57.1466 90.2157 56.1616 88.6905 54.1825 88.4478C52.2124 88.1999 49.4901 89.0842 46.0335 91.0799L36.8279 96.3948L36.8279 120.834L44.7261 116.274L44.7261 108.945L45.9619 108.232C47.6365 107.265 49.1678 106.201 50.5468 105.035C51.9259 103.879 53.1079 102.647 54.093 101.338C55.078 100.039 55.8392 98.6799 56.3765 97.2699C56.9227 95.8547 57.1914 94.4306 57.1914 92.9923L57.1466 93.0287ZM49.6066 97.4666C49.6066 98.6193 49.2573 99.6775 48.5588 100.62C47.8603 101.563 46.8574 102.417 45.541 103.177L44.6545 103.689L44.6545 97.132L45.6216 96.5736C48.2812 95.0381 49.6066 95.341 49.6066 97.456L49.6066 97.4666Z" fill="#0064FF"/>
<path d="M48.268 130.104C48.2035 129.323 47.9168 128.852 47.4079 128.692C46.9054 128.521 46.187 128.705 45.2529 129.244C44.6344 129.602 44.119 129.992 43.7067 130.416C43.2943 130.84 42.9851 131.275 42.7789 131.722C42.5728 132.161 42.4665 132.59 42.46 133.011C42.4471 133.36 42.5051 133.628 42.634 133.814C42.7693 133.996 42.9625 134.115 43.2138 134.171C43.4715 134.216 43.7807 134.208 44.1415 134.149C44.5023 134.089 44.9082 133.985 45.3592 133.836L47.06 133.301C48.0392 132.981 48.9025 132.81 49.6499 132.787C50.4036 132.761 51.035 132.884 51.544 133.156C52.0594 133.423 52.4491 133.849 52.7133 134.433C52.9774 135.017 53.1127 135.765 53.1192 136.676C53.1127 138.123 52.797 139.544 52.1721 140.939C51.5472 142.334 50.6485 143.645 49.4759 144.872C48.3098 146.096 46.9021 147.184 45.2529 148.136C43.5971 149.092 42.154 149.639 40.9235 149.777C39.693 149.914 38.7363 149.596 38.0534 148.822C37.3704 148.049 37.0193 146.775 37 145.001L41.5806 142.356C41.6193 143.07 41.79 143.585 42.0928 143.901C42.3956 144.218 42.8111 144.35 43.3394 144.298C43.8742 144.242 44.4926 144.011 45.1949 143.606C45.8391 143.234 46.3867 142.817 46.8377 142.356C47.2951 141.891 47.6463 141.409 47.8911 140.911C48.1359 140.413 48.2615 139.931 48.268 139.466C48.2615 139.038 48.1455 138.737 47.9201 138.562C47.6946 138.38 47.3467 138.313 46.8764 138.361C46.4125 138.398 45.8198 138.529 45.0982 138.752L43.0302 139.388C41.3165 139.923 39.9668 139.97 38.9811 139.527C37.9954 139.077 37.5057 137.984 37.5122 136.247C37.5057 134.837 37.8343 133.409 38.4979 131.962C39.1615 130.515 40.0795 129.155 41.2521 127.883C42.4246 126.611 43.7614 125.542 45.2625 124.675C46.7958 123.79 48.1262 123.323 49.2537 123.275C50.3875 123.215 51.2669 123.544 51.8919 124.262C52.5168 124.98 52.8357 126.046 52.8486 127.459L48.268 130.104Z" fill="#00003C"/>
<path d="M66.2329 119.732C66.1685 118.95 65.8818 118.48 65.3728 118.32C64.8703 118.149 64.152 118.333 63.2178 118.872C62.5993 119.229 62.0839 119.62 61.6716 120.044C61.2593 120.468 60.95 120.903 60.7439 121.35C60.5377 121.789 60.4314 122.218 60.425 122.638C60.4121 122.988 60.4701 123.256 60.5989 123.442C60.7342 123.624 60.9275 123.743 61.1787 123.799C61.4364 123.844 61.7457 123.836 62.1065 123.777C62.4672 123.717 62.8731 123.613 63.3241 123.464L65.0249 122.929C66.0042 122.609 66.8675 122.438 67.6148 122.415C68.3686 122.389 69 122.512 69.5089 122.784C70.0243 123.051 70.4141 123.477 70.6782 124.061C70.9424 124.645 71.0777 125.393 71.0841 126.304C71.0777 127.751 70.762 129.172 70.1371 130.567C69.5121 131.962 68.6134 133.273 67.4409 134.5C66.2748 135.724 64.8671 136.812 63.2178 137.764C61.5621 138.72 60.119 139.267 58.8884 139.405C57.6579 139.542 56.7012 139.224 56.0183 138.45C55.3354 137.677 54.9843 136.403 54.9649 134.629L59.5456 131.984C59.5842 132.698 59.7549 133.213 60.0577 133.529C60.3605 133.846 60.7761 133.978 61.3044 133.926C61.8391 133.87 62.4576 133.639 63.1598 133.234C63.8041 132.862 64.3517 132.445 64.8027 131.984C65.2601 131.519 65.6112 131.037 65.856 130.539C66.1008 130.04 66.2265 129.559 66.2329 129.094C66.2265 128.666 66.1105 128.365 65.885 128.19C65.6595 128.008 65.3116 127.941 64.8413 127.989C64.3775 128.026 63.7847 128.156 63.0632 128.38L60.9951 129.016C59.2814 129.551 57.9317 129.598 56.946 129.155C55.9603 128.705 55.4707 127.612 55.4771 125.875C55.4707 124.465 55.7992 123.036 56.4628 121.59C57.1264 120.143 58.0445 118.783 59.217 117.511C60.3895 116.239 61.7264 115.17 63.2275 114.303C64.7608 113.418 66.0912 112.951 67.2186 112.902C68.3525 112.843 69.2319 113.172 69.8568 113.89C70.4817 114.608 70.8006 115.674 70.8135 117.087L66.2329 119.732Z" fill="#00003C"/>
<path d="M91.465 106.592L86.6331 109.382C86.5687 108.846 86.4366 108.405 86.2369 108.06C86.0372 107.714 85.773 107.472 85.4445 107.334C85.1159 107.197 84.7261 107.172 84.2751 107.262C83.8306 107.34 83.3378 107.535 82.7966 107.848C81.8367 108.402 81.0088 109.151 80.313 110.096C79.6237 111.037 79.0921 112.129 78.7185 113.371C78.3513 114.61 78.1676 115.958 78.1676 117.416C78.1676 118.934 78.3545 120.098 78.7281 120.909C79.1083 121.709 79.6398 122.172 80.3227 122.298C81.012 122.413 81.827 122.2 82.7676 121.657C83.2959 121.351 83.7759 120.996 84.2075 120.591C84.6456 120.182 85.0289 119.733 85.3575 119.246C85.6925 118.748 85.9663 118.221 86.1789 117.667C86.398 117.102 86.5494 116.52 86.6331 115.921L91.465 113.165C91.3812 114.225 91.1268 115.369 90.7016 116.596C90.2828 117.82 89.7062 119.049 88.9717 120.284C88.2373 121.511 87.3418 122.668 86.2852 123.754C85.2351 124.837 84.0303 125.77 82.671 126.555C80.8799 127.589 79.2758 128.062 77.8584 127.972C76.4475 127.872 75.3329 127.184 74.5147 125.908C73.6965 124.632 73.2874 122.741 73.2874 120.234C73.2874 117.719 73.703 115.348 74.5341 113.12C75.3652 110.892 76.4894 108.915 77.9067 107.189C79.3241 105.463 80.9122 104.093 82.671 103.077C83.8693 102.385 84.9774 101.939 85.9953 101.738C87.0132 101.53 87.9087 101.571 88.6818 101.861C89.4549 102.144 90.0831 102.677 90.5663 103.462C91.0494 104.247 91.349 105.29 91.465 106.592Z" fill="#00003C"/>
</svg>
