<svg width="189" height="203" viewBox="0 0 189 203" fill="none" xmlns="http://www.w3.org/2000/svg">
<path d="M9.37157 47.835L9.37158 47.8349C9.51524 45.9573 10.674 44.2906 12.4116 43.4764L12.4116 43.4764L95.2554 4.65204C96.7746 3.94026 98.5414 3.97297 100.024 4.73842L180.955 46.5453L181.184 46.1011L180.955 46.5453C182.649 47.4206 183.727 49.1253 183.782 51.0056C183.815 52.1547 184.499 80.0644 174.084 112.261C167.924 131.305 159.138 147.864 147.978 161.485C133.916 178.646 116.071 191.133 94.9328 198.603C94.3161 198.82 93.6709 198.923 93.0279 198.911C92.3847 198.9 91.7453 198.773 91.14 198.534C70.3751 190.302 53.1395 177.177 39.9045 159.519C29.4001 145.505 21.4075 128.641 16.1556 109.389C7.27733 76.8424 9.28358 48.9819 9.37157 47.835ZM8.87304 47.7967C9.03069 45.7362 10.3016 43.9129 12.1995 43.0237L8.87304 47.7967Z" fill="#00003C" stroke="#00003C"/>
<path d="M6.13923 48.3034L6.13924 48.3033C6.28033 46.4594 7.41834 44.8224 9.12495 44.0228L9.12498 44.0228L90.6162 5.83228C92.1083 5.1332 93.8436 5.16533 95.2993 5.91712L174.909 47.0415L175.139 46.5972L174.909 47.0415C176.574 47.9011 177.632 49.5753 177.685 51.4219C177.718 52.5518 178.391 80.0048 168.147 111.674C162.087 130.407 153.446 146.694 142.468 160.092C128.636 176.972 111.085 189.254 90.2927 196.601C89.6869 196.815 89.0533 196.916 88.4217 196.904C87.7901 196.893 87.162 196.769 86.5675 196.534C66.1431 188.437 49.1901 175.526 36.172 158.159C25.8398 144.374 17.9781 127.786 12.8123 108.85C4.07927 76.8358 6.05271 49.4312 6.13923 48.3034Z" fill="white" stroke="#00003C"/>
<path d="M27.0454 61.2913L27.0455 61.2912C27.1484 59.9454 27.9792 58.7492 29.2271 58.1645L29.2271 58.1645L90.6927 29.3589C90.6927 29.3589 90.6927 29.3589 90.6927 29.3589C91.7838 28.8477 93.0525 28.8714 94.1164 29.4208C94.1164 29.4208 94.1164 29.4208 94.1164 29.4208L154.163 60.4393L154.392 59.995L154.163 60.4393C155.379 61.0674 156.152 62.2901 156.191 63.6376C156.215 64.4835 156.722 85.1743 149.002 109.042C144.436 123.159 137.924 135.43 129.655 145.522C119.237 158.236 106.017 167.487 90.3556 173.021C89.9126 173.178 89.4493 173.251 88.9876 173.243C88.5257 173.235 88.0666 173.144 87.632 172.972C72.2475 166.873 59.479 157.149 49.6738 144.068C41.8911 133.685 35.9675 121.188 32.0747 106.918C25.493 82.7899 26.9807 62.1356 27.0454 61.2913ZM26.5469 61.2531C26.6639 59.7243 27.6068 58.3715 29.0149 57.7117L26.5469 61.2531Z" fill="#F5F5F5" stroke="#00003C"/>
<path fill-rule="evenodd" clip-rule="evenodd" d="M149.372 70.2314L158.639 104.64C158.992 105.944 158.14 107.361 156.731 107.814L136.423 114.34C135.013 114.794 133.592 114.108 133.239 112.804L132.949 111.729C131.829 112.432 130.878 113.188 130.18 113.995C129.027 115.328 126.414 117.338 122.979 119.665C123.177 121.506 122.349 123.378 120.702 124.613C118.77 126.061 116.34 126.765 113.959 126.528C112.596 134.379 104.972 131.324 104.972 131.324C104.718 136.916 97.9198 136.2 96.4867 135.987L96.0424 136.257C93.4467 140.619 90.0337 139.899 88.1404 139.013C87.0272 139.463 86.063 139.807 85.2837 140.025C78.0598 142.044 76.3689 138.391 76.0091 137.144L75.7316 137.378L75.4209 137.006C68.2574 140.578 67.0914 134.984 66.9042 133.299L66.5816 132.914C55.7671 135.542 56.9992 128.517 57.1749 127.707L57.0793 127.654L57.0921 127.634L57.1003 127.621C53.1449 127.158 52.0876 124.94 52.0443 122.816C52.0371 120.778 52.9499 118.778 54.5137 117.344L47.2066 113.353L32.6763 106.492L55.1779 77.185L63.1483 81.1539C64.1621 81.6472 65.38 81.6751 66.442 81.2293C70.9159 79.3994 82.8646 74.633 86.8846 74.9862C89.538 75.2138 93.0871 77.2896 96.4118 79.2342L96.412 79.2343L96.413 79.2349L96.4132 79.235L96.4133 79.2351L96.4138 79.2354C97.3027 79.7553 98.1755 80.2658 99.0109 80.7291L124.469 80.3336L123.945 78.3944C123.592 77.0904 124.443 75.6739 125.853 75.2203L146.189 68.6951C147.598 68.2416 149.019 68.9274 149.372 70.2314Z" fill="#00003C"/>
<path d="M51.103 114.853L94.6538 78.8033L120.416 78.4206L130.233 75.4937L138.563 72.4089L148.512 103.155C148.512 103.155 131.101 106.288 126.223 111.931C121.344 117.575 90.1021 135.418 81.4883 137.814C72.8745 140.211 72.1245 134.546 72.1245 134.546C63.2949 139.278 63.0717 130.653 63.0717 130.653C51.3092 133.624 53.3888 125.46 53.3888 125.46C49.3616 125.02 48.2813 122.793 48.2296 120.663C48.2133 118.455 49.2857 116.293 51.103 114.853Z" fill="white" stroke="#00003C" stroke-miterlimit="10"/>
<path d="M118.945 117.432C118.945 117.432 116.484 112.97 112.85 113.119C109.637 113.252 106.498 115.967 107.873 119.726C107.873 119.726 103.182 114.56 98.6834 117.92C98.6834 117.92 95.2253 120.445 96.5426 123.525C96.5426 123.525 93.8266 119.813 90.5072 121.637C86.5753 123.812 88.7899 127.877 88.7899 127.877C88.7899 127.877 83.6464 125.984 81.7286 130.526C80.4981 133.416 82.8316 135.972 82.8316 135.972C82.8316 135.972 88.5427 140.563 92.309 133.771C92.309 133.771 100.76 135.403 101.028 129.181C101.028 129.181 108.643 132.227 109.983 124.414C112.36 124.652 114.783 123.954 116.707 122.513C118.394 121.25 119.215 119.315 118.945 117.432Z" fill="white" stroke="#00003C" stroke-miterlimit="10"/>
<path d="M51.3368 75.259L59.2984 79.2144C60.3111 79.7059 61.5262 79.7346 62.5845 79.2919C67.043 77.4743 78.951 72.7406 82.9623 73.0951C87.9361 73.5242 96.0799 80.4459 99.9531 80.7971C103.552 81.1158 100.58 90.0877 104.404 96.6997C105.017 97.7015 104.89 98.9716 104.097 99.9143C102.03 102.282 97.6976 105.661 92.5073 100.94C85.1972 94.3238 85.8807 89.8449 85.8807 89.8449L51.7026 115.723L43.478 111.242L28.9646 104.404L51.3368 75.259Z" fill="white" stroke="#00003C" stroke-miterlimit="10"/>
<path d="M60.0768 75.056L42.7271 65.4499C41.5258 64.7965 39.9038 65.2171 39.1099 66.4168L17.8049 98.1234C17.0111 99.323 17.3176 100.832 18.5189 101.485L35.8686 111.091C37.0699 111.745 38.6919 111.324 39.4858 110.124L60.7908 78.4176C61.5847 77.218 61.2781 75.7095 60.0768 75.056Z" fill="#0064FF" stroke="#00003C" stroke-miterlimit="10"/>
<path d="M154.604 102.605L145.212 68.3334C144.854 67.0346 143.43 66.3508 142.022 66.8017L121.709 73.2887C120.301 73.7396 119.454 75.1498 119.812 76.4486L129.232 110.721C129.59 112.019 131.013 112.703 132.421 112.252L152.707 105.765C154.115 105.314 154.962 103.904 154.604 102.605Z" fill="#D8D8D8" stroke="#00003C" stroke-miterlimit="10"/>
<path d="M67.811 114.372C67.811 114.372 55.1901 123.405 53.7276 125.752" stroke="#00003C" stroke-miterlimit="10"/>
<path d="M75.5138 120.292L62.9204 130.936" stroke="#00003C" stroke-miterlimit="10"/>
<path d="M81.5697 126.424L71.5829 134.846" stroke="#00003C" stroke-miterlimit="10"/>
<path d="M107.815 119.528L109.826 124.29" stroke="#00003C" stroke-miterlimit="10"/>
<path d="M97.003 124.126L100.951 129.231" stroke="#00003C" stroke-miterlimit="10"/>
<path d="M88.9475 128.046L92.3136 133.99" stroke="#00003C" stroke-miterlimit="10"/>
</svg>
