<svg width="223" height="312" viewBox="0 0 223 312" fill="none" xmlns="http://www.w3.org/2000/svg">
<path fill-rule="evenodd" clip-rule="evenodd" d="M130.442 221.484C128.542 218.216 124.624 217.111 122.679 219.295L121.941 220.123C120.777 221.43 118.786 221.621 116.899 220.606L115.703 219.963C112.551 218.268 109.528 220.038 109.714 223.471L109.784 224.772C109.896 226.827 108.824 228.429 107.07 228.831L105.959 229.085C103.029 229.756 102.316 233.573 104.546 236.649L105.391 237.814C106.726 239.656 107.075 241.92 106.275 243.55L105.769 244.583C104.432 247.306 106.362 251.384 109.593 252.663L110.76 253.124C110.661 253.178 110.578 253.255 110.515 253.353L100.177 269.522C99.8009 270.111 100.31 271.101 101.072 271.261L107.917 272.702C108.271 272.777 108.609 273.052 108.794 273.418L112.208 280.138C112.591 280.892 113.502 281.125 113.864 280.562L124.937 263.347C124.941 263.34 124.946 263.333 124.95 263.326C125.409 263.327 125.883 263.404 126.354 263.551C126.36 263.7 126.398 263.859 126.472 264.019L137.085 287.111C137.437 287.876 138.347 288.156 138.741 287.621L142.248 282.853C142.44 282.594 142.78 282.51 143.134 282.635L149.97 285.052C150.731 285.321 151.255 284.623 150.89 283.825L141.027 262.268C140.944 262.087 140.826 261.928 140.686 261.801C141.009 261.78 141.347 261.797 141.694 261.855L142.921 262.062C146.158 262.607 148.146 259.634 146.86 256.171L146.373 254.859C145.603 252.786 145.987 250.728 147.346 249.647L148.207 248.962C150.477 247.156 149.83 242.955 146.924 240.639L145.823 239.76C144.083 238.373 143.043 236.175 143.187 234.193L143.279 232.937C143.52 229.625 140.54 226.162 137.374 226.075L136.174 226.042C134.278 225.99 132.3 224.68 131.162 222.723L130.442 221.484Z" fill="#00003C"/>
<path d="M222.413 68.5153C179.766 59.3612 178.543 109.572 178.543 109.572L177.129 281.847L5.99157 233.581L7.40477 61.306C7.40477 61.306 7.62217 10.9815 51.4897 20.3099L222.415 68.516L222.413 68.5153Z" fill="#00003C"/>
<path d="M45.7079 13.0667L207.256 58.6281C191.581 58.3628 182.856 67.3487 178.028 77.1208C175.177 82.8917 173.677 88.9444 172.889 93.549C172.495 95.8528 172.278 97.7982 172.16 99.1702C172.101 99.8563 172.066 100.399 172.046 100.773C172.036 100.959 172.03 101.103 172.026 101.202C172.025 101.251 172.023 101.288 172.023 101.314L172.022 101.344L172.021 101.352L172.021 101.355C172.021 101.355 172.021 101.356 172.743 101.572L172.021 101.356L172.021 101.368L170.614 272.893L0.919816 225.034L2.32688 53.5096L2.32689 53.5066L2.32689 53.5066L2.3269 53.5056L2.32694 53.5001L2.32717 53.4755C2.32743 53.4532 2.32789 53.419 2.32873 53.3734C2.33041 53.2822 2.3336 53.1454 2.33962 52.9662C2.35165 52.6078 2.375 52.0803 2.42021 51.4103C2.51064 50.0701 2.68846 48.1614 3.03786 45.898C3.73716 41.3681 5.12121 35.4342 7.85643 29.7961C13.3134 18.5475 24.1281 8.48689 45.7079 13.0667Z" fill="white" stroke="#00003C" stroke-width="1.5" stroke-linejoin="round"/>
<path d="M51.541 116.793L26.7195 109.793L26.9315 83.9536L51.7529 90.9539L51.541 116.793Z" stroke="#00003C" stroke-width="1.5"/>
<path d="M41.0618 108.972L29.5086 96.3465L33.0274 93.0679L41.3492 102.162L59.7766 89.3758L62.9729 93.7699L41.0618 108.972Z" fill="#0064FF"/>
<path d="M143.91 119.959L73.1411 100L73.0929 105.882L143.862 125.841L143.91 119.959Z" fill="#F5F5F5"/>
<path d="M143.809 132.311L73.0398 112.352L72.9915 118.235L143.76 138.193L143.809 132.311Z" fill="#F5F5F5"/>
<path d="M51.541 155.36L26.7195 148.359L26.9315 122.52L51.7529 129.521L51.541 155.36Z" stroke="#00003C" stroke-width="1.5"/>
<path d="M41.0618 147.539L29.5086 134.913L33.0274 131.635L41.3493 140.728L59.7767 127.942L62.973 132.337L41.0618 147.539Z" fill="#0064FF"/>
<path d="M143.91 158.526L73.1412 138.567L73.0929 144.449L143.862 164.408L143.91 158.526Z" fill="#F5F5F5"/>
<path d="M143.809 170.878L73.0398 150.919L72.9916 156.801L143.76 176.76L143.809 170.878Z" fill="#F5F5F5"/>
<path d="M51.541 193.36L26.7195 186.359L26.9315 160.52L51.7529 167.521L51.541 193.36Z" stroke="#00003C" stroke-width="1.5"/>
<path d="M41.0618 185.539L29.5086 172.913L33.0274 169.635L41.3493 178.728L59.7767 165.942L62.973 170.337L41.0618 185.539Z" fill="#0064FF"/>
<path d="M143.91 196.526L73.1412 176.567L73.0929 182.449L143.862 202.408L143.91 196.526Z" fill="#F5F5F5"/>
<path d="M143.809 208.878L73.0398 188.919L72.9916 194.801L143.76 214.76L143.809 208.878Z" fill="#F5F5F5"/>
<path d="M144.635 279.492L134.773 257.936C134.546 257.441 134.051 257.108 133.605 257.152L120.739 258.404C120.181 258.458 119.933 259.068 120.217 259.687L130.831 282.779C131.182 283.543 132.093 283.824 132.487 283.289L135.994 278.521C136.185 278.261 136.526 278.177 136.88 278.302L143.716 280.72C144.477 280.989 145 280.29 144.635 279.492Z" fill="white" stroke="#00003C" stroke-width="1.5" stroke-linecap="round"/>
<path d="M93.923 265.19L104.26 249.021C104.41 248.787 104.676 248.674 104.977 248.716L110.057 249.434C110.299 249.468 110.542 249.599 110.74 249.8L118.408 257.629C118.808 258.038 118.926 258.636 118.683 259.015L107.61 276.23C107.248 276.793 106.336 276.56 105.953 275.806L102.54 269.086C102.354 268.72 102.017 268.444 101.662 268.37L94.8181 266.929C94.0561 266.769 93.5466 265.779 93.923 265.19Z" fill="white" stroke="#00003C" stroke-width="1.5" stroke-linecap="round"/>
<path d="M123.602 217.431C121.987 214.653 118.656 213.713 117.003 215.57L116.266 216.398C114.926 217.901 112.637 218.121 110.466 216.953L109.271 216.311C106.591 214.87 104.022 216.374 104.18 219.292L104.251 220.593C104.379 222.957 103.147 224.799 101.129 225.261L100.018 225.516C97.5277 226.086 96.9214 229.331 98.8171 231.945L99.6625 233.11C101.198 235.228 101.599 237.831 100.679 239.706L100.173 240.739C99.0365 243.054 100.677 246.52 103.423 247.607L104.648 248.092C106.872 248.972 108.719 251.119 109.327 253.53L109.662 254.857C110.412 257.833 113.532 259.899 115.843 258.951L116.874 258.528C118.747 257.759 121.175 258.444 123.027 260.263L124.046 261.264C126.331 263.509 129.471 263.208 130.266 260.668L130.621 259.535C131.265 257.477 133.139 256.38 135.367 256.755L136.594 256.962C139.346 257.425 141.035 254.898 139.942 251.955L139.455 250.642C138.57 248.258 139.012 245.892 140.575 244.649L141.436 243.964C143.365 242.429 142.815 238.858 140.345 236.889L139.244 236.011C137.243 234.416 136.047 231.888 136.213 229.608L136.305 228.352C136.51 225.537 133.977 222.593 131.286 222.519L130.085 222.487C127.906 222.427 125.631 220.92 124.322 218.67L123.602 217.431Z" fill="white" stroke="#00003C" stroke-width="1.5"/>
<path d="M123.236 224.097C121.73 221.508 118.627 220.633 117.087 222.363C116.164 223.399 114.588 223.55 113.093 222.746C110.595 221.403 108.201 222.805 108.349 225.524C108.437 227.151 107.588 228.421 106.199 228.739C103.878 229.27 103.313 232.293 105.079 234.729C106.137 236.187 106.413 237.981 105.78 239.272C104.721 241.429 106.25 244.659 108.809 245.672C110.341 246.278 111.613 247.757 112.031 249.417C112.73 252.19 115.638 254.116 117.792 253.232C119.081 252.703 120.754 253.174 122.029 254.427C124.158 256.519 127.084 256.238 127.825 253.871C128.269 252.454 129.559 251.698 131.094 251.957C133.657 252.389 135.232 250.034 134.214 247.291C133.604 245.649 133.909 244.02 134.985 243.163C136.783 241.733 136.27 238.406 133.969 236.571C132.591 235.472 131.767 233.731 131.882 232.161C132.073 229.537 129.713 226.794 127.205 226.726C125.704 226.685 124.137 225.647 123.236 224.097Z" fill="#0064FF"/>
<path d="M39.2109 49.7451C39.1298 48.7745 38.7544 47.9368 38.0847 47.232C37.415 46.5272 36.5025 46.02 35.3471 45.7104C34.562 45.5 33.8981 45.4398 33.3555 45.5296C32.813 45.6117 32.3956 45.8174 32.1035 46.1469C31.8187 46.4783 31.6742 46.9023 31.6699 47.4187C31.6516 47.845 31.7337 48.2434 31.9162 48.6138C32.1061 48.9862 32.3668 49.3344 32.6982 49.6584C33.0296 49.9747 33.4131 50.2774 33.8487 50.5666C34.2843 50.848 34.7497 51.1139 35.245 51.3642L37.285 52.4283C38.2755 52.929 39.1839 53.486 40.0102 54.0995C40.8365 54.713 41.551 55.3867 42.1537 56.1206C42.7563 56.8545 43.2211 57.6534 43.548 58.5173C43.8824 59.3832 44.0491 60.3179 44.0483 61.3214C44.0289 62.7904 43.6629 63.9705 42.9504 64.8617C42.2454 65.747 41.2313 66.3104 39.9081 66.5518C38.5923 66.7874 37.0086 66.6571 35.157 66.1609C33.3202 65.6688 31.7229 64.9428 30.365 63.983C29.0145 63.0252 27.9626 61.8611 27.2093 60.4909C26.4634 59.1149 26.0791 57.5573 26.0563 55.8182L30.7112 57.0655C30.7564 57.8853 30.9694 58.6167 31.3501 59.2598C31.7383 59.897 32.2571 60.4399 32.9067 60.8884C33.5637 61.331 34.3069 61.6635 35.1364 61.8857C35.9511 62.104 36.6595 62.1684 37.2615 62.0788C37.8708 61.9911 38.344 61.769 38.681 61.4123C39.0179 61.0556 39.1888 60.5878 39.1935 60.0088C39.1979 59.4689 39.0498 58.9744 38.7492 58.5253C38.4559 58.0782 38.0215 57.6481 37.4459 57.2351C36.8778 56.8241 36.1798 56.4019 35.352 55.9683L32.8799 54.6473C30.9657 53.6403 29.4574 52.4638 28.355 51.1177C27.2527 49.7715 26.7125 48.2114 26.7344 46.4373C26.739 44.98 27.116 43.8068 27.8656 42.9177C28.6226 42.0306 29.6553 41.4565 30.9639 41.1955C32.2724 40.9345 33.7562 41.0262 35.4152 41.4708C37.1039 41.9232 38.5753 42.6233 39.8294 43.571C41.0909 44.5206 42.069 45.6335 42.7637 46.9096C43.4584 48.1857 43.8109 49.5427 43.8214 50.9804L39.2109 49.7451Z" fill="#00003C"/>
<path d="M47.2277 69.0542L47.4249 45.0181L52.2354 46.307L52.0726 66.1532L61.8269 68.7669L61.7925 72.9568L47.2277 69.0542Z" fill="#00003C"/>
<path d="M69.4804 75.0167L64.3255 73.6355L72.3772 51.704L78.5764 53.3651L86.2227 79.5028L81.0678 78.1216L75.5206 58.051L75.3429 58.0034L69.4804 75.0167ZM69.2357 65.4826L81.4119 68.7452L81.3794 72.7121L69.2032 69.4495L69.2357 65.4826Z" fill="#00003C"/>
</svg>
