<svg width="399" height="344" viewBox="0 0 399 344" fill="none" xmlns="http://www.w3.org/2000/svg">
<rect x="-2.98023e-08" y="0.5" width="127.018" height="127.018" transform="matrix(0.866025 0.5 -0.866025 0.5 288.3 0.25)" stroke="#00003C"/>
<rect width="90.8834" height="90.8834" transform="matrix(0.866025 0.5 -0.866025 0.5 287.867 18.5671)" fill="#00003C"/>
<path d="M249.062 70.9661C248.411 69.8754 247.901 68.7547 247.577 67.6072L259.665 64.3353C259.682 65.5375 259.995 66.72 260.548 67.8581L249.063 70.9667L249.062 70.9661ZM298.062 53.9409L310.153 50.6674C311.454 51.5497 312.606 52.4985 313.631 53.4883L302.143 56.5969C301 55.62 299.636 54.7209 298.062 53.9409" fill="white"/>
<path d="M266.098 58.2444C265.108 59.8052 264.676 61.4031 264.695 62.9737L252.607 66.2456C251.638 62.8459 252.123 59.258 254.324 55.7904C261.137 45.0676 281.753 39.4861 300.279 43.3496C306.275 44.599 311.321 46.6902 315.184 49.3063L303.094 52.5793C301.035 51.5606 298.651 50.7255 295.954 50.1617C283.916 47.6521 270.525 51.2789 266.099 58.2438" fill="white"/>
<path d="M272.751 73.0178C274.803 74.0392 277.204 74.8648 279.905 75.4274C291.943 77.9382 305.335 74.3113 309.759 67.3464C310.751 65.7835 311.206 64.1834 311.177 62.6149L323.24 59.3489C324.215 62.7454 323.736 66.3317 321.532 69.8019C314.719 80.5243 294.105 86.1041 275.575 82.2406C269.581 80.9939 264.54 78.8995 260.686 76.2839L272.749 73.0178L272.751 73.0178Z" fill="white"/>
<path d="M259.799 68.0609L271.286 64.9513C272.507 67.4668 274.979 69.7489 278.452 71.4732L266.389 74.7397C263.485 72.769 261.248 70.4992 259.798 68.0604M312.879 53.6917L324.369 50.5836C326.65 52.7951 328.21 55.2475 328.945 57.8069L316.882 61.0713C316.836 58.4189 315.412 55.8507 312.879 53.6917" fill="white"/>
<path d="M248.025 68.8817C247.854 68.4596 247.7 68.0353 247.577 67.6072L259.665 64.3353C259.672 64.7901 259.734 65.241 259.823 65.6888L248.025 68.8823L248.025 68.8817ZM299.869 54.9447C299.301 54.5927 298.702 54.2573 298.064 53.942L310.154 50.6685C310.674 51.0216 311.163 51.387 311.638 51.7592L299.869 54.9458L299.869 54.9447Z" fill="white"/>
<path d="M260.688 76.2839L272.751 73.0178C274.111 73.6959 275.63 74.2857 277.285 74.7713L264.148 78.3224C262.909 77.6865 261.751 77.0054 260.688 76.2839ZM323.242 59.351C323.514 60.2962 323.669 61.2579 323.708 62.2274L310.568 65.7785C310.994 64.7228 311.196 63.6629 311.178 62.6155L323.242 59.351V59.351Z" fill="white"/>
<rect x="-2.98023e-08" y="0.5" width="127.018" height="127.018" transform="matrix(0.866025 0.5 -0.866025 0.5 111.3 215.25)" stroke="#0064FF"/>
<rect width="90.8834" height="90.8834" transform="matrix(0.866025 0.5 -0.866025 0.5 110.867 233.567)" fill="#0064FF"/>
<path d="M104.497 272.02L96.5414 276.613L112.453 285.8L120.409 281.207C124.79 278.677 124.79 274.55 120.409 272.02C116.027 269.49 108.879 269.49 104.497 272.02Z" fill="white"/>
<path d="M104.725 289.195L104.725 294.121L82.1262 294.121L82.1262 281.073L90.7738 281.14L90.6585 283.603L100.344 289.195L104.725 289.195Z" fill="white"/>
<path d="M140.473 273.485L131.941 273.485L131.826 271.022L122.14 265.43L117.989 265.43L117.874 260.437L140.473 260.437L140.473 273.485Z" fill="white"/>
<path d="M117.876 294.121L117.876 289.195L122.258 289.195L131.943 283.603L131.828 281.14L140.475 281.073L140.475 294.121L117.876 294.121Z" fill="white"/>
<path d="M104.724 262.967L104.608 265.43L100.457 265.43L90.7721 271.021L90.6568 273.485L86.5059 273.485L82.1245 273.485L82.1245 260.437L104.724 260.437L104.724 262.967Z" fill="white"/>
<path d="M253.967 108L194 142.5C193.761 142.638 193.761 142.862 194 143L258.058 179.984C276.5 191.5 260 201 246.5 209.5L176.575 252.65" stroke="#C4C4C4" stroke-linejoin="round"/>
<path d="M216.967 87L147.351 127.193C135.155 134.234 135.155 145.651 147.351 152.693L211.409 189.677C211.648 189.815 211.648 190.039 211.409 190.177L139.575 231.65" stroke="#C4C4C4" stroke-linejoin="round"/>
<path d="M156.923 241.735L228.795 200.24C240.997 193.195 241.269 188.168 229.136 181.163L174.052 148.467C166.559 144.019 166.668 136.917 174.297 132.547L235.489 97.4962" stroke="#0064FF" stroke-linejoin="round" stroke-dasharray="7 7"/>
<path d="M179.83 163.508C179.874 163.483 179.921 163.46 179.967 163.439C179.976 163.434 179.985 163.432 179.995 163.43C180.011 163.423 180.025 163.418 180.041 163.413C180.064 163.404 180.087 163.395 180.113 163.386C180.138 163.379 180.166 163.374 180.191 163.367C180.208 163.365 180.224 163.36 180.24 163.356C180.249 163.356 180.256 163.351 180.265 163.349C180.319 163.339 180.374 163.332 180.432 163.328C180.434 163.328 180.439 163.328 180.441 163.328C180.455 163.328 180.469 163.328 180.481 163.328C180.525 163.328 180.568 163.323 180.612 163.325C180.626 163.325 180.643 163.33 180.659 163.33C180.686 163.33 180.714 163.335 180.742 163.337C180.767 163.339 180.793 163.339 180.821 163.344C180.841 163.346 180.867 163.353 180.888 163.358C180.925 163.365 180.962 163.372 181.001 163.381C181.022 163.386 181.04 163.388 181.064 163.393C181.11 163.404 181.156 163.42 181.202 163.434C181.207 163.434 181.212 163.436 181.216 163.439C181.272 163.457 181.33 163.478 181.387 163.501C181.411 163.511 181.434 163.522 181.455 163.531C181.478 163.541 181.499 163.55 181.522 163.561C181.605 163.598 181.688 163.64 181.774 163.689C181.864 163.737 181.95 163.793 182.038 163.853C182.065 163.871 182.093 163.892 182.123 163.913C182.181 163.955 182.239 163.996 182.297 164.04C182.329 164.066 182.359 164.091 182.392 164.117C182.445 164.161 182.496 164.205 182.549 164.251C182.581 164.279 182.611 164.309 182.641 164.336C182.66 164.355 182.681 164.371 182.699 164.39C182.72 164.41 182.739 164.431 182.759 164.452C182.822 164.515 182.884 164.577 182.944 164.644C182.963 164.665 182.984 164.683 183.002 164.707C183.019 164.725 183.035 164.744 183.049 164.762C183.086 164.806 183.123 164.848 183.157 164.892C183.18 164.919 183.204 164.945 183.227 164.975C183.245 164.998 183.264 165.024 183.282 165.049C183.31 165.084 183.333 165.118 183.361 165.153C183.379 165.176 183.396 165.199 183.414 165.223C183.442 165.264 183.472 165.306 183.5 165.347C183.518 165.373 183.537 165.398 183.553 165.426C183.56 165.438 183.567 165.447 183.576 165.459C183.627 165.535 183.676 165.611 183.72 165.69C183.724 165.695 183.726 165.701 183.729 165.706C183.738 165.722 183.747 165.738 183.757 165.755C183.789 165.81 183.821 165.863 183.851 165.919C183.865 165.947 183.879 165.972 183.893 165.998C183.907 166.025 183.921 166.053 183.935 166.081C183.946 166.104 183.96 166.127 183.972 166.15C184.004 166.215 184.034 166.28 184.064 166.347C184.069 166.358 184.076 166.368 184.08 166.379C184.08 166.382 184.083 166.386 184.085 166.389C184.122 166.47 184.157 166.551 184.189 166.634C184.196 166.648 184.201 166.664 184.205 166.68C184.217 166.71 184.229 166.74 184.24 166.77C184.256 166.812 184.272 166.851 184.286 166.893C184.298 166.925 184.307 166.958 184.316 166.988C184.328 167.027 184.34 167.064 184.353 167.101C184.36 167.124 184.37 167.147 184.374 167.171C184.386 167.212 184.395 167.254 184.407 167.295C184.418 167.342 184.432 167.39 184.444 167.437C184.448 167.453 184.453 167.469 184.455 167.485C184.462 167.52 184.467 167.555 184.474 167.587C184.488 167.661 184.502 167.733 184.513 167.807C184.515 167.825 184.522 167.846 184.525 167.867C184.532 167.913 184.534 167.957 184.539 168.003C184.543 168.036 184.548 168.068 184.55 168.101C184.559 168.202 184.566 168.304 184.566 168.406C184.573 169.274 184.275 169.884 183.787 170.178L182.065 171.205C182.556 170.912 182.854 170.298 182.845 169.433C182.845 169.334 182.838 169.232 182.829 169.13C182.827 169.098 182.822 169.065 182.817 169.033C182.81 168.968 182.801 168.903 182.792 168.836C182.78 168.765 182.766 168.691 182.752 168.619C182.743 168.57 182.732 168.519 182.72 168.468C182.709 168.422 182.697 168.374 182.683 168.327C182.667 168.263 182.648 168.198 182.63 168.133C182.618 168.094 182.607 168.057 182.593 168.02C182.57 167.948 182.544 167.874 182.516 167.802C182.505 167.772 182.493 167.742 182.482 167.712C182.442 167.61 182.401 167.511 182.357 167.411C182.352 167.4 182.345 167.39 182.341 167.379C182.299 167.289 182.255 167.201 182.211 167.113C182.197 167.085 182.183 167.057 182.169 167.032C182.126 166.948 182.079 166.867 182.033 166.786C182.024 166.77 182.014 166.754 182.005 166.738C181.95 166.643 181.89 166.551 181.829 166.46C181.811 166.435 181.792 166.409 181.774 166.382C181.73 166.317 181.684 166.252 181.635 166.187C181.61 166.153 181.584 166.118 181.556 166.083C181.515 166.03 181.473 165.979 181.431 165.926C181.397 165.882 181.36 165.838 181.323 165.796C181.288 165.757 181.251 165.718 181.216 165.678C181.156 165.611 181.094 165.549 181.031 165.486C180.992 165.447 180.953 165.408 180.913 165.371C180.883 165.341 180.851 165.313 180.818 165.285C180.767 165.239 180.714 165.195 180.661 165.151C180.629 165.125 180.599 165.1 180.566 165.074C180.508 165.028 180.45 164.987 180.39 164.947C180.363 164.929 180.335 164.908 180.307 164.887C180.219 164.829 180.131 164.774 180.043 164.725C179.958 164.677 179.872 164.635 179.789 164.598C179.768 164.589 179.745 164.579 179.724 164.57C179.643 164.535 179.564 164.503 179.486 164.478C179.481 164.478 179.476 164.475 179.472 164.473C179.405 164.452 179.338 164.436 179.271 164.42C179.231 164.41 179.194 164.404 179.157 164.399C179.109 164.39 179.06 164.383 179.011 164.378C178.984 164.376 178.956 164.371 178.931 164.371C178.87 164.369 178.813 164.367 178.755 164.371C178.741 164.371 178.727 164.371 178.715 164.371C178.646 164.376 178.579 164.385 178.512 164.399C178.496 164.404 178.479 164.408 178.463 164.41C178.412 164.424 178.361 164.438 178.313 164.457C178.297 164.461 178.28 164.468 178.267 164.473C178.204 164.498 178.144 164.526 178.088 164.561L179.81 163.531C179.81 163.531 179.819 163.524 179.824 163.522L179.83 163.508Z" fill="#00003C" stroke="black" stroke-width="0.7"/>
<path d="M180.05 164.714C181.58 165.57 182.831 167.68 182.847 169.424C182.864 171.168 181.64 171.886 180.111 171.03C178.581 170.171 177.33 168.064 177.314 166.319C177.297 164.577 178.523 163.858 180.053 164.714H180.05Z" fill="#474C52" stroke="black" stroke-width="0.7"/>
<path d="M180.063 166.231C180.856 166.675 181.509 167.772 181.516 168.677C181.525 169.584 180.886 169.956 180.093 169.51C179.297 169.063 178.649 167.971 178.64 167.062C178.631 166.157 179.267 165.782 180.063 166.229V166.231Z" fill="white"/>
<path d="M159.443 151.711C159.487 151.686 159.533 151.663 159.58 151.642C159.589 151.637 159.598 151.635 159.607 151.63C159.623 151.624 159.637 151.621 159.654 151.614C159.677 151.605 159.7 151.596 159.725 151.589C159.751 151.58 159.778 151.575 159.804 151.568C159.82 151.566 159.836 151.561 159.853 151.556C159.862 151.556 159.871 151.552 159.878 151.55C159.931 151.54 159.987 151.533 160.045 151.529C160.047 151.529 160.051 151.529 160.054 151.529C160.068 151.529 160.082 151.529 160.093 151.529C160.137 151.529 160.181 151.524 160.225 151.526C160.239 151.526 160.255 151.529 160.269 151.531C160.294 151.531 160.324 151.536 160.35 151.538C160.375 151.54 160.401 151.543 160.429 151.545C160.452 151.55 160.475 151.554 160.498 151.559C160.535 151.566 160.572 151.573 160.611 151.582C160.632 151.587 160.653 151.589 160.674 151.593C160.72 151.605 160.766 151.619 160.815 151.635C160.82 151.635 160.824 151.637 160.829 151.64C160.884 151.658 160.942 151.679 161 151.702C161.021 151.711 161.046 151.723 161.067 151.732C161.088 151.742 161.111 151.751 161.132 151.76C161.215 151.799 161.298 151.839 161.384 151.887C161.474 151.938 161.562 151.991 161.648 152.052C161.676 152.07 161.703 152.091 161.731 152.112C161.789 152.153 161.847 152.195 161.905 152.239C161.937 152.264 161.967 152.29 161.999 152.318C162.053 152.362 162.104 152.406 162.157 152.452C162.189 152.48 162.222 152.507 162.252 152.537C162.27 152.556 162.291 152.572 162.31 152.591C162.33 152.611 162.349 152.632 162.37 152.653C162.432 152.716 162.495 152.78 162.555 152.845C162.573 152.866 162.594 152.884 162.613 152.908C162.629 152.926 162.645 152.945 162.659 152.963C162.696 153.005 162.733 153.049 162.768 153.093C162.791 153.12 162.816 153.146 162.837 153.176C162.856 153.199 162.874 153.225 162.893 153.25C162.92 153.285 162.946 153.319 162.971 153.354C162.99 153.377 163.008 153.4 163.024 153.423C163.054 153.465 163.082 153.507 163.11 153.548C163.129 153.576 163.147 153.602 163.163 153.627C163.17 153.639 163.179 153.648 163.186 153.659C163.235 153.736 163.284 153.812 163.332 153.891C163.334 153.895 163.339 153.9 163.341 153.907C163.351 153.923 163.36 153.939 163.369 153.956C163.402 154.011 163.434 154.064 163.464 154.12C163.478 154.145 163.492 154.173 163.506 154.199C163.519 154.226 163.536 154.254 163.55 154.282C163.561 154.305 163.575 154.328 163.587 154.351C163.619 154.416 163.649 154.481 163.679 154.548C163.684 154.559 163.691 154.569 163.695 154.58C163.695 154.585 163.698 154.587 163.7 154.59C163.737 154.67 163.772 154.754 163.804 154.835C163.811 154.851 163.816 154.865 163.82 154.881C163.832 154.911 163.843 154.941 163.855 154.971C163.871 155.011 163.887 155.052 163.901 155.092C163.913 155.124 163.922 155.156 163.931 155.189C163.943 155.226 163.957 155.263 163.968 155.302C163.975 155.325 163.985 155.348 163.989 155.371C164.003 155.413 164.01 155.455 164.022 155.496C164.033 155.543 164.047 155.591 164.059 155.638C164.061 155.654 164.068 155.67 164.07 155.686C164.077 155.721 164.082 155.753 164.089 155.788C164.105 155.862 164.119 155.934 164.128 156.008C164.13 156.029 164.137 156.047 164.14 156.068C164.146 156.114 164.149 156.158 164.156 156.204C164.158 156.237 164.163 156.269 164.167 156.302C164.177 156.403 164.181 156.505 164.183 156.605C164.19 157.472 163.892 158.085 163.404 158.377L161.683 159.404C162.173 159.112 162.471 158.499 162.462 157.632C162.462 157.532 162.455 157.431 162.446 157.329C162.444 157.296 162.439 157.264 162.434 157.232C162.427 157.167 162.418 157.1 162.409 157.035C162.397 156.961 162.384 156.889 162.37 156.817C162.36 156.769 162.349 156.718 162.34 156.667C162.328 156.621 162.316 156.572 162.303 156.526C162.286 156.461 162.268 156.396 162.249 156.332C162.238 156.295 162.226 156.255 162.212 156.218C162.189 156.147 162.164 156.072 162.136 156.001C162.124 155.971 162.115 155.941 162.101 155.911C162.062 155.811 162.02 155.709 161.976 155.61C161.972 155.598 161.965 155.589 161.96 155.577C161.921 155.487 161.877 155.399 161.831 155.311C161.817 155.284 161.803 155.258 161.789 155.23C161.745 155.147 161.699 155.066 161.652 154.985C161.643 154.969 161.634 154.953 161.625 154.937C161.569 154.842 161.511 154.749 161.449 154.657C161.43 154.631 161.412 154.606 161.393 154.578C161.349 154.513 161.303 154.446 161.255 154.384C161.229 154.349 161.204 154.314 161.176 154.282C161.134 154.229 161.093 154.175 161.051 154.124C161.014 154.081 160.979 154.037 160.942 153.995C160.908 153.956 160.87 153.916 160.836 153.877C160.776 153.812 160.713 153.747 160.651 153.685C160.611 153.646 160.572 153.606 160.533 153.569C160.503 153.539 160.47 153.511 160.44 153.484C160.389 153.437 160.336 153.393 160.283 153.349C160.253 153.324 160.22 153.299 160.188 153.273C160.13 153.229 160.072 153.188 160.014 153.146C159.987 153.125 159.959 153.107 159.931 153.086C159.846 153.028 159.755 152.972 159.667 152.924C159.582 152.875 159.499 152.834 159.413 152.797C159.392 152.787 159.369 152.776 159.348 152.769C159.27 152.734 159.189 152.702 159.11 152.676C159.105 152.676 159.101 152.674 159.094 152.672C159.027 152.648 158.96 152.635 158.892 152.618C158.855 152.609 158.816 152.602 158.779 152.595C158.73 152.586 158.682 152.579 158.633 152.574C158.606 152.572 158.578 152.567 158.55 152.567C158.49 152.565 158.432 152.563 158.374 152.567C158.36 152.567 158.346 152.567 158.335 152.567C158.265 152.572 158.198 152.581 158.131 152.595C158.115 152.598 158.099 152.604 158.083 152.607C158.032 152.621 157.981 152.635 157.932 152.653C157.916 152.658 157.9 152.662 157.886 152.669C157.824 152.695 157.763 152.722 157.706 152.757L159.427 151.73C159.427 151.73 159.436 151.723 159.441 151.721L159.443 151.711Z" fill="#00003C" stroke="black" stroke-width="0.7"/>
<path d="M159.664 152.917C161.191 153.775 162.442 155.885 162.461 157.627C162.477 159.372 161.251 160.089 159.724 159.233C158.195 158.377 156.945 156.267 156.927 154.522C156.911 152.778 158.134 152.059 159.664 152.917Z" fill="#474C52" stroke="black" stroke-width="0.7"/>
<path d="M159.684 154.435C160.477 154.879 161.127 155.975 161.137 156.88C161.146 157.787 160.51 158.157 159.716 157.713C158.92 157.266 158.272 156.174 158.263 155.265C158.254 154.36 158.89 153.986 159.684 154.432V154.435Z" fill="white"/>
<path d="M186.719 153.4L186.698 169.637L156.002 151.908V136.003L186.719 153.4Z" fill="#0050CB"/>
<path d="M200.23 145.398L200.224 161.491L169.514 143.906V128L200.23 145.398Z" fill="#0050CB"/>
<path d="M186.724 153.4L200.23 145.398L169.514 128L156.007 136.003L186.724 153.4Z" fill="#0064FF"/>
<path d="M186.716 169.602L200.238 161.454L200.229 145.398L186.723 153.4L186.716 169.602Z" fill="#00003C"/>
<path d="M192.417 171.02C192.461 170.995 192.508 170.972 192.554 170.951C192.563 170.946 192.572 170.944 192.582 170.942C192.598 170.935 192.612 170.93 192.628 170.923C192.651 170.914 192.674 170.905 192.7 170.898C192.725 170.888 192.753 170.884 192.778 170.877C192.794 170.872 192.811 170.87 192.827 170.865C192.836 170.865 192.845 170.861 192.852 170.858C192.905 170.849 192.961 170.842 193.019 170.838C193.021 170.838 193.026 170.838 193.028 170.838C193.042 170.838 193.056 170.838 193.067 170.838C193.111 170.838 193.153 170.833 193.199 170.835C193.213 170.835 193.229 170.84 193.243 170.84C193.271 170.84 193.299 170.844 193.327 170.847C193.352 170.849 193.377 170.849 193.405 170.854C193.428 170.856 193.451 170.863 193.475 170.868C193.512 170.875 193.549 170.881 193.588 170.891C193.609 170.895 193.627 170.898 193.65 170.902C193.697 170.914 193.743 170.93 193.789 170.944C193.794 170.944 193.798 170.946 193.803 170.949C193.859 170.967 193.916 170.988 193.974 171.011C193.997 171.02 194.021 171.032 194.041 171.041C194.065 171.05 194.085 171.06 194.108 171.071C194.192 171.108 194.277 171.15 194.361 171.198C194.449 171.249 194.536 171.303 194.624 171.36C194.652 171.379 194.68 171.4 194.708 171.418C194.766 171.46 194.826 171.501 194.881 171.545C194.914 171.571 194.944 171.596 194.976 171.622C195.029 171.666 195.08 171.71 195.133 171.756C195.166 171.784 195.196 171.812 195.228 171.842C195.247 171.86 195.268 171.876 195.286 171.895C195.307 171.916 195.325 171.936 195.346 171.957C195.409 172.02 195.471 172.084 195.531 172.149C195.55 172.17 195.571 172.189 195.589 172.209C195.605 172.228 195.619 172.246 195.635 172.265C195.672 172.309 195.709 172.351 195.744 172.395C195.767 172.422 195.793 172.45 195.814 172.478C195.832 172.501 195.851 172.526 195.869 172.552C195.897 172.587 195.922 172.621 195.948 172.656C195.966 172.679 195.985 172.702 196.001 172.725C196.031 172.767 196.059 172.809 196.087 172.85C196.105 172.876 196.124 172.903 196.142 172.929C196.149 172.941 196.156 172.95 196.163 172.961C196.214 173.038 196.26 173.114 196.309 173.193C196.311 173.2 196.316 173.204 196.318 173.209C196.327 173.225 196.336 173.241 196.346 173.257C196.378 173.313 196.41 173.366 196.441 173.422C196.454 173.447 196.468 173.475 196.482 173.5C196.496 173.528 196.51 173.556 196.524 173.581C196.535 173.604 196.549 173.628 196.561 173.651C196.593 173.716 196.623 173.78 196.653 173.847C196.658 173.859 196.665 173.868 196.67 173.88C196.67 173.882 196.672 173.887 196.674 173.889C196.711 173.97 196.746 174.051 196.778 174.134C196.785 174.15 196.79 174.164 196.794 174.181C196.806 174.211 196.818 174.241 196.829 174.271C196.843 174.31 196.859 174.352 196.875 174.391C196.887 174.423 196.896 174.456 196.906 174.488C196.917 174.528 196.931 174.565 196.943 174.602C196.95 174.625 196.959 174.648 196.966 174.671C196.977 174.713 196.987 174.754 196.998 174.796C197.01 174.842 197.024 174.891 197.035 174.937C197.04 174.953 197.044 174.969 197.047 174.986C197.054 175.02 197.058 175.053 197.065 175.085C197.079 175.159 197.095 175.231 197.105 175.305C197.107 175.326 197.114 175.344 197.116 175.365C197.123 175.411 197.125 175.455 197.132 175.502C197.135 175.534 197.139 175.566 197.144 175.599C197.153 175.701 197.16 175.802 197.16 175.904C197.167 176.769 196.869 177.385 196.38 177.676L194.659 178.706C195.15 178.412 195.448 177.799 195.439 176.931C195.439 176.832 195.432 176.73 195.423 176.628C195.42 176.596 195.416 176.564 195.411 176.531C195.404 176.466 195.395 176.399 195.386 176.334C195.374 176.263 195.36 176.189 195.346 176.117C195.337 176.066 195.325 176.018 195.316 175.967C195.305 175.92 195.293 175.872 195.279 175.825C195.263 175.761 195.244 175.696 195.226 175.631C195.214 175.594 195.203 175.555 195.189 175.518C195.166 175.446 195.14 175.372 195.113 175.3C195.101 175.27 195.089 175.24 195.078 175.21C195.039 175.108 194.997 175.009 194.953 174.909C194.948 174.898 194.941 174.889 194.937 174.877C194.895 174.787 194.851 174.699 194.807 174.611C194.793 174.583 194.779 174.555 194.766 174.53C194.722 174.447 194.678 174.366 194.629 174.285C194.62 174.268 194.611 174.252 194.601 174.236C194.546 174.141 194.486 174.049 194.425 173.956C194.407 173.931 194.388 173.903 194.37 173.877C194.326 173.813 194.28 173.748 194.231 173.683C194.206 173.648 194.18 173.614 194.152 173.579C194.111 173.526 194.069 173.475 194.028 173.422C193.99 173.38 193.956 173.336 193.919 173.292C193.884 173.253 193.847 173.214 193.812 173.174C193.752 173.107 193.69 173.045 193.627 172.982C193.588 172.943 193.549 172.903 193.509 172.866C193.479 172.836 193.447 172.809 193.414 172.781C193.364 172.735 193.31 172.691 193.257 172.647C193.225 172.621 193.195 172.596 193.162 172.57C193.104 172.526 193.047 172.482 192.989 172.443C192.961 172.422 192.933 172.401 192.905 172.383C192.818 172.325 192.73 172.27 192.642 172.219C192.556 172.17 192.473 172.128 192.387 172.091C192.366 172.082 192.343 172.071 192.322 172.064C192.241 172.029 192.163 171.997 192.084 171.971C192.08 171.971 192.075 171.969 192.068 171.967C192.001 171.946 191.934 171.929 191.867 171.913C191.83 171.904 191.793 171.897 191.753 171.89C191.705 171.881 191.656 171.874 191.608 171.869C191.58 171.867 191.552 171.862 191.524 171.862C191.464 171.86 191.406 171.858 191.348 171.862C191.335 171.862 191.321 171.862 191.309 171.862C191.24 171.867 191.173 171.876 191.106 171.89C191.089 171.892 191.073 171.899 191.057 171.902C191.006 171.913 190.955 171.929 190.907 171.946C190.89 171.953 190.874 171.957 190.86 171.962C190.798 171.987 190.738 172.015 190.68 172.05L192.401 171.02C192.401 171.02 192.41 171.013 192.415 171.011L192.417 171.02Z" fill="#00003C" stroke="black" stroke-width="0.7"/>
<path d="M192.643 172.223C194.17 173.082 195.421 175.192 195.437 176.934C195.454 178.678 194.227 179.395 192.7 178.539C191.171 177.681 189.92 175.573 189.903 173.827C189.887 172.084 191.113 171.363 192.643 172.221V172.223Z" fill="#474C52" stroke="black" stroke-width="0.7"/>
<path d="M192.656 173.741C193.45 174.185 194.1 175.282 194.109 176.186C194.119 177.093 193.48 177.463 192.689 177.019C191.893 176.573 191.245 175.481 191.236 174.572C191.227 173.667 191.863 173.292 192.659 173.739L192.656 173.741Z" fill="white" stroke="black" stroke-width="0.7"/>
<path d="M202.166 148.678L211.531 153.875L198.025 161.879L188.148 156.396L202.166 148.678Z" fill="#E5E5E5"/>
<path d="M201.608 179.768L215.117 171.765L215.168 166.805L201.608 174.868V179.768Z" fill="#E5E5E5"/>
<path d="M201.608 174.868L215.168 166.805L213.643 164.413L211.531 153.875L198.025 161.879L200.077 172.415L201.608 174.868Z" fill="white"/>
<path d="M200.132 172.415L213.641 164.413L211.586 153.875L198.022 161.879L200.132 172.415Z" fill="#E5E5E5"/>
<path d="M212.201 162.936L210.797 156.392L200.024 162.516C199.999 162.533 199.962 162.574 199.934 162.64C199.906 162.707 199.901 162.769 199.907 162.81L201.555 169.606L212.081 163.237C212.108 163.219 212.147 163.176 212.176 163.107C212.204 163.038 212.209 162.975 212.201 162.936Z" fill="white" stroke="black" stroke-width="0.7"/>
<path d="M202.554 175.756L205.617 174V175.929L202.554 177.685V175.756Z" fill="#0064FF"/>
<path d="M211.118 170.747L214.184 168.991V170.918L211.118 172.677V170.747Z" fill="#0064FF"/>
<path d="M188.147 156.396L198.024 161.879L200.12 172.406L201.594 174.808V179.805L188.147 172.316V156.396Z" fill="#C4C4C4"/>
<path d="M195.889 163.505L195.888 163.505C195.878 163.456 195.843 163.376 195.781 163.291C195.72 163.207 195.654 163.148 195.608 163.121L190.928 160.475L191.384 165.457L191.384 165.457C191.388 165.504 191.413 165.583 191.465 165.669C191.517 165.754 191.576 165.813 191.616 165.84L191.616 165.84L197.117 169.418L195.889 163.505ZM190.697 160.345C190.697 160.345 190.698 160.346 190.699 160.346C190.698 160.346 190.697 160.345 190.697 160.345ZM190.904 160.211C190.905 160.21 190.905 160.21 190.905 160.21L190.904 160.211Z" fill="white" stroke="black" stroke-width="0.7"/>
<path d="M191.555 168V171" stroke="black" stroke-width="0.7" stroke-linejoin="round"/>
<g style="mix-blend-mode:multiply" opacity="0.1">
<path d="M183.687 165.808C183.687 166.136 183.953 166.4 184.279 166.4C184.607 166.4 184.871 166.134 184.871 165.808V155.001C184.871 154.673 184.605 154.409 184.279 154.409C183.95 154.409 183.687 154.675 183.687 155.001V165.808Z" fill="#00003C"/>
</g>
<g style="mix-blend-mode:multiply" opacity="0.1">
<path d="M179.997 164.117C179.997 164.445 180.263 164.709 180.591 164.709C180.918 164.709 181.184 164.443 181.184 164.117V153.31C181.184 152.982 180.918 152.718 180.591 152.718C180.263 152.718 179.997 152.984 179.997 153.31V164.117Z" fill="#00003C"/>
</g>
<g style="mix-blend-mode:multiply" opacity="0.1">
<path d="M176.312 161.935C176.312 162.261 176.578 162.527 176.904 162.527C177.23 162.527 177.496 162.261 177.496 161.935V151.128C177.496 150.8 177.23 150.536 176.904 150.536C176.578 150.536 176.312 150.802 176.312 151.128V161.935Z" fill="#00003C"/>
</g>
<g style="mix-blend-mode:multiply" opacity="0.1">
<path d="M172.616 159.753C172.616 160.082 172.882 160.346 173.209 160.346C173.537 160.346 173.801 160.08 173.801 159.753V148.947C173.801 148.618 173.535 148.355 173.209 148.355C172.882 148.355 172.616 148.621 172.616 148.947V159.753Z" fill="#00003C"/>
</g>
<g style="mix-blend-mode:multiply" opacity="0.1">
<path d="M168.926 157.567C168.926 157.893 169.192 158.159 169.521 158.159C169.847 158.159 170.113 157.893 170.113 157.567V146.76C170.113 146.432 169.847 146.168 169.521 146.168C169.192 146.168 168.926 146.434 168.926 146.76V157.567V157.567Z" fill="#00003C"/>
</g>
<g style="mix-blend-mode:multiply" opacity="0.1">
<path d="M165.237 155.316C165.237 155.644 165.503 155.908 165.83 155.908C166.156 155.908 166.422 155.642 166.422 155.316V144.509C166.422 144.183 166.156 143.917 165.83 143.917C165.503 143.917 165.237 144.183 165.237 144.509V155.316Z" fill="#00003C"/>
</g>
<g style="mix-blend-mode:multiply" opacity="0.1">
<path d="M161.546 153.366C161.546 153.692 161.812 153.958 162.138 153.958C162.464 153.958 162.73 153.692 162.73 153.366V142.561C162.73 142.233 162.464 141.967 162.138 141.967C161.81 141.967 161.546 142.233 161.546 142.561V153.368V153.366Z" fill="#00003C"/>
</g>
<g style="mix-blend-mode:multiply" opacity="0.1">
<path d="M157.864 151.353C157.864 151.681 158.13 151.945 158.459 151.945C158.785 151.945 159.051 151.679 159.051 151.353V140.549C159.051 140.22 158.785 139.956 158.459 139.956C158.13 139.956 157.864 140.22 157.864 140.549V151.355V151.353Z" fill="#00003C"/>
</g>
<path d="M180.063 166.231C180.856 166.675 181.509 167.772 181.516 168.677C181.525 169.584 180.886 169.956 180.093 169.51C179.297 169.063 178.649 167.971 178.64 167.062C178.631 166.157 179.267 165.782 180.063 166.229V166.231Z" stroke="black" stroke-width="0.7" stroke-linejoin="round"/>
<path d="M159.684 154.435C160.477 154.879 161.127 155.975 161.137 156.88C161.146 157.787 160.51 158.157 159.716 157.713C158.92 157.266 158.272 156.174 158.263 155.265C158.254 154.36 158.89 153.986 159.684 154.432V154.435Z" stroke="black" stroke-width="0.7" stroke-linejoin="round"/>
<path d="M186.719 153.4L186.698 169.637L156.002 151.908V136.003L171.36 144.701L186.719 153.4Z" stroke="black" stroke-width="0.7" stroke-linejoin="round"/>
<path d="M186.724 153.4L200.23 145.398L169.514 128L156.007 136.003L186.724 153.4Z" stroke="black" stroke-width="0.7" stroke-linejoin="round"/>
<path d="M186.713 169.602L186.72 153.4L200.227 145.398L200.226 149.5" stroke="black" stroke-width="0.7" stroke-linejoin="round"/>
<path d="M202.166 148.678L211.531 153.875L198.025 161.879L188.148 156.396L202.166 148.678Z" stroke="black" stroke-width="0.7" stroke-linejoin="round"/>
<path d="M201.608 179.768L215.117 171.765L215.168 166.805L201.608 174.868V179.768Z" stroke="black" stroke-width="0.7" stroke-linejoin="round"/>
<path d="M201.608 174.868L215.168 166.805L213.643 164.413L211.531 153.875L198.025 161.879L200.077 172.415L201.608 174.868Z" stroke="black" stroke-width="0.7" stroke-linejoin="round"/>
<path d="M200.132 172.415L213.641 164.413L211.586 153.875L198.022 161.879L200.132 172.415Z" stroke="black" stroke-width="0.7" stroke-linejoin="round"/>
<path d="M188.147 156.396L198.024 161.879L200.12 172.406L201.594 174.808V179.805L188.147 172.316V156.396Z" stroke="black" stroke-width="0.7" stroke-linejoin="round"/>
<g style="mix-blend-mode:multiply" opacity="0.1">
<path d="M183.687 165.808C183.687 166.136 183.953 166.4 184.279 166.4C184.607 166.4 184.871 166.134 184.871 165.808V155.001C184.871 154.673 184.605 154.409 184.279 154.409C183.95 154.409 183.687 154.675 183.687 155.001V165.808Z" stroke="black" stroke-width="0.7" stroke-linejoin="round"/>
</g>
<g style="mix-blend-mode:multiply" opacity="0.1">
<path d="M179.997 164.117C179.997 164.445 180.263 164.709 180.591 164.709C180.918 164.709 181.184 164.443 181.184 164.117V153.31C181.184 152.982 180.918 152.718 180.591 152.718C180.263 152.718 179.997 152.984 179.997 153.31V164.117Z" stroke="black" stroke-width="0.7" stroke-linejoin="round"/>
</g>
<g style="mix-blend-mode:multiply" opacity="0.1">
<path d="M176.312 161.935C176.312 162.261 176.578 162.527 176.904 162.527C177.23 162.527 177.496 162.261 177.496 161.935V151.128C177.496 150.8 177.23 150.536 176.904 150.536C176.578 150.536 176.312 150.802 176.312 151.128V161.935Z" stroke="black" stroke-width="0.7" stroke-linejoin="round"/>
</g>
<g style="mix-blend-mode:multiply" opacity="0.1">
<path d="M172.616 159.753C172.616 160.082 172.882 160.346 173.209 160.346C173.537 160.346 173.801 160.08 173.801 159.753V148.947C173.801 148.618 173.535 148.355 173.209 148.355C172.882 148.355 172.616 148.621 172.616 148.947V159.753Z" stroke="black" stroke-width="0.7" stroke-linejoin="round"/>
</g>
<g style="mix-blend-mode:multiply" opacity="0.1">
<path d="M168.926 157.567C168.926 157.893 169.192 158.159 169.521 158.159C169.847 158.159 170.113 157.893 170.113 157.567V146.76C170.113 146.432 169.847 146.168 169.521 146.168C169.192 146.168 168.926 146.434 168.926 146.76V157.567V157.567Z" stroke="black" stroke-width="0.7" stroke-linejoin="round"/>
</g>
<g style="mix-blend-mode:multiply" opacity="0.1">
<path d="M165.237 155.316C165.237 155.644 165.503 155.908 165.83 155.908C166.156 155.908 166.422 155.642 166.422 155.316V144.509C166.422 144.183 166.156 143.917 165.83 143.917C165.503 143.917 165.237 144.183 165.237 144.509V155.316Z" stroke="black" stroke-width="0.7" stroke-linejoin="round"/>
</g>
<g style="mix-blend-mode:multiply" opacity="0.1">
<path d="M161.546 153.366C161.546 153.692 161.812 153.958 162.138 153.958C162.464 153.958 162.73 153.692 162.73 153.366V142.561C162.73 142.233 162.464 141.967 162.138 141.967C161.81 141.967 161.546 142.233 161.546 142.561V153.368V153.366Z" stroke="black" stroke-width="0.7" stroke-linejoin="round"/>
</g>
<g style="mix-blend-mode:multiply" opacity="0.1">
<path d="M157.864 151.353C157.864 151.681 158.13 151.945 158.459 151.945C158.785 151.945 159.051 151.679 159.051 151.353V140.549C159.051 140.22 158.785 139.956 158.459 139.956C158.13 139.956 157.864 140.22 157.864 140.549V151.355V151.353Z" stroke="black" stroke-width="0.7" stroke-linejoin="round"/>
</g>
<rect width="23.4049" height="19.1162" transform="matrix(0.86601 0.500028 3.18351e-05 1 55 70.1793)" fill="#F5F5F5"/>
<rect width="23.4049" height="19.1162" transform="matrix(0.86601 -0.500028 -3.18351e-05 1 75.293 81.8841)" fill="white"/>
<rect width="23.4049" height="23.4049" transform="matrix(0.866041 -0.499972 0.866041 0.499972 55 70.1819)" fill="white"/>
<rect width="23.4049" height="19.1162" transform="matrix(0.86601 0.500028 3.18351e-05 1 55 70.1793)" stroke="#00003C" stroke-linejoin="bevel"/>
<rect width="23.4049" height="19.1162" transform="matrix(0.86601 -0.500028 -3.18351e-05 1 75.293 81.8841)" stroke="#00003C" stroke-linejoin="bevel"/>
<rect width="23.4049" height="23.4049" transform="matrix(0.866041 -0.499972 0.866041 0.499972 55 70.1819)" stroke="#00003C" stroke-linejoin="bevel"/>
<rect width="23.4049" height="19.1162" transform="matrix(0.86601 0.500028 3.18351e-05 1 119.062 70.1793)" fill="#F5F5F5"/>
<rect width="23.4049" height="19.1162" transform="matrix(0.86601 -0.500028 -3.18351e-05 1 139.355 81.8841)" fill="white"/>
<rect width="23.4049" height="23.4049" transform="matrix(0.866041 -0.499972 0.866041 0.499972 119.062 70.1819)" fill="white"/>
<rect width="23.4049" height="19.1162" transform="matrix(0.86601 0.500028 3.18351e-05 1 119.062 70.1793)" stroke="#00003C" stroke-linejoin="bevel"/>
<rect width="23.4049" height="19.1162" transform="matrix(0.86601 -0.500028 -3.18351e-05 1 139.355 81.8841)" stroke="#00003C" stroke-linejoin="bevel"/>
<rect width="23.4049" height="23.4049" transform="matrix(0.866041 -0.499972 0.866041 0.499972 119.062 70.1819)" stroke="#00003C" stroke-linejoin="bevel"/>
<rect width="23.4049" height="19.1162" transform="matrix(0.86601 0.500028 3.18351e-05 1 119.062 51.6992)" fill="#F5F5F5"/>
<rect width="23.4049" height="19.1162" transform="matrix(0.86601 -0.500028 -3.18351e-05 1 139.355 63.404)" fill="white"/>
<rect width="23.4049" height="23.4049" transform="matrix(0.866041 -0.499972 0.866041 0.499972 119.062 51.7018)" fill="white"/>
<rect width="23.4049" height="19.1162" transform="matrix(0.86601 0.500028 3.18351e-05 1 119.062 51.6992)" stroke="#00003C" stroke-linejoin="bevel"/>
<rect width="23.4049" height="19.1162" transform="matrix(0.86601 -0.500028 -3.18351e-05 1 139.355 63.404)" stroke="#00003C" stroke-linejoin="bevel"/>
<rect width="23.4049" height="23.4049" transform="matrix(0.866041 -0.499972 0.866041 0.499972 119.062 51.7018)" stroke="#00003C" stroke-linejoin="bevel"/>
<rect width="23.4049" height="19.1162" transform="matrix(0.86601 0.500028 3.18351e-05 1 303 157.179)" fill="#F5F5F5"/>
<rect width="23.4049" height="19.1162" transform="matrix(0.86601 -0.500028 -3.18351e-05 1 323.293 168.884)" fill="white"/>
<rect width="23.4049" height="23.4049" transform="matrix(0.866041 -0.499972 0.866041 0.499972 303 157.182)" fill="white"/>
<rect width="23.4049" height="19.1162" transform="matrix(0.86601 0.500028 3.18351e-05 1 303 157.179)" stroke="#00003C" stroke-linejoin="bevel"/>
<rect width="23.4049" height="19.1162" transform="matrix(0.86601 -0.500028 -3.18351e-05 1 323.293 168.884)" stroke="#00003C" stroke-linejoin="bevel"/>
<rect width="23.4049" height="23.4049" transform="matrix(0.866041 -0.499972 0.866041 0.499972 303 157.182)" stroke="#00003C" stroke-linejoin="bevel"/>
<rect width="23.4049" height="19.1162" transform="matrix(0.86601 0.500028 3.18351e-05 1 303 138.699)" fill="#F5F5F5"/>
<rect width="23.4049" height="19.1162" transform="matrix(0.86601 -0.500028 -3.18351e-05 1 323.293 150.404)" fill="white"/>
<rect width="23.4049" height="23.4049" transform="matrix(0.866041 -0.499972 0.866041 0.499972 303 138.702)" fill="white"/>
<rect width="23.4049" height="19.1162" transform="matrix(0.86601 0.500028 3.18351e-05 1 303 138.699)" stroke="#00003C" stroke-linejoin="bevel"/>
<rect width="23.4049" height="19.1162" transform="matrix(0.86601 -0.500028 -3.18351e-05 1 323.293 150.404)" stroke="#00003C" stroke-linejoin="bevel"/>
<rect width="23.4049" height="23.4049" transform="matrix(0.866041 -0.499972 0.866041 0.499972 303 138.702)" stroke="#00003C" stroke-linejoin="bevel"/>
<rect width="23.4049" height="19.1162" transform="matrix(0.86601 0.500028 3.18351e-05 1 323.941 169.499)" fill="#F5F5F5"/>
<rect width="23.4049" height="19.1162" transform="matrix(0.86601 -0.500028 -3.18351e-05 1 344.234 181.204)" fill="white"/>
<rect width="23.4049" height="23.4049" transform="matrix(0.866041 -0.499972 0.866041 0.499972 323.941 169.502)" fill="white"/>
<rect width="23.4049" height="19.1162" transform="matrix(0.86601 0.500028 3.18351e-05 1 323.941 169.499)" stroke="#00003C" stroke-linejoin="bevel"/>
<rect width="23.4049" height="19.1162" transform="matrix(0.86601 -0.500028 -3.18351e-05 1 344.234 181.204)" stroke="#00003C" stroke-linejoin="bevel"/>
<rect width="23.4049" height="23.4049" transform="matrix(0.866041 -0.499972 0.866041 0.499972 323.941 169.502)" stroke="#00003C" stroke-linejoin="bevel"/>
<rect width="23.4049" height="19.1162" transform="matrix(0.86601 0.500028 3.18351e-05 1 57.9414 183.179)" fill="#F5F5F5"/>
<rect width="23.4049" height="19.1162" transform="matrix(0.86601 -0.500028 -3.18351e-05 1 78.2344 194.884)" fill="white"/>
<rect width="23.4049" height="23.4049" transform="matrix(0.866041 -0.499972 0.866041 0.499972 57.9414 183.182)" fill="white"/>
<rect width="23.4049" height="19.1162" transform="matrix(0.86601 0.500028 3.18351e-05 1 57.9414 183.179)" stroke="#00003C" stroke-linejoin="bevel"/>
<rect width="23.4049" height="19.1162" transform="matrix(0.86601 -0.500028 -3.18351e-05 1 78.2344 194.884)" stroke="#00003C" stroke-linejoin="bevel"/>
<rect width="23.4049" height="23.4049" transform="matrix(0.866041 -0.499972 0.866041 0.499972 57.9414 183.182)" stroke="#00003C" stroke-linejoin="bevel"/>
<rect width="23.4049" height="19.1162" transform="matrix(0.86601 0.500028 3.18351e-05 1 57.9414 164.699)" fill="#F5F5F5"/>
<rect width="23.4049" height="19.1162" transform="matrix(0.86601 -0.500028 -3.18351e-05 1 78.2344 176.404)" fill="white"/>
<rect width="23.4049" height="23.4049" transform="matrix(0.866041 -0.499972 0.866041 0.499972 57.9414 164.702)" fill="white"/>
<rect width="23.4049" height="19.1162" transform="matrix(0.86601 0.500028 3.18351e-05 1 57.9414 164.699)" stroke="#00003C" stroke-linejoin="bevel"/>
<rect width="23.4049" height="19.1162" transform="matrix(0.86601 -0.500028 -3.18351e-05 1 78.2344 176.404)" stroke="#00003C" stroke-linejoin="bevel"/>
<rect width="23.4049" height="23.4049" transform="matrix(0.866041 -0.499972 0.866041 0.499972 57.9414 164.702)" stroke="#00003C" stroke-linejoin="bevel"/>
<rect width="23.4049" height="19.1162" transform="matrix(0.86601 0.500028 3.18351e-05 1 37 195.499)" fill="#F5F5F5"/>
<rect width="23.4049" height="19.1162" transform="matrix(0.86601 -0.500028 -3.18351e-05 1 57.293 207.204)" fill="white"/>
<rect width="23.4049" height="23.4049" transform="matrix(0.866041 -0.499972 0.866041 0.499972 37 195.502)" fill="white"/>
<rect width="23.4049" height="19.1162" transform="matrix(0.86601 0.500028 3.18351e-05 1 37 195.499)" stroke="#00003C" stroke-linejoin="bevel"/>
<rect width="23.4049" height="19.1162" transform="matrix(0.86601 -0.500028 -3.18351e-05 1 57.293 207.204)" stroke="#00003C" stroke-linejoin="bevel"/>
<rect width="23.4049" height="23.4049" transform="matrix(0.866041 -0.499972 0.866041 0.499972 37 195.502)" stroke="#00003C" stroke-linejoin="bevel"/>
<rect width="23.4049" height="19.1162" transform="matrix(0.86601 0.500028 3.18351e-05 1 240.941 225.699)" fill="#F5F5F5"/>
<rect width="23.4049" height="19.1162" transform="matrix(0.86601 -0.500028 -3.18351e-05 1 261.234 237.404)" fill="white"/>
<rect width="23.4049" height="23.4049" transform="matrix(0.866041 -0.499972 0.866041 0.499972 240.941 225.702)" fill="white"/>
<rect width="23.4049" height="19.1162" transform="matrix(0.86601 0.500028 3.18351e-05 1 240.941 225.699)" stroke="#00003C" stroke-linejoin="bevel"/>
<rect width="23.4049" height="19.1162" transform="matrix(0.86601 -0.500028 -3.18351e-05 1 261.234 237.404)" stroke="#00003C" stroke-linejoin="bevel"/>
<rect width="23.4049" height="23.4049" transform="matrix(0.866041 -0.499972 0.866041 0.499972 240.941 225.702)" stroke="#00003C" stroke-linejoin="bevel"/>
<rect width="23.4049" height="19.1162" transform="matrix(0.86601 0.500028 3.18351e-05 1 221 237.019)" fill="#F5F5F5"/>
<rect width="23.4049" height="19.1162" transform="matrix(0.86601 -0.500028 -3.18351e-05 1 241.293 248.724)" fill="white"/>
<rect width="23.4049" height="23.4049" transform="matrix(0.866041 -0.499972 0.866041 0.499972 221 237.022)" fill="white"/>
<rect width="23.4049" height="19.1162" transform="matrix(0.86601 0.500028 3.18351e-05 1 221 237.019)" stroke="#00003C" stroke-linejoin="bevel"/>
<rect width="23.4049" height="19.1162" transform="matrix(0.86601 -0.500028 -3.18351e-05 1 241.293 248.724)" stroke="#00003C" stroke-linejoin="bevel"/>
<rect width="23.4049" height="23.4049" transform="matrix(0.866041 -0.499972 0.866041 0.499972 221 237.022)" stroke="#00003C" stroke-linejoin="bevel"/>
</svg>
