<svg width="190" height="43" viewBox="0 0 190 43" fill="none" xmlns="http://www.w3.org/2000/svg">
<g clip-path="url(#clip0_1112_2)">
<path d="M22.1505 27.2163H16.3394V15.5522H22.1505C25.3508 15.5522 27.9616 18.1724 27.9616 21.3843C27.9616 24.5961 25.3508 27.2163 22.1505 27.2163Z" fill="#0064FF"/>
<path d="M11.3697 16.2284L8.25361 13.1011L0.000183105 21.3843L8.25361 29.6675L11.3697 26.4556L9.76955 24.9342V17.8343L11.3697 16.2284Z" fill="#00003C"/>
<path d="M34.3607 13.1011L31.2446 16.2284L32.7605 17.8343V24.9342L31.2446 26.4556L34.3607 29.6675L42.6141 21.3843L34.3607 13.1011Z" fill="#00003C"/>
<path d="M13.0529 8.2832L16.169 11.4105L17.7692 9.80461H24.8435L26.3595 11.4105L29.5598 8.2832L21.3063 0L13.0529 8.2832Z" fill="#00003C"/>
<path d="M27.9596 32.8793L26.3595 31.3579L24.8435 32.8793H17.7692L16.169 31.3579L14.6531 32.8793L13.0529 34.4852L21.3063 42.7684L29.5598 34.4852L27.9596 32.8793Z" fill="#00003C"/>
<path d="M54.2353 3.29688V3.97305H52.7193V4.9028H53.8984V5.49446H52.7193V6.93134H51.8771V3.29688H54.2353Z" fill="#00003C"/>
<path d="M56.172 3.29639V6.25467H57.6037V6.93085H55.3298V3.29639H56.172Z" fill="#00003C"/>
<path d="M60.9719 3.29639L62.151 6.93085H61.3088L61.0562 6.08563H59.7087L59.456 6.93085H58.698L59.8771 3.29639H60.9719V3.29639ZM60.8035 5.49397L60.2982 3.88804L59.7929 5.49397H60.8035Z" fill="#00003C"/>
<path d="M64.259 3.29639L65.6065 5.66301V3.29639H66.3645V6.93085H65.5223L64.0064 4.31066V6.93085H63.2484V3.29639H64.259Z" fill="#00003C"/>
<path d="M67.4563 3.88804V3.29639H70.2355V3.97257H69.2249V6.93085H68.3827V3.88804H67.4563Z" fill="#00003C"/>
<path d="M60.2178 17.7498C60.2178 20.4545 58.1965 22.4831 55.4173 22.4831H51.8801V13.1011H55.4173C58.1965 13.1011 60.2178 15.0451 60.2178 17.7498ZM58.1123 17.7498C58.1123 16.0594 57.0175 14.9606 55.3331 14.9606H53.9014V20.6236H55.4173C57.0175 20.6236 58.1123 19.4403 58.1123 17.7498Z" fill="#0064FF"/>
<path d="M68.8061 19.4401H63.3319C63.5003 20.4544 64.1741 20.9615 65.1005 20.9615C65.7743 20.9615 66.3638 20.6235 66.6164 20.1163H68.7219C68.2166 21.7222 66.7849 22.7365 65.1005 22.7365C62.9108 22.7365 61.3107 21.0461 61.3107 18.8485C61.3107 16.6509 62.9108 14.9604 65.1005 14.9604C67.3744 14.9604 68.8903 16.6509 68.8903 18.764C68.8061 19.0175 68.8061 19.2711 68.8061 19.4401ZM63.3319 18.0878H66.8691C66.6164 17.158 65.9427 16.7354 65.1005 16.7354C64.1741 16.7354 63.5846 17.2426 63.3319 18.0878Z" fill="#0064FF"/>
<path d="M73.6092 22.7365C71.4195 22.7365 69.7352 21.046 69.7352 18.8484C69.7352 16.6508 71.4195 15.0449 73.6092 15.0449C75.462 15.0449 76.978 16.2282 77.3149 18.0032H75.3778C75.0409 17.2425 74.3672 16.9044 73.6092 16.9044C72.5144 16.9044 71.7564 17.7496 71.7564 18.933C71.7564 20.1163 72.5986 20.9615 73.6092 20.9615C74.3672 20.9615 75.0409 20.5389 75.3778 19.7782H77.3991C76.978 21.4686 75.462 22.7365 73.6092 22.7365Z" fill="#0064FF"/>
<path d="M83.0405 22.5674L80.6824 19.102V22.5674H78.7454V12.5938H80.6824V18.5103L82.8721 15.2985H85.146L82.7037 18.7639L85.3987 22.5674H83.0405V22.5674Z" fill="#0064FF"/>
<path d="M93.1485 18.0877V22.5674H91.2115V18.4258C91.2115 17.327 90.7904 16.8199 89.9482 16.8199C88.9376 16.8199 88.348 17.4961 88.348 18.7639V22.5674H86.411V12.5938H88.348V15.8901C88.9376 15.383 89.6955 15.0449 90.5377 15.0449C92.1379 15.0449 93.1485 16.2282 93.1485 18.0877Z" fill="#0064FF"/>
<path d="M94.4094 18.8485C94.4094 16.6509 96.0938 14.9604 98.3677 14.9604C100.642 14.9604 102.326 16.5664 102.326 18.8485C102.326 21.0461 100.642 22.7365 98.3677 22.7365C96.0938 22.7365 94.4094 21.0461 94.4094 18.8485ZM100.305 18.8485C100.305 17.6652 99.4625 16.8199 98.3677 16.8199C97.2729 16.8199 96.4307 17.6652 96.4307 18.8485C96.4307 20.0318 97.2729 20.877 98.3677 20.877C99.4625 20.877 100.305 20.0318 100.305 18.8485Z" fill="#0064FF"/>
<path d="M103.589 19.44V15.2139H105.526V19.1864C105.526 20.2007 106.116 20.8769 106.958 20.8769C107.884 20.8769 108.389 20.2852 108.389 19.1864V15.2139H110.326V19.44C110.326 21.384 108.979 22.7364 106.873 22.7364C104.936 22.7364 103.589 21.384 103.589 19.44Z" fill="#0064FF"/>
<path d="M114.79 22.7365C112.937 22.7365 111.758 21.7222 111.758 20.1163H113.695C113.695 20.7924 114.2 21.1305 114.874 21.1305C115.379 21.1305 115.884 20.877 115.884 20.3698C115.884 19.8627 115.211 19.6937 114.453 19.6091C113.274 19.4401 111.842 19.102 111.842 17.4116C111.842 16.0592 113.021 15.0449 114.79 15.0449C116.558 15.0449 117.737 16.0592 117.737 17.4961H115.884C115.884 16.9044 115.463 16.6508 114.79 16.6508C114.2 16.6508 113.779 16.9044 113.779 17.327C113.779 17.8342 114.368 17.9187 115.126 18.0877C116.305 18.3413 117.821 18.5949 117.821 20.3698C117.821 21.8067 116.558 22.7365 114.79 22.7365Z" fill="#0064FF"/>
<path d="M126.245 19.4401H120.771C120.94 20.4544 121.613 20.9615 122.54 20.9615C123.214 20.9615 123.803 20.6235 124.056 20.1163H126.161C125.656 21.7222 124.224 22.7365 122.54 22.7365C120.35 22.7365 118.75 21.0461 118.75 18.8485C118.75 16.6509 120.35 14.9604 122.54 14.9604C124.814 14.9604 126.33 16.6509 126.33 18.764C126.33 19.0175 126.33 19.2711 126.245 19.4401ZM120.855 18.0878H124.393C124.14 17.158 123.466 16.7354 122.624 16.7354C121.698 16.7354 121.024 17.2426 120.855 18.0878Z" fill="#0064FF"/>
<path d="M57.2698 38.7956L53.901 34.1469V38.7956H51.8798V29.3291H53.901V33.7243L57.0171 29.3291H59.3753L56.1749 33.8088L59.7121 38.7111H57.2698V38.7956Z" fill="#00003C"/>
<path d="M60.0513 35.668V31.4419H61.9884V35.4145C61.9884 36.4287 62.5779 37.1049 63.4201 37.1049C64.3465 37.1049 64.8518 36.5132 64.8518 35.4145V31.4419H66.7888V35.668C66.7888 37.612 65.4413 38.9644 63.3359 38.9644C61.3988 38.9644 60.0513 37.612 60.0513 35.668Z" fill="#00003C"/>
<path d="M76.3865 35.0764C76.3865 37.274 74.7863 38.9645 72.5966 38.9645C71.6702 38.9645 70.9123 38.6264 70.3227 38.1192L70.0701 38.7109H68.6384V28.8218H70.5754V31.8646C71.1649 31.442 71.8387 31.2729 72.5966 31.2729C74.7863 31.2729 76.3865 32.8789 76.3865 35.0764ZM74.3652 35.0764C74.3652 33.8931 73.5231 33.0479 72.344 33.0479C71.1649 33.0479 70.3227 33.8931 70.3227 35.0764C70.3227 36.1752 71.1649 37.105 72.344 37.105C73.5231 37.105 74.3652 36.2598 74.3652 35.0764Z" fill="#00003C"/>
<path d="M84.893 35.6682H79.4188C79.5872 36.6824 80.261 37.1896 81.1874 37.1896C81.8611 37.1896 82.4507 36.8515 82.7033 36.3443H84.8088C84.3035 37.9503 82.8718 38.9645 81.1874 38.9645C78.9977 38.9645 77.3976 37.2741 77.3976 35.0765C77.3976 32.8789 78.9977 31.1885 81.1874 31.1885C83.4613 31.1885 84.9772 32.8789 84.9772 34.992C84.893 35.2456 84.893 35.4991 84.893 35.6682ZM79.4188 34.3158H82.956C82.7033 33.3861 82.0296 32.9634 81.1874 32.9634C80.261 32.9634 79.6715 33.4706 79.4188 34.3158Z" fill="#00003C"/>
<path d="M90.6202 31.4419V33.3014H89.778C88.6832 33.3014 88.2621 33.8085 88.2621 34.9918V38.7954H86.3251V31.5264H87.5884L87.9252 32.4562C88.4305 31.78 89.1043 31.5264 90.0307 31.5264H90.6202V31.4419Z" fill="#00003C"/>
<path d="M98.4544 34.3156V38.7107H96.5174V34.6537C96.5174 33.5549 96.0963 33.0477 95.2541 33.0477C94.2435 33.0477 93.654 33.8084 93.654 34.9917V38.7953H91.7169V31.5263H93.0644L93.4855 32.4561C94.0751 31.7799 94.9173 31.3573 95.9279 31.3573C97.4438 31.2728 98.4544 32.4561 98.4544 34.3156Z" fill="#00003C"/>
<path d="M107.297 35.6682H101.823C101.992 36.6824 102.665 37.1896 103.592 37.1896C104.266 37.1896 104.855 36.8515 105.108 36.3443H107.213C106.708 37.9503 105.276 38.9645 103.592 38.9645C101.402 38.9645 99.802 37.2741 99.802 35.0765C99.802 32.8789 101.402 31.1885 103.592 31.1885C105.866 31.1885 107.382 32.8789 107.382 34.992C107.297 35.2456 107.297 35.4991 107.297 35.6682ZM101.823 34.3158H105.36C105.108 33.3861 104.434 32.9634 103.592 32.9634C102.665 32.9634 102.076 33.4706 101.823 34.3158Z" fill="#00003C"/>
<path d="M113.107 37.0205V38.7955H111.675C110.075 38.7955 109.065 37.7812 109.065 36.1753V33.0479H107.801V32.6253L110.665 29.5825H111.002V31.5265H113.023V33.1325H111.086V36.0062C111.086 36.6824 111.507 37.105 112.181 37.105H113.107V37.0205Z" fill="#00003C"/>
<path d="M121.443 35.6682H115.969C116.137 36.6824 116.811 37.1896 117.737 37.1896C118.411 37.1896 119 36.8515 119.253 36.3443H121.359C120.853 37.9503 119.422 38.9645 117.737 38.9645C115.547 38.9645 113.947 37.2741 113.947 35.0765C113.947 32.8789 115.547 31.1885 117.737 31.1885C120.011 31.1885 121.527 32.8789 121.527 34.992C121.443 35.2456 121.443 35.4991 121.443 35.6682ZM115.969 34.3158H119.506C119.253 33.3861 118.579 32.9634 117.737 32.9634C116.811 32.9634 116.221 33.4706 115.969 34.3158Z" fill="#00003C"/>
<path d="M125.402 38.9645C123.549 38.9645 122.37 37.9502 122.37 36.3443H124.307C124.307 37.0205 124.812 37.3586 125.486 37.3586C125.991 37.3586 126.497 37.105 126.497 36.5979C126.497 36.0907 125.907 35.9217 125.065 35.8372C123.886 35.6681 122.454 35.33 122.454 33.6396C122.454 32.2872 123.633 31.2729 125.402 31.2729C127.17 31.2729 128.349 32.2872 128.349 33.7241H126.497C126.497 33.1324 126.075 32.8789 125.402 32.8789C124.812 32.8789 124.391 33.1324 124.391 33.5551C124.391 34.0622 124.981 34.1467 125.739 34.3158C126.918 34.5693 128.434 34.8229 128.434 36.5979C128.518 38.0347 127.255 38.9645 125.402 38.9645Z" fill="#00003C"/>
<path d="M140.226 32.541C140.226 34.4005 138.794 35.8373 136.857 35.8373H135.257V38.7956H133.236V29.3291H136.857C138.794 29.3291 140.226 30.6815 140.226 32.541ZM138.205 32.541C138.205 31.7803 137.699 31.1886 136.857 31.1886H135.341V33.8933H136.857C137.615 33.8933 138.205 33.3017 138.205 32.541Z" fill="#00003C"/>
<path d="M141.407 28.8218H143.344V38.7954H141.407V28.8218Z" fill="#00003C"/>
<path d="M152.606 31.4421V38.711H151.09L150.922 38.0348C150.332 38.542 149.49 38.8801 148.563 38.8801C146.374 38.8801 144.774 37.1896 144.774 34.992C144.774 32.7945 146.374 31.104 148.563 31.104C149.49 31.104 150.332 31.4421 150.922 32.0338L151.174 31.3576L152.606 31.4421ZM150.669 35.0766C150.669 33.8932 149.827 33.048 148.648 33.048C147.469 33.048 146.626 33.8932 146.626 35.0766C146.626 36.2599 147.469 37.1051 148.648 37.1051C149.827 37.1051 150.669 36.2599 150.669 35.0766Z" fill="#00003C"/>
<path d="M163.977 33.2171H162.124V38.7956H160.187V33.2171H156.902V35.9218C156.902 36.598 157.324 37.0206 157.997 37.0206H158.755V38.7956H157.492C155.892 38.7956 154.881 37.7813 154.881 36.1754V33.2171H153.534V32.7945L156.397 29.5826H156.734V31.6112H160.103V30.8505C160.103 29.4136 160.861 28.5684 162.377 28.5684H163.808V30.0898H162.714C162.208 30.0898 161.956 30.3433 161.956 30.8505V31.5266H163.808V33.2171H163.977Z" fill="#00003C"/>
<path d="M164.564 35.0765C164.564 32.8789 166.248 31.1885 168.522 31.1885C170.796 31.1885 172.48 32.7944 172.48 35.0765C172.48 37.2741 170.796 38.9645 168.522 38.9645C166.248 38.9645 164.564 37.2741 164.564 35.0765ZM170.459 35.0765C170.459 33.8932 169.617 33.048 168.522 33.048C167.427 33.048 166.585 33.8932 166.585 35.0765C166.585 36.2598 167.427 37.1051 168.522 37.1051C169.617 37.1051 170.459 36.2598 170.459 35.0765Z" fill="#00003C"/>
<path d="M178.208 31.4419V33.3014H177.365C176.271 33.3014 175.85 33.8085 175.85 34.9918V38.7954H173.913V31.5264H175.176L175.513 32.4562C176.018 31.78 176.692 31.5264 177.618 31.5264H178.208V31.4419Z" fill="#00003C"/>
<path d="M190.084 34.1467V38.7109H188.147V34.4848C188.147 33.4705 187.726 32.9634 187.052 32.9634C186.21 32.9634 185.62 33.6396 185.62 34.7384V38.7109H183.683V34.4848C183.683 33.4705 183.347 32.9634 182.589 32.9634C181.662 32.9634 181.157 33.6396 181.157 34.7384V38.7109H179.22V31.442H180.567L180.904 32.3717C181.41 31.6956 182.252 31.2729 183.094 31.2729C184.02 31.2729 184.778 31.6956 185.199 32.4563C185.705 31.7801 186.547 31.2729 187.473 31.2729C188.989 31.2729 190.084 32.4563 190.084 34.1467Z" fill="#00003C"/>
</g>
<defs>
<clipPath id="clip0_1112_2">
<rect width="190" height="42.7687" fill="white"/>
</clipPath>
</defs>
</svg>
