<svg version="1.1" viewBox="0.0 0.0 699.8792650918635 120.02887139107611" fill="none" stroke="none" stroke-linecap="square" stroke-miterlimit="10" xmlns:xlink="http://www.w3.org/1999/xlink" xmlns="http://www.w3.org/2000/svg"><clipPath id="p.0"><path d="m0 0l699.8793 0l0 120.02887l-699.8793 0l0 -120.02887z" clip-rule="nonzero"/></clipPath><g clip-path="url(#p.0)"><path fill="#000000" fill-opacity="0.0" d="m0 0l699.8793 0l0 120.02887l-699.8793 0z" fill-rule="evenodd"/><path fill="#d9d2e9" d="m43.56455 26.125984l106.0365 0c2.746582E-4 0 5.187988E-4 1.04904175E-4 7.019043E-4 2.8800964E-4c1.8310547E-4 1.8501282E-4 2.89917E-4 4.3678284E-4 2.89917E-4 6.980896E-4l-9.918213E-4 61.46859c0 6.7899017 -5.504303 12.294205 -12.294205 12.294205l-106.0365 0l0 0c-5.455017E-4 0 -9.860992E-4 -4.4250488E-4 -9.860992E-4 -9.841919E-4l9.860992E-4 -61.468586l0 0c0 -6.7899036 5.504305 -12.294209 12.294207 -12.294209z" fill-rule="evenodd"/><path fill="#434343" d="m68.568504 65.899124q0 0.296875 -0.125 0.5625q-0.125 0.25 -0.359375 0.421875q-0.234375 0.1875 -0.578125 0.296875q-0.34375 0.09375 -0.78125 0.09375q-0.484375 0 -0.90625 -0.109375q-0.40625 -0.109375 -0.6875 -0.34375q-0.296875 -0.234375 -0.46875 -0.59375q-0.15625 -0.375 -0.171875 -0.890625l-2.1562462 0q0 0.875 0.328125 1.53125q0.34375 0.65625 0.9375 1.140625q0.6093712 0.5 1.4374962 0.765625q0.84375 0.25 1.6875 0.25q0.875 0 1.609375 -0.203125q0.734375 -0.21875 1.265625 -0.625q0.53125 -0.40625 0.828125 -0.984375q0.296875 -0.578125 0.296875 -1.328125q0 -0.875 -0.40625 -1.53125q-0.390625 -0.6718788 -1.0625 -1.1718788q-0.4375 -0.296875 -0.96875 -0.53125q-0.53125 -0.234375 -1.125 -0.40625q-0.546875 -0.140625 -0.984375 -0.3125q-0.421875 -0.171875 -0.734375 -0.390625q-0.296875 -0.203125 -0.46875 -0.453125q-0.15625 -0.265625 -0.15625 -0.578125q0 -0.3125 0.125 -0.5625q0.125 -0.265625 0.359375 -0.46875q0.234375 -0.1875 0.5625 -0.28125q0.34375 -0.109375 0.78125 -0.109375q0.484375 0 0.828125 0.125q0.359375 0.125 0.609375 0.359375q0.234375 0.234375 0.34375 0.5625q0.125 0.3125 0.140625 0.6875l2.140625 0q0 -0.765625 -0.296875 -1.40625q-0.296875 -0.640625 -0.828125 -1.109375q-0.53125 -0.453125 -1.265625 -0.703125q-0.734375 -0.265625 -1.625 -0.265625q-0.859375 0 -1.59375 0.21875q-0.734375 0.21875 -1.2812462 0.640625q-0.53125 0.40625 -0.84375 1.0q-0.296875 0.578125 -0.296875 1.296875q0 0.625 0.21875 1.15625q0.234375 0.53125 0.6875 0.96875q0.4531212 0.4375 1.1718712 0.8125q0.71875 0.359375 1.65625 0.6250038q0.609375 0.15625 1.015625 0.359375q0.421875 0.1875 0.671875 0.40625q0.25 0.234375 0.359375 0.5q0.109375 0.265625 0.109375 0.578125zm3.4765625 -1.34375l0 0.171875q0 0.921875 0.265625 1.71875q0.265625 0.78125 0.78125 1.359375q0.5 0.578125 1.25 0.90625q0.75 0.328125 1.703125 0.328125q0.9375 0 1.671875 -0.328125q0.75 -0.328125 1.265625 -0.90625q0.5 -0.578125 0.765625 -1.359375q0.265625 -0.796875 0.265625 -1.71875l0 -0.171875q0 -0.9218788 -0.265625 -1.7031288q-0.265625 -0.78125 -0.765625 -1.359375q-0.515625 -0.578125 -1.265625 -0.90625q-0.734375 -0.328125 -1.6875 -0.328125q-0.953125 0 -1.703125 0.328125q-0.734375 0.328125 -1.234375 0.90625q-0.515625 0.578125 -0.78125 1.359375q-0.265625 0.78125 -0.265625 1.7031288zm2.171875 0.171875l0 -0.171875q0 -0.515625 0.09375 -0.9687538q0.109375 -0.46875 0.328125 -0.8125q0.21875 -0.359375 0.5625 -0.5625q0.34375 -0.203125 0.828125 -0.203125q0.484375 0 0.828125 0.203125q0.34375 0.203125 0.5625 0.5625q0.21875 0.34375 0.3125 0.8125q0.109375 0.4531288 0.109375 0.9687538l0 0.171875q0 0.53125 -0.109375 1.0q-0.09375 0.453125 -0.3125 0.796875q-0.21875 0.359375 -0.5625 0.5625q-0.34375 0.203125 -0.8125 0.203125q-0.5 0 -0.84375 -0.203125q-0.34375 -0.203125 -0.5625 -0.5625q-0.21875 -0.34375 -0.328125 -0.796875q-0.09375 -0.46875 -0.09375 -1.0zm13.2421875 4.140625l1.96875 0l0 -8.453129l-2.1875 0l0 5.921879q-0.09375 0.203125 -0.234375 0.375q-0.140625 0.15625 -0.328125 0.28125q-0.203125 0.125 -0.484375 0.203125q-0.28125 0.0625 -0.625 0.0625q-0.375 0 -0.640625 -0.09375q-0.265625 -0.09375 -0.4375 -0.3125q-0.15625 -0.203125 -0.234375 -0.546875q-0.078125 -0.359375 -0.078125 -0.875l0 -5.015629l-2.171875 0l0 5.000004q0 0.953125 0.21875 1.640625q0.21875 0.6875 0.609375 1.125q0.390625 0.4375 0.9375 0.65625q0.546875 0.203125 1.203125 0.203125q0.71875 0 1.3125 -0.359375q0.609375 -0.375 1.046875 -1.0l0.125 1.1875zm10.1484375 -8.609379q-0.84375 0 -1.5625 0.40625q-0.71875 0.40625 -1.234375 1.125l-0.015625 -0.1875l-0.09375 -1.1875l-2.015625 0l0 8.453129l2.171875 0l0 -5.078129q0.140625 -0.359375 0.359375 -0.625q0.234375 -0.265625 0.5625 -0.4375q0.265625 -0.15625 0.59375 -0.21875q0.34375 -0.078125 0.765625 -0.078125q0.40625 0 0.859375 0.046875q0.453125 0.046875 0.875 0.15625l0.328125 -2.171875q-0.265625 -0.078125 -0.6875 -0.140625q-0.40625 -0.0625 -0.90625 -0.0625zm7.2734375 7.031254q-0.515625 0 -0.859375 -0.203125q-0.34375 -0.21875 -0.53125 -0.578125q-0.203125 -0.34375 -0.28125 -0.796875q-0.078125 -0.453125 -0.078125 -0.953125l0 -0.234375q0 -0.484375 0.078125 -0.9375038q0.078125 -0.453125 0.28125 -0.796875q0.203125 -0.359375 0.53125 -0.5625q0.34375 -0.21875 0.859375 -0.21875q0.34375 0 0.640625 0.125q0.296875 0.125 0.515625 0.328125q0.203125 0.203125 0.3125 0.484375q0.109375 0.28125 0.09375 0.59375l2.046875 0q0.015625 -0.75 -0.25 -1.359375q-0.265625 -0.609375 -0.734375 -1.03125q-0.484375 -0.421875 -1.15625 -0.65625q-0.65625 -0.234375 -1.4375 -0.234375q-0.984375 0 -1.71875 0.34375q-0.734375 0.328125 -1.234375 0.90625q-0.5 0.578125 -0.75 1.359375q-0.25 0.765625 -0.25 1.6562538l0 0.234375q0 0.890625 0.25 1.671875q0.25 0.78125 0.75 1.359375q0.5 0.578125 1.234375 0.921875q0.75 0.328125 1.734375 0.328125q0.71875 0 1.375 -0.234375q0.65625 -0.234375 1.140625 -0.640625q0.5 -0.40625 0.78125 -0.96875q0.28125 -0.5625 0.265625 -1.21875l-2.046875 0q0.015625 0.296875 -0.109375 0.546875q-0.109375 0.234375 -0.328125 0.40625q-0.21875 0.171875 -0.515625 0.265625q-0.28125 0.09375 -0.609375 0.09375zm9.9609375 1.734375q1.234375 0 2.125 -0.46875q0.90625 -0.484375 1.3125 -1.078125l-1.078125 -1.171875q-0.375 0.484375 -0.984375 0.734375q-0.59375 0.234375 -1.234375 0.234375q-0.453125 0 -0.84375 -0.140625q-0.375 -0.140625 -0.671875 -0.390625q-0.296875 -0.25 -0.46875 -0.5625q-0.171875 -0.3125 -0.28125 -0.8125l0 -0.03125l5.734375 0l0 -0.921875q0 -0.9218788 -0.265625 -1.6875038q-0.25 -0.78125 -0.734375 -1.328125q-0.5 -0.546875 -1.21875 -0.84375q-0.71875 -0.296875 -1.625 -0.296875q-0.890625 0 -1.640625 0.328125q-0.75 0.3125 -1.296875 0.890625q-0.546875 0.578125 -0.859375 1.375q-0.296875 0.796875 -0.296875 1.7656288l0 0.3125q0 0.859375 0.3125 1.609375q0.3125 0.734375 0.875 1.28125q0.578125 0.5625 1.375 0.890625q0.796875 0.3125 1.765625 0.3125zm-0.25 -7.015629q0.40625 0 0.71875 0.140625q0.328125 0.125 0.546875 0.34375q0.21875 0.21875 0.34375 0.53125q0.125 0.296875 0.125 0.640625l0 0.171875l-3.5625 0q0.078125 -0.40625 0.234375 -0.734375q0.15625 -0.34375 0.390625 -0.59375q0.21875 -0.234375 0.515625 -0.359375q0.3125 -0.140625 0.6875 -0.140625z" fill-rule="nonzero"/><path fill="#d9d2e9" d="m560.17346 26.125984l106.0365 0c2.4414062E-4 0 5.493164E-4 1.04904175E-4 7.324219E-4 2.8800964E-4c1.8310547E-4 1.8501282E-4 2.4414062E-4 4.3678284E-4 2.4414062E-4 6.980896E-4l-9.765625E-4 61.46859c0 6.7899017 -5.5042725 12.294205 -12.294189 12.294205l-106.0365 0l0 0c-5.493164E-4 0 -9.765625E-4 -4.4250488E-4 -9.765625E-4 -9.841919E-4l9.765625E-4 -61.468586l0 0c0 -6.7899036 5.5042725 -12.294209 12.294189 -12.294209z" fill-rule="evenodd"/><path fill="#434343" d="m563.8671 67.80788l2.546875 0q0.625 0 1.1875 -0.15625q0.5625 -0.15625 1.015625 -0.453125q0.40625 -0.25 0.734375 -0.609375q0.328125 -0.375 0.578125 -0.8125q0.25 -0.484375 0.390625 -1.0625q0.15625 -0.59375 0.15625 -1.2500038l0 -0.78125q0 -0.6875 -0.15625 -1.28125q-0.15625 -0.609375 -0.4375 -1.109375q-0.234375 -0.40625 -0.5625 -0.75q-0.3125 -0.359375 -0.734375 -0.59375q-0.46875 -0.296875 -1.046875 -0.453125q-0.5625 -0.15625 -1.21875 -0.15625l-2.453125 0l0 9.468754zm1.84375 -7.984379l0.609375 0q0.328125 0 0.609375 0.078125q0.296875 0.0625 0.53125 0.203125q0.296875 0.1875 0.53125 0.46875q0.234375 0.28125 0.375 0.640625q0.109375 0.3125 0.171875 0.6875q0.0625 0.359375 0.0625 0.765625l0 0.796875q0 0.4375 -0.0625 0.8125038q-0.0625 0.375 -0.171875 0.6875q-0.140625 0.34375 -0.34375 0.609375q-0.203125 0.265625 -0.453125 0.4375q-0.234375 0.15625 -0.53125 0.25q-0.28125 0.078125 -0.625 0.078125l-0.703125 0l0 -6.515629zm9.670044 8.109379q1.03125 0 1.78125 -0.390625q0.75 -0.390625 1.09375 -0.890625l-0.90625 -0.96875q-0.3125 0.40625 -0.8125 0.609375q-0.5 0.1875 -1.046875 0.1875q-0.375 0 -0.703125 -0.109375q-0.3125 -0.125 -0.546875 -0.328125q-0.25 -0.21875 -0.390625 -0.46875q-0.140625 -0.265625 -0.234375 -0.6875l0 -0.015625l4.78125 0l0 -0.765625q0 -0.7812538 -0.21875 -1.4218788q-0.21875 -0.640625 -0.625 -1.09375q-0.421875 -0.453125 -1.015625 -0.703125q-0.59375 -0.25 -1.359375 -0.25q-0.734375 0 -1.359375 0.265625q-0.625 0.265625 -1.078125 0.75q-0.453125 0.484375 -0.703125 1.15625q-0.25 0.65625 -0.25 1.4687538l0 0.25q0 0.71875 0.25 1.34375q0.265625 0.609375 0.734375 1.078125q0.46875 0.453125 1.125 0.71875q0.671875 0.265625 1.484375 0.265625zm-0.203125 -5.828129q0.34375 0 0.59375 0.109375q0.265625 0.09375 0.453125 0.28125q0.1875 0.1875 0.28125 0.453125q0.109375 0.25 0.109375 0.53125l0 0.140625l-2.96875 0q0.0625 -0.34375 0.1875 -0.625q0.140625 -0.28125 0.34375 -0.484375q0.1875 -0.203125 0.4375 -0.296875q0.25 -0.109375 0.5625 -0.109375zm9.326294 3.7656288q0 0.171875 -0.078125 0.3125q-0.078125 0.125 -0.234375 0.234375q-0.171875 0.109375 -0.4375 0.171875q-0.265625 0.046875 -0.609375 0.046875q-0.296875 0 -0.578125 -0.046875q-0.28125 -0.0625 -0.484375 -0.1875q-0.21875 -0.125 -0.359375 -0.328125q-0.140625 -0.21875 -0.15625 -0.5l-1.71875 0q0 0.4375 0.203125 0.859375q0.21875 0.421875 0.625 0.75q0.40625 0.34375 1.015625 0.5625q0.609375 0.203125 1.40625 0.203125q0.71875 0 1.296875 -0.15625q0.59375 -0.171875 1.015625 -0.453125q0.40625 -0.28125 0.625 -0.671875q0.234375 -0.40625 0.234375 -0.875q0 -0.5 -0.234375 -0.859375q-0.21875 -0.375 -0.609375 -0.640625q-0.40625 -0.25 -0.953125 -0.4062538q-0.546875 -0.171875 -1.171875 -0.28125q-0.453125 -0.0625 -0.734375 -0.140625q-0.28125 -0.09375 -0.453125 -0.203125q-0.171875 -0.109375 -0.234375 -0.234375q-0.0625 -0.140625 -0.0625 -0.296875q0 -0.15625 0.078125 -0.296875q0.078125 -0.140625 0.21875 -0.234375q0.15625 -0.125 0.390625 -0.1875q0.25 -0.0625 0.59375 -0.0625q0.390625 0 0.65625 0.09375q0.28125 0.09375 0.4375 0.265625q0.125 0.125 0.171875 0.28125q0.0625 0.140625 0.0625 0.3125l1.8125 0q0 -0.484375 -0.21875 -0.890625q-0.203125 -0.421875 -0.609375 -0.734375q-0.40625 -0.296875 -1.0 -0.46875q-0.578125 -0.171875 -1.3125 -0.171875q-0.703125 0 -1.265625 0.1875q-0.5625 0.171875 -0.953125 0.46875q-0.390625 0.296875 -0.609375 0.703125q-0.203125 0.390625 -0.203125 0.828125q0 0.4375 0.203125 0.78125q0.21875 0.34375 0.578125 0.6093788q0.359375 0.265625 0.875 0.453125q0.515625 0.1875 1.125 0.3125q0.484375 0.09375 0.796875 0.1875q0.328125 0.078125 0.53125 0.1875q0.1875 0.109375 0.25 0.234375q0.078125 0.125 0.078125 0.28125zm6.779419 -6.828129l-1.8125 0l0 1.71875l-1.609375 0l0 1.34375l1.609375 0l0 3.2031288q0 0.6875 0.1875 1.1875q0.1875 0.5 0.515625 0.8125q0.34375 0.328125 0.8125 0.484375q0.46875 0.15625 1.046875 0.15625q0.296875 0 0.609375 -0.03125q0.3125 -0.03125 0.59375 -0.078125q0.28125 -0.0625 0.53125 -0.140625q0.265625 -0.078125 0.453125 -0.1875l-0.171875 -1.25q-0.125 0.03125 -0.296875 0.078125q-0.171875 0.03125 -0.375 0.046875q-0.203125 0.03125 -0.421875 0.0625q-0.21875 0.015625 -0.421875 0.015625q-0.28125 0 -0.515625 -0.0625q-0.234375 -0.078125 -0.390625 -0.234375q-0.171875 -0.140625 -0.265625 -0.390625q-0.078125 -0.265625 -0.078125 -0.65625l0 -3.0156288l2.625 0l0 -1.34375l-2.625 0l0 -1.71875zm5.170105 1.71875l0 1.484375l2.0 0l0 4.093754l-2.0 0l0 1.46875l5.734375 0l0 -1.46875l-1.90625 0l0 -5.578129l-3.828125 0zm1.875 -1.796875q0 0.203125 0.0625 0.390625q0.078125 0.171875 0.21875 0.296875q0.140625 0.125 0.328125 0.203125q0.1875 0.078125 0.421875 0.078125q0.484375 0 0.765625 -0.265625q0.28125 -0.28125 0.28125 -0.703125q0 -0.421875 -0.28125 -0.6875q-0.28125 -0.28125 -0.765625 -0.28125q-0.234375 0 -0.421875 0.078125q-0.1875 0.0625 -0.328125 0.1875q-0.140625 0.140625 -0.21875 0.328125q-0.0625 0.171875 -0.0625 0.375zm5.638794 8.843754l1.8125 0l0 -5.000004q0.09375 -0.140625 0.203125 -0.25q0.109375 -0.125 0.25 -0.21875q0.15625 -0.109375 0.375 -0.171875q0.21875 -0.0625 0.484375 -0.0625q0.3125 0 0.5625 0.0625q0.25 0.0625 0.421875 0.21875q0.171875 0.15625 0.265625 0.4375q0.09375 0.265625 0.09375 0.671875l0 4.312504l1.8125 0l0 -4.328129q0 -0.78125 -0.1875 -1.3125q-0.171875 -0.53125 -0.484375 -0.875q-0.328125 -0.34375 -0.78125 -0.5q-0.4375 -0.15625 -0.96875 -0.15625q-0.421875 0 -0.796875 0.125q-0.359375 0.109375 -0.671875 0.328125q-0.1875 0.125 -0.34375 0.296875q-0.15625 0.15625 -0.296875 0.359375l-0.109375 -0.984375l-1.640625 0l0 7.046879zm12.388794 0l1.84375 0l0 -0.109375q-0.140625 -0.265625 -0.21875 -0.640625q-0.0625 -0.375 -0.0625 -0.9375l0 -3.0156288q0 -0.609375 -0.234375 -1.078125q-0.21875 -0.46875 -0.625 -0.765625q-0.40625 -0.3125 -0.953125 -0.46875q-0.546875 -0.15625 -1.1875 -0.15625q-0.71875 0 -1.265625 0.1875q-0.546875 0.171875 -0.921875 0.46875q-0.390625 0.3125 -0.59375 0.71875q-0.1875 0.40625 -0.1875 0.84375l1.8125 0q0 -0.1875 0.046875 -0.34375q0.0625 -0.15625 0.171875 -0.265625q0.140625 -0.125 0.34375 -0.1875q0.203125 -0.0625 0.5 -0.0625q0.3125 0 0.5625 0.078125q0.25 0.078125 0.40625 0.234375q0.15625 0.140625 0.234375 0.34375q0.078125 0.1875 0.078125 0.4375l0 0.421875l-1.015625 0q-0.765625 0 -1.375 0.140625q-0.609375 0.140625 -1.015625 0.4062538q-0.453125 0.28125 -0.6875 0.734375q-0.21875 0.453125 -0.21875 1.046875q0 0.453125 0.171875 0.84375q0.1875 0.390625 0.515625 0.65625q0.328125 0.28125 0.78125 0.4375q0.453125 0.15625 0.984375 0.15625q0.34375 0 0.625 -0.0625q0.28125 -0.0625 0.53125 -0.171875q0.234375 -0.09375 0.421875 -0.234375q0.203125 -0.15625 0.34375 -0.3125q0.03125 0.1875 0.078125 0.359375q0.046875 0.171875 0.109375 0.296875zm-1.71875 -1.265625q-0.25 0 -0.453125 -0.0625q-0.1875 -0.0625 -0.3125 -0.171875q-0.140625 -0.109375 -0.203125 -0.265625q-0.0625 -0.15625 -0.0625 -0.34375q0 -0.25 0.078125 -0.453125q0.09375 -0.203125 0.28125 -0.359375q0.203125 -0.140625 0.5 -0.21875q0.296875 -0.078125 0.71875 -0.078125l0.921875 0l0 1.203125q-0.078125 0.140625 -0.21875 0.28125q-0.125 0.125 -0.328125 0.234375q-0.1875 0.09375 -0.421875 0.171875q-0.234375 0.0625 -0.5 0.0625zm8.638794 -7.500004l-1.8125 0l0 1.71875l-1.609375 0l0 1.34375l1.609375 0l0 3.2031288q0 0.6875 0.1875 1.1875q0.1875 0.5 0.515625 0.8125q0.34375 0.328125 0.8125 0.484375q0.46875 0.15625 1.046875 0.15625q0.296875 0 0.609375 -0.03125q0.3125 -0.03125 0.59375 -0.078125q0.28125 -0.0625 0.53125 -0.140625q0.265625 -0.078125 0.453125 -0.1875l-0.171875 -1.25q-0.125 0.03125 -0.296875 0.078125q-0.171875 0.03125 -0.375 0.046875q-0.203125 0.03125 -0.421875 0.0625q-0.21875 0.015625 -0.421875 0.015625q-0.28125 0 -0.515625 -0.0625q-0.234375 -0.078125 -0.390625 -0.234375q-0.171875 -0.140625 -0.265625 -0.390625q-0.078125 -0.265625 -0.078125 -0.65625l0 -3.0156288l2.625 0l0 -1.34375l-2.625 0l0 -1.71875zm5.170105 1.71875l0 1.484375l2.0 0l0 4.093754l-2.0 0l0 1.46875l5.734375 0l0 -1.46875l-1.90625 0l0 -5.578129l-3.828125 0zm1.875 -1.796875q0 0.203125 0.0625 0.390625q0.078125 0.171875 0.21875 0.296875q0.140625 0.125 0.328125 0.203125q0.1875 0.078125 0.421875 0.078125q0.484375 0 0.765625 -0.265625q0.28125 -0.28125 0.28125 -0.703125q0 -0.421875 -0.28125 -0.6875q-0.28125 -0.28125 -0.765625 -0.28125q-0.234375 0 -0.421875 0.078125q-0.1875 0.0625 -0.328125 0.1875q-0.140625 0.140625 -0.21875 0.328125q-0.0625 0.171875 -0.0625 0.375zm5.388794 5.265629l0 0.125q0 0.78125 0.21875 1.4375q0.21875 0.65625 0.65625 1.125q0.421875 0.484375 1.03125 0.765625q0.625 0.265625 1.421875 0.265625q0.796875 0 1.40625 -0.265625q0.625 -0.28125 1.046875 -0.765625q0.421875 -0.46875 0.640625 -1.125q0.21875 -0.65625 0.21875 -1.4375l0 -0.125q0 -0.7812538 -0.21875 -1.4218788q-0.21875 -0.65625 -0.640625 -1.140625q-0.4375 -0.484375 -1.0625 -0.75q-0.609375 -0.28125 -1.40625 -0.28125q-0.78125 0 -1.40625 0.28125q-0.609375 0.265625 -1.03125 0.75q-0.4375 0.484375 -0.65625 1.140625q-0.21875 0.640625 -0.21875 1.4218788zm1.8125 0.125l0 -0.125q0 -0.4375038 0.078125 -0.8125038q0.09375 -0.390625 0.265625 -0.6875q0.1875 -0.296875 0.46875 -0.453125q0.28125 -0.171875 0.6875 -0.171875q0.421875 0 0.703125 0.171875q0.28125 0.15625 0.46875 0.453125q0.171875 0.296875 0.25 0.6875q0.09375 0.375 0.09375 0.8125038l0 0.125q0 0.453125 -0.09375 0.84375q-0.078125 0.375 -0.25 0.65625q-0.1875 0.296875 -0.46875 0.46875q-0.28125 0.171875 -0.6875 0.171875q-0.40625 0 -0.703125 -0.171875q-0.28125 -0.171875 -0.46875 -0.46875q-0.171875 -0.28125 -0.265625 -0.65625q-0.078125 -0.390625 -0.078125 -0.84375zm6.435669 3.453125l1.8125 0l0 -5.000004q0.09375 -0.140625 0.203125 -0.25q0.109375 -0.125 0.25 -0.21875q0.15625 -0.109375 0.375 -0.171875q0.21875 -0.0625 0.484375 -0.0625q0.3125 0 0.5625 0.0625q0.25 0.0625 0.421875 0.21875q0.171875 0.15625 0.265625 0.4375q0.09375 0.265625 0.09375 0.671875l0 4.312504l1.8125 0l0 -4.328129q0 -0.78125 -0.1875 -1.3125q-0.171875 -0.53125 -0.484375 -0.875q-0.328125 -0.34375 -0.78125 -0.5q-0.4375 -0.15625 -0.96875 -0.15625q-0.421875 0 -0.796875 0.125q-0.359375 0.109375 -0.671875 0.328125q-0.1875 0.125 -0.34375 0.296875q-0.15625 0.15625 -0.296875 0.359375l-0.109375 -0.984375l-1.640625 0l0 7.046879z" fill-rule="nonzero"/><path fill="#b6d7a8" d="m295.25986 38.420193l0 0c0 -6.7899036 5.504303 -12.294209 12.294189 -12.294209l82.37222 0c3.26062 0 6.3876953 1.2952785 8.693298 3.600891c2.3056335 2.3056107 3.600891 5.4326897 3.600891 8.693317l0 49.175365c0 6.7899017 -5.504303 12.294205 -12.294189 12.294205l-82.37222 0c-6.7898865 0 -12.294189 -5.504303 -12.294189 -12.294205z" fill-rule="evenodd"/><path fill="#434343" d="m314.20648 67.80788l0 -9.468754l1.9375 0l0 7.859379l4.78125 0l0 1.609375l-6.71875 0zm9.453857 -4.796879l-1.671875 -0.3125q0.28125 -1.0 0.96875 -1.46875q0.6875 -0.484375 2.03125 -0.484375q1.21875 0 1.8125 0.296875q0.609375 0.28125 0.84375 0.734375q0.25 0.4375 0.25 1.625l-0.015625 2.1406288q0 0.90625 0.078125 1.34375q0.09375 0.421875 0.34375 0.921875l-1.8125 0q-0.078125 -0.1875 -0.171875 -0.546875q-0.046875 -0.15625 -0.078125 -0.203125q-0.46875 0.453125 -1.0 0.6875q-0.53125 0.21875 -1.140625 0.21875q-1.0625 0 -1.6875 -0.578125q-0.609375 -0.578125 -0.609375 -1.46875q0 -0.578125 0.28125 -1.03125q0.28125 -0.46875 0.78125 -0.703125q0.515625 -0.2500038 1.46875 -0.4375038q1.28125 -0.234375 1.765625 -0.453125l0 -0.171875q0 -0.53125 -0.265625 -0.75q-0.25 -0.234375 -0.96875 -0.234375q-0.484375 0 -0.765625 0.203125q-0.265625 0.1875 -0.4375 0.671875zm2.4375 1.4843788q-0.34375 0.109375 -1.109375 0.28125q-0.765625 0.15625 -1.0 0.3125q-0.359375 0.25 -0.359375 0.640625q0 0.390625 0.28125 0.671875q0.296875 0.28125 0.734375 0.28125q0.5 0 0.953125 -0.328125q0.328125 -0.25 0.4375 -0.609375q0.0625 -0.234375 0.0625 -0.890625l0 -0.359375zm3.5218506 3.3125l0 -9.546879l1.828125 0l0 3.4375q0.84375 -0.953125 2.015625 -0.953125q1.25 0 2.078125 0.921875q0.828125 0.90625 0.828125 2.6093788q0 1.78125 -0.84375 2.734375q-0.84375 0.953125 -2.046875 0.953125q-0.59375 0 -1.171875 -0.296875q-0.5625 -0.296875 -0.984375 -0.875l0 1.015625l-1.703125 0zm1.8125 -3.609375q0 1.078125 0.34375 1.59375q0.46875 0.734375 1.265625 0.734375q0.609375 0 1.03125 -0.515625q0.421875 -0.53125 0.421875 -1.640625q0 -1.1875038 -0.4375 -1.7031288q-0.421875 -0.53125 -1.09375 -0.53125q-0.65625 0 -1.09375 0.515625q-0.4375 0.515625 -0.4375 1.5468788zm10.406982 1.40625l1.828125 0.3125q-0.34375 1.0 -1.109375 1.53125q-0.765625 0.515625 -1.890625 0.515625q-1.8125 0 -2.671875 -1.171875q-0.6875 -0.953125 -0.6875 -2.390625q0 -1.7187538 0.890625 -2.6875038q0.90625 -0.96875 2.28125 -0.96875q1.546875 0 2.4375 1.015625q0.890625 1.015625 0.84375 3.1250038l-4.578125 0q0.015625 0.8125 0.4375 1.265625q0.421875 0.453125 1.0625 0.453125q0.421875 0 0.71875 -0.234375q0.296875 -0.234375 0.4375 -0.765625zm0.109375 -1.8437538q-0.015625 -0.796875 -0.40625 -1.203125q-0.390625 -0.421875 -0.953125 -0.421875q-0.59375 0 -0.984375 0.4375q-0.390625 0.4375 -0.390625 1.1875l2.734375 0zm3.3031006 4.046879l0 -9.546879l1.828125 0l0 9.546879l-1.828125 0zm7.4372253 0l0 -9.546879l6.53125 0l0 1.625l-4.609375 0l0 2.25l3.984375 0l0 1.625l-3.984375 0l0 4.046879l-1.921875 0zm8.110107 -7.843754l0 -1.703125l1.828125 0l0 1.703125l-1.828125 0zm0 7.843754l0 -6.906254l1.828125 0l0 6.906254l-1.828125 0zm3.7029724 0l0 -9.546879l1.828125 0l0 9.546879l-1.828125 0zm6.874878 -6.906254l0 1.453125l-1.25 0l0 2.7812538q0 0.84375 0.03125 0.984375q0.046875 0.140625 0.171875 0.234375q0.125 0.09375 0.3125 0.09375q0.25 0 0.734375 -0.171875l0.15625 1.421875q-0.640625 0.265625 -1.453125 0.265625q-0.484375 0 -0.890625 -0.15625q-0.390625 -0.171875 -0.578125 -0.4375q-0.1875 -0.265625 -0.265625 -0.71875q-0.046875 -0.3125 -0.046875 -1.28125l0 -3.0156288l-0.84375 0l0 -1.453125l0.84375 0l0 -1.375l1.828125 -1.078125l0 2.453125l1.25 0zm5.2664795 4.703129l1.828125 0.3125q-0.34375 1.0 -1.109375 1.53125q-0.765625 0.515625 -1.890625 0.515625q-1.8125 0 -2.671875 -1.171875q-0.6875 -0.953125 -0.6875 -2.390625q0 -1.7187538 0.890625 -2.6875038q0.90625 -0.96875 2.28125 -0.96875q1.546875 0 2.4375 1.015625q0.890625 1.015625 0.84375 3.1250038l-4.578125 0q0.015625 0.8125 0.4375 1.265625q0.421875 0.453125 1.0625 0.453125q0.421875 0 0.71875 -0.234375q0.296875 -0.234375 0.4375 -0.765625zm0.109375 -1.8437538q-0.015625 -0.796875 -0.40625 -1.203125q-0.390625 -0.421875 -0.953125 -0.421875q-0.59375 0 -0.984375 0.4375q-0.390625 0.4375 -0.390625 1.1875l2.734375 0zm5.0531006 4.046879l-1.828125 0l0 -6.906254l1.703125 0l0 0.984375q0.4375 -0.703125 0.78125 -0.921875q0.34375 -0.21875 0.796875 -0.21875q0.625 0 1.203125 0.34375l-0.5625 1.59375q-0.46875 -0.296875 -0.859375 -0.296875q-0.390625 0 -0.65625 0.21875q-0.265625 0.203125 -0.421875 0.765625q-0.15625 0.546875 -0.15625 2.2968788l0 2.140625z" fill-rule="nonzero"/><path fill="#cfe2f3" d="m168.95013 38.420193l0 0c0 -6.7899036 5.504303 -12.294209 12.294205 -12.294209l82.37221 0c3.26062 0 6.387726 1.2952785 8.693329 3.600891c2.305603 2.3056107 3.600891 5.4326897 3.600891 8.693317l0 49.175365c0 6.7899017 -5.504303 12.294205 -12.29422 12.294205l-82.37221 0c-6.7899017 0 -12.294205 -5.504303 -12.294205 -12.294205z" fill-rule="evenodd"/><path fill="#434343" d="m189.53236 58.339123l-2.265625 0l0 9.468754l1.671875 0l0 -2.8125l-0.078125 -4.250004l1.125 3.9375038l0.890625 0l1.25 -4.109379l-0.078125 4.421879l0 2.8125l1.671875 0l0 -9.468754l-2.265625 0l-1.015625 3.546875l-0.90625 -3.546875zm10.420059 9.468754l1.640625 0l0 -7.046879l-1.8125 0l0 4.937504q-0.09375 0.171875 -0.21875 0.3125q-0.109375 0.140625 -0.25 0.234375q-0.1875 0.109375 -0.421875 0.171875q-0.21875 0.0625 -0.515625 0.0625q-0.3125 0 -0.53125 -0.078125q-0.21875 -0.078125 -0.359375 -0.265625q-0.140625 -0.171875 -0.203125 -0.46875q-0.0625 -0.296875 -0.0625 -0.71875l0 -4.187504l-1.8125 0l0 4.171879q0 0.796875 0.171875 1.375q0.1875 0.5625 0.515625 0.921875q0.328125 0.375 0.78125 0.546875q0.453125 0.171875 1.0 0.171875q0.609375 0 1.109375 -0.296875q0.5 -0.3125 0.859375 -0.828125l0.109375 0.984375zm3.7794342 -10.000004l0 1.484375l2.109375 0l0 7.046879l-2.109375 0l0 1.46875l5.953125 0l0 -1.46875l-2.015625 0l0 -8.531254l-3.9375 0zm10.935684 1.234375l-1.8125 0l0 1.71875l-1.609375 0l0 1.34375l1.609375 0l0 3.2031288q0 0.6875 0.1875 1.1875q0.1875 0.5 0.515625 0.8125q0.34375 0.328125 0.8125 0.484375q0.46875 0.15625 1.046875 0.15625q0.296875 0 0.609375 -0.03125q0.3125 -0.03125 0.59375 -0.078125q0.28125 -0.0625 0.53125 -0.140625q0.265625 -0.078125 0.453125 -0.1875l-0.171875 -1.25q-0.125 0.03125 -0.296875 0.078125q-0.171875 0.03125 -0.375 0.046875q-0.203125 0.03125 -0.421875 0.0625q-0.21875 0.015625 -0.421875 0.015625q-0.28125 0 -0.515625 -0.0625q-0.234375 -0.078125 -0.390625 -0.234375q-0.171875 -0.140625 -0.265625 -0.390625q-0.078125 -0.265625 -0.078125 -0.65625l0 -3.0156288l2.625 0l0 -1.34375l-2.625 0l0 -1.71875zm5.170059 1.71875l0 1.484375l2.0 0l0 4.093754l-2.0 0l0 1.46875l5.734375 0l0 -1.46875l-1.90625 0l0 -5.578129l-3.828125 0zm1.875 -1.796875q0 0.203125 0.0625 0.390625q0.078125 0.171875 0.21875 0.296875q0.140625 0.125 0.328125 0.203125q0.1875 0.078125 0.421875 0.078125q0.484375 0 0.765625 -0.265625q0.28125 -0.28125 0.28125 -0.703125q0 -0.421875 -0.28125 -0.6875q-0.28125 -0.28125 -0.765625 -0.28125q-0.234375 0 -0.421875 0.078125q-0.1875 0.0625 -0.328125 0.1875q-0.140625 0.140625 -0.21875 0.328125q-0.0625 0.171875 -0.0625 0.375zm6.013809 -1.15625l0 1.484375l2.109375 0l0 7.046879l-2.109375 0l0 1.46875l5.953125 0l0 -1.46875l-2.015625 0l0 -8.531254l-3.9375 0zm8.107559 2.953125l0 1.484375l2.0 0l0 4.093754l-2.0 0l0 1.46875l5.734375 0l0 -1.46875l-1.90625 0l0 -5.578129l-3.828125 0zm1.875 -1.796875q0 0.203125 0.0625 0.390625q0.078125 0.171875 0.21875 0.296875q0.140625 0.125 0.328125 0.203125q0.1875 0.078125 0.421875 0.078125q0.484375 0 0.765625 -0.265625q0.28125 -0.28125 0.28125 -0.703125q0 -0.421875 -0.28125 -0.6875q-0.28125 -0.28125 -0.765625 -0.28125q-0.234375 0 -0.421875 0.078125q-0.1875 0.0625 -0.328125 0.1875q-0.140625 0.140625 -0.21875 0.328125q-0.0625 0.171875 -0.0625 0.375zm5.638809 8.843754l1.8125 0l0 -5.000004q0.09375 -0.140625 0.203125 -0.25q0.109375 -0.125 0.25 -0.21875q0.15625 -0.109375 0.375 -0.171875q0.21875 -0.0625 0.484375 -0.0625q0.3125 0 0.5625 0.0625q0.25 0.0625 0.421875 0.21875q0.171875 0.15625 0.265625 0.4375q0.09375 0.265625 0.09375 0.671875l0 4.312504l1.8125 0l0 -4.328129q0 -0.78125 -0.1875 -1.3125q-0.171875 -0.53125 -0.484375 -0.875q-0.328125 -0.34375 -0.78125 -0.5q-0.4375 -0.15625 -0.96875 -0.15625q-0.421875 0 -0.796875 0.125q-0.359375 0.109375 -0.671875 0.328125q-0.1875 0.125 -0.34375 0.296875q-0.15625 0.15625 -0.296875 0.359375l-0.109375 -0.984375l-1.640625 0l0 7.046879zm11.404434 0.125q1.03125 0 1.7812653 -0.390625q0.75 -0.390625 1.09375 -0.890625l-0.90625 -0.96875q-0.3125 0.40625 -0.81251526 0.609375q-0.5 0.1875 -1.046875 0.1875q-0.375 0 -0.703125 -0.109375q-0.3125 -0.125 -0.546875 -0.328125q-0.25 -0.21875 -0.390625 -0.46875q-0.140625 -0.265625 -0.234375 -0.6875l0 -0.015625l4.7812653 0l0 -0.765625q0 -0.7812538 -0.21875 -1.4218788q-0.21875 -0.640625 -0.625 -1.09375q-0.421875 -0.453125 -1.0156403 -0.703125q-0.59375 -0.25 -1.359375 -0.25q-0.734375 0 -1.359375 0.265625q-0.625 0.265625 -1.078125 0.75q-0.453125 0.484375 -0.703125 1.15625q-0.25 0.65625 -0.25 1.4687538l0 0.25q0 0.71875 0.25 1.34375q0.265625 0.609375 0.734375 1.078125q0.46875 0.453125 1.125 0.71875q0.671875 0.265625 1.484375 0.265625zm-0.203125 -5.828129q0.34375 0 0.59375 0.109375q0.265625 0.09375 0.453125 0.28125q0.1875 0.1875 0.28125 0.453125q0.109375 0.25 0.109375 0.53125l0 0.140625l-2.96875 0q0.0625 -0.34375 0.1875 -0.625q0.140625 -0.28125 0.34375 -0.484375q0.1875 -0.203125 0.4375 -0.296875q0.25 -0.109375 0.5625 -0.109375z" fill-rule="nonzero"/><path fill="#b6d7a8" d="m421.56955 38.420193l0 0c0 -6.7899036 5.504303 -12.294209 12.29422 -12.294209l82.37219 0c3.26062 0 6.3876953 1.2952785 8.693359 3.600891c2.305603 2.3056107 3.600891 5.4326897 3.600891 8.693317l0 49.175365c0 6.7899017 -5.5043335 12.294205 -12.2942505 12.294205l-82.37219 0c-6.789917 0 -12.29422 -5.504303 -12.29422 -12.294205z" fill-rule="evenodd"/><path fill="#434343" d="m437.87146 66.3235l0 -7.984379l-1.84375 0l0 9.468754l6.28125 0l0 -1.484375l-4.4375 0zm5.857544 -2.09375l0 0.125q0 0.78125 0.21875 1.4375q0.21875 0.65625 0.65625 1.125q0.421875 0.484375 1.03125 0.765625q0.625 0.265625 1.421875 0.265625q0.796875 0 1.40625 -0.265625q0.625 -0.28125 1.046875 -0.765625q0.421875 -0.46875 0.640625 -1.125q0.21875 -0.65625 0.21875 -1.4375l0 -0.125q0 -0.7812538 -0.21875 -1.4218788q-0.21875 -0.65625 -0.640625 -1.140625q-0.4375 -0.484375 -1.0625 -0.75q-0.609375 -0.28125 -1.40625 -0.28125q-0.78125 0 -1.40625 0.28125q-0.609375 0.265625 -1.03125 0.75q-0.4375 0.484375 -0.65625 1.140625q-0.21875 0.640625 -0.21875 1.4218788zm1.8125 0.125l0 -0.125q0 -0.4375038 0.078125 -0.8125038q0.09375 -0.390625 0.265625 -0.6875q0.1875 -0.296875 0.46875 -0.453125q0.28125 -0.171875 0.6875 -0.171875q0.421875 0 0.703125 0.171875q0.28125 0.15625 0.46875 0.453125q0.171875 0.296875 0.25 0.6875q0.09375 0.375 0.09375 0.8125038l0 0.125q0 0.453125 -0.09375 0.84375q-0.078125 0.375 -0.25 0.65625q-0.1875 0.296875 -0.46875 0.46875q-0.28125 0.171875 -0.6875 0.171875q-0.40625 0 -0.703125 -0.171875q-0.28125 -0.171875 -0.46875 -0.46875q-0.171875 -0.28125 -0.265625 -0.65625q-0.078125 -0.390625 -0.078125 -0.84375zm6.2481995 -0.125l0 0.140625q0 0.765625 0.1875 1.421875q0.203125 0.65625 0.578125 1.125q0.375 0.484375 0.890625 0.75q0.53125 0.265625 1.1875 0.265625q0.328125 0 0.609375 -0.078125q0.296875 -0.0625 0.546875 -0.1875q0.15625 -0.09375 0.296875 -0.203125q0.15625 -0.125 0.28125 -0.265625l0 0.40625q0 0.359375 -0.109375 0.640625q-0.09375 0.28125 -0.28125 0.484375q-0.203125 0.203125 -0.515625 0.3125q-0.3125 0.125 -0.703125 0.125q-0.25 0 -0.484375 -0.0625q-0.234375 -0.046875 -0.453125 -0.140625q-0.21875 -0.09375 -0.421875 -0.25q-0.203125 -0.15625 -0.375 -0.359375l-0.8125 1.109375q0.234375 0.296875 0.546875 0.5q0.328125 0.21875 0.671875 0.34375q0.359375 0.140625 0.71875 0.203125q0.375 0.0625 0.6875 0.0625q0.75 0 1.359375 -0.203125q0.625 -0.1875 1.0625 -0.578125q0.4375 -0.375 0.671875 -0.9375q0.25 -0.5625 0.25 -1.28125l0 -6.812504l-1.640625 0l-0.078125 0.671875q-0.125 -0.15625 -0.28125 -0.28125q-0.15625 -0.140625 -0.34375 -0.234375q-0.234375 -0.140625 -0.53125 -0.203125q-0.296875 -0.078125 -0.65625 -0.078125q-0.671875 0 -1.203125 0.265625q-0.515625 0.25 -0.890625 0.734375q-0.375 0.46875 -0.578125 1.140625q-0.1875 0.65625 -0.1875 1.4531288zm1.8125 0.140625l0 -0.140625q0 -0.4375038 0.09375 -0.8281288q0.09375 -0.390625 0.28125 -0.671875q0.1875 -0.296875 0.453125 -0.453125q0.28125 -0.171875 0.671875 -0.171875q0.203125 0 0.375 0.046875q0.1875 0.03125 0.34375 0.109375q0.171875 0.078125 0.3125 0.21875q0.140625 0.140625 0.234375 0.3125l0 2.9843788q-0.09375 0.15625 -0.21875 0.296875q-0.125 0.125 -0.28125 0.21875q-0.15625 0.078125 -0.359375 0.125q-0.1875 0.046875 -0.421875 0.046875q-0.375 0 -0.65625 -0.15625q-0.28125 -0.171875 -0.46875 -0.453125q-0.171875 -0.28125 -0.265625 -0.65625q-0.09375 -0.390625 -0.09375 -0.828125zm20.308868 -0.4843788l0 -1.484375l-4.046875 0l0 -2.578125l4.5625 0l0 -1.484375l-6.40625 0l0 9.468754l1.84375 0l0 -3.9218788l4.046875 0zm2.545044 -3.125l0 1.484375l2.0 0l0 4.093754l-2.0 0l0 1.46875l5.734375 0l0 -1.46875l-1.90625 0l0 -5.578129l-3.828125 0zm1.875 -1.796875q0 0.203125 0.0625 0.390625q0.078125 0.171875 0.21875 0.296875q0.140625 0.125 0.328125 0.203125q0.1875 0.078125 0.421875 0.078125q0.484375 0 0.765625 -0.265625q0.28125 -0.28125 0.28125 -0.703125q0 -0.421875 -0.28125 -0.6875q-0.28125 -0.28125 -0.765625 -0.28125q-0.234375 0 -0.421875 0.078125q-0.1875 0.0625 -0.328125 0.1875q-0.140625 0.140625 -0.21875 0.328125q-0.0625 0.171875 -0.0625 0.375zm6.0138245 -1.15625l0 1.484375l2.109375 0l0 7.046879l-2.109375 0l0 1.46875l5.953125 0l0 -1.46875l-2.015625 0l0 -8.531254l-3.9375 0zm10.935669 1.234375l-1.8125 0l0 1.71875l-1.609375 0l0 1.34375l1.609375 0l0 3.2031288q0 0.6875 0.1875 1.1875q0.1875 0.5 0.515625 0.8125q0.34375 0.328125 0.8125 0.484375q0.46875 0.15625 1.046875 0.15625q0.296875 0 0.609375 -0.03125q0.3125 -0.03125 0.59375 -0.078125q0.28125 -0.0625 0.53125 -0.140625q0.265625 -0.078125 0.453125 -0.1875l-0.171875 -1.25q-0.125 0.03125 -0.296875 0.078125q-0.171875 0.03125 -0.375 0.046875q-0.203125 0.03125 -0.421875 0.0625q-0.21875 0.015625 -0.421875 0.015625q-0.28125 0 -0.515625 -0.0625q-0.234375 -0.078125 -0.390625 -0.234375q-0.171875 -0.140625 -0.265625 -0.390625q-0.078125 -0.265625 -0.078125 -0.65625l0 -3.0156288l2.625 0l0 -1.34375l-2.625 0l0 -1.71875zm8.091949 8.890629q1.03125 0 1.78125 -0.390625q0.75 -0.390625 1.09375 -0.890625l-0.90625 -0.96875q-0.3125 0.40625 -0.8125 0.609375q-0.5 0.1875 -1.046875 0.1875q-0.375 0 -0.703125 -0.109375q-0.3125 -0.125 -0.546875 -0.328125q-0.25 -0.21875 -0.390625 -0.46875q-0.140625 -0.265625 -0.234375 -0.6875l0 -0.015625l4.78125 0l0 -0.765625q0 -0.7812538 -0.21875 -1.4218788q-0.21875 -0.640625 -0.625 -1.09375q-0.421875 -0.453125 -1.015625 -0.703125q-0.59375 -0.25 -1.359375 -0.25q-0.734375 0 -1.359375 0.265625q-0.625 0.265625 -1.078125 0.75q-0.453125 0.484375 -0.703125 1.15625q-0.25 0.65625 -0.25 1.4687538l0 0.25q0 0.71875 0.25 1.34375q0.265625 0.609375 0.734375 1.078125q0.46875 0.453125 1.125 0.71875q0.671875 0.265625 1.484375 0.265625zm-0.203125 -5.828129q0.34375 0 0.59375 0.109375q0.265625 0.09375 0.453125 0.28125q0.1875 0.1875 0.28125 0.453125q0.109375 0.25 0.109375 0.53125l0 0.140625l-2.96875 0q0.0625 -0.34375 0.1875 -0.625q0.140625 -0.28125 0.34375 -0.484375q0.1875 -0.203125 0.4375 -0.296875q0.25 -0.109375 0.5625 -0.109375zm9.841919 -1.46875q-0.703125 0 -1.3125 0.34375q-0.59375 0.34375 -1.015625 0.9375l-0.015625 -0.15625l-0.078125 -1.0l-1.671875 0l0 7.046879l1.796875 0l0 -4.234379q0.125 -0.296875 0.3125 -0.515625q0.1875 -0.21875 0.453125 -0.359375q0.234375 -0.125 0.515625 -0.1875q0.28125 -0.0625 0.625 -0.0625q0.34375 0 0.71875 0.046875q0.375 0.03125 0.734375 0.125l0.265625 -1.8125q-0.21875 -0.0625 -0.5625 -0.109375q-0.34375 -0.0625 -0.765625 -0.0625z" fill-rule="nonzero"/><path fill="#000000" fill-opacity="0.0" d="m149.60104 63.007874l19.338593 0" fill-rule="evenodd"/><path stroke="#000000" stroke-width="1.0" stroke-linejoin="round" stroke-linecap="butt" d="m149.60104 63.007874l13.338593 0" fill-rule="evenodd"/><path fill="#000000" stroke="#000000" stroke-width="1.0" stroke-linecap="butt" d="m162.93964 64.65961l4.538101 -1.6517334l-4.538101 -1.6517334z" fill-rule="evenodd"/><path fill="#000000" fill-opacity="0.0" d="m275.91077 63.007874l19.338562 0" fill-rule="evenodd"/><path stroke="#000000" stroke-width="1.0" stroke-linejoin="round" stroke-linecap="butt" d="m275.91077 63.007874l13.338562 0" fill-rule="evenodd"/><path fill="#000000" stroke="#000000" stroke-width="1.0" stroke-linecap="butt" d="m289.24936 64.65961l4.538086 -1.6517334l-4.538086 -1.6517334z" fill-rule="evenodd"/><path fill="#000000" fill-opacity="0.0" d="m402.22046 63.007874l19.338593 0" fill-rule="evenodd"/><path stroke="#000000" stroke-width="1.0" stroke-linejoin="round" stroke-linecap="butt" d="m402.22046 63.007874l13.338593 0" fill-rule="evenodd"/><path fill="#000000" stroke="#000000" stroke-width="1.0" stroke-linecap="butt" d="m415.55905 64.65961l4.5381165 -1.6517334l-4.5381165 -1.6517334z" fill-rule="evenodd"/><path fill="#000000" fill-opacity="0.0" d="m528.5302 63.007874l19.338562 0" fill-rule="evenodd"/><path stroke="#000000" stroke-width="1.0" stroke-linejoin="round" stroke-linecap="butt" d="m528.5302 63.007874l13.338562 0" fill-rule="evenodd"/><path fill="#000000" stroke="#000000" stroke-width="1.0" stroke-linecap="butt" d="m541.8688 64.65961l4.538086 -1.6517334l-4.538086 -1.6517334z" fill-rule="evenodd"/></g></svg>