<svg width="320" height="320" fill="none" xmlns="http://www.w3.org/2000/svg"><path d="M0 152.131C0 80.416 0 44.558 22.28 22.279 44.557 0 80.415 0 152.13 0h15.738c71.715 0 107.573 0 129.852 22.28C320 44.557 320 80.415 320 152.13v15.738c0 71.715 0 107.573-22.279 129.852C275.442 320 239.584 320 167.869 320h-15.738c-71.715 0-107.573 0-129.852-22.279C0 275.442 0 239.584 0 167.869v-15.738Z" fill="#07F"/><path d="M70.787 2.512C91.207 0 117.485 0 152.131 0h15.738c34.646 0 60.923 0 81.344 2.512 1.325 1.986 1.987 3.954 1.987 6.016 0 8.873-12.271 16.014-36.812 30.295l-2.329 1.355C187.518 54.46 175.248 61.6 160 61.6c-15.248 0-27.518-7.14-52.059-21.422l-2.329-1.355C81.071 24.542 68.8 17.4 68.8 8.528c0-2.062.662-4.03 1.987-6.016ZM90.21 67.628c24.821 14.33 37.232 21.496 44.943 34.852 7.711 13.356 7.711 27.686 7.711 56.348v2.72c0 28.661 0 42.992-7.711 47.444-7.711 4.452-20.122-2.714-44.943-17.044l-2.356-1.36c-24.821-14.331-37.232-21.496-44.943-34.852C35.2 142.38 35.2 128.049 35.2 99.388v-2.72c0-28.662 0-42.992 7.711-47.444 7.711-4.452 20.122 2.713 44.943 17.044l2.356 1.36Z" fill="#00D9ED"/><path d="M229.79 69.115c-24.821 14.33-37.232 21.496-44.943 34.851-7.711 13.356-7.711 27.687-7.711 56.348v2.72c0 28.662 0 42.993 7.711 47.445 7.711 4.452 20.122-2.714 44.943-17.045l2.356-1.359c24.821-14.331 37.232-21.497 44.943-34.853 7.711-13.355 7.711-27.686 7.711-56.348v-2.72c0-28.66 0-42.992-7.711-47.444-7.711-4.452-20.122 2.714-44.943 17.044l-2.356 1.36Z" fill="#fff"/></svg>