<svg width="293" height="230" viewBox="0 0 293 230" fill="none" xmlns="http://www.w3.org/2000/svg">
<rect x="0.866025" width="100.188" height="82.6759" rx="2.5" transform="matrix(0.866025 -0.5 0.866025 0.5 131.328 134.117)" fill="#00003C" stroke="#00003C"/>
<rect x="0.866025" width="100.606" height="83.4464" rx="2.5" transform="matrix(0.866025 -0.5 0.866025 0.5 131.116 126.732)" fill="white" stroke="#00003C"/>
<rect x="0.866025" width="84.0439" height="66.3688" rx="2.5" transform="matrix(0.866025 -0.5 0.866025 0.5 145.1 126.374)" fill="white" stroke="#00003C"/>
<rect width="49.1649" height="91.6669" transform="matrix(0.86601 0.500028 3.18351e-05 1 160.187 35.5764)" fill="white"/>
<rect width="69.1658" height="91.6669" transform="matrix(0.86601 -0.500028 -3.18351e-05 1 202.765 60.1601)" fill="#F5F5F5"/>
<rect width="69.1658" height="49.1649" transform="matrix(0.866041 -0.499972 0.866041 0.499972 160.187 35.581)" fill="white"/>
<rect x="-0.433013" y="0.75" width="56.4288" height="79.6682" rx="3.5" transform="matrix(-0.866025 0.5 2.20305e-08 1 257.099 34.7492)" stroke="#00003C"/>
<rect x="-0.433013" y="0.75" width="30.7909" height="14.2673" rx="2.5" transform="matrix(-0.866025 0.5 2.20305e-08 1 246.441 55.268)" fill="#0064FF" stroke="#00003C"/>
<circle r="1.15726" transform="matrix(0.866025 -0.5 2.20305e-08 1 222.93 88.8645)" fill="#0064FF" stroke="#00003C"/>
<circle r="1.15726" transform="matrix(0.866025 -0.5 2.20305e-08 1 226.482 86.9693)" fill="#0064FF" stroke="#00003C"/>
<circle r="1.15726" transform="matrix(0.866025 -0.5 2.20305e-08 1 230.035 85.1931)" fill="#0064FF" stroke="#00003C"/>
<rect width="9.22963" height="1.27943" rx="0.639713" transform="matrix(-0.866025 0.5 2.20305e-08 1 243.126 65)" fill="white"/>
<rect width="9.22963" height="1.27943" rx="0.639713" transform="matrix(-0.866025 0.5 2.20305e-08 1 243.126 65)" fill="white"/>
<rect width="9.22963" height="1.27943" rx="0.639713" transform="matrix(-0.866025 0.5 2.20305e-08 1 243.126 67.6644)" fill="white"/>
<rect width="9.22963" height="1.27943" rx="0.639713" transform="matrix(-0.866025 0.5 2.20305e-08 1 243.126 67.6644)" fill="white"/>
<rect width="1.45739" height="5.2195" transform="matrix(0.866025 -0.5 2.20305e-08 1 223.134 74.3549)" fill="white"/>
<rect width="1.45739" height="3.47966" transform="matrix(0.866025 -0.5 2.20305e-08 1 224.816 75.1232)" fill="white"/>
<rect width="1.45739" height="6.95933" transform="matrix(0.866025 -0.5 2.20305e-08 1 226.499 70.6716)" fill="white"/>
<rect width="1.45739" height="5.79944" transform="matrix(0.866025 -0.5 2.20305e-08 1 228.182 70.86)" fill="white"/>
<rect width="1.45739" height="4.63955" transform="matrix(0.866025 -0.5 2.20305e-08 1 229.864 71.0485)" fill="white"/>
<rect x="0.433013" y="0.75" width="38.9951" height="8.2173" rx="1.5" transform="matrix(0.866025 0.5 -2.20305e-08 1 163.824 46.9658)" fill="#00003C" stroke="#00003C"/>
<circle r="1.27624" transform="matrix(0.866025 0.5 -2.20305e-08 1 167.969 54.2873)" fill="#00003C" stroke="white"/>
<path d="M172.904 56.5229C172.668 56.3808 172.36 56.4576 172.218 56.6944C172.076 56.9312 172.153 57.2383 172.39 57.3804L172.904 56.5229ZM194.593 70.7022C194.83 70.8443 195.137 70.7675 195.279 70.5307C195.421 70.2939 195.344 69.9868 195.107 69.8447L194.593 70.7022ZM172.39 57.3804L194.593 70.7022L195.107 69.8447L172.904 56.5229L172.39 57.3804Z" fill="white"/>
<rect x="0.433013" y="0.75" width="38.9951" height="8.2173" rx="1.5" transform="matrix(0.866025 0.5 -2.20305e-08 1 163.824 60.2876)" fill="#00003C" stroke="#00003C"/>
<circle r="1.27624" transform="matrix(0.866025 0.5 -2.20305e-08 1 167.968 67.6091)" fill="#00003C" stroke="white"/>
<path d="M172.904 69.8447C172.667 69.7026 172.36 69.7794 172.218 70.0162C172.076 70.253 172.153 70.5601 172.39 70.7022L172.904 69.8447ZM194.593 84.024C194.83 84.1661 195.137 84.0893 195.279 83.8525C195.421 83.6157 195.344 83.3086 195.107 83.1665L194.593 84.024ZM172.39 70.7022L194.593 84.024L195.107 83.1665L172.904 69.8447L172.39 70.7022Z" fill="white"/>
<rect x="0.433013" y="0.75" width="38.9951" height="8.2173" rx="1.5" transform="matrix(0.866025 0.5 -2.20305e-08 1 163.824 73.6095)" fill="#00003C" stroke="#00003C"/>
<circle r="1.27624" transform="matrix(0.866025 0.5 -2.20305e-08 1 167.968 80.9309)" fill="#00003C" stroke="white"/>
<path d="M172.904 83.1666C172.667 83.0245 172.36 83.1013 172.218 83.3381C172.076 83.5748 172.153 83.882 172.39 84.0241L172.904 83.1666ZM194.593 97.3459C194.83 97.488 195.137 97.4112 195.279 97.1744C195.421 96.9376 195.344 96.6305 195.107 96.4884L194.593 97.3459ZM172.39 84.0241L194.593 97.3459L195.107 96.4884L172.904 83.1666L172.39 84.0241Z" fill="white"/>
<rect x="0.433013" y="0.75" width="38.9951" height="8.2173" rx="1.5" transform="matrix(0.866025 0.5 -2.20305e-08 1 163.824 86.9313)" fill="#00003C" stroke="#00003C"/>
<circle r="1.27624" transform="matrix(0.866025 0.5 -2.20305e-08 1 167.968 94.2528)" fill="#00003C" stroke="white"/>
<path d="M172.904 96.4884C172.667 96.3463 172.36 96.4231 172.218 96.6599C172.076 96.8967 172.153 97.2038 172.39 97.3459L172.904 96.4884ZM194.593 110.668C194.83 110.81 195.137 110.733 195.279 110.496C195.421 110.259 195.344 109.952 195.107 109.81L194.593 110.668ZM172.39 97.3459L194.593 110.668L195.107 109.81L172.904 96.4884L172.39 97.3459Z" fill="white"/>
<rect x="0.433013" y="0.75" width="38.9951" height="8.2173" rx="1.5" transform="matrix(0.866025 0.5 -2.20305e-08 1 163.824 99.365)" fill="#00003C" stroke="#00003C"/>
<circle r="1.27624" transform="matrix(0.866025 0.5 -2.20305e-08 1 167.968 106.686)" fill="#00003C" stroke="white"/>
<path d="M172.904 108.922C172.667 108.78 172.36 108.857 172.218 109.094C172.076 109.33 172.153 109.638 172.39 109.78L172.904 108.922ZM194.593 123.101C194.83 123.243 195.137 123.167 195.279 122.93C195.421 122.693 195.344 122.386 195.107 122.244L194.593 123.101ZM172.39 109.78L194.593 123.101L195.107 122.244L172.904 108.922L172.39 109.78Z" fill="white"/>
<rect x="0.433013" y="0.75" width="38.9951" height="8.2173" rx="1.5" transform="matrix(0.866025 0.5 -2.20305e-08 1 163.824 112.687)" fill="#00003C" stroke="#00003C"/>
<circle r="1.27624" transform="matrix(0.866025 0.5 -2.20305e-08 1 167.968 120.008)" fill="#00003C" stroke="white"/>
<path d="M172.904 122.244C172.667 122.102 172.36 122.179 172.218 122.415C172.076 122.652 172.153 122.959 172.39 123.101L172.904 122.244ZM194.593 136.423C194.83 136.565 195.137 136.488 195.279 136.252C195.421 136.015 195.344 135.708 195.107 135.566L194.593 136.423ZM172.39 123.101L194.593 136.423L195.107 135.566L172.904 122.244L172.39 123.101Z" fill="white"/>
<rect width="49.1649" height="91.6669" transform="matrix(0.86601 0.500028 3.18351e-05 1 160.187 35.5764)" stroke="#00003C" stroke-linejoin="bevel"/>
<rect width="69.1658" height="91.6669" transform="matrix(0.86601 -0.500028 -3.18351e-05 1 202.765 60.1601)" stroke="#00003C" stroke-linejoin="bevel"/>
<rect width="69.1658" height="49.1649" transform="matrix(0.866041 -0.499972 0.866041 0.499972 160.187 35.581)" stroke="#00003C" stroke-linejoin="bevel"/>
<rect x="0.866025" width="99.2758" height="49.3141" rx="2.5" transform="matrix(0.866025 -0.5 0.866025 0.5 0.116025 110.368)" fill="#00003C" stroke="#00003C"/>
<rect x="0.866025" width="99.6162" height="49.3141" rx="2.5" transform="matrix(0.866025 -0.5 0.866025 0.5 0.854307 104.29)" fill="white" stroke="#00003C"/>
<rect x="0.866025" width="84.0439" height="36.3166" rx="2.5" transform="matrix(0.866025 -0.5 0.866025 0.5 13.1035 103.081)" fill="white" stroke="#00003C"/>
<path d="M46.204 106.127L46.1755 106.14L46.149 106.158C45.7499 106.42 45.3474 106.669 44.9419 106.903C40.4633 109.489 36.4894 109.801 33.5791 108.382C30.3541 106.81 28.2344 103.008 28.2344 97.2572C28.2344 91.9196 30.0698 85.985 33.0759 80.6595C36.0819 75.3344 40.2339 70.6617 44.8204 67.8244L44.9973 67.715L45.0444 67.5125C47.2248 58.1371 53.7845 48.471 61.484 44.0257C65.9627 41.4399 69.9366 41.128 72.8469 42.547C74.5848 43.3943 75.9912 44.8786 76.9261 46.9593L77.2403 47.6584L77.7536 47.0891C78.9851 45.7232 80.3478 44.5758 81.7725 43.7533C84.277 42.3073 86.4537 42.158 88.0189 42.9211C89.4001 43.5945 90.425 45.0347 90.7886 47.2212L90.8907 47.8355L91.4684 47.603C94.3235 46.4543 96.8308 46.4769 98.766 47.4204C101.43 48.7192 103.198 51.8679 103.198 56.6683C103.198 61.2237 101.596 66.3055 98.9812 70.8342C96.3666 75.3629 92.7668 79.2915 88.8217 81.5693L47.301 105.541C46.9313 105.755 46.5654 105.95 46.204 106.127Z" fill="#00003C" stroke="#00003C"/>
<path d="M99.845 71.3342C102.377 66.9494 104.009 62.0174 104.181 57.4611L107.143 58.9056C107.072 63.3804 105.483 68.3345 102.928 72.7603C100.364 77.2015 96.8523 81.0656 92.9968 83.3614L90.1115 81.9542C93.9258 79.5227 97.3382 75.6762 99.845 71.3342Z" fill="#00003C" stroke="#00003C" stroke-linejoin="round"/>
<path d="M104.194 56.3547C104.147 53.3551 103.424 50.8807 102.156 49.0746L102.713 49.3464L102.713 49.3465C105.224 50.5709 106.94 53.4394 107.128 57.7858L104.194 56.3547Z" fill="#00003C" stroke="#00003C" stroke-linejoin="round"/>
<path d="M98.763 47.4204L99.2477 47.6568C97.9864 47.6964 96.643 47.9817 95.2493 48.5194L92.568 47.2116C94.967 46.476 97.0811 46.6004 98.7629 47.4204C98.763 47.4204 98.763 47.4204 98.763 47.4204Z" fill="#00003C" stroke="#00003C" stroke-linejoin="round"/>
<path d="M89.0921 82.5682L91.957 83.9655L51.4809 107.334L48.616 105.937L89.0921 82.5682Z" fill="#00003C" stroke="#00003C" stroke-linejoin="round"/>
<path d="M91.7299 46.801C91.5475 45.8536 91.2431 45.0114 90.8294 44.2915L91.9687 44.8471L91.9687 44.8472C93.13 45.4134 94.0395 46.5216 94.5157 48.1597L91.7299 46.801Z" fill="#00003C" stroke="#00003C" stroke-linejoin="round"/>
<path d="M88.0162 42.9211L89.0824 43.4411C87.9361 43.5751 86.7106 43.9875 85.4519 44.6818L82.6251 43.303C84.7696 42.285 86.632 42.2463 88.0162 42.9211C88.0162 42.9211 88.0162 42.9211 88.0162 42.9211Z" fill="#00003C" stroke="#00003C" stroke-linejoin="round"/>
<path d="M84.437 45.299C83.2945 46.0582 82.2103 46.9995 81.2131 48.0674L78.2063 46.6009C79.2479 45.519 80.3731 44.5947 81.5431 43.8876L84.437 45.299Z" fill="#00003C" stroke="#00003C" stroke-linejoin="round"/>
<path d="M47.5668 106.539L50.4072 107.925C50.3943 107.931 50.3813 107.938 50.3684 107.944L47.53 106.56C47.5422 106.553 47.5545 106.546 47.5668 106.539Z" fill="#00003C" stroke="#00003C" stroke-linejoin="round"/>
<path d="M46.4547 107.149L49.344 108.558C49.2679 108.605 49.1916 108.65 49.1152 108.696L46.2331 107.29C46.3071 107.243 46.381 107.196 46.4547 107.149Z" fill="#00003C" stroke="#00003C" stroke-linejoin="round"/>
<path d="M77.7584 46.3834C77.41 45.6375 77.0017 44.9581 76.5383 44.3493L76.7921 44.473L76.7922 44.4731C78.1333 45.127 79.2771 46.1603 80.1591 47.5543L77.7584 46.3834Z" fill="#00003C" stroke="#00003C" stroke-linejoin="round"/>
<path d="M37.5252 110.308L37.3463 110.221C39.7457 110.23 42.4176 109.471 45.2072 107.901L48.0519 109.289C43.9154 111.447 40.2532 111.638 37.5253 110.308C37.5253 110.308 37.5252 110.308 37.5252 110.308Z" fill="#00003C" stroke="#00003C" stroke-linejoin="round"/>
<path d="M73.0268 42.6342C70.6274 42.6249 67.9555 43.3842 65.166 44.9536L62.3212 43.5661C66.4578 41.4076 70.1201 41.217 72.848 42.547C72.848 42.547 72.848 42.547 72.8481 42.547L73.0268 42.6342Z" fill="#00003C" stroke="#00003C" stroke-linejoin="round"/>
<path d="M33.5791 108.382C30.5075 106.885 28.4385 103.365 28.2486 98.0643L31.1854 99.4967C31.235 103.269 32.1804 106.334 33.831 108.505L33.5792 108.382L33.5791 108.382Z" fill="#00003C" stroke="#00003C" stroke-linejoin="round"/>
<path d="M64.1389 45.5651C56.6806 50.2496 50.4561 59.5175 48.1682 68.6034L45.1382 67.1255C47.384 57.9652 53.7618 48.6 61.2567 44.1594L64.1389 45.5651Z" fill="#00003C" stroke="#00003C" stroke-linejoin="round"/>
<path d="M47.4887 69.3852C43.033 72.3585 39.0597 76.9466 36.1541 82.0939C33.2313 87.2718 31.3666 93.0551 31.1962 98.3893L28.2364 96.9457C28.3061 91.6894 30.1281 85.8816 33.0759 80.6595C36.0309 75.4246 40.0935 70.8203 44.5876 67.9702L47.4887 69.3852Z" fill="#00003C" stroke="#00003C" stroke-linejoin="round"/>
<mask id="path-59-inside-1" fill="white">
<path fill-rule="evenodd" clip-rule="evenodd" d="M52.3619 108.506C51.957 108.772 51.5484 109.024 51.1363 109.262C41.4948 114.829 33.6788 110.316 33.6788 99.1832C33.6788 88.296 41.1534 75.1091 50.5004 69.3262C52.7066 59.8388 59.3385 50.0444 67.1772 45.5188C74.4658 41.3106 80.7112 42.8626 83.3254 48.6804C84.5852 47.283 85.9876 46.0997 87.4656 45.2463C92.3512 42.4257 96.4108 44.1647 97.2252 49.0665C104.256 46.2358 109.645 50.1328 109.645 58.5943C109.645 67.9221 103.096 79.2645 95.0183 83.9283L53.4976 107.9C53.1155 108.121 52.7367 108.323 52.3619 108.506Z"/>
</mask>
<path fill-rule="evenodd" clip-rule="evenodd" d="M52.3619 108.506C51.957 108.772 51.5484 109.024 51.1363 109.262C41.4948 114.829 33.6788 110.316 33.6788 99.1832C33.6788 88.296 41.1534 75.1091 50.5004 69.3262C52.7066 59.8388 59.3385 50.0444 67.1772 45.5188C74.4658 41.3106 80.7112 42.8626 83.3254 48.6804C84.5852 47.283 85.9876 46.0997 87.4656 45.2463C92.3512 42.4257 96.4108 44.1647 97.2252 49.0665C104.256 46.2358 109.645 50.1328 109.645 58.5943C109.645 67.9221 103.096 79.2645 95.0183 83.9283L53.4976 107.9C53.1155 108.121 52.7367 108.323 52.3619 108.506Z" fill="white"/>
<path d="M52.3619 108.506L52.4282 107.47L52.3651 107.501L52.302 107.543L52.3619 108.506ZM50.5004 69.3262L50.5314 70.3076L51.1455 69.9277L51.3275 69.1449L50.5004 69.3262ZM83.3254 48.6804L82.5246 49.5236L82.8683 50.2884L83.6877 49.3795L83.3254 48.6804ZM97.2252 49.0665L96.3721 49.7314L96.4796 50.3781L97.0956 50.1301L97.2252 49.0665ZM95.0183 83.9283L95.0183 84.9283L95.0183 83.9283ZM53.4976 107.9L53.4976 106.9L53.4976 107.9ZM52.302 107.543C51.9171 107.796 51.5284 108.036 51.1363 108.262L51.1363 110.262C51.5684 110.013 51.997 109.748 52.4218 109.469L52.302 107.543ZM51.1363 108.262C41.9731 113.553 34.5448 109.264 34.5448 98.6832L32.8128 99.6832C32.8128 111.369 41.0165 116.105 51.1363 110.262L51.1363 108.262ZM34.5448 98.6832C34.5448 88.3363 41.6487 75.8034 50.5314 70.3076L50.4694 68.3447C40.6582 74.4149 32.8128 88.2557 32.8128 99.6832L34.5448 98.6832ZM51.3275 69.1449C53.4245 60.1271 59.7287 50.8191 67.1772 46.5188L67.1772 44.5188C58.9484 49.2696 51.9886 59.5504 49.6732 69.5075L51.3275 69.1449ZM67.1772 46.5188C74.1029 42.5202 80.0395 43.9929 82.5246 49.5236L84.1261 47.8372C81.383 41.7323 74.8288 40.1011 67.1772 44.5188L67.1772 46.5188ZM83.6877 49.3795C84.8362 48.1056 86.1152 47.026 87.4656 46.2463L87.4656 44.2463C85.86 45.1733 84.3342 46.4604 82.9631 47.9813L83.6877 49.3795ZM87.4656 46.2463C91.9233 43.6727 95.6291 45.2587 96.3721 49.7314L98.0782 48.4016C97.1926 43.0707 92.7791 41.1786 87.4656 44.2463L87.4656 46.2463ZM97.0956 50.1301C103.709 47.4673 108.779 51.1347 108.779 59.0943L110.511 58.0943C110.511 49.1309 104.803 45.0044 97.3548 48.003L97.0956 50.1301ZM108.779 59.0943C108.779 67.8698 102.618 78.5406 95.0183 82.9283L95.0183 84.9283C103.575 79.9883 110.511 67.9743 110.511 58.0943L108.779 59.0943ZM95.0183 82.9283L53.4976 106.9L53.4976 108.9L95.0183 84.9283L95.0183 82.9283ZM53.4976 106.9C53.1376 107.108 52.781 107.298 52.4282 107.47L52.2956 109.541C52.6924 109.347 53.0933 109.134 53.4976 108.9L53.4976 106.9Z" fill="#00003C" mask="url(#path-59-inside-1)"/>
<rect x="-0.866025" width="93.8851" height="57.4443" rx="2.5" transform="matrix(-0.866025 -0.5 -0.866025 0.5 167.77 199.738)" fill="#00003C" stroke="#00003C"/>
<rect x="-0.866025" width="94.9099" height="57.4443" rx="2.5" transform="matrix(-0.866025 -0.5 -0.866025 0.5 168.059 193.522)" fill="white" stroke="#0064FF"/>
<rect x="-0.866025" width="80.9711" height="43.0225" rx="2.5" transform="matrix(-0.866025 -0.5 -0.866025 0.5 156.035 193.699)" fill="white" stroke="#0064FF"/>
<path d="M83.1209 147.292C83.9695 142.77 86.2604 139.676 89.4744 138.311C92.8909 136.861 97.3504 137.364 102.229 140.18C110.47 144.938 117.516 154.919 120.358 164.911C120.8 165.123 121.248 165.36 121.7 165.621C130.378 170.631 137.412 182.816 137.412 192.836C137.412 198.31 135.313 202.006 131.993 203.416C129.236 204.587 125.637 204.181 121.7 201.908C120.554 201.247 119.437 200.46 118.36 199.57C117.347 199.254 116.292 198.787 115.208 198.161L82.4163 179.229C74.6816 174.763 68.4114 163.903 68.4114 154.971C68.4114 150.092 70.2826 146.798 73.2417 145.541C75.6992 144.498 78.907 144.859 82.4163 146.885L83.1209 147.292Z" fill="#0064FF"/>
<path d="M62.8879 157.316C62.8879 166.247 69.1582 177.107 76.8929 181.573L82.4159 179.229C74.6812 174.763 68.411 163.903 68.411 154.971L62.8879 157.316Z" fill="#0064FF"/>
<path d="M67.7182 147.886C64.7592 149.142 62.8879 152.437 62.8879 157.316L68.411 154.971C68.411 150.092 70.2822 146.798 73.2413 145.541L67.7182 147.886Z" fill="#0064FF"/>
<path d="M76.8946 149.23C73.3864 147.204 70.1794 146.842 67.7222 147.885L73.243 145.541C75.7005 144.498 78.9084 144.859 82.4176 146.885L76.8946 149.23Z" fill="#0064FF"/>
<path d="M76.8918 181.573L109.684 200.505L115.207 198.161L82.4149 179.229L76.8918 181.573Z" fill="#0064FF"/>
<path d="M77.5964 149.637L76.8918 149.23L82.4149 146.885L83.1194 147.292L77.5964 149.637Z" fill="#0064FF"/>
<path d="M83.9524 140.656C80.7385 142.021 78.4475 145.114 77.5989 149.637L83.1219 147.292C83.9705 142.77 86.2615 139.676 89.4754 138.311L83.9524 140.656Z" fill="#0064FF"/>
<path d="M109.685 200.505C110.769 201.131 111.824 201.598 112.837 201.914L118.36 199.57C117.347 199.254 116.292 198.787 115.208 198.161L109.685 200.505Z" fill="#0064FF"/>
<path d="M112.837 201.914C113.913 202.804 115.031 203.591 116.176 204.253L121.699 201.908C120.554 201.247 119.436 200.46 118.36 199.57L112.837 201.914Z" fill="#0064FF"/>
<path d="M96.705 142.525C91.8275 139.709 87.3689 139.205 83.9527 140.655L89.4735 138.311C92.89 136.861 97.3495 137.364 102.228 140.18L96.705 142.525Z" fill="#0064FF"/>
<path d="M116.177 204.252C120.114 206.526 123.713 206.931 126.471 205.76L131.991 203.417C129.234 204.587 125.636 204.181 121.7 201.908L116.177 204.252Z" fill="#0064FF"/>
<path d="M114.833 167.256C111.991 157.263 104.946 147.283 96.7043 142.525L102.227 140.18C110.469 144.938 117.514 154.919 120.356 164.911L114.833 167.256Z" fill="#0064FF"/>
<path d="M126.47 205.76C129.79 204.351 131.889 200.655 131.889 195.181L137.412 192.836C137.412 198.31 135.313 202.006 131.993 203.416L126.47 205.76Z" fill="#0064FF"/>
<path d="M116.175 167.965C115.723 167.704 115.276 167.468 114.833 167.256L120.356 164.911C120.799 165.123 121.246 165.36 121.698 165.621L116.175 167.965Z" fill="#0064FF"/>
<path d="M131.89 195.181C131.89 185.16 124.855 172.975 116.177 167.965L121.7 165.621C130.378 170.631 137.413 182.816 137.413 192.836L131.89 195.181Z" fill="#0064FF"/>
<mask id="path-79-inside-2" fill="white">
<path fill-rule="evenodd" clip-rule="evenodd" d="M77.5974 149.637C79.3481 140.307 87.2376 137.058 96.7055 142.525C104.947 147.283 111.992 157.263 114.834 167.256C115.276 167.468 115.724 167.704 116.176 167.965C124.854 172.975 131.889 185.16 131.889 195.181C131.889 205.201 124.854 209.263 116.176 204.252C115.03 203.591 113.913 202.804 112.837 201.914C111.824 201.598 110.769 201.131 109.685 200.505L76.8929 181.573C69.1582 177.107 62.8879 166.247 62.8879 157.316C62.8879 148.384 69.1582 144.764 76.8929 149.23L77.5974 149.637Z"/>
</mask>
<path fill-rule="evenodd" clip-rule="evenodd" d="M77.5974 149.637C79.3481 140.307 87.2376 137.058 96.7055 142.525C104.947 147.283 111.992 157.263 114.834 167.256C115.276 167.468 115.724 167.704 116.176 167.965C124.854 172.975 131.889 185.16 131.889 195.181C131.889 205.201 124.854 209.263 116.176 204.252C115.03 203.591 113.913 202.804 112.837 201.914C111.824 201.598 110.769 201.131 109.685 200.505L76.8929 181.573C69.1582 177.107 62.8879 166.247 62.8879 157.316C62.8879 148.384 69.1582 144.764 76.8929 149.23L77.5974 149.637Z" fill="#85B5FF"/>
<path d="M77.5974 149.637L77.5974 150.637L78.3105 151.048L78.4474 150.319L77.5974 149.637ZM114.834 167.256L114.028 167.156L114.264 167.986L114.907 168.294L114.834 167.256ZM112.837 201.914L113.02 201.042L112.831 200.886L112.643 200.827L112.837 201.914ZM78.4474 150.319C80.1201 141.405 87.6597 138.302 96.7055 143.525L96.7055 141.525C86.8155 135.815 78.5761 139.209 76.7475 148.954L78.4474 150.319ZM96.7055 143.525C104.579 148.07 111.312 157.606 114.028 167.156L115.64 167.355C112.673 156.92 105.315 146.495 96.7055 141.525L96.7055 143.525ZM114.907 168.294C115.325 168.495 115.749 168.718 116.176 168.965L116.176 166.965C115.7 166.69 115.228 166.441 114.761 166.217L114.907 168.294ZM116.176 168.965C124.376 173.699 131.023 185.212 131.023 194.681L132.755 195.681C132.755 185.108 125.332 172.252 116.176 166.965L116.176 168.965ZM131.023 194.681C131.023 204.149 124.376 207.987 116.176 203.252L116.176 205.252C125.332 210.539 132.755 206.253 132.755 195.681L131.023 194.681ZM116.176 203.252C115.092 202.627 114.036 201.883 113.02 201.042L112.654 202.786C113.79 203.725 114.968 204.555 116.176 205.252L116.176 203.252ZM112.643 200.827C111.693 200.531 110.703 200.093 109.685 199.505L109.685 201.505C110.835 202.169 111.955 202.665 113.031 203.001L112.643 200.827ZM109.685 199.505L76.8929 180.573L76.8929 182.573L109.685 201.505L109.685 199.505ZM76.8929 180.573C69.6365 176.383 63.754 166.195 63.754 157.816L62.0219 156.816C62.0219 166.299 68.6799 177.831 76.8929 182.573L76.8929 180.573ZM63.754 157.816C63.754 149.437 69.6365 146.04 76.8929 150.23L76.8929 148.23C68.6799 143.488 62.0219 147.332 62.0219 156.816L63.754 157.816ZM76.8929 150.23L77.5974 150.637L77.5974 148.637L76.8929 148.23L76.8929 150.23Z" fill="#0064FF" mask="url(#path-79-inside-2)"/>
</svg>
