<svg width="21" height="20" viewBox="0 0 21 20" fill="none" xmlns="http://www.w3.org/2000/svg">
<path d="M19.6112 3.5878L10.0358 0L0.460483 3.5878C0.188628 3.6798 0.0375977 3.92511 0.0375977 4.2011L0.249041 9.72079C0.400071 14.2899 2.66553 17.6937 6.19965 19.9016C6.53192 20.1163 6.9548 19.963 7.13604 19.595L9.19003 14.6579C9.2505 14.4739 9.15988 14.2899 8.97865 14.2286C7.46831 13.7686 6.35068 12.3274 6.35068 10.6408C6.35068 8.5555 8.01201 6.89964 10.0358 6.89964C12.0596 6.89964 13.7209 8.58619 13.7209 10.6408C13.7209 12.3274 12.6033 13.7686 11.093 14.2286C10.9118 14.2899 10.8212 14.4739 10.8816 14.6579L12.9356 19.595C13.0866 19.963 13.5397 20.0856 13.872 19.9016C17.4061 17.6937 19.6715 14.2899 19.8226 9.72079L20.0341 4.2011C20.0642 3.95577 19.883 3.6798 19.6112 3.5878Z" fill="#2684FF"/>
<path d="M10.0375 6.90432C12.0918 6.90432 13.7232 8.59205 13.7232 10.648C13.7232 12.3357 12.6054 13.778 11.0949 14.2383C10.9135 14.2996 10.8229 14.4838 10.8834 14.6678L12.9377 19.6083C13.0887 19.9765 13.542 20.0993 13.8743 19.9152C17.409 17.7058 19.6748 14.2996 19.8259 9.72741L20.0374 4.20395C20.0374 3.92778 19.8863 3.6823 19.6144 3.59024L10.0375 0V6.90432Z" fill="url(#paint0_linear_212_88569)"/>
<defs>
<linearGradient id="paint0_linear_212_88569" x1="15.1043" y1="6.94627" x2="16.891" y2="18.6862" gradientUnits="userSpaceOnUse">
<stop stop-color="#2684FF"/>
<stop offset="1" stop-color="#0052CC"/>
</linearGradient>
</defs>
</svg>