<svg width="23" height="20" viewBox="0 0 23 20" fill="none" xmlns="http://www.w3.org/2000/svg">
<path d="M1.17006 5.92715e-05C1.06606 -0.00128207 0.963027 0.0201579 0.868194 0.0628741C0.773362 0.10559 0.68903 0.168547 0.621118 0.247325C0.553207 0.326102 0.503363 0.41879 0.475085 0.518881C0.446808 0.618972 0.440783 0.724039 0.457433 0.826707L3.4861 19.1911C3.52379 19.4158 3.63946 19.6201 3.81279 19.768C3.98612 19.9159 4.20603 19.9981 4.43389 19.9999H18.9501C19.1209 20.0021 19.2868 19.9429 19.4176 19.833C19.5484 19.7232 19.6354 19.57 19.6627 19.4013L22.6914 0.833833C22.7081 0.731166 22.702 0.626098 22.6737 0.526007C22.6455 0.425916 22.5956 0.333228 22.5277 0.254451C22.4598 0.175674 22.3755 0.112717 22.2806 0.0700004C22.1858 0.0272842 22.0828 0.00584419 21.9788 0.00718554L1.17006 5.92715e-05ZM13.9083 13.2692H9.27619L8.02197 6.71301H15.0307L13.9083 13.2692Z" fill="#2684FF"/>
<path d="M21.7185 6.72021H15.0305L13.9081 13.2764H9.27605L3.80664 19.7649C3.98 19.9148 4.20102 19.9981 4.43019 20H18.95C19.1208 20.0022 19.2867 19.943 19.4175 19.8331C19.5483 19.7232 19.6353 19.57 19.6626 19.4014L21.7185 6.72021Z" fill="url(#paint0_linear_212_88558)"/>
<defs>
<linearGradient id="paint0_linear_212_88558" x1="23.2649" y1="8.55523" x2="12.2121" y2="17.1816" gradientUnits="userSpaceOnUse">
<stop offset="0.18" stop-color="#0052CC"/>
<stop offset="1" stop-color="#2684FF"/>
</linearGradient>
</defs>
</svg>
