<svg width="240" height="45" fill="none" xmlns="http://www.w3.org/2000/svg">
  <path d="M56.182 33.708V10.405h8.789c6.858 0 11.818 4.894 11.818 11.651 0 6.758-4.96 11.652-11.818 11.652h-8.789zm5.027-4.66h3.662c3.995 0 6.758-2.93 6.758-6.992 0-4.128-2.763-6.957-6.758-6.957h-3.662v13.948zM88.647 34.24c-5.293 0-9.321-4.128-9.321-9.52 0-5.393 3.995-9.488 9.321-9.488 5.526 0 9.321 4.261 9.321 9.454 0 .466-.033.932-.1 1.398H84.253c.432 2.464 2.03 3.829 4.394 3.829 1.698 0 3.096-.8 3.828-2.097h5.094c-1.298 3.928-4.727 6.424-8.922 6.424zm-4.26-11.451h8.72c-.698-2.197-2.263-3.396-4.46-3.396-2.164 0-3.695 1.265-4.26 3.396zM109.784 34.24c-5.426 0-9.554-4.16-9.554-9.554 0-5.393 4.128-9.454 9.587-9.454 4.661 0 8.256 2.963 9.121 7.39h-4.827c-.765-1.764-2.396-2.83-4.327-2.83-2.63 0-4.628 2.131-4.628 4.928 0 2.763 2.031 4.927 4.628 4.927 1.964 0 3.528-1.066 4.327-2.997h4.894c-.832 4.528-4.527 7.59-9.221 7.59zM132.82 33.708l-5.726-8.589v8.589h-4.86V9.273h4.86v14.448l5.394-7.99h5.592l-6.092 8.59 6.725 9.387h-5.893zM152.912 23.621c0-2.697-.965-4.028-3.129-4.028-2.43 0-4.028 1.764-4.028 4.694v9.42h-4.86V9.274h4.86v8.156c1.365-1.298 3.263-2.097 5.426-2.097 4.062 0 6.592 2.896 6.592 7.457v10.919h-4.861V23.62zM170.743 34.24c-5.559 0-9.721-4.094-9.721-9.52 0-5.427 4.162-9.488 9.721-9.488 5.56 0 9.721 4.061 9.721 9.488 0 5.426-4.161 9.52-9.721 9.52zm0-4.594c2.797 0 4.794-1.997 4.794-4.926 0-2.897-1.997-4.927-4.794-4.927-2.796 0-4.793 2.03-4.793 4.927 0 2.93 1.997 4.927 4.793 4.927zM192.16 34.24c-5.061 0-8.456-3.262-8.456-8.122V15.73h4.86v9.854c0 2.563 1.365 4.061 3.596 4.061 2.263 0 3.595-1.53 3.595-4.06V15.73h4.86v10.387c0 4.86-3.362 8.122-8.455 8.122zM211.395 34.24c-4.494 0-7.524-2.596-7.524-6.424h4.727c.033 1.597 1.265 2.396 2.997 2.396 1.331 0 2.563-.632 2.563-1.83 0-1.232-1.565-1.598-3.462-1.898-2.863-.5-6.525-1.265-6.525-5.493 0-3.395 2.896-5.759 7.224-5.759 4.327 0 7.19 2.43 7.223 6.025h-4.627c-.033-1.431-1.032-2.13-2.729-2.13-1.498 0-2.397.666-2.397 1.698 0 1.198 1.531 1.498 3.395 1.83 2.93.533 6.691 1.133 6.691 5.527 0 3.662-2.995 6.058-7.556 6.058zM230.649 34.24c-5.293 0-9.321-4.128-9.321-9.52 0-5.393 3.995-9.488 9.321-9.488 5.526 0 9.321 4.261 9.321 9.454 0 .466-.033.932-.099 1.398h-13.616c.433 2.464 2.031 3.829 4.394 3.829 1.698 0 3.096-.8 3.829-2.097h5.093c-1.298 3.928-4.727 6.424-8.922 6.424zm-4.261-11.451h8.722c-.699-2.197-2.264-3.396-4.461-3.396-2.164 0-3.695 1.265-4.261 3.396z" fill="#262429"/>
  <path d="M31.484 35.933l-9.011 9.012-9.012-9.012 3.496-3.495 5.516 5.516 5.516-5.517 3.495 3.496zM44.946 22.473l-9.012 9.01-3.496-3.495 5.516-5.515-5.516-5.516 3.496-3.496 9.012 9.012zM12.508 16.956l-5.516 5.517 5.516 5.515-3.496 3.496L0 22.473l9.012-9.013 3.496 3.496zM31.484 9.012l-3.496 3.495-5.515-5.515-5.516 5.515-3.496-3.496L22.473 0l9.011 9.012zM17.979 17.08h5.393a5.393 5.393 0 1 1 0 10.786h-5.393V17.08z" fill="#004DF2"/>
</svg>