<svg width="74" height="40" fill="none" xmlns="http://www.w3.org/2000/svg">
  <path d="M50.626 8.33c0-4.597-3.7-8.33-8.243-8.33h-3.694v3.629h3.694c2.564 0 4.652 2.11 4.652 4.701 0 2.591-2.088 4.701-4.652 4.701h-3.694v3.63h3.694c4.548 0 8.242-3.74 8.242-8.33zM35.098 3.629V0h-3.694c-4.548 0-8.242 3.739-8.242 8.33s3.7 8.33 8.242 8.33h3.694v-3.629h-3.694c-2.564 0-4.651-2.11-4.651-4.7 0-2.592 2.087-4.702 4.651-4.702h3.694zM30.446 28.184v11.519H27.98v-9.206h-4.663l-.528 4.992c-.304 2.863-1.595 4.243-3.992 4.243h-.637v-2.435h.642c.895 0 1.383-.545 1.509-1.692l.849-7.42h9.286zM59.66 28.184v11.519h-2.467v-4.765h-5.988v4.765h-2.467V28.184h2.467v4.435h5.988v-4.435h2.467zM73.787 30.497h-4.589v9.206h-2.466v-9.206h-4.589v-2.313h11.639v2.313h.005zM41.677 28.184h-4.233l-4.468 11.519h2.616l.78-2.186h6.372l.78 2.186h2.616l-4.468-11.519h.005zm-4.531 7.16l1.75-4.852h1.33l1.75 4.852H37.14h.006zM12.361 28.184H4.749c-2.621 0-4.749 2.151-4.749 4.8 0 2.65 2.128 4.8 4.75 4.8h2.57v1.919h2.466v-1.92h2.57c2.62 0 4.749-2.15 4.749-4.799 0-2.649-2.129-4.8-4.75-4.8h.006zm-9.895 4.8c0-1.374 1.102-2.487 2.461-2.487h2.46v4.974h-2.46c-1.36 0-2.46-1.113-2.46-2.487zm9.723 2.487h-2.46v-4.974h2.46c1.36 0 2.46 1.113 2.46 2.487s-1.1 2.487-2.46 2.487z" fill="#fff"/>
</svg>