<svg width="74" height="40" viewBox="0 0 278 175" fill="none" xmlns="http://www.w3.org/2000/svg">
  <path d="M10.82 135.049v13.482h27.787v9.801H10.821v16.667H0v-50h40.448v10.05H10.82zM66.84 124.999H56.02v50h32.91l3.93-10.05H66.84v-39.95zM136.766 124.999h-18.582l-19.602 50h11.492l3.433-9.478h27.96l3.433 9.478h11.493l-19.627-50zm-19.901 31.095l7.687-21.045h5.821l7.686 21.045h-21.194zM215.647 124.999v50h-9.055l-28.259-33.731v33.731h-10.622v-50h9.776l27.538 32.985v-32.985h10.622zM277.612 135.049h-20.124v39.95h-10.821v-39.95h-20.125v-10.05h51.07v10.05zM127.804 0v16.5h-16.5c-11.598 0-21 9.402-21 21s9.402 21 21 21h16.5V75h-16.5c-20.71 0-37.5-16.79-37.5-37.5S90.594 0 111.304 0h16.5zM144.304 0v16.5h16.5c11.598 0 21 9.402 21 21s-9.402 21-21 21h-16.5V75h16.5c20.711 0 37.5-16.79 37.5-37.5S181.515 0 160.804 0h-16.5z" fill="#fff"/>
</svg>