<svg width="23" height="20" viewBox="0 0 23 20" fill="none" xmlns="http://www.w3.org/2000/svg">
<path fill-rule="evenodd" clip-rule="evenodd" d="M11.4615 0C5.6116 0 0.873291 4.58949 0.873291 10.2557C0.873291 14.7913 3.90247 18.6271 8.11275 19.9865C8.64078 20.0672 8.8492 19.7711 8.8492 19.502C8.8492 19.2597 8.83531 18.4522 8.83531 17.5908C6.1813 18.0619 5.48654 16.9582 5.27811 16.393C5.15305 16.0969 4.63892 15.1816 4.19427 14.9394C3.8191 14.751 3.29108 14.2664 4.18038 14.253C5.0141 14.2395 5.6116 14.9932 5.80613 15.3028C6.76491 16.8506 8.2795 16.4199 8.89089 16.1507C8.98816 15.4912 9.26607 15.0336 9.57176 14.7779C7.22345 14.5222 4.75009 13.6339 4.75009 9.71733C4.75009 8.60024 5.16695 7.67158 5.83392 6.95826C5.72276 6.70254 5.36148 5.65274 5.94508 4.23956C5.94508 4.23956 6.83438 3.97038 8.8631 5.28935C9.71071 5.06055 10.6139 4.93942 11.5032 4.93942C12.4064 4.93942 13.2957 5.06055 14.1433 5.28935C16.172 3.95692 17.0474 4.23956 17.0474 4.23956C17.631 5.65274 17.2559 6.70254 17.1586 6.95826C17.8395 7.67158 18.2424 8.58678 18.2424 9.71733C18.2424 13.6473 15.7691 14.5222 13.4069 14.7779C13.7959 15.1009 14.1294 15.7065 14.1294 16.6756C14.1294 18.0484 14.1155 19.152 14.1155 19.4885C14.1155 19.7577 14.3101 20.0807 14.8381 19.973C19.1456 18.5598 22.0498 14.6433 22.0498 10.2422C22.0498 4.58949 17.3115 0 11.4615 0Z" fill="#24292E"/>
</svg>