<svg width="21" height="20" viewBox="0 0 21 20" fill="none" xmlns="http://www.w3.org/2000/svg">
<path d="M20.5727 7.91642L20.545 7.84175L17.7455 0.468478C17.6888 0.323702 17.588 0.200887 17.4576 0.117813C17.3603 0.0549297 17.2498 0.015934 17.1349 0.00395111C17.02 -0.0080318 16.9039 0.00733192 16.7959 0.0488106C16.688 0.0902892 16.5911 0.156729 16.5132 0.242805C16.4352 0.328881 16.3783 0.432199 16.3471 0.544477L14.4574 6.38576H6.80506L4.91541 0.544477C4.88389 0.432367 4.82686 0.329243 4.74887 0.243332C4.67088 0.157421 4.57408 0.0910987 4.46621 0.0496539C4.35833 0.00820906 4.24236 -0.00721145 4.12754 0.00462249C4.01271 0.0164564 3.90222 0.0552169 3.80486 0.117813C3.67447 0.200887 3.57365 0.323702 3.51699 0.468478L0.718826 7.84309L0.689775 7.91642C0.286922 8.97949 0.237292 10.146 0.548367 11.24C0.859441 12.3341 1.51436 13.2963 2.41436 13.9817L2.42493 13.9897L2.44869 14.0084L6.70734 17.231L8.82015 18.843L10.1037 19.823C10.2543 19.9379 10.4379 20 10.6266 20C10.8153 20 10.9989 19.9379 11.1495 19.823L12.4331 18.843L14.5459 17.231L18.8349 13.9897L18.8468 13.9804C19.7467 13.2952 20.4017 12.3333 20.713 11.2395C21.0243 10.1458 20.9751 8.97945 20.5727 7.91642Z" fill="#E24329"/>
<path d="M6.70734 17.2308L8.82015 18.8428L10.1037 19.8228C10.2543 19.9376 10.4379 19.9998 10.6266 19.9998C10.8153 19.9998 10.9989 19.9376 11.1495 19.8228L12.4331 18.8428L14.5459 17.2308L10.6319 14.2441L6.70734 17.2308Z" fill="#FCA326"/>
<path fill-rule="evenodd" clip-rule="evenodd" d="M20.5451 7.8418L20.5728 7.91646C20.9755 8.97922 21.0251 10.1453 20.7143 11.2391C20.4035 12.3328 19.749 13.2949 18.8495 13.9804L18.8376 13.9897L14.5486 17.2311L10.6346 14.2444L16.7816 9.55112C17.8959 8.70812 19.1811 8.1244 20.5451 7.8418ZM0.718826 7.84326C2.0823 8.1254 3.36705 8.70867 4.48096 9.55125L10.624 14.2445L6.70734 17.2312L2.44869 14.0085L2.42493 13.9899L2.41436 13.9819C1.51436 13.2965 0.859441 12.3342 0.548367 11.2402C0.237292 10.1462 0.286922 8.97966 0.689775 7.91659L0.718826 7.84326Z" fill="#FC6D26"/>
</svg>