<svg width="21" height="20" viewBox="0 0 21 20" fill="none" xmlns="http://www.w3.org/2000/svg">
<g opacity="0.98">
<path d="M18.6474 0H2.85789C2.38037 0.00138855 1.9228 0.191698 1.58514 0.529358C1.24748 0.867018 1.05717 1.32458 1.05579 1.8021V6.04947H5.43578V5.35579C5.43578 5.09727 5.53848 4.84935 5.72128 4.66655C5.90408 4.48375 6.15201 4.38105 6.41052 4.38105H15.0979C15.3564 4.38105 15.6043 4.48375 15.7871 4.66655C15.9699 4.84935 16.0726 5.09727 16.0726 5.35579V6.04947H20.4558V1.8021C20.4541 1.32358 20.2628 0.865218 19.9239 0.527439C19.5849 0.189659 19.1259 -2.91832e-06 18.6474 0Z" fill="#ED1944"/>
<path d="M16.0695 13.6295C16.0692 13.8879 15.9664 14.1357 15.7837 14.3184C15.6009 14.5011 15.3532 14.6039 15.0947 14.6042H6.40736C6.14893 14.6039 5.90117 14.5011 5.71843 14.3184C5.53569 14.1357 5.4329 13.8879 5.43263 13.6295V12.9358H1.05263V17.1821C1.05374 17.6598 1.24392 18.1176 1.58161 18.4555C1.9193 18.7934 2.37703 18.9839 2.85473 18.9853H18.6442C19.1235 18.9861 19.5835 18.7967 19.9231 18.4586C20.2628 18.1205 20.4544 17.6614 20.4558 17.1821V12.9358H16.0695V13.6295Z" fill="#ED1944"/>
<path d="M5.43368 7.30211H1.05263V11.6832H5.43368V7.30211Z" fill="#ED1944"/>
<path d="M20.4505 7.30211H16.0695V11.6832H20.4505V7.30211Z" fill="#ED1944"/>
</g>
</svg>