<svg width="20" height="20" viewBox="0 0 20 20" fill="none" xmlns="http://www.w3.org/2000/svg">
<path fill-rule="evenodd" clip-rule="evenodd" d="M0 10C0 4.47717 4.47717 0 10 0C15.5229 0 20 4.47717 20 10C20 15.5229 15.5229 20.0001 10 20.0001C4.47717 20.0001 0 15.5229 0 10ZM10 1.43443C5.26938 1.43443 1.43444 5.26939 1.43444 10C1.43444 14.7306 5.26938 18.5657 10 18.5657C14.7306 18.5657 18.5656 14.7306 18.5656 10C18.5656 5.26939 14.7306 1.43443 10 1.43443ZM11.1325 14.5302C11.1325 15.1557 10.6255 15.6627 10.0001 15.6627C9.37462 15.6627 8.86761 15.1557 8.86761 14.5302C8.86761 13.9048 9.37462 13.3978 10.0001 13.3978C10.6255 13.3978 11.1325 13.9048 11.1325 14.5302ZM7.81081 8.11303C7.81081 7.08946 8.69424 6.11237 10.0002 6.11237C11.3062 6.11237 12.1896 7.08946 12.1896 8.11303C12.1896 8.85468 11.7819 9.23358 11.079 9.66062C11.0005 9.70829 10.91 9.76084 10.8132 9.81705C10.5366 9.97769 10.2084 10.1683 9.96165 10.3606C9.59572 10.6457 9.16975 11.1057 9.16975 11.8124C9.16977 12.271 9.54157 12.6428 10.0002 12.6428C10.4568 12.6428 10.8273 12.2744 10.8307 11.8187L10.8315 11.8173C10.8446 11.7967 10.8834 11.748 10.9825 11.6707C11.1357 11.5513 11.3064 11.4524 11.5338 11.3207C11.6523 11.252 11.7864 11.1743 11.9413 11.0801C12.7483 10.5899 13.8505 9.77972 13.8505 8.11303C13.8505 6.11673 12.1671 4.45144 10.0002 4.45144C7.83336 4.45144 6.14989 6.11673 6.14989 8.11303C6.14989 8.57169 6.52171 8.94349 6.98035 8.94349C7.43901 8.94349 7.81081 8.57169 7.81081 8.11303Z" fill="black"/>
</svg>