<svg width="22" height="20" viewBox="0 0 22 20" fill="none" xmlns="http://www.w3.org/2000/svg">
<path fill-rule="evenodd" clip-rule="evenodd" d="M9.47699 8.13012C6.05953 8.72603 3.55225 10.6782 3.55225 12.9962C3.55225 15.4415 6.34134 17.481 10.047 17.949V19.9999C4.53915 19.5093 0.304871 16.5609 0.304871 12.9962C0.304871 9.55544 4.24972 6.68874 9.47699 6.05225V8.13012ZM13.8644 8.13012V6.05306C16.0841 6.32334 18.0731 6.99473 19.6263 7.94272L21.2933 6.99589L21.7416 11.6847L15.4616 10.3082L17.2221 9.3083C16.2844 8.76109 15.1372 8.35204 13.8644 8.13012Z" fill="#B3B3B3"/>
<path d="M10.0471 1.5982V17.9491V20L13.2945 18.4603V6.13868e-07L10.0471 1.5982Z" fill="#F8931E"/>
</svg>