<svg width="5" height="10" viewBox="0 0 5 10" fill="none" xmlns="http://www.w3.org/2000/svg">
  <path d="M4.79089 8.57672C4.92617 8.74321 5.00002 8.9512 5.00002 9.16572C5.00002 9.38025 4.92617 9.58823 4.79089 9.75472C4.73049 9.83074 4.6537 9.89214 4.56626 9.93435C4.47882 9.97655 4.38298 9.99847 4.28589 9.99847C4.18879 9.99847 4.09295 9.97655 4.00551 9.93435C3.91807 9.89214 3.84129 9.83074 3.78089 9.75472L0.208887 5.58872C0.073604 5.42223 -0.000243513 5.21425 -0.000243485 4.99972C-0.000243457 4.7852 0.0736041 4.57721 0.208888 4.41072L3.78089 0.243723C3.84129 0.167704 3.91807 0.106303 4.00551 0.064097C4.09295 0.0218912 4.18879 -2.90146e-05 4.28589 -2.90018e-05C4.38298 -2.89891e-05 4.47882 0.0218912 4.56626 0.064097C4.6537 0.106303 4.73049 0.167704 4.79089 0.243724C4.92617 0.410214 5.00002 0.618199 5.00002 0.832723C5.00002 1.04725 4.92617 1.25523 4.79089 1.42172L1.72389 4.99972L4.79089 8.57672Z" fill="#3b83f6"/>
</svg>