<svg xmlns="http://www.w3.org/2000/svg" width="168" height="32" fill="none">
  <path d="M162 0l-3 3h6v11h3V0h-6z" fill="#00B500"/>
  <path d="M0 18v14h6l3-3H3V18H0z" fill="#BDCFD1"/>
  <path fill-rule="evenodd" clip-rule="evenodd"
        d="M106.52 9.748c.913 0 1.584.167 1.473.167v10.834h1.434v4.853c-.392.11-.857.184-1.323.184-.485 0-.969-.056-1.398-.184V23.05H98V9.915s.503-.167 1.49-.167c.895 0 1.492.167 1.492.167v10.834h3.969V9.915s.563-.167 1.569-.167zm48.849-.048c2.237 0 3.429.708 3.429.708.037.816-.316 1.488-.857 1.996l-.036-.012a7.23 7.23 0 00-2.144-.351c-1.901 0-3.112.962-3.112 4.427s1.211 4.373 3.112 4.373c1.267 0 2.347-.4 2.347-.4.559.49.876 1.271.876 2.05 0 0-1.23.709-3.615.709-3.802 0-5.869-2.358-5.869-6.75 0-4.391 2.067-6.75 5.869-6.75zm-22.436.09v13.17s-.504.167-1.472.167c-1.082 0-1.509-.166-1.509-.166V12.03h-3.97v10.93l-.029.008c-.123.033-.639.158-1.462.158-1.062 0-1.491-.166-1.491-.166V9.79h9.933zm12.325-.06c1.174 0 1.733.167 1.733.167V22.96s-.559.167-1.472.167c-1.006 0-1.491-.166-1.491-.166v-4.39c0-3.204.28-5.155.28-5.155h-.093l-.012.02c-.11.19-.977 1.7-2.229 4.415l-2.415 5.11c-.018 0-.614.166-1.789.166-1.285 0-1.77-.166-1.77-.166V9.896s.559-.166 1.472-.166c.932 0 1.51.166 1.528.166v4.347c0 3.167-.28 5.339-.28 5.339h.094c.298-1.067 1.245-2.762 2.084-4.584l2.646-5.102s.558-.166 1.714-.166zm-25.331.007c.801 0 1.453.166 1.453.166l-3.521 9.594c-1.081 2.89-2.795 3.616-4.435 3.616-.876 0-1.528-.22-1.528-.22s-.205-.46-.205-1.105c0-.626.13-1.123.13-1.123s.578.074 1.1.074c.746 0 1.416-.358 2.031-1.647h-.671l-4.249-9.189s.597-.166 1.603-.166c1.099 0 1.603.166 1.603.166l2.087 4.605c.503 1.142.727 2.007.727 2.007h.074s.204-.865.652-2.043l1.696-4.569s.559-.166 1.453-.166z"
        fill="#000"/>
  <path
    d="M9 23V9.82h9.012c.09.277.208.577.208 1.218 0 .443-.099.866-.208 1.18h-6.097v2.718h5.1c.092.314.183.646.183 1.089 0 .461-.073.97-.182 1.302h-5.1v3.3h5.904c.11.295.183.928.183 1.334s-.055.706-.183 1.038H9z"
    fill="#000"/>
  <path fill-rule="evenodd" clip-rule="evenodd"
        d="M29.738 9.821v11.034h1.293v4.691c-.382.11-.783.185-1.293.185-.51 0-.966-.056-1.367-.185V23h-6.742v2.546c-.4.11-1.093.166-1.603.166s-.675-.055-1.057-.166v-4.69h1.46c.542-2.446.683-7.938 1.09-10.642a.465.465 0 01.465-.393h7.753zm-2.77 2.251h-3.145c-.216 3.516-.336 5.406-.516 8.783h3.662v-8.783z"
        fill="#000"/>
  <path
    d="M40.566 9.987l-2.754 5.259c-.82 1.827-1.752 3.321-2.043 4.391h-.092s.274-2.177.274-5.35v-4.3l-.032-.007a6.213 6.213 0 00-1.462-.159c-.893 0-1.44.166-1.44.166V22.94s.474.166 1.731.166c1.02 0 1.594-.13 1.722-.16l.02-.005a.12.12 0 01.007 0l2.65-5.149c1.434-2.94 2.075-4.336 2.075-4.336h.092s-.274 1.956-.274 5.166v4.318s.474.166 1.458.166c.893 0 1.44-.166 1.44-.166V9.987s-.547-.166-1.695-.166c-1.13 0-1.677.166-1.677.166zm9.412 5.111h5.106V9.987s.565-.166 1.458-.166S58 9.987 58 9.987V22.94s-.547.166-1.44.166c-.983 0-1.476-.166-1.476-.166v-5.443h-5.106v5.443s-.583.166-1.458.166c-.966 0-1.458-.166-1.458-.166V9.987s.547-.166 1.44-.166c.911 0 1.476.166 1.476.166v5.111z"
    fill="#000"/>
  <path fill-rule="evenodd" clip-rule="evenodd"
        d="M61.008 9.904v13.12h5.32c2.643 0 4.283-1.55 4.283-4.134 0-2.953-1.783-4.092-4.549-3.937h-2.139V9.904s-.528-.166-1.457-.166c-.984 0-1.458.166-1.458.166zm2.915 7.361h1.986c1.076 0 2.013.25 2.013 1.625s-.937 1.827-2.013 1.827h-1.986v-3.451z"
        fill="#000"/>
  <path
    d="M71.99 9.987V22.94s.493.166 1.459.166c.874 0 1.457-.166 1.457-.166V9.987s-.546-.166-1.458-.166c-.892 0-1.457.166-1.457.166zm10.774 5.35l2.908-5.357s.379-.16 1.508-.16c1.148 0 1.695.167 1.695.167V22.94s-.547.166-1.44.166c-.984 0-1.457-.166-1.457-.166v-4.318c0-3.21.273-5.166.273-5.166h-.091s-.642 1.395-2.076 4.336l-2.635 5.148-.027.006c-.129.03-.703.16-1.722.16-1.258 0-1.731-.166-1.731-.166V9.987s.546-.166 1.44-.166a6.213 6.213 0 011.493.166v4.3c0 3.173-.273 5.35-.273 5.35h.091c.292-1.07 1.224-2.473 2.044-4.3zM86 7.029c0-.6-.182-.971-.182-.971h-4.6s-.183.51-.183.97c0 .461.184.972.184.972h4.599S86 7.628 86 7.029z"
    fill="#000"/>
</svg>
