<svg width="378" height="102" viewBox="0 0 378 102" fill="none" xmlns="http://www.w3.org/2000/svg">
<path d="M108.87 0.156982V1.41237H106.059V3.13852H108.245V4.23699H106.059V6.90468H104.497V0.156982H108.87V0.156982Z" fill="#00003C"/>
<path d="M112.463 0.156982V5.64929H115.118V6.90468H110.901V0.156982H112.463Z" fill="#00003C"/>
<path d="M121.366 0.156982L123.553 6.90468H121.991L121.522 5.33545H119.023L118.555 6.90468H117.149L119.336 0.156982H121.366ZM121.054 4.39391L120.117 1.41237L119.179 4.39391H121.054Z" fill="#00003C"/>
<path d="M127.458 0.156982L129.957 4.55083V0.156982H131.363V6.90468H129.801L126.989 2.04006V6.90468H125.583V0.156982H127.458Z" fill="#00003C"/>
<path d="M133.393 1.41237V0.156982H138.548V1.41237H136.674V6.90468H135.112V1.41237H133.393Z" fill="#00003C"/>
<path d="M119.96 27.1476C119.96 32.1691 116.212 35.9353 111.057 35.9353H104.497V18.3599H111.057C116.212 18.3599 119.96 22.126 119.96 27.1476ZM116.055 27.1476C116.055 24.0091 114.025 21.9691 110.901 21.9691H108.089V32.4829H110.901C114.025 32.4829 116.055 30.286 116.055 27.1476Z" fill="#0064FF"/>
<path d="M135.892 30.286H125.74C126.052 32.1691 127.302 33.1107 129.02 33.1107C130.269 33.1107 131.363 32.483 131.831 31.5414H135.736C134.799 34.523 132.144 36.406 129.02 36.406C124.959 36.406 121.991 33.2676 121.991 29.1876C121.991 25.1076 124.959 21.9691 129.02 21.9691C133.237 21.9691 136.049 25.1076 136.049 29.0307C135.893 29.5014 135.892 29.8153 135.892 30.286ZM125.74 27.7753H132.3C131.831 26.0491 130.582 25.2645 129.02 25.2645C127.302 25.1076 126.208 26.0491 125.74 27.7753Z" fill="#0064FF"/>
<path d="M144.796 36.4061C140.735 36.4061 137.611 33.2676 137.611 29.1876C137.611 25.1076 140.735 22.1261 144.796 22.1261C148.232 22.1261 151.044 24.323 151.669 27.6184H148.076C147.451 26.2061 146.202 25.5784 144.796 25.5784C142.765 25.5784 141.359 27.1476 141.359 29.3446C141.359 31.5415 142.921 33.1107 144.796 33.1107C146.202 33.1107 147.451 32.3261 148.076 30.9138H151.825C151.044 34.0523 148.232 36.4061 144.796 36.4061Z" fill="#0064FF"/>
<path d="M162.29 35.9353L157.917 29.5015V35.9353H154.324V17.5753H157.917V28.5599L161.978 22.5969H166.195L161.665 29.0307L166.664 36.0922H162.29V35.9353Z" fill="#0064FF"/>
<path d="M181.034 27.7753V36.0922H177.441V28.403C177.441 26.363 176.66 25.4215 175.098 25.4215C173.224 25.4215 172.131 26.6769 172.131 29.0307V36.0922H168.538V17.5753H172.131V23.6953C173.224 22.7538 174.63 22.1261 176.192 22.1261C179.159 22.1261 181.034 24.323 181.034 27.7753Z" fill="#0064FF"/>
<path d="M183.377 29.1876C183.377 25.1076 186.501 21.9691 190.718 21.9691C194.936 21.9691 198.059 24.9507 198.059 29.1876C198.059 33.2676 194.936 36.406 190.718 36.406C186.501 36.406 183.377 33.2676 183.377 29.1876ZM194.311 29.1876C194.311 26.9907 192.749 25.4214 190.718 25.4214C188.688 25.4214 187.126 26.9907 187.126 29.1876C187.126 31.3845 188.688 32.9537 190.718 32.9537C192.749 32.9537 194.311 31.3845 194.311 29.1876Z" fill="#0064FF"/>
<path d="M200.402 30.2861V22.4399H203.995V29.8153C203.995 31.6984 205.088 32.9538 206.65 32.9538C208.369 32.9538 209.306 31.8553 209.306 29.8153V22.4399H212.898V30.2861C212.898 33.8953 210.399 36.4061 206.494 36.4061C202.902 36.4061 200.402 33.8953 200.402 30.2861Z" fill="#0064FF"/>
<path d="M221.177 36.4061C217.74 36.4061 215.554 34.523 215.554 31.5415H219.146C219.146 32.7969 220.083 33.4246 221.333 33.4246C222.27 33.4246 223.207 32.9538 223.207 32.0123C223.207 31.0707 222.114 30.7569 220.552 30.5999C218.365 30.2861 215.71 29.6584 215.71 26.52C215.71 24.0092 217.897 22.1261 221.177 22.1261C224.457 22.1261 226.644 24.0092 226.644 26.6769H223.207C223.207 25.5784 222.426 25.1076 221.177 25.1076C220.083 25.1076 219.302 25.5784 219.302 26.363C219.302 27.3046 220.396 27.4615 221.802 27.7753C223.988 28.2461 226.8 28.7169 226.8 32.0123C226.8 34.523 224.457 36.4061 221.177 36.4061Z" fill="#0064FF"/>
<path d="M242.42 30.286H232.267C232.579 32.1691 233.829 33.1107 235.547 33.1107C236.797 33.1107 237.89 32.483 238.359 31.5414H242.264C241.326 34.523 238.671 36.406 235.547 36.406C231.486 36.406 228.518 33.2676 228.518 29.1876C228.518 25.1076 231.486 21.9691 235.547 21.9691C239.764 21.9691 242.576 25.1076 242.576 29.0307C242.576 29.5014 242.576 29.8153 242.42 30.286ZM232.423 27.7753H238.983C238.515 26.0491 237.265 25.2645 235.703 25.2645C233.985 25.1076 232.735 26.0491 232.423 27.7753Z" fill="#0064FF"/>
<path d="M122.147 66.0645L120.429 54.6091L115.274 66.0645H114.337L109.183 54.6091L107.464 66.0645H103.559L106.371 48.4891H110.12L114.806 59.3168L119.492 48.4891H123.24L125.896 66.0645H122.147Z" fill="#00003C"/>
<path d="M142.297 52.5692V66.0646H139.485L139.173 64.8092C138.079 65.7508 136.517 66.3785 134.799 66.3785C130.738 66.3785 127.77 63.24 127.77 59.16C127.77 55.08 130.738 51.9415 134.799 51.9415C136.517 51.9415 138.079 52.5692 139.173 53.6677L139.485 52.4123L142.297 52.5692ZM138.704 59.3169C138.704 57.12 137.142 55.5508 134.955 55.5508C132.768 55.5508 131.207 57.12 131.207 59.3169C131.207 61.5139 132.768 63.0831 134.955 63.0831C137.142 63.0831 138.704 61.5139 138.704 59.3169Z" fill="#00003C"/>
<path d="M158.385 57.9045V66.0645H154.793V58.3752C154.793 56.3352 154.012 55.3937 152.45 55.3937C150.575 55.3937 149.482 56.806 149.482 59.0029V66.0645H145.889V52.5691H148.388L149.169 54.2952C150.263 53.0399 151.825 52.2552 153.699 52.2552C156.511 52.2552 158.385 54.4522 158.385 57.9045Z" fill="#00003C"/>
<path d="M175.411 52.5692V66.0646H172.599L172.287 64.8092C171.193 65.7508 169.631 66.3785 167.913 66.3785C163.852 66.3785 160.884 63.24 160.884 59.16C160.884 55.08 163.852 51.9415 167.913 51.9415C169.631 51.9415 171.193 52.5692 172.287 53.6677L172.599 52.4123L175.411 52.5692ZM171.818 59.3169C171.818 57.12 170.256 55.5508 168.069 55.5508C165.883 55.5508 164.321 57.12 164.321 59.3169C164.321 61.5139 165.883 63.0831 168.069 63.0831C170.256 63.0831 171.818 61.5139 171.818 59.3169Z" fill="#00003C"/>
<path d="M192.124 52.5692V64.4953C192.124 68.7322 189.469 71.3999 185.251 71.3999C181.659 71.3999 179.003 69.5168 178.379 66.3784H181.971C182.44 67.6338 183.845 68.2615 185.095 68.2615C186.969 68.2615 188.531 67.0061 188.531 65.123V64.6522C187.438 65.4368 186.188 65.9076 184.626 65.9076C180.878 65.9076 177.91 62.9261 177.91 59.1599C177.91 55.3938 180.878 52.4122 184.626 52.4122C186.345 52.4122 187.907 53.0399 189.156 54.1384L189.781 52.7261H192.124V52.5692ZM188.531 59.003C188.531 56.963 187.126 55.5507 185.095 55.5507C183.064 55.5507 181.659 56.963 181.659 59.003C181.659 61.043 183.064 62.4553 185.095 62.4553C187.126 62.4553 188.531 61.043 188.531 59.003Z" fill="#00003C"/>
<path d="M208.681 60.4153H198.372C198.684 62.2984 199.934 63.2399 201.652 63.2399C202.902 63.2399 203.995 62.6122 204.464 61.6707H208.368C207.431 64.6522 204.776 66.5353 201.652 66.5353C197.591 66.5353 194.623 63.3969 194.623 59.3169C194.623 55.2369 197.591 52.0984 201.652 52.0984C205.869 52.0984 208.681 55.2369 208.681 59.1599C208.681 59.6307 208.681 59.9445 208.681 60.4153ZM198.528 57.9046H205.088C204.62 56.1784 203.37 55.3938 201.808 55.3938C200.09 55.2369 198.997 56.1784 198.528 57.9046Z" fill="#00003C"/>
<path d="M224.926 47.7046V66.2215H222.27L221.802 65.1231C220.708 66.0646 219.146 66.6923 217.584 66.6923C213.523 66.6923 210.555 63.5538 210.555 59.4738C210.555 55.3938 213.523 52.2554 217.584 52.2554C218.99 52.2554 220.24 52.7261 221.333 53.3538V47.7046H224.926V47.7046ZM221.489 59.3169C221.489 57.12 219.927 55.5507 217.74 55.5507C215.554 55.5507 213.992 57.12 213.992 59.3169C213.992 61.5138 215.554 63.0831 217.74 63.0831C219.927 63.0831 221.489 61.5138 221.489 59.3169Z" fill="#00003C"/>
<path d="M244.607 66.0645L238.359 57.4338V66.0645H234.61V48.4891H238.359V56.6491L244.138 48.4891H248.511L242.576 56.963L249.136 66.0645H244.607V66.0645Z" fill="#00003C"/>
<path d="M249.605 60.4154V52.5692H253.198V59.9446C253.198 61.8277 254.291 63.0831 255.853 63.0831C257.571 63.0831 258.508 61.9846 258.508 59.9446V52.5692H262.101V60.4154C262.101 64.0246 259.602 66.5354 255.697 66.5354C252.26 66.5354 249.605 64.0246 249.605 60.4154Z" fill="#00003C"/>
<path d="M280.064 59.3169C280.064 63.3969 277.096 66.5354 273.035 66.5354C271.316 66.5354 269.911 65.9077 268.817 64.9661L268.349 66.0646H265.693V47.7046H269.286V53.3538C270.379 52.5692 271.629 52.2554 273.035 52.2554C277.096 52.0984 280.064 55.2369 280.064 59.3169ZM276.315 59.3169C276.315 57.12 274.753 55.5507 272.566 55.5507C270.379 55.5507 268.817 57.12 268.817 59.3169C268.817 61.3569 270.379 63.0831 272.566 63.0831C274.753 63.0831 276.315 61.5138 276.315 59.3169Z" fill="#00003C"/>
<path d="M295.84 60.4153H285.687C285.999 62.2984 287.249 63.2399 288.967 63.2399C290.217 63.2399 291.31 62.6122 291.779 61.6707H295.684C294.746 64.6522 292.091 66.5353 288.967 66.5353C284.906 66.5353 281.938 63.3969 281.938 59.3169C281.938 55.2369 284.906 52.0984 288.967 52.0984C293.184 52.0984 295.996 55.2369 295.996 59.1599C295.84 59.6307 295.84 59.9445 295.84 60.4153ZM285.687 57.9046H292.247C291.779 56.1784 290.529 55.3938 288.967 55.3938C287.249 55.2369 285.999 56.1784 285.687 57.9046Z" fill="#00003C"/>
<path d="M306.461 52.4122V55.8645H304.899C302.869 55.8645 302.088 56.8061 302.088 59.003V66.0645H298.339V52.5692H300.682L301.307 54.2953C302.244 53.0399 303.493 52.5692 305.212 52.5692H306.461V52.4122Z" fill="#00003C"/>
<path d="M320.988 57.9045V66.0645H317.395V58.3752C317.395 56.3352 316.614 55.3937 315.052 55.3937C313.178 55.3937 312.084 56.806 312.084 59.0029V66.0645H308.492V52.5691H310.991L311.772 54.2952C312.865 53.0399 314.427 52.2552 316.302 52.2552C319.113 52.2552 320.988 54.4522 320.988 57.9045Z" fill="#00003C"/>
<path d="M337.388 60.4153H327.235C327.548 62.2984 328.797 63.2399 330.516 63.2399C331.765 63.2399 332.859 62.6122 333.327 61.6707H337.232C336.295 64.6522 333.64 66.5353 330.516 66.5353C326.454 66.5353 323.487 63.3969 323.487 59.3169C323.487 55.2369 326.454 52.0984 330.516 52.0984C334.733 52.0984 337.545 55.2369 337.545 59.1599C337.388 59.6307 337.388 59.9445 337.388 60.4153ZM327.235 57.9046H333.796C333.327 56.1784 332.078 55.3938 330.516 55.3938C328.797 55.2369 327.704 56.1784 327.235 57.9046Z" fill="#00003C"/>
<path d="M348.166 62.7692V66.0646H345.511C342.543 66.0646 340.669 64.1815 340.669 61.2V55.3938H338.169V54.6092L343.48 48.96H344.105V52.5692H347.854V55.5507H344.261V60.8861C344.261 62.1415 345.042 62.9261 346.292 62.9261H348.166V62.7692Z" fill="#00003C"/>
<path d="M363.63 60.4153H353.477C353.789 62.2984 355.039 63.2399 356.757 63.2399C358.007 63.2399 359.1 62.6122 359.569 61.6707H363.473C362.536 64.6522 359.881 66.5353 356.757 66.5353C352.696 66.5353 349.728 63.3969 349.728 59.3169C349.728 55.2369 352.696 52.0984 356.757 52.0984C360.974 52.0984 363.786 55.2369 363.786 59.1599C363.63 59.6307 363.63 59.9445 363.63 60.4153ZM353.477 57.9046H360.037C359.569 56.1784 358.319 55.3938 356.757 55.3938C355.039 55.2369 353.945 56.1784 353.477 57.9046Z" fill="#00003C"/>
<path d="M365.348 61.6706H368.94C368.94 62.926 369.878 63.5537 371.127 63.5537C372.064 63.5537 373.002 63.0829 373.002 62.1414C373.002 61.1999 371.908 60.886 370.346 60.7291C368.159 60.4152 365.504 59.7875 365.504 56.6491C365.504 54.1383 367.691 52.2552 370.971 52.2552C374.251 52.2552 376.438 54.1383 376.438 56.806H373.002C373.002 55.7075 372.221 55.2368 370.971 55.2368C369.878 55.2368 369.097 55.7075 369.097 56.4922C369.097 57.4337 370.19 57.5906 371.596 57.9045C373.783 58.3752 376.594 58.846 376.594 62.1414C376.594 64.966 374.407 66.6922 370.971 66.6922C367.691 66.5352 365.348 64.4952 365.348 61.6706Z" fill="#00003C"/>
<path d="M114.806 92.8984H107.777L106.527 96.1938H102.466L109.339 78.6184H112.931L119.96 96.1938H115.899L114.806 92.8984ZM109.026 89.603H113.556L111.213 83.3261L109.026 89.603Z" fill="#00003C"/>
<path d="M134.799 88.0338V96.1938H131.207V88.5045C131.207 86.4645 130.426 85.523 128.864 85.523C126.989 85.523 125.896 86.9353 125.896 89.1322V96.1938H122.303V82.6984H124.802L125.583 84.4245C126.677 83.1691 128.239 82.3845 130.113 82.3845C132.769 82.3845 134.799 84.5814 134.799 88.0338Z" fill="#00003C"/>
<path d="M150.575 82.6984L144.64 96.0369C143.078 99.6461 141.672 101.058 138.548 101.058H136.986V97.7631H138.236C139.954 97.7631 140.422 97.2923 141.203 95.2523V95.0954L135.424 82.5415H139.329L142.921 90.8584L146.358 82.5415H150.575V82.6984Z" fill="#00003C"/>
<path d="M172.443 82.6984L168.069 96.1938H165.102L161.978 89.1322L159.01 96.1938H156.042L151.512 82.6984H155.261L157.916 90.8584L161.353 82.8553H162.446L166.039 90.8584L168.694 82.6984H172.443Z" fill="#00003C"/>
<path d="M186.969 88.0337V96.3507H183.377V88.6614C183.377 86.6214 182.596 85.6799 181.034 85.6799C179.159 85.6799 178.066 86.9353 178.066 89.2891V96.3507H174.474V77.8337H178.066V83.9537C179.159 83.0122 180.565 82.3845 182.127 82.3845C184.939 82.3845 186.969 84.5814 186.969 88.0337Z" fill="#00003C"/>
<path d="M203.214 90.5445H193.061C193.374 92.4275 194.623 93.3691 196.341 93.3691C197.591 93.3691 198.684 92.7414 199.153 91.7998H203.058C202.121 94.7814 199.465 96.6645 196.341 96.6645C192.28 96.6645 189.312 93.526 189.312 89.446C189.312 85.366 192.28 82.2275 196.341 82.2275C200.559 82.2275 203.37 85.366 203.37 89.2891C203.37 89.7598 203.214 90.0737 203.214 90.5445ZM193.061 88.0337H199.621C199.153 86.3075 197.903 85.5229 196.341 85.5229C194.623 85.366 193.53 86.3075 193.061 88.0337Z" fill="#00003C"/>
<path d="M213.992 82.5415V85.9938H212.43C210.399 85.9938 209.618 86.9354 209.618 89.1323V96.1938H206.026V82.6984H208.369L208.993 84.4246C209.931 83.1692 211.18 82.6984 212.898 82.6984H213.992V82.5415Z" fill="#00003C"/>
<path d="M228.987 90.5445H218.834C219.146 92.4275 220.396 93.3691 222.114 93.3691C223.364 93.3691 224.457 92.7414 224.926 91.7998H228.831C227.893 94.7814 225.238 96.6645 222.114 96.6645C218.053 96.6645 215.085 93.526 215.085 89.446C215.085 85.366 218.053 82.2275 222.114 82.2275C226.331 82.2275 229.143 85.366 229.143 89.2891C229.143 89.7598 228.987 90.0737 228.987 90.5445ZM218.834 88.0337H225.394C224.926 86.3075 223.676 85.5229 222.114 85.5229C220.396 85.366 219.302 86.3075 218.834 88.0337Z" fill="#00003C"/>
<path d="M9.52806 35.4646L29.0528 24.1661L20.1495 18.9877L0.624756 30.2861V52.8831L9.52806 57.9046V35.4646Z" fill="#00003C"/>
<path d="M58.8867 18.9877L49.9834 24.1661L69.5082 35.4646V58.0615L78.4115 52.8831V30.2861L58.8867 18.9877Z" fill="#00003C"/>
<path d="M9.52806 80.5016V57.9047L0.624756 63.0831V85.68L20.1495 96.9785L29.0528 91.8L9.52806 80.5016Z" fill="#00003C"/>
<path d="M69.5082 57.9047V80.5016L49.9834 91.8L58.8867 96.9785L78.4115 85.68V63.0831L69.5082 57.9047Z" fill="#00003C"/>
<path d="M39.362 34.8369L19.9934 46.1354V68.5754L39.362 79.8738L58.7306 68.5754V46.1354L39.362 34.8369Z" fill="#0066FF"/>
<path d="M41.0801 66.0646H32.333V48.4893H41.0801C45.9223 48.4893 49.8272 52.4123 49.8272 57.277C49.8272 62.1416 45.9223 66.0646 41.0801 66.0646Z" fill="white"/>
</svg>
