<svg width="718" height="300" viewBox="0 0 718 300" fill="none" xmlns="http://www.w3.org/2000/svg">
    <path d="M332.567 252.593C341.055 256.097 351.228 258.075 363.014 258.075C403.021 258.075 424.405 235.299 424.405 207.288V92.7232C424.405 83.2091 422.788 75.0947 419.624 68.3242L440.135 24.9111C456.753 40.2076 466.25 62.6862 466.25 92.7232V207.288C466.25 256.54 425.191 299.326 364.408 299.992L363.014 300C345.121 300 328.905 296.362 314.903 289.983L332.567 252.593Z" fill="#222A5D"/>
    <path d="M259.731 92.7232C259.731 29.7712 301.44 0.0117002 363.014 0.0117002L364.408 0.0169004C382.138 0.151596 398.19 2.78323 412.034 7.99127L393.91 46.3551C385.336 43.3892 375.013 41.935 363.014 41.935C323.006 41.935 301.578 58.0559 301.578 92.7232V207.288C301.578 215.521 303.43 223.3 307.06 230.183L287.522 271.538C269.867 254.633 259.731 231.759 259.731 207.288V92.7232Z" fill="#222A5D"/>
    <path d="M225.391 196.241V239.549H193.43V300H154.678L154.552 239.549H0V225.63L105.439 0H152.364L64.4618 196.241H154.552V112.782H193.43V196.241H225.391Z" fill="#222A5D"/>
    <path d="M718 196.241V239.549H686.039V300H647.287L647.161 239.549H492.609V225.63L598.048 0H644.973L557.071 196.241H647.161V112.782H686.039V196.241H718Z" fill="#222A5D"/>
</svg>
