<svg width="25" height="24" viewBox="0 0 25 24" fill="none" xmlns="http://www.w3.org/2000/svg">
<path d="M1.1665 4C1.1665 2.067 2.73351 0.5 4.6665 0.5H20.6665C22.5995 0.5 24.1665 2.067 24.1665 4V20C24.1665 21.933 22.5995 23.5 20.6665 23.5H4.6665C2.73351 23.5 1.1665 21.933 1.1665 20V4Z" fill="white"/>
<path d="M1.1665 4C1.1665 2.067 2.73351 0.5 4.6665 0.5H20.6665C22.5995 0.5 24.1665 2.067 24.1665 4V20C24.1665 21.933 22.5995 23.5 20.6665 23.5H4.6665C2.73351 23.5 1.1665 21.933 1.1665 20V4Z" stroke="#C4CAD4"/>
<path d="M15.5732 6.16667C15.5732 5.52233 15.0509 5 14.4065 5L7.40653 5C6.7622 5 6.23987 5.52233 6.23987 6.16667L6.23987 14.3333C6.23987 14.9777 6.7622 15.5 7.40653 15.5M10.9065 19H17.9065C18.5509 19 19.0732 18.4777 19.0732 17.8333V9.66667C19.0732 9.02233 18.5509 8.5 17.9065 8.5L10.9065 8.5C10.2622 8.5 9.73987 9.02233 9.73987 9.66667L9.73987 17.8333C9.73987 18.4777 10.2622 19 10.9065 19Z" stroke="#0064FF" stroke-width="1.5" stroke-linejoin="round"/>
</svg>
