<svg xmlns="http://www.w3.org/2000/svg" width="21" height="21" viewBox="0 0 21 21" fill="none">
    <path d="M1.43945 10.44C1.43945 11.6219 1.67224 12.7922 2.12454 13.8842C2.57683 14.9761 3.23976 15.9682 4.07549 16.804C4.91122 17.6397 5.90337 18.3026 6.9953 18.7549C8.08723 19.2072 9.25756 19.44 10.4395 19.44C11.6214 19.44 12.7917 19.2072 13.8836 18.7549C14.9755 18.3026 15.9677 17.6397 16.8034 16.804C17.6391 15.9682 18.3021 14.9761 18.7544 13.8842C19.2067 12.7922 19.4395 11.6219 19.4395 10.44C19.4395 9.25811 19.2067 8.08778 18.7544 6.99585C18.3021 5.90392 17.6391 4.91177 16.8034 4.07604C15.9677 3.24031 14.9755 2.57738 13.8836 2.12509C12.7917 1.67279 11.6214 1.44 10.4395 1.44C9.25756 1.44 8.08723 1.67279 6.9953 2.12509C5.90337 2.57738 4.91122 3.24031 4.07549 4.07604C3.23976 4.91177 2.57683 5.90392 2.12454 6.99585C1.67224 8.08778 1.43945 9.25811 1.43945 10.44Z" stroke="#F3455A" stroke-width="2.88" stroke-linecap="round" stroke-linejoin="round"/>
    <path d="M16.8042 4.07608L4.07617 16.8041" stroke="#F3455A" stroke-width="2.88" stroke-linecap="round" stroke-linejoin="round"/>
</svg>
