<svg width="36" height="32" viewBox="0 0 36 32" fill="none" xmlns="http://www.w3.org/2000/svg">
    <rect width="36" height="32" rx="6" fill="#F5F5FB"/>
    <g clip-path="url(#clip0_11876_47244)">
        <path d="M13 17.9999V9.99993C13 9.73472 12.8946 9.48036 12.7071 9.29283C12.5196 9.10529 12.2652 8.99993 12 8.99993H10C9.73478 8.99993 9.48043 9.10529 9.29289 9.29283C9.10536 9.48036 9 9.73472 9 9.99993V16.9999C9 17.2651 9.10536 17.5195 9.29289 17.707C9.48043 17.8946 9.73478 17.9999 10 17.9999H13ZM13 17.9999C14.0609 17.9999 15.0783 18.4214 15.8284 19.1715C16.5786 19.9217 17 20.9391 17 21.9999V22.9999C17 23.5304 17.2107 24.0391 17.5858 24.4141C17.9609 24.7892 18.4696 24.9999 19 24.9999C19.5304 24.9999 20.0391 24.7892 20.4142 24.4141C20.7893 24.0391 21 23.5304 21 22.9999V17.9999H24C24.5304 17.9999 25.0391 17.7892 25.4142 17.4141C25.7893 17.0391 26 16.5304 26 15.9999L25 10.9999C24.8562 10.3865 24.5834 9.85969 24.2227 9.49897C23.8619 9.13825 23.4328 8.96311 23 8.99993H16C15.2044 8.99993 14.4413 9.316 13.8787 9.87861C13.3161 10.4412 13 11.2043 13 11.9999" stroke="#222A5D" stroke-width="1.5" stroke-linecap="round" stroke-linejoin="round"/>
    </g>
    <defs>
        <clipPath id="clip0_11876_47244">
            <rect width="24" height="24" fill="white" transform="translate(6 4)"/>
        </clipPath>
    </defs>
</svg>
