<svg width="522" height="470" viewBox="0 0 522 470" fill="none" xmlns="http://www.w3.org/2000/svg">
<path d="M227.137 126.164C246.371 158.622 310.754 191.308 359.208 155.888" stroke="#00003C" stroke-width="10"/>
<path d="M243.812 120.013C247.204 123.946 248.586 128.031 248.312 131.828C248.037 135.627 246.099 139.206 242.721 142.119C239.34 145.034 235.206 146.687 231.094 146.647C226.993 146.606 222.878 144.881 219.508 140.972C216.123 137.048 213.649 130.896 212.884 124.979C212.116 119.031 213.095 113.524 216.357 110.711C219.597 107.917 224.662 108.163 229.927 110.226C235.16 112.277 240.403 116.06 243.812 120.013Z" fill="white" stroke="#00003C"/>
<rect width="106.381" height="138.839" transform="matrix(0.86601 0.500028 3.18351e-05 1 345.578 127.209)" fill="#F5F5F5"/>
<rect width="57.6942" height="138.839" transform="matrix(0.86601 -0.500028 -3.18351e-05 1 437.723 180.402)" fill="#D8D8D8"/>
<rect width="57.6942" height="106.381" transform="matrix(0.866041 -0.499972 0.866041 0.499972 345.578 127.219)" fill="white"/>
<rect width="57.6942" height="106.381" transform="matrix(0.866041 -0.499972 0.866041 0.499972 345.578 127.219)" fill="white"/>
<rect width="106.381" height="138.839" transform="matrix(0.86601 0.500028 3.18351e-05 1 345.578 127.209)" stroke="#00003C" stroke-linejoin="bevel"/>
<rect width="57.6942" height="138.839" transform="matrix(0.86601 -0.500028 -3.18351e-05 1 437.723 180.402)" stroke="#00003C" stroke-linejoin="bevel"/>
<rect width="57.6942" height="106.381" transform="matrix(0.866041 -0.499972 0.866041 0.499972 345.578 127.219)" stroke="#00003C" stroke-linejoin="bevel"/>
<path d="M466.227 184.147C464.185 211.991 487.504 276.605 385.88 239.753" stroke="#00003C" stroke-width="10"/>
<path d="M382.935 220.527C387.912 222.013 391.277 224.708 393.092 228.055C394.908 231.403 395.204 235.463 393.929 239.737C392.652 244.015 390.06 247.635 386.575 249.816C383.098 251.992 378.702 252.756 373.757 251.28C368.791 249.798 363.391 245.95 359.559 241.378C355.706 236.781 353.563 231.614 354.795 227.487C356.018 223.387 360.418 220.865 365.964 219.766C371.478 218.673 377.933 219.035 382.935 220.527Z" fill="white" stroke="#00003C"/>
<rect width="155.068" height="90.152" transform="matrix(0.86601 0.500028 3.18351e-05 1 304.125 46.0636)" fill="white"/>
<rect width="90.152" height="90.152" transform="matrix(0.86601 -0.500028 -3.18351e-05 1 438.43 123.6)" fill="#F5F5F5"/>
<rect width="90.152" height="155.068" transform="matrix(0.866041 -0.499972 0.866041 0.499972 304.125 46.0735)" fill="white"/>
<rect width="155.068" height="90.152" transform="matrix(0.86601 0.500028 3.18351e-05 1 304.125 46.0636)" stroke="#00003C" stroke-linejoin="bevel"/>
<rect width="90.152" height="90.152" transform="matrix(0.86601 -0.500028 -3.18351e-05 1 438.43 123.6)" stroke="#00003C" stroke-linejoin="bevel"/>
<rect width="90.152" height="155.068" transform="matrix(0.866041 -0.499972 0.866041 0.499972 304.125 46.0735)" stroke="#00003C" stroke-linejoin="bevel"/>
<rect width="112.437" height="35.9202" rx="3" transform="matrix(0.866025 0.5 -2.20305e-08 1 318.543 81.8256)" fill="#F5F5F5"/>
<rect width="10.8193" height="16.2289" transform="matrix(0.866025 0.5 -2.20305e-08 1 329.371 98.3735)" fill="#00003C"/>
<rect width="10.8193" height="16.2289" transform="matrix(0.866025 0.5 -2.20305e-08 1 396.086 136.241)" fill="#00003C"/>
<path d="M355.392 124.859C355.392 127.87 356.428 131.355 358.271 134.549C360.115 137.742 362.616 140.382 365.223 141.887C367.831 143.393 370.331 143.641 372.175 142.576C374.019 141.512 375.055 139.222 375.055 136.211L365.223 130.535L355.392 124.859Z" fill="#00003C"/>
<path fill-rule="evenodd" clip-rule="evenodd" d="M485.401 113.515C480.969 112.327 475.781 113.958 470.89 118.688C461.106 128.148 456.209 146.424 459.952 159.508C461.823 166.051 465.5 170.056 469.933 171.244L481.478 174.338C485.911 175.525 491.098 173.895 495.99 169.165C505.774 159.705 510.671 141.429 506.928 128.344C505.056 121.802 501.379 117.796 496.947 116.609L485.401 113.515Z" fill="#00003C"/>
<path d="M494.717 158.517C489.469 163.765 483.658 162.208 481.737 155.039C479.816 147.869 482.513 137.803 487.762 132.554C493.01 127.306 498.821 128.863 500.742 136.032C502.663 143.202 499.965 153.268 494.717 158.517Z" stroke="white"/>
<circle r="21.7087" transform="matrix(0.258788 0.965934 -0.707084 0.707129 489.789 145.63)" stroke="white" stroke-width="2"/>
<rect width="124.831" height="107.678" transform="matrix(0.86601 0.500028 3.18351e-05 1 166.816 236.275)" fill="#F5F5F5"/>
<rect width="124.831" height="107.678" transform="matrix(0.86601 -0.500028 -3.18351e-05 1 58.7227 298.691)" fill="#F5F5F5"/>
<rect width="124.831" height="124.831" transform="matrix(0.866041 0.499972 -0.866041 0.499972 166.805 343.951)" fill="#F5F5F5"/>
<rect width="124.831" height="107.678" transform="matrix(0.86601 0.500028 3.18351e-05 1 58.7227 298.683)" fill="#0064FF"/>
<rect width="124.831" height="107.678" transform="matrix(0.86601 -0.500028 -3.18351e-05 1 166.832 361.099)" fill="#0E56C7"/>
<rect width="124.831" height="107.678" transform="matrix(0.86601 0.500028 3.18351e-05 1 58.7148 298.683)" stroke="#00003C"/>
<rect width="124.831" height="107.678" transform="matrix(0.86601 -0.500028 -3.18351e-05 1 166.828 361.099)" stroke="#00003C"/>
<path d="M274.932 406.372L274.929 298.694L166.824 236.276L166.828 343.953L182.183 352.819" stroke="#00003C"/>
<path d="M58.7153 406.369L58.7188 298.692L166.823 236.273L166.82 343.95L152.746 352.077" stroke="#00003C"/>
<rect width="73.8659" height="52.7098" transform="matrix(0.86601 0.500028 3.18351e-05 1 151.238 298.579)" fill="white"/>
<rect width="44.2474" height="52.7098" transform="matrix(0.86601 -0.500028 -3.18351e-05 1 215.238 335.512)" fill="white"/>
<rect width="44.2474" height="73.8659" transform="matrix(0.866041 -0.499972 0.866041 0.499972 151.238 298.581)" fill="white"/>
<rect width="73.8659" height="52.7098" transform="matrix(0.86601 0.500028 3.18351e-05 1 151.238 298.579)" stroke="#00003C" stroke-linejoin="bevel"/>
<rect width="44.2474" height="52.7098" transform="matrix(0.86601 -0.500028 -3.18351e-05 1 215.238 335.512)" stroke="#00003C" stroke-linejoin="bevel"/>
<rect width="44.2474" height="73.8659" transform="matrix(0.866041 -0.499972 0.866041 0.499972 151.238 298.581)" stroke="#00003C" stroke-linejoin="bevel"/>
<rect width="31.5537" height="44.2474" transform="matrix(0.86601 0.500028 3.18351e-05 1 96.2578 326.787)" fill="#0064FF"/>
<rect width="44.2474" height="44.2474" transform="matrix(0.86601 -0.500028 -3.18351e-05 1 123.609 342.566)" fill="#0E56C7"/>
<rect width="44.2474" height="31.5537" transform="matrix(0.866041 -0.499972 0.866041 0.499972 96.2578 326.789)" fill="#0064FF"/>
<rect width="31.5537" height="44.2474" transform="matrix(0.86601 0.500028 3.18351e-05 1 96.2578 326.787)" stroke="#00003C" stroke-linejoin="bevel"/>
<rect width="44.2474" height="44.2474" transform="matrix(0.86601 -0.500028 -3.18351e-05 1 123.609 342.566)" stroke="#00003C" stroke-linejoin="bevel"/>
<rect width="44.2474" height="31.5537" transform="matrix(0.866041 -0.499972 0.866041 0.499972 96.2578 326.789)" stroke="#00003C" stroke-linejoin="bevel"/>
<rect width="27.1726" height="22.1936" transform="matrix(0.86601 0.500028 3.18351e-05 1 198.395 287.221)" fill="#0064FF"/>
<rect width="27.1726" height="22.1936" transform="matrix(0.86601 -0.500028 -3.18351e-05 1 221.953 300.81)" fill="#0E56C7"/>
<rect width="27.1726" height="27.1726" transform="matrix(0.866041 -0.499972 0.866041 0.499972 198.395 287.223)" fill="#0064FF"/>
<rect width="27.1726" height="22.1936" transform="matrix(0.86601 0.500028 3.18351e-05 1 198.395 287.221)" stroke="#00003C" stroke-linejoin="bevel"/>
<rect width="27.1726" height="22.1936" transform="matrix(0.86601 -0.500028 -3.18351e-05 1 221.953 300.81)" stroke="#00003C" stroke-linejoin="bevel"/>
<rect width="27.1726" height="27.1726" transform="matrix(0.866041 -0.499972 0.866041 0.499972 198.395 287.223)" stroke="#00003C" stroke-linejoin="bevel"/>
<rect width="66.6851" height="124.831" transform="matrix(0.866041 -0.499972 0.866041 0.499972 166.262 236.128)" fill="white"/>
<rect width="66.6851" height="124.831" transform="matrix(-0.866041 -0.499972 -0.866041 0.499972 166.859 236.564)" fill="white"/>
<rect width="124.932" height="66.6872" transform="matrix(-0.866041 -0.499972 -0.866041 0.499972 167.742 361.291)" fill="white"/>
<rect width="124.932" height="66.6872" transform="matrix(0.866041 -0.499972 0.866041 0.499972 166.242 361.291)" fill="white"/>
<rect width="66.6851" height="124.831" transform="matrix(0.866041 -0.499972 0.866041 0.499972 166.262 236.128)" stroke="#00003C"/>
<rect width="66.6851" height="124.831" transform="matrix(-0.866041 -0.499972 -0.866041 0.499972 166.859 236.564)" stroke="#00003C"/>
<rect width="124.932" height="66.6872" transform="matrix(-0.866041 -0.499972 -0.866041 0.499972 167.742 361.291)" stroke="#00003C"/>
<rect width="124.932" height="66.6872" transform="matrix(0.866041 -0.499972 0.866041 0.499972 166.242 361.291)" stroke="#00003C"/>
<rect width="15.3278" height="12.5192" transform="matrix(0.86601 0.500028 3.18351e-05 1 56.7422 250.27)" fill="#0064FF"/>
<rect width="15.3278" height="12.5192" transform="matrix(0.86601 -0.500028 -3.18351e-05 1 70.0273 257.935)" fill="#0E56C7"/>
<rect width="15.3278" height="15.3278" transform="matrix(0.866041 -0.499972 0.866041 0.499972 56.7422 250.271)" fill="#0064FF"/>
<rect width="15.3278" height="12.5192" transform="matrix(0.86601 0.500028 3.18351e-05 1 56.7422 250.27)" stroke="#00003C" stroke-linejoin="bevel"/>
<rect width="15.3278" height="12.5192" transform="matrix(0.86601 -0.500028 -3.18351e-05 1 70.0273 257.935)" stroke="#00003C" stroke-linejoin="bevel"/>
<rect width="15.3278" height="15.3278" transform="matrix(0.866041 -0.499972 0.866041 0.499972 56.7422 250.271)" stroke="#00003C" stroke-linejoin="bevel"/>
<rect width="18.9974" height="15.5164" transform="matrix(0.86601 0.500028 3.18351e-05 1 240.348 242.733)" fill="#F5F5F5"/>
<rect width="18.9974" height="15.5164" transform="matrix(0.86601 -0.500028 -3.18351e-05 1 256.82 252.234)" fill="white"/>
<rect width="18.9974" height="18.9974" transform="matrix(0.866041 -0.499972 0.866041 0.499972 240.348 242.736)" fill="white"/>
<rect width="18.9974" height="15.5164" transform="matrix(0.86601 0.500028 3.18351e-05 1 240.348 242.733)" stroke="#00003C" stroke-linejoin="bevel"/>
<rect width="18.9974" height="15.5164" transform="matrix(0.86601 -0.500028 -3.18351e-05 1 256.82 252.234)" stroke="#00003C" stroke-linejoin="bevel"/>
<rect width="18.9974" height="18.9974" transform="matrix(0.866041 -0.499972 0.866041 0.499972 240.348 242.736)" stroke="#00003C" stroke-linejoin="bevel"/>
<rect width="21.9595" height="111.115" transform="matrix(0.86601 0.500028 3.18351e-05 1 111.195 169.808)" fill="#F5F5F5"/>
<rect width="111.115" height="111.115" transform="matrix(0.86601 -0.500028 -3.18351e-05 1 130.207 180.792)" fill="white"/>
<rect width="111.115" height="21.9595" transform="matrix(0.866041 -0.499972 0.866041 0.499972 111.195 169.815)" fill="white"/>
<rect width="21.9595" height="111.115" transform="matrix(0.86601 0.500028 3.18351e-05 1 111.195 169.808)" stroke="#00003C" stroke-linejoin="bevel"/>
<rect width="111.115" height="111.115" transform="matrix(0.86601 -0.500028 -3.18351e-05 1 130.207 180.792)" stroke="#00003C" stroke-linejoin="bevel"/>
<rect width="111.115" height="21.9595" transform="matrix(0.866041 -0.499972 0.866041 0.499972 111.195 169.815)" stroke="#00003C" stroke-linejoin="bevel"/>
<path d="M180.923 217.106L171.383 223.506L171.383 203.257L180.923 196.857C186.178 193.332 190.464 195.005 190.464 200.581C190.464 206.157 186.178 213.581 180.923 217.106Z" fill="#0064FF"/>
<path d="M163.221 206.836L158.105 205.413L144.555 229.631L158.105 233.399L163.221 224.113L160.594 223.525L160.594 211.531L163.221 206.836Z" fill="#00003C"/>
<path d="M200.971 182.161L195.855 191.304L198.344 192.139L198.344 204.133L195.855 208.581L200.971 210.147L214.522 185.929L200.971 182.161Z" fill="#00003C"/>
<path d="M165.988 191.816L171.104 193.148L173.731 188.751L185.346 180.544L187.835 181.326L193.089 172.666L179.539 169.137L165.988 191.816Z" fill="#00003C"/>
<path d="M190.462 223.06L187.835 222.509L185.346 226.675L173.731 234.882L171.104 234.332L168.615 238.497L165.988 242.894L179.539 246.423L193.089 223.744L190.462 223.06Z" fill="#00003C"/>
</svg>
