<svg width="36" height="32" viewBox="0 0 36 32" fill="none" xmlns="http://www.w3.org/2000/svg">
    <rect width="36" height="32" rx="6" fill="#F5F5FB"/>
    <g clip-path="url(#clip0_11876_47240)">
        <path d="M13 15V23C13 23.2652 12.8946 23.5196 12.7071 23.7071C12.5196 23.8946 12.2652 24 12 24H10C9.73478 24 9.48043 23.8946 9.29289 23.7071C9.10536 23.5196 9 23.2652 9 23V16C9 15.7348 9.10536 15.4804 9.29289 15.2929C9.48043 15.1054 9.73478 15 10 15H13ZM13 15C14.0609 15 15.0783 14.5786 15.8284 13.8284C16.5786 13.0783 17 12.0609 17 11V10C17 9.46957 17.2107 8.96086 17.5858 8.58579C17.9609 8.21071 18.4696 8 19 8C19.5304 8 20.0391 8.21071 20.4142 8.58579C20.7893 8.96086 21 9.46957 21 10V15H24C24.5304 15 25.0391 15.2107 25.4142 15.5858C25.7893 15.9609 26 16.4696 26 17L25 22C24.8562 22.6135 24.5834 23.1402 24.2227 23.501C23.8619 23.8617 23.4328 24.0368 23 24H16C15.2044 24 14.4413 23.6839 13.8787 23.1213C13.3161 22.5587 13 21.7956 13 21" stroke="#222A5D" stroke-width="1.5" stroke-linecap="round" stroke-linejoin="round"/>
    </g>
    <defs>
        <clipPath id="clip0_11876_47240">
            <rect width="24" height="24" fill="white" transform="translate(6 4)"/>
        </clipPath>
    </defs>
</svg>