<svg width="1004" height="204" viewBox="0 0 1004 204" fill="none" xmlns="http://www.w3.org/2000/svg">
<path d="M71.3229 86.4946C61.7983 80.9961 61.7983 72.0811 71.3229 66.5825L112.654 42.7223C112.654 42.7223 112.654 42.7223 112.654 42.7223C112.654 42.7223 185.874 0.451994 269.656 48.819C353.437 97.186 280.216 139.456 280.216 139.456C280.216 139.456 280.216 139.456 280.216 139.456L238.886 163.317C229.361 168.815 213.919 168.815 204.394 163.317L71.3229 86.4946Z" fill="url(#paint0_linear)"/>
<circle r="61.6211" transform="matrix(0.866044 -0.499967 0.866044 0.499967 137.999 124.825)" fill="url(#paint1_linear)"/>
<path d="M351.623 166.641C349.556 166.641 347.961 166.079 346.838 164.957C345.716 163.835 345.155 162.24 345.155 160.172V110.64C345.155 108.573 345.716 106.978 346.838 105.855C347.961 104.733 349.556 104.172 351.623 104.172H369.433C376.227 104.172 382.075 105.412 386.978 107.893C391.881 110.374 395.632 113.948 398.231 118.615C400.83 123.282 402.13 128.864 402.13 135.362C402.13 141.86 400.83 147.472 398.231 152.198C395.691 156.864 391.969 160.438 387.066 162.919C382.163 165.4 376.286 166.641 369.433 166.641H351.623ZM368.459 155.476C381.75 155.476 388.395 148.771 388.395 135.362C388.395 122.012 381.75 115.337 368.459 115.337H358.978V155.476H368.459ZM432.495 166.641C430.428 166.641 428.833 166.079 427.71 164.957C426.588 163.835 426.027 162.24 426.027 160.172V110.64C426.027 108.573 426.588 106.978 427.71 105.855C428.833 104.733 430.428 104.172 432.495 104.172H463.863C468.234 104.172 470.42 105.944 470.42 109.488C470.42 113.092 468.234 114.893 463.863 114.893H439.495V129.514H462.09C466.462 129.514 468.647 131.316 468.647 134.919C468.647 138.463 466.462 140.235 462.09 140.235H439.495V155.919H463.863C468.234 155.919 470.42 157.721 470.42 161.324C470.42 164.868 468.234 166.641 463.863 166.641H432.495ZM520.552 167.438C514.408 167.438 509.033 166.139 504.425 163.539C499.817 160.94 496.273 157.219 493.792 152.375C491.311 147.531 490.07 141.86 490.07 135.362C490.07 128.864 491.311 123.223 493.792 118.438C496.273 113.594 499.817 109.872 504.425 107.273C509.033 104.674 514.408 103.374 520.552 103.374C528.29 103.374 534.965 105.501 540.577 109.754C541.463 110.463 542.083 111.172 542.438 111.881C542.792 112.59 542.97 113.476 542.97 114.539C542.97 116.075 542.526 117.404 541.64 118.526C540.813 119.59 539.78 120.121 538.539 120.121C537.712 120.121 536.974 120.033 536.324 119.856C535.733 119.619 535.054 119.235 534.286 118.704C531.923 117.168 529.737 116.075 527.729 115.425C525.72 114.716 523.564 114.362 521.261 114.362C515.59 114.362 511.307 116.134 508.412 119.678C505.577 123.164 504.159 128.391 504.159 135.362C504.159 149.421 509.86 156.451 521.261 156.451C523.446 156.451 525.514 156.126 527.463 155.476C529.412 154.767 531.687 153.645 534.286 152.109C535.172 151.577 535.91 151.223 536.501 151.046C537.092 150.809 537.771 150.691 538.539 150.691C539.78 150.691 540.813 151.252 541.64 152.375C542.526 153.438 542.97 154.738 542.97 156.273C542.97 157.337 542.763 158.252 542.349 159.02C541.995 159.729 541.404 160.409 540.577 161.058C534.965 165.312 528.29 167.438 520.552 167.438ZM615.782 156.273C617.141 157.632 617.82 159.109 617.82 160.704C617.82 162.358 617.17 163.805 615.87 165.046C614.63 166.286 613.183 166.906 611.529 166.906C609.638 166.906 607.955 166.139 606.478 164.603L579.01 137.754V160.261C579.01 162.387 578.389 164.071 577.149 165.312C575.908 166.552 574.225 167.172 572.098 167.172C569.971 167.172 568.288 166.552 567.047 165.312C565.807 164.071 565.187 162.387 565.187 160.261V110.552C565.187 108.484 565.807 106.83 567.047 105.59C568.288 104.349 569.971 103.729 572.098 103.729C574.225 103.729 575.908 104.349 577.149 105.59C578.389 106.83 579.01 108.484 579.01 110.552V131.729L605.769 105.767C607.069 104.467 608.546 103.817 610.2 103.817C611.854 103.817 613.301 104.438 614.541 105.678C615.782 106.86 616.402 108.277 616.402 109.931C616.402 111.645 615.693 113.18 614.276 114.539L593.187 134.299L615.782 156.273ZM687.619 103.729C689.687 103.729 691.341 104.349 692.582 105.59C693.822 106.83 694.442 108.484 694.442 110.552V160.261C694.442 162.328 693.822 164.012 692.582 165.312C691.341 166.552 689.687 167.172 687.619 167.172C685.552 167.172 683.898 166.552 682.657 165.312C681.476 164.071 680.885 162.387 680.885 160.261V140.413H652.088V160.261C652.088 162.328 651.467 164.012 650.227 165.312C648.986 166.552 647.362 167.172 645.353 167.172C643.286 167.172 641.632 166.552 640.391 165.312C639.151 164.071 638.531 162.387 638.531 160.261V110.552C638.531 108.484 639.151 106.83 640.391 105.59C641.632 104.349 643.286 103.729 645.353 103.729C647.421 103.729 649.045 104.349 650.227 105.59C651.467 106.83 652.088 108.484 652.088 110.552V129.425H680.885V110.552C680.885 108.484 681.476 106.83 682.657 105.59C683.898 104.349 685.552 103.729 687.619 103.729ZM748.891 167.438C742.688 167.438 737.283 166.139 732.675 163.539C728.127 160.881 724.612 157.16 722.131 152.375C719.65 147.531 718.409 141.86 718.409 135.362C718.409 128.864 719.65 123.223 722.131 118.438C724.612 113.594 728.127 109.872 732.675 107.273C737.283 104.674 742.688 103.374 748.891 103.374C755.093 103.374 760.469 104.674 765.017 107.273C769.625 109.872 773.169 113.594 775.65 118.438C778.131 123.223 779.372 128.864 779.372 135.362C779.372 141.86 778.131 147.531 775.65 152.375C773.169 157.16 769.625 160.881 765.017 163.539C760.469 166.139 755.093 167.438 748.891 167.438ZM748.891 156.717C754.089 156.717 758.165 154.885 761.119 151.223C764.131 147.56 765.638 142.273 765.638 135.362C765.638 128.451 764.161 123.193 761.207 119.59C758.254 115.927 754.148 114.096 748.891 114.096C743.633 114.096 739.528 115.927 736.574 119.59C733.68 123.193 732.232 128.451 732.232 135.362C732.232 142.273 733.709 147.56 736.663 151.223C739.616 154.885 743.692 156.717 748.891 156.717ZM829.711 167.438C820.968 167.438 814.293 165.193 809.686 160.704C805.137 156.155 802.863 149.539 802.863 140.856V110.552C802.863 108.484 803.483 106.83 804.723 105.59C805.964 104.349 807.618 103.729 809.686 103.729C811.753 103.729 813.378 104.349 814.559 105.59C815.799 106.83 816.42 108.484 816.42 110.552V141.476C816.42 146.438 817.542 150.219 819.787 152.818C822.091 155.417 825.399 156.717 829.711 156.717C834.023 156.717 837.331 155.417 839.635 152.818C841.939 150.16 843.091 146.379 843.091 141.476V110.552C843.091 108.484 843.682 106.83 844.863 105.59C846.103 104.349 847.757 103.729 849.825 103.729C851.893 103.729 853.547 104.349 854.787 105.59C856.028 106.83 856.648 108.484 856.648 110.552V140.856C856.648 149.48 854.344 156.067 849.736 160.615C845.129 165.164 838.454 167.438 829.711 167.438ZM904.519 167.438C899.852 167.438 895.511 166.906 891.494 165.843C887.477 164.721 884.198 163.155 881.658 161.147C880.772 160.497 880.122 159.818 879.709 159.109C879.354 158.341 879.177 157.396 879.177 156.273C879.177 154.797 879.62 153.497 880.506 152.375C881.451 151.252 882.515 150.691 883.696 150.691C884.346 150.691 884.966 150.809 885.557 151.046C886.207 151.223 886.975 151.577 887.861 152.109C890.401 153.704 892.97 154.885 895.57 155.653C898.169 156.362 901.034 156.717 904.165 156.717C908.063 156.717 911.046 156.067 913.114 154.767C915.182 153.468 916.215 151.607 916.215 149.185C916.215 147.354 915.241 145.877 913.291 144.754C911.401 143.632 908.004 142.569 903.101 141.565C897.608 140.442 893.207 139.083 889.899 137.489C886.65 135.894 884.257 133.915 882.721 131.552C881.245 129.189 880.506 126.324 880.506 122.957C880.506 119.235 881.57 115.898 883.696 112.944C885.882 109.931 888.865 107.598 892.646 105.944C896.485 104.231 900.797 103.374 905.582 103.374C913.971 103.374 920.882 105.471 926.317 109.666C927.203 110.374 927.823 111.113 928.177 111.881C928.591 112.59 928.798 113.476 928.798 114.539C928.798 116.016 928.325 117.315 927.38 118.438C926.494 119.56 925.46 120.121 924.279 120.121C923.629 120.121 923.009 120.033 922.418 119.856C921.886 119.678 921.118 119.294 920.114 118.704C917.692 117.168 915.447 116.016 913.38 115.248C911.371 114.48 908.802 114.096 905.671 114.096C902.068 114.096 899.232 114.805 897.165 116.223C895.097 117.581 894.063 119.472 894.063 121.894C894.063 123.311 894.447 124.493 895.215 125.438C896.042 126.324 897.371 127.121 899.203 127.83C901.093 128.539 903.751 129.278 907.177 130.045C915.211 131.818 920.971 134.092 924.456 136.868C928 139.645 929.772 143.455 929.772 148.299C929.772 152.079 928.709 155.417 926.582 158.311C924.515 161.206 921.561 163.451 917.722 165.046C913.941 166.641 909.54 167.438 904.519 167.438ZM959.489 166.641C957.421 166.641 955.826 166.079 954.704 164.957C953.581 163.835 953.02 162.24 953.02 160.172V110.64C953.02 108.573 953.581 106.978 954.704 105.855C955.826 104.733 957.421 104.172 959.489 104.172H990.856C995.227 104.172 997.413 105.944 997.413 109.488C997.413 113.092 995.227 114.893 990.856 114.893H966.489V129.514H989.084C993.455 129.514 995.641 131.316 995.641 134.919C995.641 138.463 993.455 140.235 989.084 140.235H966.489V155.919H990.856C995.227 155.919 997.413 157.721 997.413 161.324C997.413 164.868 995.227 166.641 990.856 166.641H959.489Z" fill="#4075FF"/>
<defs>
<linearGradient id="paint0_linear" x1="119.976" y1="38.4953" x2="203.746" y2="183.603" gradientUnits="userSpaceOnUse">
<stop stop-color="#4075FF"/>
<stop offset="1" stop-color="#4075FF" stop-opacity="0.5"/>
</linearGradient>
<linearGradient id="paint1_linear" x1="-4.52414e-07" y1="61.7837" x2="123.242" y2="61.7837" gradientUnits="userSpaceOnUse">
<stop stop-color="#FF512B" stop-opacity="0.5"/>
<stop offset="1" stop-color="#FF512B"/>
</linearGradient>
</defs>
</svg>
