<svg width="25" height="20" viewBox="0 0 25 20" fill="none" xmlns="http://www.w3.org/2000/svg">
    <path d="M1.52539 9.58398C1.22856 9.7819 1.22856 10.2181 1.52539 10.416L5.5 13.0654V6.93359L1.52539 9.58398Z" fill="#0064FF" stroke="#0064FF"/>
    <rect x="6" width="19" height="20" rx="3.68" fill="#0064FF"/>
    <!-- <path d="M15.915 15H14.8076V7.91797C14.8076 7.64909 14.8076 7.41895 14.8076 7.22754C14.8122 7.03158 14.8167 6.85384 14.8213 6.69434C14.8304 6.53027 14.8418 6.36393 14.8555 6.19531C14.7142 6.34115 14.582 6.46647 14.459 6.57129C14.3359 6.67155 14.1833 6.79688 14.001 6.94727L12.8594 7.86328L12.2646 7.09082L14.9717 5.00586H15.915V15Z" fill="white"/> -->
</svg>
