<svg width="24" height="24" viewBox="0 0 24 24" fill="none" xmlns="http://www.w3.org/2000/svg">
    <g clip-path="url(#clip0_15905_2090)">
        <path d="M9.43945 11.5999C9.43945 12.1728 9.66702 12.7222 10.0721 13.1273C10.4772 13.5324 11.0266 13.7599 11.5995 13.7599C12.1723 13.7599 12.7217 13.5324 13.1268 13.1273C13.5319 12.7222 13.7595 12.1728 13.7595 11.5999C13.7595 11.0271 13.5319 10.4777 13.1268 10.0726C12.7217 9.66751 12.1723 9.43994 11.5995 9.43994C11.0266 9.43994 10.4772 9.66751 10.0721 10.0726C9.66702 10.4777 9.43945 11.0271 9.43945 11.5999Z" fill="#AFB4D1" stroke="#787FA7" stroke-width="2.88" stroke-linecap="round" stroke-linejoin="round"/>
        <path d="M22.7992 11.9999C19.9192 16.7999 16.3192 19.1999 11.9992 19.1999C7.67922 19.1999 4.07922 16.7999 1.19922 11.9999C4.07922 7.19993 7.67922 4.79993 11.9992 4.79993C16.3192 4.79993 19.9192 7.19993 22.7992 11.9999Z" stroke="#787FA7" stroke-width="2.88" stroke-linecap="round" stroke-linejoin="round"/>
    </g>
    <defs>
        <clipPath id="clip0_15905_2090">
            <rect width="28.8" height="28.8" fill="white" transform="translate(-2.40039 -2.40002)"/>
        </clipPath>
    </defs>
</svg>
