<svg xmlns="http://www.w3.org/2000/svg" width="24" height="24" viewBox="0 0 24 24" fill="none">
    <g clip-path="url(#clip0_13546_728)">
        <path d="M9.43945 11.6C9.43945 12.1729 9.66702 12.7223 10.0721 13.1274C10.4772 13.5324 11.0266 13.76 11.5995 13.76C12.1723 13.76 12.7217 13.5324 13.1268 13.1274C13.5319 12.7223 13.7595 12.1729 13.7595 11.6C13.7595 11.0271 13.5319 10.4777 13.1268 10.0727C12.7217 9.66757 12.1723 9.44 11.5995 9.44C11.0266 9.44 10.4772 9.66757 10.0721 10.0727C9.66702 10.4777 9.43945 11.0271 9.43945 11.6Z" fill="#AFB4D1" stroke="#AFB4D1" stroke-width="2.88" stroke-linecap="round" stroke-linejoin="round"/>
        <path d="M22.7992 12C19.9192 16.8 16.3192 19.2 11.9992 19.2C7.67922 19.2 4.07922 16.8 1.19922 12C4.07922 7.19999 7.67922 4.79999 11.9992 4.79999C16.3192 4.79999 19.9192 7.19999 22.7992 12Z" stroke="#AFB4D1" stroke-width="2.88" stroke-linecap="round" stroke-linejoin="round"/>
    </g>
    <defs>
        <clipPath id="clip0_13546_728">
            <rect width="28.8" height="28.8" fill="white" transform="translate(-2.40039 -2.40002)"/>
        </clipPath>
    </defs>
</svg>