<svg width="313" height="394" viewBox="0 0 313 394" fill="none" xmlns="http://www.w3.org/2000/svg">
<rect x="-2.98023e-08" y="0.5" width="135.018" height="135.018" transform="matrix(0.866025 0.5 -0.866025 0.5 169.228 257.25)" stroke="#00003C"/>
<rect width="96.5628" height="96.5628" transform="matrix(0.866025 0.5 -0.866025 0.5 168.795 276.727)" fill="#00003C"/>
<path d="M162.028 317.583L153.575 322.464L170.481 332.224L178.934 327.344C183.59 324.656 183.59 320.271 178.934 317.583C174.279 314.895 166.684 314.895 162.028 317.583Z" fill="#0064FF"/>
<path d="M162.27 335.831L162.27 341.065L138.259 341.065L138.259 327.202L147.447 327.273L147.324 329.89L157.615 335.831L162.27 335.831Z" fill="white"/>
<path d="M200.25 319.139L191.185 319.139L191.062 316.522L180.771 310.581L176.361 310.581L176.239 305.276L200.25 305.276L200.25 319.139Z" fill="white"/>
<path d="M176.24 341.066L176.24 335.832L180.895 335.832L191.186 329.89L191.063 327.273L200.251 327.202L200.251 341.066L176.24 341.066Z" fill="white"/>
<path d="M162.268 307.964L162.146 310.581L157.735 310.581L147.445 316.522L147.322 319.139L142.912 319.139L138.257 319.139L138.257 305.276L162.268 305.276L162.268 307.964Z" fill="white"/>
<path d="M248.418 190.767V82.0096L207.864 53.7057C187.394 39.418 166.751 27.5506 146.282 18.3135L105.715 0L89.3394 9.54577L107.464 22.6233V107.757C107.464 107.757 105.244 177.159 178.81 257.254C188.275 257.834 196.475 257.131 203.596 255.5L202.38 259.44L216.784 250.993C218.024 250.326 219.215 249.622 220.369 248.894L220.567 248.77C249.622 230.062 248.418 190.767 248.418 190.767Z" fill="#00003C"/>
<path d="M176.986 34.0585C166.739 28.168 156.479 22.9074 146.269 18.3012L105.715 0L89.3394 9.54576L107.464 22.6233V74.0198L176.986 34.0708V34.0585Z" fill="#00003C"/>
<path d="M162.856 26.3651L128.678 46L156.827 62.1772L191.017 42.53C181.638 36.6148 172.235 31.2183 162.856 26.3528V26.3651Z" fill="#00003C"/>
<path d="M232.03 200.313C231.53 200.328 231.53 200.328 231.53 200.329L231.53 200.331L231.531 200.339L231.532 200.376C231.532 200.41 231.533 200.46 231.534 200.526C231.536 200.659 231.538 200.858 231.537 201.118C231.535 201.638 231.523 202.402 231.482 203.375C231.4 205.32 231.201 208.097 230.732 211.417C229.796 218.059 227.786 226.858 223.497 235.511C219.209 244.161 212.648 252.655 202.61 258.713C192.61 264.747 179.122 268.387 160.916 267.313C124.278 227.378 106.511 190.128 97.9015 162.865C93.5912 149.216 91.576 138.068 90.6381 130.338C90.1691 126.473 89.9695 123.463 89.8871 121.422C89.8459 120.401 89.8339 119.622 89.8322 119.101C89.8314 118.84 89.8331 118.643 89.8351 118.512C89.836 118.447 89.837 118.398 89.8378 118.365L89.8387 118.33L89.8389 118.321L89.839 118.319C89.839 118.319 89.839 118.319 89.4539 118.307L89.839 118.319L89.8392 118.311V118.303V10.32L129.7 28.3149L129.7 28.3149C150.139 37.5379 170.755 49.3894 191.202 63.6614L191.459 63.2933L191.202 63.6614L231.542 91.816V199.813H231.514L231.53 200.328L232.03 200.313Z" fill="#F5F5F5" stroke="#00003C"/>
<path d="M217.469 215.973C215.53 224.483 211.584 234.859 203.579 242.664H203.567L203.422 242.804C194.737 251.195 182.362 255.442 166.53 255.311C101.367 182.145 102.06 119.196 102.071 118.697H102.071V118.686V29.2016L124.651 39.3921C144.37 48.2939 164.403 59.8119 184.192 73.6148C184.192 73.6148 184.192 73.6148 184.192 73.6149L219.322 98.1388V200.683V200.695L219.323 200.707C219.323 200.706 219.323 200.707 219.323 200.711C219.323 200.72 219.324 200.745 219.324 200.788C219.325 200.843 219.325 200.924 219.325 201.027C219.324 201.235 219.32 201.535 219.31 201.92C219.289 202.689 219.239 203.795 219.129 205.164C218.909 207.903 218.444 211.697 217.469 215.973Z" fill="white" stroke="#00003C"/>
<mask id="path-13-inside-1_7_5" fill="white">
<path d="M200 160.847C200 160.733 200 160.62 200 160.487C200 160.373 200 160.259 199.981 160.127C199.981 160.013 199.961 159.88 199.942 159.767C199.942 159.653 199.904 159.52 199.884 159.407C199.884 159.293 199.846 159.179 199.827 159.066C199.807 158.933 199.769 158.819 199.75 158.687C199.73 158.554 199.692 158.44 199.653 158.308C199.615 158.175 199.595 158.042 199.557 157.929C199.538 157.834 199.499 157.72 199.461 157.625C199.461 157.625 199.461 157.625 199.461 157.606C199.461 157.587 199.461 157.569 199.461 157.55C199.422 157.417 199.384 157.303 199.345 157.171C199.306 157.038 199.268 156.924 199.21 156.792C199.172 156.678 199.114 156.545 199.075 156.431C199.037 156.318 198.979 156.204 198.921 156.071C198.883 155.977 198.844 155.901 198.806 155.806C198.806 155.806 198.806 155.806 198.806 155.787C198.806 155.768 198.806 155.749 198.786 155.73C198.728 155.617 198.671 155.503 198.632 155.37C198.574 155.238 198.517 155.105 198.44 154.991C198.362 154.84 198.285 154.707 198.208 154.555C198.131 154.404 198.035 154.252 197.939 154.101C197.939 154.082 197.9 154.044 197.9 154.025C197.9 153.987 197.862 153.968 197.842 153.93C197.669 153.646 197.476 153.343 197.303 153.077C197.149 152.85 196.995 152.641 196.841 152.414C196.725 152.262 196.629 152.13 196.513 151.997C196.417 151.883 196.32 151.77 196.224 151.656C196.128 151.542 196.031 151.429 195.935 151.334C195.839 151.22 195.742 151.125 195.646 151.012C195.646 150.993 195.608 150.974 195.588 150.955C195.588 150.955 195.588 150.955 195.569 150.936C195.492 150.86 195.415 150.784 195.338 150.708C195.242 150.614 195.126 150.5 195.03 150.405C194.914 150.31 194.818 150.197 194.702 150.102C194.587 150.007 194.49 149.913 194.375 149.818C194.317 149.78 194.259 149.723 194.201 149.685C194.201 149.685 194.182 149.666 194.163 149.647C194.124 149.609 194.086 149.571 194.028 149.552C193.912 149.477 193.816 149.382 193.7 149.306C193.585 149.23 193.488 149.155 193.373 149.079C193.276 149.003 193.161 148.946 193.065 148.87C192.968 148.813 192.853 148.738 192.756 148.681C192.737 148.681 192.699 148.662 192.679 148.643L117.545 105.966C117.545 105.966 117.391 105.872 117.314 105.834C117.218 105.777 117.102 105.72 117.006 105.682C116.91 105.625 116.813 105.587 116.698 105.55C116.582 105.512 116.505 105.455 116.409 105.417C116.313 105.379 116.216 105.341 116.101 105.303C116.081 105.303 116.062 105.303 116.043 105.303C116.043 105.303 116.043 105.303 116.024 105.303C115.946 105.284 115.869 105.246 115.812 105.227C115.715 105.19 115.6 105.171 115.503 105.152C115.407 105.133 115.291 105.095 115.195 105.076C115.08 105.057 114.983 105.038 114.868 105.019C114.791 105.019 114.714 105.019 114.656 105C114.656 105 114.636 105 114.617 105C114.598 105 114.559 105 114.54 105C114.425 105 114.309 105 114.193 105C114.059 105 113.943 105 113.808 105C113.654 105 113.519 105.038 113.384 105.057C113.211 105.095 113.057 105.133 112.883 105.19C112.671 105.265 112.479 105.36 112.286 105.455L92 117.034C92.3275 116.844 92.6935 116.711 93.0981 116.636C93.4834 116.56 93.9072 116.541 94.3503 116.579C94.3503 116.579 94.3696 116.579 94.3889 116.579C94.832 116.617 95.2751 116.711 95.7567 116.882C95.7567 116.882 95.7567 116.882 95.776 116.882C96.2576 117.052 96.7585 117.261 97.2786 117.564L172.374 160.203C172.875 160.487 173.376 160.828 173.838 161.207L173.877 161.245C174.339 161.624 174.801 162.041 175.225 162.496C175.225 162.496 175.225 162.496 175.244 162.515C176.111 163.424 176.901 164.485 177.556 165.604C177.556 165.622 177.595 165.66 177.595 165.679C177.922 166.229 178.211 166.797 178.462 167.366C178.462 167.366 178.462 167.366 178.462 167.385C178.731 167.972 178.943 168.579 179.136 169.166C179.136 169.166 179.136 169.166 179.136 169.185C179.329 169.792 179.463 170.379 179.56 170.985C179.656 171.592 179.714 172.179 179.714 172.748L179.54 230.319C179.54 230.888 179.483 231.399 179.386 231.892V231.93C179.29 232.404 179.155 232.84 178.963 233.219C178.963 233.219 178.963 233.219 178.963 233.238C178.808 233.56 178.616 233.825 178.404 234.09C178.327 234.166 178.269 234.261 178.192 234.337C177.941 234.602 177.691 234.829 177.383 235L197.65 223.421C197.958 223.251 198.208 223.023 198.459 222.758C198.536 222.682 198.594 222.587 198.671 222.512C198.767 222.398 198.863 222.303 198.94 222.189C199.037 222.038 199.133 221.867 199.21 221.697C199.21 221.697 199.21 221.697 199.21 221.678C199.21 221.678 199.21 221.678 199.21 221.659C199.268 221.545 199.326 221.413 199.364 221.299C199.403 221.166 199.461 221.052 199.499 220.92C199.538 220.806 199.576 220.673 199.595 220.541C199.595 220.484 199.615 220.427 199.634 220.389V220.351C199.634 220.294 199.653 220.257 199.672 220.2C199.692 220.086 199.711 219.972 199.73 219.859C199.73 219.745 199.75 219.631 199.769 219.499C199.769 219.385 199.769 219.271 199.788 219.157C199.788 219.044 199.788 218.93 199.788 218.797L199.961 161.207C199.961 161.093 199.961 160.98 199.961 160.885L200 160.847Z"/>
</mask>
<path d="M200 160.847C200 160.733 200 160.62 200 160.487C200 160.373 200 160.259 199.981 160.127C199.981 160.013 199.961 159.88 199.942 159.767C199.942 159.653 199.904 159.52 199.884 159.407C199.884 159.293 199.846 159.179 199.827 159.066C199.807 158.933 199.769 158.819 199.75 158.687C199.73 158.554 199.692 158.44 199.653 158.308C199.615 158.175 199.595 158.042 199.557 157.929C199.538 157.834 199.499 157.72 199.461 157.625C199.461 157.625 199.461 157.625 199.461 157.606C199.461 157.587 199.461 157.569 199.461 157.55C199.422 157.417 199.384 157.303 199.345 157.171C199.306 157.038 199.268 156.924 199.21 156.792C199.172 156.678 199.114 156.545 199.075 156.431C199.037 156.318 198.979 156.204 198.921 156.071C198.883 155.977 198.844 155.901 198.806 155.806C198.806 155.806 198.806 155.806 198.806 155.787C198.806 155.768 198.806 155.749 198.786 155.73C198.728 155.617 198.671 155.503 198.632 155.37C198.574 155.238 198.517 155.105 198.44 154.991C198.362 154.84 198.285 154.707 198.208 154.555C198.131 154.404 198.035 154.252 197.939 154.101C197.939 154.082 197.9 154.044 197.9 154.025C197.9 153.987 197.862 153.968 197.842 153.93C197.669 153.646 197.476 153.343 197.303 153.077C197.149 152.85 196.995 152.641 196.841 152.414C196.725 152.262 196.629 152.13 196.513 151.997C196.417 151.883 196.32 151.77 196.224 151.656C196.128 151.542 196.031 151.429 195.935 151.334C195.839 151.22 195.742 151.125 195.646 151.012C195.646 150.993 195.608 150.974 195.588 150.955C195.588 150.955 195.588 150.955 195.569 150.936C195.492 150.86 195.415 150.784 195.338 150.708C195.242 150.614 195.126 150.5 195.03 150.405C194.914 150.31 194.818 150.197 194.702 150.102C194.587 150.007 194.49 149.913 194.375 149.818C194.317 149.78 194.259 149.723 194.201 149.685C194.201 149.685 194.182 149.666 194.163 149.647C194.124 149.609 194.086 149.571 194.028 149.552C193.912 149.477 193.816 149.382 193.7 149.306C193.585 149.23 193.488 149.155 193.373 149.079C193.276 149.003 193.161 148.946 193.065 148.87C192.968 148.813 192.853 148.738 192.756 148.681C192.737 148.681 192.699 148.662 192.679 148.643L117.545 105.966C117.545 105.966 117.391 105.872 117.314 105.834C117.218 105.777 117.102 105.72 117.006 105.682C116.91 105.625 116.813 105.587 116.698 105.55C116.582 105.512 116.505 105.455 116.409 105.417C116.313 105.379 116.216 105.341 116.101 105.303C116.081 105.303 116.062 105.303 116.043 105.303C116.043 105.303 116.043 105.303 116.024 105.303C115.946 105.284 115.869 105.246 115.812 105.227C115.715 105.19 115.6 105.171 115.503 105.152C115.407 105.133 115.291 105.095 115.195 105.076C115.08 105.057 114.983 105.038 114.868 105.019C114.791 105.019 114.714 105.019 114.656 105C114.656 105 114.636 105 114.617 105C114.598 105 114.559 105 114.54 105C114.425 105 114.309 105 114.193 105C114.059 105 113.943 105 113.808 105C113.654 105 113.519 105.038 113.384 105.057C113.211 105.095 113.057 105.133 112.883 105.19C112.671 105.265 112.479 105.36 112.286 105.455L92 117.034C92.3275 116.844 92.6935 116.711 93.0981 116.636C93.4834 116.56 93.9072 116.541 94.3503 116.579C94.3503 116.579 94.3696 116.579 94.3889 116.579C94.832 116.617 95.2751 116.711 95.7567 116.882C95.7567 116.882 95.7567 116.882 95.776 116.882C96.2576 117.052 96.7585 117.261 97.2786 117.564L172.374 160.203C172.875 160.487 173.376 160.828 173.838 161.207L173.877 161.245C174.339 161.624 174.801 162.041 175.225 162.496C175.225 162.496 175.225 162.496 175.244 162.515C176.111 163.424 176.901 164.485 177.556 165.604C177.556 165.622 177.595 165.66 177.595 165.679C177.922 166.229 178.211 166.797 178.462 167.366C178.462 167.366 178.462 167.366 178.462 167.385C178.731 167.972 178.943 168.579 179.136 169.166C179.136 169.166 179.136 169.166 179.136 169.185C179.329 169.792 179.463 170.379 179.56 170.985C179.656 171.592 179.714 172.179 179.714 172.748L179.54 230.319C179.54 230.888 179.483 231.399 179.386 231.892V231.93C179.29 232.404 179.155 232.84 178.963 233.219C178.963 233.219 178.963 233.219 178.963 233.238C178.808 233.56 178.616 233.825 178.404 234.09C178.327 234.166 178.269 234.261 178.192 234.337C177.941 234.602 177.691 234.829 177.383 235L197.65 223.421C197.958 223.251 198.208 223.023 198.459 222.758C198.536 222.682 198.594 222.587 198.671 222.512C198.767 222.398 198.863 222.303 198.94 222.189C199.037 222.038 199.133 221.867 199.21 221.697C199.21 221.697 199.21 221.697 199.21 221.678C199.21 221.678 199.21 221.678 199.21 221.659C199.268 221.545 199.326 221.413 199.364 221.299C199.403 221.166 199.461 221.052 199.499 220.92C199.538 220.806 199.576 220.673 199.595 220.541C199.595 220.484 199.615 220.427 199.634 220.389V220.351C199.634 220.294 199.653 220.257 199.672 220.2C199.692 220.086 199.711 219.972 199.73 219.859C199.73 219.745 199.75 219.631 199.769 219.499C199.769 219.385 199.769 219.271 199.788 219.157C199.788 219.044 199.788 218.93 199.788 218.797L199.961 161.207C199.961 161.093 199.961 160.98 199.961 160.885L200 160.847Z" fill="#0064FF" stroke="#00003C" stroke-width="2" mask="url(#path-13-inside-1_7_5)"/>
<path d="M173.057 160.199L173.061 160.193C174.991 161.311 176.765 163.223 178.057 165.435C179.354 167.657 180.138 170.135 180.129 172.342V172.343L179.956 230.073V230.074C179.956 232.283 179.171 233.701 178.044 234.337C176.913 234.976 175.264 234.928 173.323 233.82L98.6103 191.065C96.662 189.95 94.8787 188.027 93.5815 185.803C92.2843 183.579 91.5002 181.1 91.5 178.901C91.5 178.901 91.5 178.9 91.5 178.9L91.6725 121.172V121.17C91.6725 118.961 92.4581 117.544 93.5864 116.91C94.7184 116.274 96.3723 116.325 98.3245 117.443L98.3246 117.443L135.691 138.821L173.057 160.199Z" fill="white" stroke="#00003C"/>
<path d="M133.627 156.967C138.187 159.567 141.883 165.852 141.867 171.004C141.867 173.871 140.699 175.746 138.891 176.439L138.843 191.105C138.843 194.414 136.443 195.753 133.515 194.083C130.587 192.413 128.219 188.38 128.219 185.056L128.267 170.389C126.475 167.664 125.323 164.466 125.339 161.599C125.339 156.448 129.067 154.368 133.627 156.952V156.967Z" fill="#00003C"/>
<path d="M128.475 85.6956L128.481 85.6796C128.513 85.6002 128.539 85.5177 128.549 85.4639L128.555 85.4337L128.565 85.4045C128.735 84.8864 128.93 84.3499 129.169 83.8648C129.167 83.8694 129.167 83.8706 129.168 83.8667C129.17 83.8632 129.172 83.8573 129.175 83.8486C129.182 83.83 129.189 83.8083 129.199 83.7785L129.208 83.7519L129.219 83.7265C129.467 83.1843 129.754 82.659 130.063 82.1875C130.098 82.1222 130.136 82.0707 130.161 82.0372L130.182 82.0104L130.197 81.991C130.203 81.9831 130.206 81.9792 130.207 81.9778C130.352 81.7508 130.504 81.537 130.662 81.333L125.748 83.9342C125.655 83.9948 125.533 84.144 125.346 84.4152C125.329 84.439 125.312 84.4642 125.294 84.4904C125.144 84.7093 124.944 85.0026 124.716 85.1891L124.551 85.3281L124.386 85.4676C124.145 85.6773 123.899 85.9263 123.665 86.1819L123.659 86.1887L123.652 86.1953C123.605 86.2431 123.561 86.2919 123.509 86.3497L123.506 86.3527C123.459 86.4043 123.406 86.4634 123.347 86.5239C123.09 86.8204 122.845 87.1562 122.612 87.5018C122.589 87.5363 122.563 87.5738 122.542 87.6036L122.539 87.6069C122.52 87.6351 122.504 87.6574 122.492 87.6756C122.483 87.6896 122.471 87.7087 122.456 87.7297C122.446 87.7433 122.429 87.7645 122.406 87.7884C122.172 88.1577 121.954 88.5534 121.763 88.9756V88.9872L121.738 89.0633C121.725 89.1056 121.711 89.1407 121.702 89.1638L121.701 89.1662C121.691 89.1905 121.687 89.2017 121.683 89.2145L121.673 89.2423L121.661 89.2689C121.52 89.5725 121.395 89.8788 121.268 90.2093L121.188 90.4529L121.104 90.7082L121.1 90.722L121.095 90.7355C121.063 90.8149 121.037 90.8974 121.027 90.9513L121.018 90.9958L121.001 91.038C120.992 91.0615 120.984 91.0878 120.969 91.1382L120.967 91.1437C120.956 91.1818 120.94 91.2357 120.919 91.2934C120.83 91.6181 120.744 91.9527 120.674 92.2842C120.662 92.3644 120.646 92.4367 120.633 92.4911L120.632 92.4969C120.62 92.5501 120.612 92.5879 120.606 92.6234C120.6 92.712 120.58 92.7881 120.569 92.83C120.556 92.8768 120.55 92.8937 120.547 92.9055C120.545 92.9109 120.544 92.9153 120.542 92.9209C120.53 92.996 120.515 93.0635 120.503 93.1151L120.502 93.1208C120.487 93.1848 120.478 93.2264 120.472 93.2687L120.471 93.2767L120.469 93.2847C120.413 93.6072 120.36 93.9127 120.325 94.2339C120.307 94.4111 120.29 94.5913 120.272 94.7562C120.272 94.8007 120.27 94.8863 120.253 94.9781C120.252 95.0433 120.248 95.1271 120.232 95.2246L120.206 95.6763L120.178 96.1442C120.178 96.3049 120.174 96.4687 120.169 96.627L120.169 96.6373C120.164 96.806 120.16 96.9694 120.16 97.1315V97.1316V97.1317V97.1319V97.132V97.1321V97.1322V97.1323V97.1324V97.1325V97.1326V97.1327V97.1329V97.133V97.1331V97.1332V97.1333V97.1334V97.1335V97.1336V97.1337V97.1338V97.134V97.1341V97.1342V97.1343V97.1344V97.1345V97.1346V97.1347V97.1348V97.135V97.1351V97.1352V97.1353V97.1354V97.1355V97.1356V97.1357V97.1358V97.136V97.1361V97.1362V97.1363V97.1364V97.1365V97.1366V97.1367V97.1368V97.1369V97.1371V97.1372V97.1373V97.1374V97.1375V97.1376V97.1377V97.1378V97.1379V97.1381V97.1382V97.1383V97.1384V97.1385V97.1386V97.1387V97.1388V97.1389V97.1391V97.1392V97.1393V97.1394V97.1395V97.1396V97.1397V97.1398V97.1399V97.1401V97.1402V97.1403V97.1404V97.1405V97.1406V97.1407V97.1408V97.1409V97.141V97.1412V97.1413V97.1414V97.1415V97.1416V97.1417V97.1418V97.1419V97.142V97.1422V97.1423V97.1424V97.1425V97.1426V97.1427V97.1428V97.1429V97.143V97.1432V97.1433V97.1434V97.1435V97.1436V97.1437V97.1438V97.1439V97.144V97.1441V97.1443V97.1444V97.1445V97.1446V97.1447V97.1448V97.1449V97.145V97.1451V97.1453V97.1454V97.1455V97.1456V97.1457V97.1458V97.1459V97.146V97.1461V97.1463V97.1464V97.1465V97.1466V97.1467V97.1468V97.1469V97.147V97.1471V97.1473V97.1474V97.1475V97.1476V97.1477V97.1478V97.1479V97.148V97.1481V97.1483V97.1484V97.1485V97.1486V97.1487V97.1488V97.1489V97.149V97.1491V97.1492V97.1494V97.1495V97.1496V97.1497V97.1498V97.1499V97.15V97.1501V97.1502V97.1504V97.1505V97.1506V97.1507V97.1508V97.1509V97.151V97.1511V97.1512V97.1514V97.1515V97.1516V97.1517V97.1518V97.1519V97.152V97.1521V97.1522V97.1523V97.1525V97.1526V97.1527V97.1528V97.1529V97.153V97.1531V97.1532V97.1533V97.1535V97.1536V97.1537V97.1538V97.1539V97.154V97.1541V97.1542V97.1543V97.1545V97.1546V97.1547V97.1548V97.1549V97.155V97.1551V97.1552V97.1553V97.1555V97.1556V97.1557V97.1558V97.1559V97.156V97.1561V97.1562V97.1563V97.1564V97.1566V97.1567V97.1568V97.1569V97.157V97.1571V97.1572V97.1573V97.1574V97.1576V97.1577V97.1578V97.1579V97.158V97.1581V97.1582V97.1583V97.1584V97.1586V97.1587V97.1588V97.1589V97.159V97.1591V97.1592V97.1593V97.1594V97.1595V97.1597V97.1598V97.1599V97.16V97.1601V97.1602V97.1603V97.1604V97.1605V97.1607V97.1608V97.1609V97.161V97.1611V97.1612V97.1613V97.1614V97.1615V97.1617V97.1618V97.1619V97.162V97.1621V97.1622V97.1623V97.1624V97.1625V97.1627V97.1628V97.1629V97.163V97.1631V97.1632V97.1633V97.1634V97.1635V97.1636V97.1638V97.1639V97.164V97.1641V97.1642V97.1643V97.1644V97.1645V97.1646V97.1648V97.1649V97.165V97.1651V97.1652V97.1653V97.1654V97.1655V97.1656V97.1658V97.1659V97.166V97.1661V97.1662V97.1663V97.1664V97.1665V97.1666V97.1668V97.1669V97.167V97.1671V97.1672V97.1673V97.1674V97.1675V97.1676V97.1677V97.1679V97.168V97.1681V97.1682V97.1683V97.1684V97.1685V97.1686V97.1687V97.1689V97.169V97.1691V97.1692V97.1693V97.1694V97.1695V97.1696V97.1697V97.1699V97.17V97.1701V97.1702V97.1703V97.1704V97.1705V97.1706V97.1707V97.1709V97.171V97.1711V97.1712V97.1713V97.1714V97.1715V97.1716V97.1717V97.1718V97.172V97.1721V97.1722V97.1723V97.1724V97.1725V97.1726V97.1727V97.1728V97.173V97.1731V97.1732V97.1733V97.1734V97.1735V97.1736V97.1737V97.1738V97.174V97.1741V97.1742V97.1743V97.1744V97.1745V97.1746V97.1747V97.1748V97.1749V97.1751V97.1752V97.1753V97.1754V97.1755V97.1756V97.1757V97.1758V97.1759V97.1761V97.1762V97.1763V97.1764V97.1765V97.1766V97.1767V97.1768V97.1769V97.1771V97.1772V97.1773V97.1774V97.1775V97.1776V97.1777V97.1778V97.1779V97.1781V97.1782V97.1783V97.1784V97.1785V97.1786V97.1787V97.1788V97.1789V97.179V97.1792V97.1793V97.1794V97.1795V97.1796V97.1797V97.1798V97.1799V97.18V97.1802V97.1803V97.1804V97.1805V97.1806V97.1807V97.1808V97.1809V97.181V97.1812V97.1813V97.1814V97.1815V97.1816V97.1817V97.1818V97.1819V97.182V97.1821V97.1823V97.1824V97.1825V97.1826V97.1827V97.1828V97.1829V97.183V97.1831V97.1833V97.1834V97.1835V97.1836V97.1837V97.1838V97.1839V97.184V97.1841V97.1843V97.1844V97.1845V97.1846V97.1847V97.1848V97.1849V97.185V97.1851V97.1853V97.1854V97.1855V97.1856V97.1857V97.1858V97.1859V97.186V97.1861V97.1863V97.1864V97.1865V97.1866V97.1867V97.1868V97.1869V97.187V97.1871V97.1872V97.1874V97.1875V97.1876V97.1877V97.1878V97.1879V97.188V97.1881V97.1882V97.1898L120.085 121.464C120.085 121.465 120.085 121.465 120.085 121.465C120.085 121.908 120.049 122.322 119.973 122.706V122.745L119.963 122.795C119.928 122.963 119.888 123.129 119.839 123.292L126.174 119.597C126.175 119.597 126.175 119.597 126.176 119.597C126.343 119.497 126.493 119.364 126.67 119.185C126.667 119.188 126.666 119.19 126.668 119.187C126.67 119.184 126.677 119.175 126.692 119.153L126.696 119.148C126.713 119.123 126.747 119.074 126.792 119.025C126.828 118.978 126.864 118.936 126.893 118.904L126.893 118.903C126.925 118.867 126.95 118.838 126.974 118.808C127.031 118.72 127.084 118.624 127.122 118.533L127.176 118.398L127.232 118.256C127.273 118.152 127.291 118.101 127.3 118.059C127.314 117.988 127.333 117.922 127.346 117.878L127.348 117.872C127.356 117.846 127.362 117.826 127.366 117.811C127.368 117.777 127.372 117.733 127.384 117.684C127.384 117.645 127.389 117.583 127.408 117.511C127.414 117.451 127.425 117.402 127.431 117.375L127.432 117.368C127.437 117.349 127.439 117.338 127.44 117.334C127.44 117.263 127.447 117.2 127.451 117.161L127.452 117.156C127.457 117.111 127.458 117.094 127.458 117.078L128.475 85.6956ZM128.475 85.6956L128.47 85.712M128.475 85.6956L128.47 85.712M128.47 85.712C128.295 86.2624 128.161 86.8664 128.032 87.444L128.031 87.4508L128.47 85.712ZM127.458 116.814V116.813V116.814ZM127.458 116.814V116.815M127.458 116.814V116.815M127.458 116.815V116.815M127.458 116.815V116.815M127.458 116.815V116.816M127.458 116.815V116.816M127.458 116.816V116.816M127.458 116.816V116.816M127.458 116.816V116.817M127.458 116.816V116.817M127.458 116.817V116.817M127.458 116.817V116.817M127.458 116.817V116.818M127.458 116.817V116.818M127.458 116.818V116.818M127.458 116.818V116.818M127.458 116.818V116.819M127.458 116.818V116.819M127.458 116.819V116.819M127.458 116.819V116.819M127.458 116.819V116.82M127.458 116.819V116.82M127.458 116.82V116.821M127.458 116.82V116.821M127.458 116.821V116.821M127.458 116.821V116.821M127.458 116.821V116.822M127.458 116.821V116.822M127.458 116.822V116.822M127.458 116.822V116.822M127.458 116.822V116.823M127.458 116.822V116.823M127.458 116.823V116.823M127.458 116.823V116.823M127.458 116.823V116.824M127.458 116.823V116.824M127.458 116.824V116.824M127.458 116.824V116.824M127.458 116.824V116.825M127.458 116.824V116.825M127.458 116.825V116.825M127.458 116.825V116.825M127.458 116.825V116.826M127.458 116.825V116.826M127.458 116.826V116.827M127.458 116.826V116.827M127.458 116.827V116.827M127.458 116.827V116.827M127.458 116.827V116.828M127.458 116.827V116.828M127.458 116.828V116.828M127.458 116.828V116.828M127.458 116.828V116.829M127.458 116.828V116.829M127.458 116.829V116.829M127.458 116.829V116.829M127.458 116.829V116.83M127.458 116.829V116.83M127.458 116.83V116.83M127.458 116.83V116.83M127.458 116.83V116.831M127.458 116.83V116.831M127.458 116.831V116.831M127.458 116.831V116.831M127.458 116.831V116.832M127.458 116.831V116.832M127.458 116.832V116.833M127.458 116.832V116.833M127.458 116.833V116.833M127.458 116.833V116.833M127.458 116.833V116.834M127.458 116.833V116.834M127.458 116.834V116.834M127.458 116.834V116.834M127.458 116.834V116.835M127.458 116.834V116.835M127.458 116.835V116.835M127.458 116.835V116.835M127.458 116.835V116.836M127.458 116.835V116.836M127.458 116.836V116.836M127.458 116.836V116.836M127.458 116.836V116.837M127.458 116.836V116.837M127.458 116.837V116.837V116.837ZM118.675 124.409C118.674 124.411 118.673 124.412 118.671 124.414C118.648 124.447 118.625 124.48 118.597 124.508C118.519 124.588 118.572 124.581 118.643 124.554C118.672 124.543 118.705 124.528 118.733 124.515L118.675 124.409ZM127.458 116.547V116.549H127.958L127.458 116.547Z" fill="#0064FF" stroke="#00003C"/>
<mask id="path-17-inside-2_7_5" fill="white">
<path d="M181.962 120.378C181.962 119.862 181.924 119.346 181.886 118.829C181.886 118.6 181.848 118.351 181.829 118.102C181.829 118.007 181.829 117.892 181.81 117.796C181.81 117.624 181.791 117.433 181.772 117.261C181.715 116.744 181.658 116.209 181.601 115.692C181.525 115.157 181.449 114.621 181.373 114.085C181.373 114.066 181.373 114.047 181.373 114.028C181.373 114.009 181.373 113.971 181.373 113.951C181.297 113.454 181.202 112.957 181.126 112.459C181.031 111.905 180.917 111.35 180.784 110.795C180.746 110.585 180.689 110.394 180.651 110.183C180.632 110.068 180.594 109.954 180.575 109.839C180.518 109.609 180.461 109.361 180.404 109.131C180.271 108.557 180.119 108.003 179.967 107.429C179.853 107.008 179.72 106.587 179.606 106.166C179.587 106.09 179.568 106.013 179.549 105.937C179.53 105.86 179.511 105.803 179.492 105.726C179.321 105.172 179.15 104.617 178.96 104.062C178.77 103.508 178.58 102.972 178.39 102.417C178.352 102.303 178.314 102.207 178.276 102.092C178.238 102.016 178.219 101.92 178.181 101.843C178.067 101.518 177.934 101.174 177.801 100.849C177.592 100.332 177.383 99.8159 177.174 99.2803C177.022 98.8978 176.851 98.5152 176.68 98.1327C176.661 98.0753 176.623 97.9988 176.604 97.9414C176.566 97.8649 176.547 97.8075 176.509 97.731C176.281 97.2145 176.053 96.6981 175.806 96.1816C175.54 95.6078 175.274 95.0531 174.989 94.4792C174.951 94.3836 174.894 94.3071 174.856 94.2114C174.799 94.0967 174.742 93.9819 174.685 93.8863C174.457 93.4463 174.229 92.9872 174.002 92.5473C173.698 91.9926 173.394 91.4379 173.071 90.8832C172.919 90.5963 172.767 90.3285 172.596 90.0415C172.539 89.9268 172.482 89.812 172.406 89.7164C172.121 89.2382 171.817 88.7791 171.532 88.32C171.114 87.6314 170.696 86.9237 170.24 86.2542C170.164 86.1395 170.107 86.0247 170.031 85.929C169.385 84.9726 168.739 84.0354 168.055 83.0981C168.055 83.079 168.017 83.0407 167.998 83.0216C167.542 82.3904 167.067 81.7592 166.573 81.1471C166.193 80.6497 165.813 80.1715 165.414 79.7125C165.414 79.7125 165.395 79.6742 165.376 79.6551C165.376 79.6551 165.376 79.636 165.357 79.6168C164.958 79.1195 164.54 78.6413 164.122 78.1631C163.723 77.704 163.305 77.2258 162.887 76.7859C162.83 76.7094 162.754 76.652 162.697 76.5755C162.621 76.499 162.564 76.4225 162.488 76.3459C162.184 76.0208 161.899 75.7147 161.595 75.4087C161.158 74.9496 160.702 74.5097 160.246 74.0697C160.113 73.9358 159.98 73.8211 159.847 73.6872C159.733 73.5915 159.638 73.4959 159.524 73.4002C159.296 73.1898 159.068 72.9794 158.84 72.769C158.366 72.3482 157.91 71.9274 157.435 71.5257C157.226 71.3536 157.017 71.1814 156.827 71.0284C156.713 70.9327 156.618 70.8562 156.504 70.7606C156.352 70.6267 156.181 70.4928 156.029 70.3589C155.573 69.9955 155.098 69.632 154.642 69.2877C154.3 69.0391 153.977 68.8095 153.635 68.5609C153.578 68.5226 153.502 68.4652 153.445 68.427C153.388 68.3887 153.331 68.3313 153.255 68.2931C152.799 67.987 152.362 67.681 151.906 67.3941C151.469 67.1072 151.013 66.8394 150.557 66.5716C150.462 66.5142 150.348 66.4568 150.253 66.3803C149.911 66.189 149.588 65.9977 149.246 65.8065C149.113 65.7299 148.98 65.6726 148.866 65.5961C148.695 65.5004 148.524 65.4239 148.353 65.3283C148.22 65.2517 148.087 65.1944 147.954 65.1179C147.745 65.0031 147.517 64.9074 147.308 64.8118C147.156 64.7353 147.004 64.6588 146.852 64.6014C146.795 64.5823 146.738 64.544 146.662 64.5058C146.244 64.3145 145.807 64.1232 145.389 63.9702C145.37 63.9702 145.351 63.9702 145.332 63.951C144.933 63.7789 144.515 63.6259 144.116 63.492C144.059 63.4729 144.002 63.4537 143.945 63.4346C143.793 63.3772 143.641 63.339 143.47 63.2816C143.261 63.2051 143.052 63.1285 142.843 63.0712C142.729 63.0329 142.634 63.0138 142.521 62.9755C142.331 62.9181 142.141 62.8608 141.951 62.8225C141.818 62.7842 141.666 62.746 141.533 62.7077C141.381 62.6695 141.229 62.6312 141.077 62.6121C140.887 62.5738 140.697 62.5165 140.507 62.4782C140.412 62.4591 140.317 62.4399 140.222 62.4208C140.051 62.3826 139.861 62.3634 139.69 62.3252C139.481 62.2869 139.253 62.2487 139.044 62.2104C138.968 62.2104 138.892 62.1913 138.816 62.1722C138.626 62.153 138.455 62.1339 138.284 62.1148C138.056 62.0956 137.828 62.0574 137.6 62.0383C137.543 62.0383 137.467 62.0383 137.41 62.0191C137.258 62.0191 137.106 62.0191 136.954 62.0191C136.688 62.0191 136.403 62 136.137 62C136.061 62 135.985 62 135.909 62C135.795 62 135.681 62 135.567 62C135.225 62 134.883 62.0191 134.56 62.0574C134.465 62.0574 134.351 62.0574 134.256 62.0574C134.18 62.0574 134.104 62.0765 134.028 62.0956C133.534 62.153 133.04 62.2104 132.546 62.306C132.508 62.306 132.451 62.306 132.413 62.3252C132.413 62.3252 132.413 62.3252 132.394 62.3252C131.691 62.4591 131.026 62.6695 130.361 62.8799C130.304 62.899 130.247 62.9181 130.171 62.9373C130.114 62.9373 130.076 62.9755 130.038 62.9947C129.753 63.1094 129.468 63.2242 129.183 63.339C129.05 63.3963 128.917 63.4537 128.784 63.5111C128.385 63.7024 127.986 63.9128 127.587 64.1423L119 69.173C119.38 68.9434 119.779 68.733 120.197 68.5418C120.33 68.4844 120.463 68.427 120.596 68.3696C120.881 68.2548 121.147 68.1209 121.432 68.0253C121.546 67.987 121.641 67.9488 121.755 67.9105C122.42 67.681 123.085 67.4897 123.788 67.3558C123.845 67.3558 123.902 67.3558 123.959 67.3367C124.453 67.2411 124.947 67.1645 125.441 67.1263C125.612 67.1263 125.783 67.088 125.954 67.088C126.277 67.0689 126.619 67.0498 126.96 67.0498C127.15 67.0498 127.34 67.0498 127.53 67.0498C127.796 67.0498 128.062 67.0498 128.347 67.0689C128.575 67.0689 128.784 67.0689 129.012 67.1072C129.24 67.1072 129.468 67.1454 129.696 67.1837C129.943 67.2028 130.209 67.2411 130.456 67.2793C130.665 67.3176 130.893 67.3558 131.102 67.3941C131.368 67.4323 131.653 67.4897 131.919 67.5471C132.109 67.5854 132.299 67.6236 132.489 67.681C132.774 67.7575 133.078 67.8149 133.363 67.8914C133.553 67.9488 133.743 67.987 133.933 68.0444C134.256 68.1401 134.579 68.2357 134.902 68.3505C135.054 68.4079 135.206 68.4461 135.358 68.5035C135.814 68.6565 136.289 68.8287 136.745 69.02C136.764 69.02 136.783 69.02 136.802 69.0391C137.277 69.2304 137.771 69.4408 138.265 69.6703C138.417 69.7468 138.569 69.8233 138.721 69.8807C139.063 70.0529 139.424 70.225 139.766 70.3972C139.937 70.4928 140.108 70.5693 140.279 70.665C140.735 70.9136 141.21 71.1623 141.666 71.4301C142.748 72.0613 143.793 72.7308 144.857 73.4768C144.914 73.515 144.99 73.5724 145.047 73.6107C146.016 74.2993 146.985 75.0261 147.935 75.7912C148.049 75.8869 148.144 75.9634 148.258 76.059C149.17 76.8241 150.082 77.6084 150.975 78.45C151.07 78.5457 151.184 78.6413 151.279 78.7369C152.172 79.5977 153.065 80.4776 153.939 81.3957C154.015 81.4722 154.072 81.5487 154.148 81.6253C155.06 82.6199 155.972 83.6337 156.846 84.7049C156.846 84.7049 156.865 84.7431 156.884 84.7622C157.777 85.8334 158.631 86.962 159.467 88.0905C159.486 88.1288 159.505 88.1479 159.524 88.1861C160.265 89.219 160.987 90.2711 161.69 91.3231C162.127 91.9926 162.545 92.7003 162.982 93.3889C163.343 93.9628 163.704 94.5366 164.046 95.1296C164.198 95.3974 164.35 95.6843 164.521 95.9712C165.072 96.9659 165.623 97.9605 166.136 98.9552C166.193 99.0699 166.25 99.1656 166.307 99.2803C166.915 100.505 167.504 101.748 168.055 103.01C168.074 103.068 168.112 103.125 168.131 103.202C168.663 104.426 169.157 105.669 169.613 106.912C169.651 106.989 169.67 107.085 169.708 107.161C170.164 108.423 170.601 109.705 170.981 110.987C171 111.063 171.019 111.14 171.038 111.197C171.399 112.421 171.722 113.665 172.026 114.889C172.045 115.003 172.083 115.118 172.102 115.233C172.387 116.495 172.634 117.758 172.843 119.001C172.843 119.02 172.843 119.059 172.843 119.078C173.052 120.34 173.185 121.603 173.299 122.846C173.299 122.942 173.299 123.056 173.318 123.152C173.413 124.395 173.47 125.639 173.47 126.863L173.394 151.423C173.394 151.863 173.356 152.265 173.28 152.628C173.28 152.628 173.28 152.647 173.28 152.666C173.204 153.03 173.109 153.355 172.957 153.661C172.843 153.91 172.691 154.12 172.539 154.311C172.482 154.369 172.444 154.445 172.387 154.503C172.197 154.694 172.007 154.885 171.779 155L180.366 149.969C180.594 149.835 180.784 149.663 180.974 149.472C181.031 149.415 181.069 149.338 181.126 149.281C181.183 149.204 181.259 149.128 181.335 149.032C181.411 148.917 181.487 148.783 181.544 148.65C181.582 148.554 181.62 148.458 181.658 148.363C181.696 148.267 181.734 148.171 181.753 148.076C181.772 147.98 181.81 147.884 181.829 147.789C181.829 147.751 181.829 147.712 181.848 147.674C181.848 147.674 181.848 147.655 181.848 147.636C181.848 147.597 181.848 147.559 181.867 147.521C181.867 147.425 181.905 147.349 181.905 147.253C181.905 147.158 181.924 147.081 181.924 146.985C181.924 146.89 181.924 146.813 181.924 146.718C181.924 146.622 181.924 146.545 181.924 146.45L182 121.87C182 121.392 182 120.914 181.981 120.436L181.962 120.378Z"/>
</mask>
<path d="M181.962 120.378C181.962 119.862 181.924 119.346 181.886 118.829C181.886 118.6 181.848 118.351 181.829 118.102C181.829 118.007 181.829 117.892 181.81 117.796C181.81 117.624 181.791 117.433 181.772 117.261C181.715 116.744 181.658 116.209 181.601 115.692C181.525 115.157 181.449 114.621 181.373 114.085C181.373 114.066 181.373 114.047 181.373 114.028C181.373 114.009 181.373 113.971 181.373 113.951C181.297 113.454 181.202 112.957 181.126 112.459C181.031 111.905 180.917 111.35 180.784 110.795C180.746 110.585 180.689 110.394 180.651 110.183C180.632 110.068 180.594 109.954 180.575 109.839C180.518 109.609 180.461 109.361 180.404 109.131C180.271 108.557 180.119 108.003 179.967 107.429C179.853 107.008 179.72 106.587 179.606 106.166C179.587 106.09 179.568 106.013 179.549 105.937C179.53 105.86 179.511 105.803 179.492 105.726C179.321 105.172 179.15 104.617 178.96 104.062C178.77 103.508 178.58 102.972 178.39 102.417C178.352 102.303 178.314 102.207 178.276 102.092C178.238 102.016 178.219 101.92 178.181 101.843C178.067 101.518 177.934 101.174 177.801 100.849C177.592 100.332 177.383 99.8159 177.174 99.2803C177.022 98.8978 176.851 98.5152 176.68 98.1327C176.661 98.0753 176.623 97.9988 176.604 97.9414C176.566 97.8649 176.547 97.8075 176.509 97.731C176.281 97.2145 176.053 96.6981 175.806 96.1816C175.54 95.6078 175.274 95.0531 174.989 94.4792C174.951 94.3836 174.894 94.3071 174.856 94.2114C174.799 94.0967 174.742 93.9819 174.685 93.8863C174.457 93.4463 174.229 92.9872 174.002 92.5473C173.698 91.9926 173.394 91.4379 173.071 90.8832C172.919 90.5963 172.767 90.3285 172.596 90.0415C172.539 89.9268 172.482 89.812 172.406 89.7164C172.121 89.2382 171.817 88.7791 171.532 88.32C171.114 87.6314 170.696 86.9237 170.24 86.2542C170.164 86.1395 170.107 86.0247 170.031 85.929C169.385 84.9726 168.739 84.0354 168.055 83.0981C168.055 83.079 168.017 83.0407 167.998 83.0216C167.542 82.3904 167.067 81.7592 166.573 81.1471C166.193 80.6497 165.813 80.1715 165.414 79.7125C165.414 79.7125 165.395 79.6742 165.376 79.6551C165.376 79.6551 165.376 79.636 165.357 79.6168C164.958 79.1195 164.54 78.6413 164.122 78.1631C163.723 77.704 163.305 77.2258 162.887 76.7859C162.83 76.7094 162.754 76.652 162.697 76.5755C162.621 76.499 162.564 76.4225 162.488 76.3459C162.184 76.0208 161.899 75.7147 161.595 75.4087C161.158 74.9496 160.702 74.5097 160.246 74.0697C160.113 73.9358 159.98 73.8211 159.847 73.6872C159.733 73.5915 159.638 73.4959 159.524 73.4002C159.296 73.1898 159.068 72.9794 158.84 72.769C158.366 72.3482 157.91 71.9274 157.435 71.5257C157.226 71.3536 157.017 71.1814 156.827 71.0284C156.713 70.9327 156.618 70.8562 156.504 70.7606C156.352 70.6267 156.181 70.4928 156.029 70.3589C155.573 69.9955 155.098 69.632 154.642 69.2877C154.3 69.0391 153.977 68.8095 153.635 68.5609C153.578 68.5226 153.502 68.4652 153.445 68.427C153.388 68.3887 153.331 68.3313 153.255 68.2931C152.799 67.987 152.362 67.681 151.906 67.3941C151.469 67.1072 151.013 66.8394 150.557 66.5716C150.462 66.5142 150.348 66.4568 150.253 66.3803C149.911 66.189 149.588 65.9977 149.246 65.8065C149.113 65.7299 148.98 65.6726 148.866 65.5961C148.695 65.5004 148.524 65.4239 148.353 65.3283C148.22 65.2517 148.087 65.1944 147.954 65.1179C147.745 65.0031 147.517 64.9074 147.308 64.8118C147.156 64.7353 147.004 64.6588 146.852 64.6014C146.795 64.5823 146.738 64.544 146.662 64.5058C146.244 64.3145 145.807 64.1232 145.389 63.9702C145.37 63.9702 145.351 63.9702 145.332 63.951C144.933 63.7789 144.515 63.6259 144.116 63.492C144.059 63.4729 144.002 63.4537 143.945 63.4346C143.793 63.3772 143.641 63.339 143.47 63.2816C143.261 63.2051 143.052 63.1285 142.843 63.0712C142.729 63.0329 142.634 63.0138 142.521 62.9755C142.331 62.9181 142.141 62.8608 141.951 62.8225C141.818 62.7842 141.666 62.746 141.533 62.7077C141.381 62.6695 141.229 62.6312 141.077 62.6121C140.887 62.5738 140.697 62.5165 140.507 62.4782C140.412 62.4591 140.317 62.4399 140.222 62.4208C140.051 62.3826 139.861 62.3634 139.69 62.3252C139.481 62.2869 139.253 62.2487 139.044 62.2104C138.968 62.2104 138.892 62.1913 138.816 62.1722C138.626 62.153 138.455 62.1339 138.284 62.1148C138.056 62.0956 137.828 62.0574 137.6 62.0383C137.543 62.0383 137.467 62.0383 137.41 62.0191C137.258 62.0191 137.106 62.0191 136.954 62.0191C136.688 62.0191 136.403 62 136.137 62C136.061 62 135.985 62 135.909 62C135.795 62 135.681 62 135.567 62C135.225 62 134.883 62.0191 134.56 62.0574C134.465 62.0574 134.351 62.0574 134.256 62.0574C134.18 62.0574 134.104 62.0765 134.028 62.0956C133.534 62.153 133.04 62.2104 132.546 62.306C132.508 62.306 132.451 62.306 132.413 62.3252C132.413 62.3252 132.413 62.3252 132.394 62.3252C131.691 62.4591 131.026 62.6695 130.361 62.8799C130.304 62.899 130.247 62.9181 130.171 62.9373C130.114 62.9373 130.076 62.9755 130.038 62.9947C129.753 63.1094 129.468 63.2242 129.183 63.339C129.05 63.3963 128.917 63.4537 128.784 63.5111C128.385 63.7024 127.986 63.9128 127.587 64.1423L119 69.173C119.38 68.9434 119.779 68.733 120.197 68.5418C120.33 68.4844 120.463 68.427 120.596 68.3696C120.881 68.2548 121.147 68.1209 121.432 68.0253C121.546 67.987 121.641 67.9488 121.755 67.9105C122.42 67.681 123.085 67.4897 123.788 67.3558C123.845 67.3558 123.902 67.3558 123.959 67.3367C124.453 67.2411 124.947 67.1645 125.441 67.1263C125.612 67.1263 125.783 67.088 125.954 67.088C126.277 67.0689 126.619 67.0498 126.96 67.0498C127.15 67.0498 127.34 67.0498 127.53 67.0498C127.796 67.0498 128.062 67.0498 128.347 67.0689C128.575 67.0689 128.784 67.0689 129.012 67.1072C129.24 67.1072 129.468 67.1454 129.696 67.1837C129.943 67.2028 130.209 67.2411 130.456 67.2793C130.665 67.3176 130.893 67.3558 131.102 67.3941C131.368 67.4323 131.653 67.4897 131.919 67.5471C132.109 67.5854 132.299 67.6236 132.489 67.681C132.774 67.7575 133.078 67.8149 133.363 67.8914C133.553 67.9488 133.743 67.987 133.933 68.0444C134.256 68.1401 134.579 68.2357 134.902 68.3505C135.054 68.4079 135.206 68.4461 135.358 68.5035C135.814 68.6565 136.289 68.8287 136.745 69.02C136.764 69.02 136.783 69.02 136.802 69.0391C137.277 69.2304 137.771 69.4408 138.265 69.6703C138.417 69.7468 138.569 69.8233 138.721 69.8807C139.063 70.0529 139.424 70.225 139.766 70.3972C139.937 70.4928 140.108 70.5693 140.279 70.665C140.735 70.9136 141.21 71.1623 141.666 71.4301C142.748 72.0613 143.793 72.7308 144.857 73.4768C144.914 73.515 144.99 73.5724 145.047 73.6107C146.016 74.2993 146.985 75.0261 147.935 75.7912C148.049 75.8869 148.144 75.9634 148.258 76.059C149.17 76.8241 150.082 77.6084 150.975 78.45C151.07 78.5457 151.184 78.6413 151.279 78.7369C152.172 79.5977 153.065 80.4776 153.939 81.3957C154.015 81.4722 154.072 81.5487 154.148 81.6253C155.06 82.6199 155.972 83.6337 156.846 84.7049C156.846 84.7049 156.865 84.7431 156.884 84.7622C157.777 85.8334 158.631 86.962 159.467 88.0905C159.486 88.1288 159.505 88.1479 159.524 88.1861C160.265 89.219 160.987 90.2711 161.69 91.3231C162.127 91.9926 162.545 92.7003 162.982 93.3889C163.343 93.9628 163.704 94.5366 164.046 95.1296C164.198 95.3974 164.35 95.6843 164.521 95.9712C165.072 96.9659 165.623 97.9605 166.136 98.9552C166.193 99.0699 166.25 99.1656 166.307 99.2803C166.915 100.505 167.504 101.748 168.055 103.01C168.074 103.068 168.112 103.125 168.131 103.202C168.663 104.426 169.157 105.669 169.613 106.912C169.651 106.989 169.67 107.085 169.708 107.161C170.164 108.423 170.601 109.705 170.981 110.987C171 111.063 171.019 111.14 171.038 111.197C171.399 112.421 171.722 113.665 172.026 114.889C172.045 115.003 172.083 115.118 172.102 115.233C172.387 116.495 172.634 117.758 172.843 119.001C172.843 119.02 172.843 119.059 172.843 119.078C173.052 120.34 173.185 121.603 173.299 122.846C173.299 122.942 173.299 123.056 173.318 123.152C173.413 124.395 173.47 125.639 173.47 126.863L173.394 151.423C173.394 151.863 173.356 152.265 173.28 152.628C173.28 152.628 173.28 152.647 173.28 152.666C173.204 153.03 173.109 153.355 172.957 153.661C172.843 153.91 172.691 154.12 172.539 154.311C172.482 154.369 172.444 154.445 172.387 154.503C172.197 154.694 172.007 154.885 171.779 155L180.366 149.969C180.594 149.835 180.784 149.663 180.974 149.472C181.031 149.415 181.069 149.338 181.126 149.281C181.183 149.204 181.259 149.128 181.335 149.032C181.411 148.917 181.487 148.783 181.544 148.65C181.582 148.554 181.62 148.458 181.658 148.363C181.696 148.267 181.734 148.171 181.753 148.076C181.772 147.98 181.81 147.884 181.829 147.789C181.829 147.751 181.829 147.712 181.848 147.674C181.848 147.674 181.848 147.655 181.848 147.636C181.848 147.597 181.848 147.559 181.867 147.521C181.867 147.425 181.905 147.349 181.905 147.253C181.905 147.158 181.924 147.081 181.924 146.985C181.924 146.89 181.924 146.813 181.924 146.718C181.924 146.622 181.924 146.545 181.924 146.45L182 121.87C182 121.392 182 120.914 181.981 120.436L181.962 120.378Z" fill="#0064FF" stroke="#00003C" stroke-width="2" mask="url(#path-17-inside-2_7_5)"/>
<path d="M142.362 71.3064C160.096 81.4538 174.475 106.138 174.418 126.357L174.341 150.756C174.341 154.291 171.81 155.716 168.704 153.949C165.579 152.162 163.087 147.868 163.087 144.333L163.164 119.934C163.202 106.803 153.846 90.7461 142.324 84.1522C130.782 77.5583 121.369 82.86 121.331 96.0098L121.254 120.409C121.254 123.944 118.723 125.369 115.617 123.602C112.492 121.815 110 117.521 110 113.986L110.077 89.5869C110.134 69.3682 124.609 61.216 142.343 71.3634L142.362 71.3064Z" fill="white" stroke="#00003C"/>
<rect width="24.1686" height="22.1936" transform="matrix(0.827016 0.562178 2.70407e-05 1 252 243.583)" fill="#0064FF"/>
<rect width="24.1686" height="22.1936" transform="matrix(0.827016 -0.562178 -2.70407e-05 1 272.012 257.172)" fill="#0E56C7"/>
<rect width="24.1684" height="24.1684" transform="matrix(0.827055 -0.562121 0.827055 0.562121 252 243.586)" fill="#0064FF"/>
<rect width="24.1686" height="22.1936" transform="matrix(0.827016 0.562178 2.70407e-05 1 252 243.583)" stroke="#00003C" stroke-linejoin="bevel"/>
<rect width="24.1686" height="22.1936" transform="matrix(0.827016 -0.562178 -2.70407e-05 1 272.012 257.172)" stroke="#00003C" stroke-linejoin="bevel"/>
<rect width="24.1684" height="24.1684" transform="matrix(0.827055 -0.562121 0.827055 0.562121 252 243.586)" stroke="#00003C" stroke-linejoin="bevel"/>
<rect width="24.1686" height="22.1936" transform="matrix(0.827016 0.562178 2.70407e-05 1 1 90.5828)" fill="#0064FF"/>
<rect width="24.1686" height="22.1936" transform="matrix(0.827016 -0.562178 -2.70407e-05 1 21.0122 104.172)" fill="#0E56C7"/>
<rect width="24.1684" height="24.1684" transform="matrix(0.827055 -0.562121 0.827055 0.562121 1 90.5856)" fill="#0064FF"/>
<rect width="24.1686" height="22.1936" transform="matrix(0.827016 0.562178 2.70407e-05 1 1 90.5828)" stroke="#00003C" stroke-linejoin="bevel"/>
<rect width="24.1686" height="22.1936" transform="matrix(0.827016 -0.562178 -2.70407e-05 1 21.0122 104.172)" stroke="#00003C" stroke-linejoin="bevel"/>
<rect width="24.1684" height="24.1684" transform="matrix(0.827055 -0.562121 0.827055 0.562121 1 90.5856)" stroke="#00003C" stroke-linejoin="bevel"/>
<rect width="13.8159" height="12.5192" transform="matrix(0.832018 0.554749 2.75685e-05 1 41 137.662)" fill="#0064FF"/>
<rect width="13.8159" height="12.5192" transform="matrix(0.832018 -0.554749 -2.75685e-05 1 52.5049 145.327)" fill="#0E56C7"/>
<rect width="13.8158" height="13.8158" transform="matrix(0.832056 -0.554692 0.832056 0.554692 41 137.663)" fill="#0064FF"/>
<rect width="13.8159" height="12.5192" transform="matrix(0.832018 0.554749 2.75685e-05 1 41 137.662)" stroke="#00003C" stroke-linejoin="bevel"/>
<rect width="13.8159" height="12.5192" transform="matrix(0.832018 -0.554749 -2.75685e-05 1 52.5049 145.327)" stroke="#00003C" stroke-linejoin="bevel"/>
<rect width="13.8158" height="13.8158" transform="matrix(0.832056 -0.554692 0.832056 0.554692 41 137.663)" stroke="#00003C" stroke-linejoin="bevel"/>
<rect width="17.7473" height="15.5164" transform="matrix(0.844693 0.53525 2.90081e-05 1 70 253.496)" fill="#F5F5F5"/>
<rect width="17.7473" height="15.5164" transform="matrix(0.844693 -0.53525 -2.90081e-05 1 85.0088 262.997)" fill="white"/>
<rect width="17.7472" height="17.7472" transform="matrix(0.844729 -0.535194 0.844729 0.535194 70 253.498)" fill="white"/>
<rect width="17.7473" height="15.5164" transform="matrix(0.844693 0.53525 2.90081e-05 1 70 253.496)" stroke="#00003C" stroke-linejoin="bevel"/>
<rect width="17.7473" height="15.5164" transform="matrix(0.844693 -0.53525 -2.90081e-05 1 85.0088 262.997)" stroke="#00003C" stroke-linejoin="bevel"/>
<rect width="17.7472" height="17.7472" transform="matrix(0.844729 -0.535194 0.844729 0.535194 70 253.498)" stroke="#00003C" stroke-linejoin="bevel"/>
<rect width="26.0294" height="22.7574" transform="matrix(0.844693 0.53525 2.90081e-05 1 41 255.928)" fill="#F5F5F5"/>
<rect width="26.0294" height="22.7574" transform="matrix(0.844693 -0.53525 -2.90081e-05 1 63.0127 269.862)" fill="white"/>
<rect width="26.0292" height="26.0292" transform="matrix(0.844729 -0.535194 0.844729 0.535194 41 255.931)" fill="white"/>
<rect width="26.0294" height="22.7574" transform="matrix(0.844693 0.53525 2.90081e-05 1 41 255.928)" stroke="#00003C" stroke-linejoin="bevel"/>
<rect width="26.0294" height="22.7574" transform="matrix(0.844693 -0.53525 -2.90081e-05 1 63.0127 269.862)" stroke="#00003C" stroke-linejoin="bevel"/>
<rect width="26.0292" height="26.0292" transform="matrix(0.844729 -0.535194 0.844729 0.535194 41 255.931)" stroke="#00003C" stroke-linejoin="bevel"/>
<rect width="11.8315" height="10.3443" transform="matrix(0.844693 0.53525 2.90081e-05 1 292 176.331)" fill="#F5F5F5"/>
<rect width="11.8315" height="10.3443" transform="matrix(0.844693 -0.53525 -2.90081e-05 1 302.006 182.664)" fill="white"/>
<rect width="11.8315" height="11.8315" transform="matrix(0.844729 -0.535194 0.844729 0.535194 292 176.332)" fill="white"/>
<rect width="11.8315" height="10.3443" transform="matrix(0.844693 0.53525 2.90081e-05 1 292 176.331)" stroke="#00003C" stroke-linejoin="bevel"/>
<rect width="11.8315" height="10.3443" transform="matrix(0.844693 -0.53525 -2.90081e-05 1 302.006 182.664)" stroke="#00003C" stroke-linejoin="bevel"/>
<rect width="11.8315" height="11.8315" transform="matrix(0.844729 -0.535194 0.844729 0.535194 292 176.332)" stroke="#00003C" stroke-linejoin="bevel"/>
</svg>
