<svg width="545" height="541" viewBox="0 0 545 541" fill="none" xmlns="http://www.w3.org/2000/svg">
<path d="M206.491 280.557H181.965V231.213H206.491C219.999 231.213 231.018 242.298 231.018 255.885C231.018 269.473 219.999 280.557 206.491 280.557Z" fill="#0064FF"/>
<path d="M160.987 234.074L147.835 220.844L113 255.885L147.835 290.927L160.987 277.339L154.233 270.903V240.868L160.987 234.074Z" fill="#00003C"/>
<path d="M258.023 220.844L244.871 234.074L251.269 240.868V270.903L244.871 277.339L258.023 290.927L292.858 255.885L258.023 220.844Z" fill="#00003C"/>
<path d="M168.086 200.463L181.238 213.693L187.992 206.899H217.85L224.248 213.693L237.755 200.463L202.921 165.421L168.086 200.463Z" fill="#00003C"/>
<path d="M231.002 304.514L224.248 298.078L217.85 304.514H187.992L181.238 298.078L174.84 304.514L168.086 311.308L202.921 346.349L237.755 311.308L231.002 304.514Z" fill="#00003C"/>
<path d="M324.919 108.541C336.78 97.4866 351.474 90.0976 363.695 79.4836L363.649 79.4311C352.822 88.2717 340.221 94.6426 328.982 102.886C322.741 107.49 317.147 112.586 312.568 118.793C310.278 121.913 307.544 125.007 306.013 128.586C305.339 130.169 303.913 131.391 303.121 132.928C302.101 134.911 300.975 136.79 300.341 138.937C299.091 143.115 299.216 146.983 300.478 151.128C301.63 154.95 303.075 159.443 306.15 162.254C308.682 164.579 311.495 166.878 315.152 167.094C316.428 167.167 317.638 166.989 318.757 166.641C319.47 166.851 320.19 167.016 320.968 167.068C330.434 167.686 337.775 157.853 342.603 151.114C345.056 147.673 347.15 144.08 348.347 140.008C349.465 136.199 350.408 132.369 349.446 128.461C348.805 125.854 347.751 123.207 345.828 121.388C345.2 120.435 344.448 119.568 344.094 118.491C343.565 116.908 342.858 115.404 342.446 113.775C341.674 110.701 342.21 106.636 343.257 103.661C345.717 96.6393 350.394 91.3849 357.074 87.8579L357.041 87.7988C350.532 90.8332 345.22 95.7526 342.511 102.38C341.026 106.032 340.32 109.959 338.828 113.559C338.082 115.338 337.578 117.204 336.892 119.003C336.473 120.074 335.917 121.118 335.518 122.209C334.137 123.956 333.405 126.031 332.724 127.456C332.463 128.021 331.082 132.763 331.592 130.826C331.291 131.969 330.977 133.112 330.552 134.222C330.16 135.24 329.715 136.218 329.263 137.21L329.224 137.269C328.838 137.88 328.426 138.471 328.02 139.069L328.092 138.077C328.452 134.99 328.642 130.747 327.458 127.535C327.379 126.649 327.36 125.401 326.908 124.232C327.504 125.762 327.006 123.818 327.078 123.437C327.163 122.977 327.255 122.524 327.347 122.058C327.824 119.732 328.491 117.427 329.453 115.24C331.076 111.582 332.829 107.989 334.929 104.554L334.739 104.436C332.299 107.188 329.826 109.913 327.51 112.77C324.926 115.943 322.034 118.826 319.333 121.867C318.489 122.458 317.736 123.089 316.951 123.752C315.662 124.475 314.537 125.493 313.569 126.701C314.138 123.391 315.146 120.468 317.239 117.48C319.483 114.248 322.041 111.247 324.939 108.541H324.919ZM329.388 136.967C329.918 135.864 329.663 136.448 329.388 136.967V136.967Z" fill="#0064FF"/>
<path d="M356.76 174.142C356.073 170.681 353.332 167.83 349.832 166.93L349.524 166.49C344.179 160.244 336.231 161.643 330.114 165.814C327.333 167.712 324.867 170.122 323.572 173.249C323.173 174.195 322.446 177.662 323.186 174.753C322.872 175.955 322.754 176.506 322.78 177.557C322.747 175.718 322.741 177.465 322.747 178.779L322.728 178.845L322.682 178.95C322.342 179.318 321.89 179.83 322.087 179.58L320.896 179.751C318.103 180.099 315.42 179.712 312.751 178.871C307.387 177.196 301.211 173.919 300.615 167.797H300.452C300.55 174.037 306.798 178.543 312.051 180.868C315.322 182.319 318.822 183.278 322.342 183.902C323.905 184.184 325.096 184.703 326.784 184.605C322.198 184.914 328.766 184.592 327.085 184.703L327.392 184.684C328.275 184.894 329.204 184.94 330.166 184.789C328.334 185.065 330.173 184.94 331.396 184.861L331.318 184.894L331.239 184.933C330.624 185.229 330.009 185.511 329.375 185.741L328.747 185.971C328.315 186.096 327.89 186.227 327.458 186.326C326.261 186.608 325.063 186.858 323.853 187.009C323.336 187.088 322.819 187.14 322.296 187.193L321.622 187.225C320.366 187.245 319.097 187.232 317.834 187.127C317.239 187.088 316.624 187.028 316.035 186.963L315.767 186.897C314.681 186.588 313.582 186.26 312.529 185.84C310.435 184.999 308.289 183.915 306.137 183.258C305.45 183.022 304.737 182.858 304.011 182.733C303.71 182.595 303.357 182.437 302.879 182.221C302.12 181.886 301.361 181.735 300.589 181.636C296.945 179.561 292.745 178.306 290.115 174.825C287.355 171.186 284.986 167.377 284.156 162.845C282.343 152.875 283.22 142.307 286.779 132.711C290.423 122.846 297.024 113.519 305.646 107.161C314.04 100.974 323.827 96.5605 333.287 92.1994L333.267 92.1468C328.4 94.5047 323.349 96.4357 318.449 98.7608C303.952 105.657 291.614 116.304 285.785 131.364C280.525 144.947 279.373 161.4 285.17 174.924C285.974 176.789 287.185 178.615 287.714 180.585C288.159 182.24 288.663 183.909 289.527 185.406C290.469 187.055 290.776 189.216 292.104 190.628L292.536 191.14L292.863 192.119C293.406 193.242 294.1 193.754 294.754 194.536C294.708 194.496 295.12 195.107 296.043 196.421C296.716 197.235 297.488 197.958 298.352 198.575C299.052 199.114 299.732 199.659 300.458 200.145C302.343 201.419 304.331 202.463 306.451 203.297C310.272 204.788 314.302 205.623 318.417 205.754C327.471 206.03 336.25 204.191 343.852 199.225C343.99 199.613 344.166 199.994 344.349 200.381C343.381 203.619 341.661 206.148 338.586 208.191C335.433 210.292 331.854 211.829 328.099 212.512C319.594 214.049 311.116 211.573 304.907 205.741L304.724 205.885C310.965 212.512 320.131 215.501 329.296 214.365C334.15 213.747 338.233 212.059 342.459 209.701C344.539 208.545 346.24 207.094 348.137 205.721C348.949 205.136 349.995 204.611 350.754 203.967L351.127 203.836L351.814 203.389C356.485 201.524 360.005 196.729 360.672 191.817C361.379 186.503 360.096 181.255 358.186 176.349C357.865 175.495 357.349 174.792 356.76 174.142V174.142Z" fill="#0064FF"/>
<path d="M259.659 117.401C263.441 113.585 267.379 110.045 272.043 107.286C284.833 99.746 299.717 96.3963 314.489 94.1566C300.554 95.9825 286.6 97.8675 274.039 104.685C269.695 107.05 265.691 109.782 262.073 113.138C258.377 116.573 254.399 122.09 249.342 123.614C247.059 124.291 244.58 125.401 242.434 126.412C239.928 127.581 237.076 128.58 235.094 130.524C234.374 131.24 233.681 132.12 232.948 132.947C232.457 133.105 231.967 133.263 231.469 133.381C227.93 134.176 226.523 131.844 225.895 129.053C226.079 128.113 226.38 127.2 226.844 126.465C227.354 125.644 227.995 124.278 228.761 123.68C229.134 123.338 229.566 123.089 230.043 122.911C231.79 124.402 231.914 125.256 230.416 125.506C229.566 125.808 230.043 127.22 230.907 126.97C232.647 126.425 235.041 125.151 234.616 122.971C234.197 120.829 231.378 120.12 229.474 120.028C223.22 119.752 220.23 125.473 219.412 130.826C217.417 143.85 231.227 154.609 243.775 152.835C247.072 152.369 250.906 151.141 253.359 150.412C256.447 149.499 259.947 148.028 262.361 145.834C264.644 143.745 267.222 141.44 268.354 138.478C269.885 134.478 272.331 130.353 274.51 126.635C278.782 119.352 283.296 112.35 290.159 107.082C296.393 102.288 303.622 99.4636 311.257 97.6114L311.244 97.5457C300.345 99.5752 290.597 104.166 283.041 112.33C278.573 117.158 275.164 122.826 270.702 127.64C268.347 130.176 266.005 132.159 263.035 133.88C261.772 134.616 260.778 135.082 259.784 135.443C260.202 134.373 260.556 133.282 261.013 132.185C262.937 127.529 265.874 123.016 268.655 118.813C271.723 114.183 275.21 110.018 280.444 107.667L280.385 107.542C276.198 108.987 272.685 111.536 269.898 114.918C266.607 118.898 264.245 123.792 260.457 127.319C257.984 129.617 254.779 130.773 251.554 131.87C252.921 130.051 254.105 128.034 254.347 125.788C254.648 122.721 257.592 119.483 259.659 117.394V117.401Z" fill="#0064FF"/>
<path d="M284.763 122.491C281.355 126.852 278.175 131.502 274.95 136.008C272.157 139.916 269.788 143.62 267.983 148.08C266.013 152.986 265.484 158.412 266.013 163.587C266.491 168.48 269.232 171.718 271.685 175.771C276.095 183.029 279.994 192.644 289.434 194.523C289.827 194.608 290.134 194.128 289.761 193.879C283.056 189.34 275.002 180.014 277.214 171.239C279.189 163.489 280.131 155.6 281.067 147.666C281.584 143.41 281.041 139.141 281.564 134.872C282.127 130.241 284.593 125.296 287.262 121.466C292.777 113.598 299.79 106.61 307.922 101.322L307.876 101.283C298.75 107.194 291.43 113.999 284.763 122.484V122.491Z" fill="#0064FF"/>
<path d="M62.7497 406.387C48.4386 413.987 32.3377 417.313 17.7927 424.394L17.8234 424.457C30.5645 418.727 44.3803 415.841 57.3652 410.795C64.5826 407.967 71.3016 404.495 77.3278 399.688C80.3451 397.268 83.7853 394.989 86.1883 391.929C87.2479 390.575 88.941 389.765 90.1025 388.485C91.6004 386.834 93.1724 385.312 94.3399 383.402C96.6256 379.691 97.5044 375.922 97.355 371.591C97.2299 367.6 96.9934 362.886 94.7493 359.373C92.9042 356.47 90.7805 353.52 87.304 352.362C86.0904 351.961 84.8756 351.818 83.7051 351.864C83.0706 351.476 82.4179 351.131 81.6795 350.878C72.695 347.826 63.066 355.419 56.6623 360.676C53.4039 363.364 50.4541 366.291 48.2461 369.914C46.1819 373.303 44.2832 376.758 44.203 380.782C44.1489 383.467 44.4829 386.297 45.8709 388.553C46.2316 389.636 46.7344 390.669 46.7975 391.801C46.9007 393.467 47.1948 395.103 47.1723 396.784C47.1242 399.953 45.5562 403.741 43.7769 406.343C39.5878 412.487 33.7128 416.349 26.3502 418.023L26.3665 418.089C33.4376 416.846 39.8391 413.473 44.1665 407.774C46.5439 404.632 48.2406 401.021 50.6108 397.932C51.7908 396.406 52.759 394.735 53.8873 393.175C54.5681 392.249 55.3749 391.385 56.0419 390.435C57.8264 389.106 59.0701 387.291 60.0953 386.091C60.494 385.613 63.0518 381.39 62.0586 383.13C62.6444 382.104 63.2428 381.081 63.9402 380.12C64.5822 379.238 65.2646 378.408 65.9567 377.567L66.0099 377.52C66.5405 377.03 67.0912 376.566 67.6374 376.094L67.3118 377.034C66.1671 379.922 64.8882 383.971 65.2026 387.381C65.0495 388.258 64.7462 389.468 64.8804 390.714C64.7005 389.082 64.6787 391.089 64.5109 391.438C64.31 391.86 64.1045 392.274 63.8956 392.701C62.8339 394.823 61.5941 396.876 60.1004 398.739C57.5886 401.852 54.9673 404.868 52.0518 407.641L52.2046 407.804C55.2723 405.779 58.3647 403.788 61.3395 401.629C64.6547 399.235 68.1924 397.2 71.5874 394.964C72.5553 394.612 73.4448 394.198 74.3744 393.761C75.8058 393.397 77.1556 392.706 78.4029 391.789C76.9983 394.839 75.2705 397.401 72.4767 399.745C69.4747 402.284 66.2289 404.52 62.7307 406.382L62.7497 406.387ZM65.7739 377.77C64.9771 378.698 65.3745 378.2 65.7739 377.77V377.77Z" fill="#0064FF"/>
<path d="M48.941 334.762C48.7108 338.283 50.6225 341.748 53.7709 343.525L53.9542 344.03C57.5041 351.45 65.5432 352.16 72.5286 349.719C75.7044 348.606 78.7092 346.918 80.7677 344.234C81.3974 343.424 82.9943 340.263 81.5289 342.881C82.1426 341.802 82.3988 341.299 82.6449 340.278C82.2016 342.062 82.659 340.377 82.9919 339.106L83.0278 339.048L83.0992 338.958C83.5228 338.691 84.0911 338.313 83.8371 338.503L85.0312 338.647C87.8194 339.036 90.3102 340.106 92.6714 341.61C97.4206 344.62 102.54 349.388 101.534 355.455L101.692 355.497C103.208 349.445 98.337 343.472 93.8631 339.863C91.0783 337.613 87.9452 335.779 84.7066 334.263C83.2692 333.584 82.2531 332.774 80.5973 332.432C85.1068 333.323 78.6792 331.93 80.3321 332.258L80.03 332.198C79.2312 331.765 78.3457 331.48 77.3778 331.376C79.2184 331.585 77.4105 331.229 76.2084 330.988L76.2927 330.976L76.3787 330.959C77.0491 330.833 77.716 330.719 78.3883 330.662L79.0543 330.603C79.5036 330.594 79.9483 330.578 80.3908 330.595C81.6201 330.632 82.841 330.702 84.049 330.87C84.5686 330.928 85.0814 331.011 85.6005 331.096L86.2598 331.239C87.4782 331.546 88.7008 331.888 89.8932 332.317C90.4581 332.51 91.0368 332.726 91.5886 332.942L91.8307 333.075C92.8 333.655 93.7768 334.258 94.6857 334.937C96.4907 336.292 98.2836 337.896 100.193 339.088C100.795 339.495 101.442 339.839 102.111 340.147C102.366 340.359 102.667 340.603 103.072 340.936C103.719 341.456 104.413 341.799 105.133 342.095C108.117 345.045 111.85 347.346 113.491 351.391C115.218 355.622 116.522 359.916 116.154 364.509C115.33 374.609 111.755 384.59 105.839 392.935C99.7719 401.519 90.9876 408.815 81.0172 412.72C71.312 416.519 60.7188 418.243 50.4551 420.001L50.4605 420.057C55.7708 419.042 61.1479 418.487 66.4813 417.513C82.2654 414.612 96.9326 407.529 106.452 394.494C115.04 382.739 120.401 367.145 118.294 352.579C117.998 350.568 117.301 348.49 117.298 346.45C117.295 344.735 117.239 342.993 116.792 341.323C116.308 339.486 116.569 337.319 115.651 335.611L115.366 335.004L115.303 333.974C115.068 332.748 114.531 332.073 114.1 331.148C114.134 331.198 113.894 330.501 113.342 328.993C112.902 328.032 112.343 327.134 111.668 326.313C111.131 325.611 110.614 324.908 110.038 324.25C108.548 322.531 106.896 321.006 105.064 319.651C101.759 317.219 98.0815 315.368 94.1407 314.174C85.4661 311.559 76.5109 311.057 67.8858 313.881C67.8532 313.471 67.7809 313.058 67.7041 312.636C69.4754 309.759 71.7903 307.763 75.2878 306.588C78.8764 305.376 82.7298 304.819 86.5334 305.134C95.1452 305.856 102.696 310.447 107.186 317.691L107.401 317.599C103.083 309.579 95.0019 304.314 85.8553 303.034C81.007 302.371 76.628 302.943 71.9369 304.124C69.6289 304.701 67.6111 305.662 65.4241 306.495C64.4896 306.85 63.3428 307.086 62.4436 307.51L62.0494 307.541L61.2706 307.794C56.277 308.384 51.6393 312.102 49.7261 316.674C47.6716 321.624 47.555 327.025 48.1333 332.26C48.2225 333.168 48.5402 333.981 48.941 334.762V334.762Z" fill="#0064FF"/>
<path d="M128.08 414.759C123.442 417.464 118.724 419.862 113.506 421.316C99.2051 425.281 83.964 424.656 69.1169 422.987C83.0483 424.838 97.0139 426.638 110.907 423.311C115.714 422.154 120.287 420.553 124.648 418.25C129.105 415.891 134.372 411.594 139.65 411.434C142.03 411.372 144.712 410.944 147.046 410.523C149.768 410.044 152.781 409.82 155.197 408.456C156.077 407.951 156.974 407.281 157.896 406.672C158.411 406.647 158.925 406.622 159.436 406.636C163.06 406.787 163.816 409.404 163.702 412.263C163.283 413.123 162.756 413.927 162.118 414.517C161.413 415.177 160.441 416.331 159.547 416.709C159.099 416.943 158.617 417.072 158.11 417.119C156.808 415.226 156.908 414.369 158.42 414.516C159.319 414.445 159.223 412.957 158.324 412.974C156.502 413.049 153.861 413.659 153.708 415.876C153.56 418.052 156.1 419.469 157.915 420.052C163.885 421.941 168.25 417.191 170.423 412.232C175.713 400.169 165.151 386.195 152.573 384.652C149.268 384.248 145.248 384.439 142.69 384.507C139.471 384.588 135.711 385.101 132.812 386.594C130.068 388.019 126.983 389.577 125.124 392.145C122.613 395.611 119.184 398.961 116.12 401.986C110.113 407.914 103.945 413.506 95.9557 416.813C88.6955 419.827 80.9835 420.68 73.1307 420.489L73.1264 420.555C84.1782 421.422 94.7793 419.517 104.186 413.591C109.749 410.087 114.505 405.496 120.057 402.003C122.987 400.166 125.761 398.857 129.075 397.965C130.484 397.582 131.565 397.39 132.619 397.299C131.938 398.225 131.315 399.186 130.59 400.127C127.53 404.126 123.527 407.722 119.756 411.061C115.597 414.738 111.153 417.856 105.491 418.769L105.515 418.905C109.933 418.595 113.984 417.045 117.55 414.501C121.756 411.51 125.301 407.396 129.87 404.972C132.852 403.393 136.247 403.108 139.646 402.885C137.855 404.288 136.191 405.928 135.377 408.035C134.294 410.92 130.615 413.284 128.079 414.765L128.08 414.759Z" fill="#0064FF"/>
<path d="M105.144 403.33C109.562 400.001 113.834 396.334 118.113 392.819C121.82 389.769 125.064 386.805 127.96 382.966C131.129 378.737 133.042 373.635 133.866 368.498C134.669 363.648 132.857 359.809 131.534 355.258C129.149 347.104 127.865 336.804 119.232 332.541C118.875 332.356 118.454 332.74 118.75 333.078C124.055 339.201 129.426 350.299 125.024 358.201C121.114 365.175 118.167 372.55 115.215 379.971C113.617 383.948 113.039 388.213 111.431 392.201C109.692 396.527 106.032 400.665 102.465 403.671C95.1065 409.841 86.5277 414.772 77.3077 417.769L77.3418 417.819C87.6834 414.477 96.5117 409.803 105.142 403.336L105.144 403.33Z" fill="#0064FF"/>
<path d="M99.9538 433.737C92.813 431.913 85.778 430.105 78.3282 429.581C74.6203 429.339 70.8893 429.348 67.1797 429.537C69.6213 429.684 91.393 433.488 96.0153 438.055C98.2969 440.282 100.412 442.74 102.128 445.356C103.956 448.123 104.498 450.73 105.215 453.841C106.333 458.495 112.844 459.963 116.644 457.556C120.247 455.301 120.982 450.89 118.829 447.467C117.777 445.805 114.214 440.149 109.902 438.173C106.584 436.646 103.529 434.669 99.9481 433.73L99.9538 433.737Z" fill="#0064FF"/>
<path d="M79.1405 434.359C73.831 433.005 68.5897 431.663 63.041 431.261C60.2684 431.075 57.5023 431.093 54.7383 431.225C56.5575 431.346 72.7643 434.17 76.206 437.575C77.9093 439.229 79.4826 441.06 80.7611 443.009C82.1179 445.067 82.5134 447.008 83.0574 449.325C83.882 452.775 88.7288 453.877 91.5691 452.094C94.2488 450.41 94.7973 447.128 93.2011 444.586C92.4132 443.341 89.7714 439.131 86.5557 437.658C84.0916 436.521 81.8101 435.047 79.1417 434.346L79.1405 434.359Z" fill="#0064FF"/>
<path d="M33.0034 498.949C21.916 499.016 13.4913 489.827 10.0358 480.117C8.29599 475.189 7.27388 469.722 9.00318 464.666C9.48292 463.271 10.0447 461.834 10.887 460.593C10.5899 462.178 10.4474 463.847 10.5495 465.582C10.4377 463.54 10.4672 463.959 10.5847 466.853C10.5875 467.874 10.8253 468.837 11.3457 469.777C11.5385 470.353 11.8539 470.841 12.0834 471.412C12.7959 473.459 13.5615 475.414 15.4199 476.726L15.6837 476.931L15.9596 477.302C16.39 477.864 16.5484 478.118 16.8955 478.7C17.8061 480.219 18.7581 481.742 19.9175 483.072C25.2174 489.279 33.3738 494.075 41.34 495.957C58.1329 499.974 73.0012 494.726 87.4033 486.406L87.3778 486.342C76.5544 492.353 62.1713 497.561 49.5561 495.108C43.1656 493.874 37.0922 490.846 32.6449 486.058C29.9607 483.123 26.1348 478.684 25.9919 474.431C26.4534 473.633 26.773 472.783 26.8935 471.831L26.5342 472.273L26.9359 471.672L26.9643 471.566L26.9611 471.658C27.4864 470.912 27.9928 470.106 28.3309 469.24L28.4788 469.031C28.8218 468.464 29.2028 467.914 29.5494 467.334C29.9226 466.654 30.2202 466.125 30.426 465.726L30.2202 466.125L30.5704 465.531C30.8922 465.043 31.2286 464.581 31.6244 464.134L32.0581 463.704L33.8101 462.451C34.2506 462.208 34.6691 461.994 35.1105 461.8C35.6555 461.563 36.2101 461.343 36.7842 461.157L37.859 460.898C39.2277 461.024 40.644 460.786 41.9627 460.331L42.6819 460.396L43.1819 460.565L43.4357 460.675L43.9615 461.092L44.2823 461.454L44.6816 462.291L44.8043 462.891C39.3204 464.116 35.5003 469.152 36.5116 474.764C37.3141 479.173 41.209 482.957 45.8478 483.248C52.1444 483.643 59.2393 480.765 62.5589 475.191C69.7276 463.045 64.5936 445.243 50.081 440.83C47.3102 439.99 44.3296 439.589 41.289 439.598C36.9515 437.177 31.6994 435.949 27.0158 435.958C23.7946 435.953 18.9628 436.092 16.1419 437.846C13.1063 439.74 9.35246 442.307 8.26777 445.935C7.99526 446.847 7.77432 447.751 7.6098 448.657L7.80489 447.611C7.6681 448.148 7.54818 448.569 7.49142 448.887C7.14327 449.658 6.98469 450.409 6.94586 451.242L6.78887 451.696C6.16184 453.562 5.68234 455.538 5.42589 457.474C4.9236 461.307 4.76085 464.983 5.22594 468.827C6.94894 482.891 16.1683 500.433 32.9948 499.166L32.9862 498.987L33.0034 498.949ZM25.1286 473.158C24.1731 474.029 24.219 473.964 25.21 472.96L25.1286 473.158ZM46.1626 457.791L46.4072 458.147L46.4274 458.231L46.1626 457.791ZM46.6777 458.645L46.6856 458.668L46.6839 458.675L46.6795 458.638L46.6777 458.645Z" fill="#0064FF"/>
<path d="M277.04 339.693C276.65 342.485 277.706 345.394 278.644 347.844C279.664 350.505 281.126 352.512 283.392 354.065C284.549 354.859 285.848 355.312 287.134 355.859C288.139 356.288 289.32 356.269 290.271 356.763C292.433 357.892 295 358.226 297.356 358.783C302.056 359.875 306.822 359.959 311.705 359.502C320.491 358.652 329.202 356.254 338.016 355.893L338.016 355.846C327.821 355.931 317.676 358.767 307.481 358.463C304.984 358.388 302.546 358.008 300.166 357.379C297.957 356.804 296.307 355.774 294.716 354.356C295.667 354.532 296.619 354.555 297.548 354.342C298.2 354.324 298.811 354.3 299.47 354.229C301.996 354.557 304.552 354.725 307.079 355.171C309.352 355.587 311.65 355.862 313.929 356.155L313.971 356.007C311.58 355.214 309.306 354.174 307.063 353.056C305.723 352.386 304.484 351.521 303.339 350.55L302.67 349.974C302.488 349.815 301.96 348.602 302.27 349.644C302.03 348.849 301.549 348.214 301.232 347.731C300.552 345.576 298.785 343.522 297.388 342.121L296.959 341.656L298.263 342.032L298.31 342.044C298.915 342.344 299.526 342.638 300.119 342.985C300.777 343.349 301.382 343.79 301.975 344.232C300.959 343.484 303.514 345.255 303.86 345.426C304.747 345.843 305.94 346.567 307.297 346.831C307.925 347.201 308.613 347.489 309.235 347.842C310.281 348.43 311.261 349.154 312.342 349.718C314.498 350.877 316.394 352.542 318.562 353.724C322.515 355.871 327.063 355.985 331.459 354.615L331.453 354.574C326.781 355.773 322.398 355.199 318.427 352.753C316.736 351.717 314.863 349.899 314.03 348.003C313.584 346.99 313.344 345.924 312.981 344.888C312.729 344.188 312.759 343.416 312.689 342.65C312.919 340.877 312.392 339.064 311.682 337.468C310.615 335.066 308.636 333.542 306.58 332.118C304.39 330.595 301.94 329.719 299.378 329.073C294.349 327.829 286.853 326.127 282.436 330.66C282.077 331.031 281.789 331.438 281.518 331.862C280.837 332.193 280.166 332.641 279.566 333.242C277.843 334.981 277.371 337.396 277.04 339.705L277.04 339.693ZM298.457 342.108C298.804 342.255 299.156 342.432 298.457 342.108V342.108Z" fill="#0064FF"/>
<path d="M380.583 345.567C383.971 348.126 388.517 350.478 391.378 352.037C394.978 354.007 399.443 355.841 403.579 356.049C407.505 356.235 411.888 356.49 415.562 354.856C420.529 352.655 426.418 351.154 431.708 349.783C442.07 347.095 452.408 344.889 463.301 346.353C473.202 347.67 482.242 351.662 490.77 356.885L490.817 356.814C479.188 348.802 466.306 344.13 452.191 344.636C443.846 344.938 435.706 346.953 427.379 347.248C422.99 347.399 419.106 347.067 414.893 345.933C413.102 345.458 411.792 344.982 410.57 344.405C411.904 343.821 413.203 343.166 414.591 342.588C420.492 340.145 427.175 338.743 433.446 337.484C440.351 336.094 447.221 335.505 454.035 338.115L454.094 337.95C449.031 335.469 443.596 334.595 438.054 335.112C431.531 335.718 425.019 337.974 418.455 337.726C414.166 337.553 410.248 335.701 406.365 333.778C409.221 333.375 412.095 332.636 414.324 330.838C417.341 328.356 422.888 328.104 426.619 328.095C433.436 328.078 440.158 328.461 446.82 330.187C465.079 334.955 481.483 345.384 496.775 356.692C482.593 345.754 468.346 334.858 450.945 329.654C444.912 327.85 438.866 326.695 432.603 326.441C426.198 326.187 417.676 327.549 411.761 324.355C409.101 322.903 405.882 321.669 403.038 320.634C399.737 319.424 396.271 317.742 392.757 317.71C391.465 317.699 390.06 317.871 388.656 317.949C388.074 317.649 387.493 317.349 386.935 317.002C383.035 314.519 383.86 311.162 385.796 308.091C386.801 307.413 387.889 306.865 388.97 306.628C390.169 306.356 391.962 305.701 393.19 305.859C393.831 305.888 394.447 306.058 395.029 306.323C395.267 309.238 394.615 310.116 393.041 308.987C392.007 308.493 391.171 310.19 392.175 310.748C394.231 311.83 397.521 312.841 399.092 310.501C400.627 308.197 398.732 305.024 397.1 303.223C391.716 297.332 383.905 299.771 378.378 303.839C364.925 313.733 367.716 335.841 380.6 345.573L380.583 345.567Z" fill="#0064FF"/>
<path d="M238.579 419.368C229.784 431.82 233.293 452.774 247.914 458.08C253.93 460.266 261.516 460.325 264.7 453.46C265.66 451.357 266.485 447.94 264.495 446.263C262.469 444.563 259.823 446.403 258.294 447.959C257.553 448.749 258.745 450.061 259.539 449.324C260.633 447.863 261.449 448.48 262.034 451.213C261.587 451.625 261.088 451.938 260.529 452.145C259.483 452.617 257.714 452.53 256.586 452.613C255.563 452.696 254.453 452.491 253.372 452.15C250.818 449.885 249.187 447.047 251.969 443.706C252.369 443.234 252.804 442.798 253.239 442.362C254.509 442.043 255.802 441.806 256.942 441.44C260.057 440.436 262.68 437.948 265.279 435.92C267.513 434.187 270.047 432.164 272.006 430.107C276.393 425.545 284.327 424.431 289.94 422.43C295.43 420.47 300.474 417.733 305.343 414.419C319.383 404.842 329.06 390.952 338.685 377.044C328.184 391.607 316.462 405.675 301.546 415.082C296.108 418.508 290.241 420.704 284.193 422.588C280.878 423.615 275.883 424.927 272.534 423.493C270.073 422.464 267.323 422.584 264.678 423.01C267.595 420.181 270.571 417.398 274.327 416.058C280.081 414.01 286.468 414.269 292.428 413.016C297.488 411.957 302.073 409.645 305.89 405.984L305.796 405.843C300.457 410.112 294.204 411.483 287.692 412.125C281.792 412.707 275.475 413.283 269.581 412.681C268.183 412.541 266.861 412.301 265.521 412.137C266.451 411.276 267.48 410.468 268.944 409.542C272.371 407.343 275.733 405.962 279.671 404.887C287.148 402.854 294.904 402.436 302.392 400.403C315.053 396.953 325.219 389.129 333.366 378.586L333.307 378.527C327.149 385.665 320.21 391.807 311.786 395.755C302.516 400.103 292.749 400.959 282.824 401.374C277.758 401.578 272.117 401.842 267.117 401.216C263.415 400.736 259.595 402.188 256.162 403.439C252.547 404.779 249.089 407.692 246.419 410.486C244.308 412.696 240.915 416.109 238.603 419.38L238.579 419.368Z" fill="#0064FF"/>
<path d="M380.494 391.389C377.965 401.881 372.866 414.03 379.674 424.225C379.95 424.655 380.655 424.501 380.544 423.942C378.572 413.819 379.678 398.187 389.513 392.306C398.232 387.134 406.146 380.908 414.09 374.628C418.365 371.274 421.706 366.96 425.993 363.593C430.644 359.943 437.292 357.729 443.122 356.7C455.128 354.611 467.703 354.671 479.759 357.264L479.753 357.188C466.246 354.26 453.566 353.764 439.967 355.365C432.991 356.201 425.968 357.509 419.028 358.639C413.015 359.628 407.573 360.822 401.948 363.189C395.781 365.815 390.448 370.207 386.29 375.329C382.337 380.15 381.903 385.527 380.488 391.383L380.494 391.389Z" fill="#0064FF"/>
<path d="M338.622 418.511C337.07 426.21 336.018 434.174 335.265 441.991C334.898 445.89 336.75 450.683 337.929 454.351C339.306 458.655 340.701 462.754 342.419 466.999C344.032 471.103 345.315 475.49 348.192 478.962C349.607 480.663 350.428 482.312 352.213 483.783L352.753 484.194C352.671 484.171 352.524 484.177 352.87 484.854C353.117 485.313 353.346 485.778 353.563 486.255C354.395 488.304 354.846 490.395 354.98 492.474C354.867 493.163 354.884 493.887 354.978 494.653C354.769 498.169 353.579 501.586 351.303 504.586C351.032 504.952 351.496 505.381 351.872 505.228C356.504 503.398 357.683 498.897 358.733 494.467C362.567 490.648 367.881 488.676 371.686 484.791C373.591 482.823 375.145 480.183 376.146 477.331C379.987 473.188 382.324 467.219 383.198 462.2C384.627 453.977 381.642 446.046 375.624 440.108C373.205 437.731 371.316 434.728 369.138 432.109C366.789 429.284 364.435 426.429 362.658 423.209C358.867 416.345 357.075 409.184 357.634 401.433L357.528 401.444C356.506 408.107 357.365 414.225 359.434 420.673C360.477 423.9 361.702 427.05 362.669 430.259C363.566 433.209 363.681 436.307 364.472 439.198C364.9 440.759 364.916 442.225 364.709 443.669C363.67 442.438 362.466 441.373 361.086 440.603C353.315 436.304 350.288 423.838 351.24 415.868L351.134 415.844C349.03 423.886 351.838 431.617 351.867 439.698C351.866 441.523 351.723 443.361 351.569 445.175C350.166 442.791 348.858 440.301 347.144 438.194C344.901 435.404 343.559 432.053 342.792 428.585C335.778 397.009 366.507 372.106 394.071 366.064L394.06 365.852C381.133 364.59 367.21 374.437 358.307 382.455C353.732 386.558 349.21 391.197 346.232 396.63C342.43 403.512 340.185 410.765 338.628 418.481L338.622 418.511Z" fill="#0064FF"/>
<path d="M268.231 455.415C268.964 457.965 271.683 460.006 274.397 460.216C276.387 463.177 279.452 465.413 283.077 466.417C288.981 468.055 294.4 466.991 300.195 465.855C304.28 465.033 309.505 463.668 312.792 461.104C315.449 459.028 318.796 455.58 321.102 451.679C325.39 447.064 327.276 439.971 328.703 433.95C330.383 426.946 332.075 420.189 333.168 412.996C334.226 405.992 335.618 399.159 339.161 392.984L339.037 392.895C332.06 403.043 331.609 415.465 327.686 426.848C326.714 429.658 325.378 432.834 323.19 435.027C323.859 428.977 325.962 422.903 327.524 417.171C329.64 409.318 332.05 401.3 335.487 393.959C338.801 386.882 342.95 379.758 349.183 374.911C356.244 369.422 364.561 367.136 373.552 366.987L373.534 366.852C356.805 366.294 344.312 374.238 336.426 388.569C332.295 396.052 329.215 404.047 325.824 411.895C324.146 415.766 322.374 419.908 320.032 423.42C318.632 425.53 317.325 428.076 315.391 429.732L313.356 431.689L313.186 431.731C311.693 431.661 310.171 431.892 308.684 432.241C316.688 424.477 320.393 413.937 321.336 402.74L321.072 402.687C319.556 409.68 316.941 416.514 311.725 421.531C306.967 426.111 300.045 426.729 293.85 428.218C287.12 429.82 281.395 432.405 276.255 437.062C271.169 441.666 266.145 448.055 268.219 455.403L268.231 455.415Z" fill="#0064FF"/>
<path d="M289.755 320.147L290.371 320.765C291.412 320.346 292.264 319.633 293.428 319.455L294.01 319.46L294.65 319.584C294.879 320.072 295.131 320.49 294.803 319.466C295.788 322.551 299.319 323.308 301.885 324.749C304.211 326.066 305.937 328.02 307.922 329.762C309.208 330.921 310.224 331.88 311.91 332.498C312.985 332.891 314.095 333.179 315.146 333.679C317.484 334.772 319.445 336.809 321.518 338.309C323.738 339.921 326.152 341.303 328.619 342.573C333.312 344.943 338.182 346.865 343.323 348.233L343.335 348.162C337.636 346.4 332.167 344.007 327.246 340.819C324.597 339.096 322.125 337.136 319.893 334.912C318.86 333.888 317.921 332.534 317.552 331.103L317.37 330.237C318.281 330.337 319.215 330.377 320.144 330.541C321.906 330.823 323.691 332.93 325.001 333.995C327.684 336.189 330.568 338.113 333.757 339.589L333.816 339.483C330.527 337.412 327.721 334.811 325.096 331.992C324.122 330.944 323.329 329.879 322.825 328.631C323.53 328.819 324.294 328.948 324.975 329.136C327.09 329.699 325.545 329.011 326.879 329.322C327.737 329.51 328.47 330.411 329.087 330.946C330.367 332.1 331.4 333.383 332.469 334.725C334.682 337.521 336.53 340.505 339.126 342.989C343.189 346.92 349.051 348.953 354.745 349.826L354.774 349.761C349.141 347.627 343.671 346.177 339.42 341.822C337.13 339.48 335.482 336.389 334.28 333.321C333.042 330.23 331.87 327.133 331.373 323.771C331.295 318.54 326.655 315.163 322.58 312.505C320.442 311.105 318.051 309.793 315.419 309.395C313.092 309.055 309.966 309.175 307.773 310.632C306.497 311.122 305.075 311.688 303.817 311.772C302.248 311.862 300.638 312.252 299.116 312.742C296.718 313.557 293.543 315.385 292.125 317.677C291.073 318.238 290.173 319.022 289.743 320.135L289.755 320.147ZM299.978 314.243L299.955 314.267L299.679 314.296L299.972 314.249L299.978 314.243ZM295.105 316.291C294.67 316.833 294.605 316.91 294.911 316.521L294.694 316.597L295.099 316.297L295.105 316.291Z" fill="#0064FF"/>
<path d="M307.351 467.884C302.145 468.254 299.02 473.08 296.578 477.293C295.29 479.515 294.112 481.978 293.846 484.634C293.627 486.984 293.912 490.112 295.473 492.219C296.025 493.467 296.664 494.862 296.81 496.117C296.979 497.677 297.442 499.273 298.017 500.769C298.955 503.124 300.938 506.197 303.294 507.497C303.91 508.515 304.732 509.374 305.866 509.744L306.454 509.096C305.973 508.072 305.221 507.259 304.981 506.099L304.958 505.522L305.053 504.874C305.523 504.615 305.935 504.343 304.93 504.727C307.951 503.57 308.524 499.994 309.825 497.349C311.014 494.945 312.872 493.117 314.507 491.031C315.595 489.681 316.495 488.615 317.026 486.894C317.367 485.799 317.592 484.668 318.033 483.589C319.011 481.186 320.922 479.117 322.316 476.954C323.811 474.644 325.059 472.157 326.201 469.612C328.32 464.781 329.981 459.808 331.084 454.583L331.014 454.571C329.558 460.374 327.449 465.983 324.531 471.074C322.948 473.814 321.118 476.401 319.024 478.759C318.066 479.849 316.748 480.863 315.35 481.312L314.497 481.543C314.545 480.624 314.54 479.687 314.658 478.745C314.848 476.966 316.859 475.068 317.853 473.695C319.906 470.883 321.672 467.902 322.973 464.62L322.867 464.573C320.972 467.979 318.525 470.938 315.855 473.708C314.861 474.74 313.844 475.594 312.627 476.167C312.775 475.454 312.869 474.676 313.017 473.987C313.471 471.837 312.859 473.416 313.107 472.073C313.248 471.201 314.107 470.411 314.613 469.775C315.701 468.425 316.924 467.328 318.2 466.179C320.87 463.809 323.751 461.804 326.086 459.063C329.791 454.784 331.512 448.799 332.087 443.056L332.022 443.026C330.19 448.782 329.016 454.337 324.899 458.829C322.682 461.251 319.695 463.068 316.697 464.437C313.682 465.847 310.654 467.186 307.334 467.866L307.351 467.884ZM301.997 504.782L302.085 504.988L301.762 504.594C302.326 505.006 302.403 505.059 302.003 504.776L301.997 504.782ZM299.492 499.855L299.533 500.131L299.475 499.837L299.492 499.855Z" fill="#0064FF"/>
<path d="M231.819 364.836C232.248 365.219 232.712 365.519 233.229 365.801C233.881 366.16 234.28 366.702 234.861 367.155C235.631 367.761 236.347 368.691 237.081 369.379L237.351 369.603L237.215 371.175C237.535 373.985 238.298 375.928 240.27 378.07C241.674 379.618 243.541 380.9 245.356 381.906C248.915 383.906 252.898 385.21 256.852 386.131C261.018 387.076 265.73 387.873 269.973 386.975C275.204 385.863 280.053 384.004 284.727 381.508C289.248 379.108 293.915 377.007 298.471 374.653C303.527 372.022 308.981 370.074 314.254 367.885C320.032 365.518 325.775 363.022 331.612 360.82C337.32 358.654 343.074 357.348 349.179 356.913C356.343 356.394 363.576 357.066 370.668 358.161L370.685 358.108C359.704 356.133 348.352 355.27 337.444 357.941C331.837 359.312 326.411 361.667 321.039 363.756C315.243 366.034 309.465 368.342 303.487 370.179C293.724 373.161 284.301 377.474 273.783 376.753C273.161 376.718 272.538 376.671 271.915 376.636C272.097 376.642 270.334 376.443 270.663 376.502C270.704 376.508 270.746 376.514 270.781 376.525C270.728 376.519 270.687 376.514 270.663 376.502C269.794 376.373 268.924 376.197 268.037 376.121C268.172 376.127 266.028 375.817 266.938 375.963C265.969 375.793 265.017 375.664 264.053 375.535C264.653 375.394 265.252 375.275 265.799 375.128C272.07 373.609 278.453 372.049 284.366 369.499L284.32 369.429C278.606 371.636 272.305 373.302 266.083 372.96C263.879 372.862 261.7 372.469 259.526 371.94C261.806 371.267 263.993 370.405 265.962 369.467C269.242 367.898 272.505 366.134 275.961 364.953C279.794 363.666 283.69 362.621 287.681 361.858C295.233 360.408 303.612 360.496 310.502 364.371L310.567 364.283C298.01 356.684 282.774 362.315 269.329 363.045C266.056 363.218 262.747 363.392 259.492 363.371C255.267 363.321 251.047 363.902 246.811 363.617C244.866 363.471 242.932 363.596 240.97 363.598C239.877 363.611 238.778 363.617 237.679 363.624C236.88 363.613 235.758 363.479 234.964 363.674C234.177 363.886 232.831 363.316 232.115 362.893C230.752 362.116 230.366 360.22 230.12 358.818L229.644 358.86C229.507 361.293 229.929 363.142 231.796 364.836L231.819 364.836Z" fill="#0064FF"/>
<path d="M286.569 386.793C288.249 386.627 289.853 386.997 291.551 387.096C293.249 387.206 294.807 387.187 296.464 386.927C299.978 386.358 303.252 385.137 306.233 383.444C308.926 381.875 311.202 379.558 313.448 377.507C318.188 373.192 347.831 354.273 363.117 358.418C345.569 353.668 319.411 371.482 313.733 373.796C308.137 376.098 301.99 376.892 296.23 378.793C293.308 379.744 290.557 381.006 288.252 382.822C287.1 383.719 285.818 384.309 284.513 385.016C283.026 385.801 281.703 386.656 279.852 386.616L279.823 386.823C282.078 387.634 284.347 387.078 286.569 386.817L286.569 386.793Z" fill="#0064FF"/>
<path d="M335.89 321.71C337.744 325.148 339.822 328.351 342.54 331.205C374.655 364.916 399.678 355.689 407.797 357.509L407.85 357.232C397.316 355.668 368.527 357.759 358.43 329.896C357.328 326.87 355.685 324.303 354.218 321.442C351.678 316.632 349.35 310.962 345.198 307.367C341.56 301.551 339.592 293.625 342.523 286.872C344.908 281.399 349.581 272.772 356.169 271.336C359.883 270.555 364.161 270.94 366.985 273.559C369.487 275.83 370.8 279.01 368.7 282.08C367.194 284.284 365.018 286.065 362.62 287.233C361.926 287.587 359.099 288.526 357.548 288.173C359.429 287.465 360.911 286.109 361.406 283.977C362.633 278.475 355.549 275.005 351.65 279.185C349.885 281.083 349.589 283.933 350.945 286.059C351.855 287.136 352.084 287.412 351.679 286.936L352.248 287.624C352.8 288.177 352.999 289.261 353.815 289.855C354.532 290.373 355.389 290.796 356.253 291.061C360.177 292.353 364.692 290.206 367.45 287.311C369.608 285.054 372.644 280.976 371.454 277.684C367.889 267.91 354.22 268.51 347.369 274.953C337.131 284.58 334.106 297.958 334.013 311.163C333.157 314.904 333.925 317.984 335.902 321.71L335.89 321.71Z" fill="#0064FF"/>
<path d="M231.162 393.852C230.59 392.207 229.539 390.568 228.214 389.19C226.969 385.824 224.249 382.794 221.669 380.866C217.429 377.71 212.098 377.141 207.033 378.868C205 379.571 202.772 379.784 200.674 380.272C198.408 380.8 196.131 381.326 193.808 381.417C188.86 381.61 184.302 380.587 180.079 378.057L180.054 378.114C183.525 380.603 187.23 381.861 191.459 382.521C193.579 382.844 195.705 383.05 197.792 383.422C199.712 383.751 201.499 384.569 203.358 384.945C204.361 385.15 205.19 385.556 205.95 386.084C204.958 386.326 204.014 386.699 203.186 387.271C198.556 390.463 190.649 388.624 186.424 385.809L186.378 385.869C190.328 389.357 195.488 389.972 200.064 392.259C201.096 392.783 202.095 393.386 203.076 393.988C201.332 394.106 199.552 394.137 197.881 394.511C195.665 394.989 193.39 394.795 191.216 394.243C171.387 389.218 166.034 364.644 170.444 347.254L170.322 347.201C165.946 354.186 167.557 364.913 169.565 372.261C170.583 376.032 171.919 379.922 174.147 383.17C176.96 387.289 180.416 390.64 184.332 393.728C188.243 396.802 192.445 399.679 196.645 402.338C198.741 403.663 201.98 403.977 204.38 404.349C207.202 404.791 209.92 405.167 212.794 405.404C215.575 405.656 218.413 406.18 221.197 405.53C222.559 405.214 223.719 405.214 225.066 404.623L225.456 404.428C225.42 404.467 225.377 404.553 225.858 404.552C226.19 404.546 226.519 404.547 226.846 404.559C228.238 404.668 229.554 405.005 230.761 405.527C231.12 405.787 231.535 405.984 231.994 406.145C233.924 407.267 235.516 408.919 236.569 411.063C236.701 411.327 237.069 411.182 237.087 410.924C237.368 407.77 235.163 405.817 232.96 403.956C231.89 400.686 232.282 397.106 231.167 393.834L231.162 393.852Z" fill="#0064FF"/>
<path d="M341.897 228.588C340.22 229.045 338.515 229.982 337.051 231.212C333.615 232.222 330.411 234.731 328.312 237.177C324.876 241.197 323.94 246.488 325.306 251.673C325.864 253.754 325.921 255.997 326.262 258.129C326.629 260.431 326.995 262.745 326.923 265.074C326.772 270.035 325.437 274.52 322.625 278.568L322.681 278.597C325.399 275.299 326.908 271.682 327.859 267.499C328.328 265.401 328.68 263.29 329.196 261.229C329.657 259.332 330.595 257.603 331.099 255.77C331.373 254.781 331.835 253.98 332.412 253.257C332.584 254.266 332.891 255.235 333.402 256.104C336.257 260.955 333.877 268.733 330.782 272.762L330.838 272.813C334.585 269.106 335.555 263.988 338.149 259.572C338.743 258.576 339.412 257.62 340.079 256.68C340.076 258.433 339.983 260.214 340.239 261.911C340.561 264.16 340.209 266.422 339.509 268.557C333.129 288.034 308.3 291.679 291.298 286.061L291.236 286.178C297.885 291.04 308.673 290.175 316.125 288.677C319.949 287.922 323.914 286.857 327.302 284.854C331.597 282.328 335.172 279.106 338.518 275.405C341.849 271.708 345.005 267.706 347.943 263.691C349.407 261.687 349.945 258.47 350.483 256.097C351.118 253.306 351.682 250.614 352.118 247.757C352.561 244.994 353.28 242.192 352.826 239.364C352.607 237.98 352.687 236.82 352.193 235.432L352.026 235.028C352.062 235.067 352.145 235.116 352.177 234.635C352.195 234.303 352.218 233.974 352.253 233.648C352.458 232.263 352.885 230.971 353.489 229.801C353.772 229.459 353.997 229.058 354.189 228.611C355.44 226.759 357.195 225.282 359.402 224.377C359.674 224.265 359.556 223.887 359.299 223.85C356.181 223.35 354.083 225.419 352.078 227.492C348.749 228.335 345.213 227.694 341.879 228.582L341.897 228.588Z" fill="#0064FF"/>
<path d="M508.561 111.821C516.469 128.727 521.535 147.09 523.483 165.384C526.34 192.232 524.332 221.607 513.887 246.39C506.717 263.345 493.553 278.418 475.591 283.476C466.009 286.161 455.991 286.298 446.058 285.741C442.942 285.564 439.743 285.355 436.527 285.026C434.876 284.656 433.241 284.231 431.602 283.76C429.231 282.835 426.884 281.734 424.52 280.358C421.634 278.706 418.744 276.939 415.646 275.845C412.604 273.351 409.63 270.723 406.961 267.826C400.488 260.758 397.563 252.704 396.258 244.011C396.224 243.489 396.247 242.921 396.226 242.316C396.232 240.511 396.278 238.715 396.472 236.919L396.469 236.885L396.571 236.445C396.463 236.886 396.868 234.162 397.034 233.022C397.316 231.231 397.71 229.424 398.252 227.685C398.433 227.089 398.658 226.53 398.862 225.966C399.048 225.572 399.389 224.733 399.485 224.535C400.31 222.898 401.18 221.304 402.225 219.795L403.315 218.329C403.781 217.768 404.219 217.19 404.723 216.679C405.645 215.673 406.544 214.629 407.586 213.746L409.166 212.364C410.683 211.257 412.251 210.186 413.92 209.274C414.796 208.797 415.679 208.32 416.582 207.915L417.117 207.672L417.6 207.527C419.41 206.905 421.279 206.359 423.166 206C423.738 205.874 424.321 205.788 424.877 205.704L425.05 205.688C426.011 205.628 426.96 205.59 427.919 205.577C429.605 205.6 431.303 205.689 432.966 205.903C433.418 206.003 434.557 206.203 434.708 206.244C435.663 206.494 436.621 206.704 437.561 207.01C438.507 207.302 439.461 207.613 440.391 207.96L442.211 208.725C443.65 209.437 445.041 210.2 446.408 211.006C437.594 208.785 428.382 209.388 419.506 210.662L419.524 210.714C429.509 209.529 441.924 209.856 449.717 217.511C450.856 218.607 451.587 220.023 452.253 221.458C447.815 218.518 442.941 216.473 437.94 215.396C435.971 214.536 433.995 213.758 432.037 212.945L432.014 212.994C433.578 213.675 435.165 214.38 436.723 215.148C426.501 213.31 415.944 215.591 407.822 223.088L407.867 223.138C417.155 215.401 433.366 212.811 443.894 220.347C440.58 218.714 436.384 217.719 432.962 219.207C431.59 219.762 428.931 219.443 427.38 219.657C425.498 219.915 423.706 220.36 421.885 220.922C407.635 225.415 399.666 240.429 402.425 255.289L402.59 255.261C400.93 242.915 406.678 228.567 419.284 225.205C422.245 224.405 425.283 224.171 428.358 224.863C430.056 225.242 430.929 225.473 432.063 226.671C432.459 227.046 432.832 227.463 433.19 227.855L433.348 228.043C433.466 228.693 433.637 229.768 433.575 228.629C433.627 229.661 433.791 230.657 434.074 231.649C434.084 231.681 434.095 231.728 434.114 231.793C434.103 231.747 434.092 231.701 434.074 231.649C433.981 231.361 434.039 232.224 434.098 232.96C429.276 235.962 427.638 242.59 430.586 247.699L430.938 248.173C428.745 252.736 431.039 258.995 435.898 260.577C437.925 263.202 442.003 264.525 444.966 264.944C449.337 265.573 453.975 265.295 458.148 263.881C459.23 263.521 460.328 263.051 461.427 262.514C462.429 262.093 463.359 261.686 464.091 261.249C464.549 260.965 465.012 260.667 465.499 260.347C466.987 259.58 468.367 258.586 469.618 257.422C479.36 249.597 485.591 237.637 482.964 224.766C482.9 223.532 482.758 222.245 482.476 220.903C481.49 215.684 478.421 211.024 475.08 207.008C471.086 202.209 466.695 198.894 462.167 195.545C458.744 192.998 455.156 190.85 451.322 189.095C442.836 185.241 433.361 182.762 424.12 183.779C405.552 185.841 387.641 196.984 380.039 214.888C378.318 218.957 376.743 223.074 376.141 227.5C375.465 232.512 375.601 236.865 376.334 241.884C376.423 242.503 376.562 243.069 376.673 243.639C376.648 244.773 376.688 245.961 376.91 247.167C377.831 252.338 379.959 256.969 382.031 261.732C383.836 265.988 386.082 270.965 389.281 274.758C395.596 284.844 404.749 292.545 416.493 295.848C425.207 298.294 434.711 299.153 443.65 299.329C453.84 299.527 464.179 298.107 473.591 294.286C508.867 280.018 522.382 238.94 525.174 203.068C526.732 182.719 525.357 161.975 520.039 142.092C517.201 131.497 513.298 121.449 508.573 111.813L508.561 111.821ZM449.37 249.154L449.202 248.934L449.403 248.633C449.746 248.265 450.056 247.833 450.363 247.448C450.121 247.887 449.777 248.538 449.37 249.154ZM475.994 244.095C476.28 243.624 476.555 243.175 476.857 242.723C476.563 243.336 476.267 243.929 475.938 244.517L475.994 244.095Z" fill="#0064FF"/>
<path d="M504.016 123.535C509.974 140.618 511.509 159.555 509.029 177.118C508.298 182.27 507.243 187.248 505.991 192.272C504.784 197.056 502.896 201.504 501.536 206.228C499.161 214.586 496.696 222.98 493.762 231.16C493.169 232.85 492.476 234.549 491.797 236.248C487.839 242.742 485.068 249.903 480.917 256.347C478.258 260.501 474.784 264.251 470.935 267.475C468.735 268.974 466.388 270.337 464.034 271.54C457.773 274.74 450.561 277.278 443.369 276.614C435.463 275.846 428.66 271.369 422.831 266.021L422.421 266.456C426.408 270.582 430.838 274.183 436.046 276.582C449.108 282.609 463.76 277.971 475.041 270.539L475.371 270.327C477.958 271.784 481.298 273.193 483.863 272.989C488.409 272.652 492.746 270.448 495.927 267.17C498.735 264.303 500.777 260.454 502.265 256.399C502.906 255.176 503.408 253.824 503.841 252.444C504.272 251.57 504.609 250.691 504.908 249.909C506.828 244.771 508.116 239.327 508.955 233.882C510.22 225.644 511.862 217.197 512.185 208.849C512.416 201.937 511.825 194.776 510.705 187.838C510.852 182.389 511.106 176.93 511.007 171.503C510.823 161.995 510.924 152.603 509.291 143.172C508.119 136.407 506.308 129.929 504.01 123.548L504.016 123.535Z" fill="#0064FF"/>
<path d="M501.85 137.128C504.443 146.041 504.655 156.382 500.671 164.825C497.45 171.684 493.105 178.509 486.249 181.796C482.399 181.073 478.987 182.897 476.196 185.81C473.229 188.921 472.761 193.712 474.806 197.427C474.661 198.579 474.708 199.767 475.149 200.872C476.93 205.534 479.532 208.054 484.464 208.801C486.952 209.162 490.204 207.952 491.932 206.199C492.588 205.507 493.066 204.703 493.443 203.827L493.909 203.407C494.418 202.883 494.745 202.187 495.161 201.59C496.063 200.276 495.403 198.611 496.046 197.253C497.468 194.268 499.172 191.656 499.908 188.356C500.31 186.555 500.621 184.715 500.954 182.899C501.199 181.517 500.946 180.044 501.587 178.74L501.438 178.659C498.95 181.423 498.737 185.848 497.204 189.173C496.284 191.176 494.935 192.584 493.48 194.164L492.933 194.725C493.791 192.546 493.985 190.231 493.187 187.777C493.445 186.245 493.763 184.708 494.344 183.261C495.205 181.122 496.298 179.097 497.263 176.995C499.211 172.912 500.868 168.815 502.208 164.464C504.972 155.363 505.127 146.269 502.112 137.064L501.856 137.127L501.85 137.128Z" fill="#0064FF"/>
<path d="M493.13 316.124C485.989 314.3 478.954 312.492 471.504 311.968C467.796 311.726 464.065 311.735 460.355 311.924C462.797 312.071 484.569 315.875 489.191 320.442C491.473 322.669 493.588 325.127 495.303 327.743C497.131 330.51 497.674 333.117 498.391 336.228C499.509 340.882 506.019 342.35 509.82 339.943C513.423 337.688 514.158 333.278 512.005 329.854C510.953 328.192 507.39 322.536 503.078 320.56C499.76 319.033 496.704 317.056 493.124 316.118L493.13 316.124Z" fill="#0064FF"/>
<path d="M171.754 429.301C184.589 422.726 199.748 428.459 209.442 437.708C214.346 442.412 218.732 448.16 219.683 455.045C219.942 456.945 220.131 458.943 219.879 460.878C219.296 458.863 218.485 456.841 217.351 454.886C218.676 457.192 218.396 456.723 216.567 453.432C215.966 452.248 215.126 451.269 213.972 450.483C213.411 449.927 212.759 449.545 212.159 449.016C210.133 447.057 208.101 445.236 205.175 444.802L204.749 444.718L204.211 444.448C203.383 444.049 203.05 443.846 202.307 443.374C200.36 442.144 198.364 440.933 196.239 440.068C186.454 435.967 174.177 435.178 163.825 437.66C141.977 442.837 127.784 457.643 115.93 475.743L115.996 475.802C125.046 462.48 138.699 448.005 154.782 443.461C162.925 441.149 171.748 441.105 179.714 444.059C184.549 445.895 191.588 448.806 194.243 453.661C194.174 454.858 194.3 456.032 194.717 457.208L194.876 456.484L194.761 457.418L194.79 457.557L194.74 457.449C194.566 458.622 194.45 459.856 194.564 461.059L194.515 461.388C194.448 462.248 194.328 463.109 194.265 463.986C194.229 464.994 194.194 465.783 194.188 466.367L194.194 465.783L194.134 466.678C194.046 467.433 193.926 468.167 193.728 468.918L193.476 469.671L192.175 472.152C191.806 472.693 191.445 473.187 191.046 473.67C190.552 474.265 190.036 474.845 189.479 475.398L188.382 476.328C186.72 476.984 185.214 478.09 183.949 479.391L183.076 479.737L182.397 479.834L182.037 479.855L181.183 479.679L180.599 479.446L179.645 478.709L179.152 478.085C184.802 473.448 186.291 465.362 181.833 459.438C178.321 454.789 171.585 452.678 166.028 455.058C158.486 458.29 151.932 465.789 151.339 474.206C150.123 492.51 166.501 510.172 185.934 506.792C189.643 506.144 193.338 504.862 196.864 503.07C203.317 503.34 210.133 501.688 215.567 498.933C219.309 497.051 224.839 494.058 227.088 490.369C229.504 486.39 232.361 481.21 231.497 476.362C231.28 475.144 231.007 473.964 230.668 472.816L231.054 474.145C230.898 473.441 230.791 472.882 230.671 472.479C230.624 471.38 230.369 470.415 229.926 469.425L229.843 468.806C229.479 466.272 228.88 463.697 228.045 461.298C226.385 456.553 224.423 452.19 221.633 447.999C211.403 432.679 190.434 417.713 171.637 429.044L171.752 429.247L171.754 429.301ZM195.99 454.633C196.59 453.062 196.575 453.165 196.011 454.91L195.99 454.633ZM180.559 484.801L180.066 484.531L179.994 484.446L180.559 484.801ZM179.461 484.112L179.438 484.09L179.437 484.081L179.463 484.121L179.461 484.112Z" fill="#0064FF"/>
<path d="M119.167 475.875C114.218 481.347 109.332 486.733 105.384 493.087C103.436 496.258 101.698 499.568 100.129 502.942C101.402 500.848 114.942 483.342 121.132 481.384C124.163 480.405 127.32 479.681 130.43 479.386C133.724 479.061 136.277 479.8 139.355 480.62C143.982 481.808 148.323 476.727 147.978 472.234C147.676 467.987 144.131 465.273 140.105 465.578C138.148 465.733 131.493 466.242 127.734 469.138C124.834 471.362 121.661 473.144 119.159 475.877L119.167 475.875Z" fill="#0064FF"/>
<path d="M109.978 494.601C106.299 498.67 102.664 502.686 99.7129 507.413C98.2523 509.782 96.9738 512.241 95.7969 514.751C96.7545 513.196 106.827 500.16 111.44 498.705C113.695 497.97 116.046 497.433 118.363 497.212C120.812 496.973 122.709 497.531 125.006 498.133C128.434 499.017 131.673 495.239 131.431 491.889C131.2 488.727 128.562 486.706 125.574 486.93C124.107 487.046 119.16 487.416 116.356 489.576C114.2 491.226 111.833 492.558 109.967 494.594L109.978 494.601Z" fill="#0064FF"/>
<path d="M544.141 531.555C527.051 533.037 509.605 531.595 493.207 527.473C469.142 521.424 444.438 510.357 426.37 493.441C414.015 481.846 405.185 465.658 406.514 448.493C407.234 439.341 410.29 430.62 413.919 422.193C415.059 419.55 416.253 416.845 417.556 414.164C418.398 412.852 419.282 411.57 420.209 410.3C421.757 408.54 423.451 406.857 425.387 405.245C427.727 403.27 430.167 401.328 432.092 398.992C435.207 397.149 438.417 395.408 441.762 394.015C449.91 390.653 457.785 390.676 465.697 392.306C466.159 392.443 466.641 392.643 467.169 392.817C468.725 393.395 470.26 394.005 471.747 394.744L471.777 394.752L472.125 394.979C471.779 394.746 474 395.962 474.931 396.468C476.386 397.28 477.82 398.196 479.149 399.217C479.606 399.563 480.017 399.935 480.439 400.291C480.72 400.578 481.335 401.139 481.475 401.285C482.626 402.52 483.726 403.78 484.696 405.164L485.615 406.573C485.951 407.155 486.312 407.718 486.592 408.317C487.168 409.435 487.784 410.546 488.215 411.728L488.907 413.535C489.381 415.201 489.808 416.899 490.066 418.634C490.199 419.545 490.331 420.461 490.394 421.372L490.435 421.912L490.407 422.377C490.369 424.142 490.248 425.935 489.96 427.683C489.887 428.219 489.777 428.751 489.673 429.259L489.632 429.414C489.379 430.265 489.111 431.1 488.818 431.934C488.264 433.387 487.649 434.83 486.938 436.203C486.708 436.562 486.175 437.485 486.092 437.603C485.573 438.351 485.089 439.114 484.527 439.831C483.976 440.558 483.405 441.285 482.811 441.981L481.574 443.314C480.504 444.335 479.405 445.297 478.276 446.226C482.985 439.296 485.384 431.125 487.098 423.032L487.047 423.031C484.906 432.056 480.69 442.706 471.616 447.027C470.31 447.665 468.857 447.849 467.408 447.97C471.35 445.059 474.659 441.487 477.173 437.497C478.539 436.064 479.836 434.6 481.158 433.161L481.123 433.126C480.04 434.265 478.929 435.415 477.772 436.521C482.597 428.25 483.975 418.382 480.082 408.966L480.024 408.989C483.755 419.491 480.852 434.356 471.015 441.082C473.474 438.73 475.662 435.412 475.463 431.975C475.419 430.61 476.537 428.408 476.843 426.997C477.218 425.284 477.402 423.591 477.494 421.835C478.133 408.066 467.707 396.396 454.014 394.067L453.986 394.219C465.162 396.701 475.718 406.235 474.623 418.223C474.375 421.041 473.614 423.747 472.042 426.191C471.178 427.541 470.702 428.224 469.309 428.826C468.86 429.05 468.382 429.241 467.93 429.426L467.718 429.503C467.121 429.4 466.138 429.206 467.141 429.514C466.234 429.231 465.323 429.057 464.378 428.988C464.346 428.986 464.303 428.98 464.24 428.976C464.284 428.982 464.327 428.987 464.378 428.988C464.656 428.999 463.892 428.774 463.239 428.592C462.177 423.462 456.979 419.938 451.637 420.87L451.118 421.024C447.876 417.676 441.75 417.675 438.846 421.382C435.938 422.305 433.505 425.417 432.205 427.85C430.277 431.436 429.047 435.542 428.944 439.606C428.913 440.657 428.97 441.758 429.085 442.88C429.13 443.882 429.187 444.816 429.332 445.589C429.431 446.076 429.542 446.571 429.663 447.096C429.854 448.628 430.274 450.139 430.881 451.592C434.544 462.515 442.887 471.71 454.822 473.521C455.907 473.858 457.062 474.143 458.309 474.325C463.124 475.128 468.116 473.949 472.639 472.331C478.045 470.395 482.296 467.644 486.62 464.785C489.902 462.629 492.891 460.203 495.621 457.439C501.634 451.313 506.775 443.892 508.826 435.564C512.931 418.827 508.995 399.774 495.959 387.504C492.994 384.722 489.943 382.05 486.315 380.123C482.206 377.946 478.408 376.682 473.846 375.724C473.284 375.604 472.751 375.544 472.225 375.46C471.255 375.078 470.217 374.735 469.106 374.545C464.354 373.701 459.685 374.073 454.919 374.356C450.676 374.568 445.671 374.933 441.385 376.5C430.683 378.768 421.14 384.251 414.568 393.374C409.697 400.146 405.944 408.105 402.96 415.793C399.561 424.556 397.509 433.962 397.822 443.328C398.952 478.415 430.104 503.165 460.164 516.973C477.224 524.784 495.554 530.179 514.39 531.886C524.43 532.792 534.334 532.601 544.144 531.569L544.141 531.555ZM444.43 436.678L444.673 436.603L444.869 436.873C445.078 437.286 445.353 437.692 445.587 438.081C445.285 437.731 444.832 437.227 444.43 436.678ZM440.358 461.346C440.673 461.744 440.973 462.125 441.267 462.529C440.832 462.08 440.414 461.636 440.011 461.164L440.358 461.346Z" fill="#0064FF"/>
<path d="M535.477 523.897C518.853 523.633 502.03 518.95 487.666 511.226C483.453 508.957 479.492 506.462 475.556 503.783C471.811 501.218 468.573 498.171 464.929 495.493C458.471 490.782 452.012 485.981 445.886 480.842C444.615 479.792 443.369 478.652 442.119 477.525C437.771 472.034 432.472 467.36 428.228 461.719C425.487 458.096 423.354 453.897 421.793 449.539C421.197 447.157 420.764 444.692 420.472 442.27C419.696 435.832 419.793 428.778 422.644 422.76C425.812 416.155 431.83 411.684 438.29 408.333L438.045 407.84C433.222 409.984 428.712 412.678 424.993 416.427C415.654 425.827 415.012 439.991 417.848 452.123L417.926 452.476C415.849 454.254 413.575 456.7 412.939 458.987C411.789 463.031 412.316 467.488 414.136 471.283C415.719 474.626 418.392 477.618 421.419 480.193C422.271 481.137 423.278 482.002 424.331 482.815C424.948 483.466 425.6 484.037 426.179 484.544C430.003 487.838 434.292 490.683 438.722 493.138C445.428 496.85 452.194 500.954 459.293 503.884C465.182 506.279 471.547 508.041 477.887 509.273C482.541 511.131 487.169 513.084 491.882 514.722C500.143 517.581 508.213 520.651 516.866 522.231C523.073 523.364 529.235 523.853 535.467 523.888L535.477 523.897Z" fill="#0064FF"/>
<path d="M524.435 517.707C515.924 517.123 506.936 514.024 500.916 507.892C496.02 502.924 491.509 496.994 490.846 490.011C492.69 486.906 492.198 483.372 490.569 480.029C488.826 476.471 484.841 474.544 480.988 475.136C480.041 474.645 479.001 474.308 477.908 474.34C473.322 474.402 470.324 475.856 468.117 479.89C467.017 481.931 467.03 485.133 467.994 487.186C468.384 487.973 468.926 488.643 469.562 489.248L469.776 489.784C470.067 490.392 470.564 490.896 470.947 491.446C471.795 492.644 473.44 492.601 474.408 493.589C476.532 495.769 478.246 498.075 480.859 499.76C482.285 500.68 483.774 501.534 485.234 502.399C486.35 503.05 487.7 503.298 488.622 504.267L488.739 504.164C487.143 501.131 483.394 499.542 481.011 497.159C479.575 495.725 478.788 494.109 477.886 492.348L477.575 491.696C479.183 493.131 481.118 494.034 483.488 494.122C484.728 494.832 485.953 495.596 487.017 496.558C488.59 497.983 489.99 499.573 491.497 501.076C494.402 504.059 497.411 506.796 500.74 509.338C507.715 514.622 515.51 517.644 524.407 517.955L524.433 517.713L524.435 517.707Z" fill="#0064FF"/>
<path d="M378.986 160.767C373.6 157.234 368.296 153.744 362.287 151.198C359.291 149.946 356.205 148.896 353.086 147.999C355.062 148.814 371.982 158.132 374.512 163.218C375.769 165.705 376.823 168.337 377.503 170.986C378.232 173.79 377.945 176.099 377.659 178.873C377.268 183.037 382.235 186.097 386.055 185.185C389.67 184.344 391.522 180.907 390.71 177.467C390.309 175.795 388.962 170.11 385.956 167.254C383.645 165.051 381.678 162.55 378.983 160.759L378.986 160.767Z" fill="#0064FF"/>
<path d="M384.395 89.2868C385.393 86.5753 387.644 84.3394 389.446 82.2096C391.395 79.8401 393.017 76.9488 394.622 74.3465C397.657 69.3835 401.485 64.5792 404.004 59.267C406.501 53.9664 408.582 48.2259 412.27 43.6488C415.92 39.1082 421.307 35.2486 426.28 32.474C435.746 27.1872 446.214 23.3061 456.872 21.7249L456.853 21.6723C444.86 23.521 433.276 26.5895 422.52 32.6946C417.163 35.7467 411.972 39.3533 406.505 42.125C400.793 45.0051 395.165 48.1834 390.407 52.5985C384.664 57.9592 380.173 64.4531 377.675 72.0684C375.557 78.429 377.024 85.4423 377.857 91.9385C378.485 96.6915 378.193 101.378 379.103 106.045L383.339 108.498C381.897 102.199 382.042 95.5952 384.385 89.2895L384.395 89.2868Z" fill="#0064FF"/>
<path d="M416.24 69.7221C411.925 76.3125 408.01 83.052 403.627 89.5334C399.09 96.2672 395.536 103.317 393.098 111.05C391.146 117.321 391.784 124.502 392.787 130.895C393.714 137.008 395.303 143.159 398.01 148.785C399.385 151.64 401.171 154.61 403.432 156.934C406.588 160.193 409.578 161.588 413.973 162.43C414.85 162.599 415.681 162.58 416.484 162.452L416.803 162.888C417.792 164.074 419.188 165.271 420.048 166.504C420.681 167.441 421.488 168.131 421.975 169.156C422.344 169.958 422.779 170.691 423.321 171.388C425.755 174.43 428.663 175.305 432.5 175.407C432.907 175.418 433.067 174.817 432.642 174.711C430.448 174.15 427.499 173.317 426.42 171.161C425.844 170.032 425.133 167.923 425.567 166.757C425.992 165.577 425.876 163.894 425.982 162.698C426.134 161.034 426.278 159.383 426.439 157.717C426.702 154.792 427.137 151.889 427.172 148.936C427.245 142.521 428.685 136.26 429.153 129.89C429.522 124.972 430.227 120.014 430.913 115.128C433.792 94.9445 444.641 72.7564 434.202 52.8657L434.061 52.9316C439.297 63.807 438.383 76.4419 435.139 87.6357C433.421 93.5445 431.28 99.2894 428.747 104.899C426.452 109.946 423.234 114.637 420.345 119.368C418.591 122.205 416.949 125.387 415.583 128.728C415.037 125.408 414.679 122.058 414.799 118.712C415.049 109.305 418.497 100.024 422.703 91.7123L422.585 91.6413C417.807 100.203 414.539 109.618 411.321 118.853C411.014 119.684 410.745 120.563 410.459 121.457C410.373 119.977 410.264 118.534 410.128 117.04C410.266 118.434 410.047 115.16 410.04 115.367C410.02 113.96 409.84 112.566 409.722 111.167C409.819 112.335 409.719 109.158 409.721 109.462C409.713 108.524 409.716 107.569 409.75 106.631C409.976 90.6907 417.981 77.0743 423.96 62.7618C427.638 54.0229 431.999 45.621 436.357 37.1833C437.89 34.1954 439.477 31.1731 441.008 28.1333C440.974 26.9451 440.871 25.7578 440.808 24.5769C436.978 32.0566 432.913 39.4362 428.964 46.861C424.831 54.5354 421.04 62.4673 416.245 69.7419L416.24 69.7221Z" fill="#0064FF"/>
<path d="M442.284 99.4468C439.967 80.1469 444.611 60.755 450.645 42.2359C444.693 59.1987 438.895 76.2705 440.093 94.6264C440.538 100.725 441.559 106.553 443.469 112.382C445.566 118.861 447.904 124.79 448.418 131.609C448.922 137.86 446.585 144.435 447.857 150.708C448.231 152.623 449.101 154.746 449.973 156.712L449.91 157.36C449.515 159.572 448.631 162.208 445.865 162.377C444.312 162.459 442.802 162.274 441.325 161.908C439.966 160.861 438.746 159.639 438.042 158.201C437.444 156.978 436.445 156.031 436.359 154.641C436.227 153.691 436.491 152.78 437.028 151.918C437.919 152.071 438.791 152.213 439.667 152.349C439.831 153.135 439.848 153.914 439.707 154.691C439.546 155.974 441.527 156.117 441.747 154.861C442.202 152.116 441.011 147.24 437.05 148.526C434.121 149.508 431.934 152.896 431.327 155.741C430.559 159.199 431.638 162.034 433.818 164.84C438.081 170.361 444.901 174.265 452.072 174.257C468.745 174.238 480.596 162.981 482.634 146.405C483.526 139.065 483.575 131.743 481.242 125.933C479.512 121.643 476.237 117.84 473.383 114.242C470.242 110.244 467.173 106.224 464.285 102.044C458.602 93.8339 453.886 84.8862 452.019 75.0593C450.243 65.6803 451.105 56.2732 453.186 47.0334L453.107 47.0109C449.097 60.8395 449.134 74.7715 454.761 88.351C458.208 96.6318 463.307 104.222 466.56 112.628C468.215 116.932 469.472 121.823 468.833 126.405L468.756 127.312C467.152 125.724 465.492 124.186 464.203 122.395C456.866 112.165 446.881 100.936 447.357 87.741L447.174 87.7389C446.487 92.9699 447.35 98.2088 449.539 103.061C450.87 105.965 452.374 108.722 453.983 111.443C455.363 113.807 457.303 116.259 458.268 118.808C459.445 121.996 460.911 125.332 460.347 128.772C460.064 130.675 459.793 132.544 459.536 134.404C456.217 128.919 450.34 125.543 447.89 119.396C445.38 112.919 443.121 106.317 442.284 99.4468V99.4468Z" fill="#0064FF"/>
<path d="M370.152 31.6165C369.635 30.5332 368.915 29.6812 368.058 29.0279C368.205 28.552 368.345 28.09 368.433 27.6399C368.741 26.1077 369.056 23.342 369.526 22.4999C370.455 20.8117 370.802 19.2238 370.663 17.6762C371.146 16.3694 371.735 15.1113 372.123 13.7672C373.055 10.4375 372.478 7.96199 371.708 4.618L371.314 4.55472C370.495 7.46077 369.666 9.70252 367.798 12.0863C366.167 14.161 364.61 15.1535 362.155 16.0102C360.141 16.716 357.454 17.7197 355.222 19.0062C353.514 19.991 350.917 21.2842 349.813 23.2125C348.882 24.1069 348.059 25.0753 346.989 25.8688C345.682 26.8487 344.072 27.5391 342.683 28.4283C340.137 30.0668 338.407 32.1474 337.99 35.2182L338.126 35.2539C339.395 32.1615 342.039 29.7702 345.351 29.0256C346.76 28.7147 347.997 28.6007 349.427 28.8394C350.125 28.9506 350.814 29.2345 351.503 29.504C351.757 29.6865 352.032 29.8087 352.31 29.9491C352 30.1462 351.693 30.3615 351.376 30.5583C344.489 34.7942 337.087 39.242 329.465 43.1051C315.659 50.0851 297.339 54.5125 290.223 69.6508L290.344 69.693C294.524 61.5349 302.698 56.1377 311.118 52.8636C319.657 49.5378 328.365 47.7179 337.542 46.8671C340.75 46.579 344.034 46.0314 347.24 45.1696C345.379 47.0811 343.48 48.9438 341.266 50.5162C335.222 54.7805 327.675 57.013 320.396 58.3462L320.416 58.4519C328.188 57.3457 335.775 54.906 343.189 52.5045C343.798 52.3117 344.434 52.0951 345.073 51.875C343.683 53.0671 342.289 54.2555 340.903 55.4443C335.91 59.7619 330.525 63.3706 324.196 65.5747C320.821 66.7527 317.386 67.5198 313.867 68.225C310.603 68.8855 307.419 69.8855 304.187 70.6125C296.573 72.3437 289.037 74.0319 281.325 75.372C274.002 76.6417 266.463 77.7019 259.36 79.8632C246.12 83.8918 234.981 92.1547 225.009 101.361L225.046 101.402C227.957 98.8659 230.931 96.3904 234.042 94.0914C239.815 89.8386 245.981 85.9846 252.701 83.2844C259.83 80.4065 267.411 79.103 275.012 77.8908C282.781 76.6438 290.592 75.5577 298.335 74.2516C305.338 73.092 312.336 72.65 319.412 71.8837C332.523 70.4607 346.184 70.8045 356.445 61.476C360.344 57.9254 364.189 53.9571 366.903 49.3902C369.999 44.2258 373.013 37.6753 370.145 31.609L370.152 31.6165Z" fill="#0064FF"/>
</svg>
