<svg width="16" height="16" viewBox="0 0 16 16" fill="none" xmlns="http://www.w3.org/2000/svg">
<path d="M13.7592 7.30298C13.6519 6.0394 13.1492 4.88693 12.3757 3.96982L13.6971 2.64844L12.9765 1.92789L11.6552 3.24927C10.7381 2.47577 9.58563 1.97314 8.32202 1.86581V0H7.30301V1.86581C6.03943 1.97314 4.88696 2.47577 3.96985 3.24927L2.6485 1.92795L1.92795 2.6485L3.24933 3.96985C2.4758 4.88693 1.97318 6.03937 1.86584 7.30298H0V8.32199H1.86581C1.97314 9.58557 2.47577 10.738 3.24927 11.6552L1.92789 12.9765L2.64844 13.6971L3.96982 12.3757C4.88693 13.1492 6.03937 13.6518 7.30298 13.7592V15.625H8.32199V13.7592C9.58557 13.6519 10.738 13.1492 11.6552 12.3757L12.9765 13.6971L13.6971 12.9765L12.3757 11.6552C13.1492 10.7381 13.6518 9.5856 13.7592 8.32202H15.625V7.30301H13.7592V7.30298ZM8.32202 2.88895C9.30527 2.98996 10.204 3.38016 10.9319 3.97256L8.72617 6.17828C8.59973 6.10733 8.46432 6.05078 8.32202 6.0105V2.88895ZM7.30298 2.88895V6.01047C7.16068 6.05075 7.02527 6.1073 6.89883 6.17825L4.69312 3.97253C5.42102 3.38016 6.31973 2.98999 7.30298 2.88895ZM3.97259 4.69315L6.17831 6.89886C6.10736 7.0253 6.05081 7.16071 6.01053 7.30301H2.88895C2.98999 6.31973 3.38016 5.42102 3.97259 4.69315ZM2.88895 8.32202H6.01047C6.05075 8.46432 6.1073 8.59973 6.17825 8.72617L3.97253 10.9319C3.38016 10.204 2.98999 9.30527 2.88895 8.32202ZM7.30298 12.7361C6.31973 12.635 5.42102 12.2448 4.69312 11.6524L6.89883 9.44672C7.02527 9.51767 7.16068 9.57422 7.30298 9.6145V12.7361ZM7.8125 8.6665C7.34161 8.6665 6.9585 8.28342 6.9585 7.8125C6.9585 7.34158 7.34158 6.9585 7.8125 6.9585C8.28342 6.9585 8.6665 7.34158 8.6665 7.8125C8.6665 8.28342 8.28339 8.6665 7.8125 8.6665ZM8.32202 12.7361V9.6145C8.46432 9.57422 8.59973 9.51767 8.72617 9.44672L10.9319 11.6524C10.204 12.2448 9.30527 12.635 8.32202 12.7361ZM11.6524 10.9319L9.44669 8.72614C9.51764 8.5997 9.57419 8.46429 9.61447 8.32199H12.736C12.635 9.30527 12.2448 10.204 11.6524 10.9319ZM9.6145 7.30298C9.57422 7.16068 9.51767 7.02527 9.44672 6.89883L11.6524 4.69312C12.2449 5.42099 12.635 6.3197 12.7361 7.30298H9.6145Z" fill="#00003C"/>
</svg>
