<svg xmlns="http://www.w3.org/2000/svg" xmlns:xlink="http://www.w3.org/1999/xlink" version="1.1" viewBox="0 0 2401 1483" style="background: #ffffff"><defs joint-selector="defs"></defs><g joint-selector="layers"  transform="matrix(1,0,0,1,0,0)"><g ></g><g ><!--z-index:1--><!--z-index:2--><!--z-index:3--><!--z-index:4--><!--z-index:5--><!--z-index:6--><!--z-index:7--><!--z-index:8--><!--z-index:9--><!--z-index:10--><!--z-index:11--><!--z-index:12--><!--z-index:13--><!--z-index:14--><!--z-index:15--><!--z-index:16--><!--z-index:17--><!--z-index:18--><!--z-index:19--><!--z-index:20--><!--z-index:21--><!--z-index:22--><!--z-index:23--><!--z-index:24--><!--z-index:25--><!--z-index:26--><!--z-index:27--><!--z-index:28--><!--z-index:29--><!--z-index:30--><!--z-index:31--><!--z-index:32--><!--z-index:33--><!--z-index:34--><!--z-index:35--><!--z-index:36--><!--z-index:37--><!--z-index:38--><!--z-index:39--><!--z-index:40--><!--z-index:41--><!--z-index:42--><!--z-index:43--><!--z-index:44--><!--z-index:45--><!--z-index:46--><!--z-index:47--><!--z-index:48--><!--z-index:49--><g   id="j_2"  transform="translate(20,1439)"><g id="v-5"><text  id="v-6" font-size="24px" xml:space="preserve" y="0.8em" font-weight="normal" text-anchor="start" fill="#444444" pointer-events="none" display="block" font-family="Open Sans, Tahoma, Arial"><tspan dy="0"  display="none">четверг, 23 июля 2026 г. в 19:14 Екатеринбург, стандартное время</tspan></text></g></g><!--z-index:50--><g   id="j_1"  transform="translate(20,1393)"><g id="v-3"><text  id="v-4" font-size="36px" xml:space="preserve" y="0.8em" font-weight="normal" text-anchor="start" fill="#444444" pointer-events="none" display="block" font-family="Open Sans, Tahoma, Arial"><tspan dy="0"  display="none">L2: descheduler</tspan></text></g></g><!--z-index:51--><g   id="j_7"  transform="translate(100,59)" style=""><g id="v-29"><rect  id="v-30" width="2155" height="1283" rx="20" ry="20" stroke-width="1" pointer-events="none" stroke="#004df2" fill="#ffffff" stroke-dasharray=""></rect><text  id="v-31" font-size="33.599999999999994px" xml:space="preserve" y="1244" font-weight="bold" text-anchor="start" pointer-events="visible" font-family="Open Sans, Tahoma, Arial" fill="#003ab5" transform="matrix(1,0,0,1,15,0)"><tspan dy="0" >Deckhouse Kubernetes Platform</tspan></text><text  id="v-32" font-size="16.799999999999997px" xml:space="preserve" y="1268" font-weight="normal" text-anchor="start" pointer-events="visible" font-family="Open Sans, Tahoma, Arial" fill="#003ab5" transform="matrix(1,0,0,1,15,0)"><tspan dy="0" >[Software System]</tspan></text><image  id="v-33" pointer-events="visible"></image></g></g><!--z-index:52--><g   id="j_4"  transform="translate(895,79)" style=""><g id="v-14"><rect  id="v-15" width="1340" height="1164" rx="20" ry="20" stroke-width="1" pointer-events="none" stroke="#325ebd" fill="#f6f9ff" stroke-dasharray="1,2"></rect><text  id="v-16" font-size="33.599999999999994px" xml:space="preserve" y="1149" font-weight="bold" text-anchor="start" pointer-events="visible" font-family="Open Sans, Tahoma, Arial" fill="#325ebd" transform="matrix(1,0,0,1,15,0)"><tspan dy="0" >Подсистема Kubernetes &amp; Scheduling</tspan></text><text  id="v-17" font-size="16.799999999999997px" xml:space="preserve" display="none" y="1149" font-weight="normal" text-anchor="start" pointer-events="visible" font-family="Open Sans, Tahoma, Arial" fill="#325ebd" transform="matrix(1,0,0,1,15,0)"><tspan dy="0" style="fill-opacity: 0; stroke-opacity: 0;" >-</tspan></text><image  id="v-18" pointer-events="visible"></image></g></g><!--z-index:53--><g   id="j_13"  transform="translate(120,79)" style=""><g id="v-74"><rect  id="v-75" width="570" height="609" rx="20" ry="20" stroke-width="1" pointer-events="none" stroke="#325ebd" fill="#f6f9ff" stroke-dasharray="1,2"></rect><text  id="v-76" font-size="33.599999999999994px" xml:space="preserve" y="594" font-weight="bold" text-anchor="start" pointer-events="visible" font-family="Open Sans, Tahoma, Arial" fill="#325ebd" transform="matrix(1,0,0,1,15,0)"><tspan dy="0" >Подсистема Observability</tspan></text><text  id="v-77" font-size="16.799999999999997px" xml:space="preserve" display="none" y="594" font-weight="normal" text-anchor="start" pointer-events="visible" font-family="Open Sans, Tahoma, Arial" fill="#325ebd" transform="matrix(1,0,0,1,15,0)"><tspan dy="0" style="fill-opacity: 0; stroke-opacity: 0;" >-</tspan></text><image  id="v-78" pointer-events="visible"></image></g></g><!--z-index:54--><g   id="j_5"  transform="translate(1685,369)" style=""><g id="v-19"><rect  id="v-20" width="530" height="506" rx="20" ry="20" stroke-width="1" pointer-events="none" stroke="#325ebd" fill="#d8e4ff" stroke-dasharray="1,2"></rect><text  id="v-21" font-size="33.599999999999994px" xml:space="preserve" y="491" font-weight="bold" text-anchor="start" pointer-events="visible" font-family="Open Sans, Tahoma, Arial" fill="#325ebd" transform="matrix(1,0,0,1,15,0)"><tspan dy="0" >Сontrol plane Kubernetes-кластера</tspan></text><text  id="v-22" font-size="16.799999999999997px" xml:space="preserve" display="none" y="491" font-weight="normal" text-anchor="start" pointer-events="visible" font-family="Open Sans, Tahoma, Arial" fill="#325ebd" transform="matrix(1,0,0,1,15,0)"><tspan dy="0" style="fill-opacity: 0; stroke-opacity: 0;" >-</tspan></text><image  id="v-23" pointer-events="visible"></image></g></g><!--z-index:55--><g   id="j_9"  transform="translate(915,99)" style=""><g id="v-44"><rect  id="v-45" width="530" height="1061" rx="20" ry="20" stroke-width="1" pointer-events="none" stroke="#325ebd" fill="#d8e4ff" stroke-dasharray="1,2"></rect><text  id="v-46" font-size="33.599999999999994px" xml:space="preserve" y="1046" font-weight="bold" text-anchor="start" pointer-events="visible" font-family="Open Sans, Tahoma, Arial" fill="#325ebd" transform="matrix(1,0,0,1,15,0)"><tspan dy="0" >Модуль descheduler</tspan></text><text  id="v-47" font-size="16.799999999999997px" xml:space="preserve" display="none" y="1046" font-weight="normal" text-anchor="start" pointer-events="visible" font-family="Open Sans, Tahoma, Arial" fill="#325ebd" transform="matrix(1,0,0,1,15,0)"><tspan dy="0" style="fill-opacity: 0; stroke-opacity: 0;" >-</tspan></text><image  id="v-48" pointer-events="visible"></image></g></g><!--z-index:56--><g   id="j_14"  transform="translate(140,99)" style=""><g id="v-79"><rect  id="v-80" width="530" height="506" rx="20" ry="20" stroke-width="1" pointer-events="none" stroke="#325ebd" fill="#d8e4ff" stroke-dasharray="1,2"></rect><text  id="v-81" font-size="33.599999999999994px" xml:space="preserve" y="491" font-weight="bold" text-anchor="start" pointer-events="visible" font-family="Open Sans, Tahoma, Arial" fill="#325ebd" transform="matrix(1,0,0,1,15,0)"><tspan dy="0" >Модуль prometheus</tspan></text><text  id="v-82" font-size="16.799999999999997px" xml:space="preserve" display="none" y="491" font-weight="normal" text-anchor="start" pointer-events="visible" font-family="Open Sans, Tahoma, Arial" fill="#325ebd" transform="matrix(1,0,0,1,15,0)"><tspan dy="0" style="fill-opacity: 0; stroke-opacity: 0;" >-</tspan></text><image  id="v-83" pointer-events="visible"></image></g></g><!--z-index:57--><g   id="j_6"  transform="translate(1705,389)" style=""><g id="v-24"><rect  id="v-25" width="490" height="403" rx="20" ry="20" stroke-width="1" pointer-events="none" stroke="#000000" fill="#ffffff" stroke-dasharray="1,2"></rect><text  id="v-26" font-size="33.599999999999994px" xml:space="preserve" y="388" font-weight="bold" text-anchor="start" pointer-events="visible" font-family="Open Sans, Tahoma, Arial" fill="#000000" transform="matrix(1,0,0,1,15,0)"><tspan dy="0" >kube-apiserver [pod]</tspan></text><text  id="v-27" font-size="16.799999999999997px" xml:space="preserve" display="none" y="388" font-weight="normal" text-anchor="start" pointer-events="visible" font-family="Open Sans, Tahoma, Arial" fill="#000000" transform="matrix(1,0,0,1,15,0)"><tspan dy="0" style="fill-opacity: 0; stroke-opacity: 0;" >-</tspan></text><image  id="v-28" pointer-events="visible"></image></g></g><!--z-index:58--><g   id="j_10"  transform="translate(935,119)" style=""><g id="v-49"><rect  id="v-50" width="490" height="958" rx="20" ry="20" stroke-width="1" pointer-events="none" stroke="#000000" fill="#ffffff" stroke-dasharray="1,2"></rect><text  id="v-51" font-size="33.599999999999994px" xml:space="preserve" y="943" font-weight="bold" text-anchor="start" pointer-events="visible" font-family="Open Sans, Tahoma, Arial" fill="#000000" transform="matrix(1,0,0,1,15,0)"><tspan dy="0" >descheduler [pod]</tspan></text><text  id="v-52" font-size="16.799999999999997px" xml:space="preserve" display="none" y="943" font-weight="normal" text-anchor="start" pointer-events="visible" font-family="Open Sans, Tahoma, Arial" fill="#000000" transform="matrix(1,0,0,1,15,0)"><tspan dy="0" style="fill-opacity: 0; stroke-opacity: 0;" >-</tspan></text><image  id="v-53" pointer-events="visible"></image></g></g><!--z-index:59--><g   id="j_15"  transform="translate(160,119)" style=""><g id="v-84"><rect  id="v-85" width="490" height="403" rx="20" ry="20" stroke-width="1" pointer-events="none" stroke="#000000" fill="#ffffff" stroke-dasharray="1,2"></rect><text  id="v-86" font-size="33.599999999999994px" xml:space="preserve" y="388" font-weight="bold" text-anchor="start" pointer-events="visible" font-family="Open Sans, Tahoma, Arial" fill="#000000" transform="matrix(1,0,0,1,15,0)"><tspan dy="0" >prometheus-main [pod]</tspan></text><text  id="v-87" font-size="16.799999999999997px" xml:space="preserve" display="none" y="388" font-weight="normal" text-anchor="start" pointer-events="visible" font-family="Open Sans, Tahoma, Arial" fill="#000000" transform="matrix(1,0,0,1,15,0)"><tspan dy="0" style="fill-opacity: 0; stroke-opacity: 0;" >-</tspan></text><image  id="v-88" pointer-events="visible"></image></g></g><!--z-index:60--><g   id="j_3"  transform="translate(1725,409)" style=""><g  id="v-7" style="opacity: 1;"><rect  id="v-8" rx="20" ry="20" stroke-width="2" pointer-events="visiblePainted" fill="#e3ebff" stroke="#485d8e" stroke-dasharray="" width="450" height="300"></rect><text  id="v-9" font-size="33.599999999999994px" xml:space="preserve" y="120.80000000000001" font-weight="bold" text-anchor="middle" pointer-events="visible" font-family="Open Sans, Tahoma, Arial" fill="#000000" dominant-baseline="hanging" transform="matrix(1,0,0,1,225,0)"><tspan dy="0" >kube-apiserver</tspan></text><text  id="v-10" font-size="16.799999999999997px" xml:space="preserve" y="162.4" text-anchor="middle" font-family="Open Sans, Tahoma, Arial" fill="#000000" dominant-baseline="hanging" transform="matrix(1,0,0,1,225,0)" style="display: block;"><tspan dy="0" >[Container]</tspan></text><text  id="v-11" font-size="24px" xml:space="preserve" display="none" y="120.80000000000001" text-anchor="middle" font-family="Open Sans, Tahoma, Arial" fill="#000000" dominant-baseline="hanging" transform="matrix(1,0,0,1,225,0)" style="display: block;"><tspan dy="0"  style="fill-opacity: 0; stroke-opacity: 0;">-</tspan></text><g  id="v-12" color="#000000" transform="matrix(1,0,0,1,222.5,268)" display="none"><g ></g><g ></g><g ></g><g ></g></g><image  id="v-13"></image></g></g><!--z-index:61--><g   id="j_8"  transform="translate(955,694)" style=""><g  id="v-37" style="opacity: 1;"><rect  id="v-38" rx="20" ry="20" stroke-width="2" pointer-events="visiblePainted" fill="#e3ebff" stroke="#485d8e" stroke-dasharray="" width="450" height="300"></rect><text  id="v-39" font-size="33.599999999999994px" xml:space="preserve" y="120.80000000000001" font-weight="bold" text-anchor="middle" pointer-events="visible" font-family="Open Sans, Tahoma, Arial" fill="#000000" dominant-baseline="hanging" transform="matrix(1,0,0,1,225,0)"><tspan dy="0" >descheduler (container)</tspan></text><text  id="v-40" font-size="16.799999999999997px" xml:space="preserve" y="162.4" text-anchor="middle" font-family="Open Sans, Tahoma, Arial" fill="#000000" dominant-baseline="hanging" transform="matrix(1,0,0,1,225,0)" style="display: block;"><tspan dy="0" >[Container]</tspan></text><text  id="v-41" font-size="24px" xml:space="preserve" display="none" y="120.80000000000001" text-anchor="middle" font-family="Open Sans, Tahoma, Arial" fill="#000000" dominant-baseline="hanging" transform="matrix(1,0,0,1,225,0)" style="display: block;"><tspan dy="0"  style="fill-opacity: 0; stroke-opacity: 0;">-</tspan></text><g  id="v-42" color="#000000" transform="matrix(1,0,0,1,222.5,268)" display="none"><g ></g><g ></g><g ></g><g ></g></g><image  id="v-43"></image></g></g><!--z-index:62--><g   id="j_11"  transform="translate(955,139)" style=""><g  id="v-57" style="opacity: 1;"><rect  id="v-58" rx="20" ry="20" stroke-width="2" pointer-events="visiblePainted" fill="#e3ebff" stroke="#485d8e" stroke-dasharray="" width="450" height="300"></rect><text  id="v-59" font-size="33.599999999999994px" xml:space="preserve" y="100.64000000000001" font-weight="bold" text-anchor="middle" pointer-events="visible" font-family="Open Sans, Tahoma, Arial" fill="#000000" dominant-baseline="hanging" transform="matrix(1,0,0,1,225,0)"><tspan dy="0" >kube-rbac-proxy</tspan><tspan dy="1.2em" x="0" >(descheduler)</tspan></text><text  id="v-60" font-size="16.799999999999997px" xml:space="preserve" y="182.56" text-anchor="middle" font-family="Open Sans, Tahoma, Arial" fill="#000000" dominant-baseline="hanging" transform="matrix(1,0,0,1,225,0)" style="display: block;"><tspan dy="0" >[Container]</tspan></text><text  id="v-61" font-size="24px" xml:space="preserve" display="none" y="100.64000000000001" text-anchor="middle" font-family="Open Sans, Tahoma, Arial" fill="#000000" dominant-baseline="hanging" transform="matrix(1,0,0,1,225,0)" style="display: block;"><tspan dy="0"  style="fill-opacity: 0; stroke-opacity: 0;">-</tspan></text><g  id="v-62" color="#000000" transform="matrix(1,0,0,1,222.5,268)" display="none"><g ></g><g ></g><g ></g><g ></g></g><image  id="v-63"></image></g></g><!--z-index:63--><g   id="j_12"  transform="translate(180,139)" style=""><g  id="v-67" style="opacity: 1;"><rect  id="v-68" rx="20" ry="20" stroke-width="2" pointer-events="visiblePainted" fill="#e3ebff" stroke="#485d8e" stroke-dasharray="" width="450" height="300"></rect><text  id="v-69" font-size="33.599999999999994px" xml:space="preserve" y="120.80000000000001" font-weight="bold" text-anchor="middle" pointer-events="visible" font-family="Open Sans, Tahoma, Arial" fill="#000000" dominant-baseline="hanging" transform="matrix(1,0,0,1,225,0)"><tspan dy="0" >prometheus (main)</tspan></text><text  id="v-70" font-size="16.799999999999997px" xml:space="preserve" y="162.4" text-anchor="middle" font-family="Open Sans, Tahoma, Arial" fill="#000000" dominant-baseline="hanging" transform="matrix(1,0,0,1,225,0)" style="display: block;"><tspan dy="0" >[Container]</tspan></text><text  id="v-71" font-size="24px" xml:space="preserve" display="none" y="120.80000000000001" text-anchor="middle" font-family="Open Sans, Tahoma, Arial" fill="#000000" dominant-baseline="hanging" transform="matrix(1,0,0,1,225,0)" style="display: block;"><tspan dy="0"  style="fill-opacity: 0; stroke-opacity: 0;">-</tspan></text><g  id="v-72" color="#000000" transform="matrix(1,0,0,1,222.5,268)" display="none"><g ></g><g ></g><g ></g><g ></g></g><image  id="v-73"></image></g></g><!--z-index:64--><g   id="j_16" ><path  stroke="#000000" d="M 1405 842 L 1570 840 C 1576.6666666666665 840 1582.6666666666665 838 1588 834 L 1752 709" id="v-104" stroke-width="1" stroke-dasharray="" fill="none" style="opacity: 1;"></path><path  fill="black" stroke="black" d="M 0 0 0 0" transform="matrix(0.9999500040439288,-0.00999947061333242,0.00999947061333242,0.9999500040439288,1405,841.75)"></path><path  fill="#000000" stroke="#000000" d="M 10 0 L 0 5 L 10 10 z" id="v-106" transform="matrix(-0.7963676189403738,0.6048128764363733,-0.6048128764363733,-0.7963676189403738,1755.5140811878211,712.9818215640825)" style="opacity: 1;"></path><path  d="M 1405 842 L 1570 840 C 1576.6666666666665 840 1582.6666666666665 838 1588 834 L 1752 709" id="v-105" fill="none" style="cursor: default;"></path><g ><g id="v-95"  label-idx="0" cursor="move" transform="matrix(1,0,0,1,1561.2015380859375,826.7066650390625)" style="cursor: default; opacity: 1;"><rect joint-selector="rect" id="v-99" fill="#ffffff" rx="3" ry="3" pointer-events="none" width="195.33033752441406" height="90.55555725097656" transform="matrix(1,0,0,1,-97.7,-45.3)"></rect><text joint-selector="text" id="v-98" font-size="24px" xml:space="preserve" y="0.8em" fill="#000000" text-anchor="middle" pointer-events="none" font-family="Open Sans, Tahoma, Arial" font-weight="normal" transform="matrix(1,0,0,1,0,-38.5)"><tspan dy="0" >Следит за</tspan><tspan dy="1.2em" x="0" >ресурсами Pod и</tspan><tspan dy="1.2em" x="0" >Node</tspan></text></g><g id="v-96"  label-idx="1" cursor="move" transform="matrix(1,0,0,1,1561.2015380859375,885.9066772460938)" style="cursor: default; opacity: 1;"><rect joint-selector="rect" id="v-101" fill="#ffffff" rx="3" ry="3"  pointer-events="none" width="83.7152328491211" height="22.969026565551758" transform="matrix(1,0,0,1,-41.9,-11.4)" style="display: block;"></rect><text joint-selector="text" id="v-100" font-size="16.799999999999997px" xml:space="preserve" y="0.8em" fill="#000000" text-anchor="middle" pointer-events="none"  font-family="Open Sans, Tahoma, Arial" font-weight="normal" transform="matrix(1,0,0,1,0,-6.9)" style="display: block;"><tspan dy="0" >[6443 TCP]</tspan></text></g><g id="v-97"  label-idx="2" cursor="move" transform="matrix(1,0,0,1,1551.2015380859375,894.306640625)" style="cursor: default; opacity: 1;"><rect joint-selector="rect" id="v-103" fill="#ffffff" rx="3" ry="3"  width="0" height="0" transform="matrix(1,0,0,1,0,0)" display="none"></rect><text joint-selector="text" id="v-102" fill="#000000" font-size="14" text-anchor="middle" pointer-events="none"></text></g></g><g  display="none"><g  transform="translate(1580, 840)" id="v-335"><circle  idx="0" r="10"></circle><path  idx="0" d="M16,5.333c-7.732,0-14,4.701-14,10.5c0,1.982,0.741,3.833,2.016,5.414L2,25.667l5.613-1.441c2.339,1.317,5.237,2.107,8.387,2.107c7.732,0,14-4.701,14-10.5C30,10.034,23.732,5.333,16,5.333z" transform="translate(5, -33)"></path><path  idx="0" transform="scale(.8) translate(9.5, -37)" d="M24.778,21.419 19.276,15.917 24.777,10.415 21.949,7.585 16.447,13.087 10.945,7.585 8.117,10.415 13.618,15.917 8.116,21.419 10.946,24.248 16.447,18.746 21.948,24.248z"><title>Remove vertex.</title></path></g></g><g  id="v-108" display="none"><g  id="v-93"><path  end="source" d="M 26 0 L 0 13 L 26 26 z"></path></g><g  id="v-94"><path  end="target" d="M 26 0 L 0 13 L 26 26 z"></path></g></g><g  id="v-107" display="none"><g  id="v-92" transform="translate(1444.9970618480936, 841.5151871291141) "><g  event="remove"><circle r="11"></circle><path transform="scale(.8) translate(-16, -16)" d="M24.778,21.419 19.276,15.917 24.777,10.415 21.949,7.585 16.447,13.087 10.945,7.585 8.117,10.415 13.618,15.917 8.116,21.419 10.946,24.248 16.447,18.746 21.948,24.248z"></path><title>Remove link.</title></g><g  event="link:options"><circle r="11" transform="translate(25)"></circle><path fill="white" transform="scale(.55) translate(29, -16)" d="M31.229,17.736c0.064-0.571,0.104-1.148,0.104-1.736s-0.04-1.166-0.104-1.737l-4.377-1.557c-0.218-0.716-0.504-1.401-0.851-2.05l1.993-4.192c-0.725-0.91-1.549-1.734-2.458-2.459l-4.193,1.994c-0.647-0.347-1.334-0.632-2.049-0.849l-1.558-4.378C17.165,0.708,16.588,0.667,16,0.667s-1.166,0.041-1.737,0.105L12.707,5.15c-0.716,0.217-1.401,0.502-2.05,0.849L6.464,4.005C5.554,4.73,4.73,5.554,4.005,6.464l1.994,4.192c-0.347,0.648-0.632,1.334-0.849,2.05l-4.378,1.557C0.708,14.834,0.667,15.412,0.667,16s0.041,1.165,0.105,1.736l4.378,1.558c0.217,0.715,0.502,1.401,0.849,2.049l-1.994,4.193c0.725,0.909,1.549,1.733,2.459,2.458l4.192-1.993c0.648,0.347,1.334,0.633,2.05,0.851l1.557,4.377c0.571,0.064,1.148,0.104,1.737,0.104c0.588,0,1.165-0.04,1.736-0.104l1.558-4.377c0.715-0.218,1.399-0.504,2.049-0.851l4.193,1.993c0.909-0.725,1.733-1.549,2.458-2.458l-1.993-4.193c0.347-0.647,0.633-1.334,0.851-2.049L31.229,17.736zM16,20.871c-2.69,0-4.872-2.182-4.872-4.871c0-2.69,2.182-4.872,4.872-4.872c2.689,0,4.871,2.182,4.871,4.872C20.871,18.689,18.689,20.871,16,20.871z"></path><title>Link options.</title></g></g></g></g><!--z-index:65--><g   id="j_17" ><path  stroke="#000000" d="M 1405 737 L 1536 674 C 1542 671.3333333333333 1548.3333333333333 669 1555 667 L 1725 621" id="v-124" stroke-width="1" stroke-dasharray="" fill="none" style="opacity: 1;"></path><path  fill="black" stroke="black" d="M 0 0 0 0" transform="matrix(0.9026769854964514,-0.43031878863819023,0.43031878863819023,0.9026769854964514,1405,736.739990234375)"></path><path  fill="#000000" stroke="#000000" d="M 10 0 L 0 5 L 10 10 z" id="v-126" transform="matrix(-0.9644379107258938,0.2643095086346173,-0.2643095086346173,-0.9644379107258938,1726.3215935421151,625.4922191588938)" style="opacity: 1;"></path><path  d="M 1405 737 L 1536 674 C 1542 671.3333333333333 1548.3333333333333 669 1555 667 L 1725 621" id="v-125" fill="none" style="cursor: default;"></path><g ><g id="v-115"  label-idx="0" cursor="move" transform="matrix(1,0,0,1,1560.0633544921875,652.2299194335938)" style="cursor: default; opacity: 1;"><rect joint-selector="rect" id="v-119" fill="#ffffff" rx="3" ry="3" pointer-events="none" width="187.41912841796875" height="90.55555725097656" transform="matrix(1,0,0,1,-93.7,-45.3)"></rect><text joint-selector="text" id="v-118" font-size="24px" xml:space="preserve" y="0.8em" fill="#000000" text-anchor="middle" pointer-events="none" font-family="Open Sans, Tahoma, Arial" font-weight="normal" transform="matrix(1,0,0,1,0,-38.5)"><tspan dy="0" >Вытесняет Pod</tspan><tspan dy="1.2em" x="0" >для перераспред</tspan><tspan dy="1.2em" x="0" >еления</tspan></text></g><g id="v-116"  label-idx="1" cursor="move" transform="matrix(1,0,0,1,1560.0633544921875,711.429931640625)" style="cursor: default; opacity: 1;"><rect joint-selector="rect" id="v-121" fill="#ffffff" rx="3" ry="3"  pointer-events="none" width="83.7152328491211" height="22.969026565551758" transform="matrix(1,0,0,1,-41.9,-11.4)" style="display: block;"></rect><text joint-selector="text" id="v-120" font-size="16.799999999999997px" xml:space="preserve" y="0.8em" fill="#000000" text-anchor="middle" pointer-events="none"  font-family="Open Sans, Tahoma, Arial" font-weight="normal" transform="matrix(1,0,0,1,0,-6.9)" style="display: block;"><tspan dy="0" >[6443 TCP]</tspan></text></g><g id="v-117"  label-idx="2" cursor="move" transform="matrix(1,0,0,1,1550.0633544921875,719.8299560546875)" style="cursor: default; opacity: 1;"><rect joint-selector="rect" id="v-123" fill="#ffffff" rx="3" ry="3"  width="0" height="0" transform="matrix(1,0,0,1,0,0)" display="none"></rect><text joint-selector="text" id="v-122" fill="#000000" font-size="14" text-anchor="middle" pointer-events="none"></text></g></g><g  display="none"><g  transform="translate(1545, 670)" id="v-236"><circle  idx="0" r="10"></circle><path  idx="0" d="M16,5.333c-7.732,0-14,4.701-14,10.5c0,1.982,0.741,3.833,2.016,5.414L2,25.667l5.613-1.441c2.339,1.317,5.237,2.107,8.387,2.107c7.732,0,14-4.701,14-10.5C30,10.034,23.732,5.333,16,5.333z" transform="translate(5, -33)"></path><path  idx="0" transform="scale(.8) translate(9.5, -37)" d="M24.778,21.419 19.276,15.917 24.777,10.415 21.949,7.585 16.447,13.087 10.945,7.585 8.117,10.415 13.618,15.917 8.116,21.419 10.946,24.248 16.447,18.746 21.948,24.248z"><title>Remove vertex.</title></path></g></g><g  id="v-128" display="none"><g  id="v-113"><path  end="source" d="M 26 0 L 0 13 L 26 26 z"></path></g><g  id="v-114"><path  end="target" d="M 26 0 L 0 13 L 26 26 z"></path></g></g><g  id="v-127" display="none"><g  id="v-112" transform="translate(1441.0480302197773, 719.6639243981223) "><g  event="remove"><circle r="11"></circle><path transform="scale(.8) translate(-16, -16)" d="M24.778,21.419 19.276,15.917 24.777,10.415 21.949,7.585 16.447,13.087 10.945,7.585 8.117,10.415 13.618,15.917 8.116,21.419 10.946,24.248 16.447,18.746 21.948,24.248z"></path><title>Remove link.</title></g><g  event="link:options"><circle r="11" transform="translate(25)"></circle><path fill="white" transform="scale(.55) translate(29, -16)" d="M31.229,17.736c0.064-0.571,0.104-1.148,0.104-1.736s-0.04-1.166-0.104-1.737l-4.377-1.557c-0.218-0.716-0.504-1.401-0.851-2.05l1.993-4.192c-0.725-0.91-1.549-1.734-2.458-2.459l-4.193,1.994c-0.647-0.347-1.334-0.632-2.049-0.849l-1.558-4.378C17.165,0.708,16.588,0.667,16,0.667s-1.166,0.041-1.737,0.105L12.707,5.15c-0.716,0.217-1.401,0.502-2.05,0.849L6.464,4.005C5.554,4.73,4.73,5.554,4.005,6.464l1.994,4.192c-0.347,0.648-0.632,1.334-0.849,2.05l-4.378,1.557C0.708,14.834,0.667,15.412,0.667,16s0.041,1.165,0.105,1.736l4.378,1.558c0.217,0.715,0.502,1.401,0.849,2.049l-1.994,4.193c0.725,0.909,1.549,1.733,2.459,2.458l4.192-1.993c0.648,0.347,1.334,0.633,2.05,0.851l1.557,4.377c0.571,0.064,1.148,0.104,1.737,0.104c0.588,0,1.165-0.04,1.736-0.104l1.558-4.377c0.715-0.218,1.399-0.504,2.049-0.851l4.193,1.993c0.909-0.725,1.733-1.549,2.458-2.458l-1.993-4.193c0.347-0.647,0.633-1.334,0.851-2.049L31.229,17.736zM16,20.871c-2.69,0-4.872-2.182-4.872-4.871c0-2.69,2.182-4.872,4.872-4.872c2.689,0,4.871,2.182,4.871,4.872C20.871,18.689,18.689,20.871,16,20.871z"></path><title>Link options.</title></g></g></g></g><!--z-index:66--><g   id="j_18" ><path  stroke="#000000" d="M 1405 368 L 1725 480" id="v-144" stroke-width="1" stroke-dasharray="" fill="none" style="opacity: 1;"></path><path  fill="black" stroke="black" d="M 0 0 0 0" transform="matrix(0.943674312143603,0.3308757963349657,-0.3308757963349657,0.943674312143603,1405,367.8999938964844)"></path><path  fill="#000000" stroke="#000000" d="M 10 0 L 0 5 L 10 10 z" id="v-146" transform="matrix(-0.9436742901142123,-0.3308758591638825,0.3308758591638825,-0.9436742901142123,1723.3456083656893,484.8183684221717)" style="opacity: 1;"></path><path  d="M 1405 368 L 1725 480" id="v-145" fill="none" style="cursor: default;"></path><g ><g id="v-135"  label-idx="0" cursor="move" transform="matrix(1,0,0,1,1565,410.6000061035156)" style="cursor: default; opacity: 1;"><rect joint-selector="rect" id="v-139" fill="#ffffff" rx="3" ry="3" pointer-events="none" width="145.30404663085938" height="90.55555725097656" transform="matrix(1,0,0,1,-72.7,-45.3)"></rect><text joint-selector="text" id="v-138" font-size="24px" xml:space="preserve" y="0.8em" fill="#000000" text-anchor="middle" pointer-events="none" font-family="Open Sans, Tahoma, Arial" font-weight="normal" transform="matrix(1,0,0,1,0,-38.5)"><tspan dy="0" >Выполняет</tspan><tspan dy="1.2em" x="0" >авторизацию</tspan><tspan dy="1.2em" x="0" >запросов</tspan></text></g><g id="v-136"  label-idx="1" cursor="move" transform="matrix(1,0,0,1,1565,469.79998779296875)" style="cursor: default; opacity: 1;"><rect joint-selector="rect" id="v-141" fill="#ffffff" rx="3" ry="3"  pointer-events="none" width="83.7152328491211" height="22.969026565551758" transform="matrix(1,0,0,1,-41.9,-11.4)" style="display: block;"></rect><text joint-selector="text" id="v-140" font-size="16.799999999999997px" xml:space="preserve" y="0.8em" fill="#000000" text-anchor="middle" pointer-events="none"  font-family="Open Sans, Tahoma, Arial" font-weight="normal" transform="matrix(1,0,0,1,0,-6.9)" style="display: block;"><tspan dy="0" >[6443 TCP]</tspan></text></g><g id="v-137"  label-idx="2" cursor="move" transform="matrix(1,0,0,1,1555,478.20001220703125)" style="cursor: default; opacity: 1;"><rect joint-selector="rect" id="v-143" fill="#ffffff" rx="3" ry="3"  width="0" height="0" transform="matrix(1,0,0,1,0,0)" display="none"></rect><text joint-selector="text" id="v-142" fill="#000000" font-size="14" text-anchor="middle" pointer-events="none"></text></g></g><g  display="none"></g><g  id="v-148" display="none"><g  id="v-133"><path  end="source" d="M 26 0 L 0 13 L 26 26 z"></path></g><g  id="v-134"><path  end="target" d="M 26 0 L 0 13 L 26 26 z"></path></g></g><g  id="v-147" display="none"><g  id="v-132" transform="translate(1442.7543342546405, 381.2140169891242) "><g  event="remove"><circle r="11"></circle><path transform="scale(.8) translate(-16, -16)" d="M24.778,21.419 19.276,15.917 24.777,10.415 21.949,7.585 16.447,13.087 10.945,7.585 8.117,10.415 13.618,15.917 8.116,21.419 10.946,24.248 16.447,18.746 21.948,24.248z"></path><title>Remove link.</title></g><g  event="link:options"><circle r="11" transform="translate(25)"></circle><path fill="white" transform="scale(.55) translate(29, -16)" d="M31.229,17.736c0.064-0.571,0.104-1.148,0.104-1.736s-0.04-1.166-0.104-1.737l-4.377-1.557c-0.218-0.716-0.504-1.401-0.851-2.05l1.993-4.192c-0.725-0.91-1.549-1.734-2.458-2.459l-4.193,1.994c-0.647-0.347-1.334-0.632-2.049-0.849l-1.558-4.378C17.165,0.708,16.588,0.667,16,0.667s-1.166,0.041-1.737,0.105L12.707,5.15c-0.716,0.217-1.401,0.502-2.05,0.849L6.464,4.005C5.554,4.73,4.73,5.554,4.005,6.464l1.994,4.192c-0.347,0.648-0.632,1.334-0.849,2.05l-4.378,1.557C0.708,14.834,0.667,15.412,0.667,16s0.041,1.165,0.105,1.736l4.378,1.558c0.217,0.715,0.502,1.401,0.849,2.049l-1.994,4.193c0.725,0.909,1.549,1.733,2.459,2.458l4.192-1.993c0.648,0.347,1.334,0.633,2.05,0.851l1.557,4.377c0.571,0.064,1.148,0.104,1.737,0.104c0.588,0,1.165-0.04,1.736-0.104l1.558-4.377c0.715-0.218,1.399-0.504,2.049-0.851l4.193,1.993c0.909-0.725,1.733-1.549,2.458-2.458l-1.993-4.193c0.347-0.647,0.633-1.334,0.851-2.049L31.229,17.736zM16,20.871c-2.69,0-4.872-2.182-4.872-4.871c0-2.69,2.182-4.872,4.872-4.872c2.689,0,4.871,2.182,4.871,4.872C20.871,18.689,18.689,20.871,16,20.871z"></path><title>Link options.</title></g></g></g></g><!--z-index:67--><g   id="j_19" ><path  stroke="#000000" d="M 1180 439 L 1180 694" id="v-164" stroke-width="1" stroke-dasharray="" fill="none" style="opacity: 1;"></path><path  fill="black" stroke="black" d="M 0 0 0 0" transform="matrix(6.123233995736766e-17,1,-1,6.123233995736766e-17,1180,439)"></path><path  fill="#000000" stroke="#000000" d="M 10 0 L 0 5 L 10 10 z" id="v-166" transform="matrix(-1.8369701987210297e-16,-1,1,-1.8369701987210297e-16,1175,694)" style="opacity: 1;"></path><path  d="M 1180 439 L 1180 694" id="v-165" fill="none" style="cursor: default;"></path><g ><g id="v-155"  label-idx="0" cursor="move" transform="matrix(1,0,0,1,1180,553.0999755859375)" style="cursor: default; opacity: 1;"><rect joint-selector="rect" id="v-159" fill="#ffffff" rx="3" ry="3" pointer-events="none" width="181.6768798828125" height="119.35555267333984" transform="matrix(1,0,0,1,-90.8,-59.7)"></rect><text joint-selector="text" id="v-158" font-size="24px" xml:space="preserve" y="0.8em" fill="#000000" text-anchor="middle" pointer-events="none" font-family="Open Sans, Tahoma, Arial" font-weight="normal" transform="matrix(1,0,0,1,0,-52.9)"><tspan dy="0" >Пересылает</tspan><tspan dy="1.2em" x="0" >авторизованные</tspan><tspan dy="1.2em" x="0" >запросы на</tspan><tspan dy="1.2em" x="0" >метрики</tspan></text></g><g id="v-156"  label-idx="1" cursor="move" transform="matrix(1,0,0,1,1180,626.7000122070312)" style="cursor: default; opacity: 1;"><rect joint-selector="rect" id="v-161" fill="#ffffff" rx="3" ry="3"  pointer-events="none" width="93.3272705078125" height="22.969026565551758" transform="matrix(1,0,0,1,-46.7,-11.4)" style="display: block;"></rect><text joint-selector="text" id="v-160" font-size="16.799999999999997px" xml:space="preserve" y="0.8em" fill="#000000" text-anchor="middle" pointer-events="none"  font-family="Open Sans, Tahoma, Arial" font-weight="normal" transform="matrix(1,0,0,1,0,-6.9)" style="display: block;"><tspan dy="0" >[10258 TCP]</tspan></text></g><g id="v-157"  label-idx="2" cursor="move" transform="matrix(1,0,0,1,1170,635.0999755859375)" style="cursor: default; opacity: 1;"><rect joint-selector="rect" id="v-163" fill="#ffffff" rx="3" ry="3"  width="0" height="0" transform="matrix(1,0,0,1,0,0)" display="none"></rect><text joint-selector="text" id="v-162" fill="#000000" font-size="14" text-anchor="middle" pointer-events="none"></text></g></g><g  display="none"></g><g  id="v-168" display="none"><g  id="v-153"><path  end="source" d="M 26 0 L 0 13 L 26 26 z"></path></g><g  id="v-154"><path  end="target" d="M 26 0 L 0 13 L 26 26 z"></path></g></g><g  id="v-167" display="none"><g  id="v-152" transform="translate(1180, 479) "><g  event="remove"><circle r="11"></circle><path transform="scale(.8) translate(-16, -16)" d="M24.778,21.419 19.276,15.917 24.777,10.415 21.949,7.585 16.447,13.087 10.945,7.585 8.117,10.415 13.618,15.917 8.116,21.419 10.946,24.248 16.447,18.746 21.948,24.248z"></path><title>Remove link.</title></g><g  event="link:options"><circle r="11" transform="translate(25)"></circle><path fill="white" transform="scale(.55) translate(29, -16)" d="M31.229,17.736c0.064-0.571,0.104-1.148,0.104-1.736s-0.04-1.166-0.104-1.737l-4.377-1.557c-0.218-0.716-0.504-1.401-0.851-2.05l1.993-4.192c-0.725-0.91-1.549-1.734-2.458-2.459l-4.193,1.994c-0.647-0.347-1.334-0.632-2.049-0.849l-1.558-4.378C17.165,0.708,16.588,0.667,16,0.667s-1.166,0.041-1.737,0.105L12.707,5.15c-0.716,0.217-1.401,0.502-2.05,0.849L6.464,4.005C5.554,4.73,4.73,5.554,4.005,6.464l1.994,4.192c-0.347,0.648-0.632,1.334-0.849,2.05l-4.378,1.557C0.708,14.834,0.667,15.412,0.667,16s0.041,1.165,0.105,1.736l4.378,1.558c0.217,0.715,0.502,1.401,0.849,2.049l-1.994,4.193c0.725,0.909,1.549,1.733,2.459,2.458l4.192-1.993c0.648,0.347,1.334,0.633,2.05,0.851l1.557,4.377c0.571,0.064,1.148,0.104,1.737,0.104c0.588,0,1.165-0.04,1.736-0.104l1.558-4.377c0.715-0.218,1.399-0.504,2.049-0.851l4.193,1.993c0.909-0.725,1.733-1.549,2.458-2.458l-1.993-4.193c0.347-0.647,0.633-1.334,0.851-2.049L31.229,17.736zM16,20.871c-2.69,0-4.872-2.182-4.872-4.871c0-2.69,2.182-4.872,4.872-4.872c2.689,0,4.871,2.182,4.871,4.872C20.871,18.689,18.689,20.871,16,20.871z"></path><title>Link options.</title></g></g></g></g><!--z-index:68--><g   id="j_20" ><path  stroke="#000000" d="M 630 289 L 955 289" id="v-184" stroke-width="1" stroke-dasharray="" fill="none" style="opacity: 1;"></path><path  fill="black" stroke="black" d="M 0 0 0 0" transform="matrix(1,0,0,1,630,289)"></path><path  fill="#000000" stroke="#000000" d="M 10 0 L 0 5 L 10 10 z" id="v-186" transform="matrix(-1,1.2246467991473532e-16,-1.2246467991473532e-16,-1,955,293.99999999999994)" style="opacity: 1;"></path><path  d="M 630 289 L 955 289" id="v-185" fill="none" style="cursor: default;"></path><g ><g id="v-175"  label-idx="0" cursor="move" transform="matrix(1,0,0,1,792.5,275.6000061035156)" style="cursor: default; opacity: 1;"><rect joint-selector="rect" id="v-179" fill="#ffffff" rx="3" ry="3" pointer-events="none" width="103.85993957519531" height="61.75555610656738" transform="matrix(1,0,0,1,-51.9,-30.9)"></rect><text joint-selector="text" id="v-178" font-size="24px" xml:space="preserve" y="0.8em" fill="#000000" text-anchor="middle" pointer-events="none" font-family="Open Sans, Tahoma, Arial" font-weight="normal" transform="matrix(1,0,0,1,0,-24.1)"><tspan dy="0" >Собирает</tspan><tspan dy="1.2em" x="0" >метрики</tspan></text></g><g id="v-176"  label-idx="1" cursor="move" transform="matrix(1,0,0,1,792.5,320.3999938964844)" style="cursor: default; opacity: 1;"><rect joint-selector="rect" id="v-181" fill="#ffffff" rx="3" ry="3"  pointer-events="none" width="93.3272705078125" height="22.969026565551758" transform="matrix(1,0,0,1,-46.7,-11.4)" style="display: block;"></rect><text joint-selector="text" id="v-180" font-size="16.799999999999997px" xml:space="preserve" y="0.8em" fill="#000000" text-anchor="middle" pointer-events="none"  font-family="Open Sans, Tahoma, Arial" font-weight="normal" transform="matrix(1,0,0,1,0,-6.9)" style="display: block;"><tspan dy="0" >[10258 TCP]</tspan></text></g><g id="v-177"  label-idx="2" cursor="move" transform="matrix(1,0,0,1,782.5,328.79998779296875)" style="cursor: default; opacity: 1;"><rect joint-selector="rect" id="v-183" fill="#ffffff" rx="3" ry="3"  width="0" height="0" transform="matrix(1,0,0,1,0,0)" display="none"></rect><text joint-selector="text" id="v-182" fill="#000000" font-size="14" text-anchor="middle" pointer-events="none"></text></g></g><g  display="none"></g><g  id="v-188" display="none"><g  id="v-173"><path  end="source" d="M 26 0 L 0 13 L 26 26 z"></path></g><g  id="v-174"><path  end="target" d="M 26 0 L 0 13 L 26 26 z"></path></g></g><g  id="v-187" display="none"><g  id="v-172" transform="translate(670, 289) "><g  event="remove"><circle r="11"></circle><path transform="scale(.8) translate(-16, -16)" d="M24.778,21.419 19.276,15.917 24.777,10.415 21.949,7.585 16.447,13.087 10.945,7.585 8.117,10.415 13.618,15.917 8.116,21.419 10.946,24.248 16.447,18.746 21.948,24.248z"></path><title>Remove link.</title></g><g  event="link:options"><circle r="11" transform="translate(25)"></circle><path fill="white" transform="scale(.55) translate(29, -16)" d="M31.229,17.736c0.064-0.571,0.104-1.148,0.104-1.736s-0.04-1.166-0.104-1.737l-4.377-1.557c-0.218-0.716-0.504-1.401-0.851-2.05l1.993-4.192c-0.725-0.91-1.549-1.734-2.458-2.459l-4.193,1.994c-0.647-0.347-1.334-0.632-2.049-0.849l-1.558-4.378C17.165,0.708,16.588,0.667,16,0.667s-1.166,0.041-1.737,0.105L12.707,5.15c-0.716,0.217-1.401,0.502-2.05,0.849L6.464,4.005C5.554,4.73,4.73,5.554,4.005,6.464l1.994,4.192c-0.347,0.648-0.632,1.334-0.849,2.05l-4.378,1.557C0.708,14.834,0.667,15.412,0.667,16s0.041,1.165,0.105,1.736l4.378,1.558c0.217,0.715,0.502,1.401,0.849,2.049l-1.994,4.193c0.725,0.909,1.549,1.733,2.459,2.458l4.192-1.993c0.648,0.347,1.334,0.633,2.05,0.851l1.557,4.377c0.571,0.064,1.148,0.104,1.737,0.104c0.588,0,1.165-0.04,1.736-0.104l1.558-4.377c0.715-0.218,1.399-0.504,2.049-0.851l4.193,1.993c0.909-0.725,1.733-1.549,2.458-2.458l-1.993-4.193c0.347-0.647,0.633-1.334,0.851-2.049L31.229,17.736zM16,20.871c-2.69,0-4.872-2.182-4.872-4.871c0-2.69,2.182-4.872,4.872-4.872c2.689,0,4.871,2.182,4.871,4.872C20.871,18.689,18.689,20.871,16,20.871z"></path><title>Link options.</title></g></g></g></g><!--z-index:69--></g><g ></g><g ></g><g ></g></g></svg>