<svg width="269" height="90" viewBox="0 0 269 90" fill="none" xmlns="http://www.w3.org/2000/svg">
<g clip-path="url(#clip0)">
<path d="M112.74 8.84204V10.1052H109.861V11.842H112.1V12.9473H109.861V15.6315H108.262V8.84204H112.74V8.84204Z" fill="#00003C"/>
<path d="M116.578 8.84204V14.3684H119.296V15.6315H115.139V8.84204H116.578Z" fill="#00003C"/>
<path d="M125.693 8.84204L127.932 15.6315H126.333L125.853 14.0526H123.294L122.814 15.6315H121.375L123.614 8.84204H125.693ZM125.373 12.9473L124.414 9.94731L123.454 12.9473H125.373Z" fill="#00003C"/>
<path d="M131.77 8.84204L134.328 13.2631V8.84204H135.768V15.6315H134.168L131.29 10.7368V15.6315H129.851V8.84204H131.77Z" fill="#00003C"/>
<path d="M138.006 10.1052V8.84204H143.284V10.1052H141.365V15.6315H139.765V10.1052H138.006Z" fill="#00003C"/>
<path d="M124.254 36.0001C124.254 41.0527 120.416 44.8422 115.139 44.8422H108.422V27.158H115.139C120.416 27.158 124.254 30.7895 124.254 36.0001ZM120.256 36.0001C120.256 32.8422 118.177 30.7895 114.979 30.7895H112.1V41.3685H114.979C118.177 41.2106 120.256 39.0001 120.256 36.0001Z" fill="#0064FF"/>
<path d="M140.565 39H130.17C130.49 40.8947 131.77 41.8421 133.529 41.8421C134.808 41.8421 135.927 41.2105 136.407 40.2632H140.405C139.446 43.2632 136.727 45.1579 133.529 45.1579C129.371 45.1579 126.333 42 126.333 37.8947C126.333 33.7895 129.371 30.6316 133.529 30.6316C137.846 30.6316 140.725 33.7895 140.725 37.7369C140.565 38.3684 140.565 38.6842 140.565 39ZM130.17 36.4737H136.887C136.407 34.7368 135.128 33.9474 133.529 33.9474C131.77 33.9474 130.49 34.8947 130.17 36.4737Z" fill="#0064FF"/>
<path d="M142.324 37.8948C142.324 33.7896 145.522 30.7896 149.68 30.7896C153.198 30.7896 156.077 33.0001 156.716 36.3159H153.038C152.399 34.8948 151.119 34.2632 149.68 34.2632C147.601 34.2632 146.162 35.8422 146.162 38.0527C146.162 40.2632 147.761 41.8422 149.68 41.8422C151.119 41.8422 152.399 41.0527 153.038 39.6317H156.876C156.237 43.1053 153.358 45.3159 149.84 45.3159C145.522 45.158 142.324 42.0001 142.324 37.8948Z" fill="#0064FF"/>
<path d="M167.591 44.8422L163.113 38.3685V44.8422H159.435V26.2106H163.113V37.2632L167.271 31.2632H171.588L166.951 37.7369L172.068 44.8422H167.591V44.8422Z" fill="#0064FF"/>
<path d="M186.78 36.4737V44.8422H183.102V37.1053C183.102 35.0527 182.303 34.1053 180.703 34.1053C178.784 34.1053 177.665 35.3685 177.665 37.7369V44.8422H173.987V26.2106H177.665V32.3685C178.785 31.4211 180.224 30.7895 181.823 30.7895C184.861 30.7895 186.78 33 186.78 36.4737Z" fill="#0064FF"/>
<path d="M189.179 38.0527C189.179 33.9474 192.377 30.7896 196.695 30.7896C201.013 30.7896 204.211 33.7895 204.211 38.0527C204.211 42.158 201.013 45.3159 196.695 45.3159C192.377 45.158 189.179 42.158 189.179 38.0527ZM200.373 38.0527C200.373 35.8422 198.774 34.2632 196.695 34.2632C194.616 34.2632 193.017 35.8422 193.017 38.0527C193.017 40.2632 194.616 41.8422 196.695 41.8422C198.774 41.6843 200.373 40.2632 200.373 38.0527Z" fill="#0064FF"/>
<path d="M206.61 39V31.1052H210.288V38.5263C210.288 40.421 211.407 41.6842 213.006 41.6842C214.765 41.6842 215.725 40.5789 215.725 38.5263V31.1052H219.403V39C219.403 42.6315 216.844 45.1579 212.846 45.1579C209.168 45.1579 206.61 42.7894 206.61 39Z" fill="#0064FF"/>
<path d="M221.962 40.2632H225.64C225.64 41.5264 226.599 42.158 227.878 42.158C228.838 42.158 229.797 41.6843 229.797 40.7369C229.797 39.7896 228.678 39.4738 227.079 39.3159C224.84 39.0001 222.121 38.3685 222.121 35.2106C222.121 32.6843 224.36 30.7896 227.718 30.7896C231.077 30.7896 233.315 32.6843 233.315 35.3685H229.797C229.797 34.2632 228.998 33.7896 227.718 33.7896C226.599 33.7896 225.799 34.2632 225.799 35.0527C225.799 36.0001 226.919 36.158 228.358 36.4738C230.597 36.9474 233.475 37.4211 233.475 40.7369C233.475 43.579 231.237 45.3159 227.718 45.3159C224.36 45.158 221.962 43.2632 221.962 40.2632Z" fill="#0064FF"/>
<path d="M249.627 39H239.232C239.552 40.8947 240.832 41.8421 242.591 41.8421C243.87 41.8421 244.989 41.2105 245.469 40.2632H249.467C248.507 43.2632 245.789 45.1579 242.591 45.1579C238.433 45.1579 235.394 42 235.394 37.8947C235.394 33.7895 238.433 30.6316 242.591 30.6316C246.908 30.6316 249.787 33.7895 249.787 37.7369C249.787 38.3684 249.787 38.6842 249.627 39ZM239.232 36.4737H245.949C245.469 34.7368 244.19 33.9474 242.591 33.9474C240.991 33.9474 239.712 34.8947 239.232 36.4737Z" fill="#0064FF"/>
<path d="M116.578 75.4737C111.301 75.4737 107.303 71.5263 107.303 66.3158C107.303 61.1053 111.301 57 116.578 57C120.895 57 124.414 59.8421 125.213 64.1053H121.375C120.576 62.0526 118.817 60.7895 116.578 60.7895C113.539 60.7895 111.301 63.1579 111.301 66.3158C111.301 69.4737 113.539 71.8421 116.578 71.8421C118.976 71.8421 120.736 70.4211 121.375 68.2105H125.213C124.574 72.6316 121.055 75.4737 116.578 75.4737Z" fill="#00003C"/>
<path d="M127.132 68.3684C127.132 64.2631 130.33 61.1052 134.648 61.1052C138.966 61.1052 142.164 64.1052 142.164 68.3684C142.164 72.4737 138.966 75.6316 134.648 75.6316C130.33 75.4737 127.132 72.4737 127.132 68.3684ZM138.166 68.3684C138.166 66.1579 136.567 64.5789 134.488 64.5789C132.409 64.5789 130.81 66.1579 130.81 68.3684C130.81 70.5789 132.409 72.1579 134.488 72.1579C136.727 72 138.166 70.5789 138.166 68.3684Z" fill="#00003C"/>
<path d="M165.192 66.6316V75.1579H161.514V67.2632C161.514 65.3684 160.714 64.4211 159.435 64.4211C157.836 64.4211 156.716 65.6842 156.716 67.7369V75.1579H153.038V67.2632C153.038 65.3684 152.399 64.4211 150.959 64.4211C149.2 64.4211 148.241 65.6842 148.241 67.7369V75.1579H144.563V61.579H147.121L147.761 63.3158C148.721 62.0527 150.32 61.2632 151.919 61.2632C153.678 61.2632 155.117 62.0527 155.917 63.4737C156.876 62.2106 158.475 61.2632 160.234 61.2632C163.273 61.1053 165.192 63.3158 165.192 66.6316Z" fill="#00003C"/>
<path d="M189.179 66.6316V75.1579H185.501V67.2632C185.501 65.3684 184.701 64.4211 183.422 64.4211C181.823 64.4211 180.704 65.6842 180.704 67.7369V75.1579H177.026V67.2632C177.026 65.3684 176.386 64.4211 174.947 64.4211C173.188 64.4211 172.228 65.6842 172.228 67.7369V75.1579H168.55V61.579H171.109L171.748 63.3158C172.708 62.0527 174.307 61.2632 175.906 61.2632C177.665 61.2632 179.104 62.0527 179.904 63.4737C180.863 62.2106 182.463 61.2632 184.222 61.2632C187.26 61.1053 189.179 63.3158 189.179 66.6316Z" fill="#00003C"/>
<path d="M206.77 61.4211V75.0001H203.891L203.571 73.7369C202.452 74.6843 200.853 75.3159 199.094 75.3159C194.936 75.3159 191.898 72.158 191.898 68.0527C191.898 63.9474 194.936 60.7896 199.094 60.7896C200.853 60.7896 202.452 61.4211 203.571 62.5264L203.891 61.2632L206.77 61.4211ZM203.092 68.2106C203.092 66.0001 201.493 64.4211 199.254 64.4211C197.015 64.4211 195.416 66.0001 195.416 68.2106C195.416 70.4211 197.015 72.0001 199.254 72.0001C201.493 72.0001 203.092 70.4211 203.092 68.2106Z" fill="#00003C"/>
<path d="M223.241 66.7894V75H219.563V67.2631C219.563 65.2105 218.763 64.2631 217.164 64.2631C215.245 64.2631 214.126 65.6842 214.126 67.8947V75H210.448V61.421H213.006L213.806 63.1579C214.925 61.8947 216.525 61.1052 218.443 61.1052C221.162 61.1052 223.241 63.4737 223.241 66.7894Z" fill="#00003C"/>
<path d="M240.512 56.5264V75.1579H237.793L237.313 74.0527C236.194 75.0001 234.595 75.6316 232.996 75.6316C228.838 75.6316 225.8 72.4737 225.8 68.3685C225.8 64.2632 228.838 61.1053 232.996 61.1053C234.435 61.1053 235.714 61.579 236.834 62.2106V56.5264H240.512V56.5264ZM236.994 68.3685C236.994 66.1579 235.394 64.579 233.156 64.579C230.917 64.579 229.318 66.1579 229.318 68.3685C229.318 70.579 230.917 72.1579 233.156 72.1579C235.394 72.1579 236.994 70.4211 236.994 68.3685Z" fill="#00003C"/>
<path d="M257.303 69.3158H246.908C247.228 71.2106 248.507 72.1579 250.266 72.1579C251.546 72.1579 252.665 71.5263 253.145 70.579H257.143C256.183 73.579 253.465 75.4737 250.266 75.4737C246.109 75.4737 243.07 72.3158 243.07 68.2105C243.07 64.1053 246.109 60.9474 250.266 60.9474C254.584 60.9474 257.463 64.1053 257.463 68.0527C257.463 68.6842 257.303 69 257.303 69.3158ZM246.908 66.7895H253.625C253.145 65.0527 251.866 64.2632 250.266 64.2632C248.667 64.2632 247.388 65.2106 246.908 66.7895Z" fill="#00003C"/>
<path d="M268.337 61.4211V64.8948H266.738C264.659 64.8948 263.859 65.8422 263.859 68.0527V75.158H260.181V61.579H262.58L263.22 63.3159C264.179 62.0527 265.458 61.579 267.217 61.579H268.337V61.4211Z" fill="#00003C"/>
<path d="M47.4947 33H35.661V56.3684H47.4947C54.0512 56.3684 59.3284 51.1579 59.3284 44.6842C59.3284 38.2105 54.0512 33 47.4947 33Z" fill="#00003C"/>
<path d="M16.1514 29.6843L0.959473 44.6843L16.1514 59.5264H30.7036L15.5117 44.6843L30.7036 29.6843H16.1514Z" fill="#0066FF"/>
<path d="M60.9275 15.4738L45.7356 0.473755L30.7036 15.4738V29.6843L45.7356 14.8422L60.9275 29.6843V15.4738Z" fill="#0066FF"/>
<path d="M75.6397 59.8421L90.8316 45L75.6397 30H61.0874L76.2793 45L61.0874 59.8421H75.6397Z" fill="#0066FF"/>
<path d="M30.8635 74.2106L46.0554 89.2106L61.0874 74.2106V59.8422L46.0554 74.8422L30.8635 59.8422V74.2106Z" fill="#0066FF"/>
</g>
<defs>
<clipPath id="clip0">
<rect width="268.657" height="90" fill="white"/>
</clipPath>
</defs>
</svg>
