<svg width="374" height="100" viewBox="0 0 374 100" fill="none" xmlns="http://www.w3.org/2000/svg">
<path d="M33.0645 0C18.871 0 7.74194 10.6452 7.74194 24.1935C7.74194 30.9677 10.3763 37.1505 15.1075 41.6129L15.4839 41.9892L15.0538 42.2581C5.5914 48.0645 0 57.8495 0 68.5484C0 77.1505 3.17204 85.0538 8.92473 90.8602C14.7849 96.7204 22.957 100 31.9892 100C40.1075 100 47.6882 97.2581 53.3871 92.3118C58.2258 88.1183 63.8172 81.6129 63.9785 69.0323V68.871C63.9785 67.5807 63.3871 67.043 61.9893 67.043H55.2151C53.871 67.043 53.3333 67.6344 53.3333 68.871V69.5161C52.9032 80.914 43.9247 89.1935 32.043 89.1935C19.7849 89.1935 10.8602 80.5376 10.8602 68.6022C10.8602 63.2258 13.0108 58.1183 16.9355 54.3011C20.914 50.3763 26.2903 48.2258 32.0968 48.2258H32.6344C33.9247 48.2258 34.4624 47.6344 34.4624 46.2366V39.4624C34.4624 38.1183 33.871 37.5269 32.6344 37.5269H31.6129C24.0323 37.5269 18.5484 31.9355 18.5484 24.2473C18.5484 16.5054 24.6237 10.8602 33.0645 10.8602C38.1183 10.8602 42.6344 12.957 45.4301 16.6129C45.5376 16.7204 45.8065 17.1505 45.8065 17.1505C46.2366 17.8495 46.7204 18.172 47.2581 18.172C47.6344 18.172 48.0645 18.0108 48.5484 17.7419L54.4086 14.086C55 13.7097 55.3226 13.3333 55.4301 12.9032C55.5376 12.4731 55.4301 11.9892 55.0538 11.4516L54.8925 11.2366C50.2151 4.19355 42.043 0 33.0645 0" fill="url(#paint0_linear)"/>
<path d="M42.3656 37.4731C41.0752 37.4731 40.5376 38.0645 40.5376 39.4624V46.2366C40.5376 47.5807 41.129 48.1183 42.3656 48.1183H53.2795V59.086C53.2795 60.3764 53.8709 60.914 55.2688 60.914H62.043C63.3871 60.914 63.9247 60.3226 63.9247 59.086V48.1721H74.8387C76.129 48.1721 76.6666 47.5807 76.6666 46.2366V39.4624C76.6666 38.1183 76.0752 37.4731 74.8387 37.4731H63.9247V26.5592C63.9247 25.2688 63.3333 24.7312 62.043 24.7312H55.2688C53.9247 24.7312 53.2795 25.3226 53.2795 26.5592V37.4731H42.3656Z" fill="url(#paint1_linear)"/>
<path d="M370.43 57.6344C369.624 57.5806 368.925 57.4193 368.333 57.1505C367.742 56.9355 367.312 56.5591 366.882 56.0215C366.505 55.5376 366.237 54.8387 366.075 53.9247C365.914 53.0645 365.807 51.9355 365.807 50.5914V28.3333H372.366C372.796 28.3333 373.172 28.2258 373.441 28.0107C373.71 27.7957 373.817 27.4193 373.817 26.8817V25.6451C373.817 25.1613 373.656 24.7849 373.441 24.5161C373.172 24.3011 372.796 24.1935 372.366 24.1935H365.807V12.957C365.807 12.5269 365.699 12.1505 365.538 11.8279C365.376 11.5054 365 11.3978 364.516 11.3978L362.634 11.6666C361.774 11.7742 361.398 12.258 361.398 13.0107V24.2473H356.129C355.645 24.2473 355.269 24.3548 355 24.5699C354.731 24.7849 354.624 25.1075 354.624 25.6451V27.043C354.624 27.5269 354.731 27.9032 355 28.1183C355.215 28.3333 355.591 28.4408 356.129 28.4408H361.398V51.7742C361.398 53.871 361.613 55.5376 362.097 56.8817C362.581 58.172 363.226 59.2473 364.032 60C364.839 60.7527 365.807 61.2903 366.936 61.5591C368.065 61.8279 369.247 61.9892 370.538 61.9892H371.667C372.151 61.9892 372.581 61.8817 372.957 61.6666C373.28 61.4516 373.495 61.0753 373.495 60.4839V59.2473C373.495 58.7634 373.333 58.3871 373.011 58.1183C372.688 57.9032 372.312 57.7419 371.882 57.7419H370.43V57.6344ZM338.656 28.8172C340.161 29.4623 341.505 30.3763 342.688 31.5591C343.871 32.7419 344.839 34.086 345.645 35.6451C346.452 37.2043 346.989 38.8709 347.204 40.6451H320.699C321.022 38.8172 321.559 37.1505 322.366 35.5914C323.172 34.0322 324.14 32.6881 325.323 31.5054C326.505 30.3226 327.796 29.4623 329.301 28.7634C330.807 28.1183 332.366 27.7957 333.979 27.7957C335.591 27.7957 337.151 28.172 338.656 28.8172V28.8172ZM334.409 62.3656C337.043 62.3656 339.462 61.8817 341.721 60.914C343.979 59.9462 346.022 58.6559 347.742 56.9355C348.387 56.5054 348.71 56.0753 348.656 55.6451C348.656 55.215 348.441 54.7849 348.118 54.3011L347.527 53.4946C347.258 53.1183 346.936 52.9032 346.505 52.9032C346.129 52.9032 345.753 53.0645 345.43 53.4408C344.032 54.8387 342.419 55.9677 340.484 56.8279C338.602 57.6882 336.559 58.1183 334.409 58.1183H334.301C332.473 58.0645 330.753 57.6882 329.14 56.9892C327.527 56.2903 326.075 55.3226 324.839 54.086C323.602 52.8494 322.581 51.4516 321.828 49.7849C321.075 48.172 320.645 46.3978 320.538 44.4623H348.495C349.355 44.4623 350.054 44.3011 350.645 44.0322C351.237 43.7634 351.505 43.1183 351.505 42.2043C351.505 39.6236 351.022 37.2043 350.108 34.8925C349.194 32.6344 347.903 30.6451 346.344 28.9247C344.731 27.258 342.903 25.914 340.753 24.8925C338.656 23.9247 336.398 23.3871 334.032 23.3871C331.559 23.3871 329.194 23.9247 327.043 24.8925C324.893 25.914 322.957 27.3118 321.344 29.0322C319.731 30.8064 318.441 32.8494 317.473 35.215C316.559 37.5806 316.075 40.1075 316.075 42.7957C316.075 45.4301 316.559 47.957 317.527 50.2688C318.495 52.5806 319.785 54.6236 321.452 56.3441C323.118 58.1183 325.054 59.5161 327.258 60.5376C329.462 61.7742 331.882 62.3118 334.409 62.3656V62.3656ZM280.054 38.7634C280.108 37.2043 280.484 35.8064 281.129 34.4623C281.774 33.1183 282.634 31.9892 283.71 31.0215C284.785 30.0537 285.968 29.3011 287.366 28.7097C288.764 28.172 290.215 27.8494 291.721 27.8494C293.28 27.8494 294.731 28.172 296.129 28.7097C297.473 29.3011 298.71 30.1075 299.731 31.129C300.753 32.1505 301.559 33.3333 302.204 34.6774C302.796 36.0215 303.118 37.5269 303.172 39.086V60.0537C303.172 60.5376 303.28 60.914 303.495 61.1828C303.71 61.3978 304.032 61.5591 304.57 61.5591H306.129C306.613 61.5591 306.936 61.4516 307.204 61.1828C307.473 60.914 307.581 60.5376 307.581 60.0537V39.1935C307.581 36.9892 307.204 34.9462 306.398 33.0645C305.591 31.129 304.516 29.4623 303.172 28.0645C301.774 26.6666 300.161 25.5376 298.333 24.7312C296.452 23.9247 294.462 23.4946 292.258 23.4946C290.968 23.4946 289.731 23.6559 288.548 24.0322C287.366 24.3548 286.237 24.8387 285.215 25.4301C284.194 26.0215 283.226 26.7204 282.366 27.5269C281.505 28.3333 280.753 29.1935 280.108 30.1613L280 25C280 24.7312 279.893 24.5161 279.731 24.4086C279.57 24.2473 279.355 24.1935 279.14 24.1935H276.882C276.505 24.1935 276.237 24.3011 276.022 24.5161C275.807 24.7312 275.699 25.0537 275.699 25.3763V60.1613C275.699 61.0752 276.183 61.5054 277.151 61.5054H278.71C279.624 61.5054 280.108 61.0215 280.108 60.1613L280.054 38.7634ZM268.065 25.9677C268.28 25.3763 268.28 24.9462 268.011 24.6236C267.796 24.3011 267.366 24.1398 266.828 24.1398H265.645C264.678 24.1398 264.032 24.5161 263.602 25.215L251.452 55.2688L238.979 25.4301C238.764 25.0537 238.548 24.7312 238.387 24.5161C238.172 24.3011 237.85 24.1935 237.419 24.1935H235.807C235.215 24.1935 234.839 24.3548 234.57 24.6236C234.355 24.9462 234.355 25.4301 234.624 26.0752L248.925 60.4301L243.011 74.5699C242.796 75.1613 242.796 75.5914 243.065 75.914C243.333 76.2365 243.71 76.3978 244.247 76.3978H245.484C246.398 76.3978 247.097 76.0215 247.473 75.2688L268.065 25.9677ZM206.29 59.7849V60.1613C206.29 61.0752 206.774 61.5054 207.742 61.5054H208.979H209.301C210.215 61.5054 210.699 61.0215 210.699 60.1613L210.645 39.5699C210.645 38.1183 210.86 36.6666 211.398 35.2688C211.882 33.8709 212.581 32.6344 213.441 31.5591C214.301 30.4838 215.323 29.6236 216.505 28.9785C217.688 28.3333 218.979 28.0107 220.376 28.0107C221.344 28.0107 222.366 28.2258 223.28 28.6021C224.247 28.9785 225.108 29.4086 225.807 29.8387C225.968 29.9462 226.075 30 226.183 30C226.29 30 226.452 30 226.667 30C226.828 30 226.989 29.8925 227.258 29.6774C227.473 29.4623 227.688 29.1935 227.903 28.9247C228.118 28.6021 228.28 28.2795 228.441 27.957C228.602 27.6344 228.656 27.3118 228.656 27.0968C228.656 26.6666 228.387 26.2365 227.796 25.8064C227.258 25.3763 226.559 25 225.699 24.6774C224.893 24.3548 223.979 24.086 223.065 23.8709C222.097 23.6559 221.29 23.5484 220.538 23.5484C219.355 23.5484 218.226 23.7097 217.151 23.9785C216.129 24.3011 215.161 24.7312 214.301 25.2688C213.441 25.8064 212.688 26.4516 212.043 27.258C211.398 28.0107 210.914 28.8709 210.538 29.7849V27.3656V25.8602C210.538 24.6774 209.893 24.086 208.656 24.086H207.796C206.667 24.086 206.129 24.6774 206.129 25.8602V59.7849H206.29ZM184.731 28.8172C186.237 29.4623 187.581 30.3763 188.764 31.5591C189.946 32.7419 190.914 34.086 191.721 35.6451C192.527 37.2043 193.011 38.8709 193.28 40.6451H166.774C167.097 38.8172 167.634 37.1505 168.441 35.5914C169.247 34.0322 170.215 32.6881 171.398 31.5054C172.581 30.3226 173.871 29.4623 175.376 28.7634C176.882 28.1183 178.441 27.7957 180.054 27.7957C181.667 27.7957 183.226 28.172 184.731 28.8172V28.8172ZM180.484 62.3656C183.118 62.3656 185.538 61.8817 187.796 60.914C190.054 59.9462 192.097 58.6559 193.817 56.9355C194.462 56.5054 194.731 56.0753 194.731 55.6451C194.731 55.215 194.516 54.7849 194.194 54.3011L193.602 53.4946C193.333 53.1183 193.011 52.9032 192.581 52.9032C192.204 52.9032 191.828 53.0645 191.505 53.4408C190.108 54.8387 188.495 55.9677 186.559 56.8279C184.678 57.6882 182.635 58.1183 180.484 58.1183H180.376C178.548 58.0645 176.828 57.6882 175.215 56.9892C173.602 56.2903 172.151 55.3226 170.914 54.086C169.678 52.8494 168.656 51.4516 167.903 49.7849C167.151 48.172 166.721 46.3978 166.613 44.4623H194.624C195.484 44.4623 196.183 44.3011 196.774 44.0322C197.366 43.7634 197.634 43.1183 197.634 42.2043C197.634 39.6236 197.151 37.2043 196.237 34.8925C195.323 32.6344 194.032 30.6451 192.473 28.9247C190.86 27.258 189.032 25.914 186.882 24.8925C184.785 23.9247 182.527 23.3871 180.161 23.3871C177.688 23.3871 175.376 23.9247 173.172 24.8925C171.022 25.914 169.086 27.3118 167.473 29.0322C165.86 30.8064 164.57 32.8494 163.602 35.215C162.688 37.5806 162.204 40.1075 162.204 42.7957C162.204 45.4301 162.688 47.957 163.656 50.2688C164.624 52.5806 165.914 54.6236 167.527 56.3441C169.194 58.1183 171.129 59.5161 173.333 60.5376C175.538 61.7742 177.903 62.3118 180.484 62.3656ZM141.989 54.4623L129.678 24.7312C129.516 24.3548 129.14 24.1398 128.656 24.1398H126.237C125.807 24.1398 125.484 24.2473 125.323 24.4623C125.108 24.6774 125.161 25.1613 125.43 25.8602L139.893 60.4301C140.054 60.8064 140.215 61.0753 140.484 61.2903C140.699 61.4516 141.022 61.5591 141.452 61.5591H142.581C143.011 61.5591 143.333 61.4516 143.548 61.2903C143.764 61.129 143.979 60.8064 144.14 60.4301L158.602 25.8602C158.871 25.1613 158.925 24.6774 158.71 24.4623C158.548 24.2473 158.226 24.1398 157.796 24.1398H155.376C154.893 24.1398 154.516 24.3548 154.355 24.7312L141.989 54.4623ZM109.194 28.8172C110.699 29.4623 112.043 30.3763 113.226 31.5591C114.409 32.7419 115.376 34.086 116.183 35.6451C116.989 37.2043 117.473 38.8709 117.742 40.6451H91.2366C91.5592 38.8172 92.0969 37.1505 92.9033 35.5914C93.7098 34.0322 94.6775 32.6881 95.8603 31.5054C97.0431 30.3226 98.3334 29.4623 99.8388 28.7634C101.344 28.1183 102.903 27.7957 104.516 27.7957C106.129 27.7957 107.688 28.172 109.194 28.8172V28.8172ZM104.946 62.3656C107.581 62.3656 110 61.8817 112.258 60.914C114.516 59.9462 116.559 58.6559 118.28 56.9355C118.925 56.5054 119.247 56.0753 119.194 55.6451C119.194 55.215 118.979 54.7849 118.656 54.3011L118.065 53.4946C117.796 53.1183 117.473 52.9032 117.043 52.9032C116.667 52.9032 116.29 53.0645 115.968 53.4408C114.57 54.8387 112.957 55.9677 111.022 56.8279C109.14 57.6882 107.097 58.1183 104.946 58.1183H104.839C103.011 58.0645 101.29 57.6882 99.6775 56.9892C98.0646 56.2903 96.613 55.3226 95.3764 54.086C94.1399 52.8494 93.1184 51.4516 92.3657 49.7849C91.613 48.172 91.1291 46.3978 91.0753 44.4623H119.086C119.946 44.4623 120.645 44.3011 121.237 44.0322C121.828 43.7634 122.097 43.1183 122.097 42.2043C122.097 39.6236 121.613 37.2043 120.699 34.8925C119.785 32.6344 118.495 30.6451 116.936 28.9247C115.323 27.258 113.495 25.914 111.344 24.8925C109.247 23.9247 106.989 23.3871 104.624 23.3871C102.151 23.3871 99.785 23.9247 97.6345 24.8925C95.484 25.914 93.5485 27.3118 91.9356 29.0322C90.2689 30.8064 89.0323 32.8494 88.0646 35.215C87.1506 37.5806 86.6667 40.1075 86.6667 42.7957C86.6667 45.4301 87.1506 47.957 88.1184 50.2688C89.0861 52.5806 90.3764 54.6236 92.0431 56.3441C93.7098 58.1183 95.6452 59.5161 97.8495 60.5376C100 61.7742 102.366 62.3118 104.946 62.3656V62.3656Z" fill="#EF33A3"/>
<defs>
<linearGradient id="paint0_linear" x1="3.44097" y1="65.267" x2="45.4995" y2="43.8371" gradientUnits="userSpaceOnUse">
<stop stop-color="#5E74FA"/>
<stop offset="0.5973" stop-color="#AF50C9"/>
<stop offset="0.7533" stop-color="#C944B9"/>
<stop offset="1" stop-color="#EF33A3"/>
</linearGradient>
<linearGradient id="paint1_linear" x1="5.75002" y1="69.7716" x2="47.79" y2="48.3512" gradientUnits="userSpaceOnUse">
<stop stop-color="#5E74FA"/>
<stop offset="0.5973" stop-color="#AF50C9"/>
<stop offset="0.7533" stop-color="#C944B9"/>
<stop offset="1" stop-color="#EF33A3"/>
</linearGradient>
</defs>
</svg>
