<svg width="337" height="100" viewBox="0 0 337 100" fill="none" xmlns="http://www.w3.org/2000/svg">
<path fill-rule="evenodd" clip-rule="evenodd" d="M117.041 23.1546C109.309 23.1546 103.864 26.1981 100.379 31.3068L100.161 26.0894C100.162 25.8658 100.116 25.6444 100.027 25.439C99.9387 25.2337 99.8085 25.0488 99.6451 24.8959C99.4816 24.7429 99.2883 24.6252 99.0773 24.55C98.8663 24.4748 98.642 24.4439 98.4184 24.459H86.3324C86.1144 24.4458 85.8961 24.479 85.6919 24.5562C85.4878 24.6335 85.3023 24.7531 85.1479 24.9073C84.9935 25.0614 84.8737 25.2464 84.7962 25.4502C84.7188 25.654 84.6856 25.8719 84.6988 26.0894V96.7392C84.6856 96.9567 84.7188 97.1746 84.7962 97.3783C84.8737 97.5821 84.9935 97.7672 85.1479 97.9213C85.3023 98.0754 85.4878 98.195 85.6919 98.2723C85.8961 98.3496 86.1144 98.3827 86.3324 98.3696H99.7273C99.9508 98.3847 100.175 98.3537 100.386 98.2785C100.597 98.2033 100.79 98.0856 100.954 97.9327C101.117 97.7797 101.248 97.5948 101.336 97.3895C101.425 97.1841 101.471 96.9628 101.47 96.7392V72.1765C104.955 76.5243 110.073 79.0243 117.043 79.0243C131.96 79.0243 142.2 66.9597 142.2 51.0928C142.198 35.3286 131.961 23.1546 117.041 23.1546ZM113.447 63.9143C106.151 63.9143 101.25 58.8056 101.25 50.9801C101.25 43.3714 106.151 38.266 113.447 38.266C120.526 38.266 125.862 43.3747 125.862 51.0921C125.862 58.9142 120.526 63.9143 113.447 63.9143ZM150.394 77.718H163.789C164.013 77.7331 164.237 77.7021 164.448 77.6269C164.659 77.5518 164.852 77.4341 165.016 77.2811C165.179 77.1282 165.309 76.9432 165.398 76.7379C165.487 76.5326 165.532 76.3112 165.532 76.0876V1.63414C165.532 1.41051 165.487 1.18912 165.398 0.983785C165.309 0.778445 165.179 0.59357 165.016 0.440619C164.852 0.287668 164.659 0.169917 164.448 0.0947518C164.237 0.019587 164.013 -0.0113813 163.789 0.00372148H150.394C150.176 -0.00944759 149.958 0.0236647 149.754 0.100944C149.55 0.178223 149.364 0.297888 149.21 0.451997C149.055 0.606106 148.936 0.79118 148.858 0.994962C148.781 1.19874 148.747 1.4166 148.761 1.63414V76.0876C148.747 76.3051 148.781 76.523 148.858 76.7268C148.936 76.9305 149.055 77.1156 149.21 77.2697C149.364 77.4238 149.55 77.5435 149.754 77.6207C149.958 77.698 150.176 77.7312 150.394 77.718ZM227.852 24.459H215.76C215.537 24.4442 215.313 24.4754 215.102 24.5507C214.891 24.6259 214.698 24.7436 214.534 24.8965C214.371 25.0494 214.241 25.2342 214.152 25.4394C214.063 25.6446 214.017 25.8659 214.018 26.0894L213.8 31.2014C210.315 26.2014 204.87 23.1579 197.141 23.1579C182.329 23.1579 172.093 35.3319 172.093 51.0895C172.093 66.9584 182.329 79.0211 197.141 79.0211C204.764 79.0211 210.209 75.9776 213.8 70.9775L214.018 76.0863C214.017 76.3098 214.063 76.5311 214.152 76.7363C214.241 76.9415 214.371 77.1262 214.534 77.2791C214.698 77.432 214.891 77.5497 215.102 77.625C215.313 77.7003 215.537 77.7315 215.76 77.7167H227.74C227.97 77.7337 228.2 77.7049 228.419 77.6318C228.637 77.5586 228.838 77.4428 229.011 77.2909C229.184 77.139 229.324 76.9542 229.425 76.7474C229.525 76.5405 229.583 76.3157 229.595 76.0863V26.0861C229.595 25.8628 229.549 25.642 229.46 25.4372C229.371 25.2323 229.24 25.048 229.077 24.8954C228.914 24.7429 228.721 24.6254 228.51 24.5504C228.299 24.4753 228.076 24.4442 227.852 24.459ZM200.738 63.9143C193.655 63.9143 188.322 58.9143 188.322 51.0888C188.322 43.3714 193.655 38.2627 200.738 38.2627C208.031 38.2627 213.041 43.3714 213.041 50.9768C213.041 58.8036 208.031 63.9143 200.738 63.9143ZM270.135 23.1546C262.511 23.1546 257.501 26.959 254.346 32.2851L253.911 26.1981C253.911 24.8938 253.257 24.459 252.274 24.459H239.423C239.205 24.4462 238.987 24.4796 238.783 24.5571C238.58 24.6345 238.394 24.7543 238.24 24.9083C238.086 25.0624 237.967 25.2474 237.89 25.4509C237.812 25.6545 237.779 25.8721 237.793 26.0894V76.0896C237.779 76.3068 237.812 76.5244 237.89 76.728C237.967 76.9316 238.086 77.1165 238.24 77.2706C238.394 77.4247 238.58 77.5444 238.783 77.6219C238.987 77.6993 239.205 77.7328 239.423 77.72H252.71C252.933 77.7354 253.158 77.7046 253.369 77.6295C253.58 77.5545 253.773 77.4368 253.937 77.2838C254.1 77.1308 254.23 76.9457 254.319 76.7402C254.408 76.5348 254.453 76.3133 254.452 76.0896V49.1323C254.452 42.067 257.937 38.3714 263.706 38.3714C269.587 38.3714 272.636 42.067 272.636 49.1323V76.0876C272.636 76.3111 272.682 76.5323 272.77 76.7375C272.859 76.9427 272.989 77.1275 273.153 77.2804C273.316 77.4333 273.509 77.5511 273.72 77.6263C273.931 77.7016 274.155 77.7328 274.379 77.718H287.56C287.783 77.7328 288.008 77.7016 288.218 77.6263C288.429 77.5511 288.622 77.4333 288.786 77.2804C288.949 77.1275 289.079 76.9427 289.168 76.7375C289.257 76.5323 289.303 76.3111 289.302 76.0876V45.2192C289.302 31.3068 281.243 23.1546 270.135 23.1546ZM315.678 79.0223C326.456 79.0223 335.934 73.3702 336.04 62.3926C336.258 54.3491 330.925 49.6784 324.278 47.0671L316.219 43.9149C313.823 42.9366 311.975 41.5236 311.975 39.567C311.975 37.9366 312.952 36.0894 316.219 36.0894C319.163 36.0894 322.1 37.6105 325.585 40.3279C326.568 40.9801 327.327 41.0888 328.093 40.3279L333.644 33.8062C334.08 33.154 334.41 32.2844 333.756 31.5236C331.481 28.8775 328.656 26.758 325.477 25.3126C322.298 23.8672 318.841 23.1306 315.348 23.154C305.11 23.154 296.187 29.1322 296.187 39.5664C296.187 46.9577 300.754 51.5229 307.724 54.2397L314.694 57.0658C318.292 58.4788 319.486 59.6745 319.486 61.7397C319.486 64.131 317.526 65.218 314.589 65.218C310.774 65.218 307.183 63.5875 302.497 60.218C301.625 59.6745 300.649 59.3484 299.777 60.7614L295.421 66.8484C294.662 67.9354 294.55 69.2391 295.098 69.9999C299.559 75.3267 306.635 79.0223 315.678 79.0223ZM70.6233 43.7179C71.9288 43.7179 73.2049 44.1043 74.2904 44.8281C75.3758 45.552 76.2218 46.5808 76.7213 47.7846C77.2209 48.9883 77.3516 50.3129 77.097 51.5907C76.8423 52.8686 76.2136 54.0424 75.2905 54.9637C74.3674 55.885 73.1914 56.5124 71.911 56.7666C70.6307 57.0208 69.3035 56.8903 68.0975 56.3917C66.8914 55.8931 65.8605 55.0488 65.1353 53.9655C64.41 52.8821 64.0229 51.6085 64.0229 50.3055C64.0229 48.5584 64.7183 46.8828 65.9561 45.6474C67.194 44.412 68.8728 43.7179 70.6233 43.7179ZM55.8601 72.5896C55.8601 92.2629 41.056 100 28.0967 100C20.0383 100 12.3058 97.8261 6.75223 93.5869C6.2581 93.2181 5.92565 92.6731 5.82421 92.0656C5.72276 91.4581 5.86013 90.835 6.20769 90.3261L9.58316 83.6963C10.2366 82.5006 11.2168 81.9572 12.5237 82.718C14.1466 83.5707 15.829 84.3056 17.5578 84.917C24.3668 86.4361 38.3967 87.7628 40.6204 73.7885V69.5658C37.2449 73.9136 32.1263 76.5223 24.8295 76.5223C9.91252 76.5223 0 65.5447 0 49.7845C0 34.2416 9.90987 23.1546 24.9384 23.1546C32.3441 23.1546 37.4628 25.7633 40.8382 30.2199L41.056 26.0894C41.0428 25.8719 41.076 25.654 41.1535 25.4502C41.2309 25.2464 41.3508 25.0614 41.5052 24.9073C41.6596 24.7531 41.845 24.6335 42.0492 24.5562C42.2534 24.479 42.4717 24.4458 42.6896 24.459H54.8872C55.1051 24.4459 55.3234 24.4791 55.5275 24.5564C55.7316 24.6338 55.9169 24.7534 56.0712 24.9075C56.2256 25.0616 56.3454 25.2467 56.4228 25.4504C56.5002 25.6541 56.5334 25.8719 56.5202 26.0894L55.8601 72.5896ZM28.2043 38.0453C21.2349 38.0453 16.2252 42.6105 16.2252 49.7845C16.2252 57.0664 21.2349 61.6317 28.2043 61.6317C35.0654 61.6317 39.9663 57.0664 39.9663 49.7845C39.9676 42.6105 35.0668 38.0453 28.2056 38.0453H28.2043Z" fill="#4E00FF"/>
</svg>
