<svg width="290" height="100" viewBox="0 0 290 100" fill="none" xmlns="http://www.w3.org/2000/svg">
<path fill-rule="evenodd" clip-rule="evenodd" d="M260.143 75.931C256.015 75.9256 252.056 74.2817 249.137 71.3599C246.217 68.4381 244.575 64.4769 244.569 60.3448C244.575 56.2128 246.217 52.2516 249.137 49.3298C252.056 46.408 256.015 44.7641 260.143 44.7586C264.272 44.7641 268.23 46.408 271.15 49.3298C274.069 52.2516 275.712 56.2128 275.717 60.3448C275.712 64.4769 274.069 68.4381 271.15 71.3599C268.23 74.2817 264.272 75.9256 260.143 75.931V75.931ZM260.143 31.0345C243.994 31.0345 230.856 44.1828 230.856 60.3448C230.856 76.5069 243.994 89.6552 260.143 89.6552C276.293 89.6552 289.431 76.5069 289.431 60.3448C289.431 44.1828 276.293 31.0345 260.143 31.0345ZM100.922 80.9448C103.541 90.5207 109.75 96.4034 116.173 100L124.042 92.3586C124.042 92.3586 118.471 87.6 116.638 83.2828C115.06 79.5586 113.881 74.8759 113.867 68.3138C113.867 67.8655 113.971 63.3276 114.102 57.169C114.24 50.7034 114.781 37.931 115.097 26.0655C115.246 20.4897 115.318 14.8931 115.142 10.3448C110.439 11.8207 105.839 13.9724 101.818 16.169L101.832 18.3069L101.546 29.3931H101.481C101.481 29.3931 99.8817 67.2172 99.9231 69.0345C100.013 73.0448 100.347 77.3241 100.922 80.9448ZM1.27221 82.4C1.37558 82.9345 1.57543 83.6345 1.8304 84.4C4.91421 92 10.4547 96.8793 16.1262 100L24.12 92.2414C24.12 92.2414 18.5484 87.4897 16.7154 83.1828C15.1373 79.4621 13.9589 74.7862 13.9451 68.231C13.9451 67.7862 14.0485 63.2552 14.1794 57.1034C14.3172 50.6483 14.8582 37.8931 15.1752 26.0448C15.3234 20.4759 15.3957 14.8897 15.2234 10.3448C10.5168 11.8172 5.91688 13.969 1.89587 16.1586L1.90965 18.2966L1.62366 29.3655H1.5582C1.5582 29.3655 -0.0405588 67.1379 0.000788385 68.9517C0.104156 73.5483 0.527965 78.4931 1.27221 82.4V82.4ZM222.497 39.8724L221.77 29.5414L213.549 32.2655C213.342 26.0483 213.163 21.0207 214.637 17.4207C217.073 11.4897 223.965 8.17931 223.965 8.17931L219.423 0C212.629 2.35862 205.427 8.04828 202.74 14.6724C201.744 17.1207 200.948 20.869 200.769 28.6586C200.758 29.0862 200.758 29.5448 200.755 29.9931L200.669 30.0034L200.772 32.9759C200.807 34.4138 200.855 35.8655 200.914 37.2414L201.003 38.6483C201.186 42.9241 201.437 48.069 201.74 52.3379C202.285 60.1103 202.936 68.9172 203.008 69.9483C203.05 70.5345 203.084 71.131 203.112 71.7276V71.731C203.112 81.7483 203.336 85.331 196.4 93.9414L197.33 94.5724C197.322 94.5818 197.314 94.5909 197.306 94.6L205.717 100C210.537 95.3621 214.424 88.8069 215.55 79.5586C215.619 78.4138 215.671 77.1621 215.702 75.7759C215.847 69.4448 214.303 47.6517 214.086 44.6345C214.204 44.4778 214.264 44.2856 214.258 44.0897L222.493 39.8724H222.497ZM160.359 75.9759C151.697 75.9759 144.647 68.9655 144.647 60.3448C144.647 51.7241 151.697 44.7138 160.359 44.7138C169.021 44.7138 177.118 49.9207 177.118 60.3448C177.118 70.7655 169.021 75.9759 160.359 75.9759ZM190.866 75.8103C189.867 72.231 189.77 64.769 189.77 60.8586V33.4828C186.208 34.6552 182.707 36.4379 179.478 38.2276C174.213 33.5679 167.419 31.0078 160.39 31.0345C144.151 31.0345 130.933 44.1828 130.933 60.3448C130.933 76.5069 144.147 89.6552 160.393 89.6552C166.706 89.6552 172.487 87.6655 177.197 84.2862C177.463 84.0966 178.638 83.0448 178.638 83.0448C180.026 84.3483 182.635 86.7345 185.491 88.0414L192.954 80.369C192.954 80.369 191.734 78.9345 190.866 75.8103V75.8103ZM56.991 75.9759C48.3287 75.9759 41.279 68.9655 41.279 60.3448C41.279 51.7241 48.3287 44.7138 56.991 44.7138C65.6566 44.7138 73.7503 49.9207 73.7503 60.3448C73.7503 70.7655 65.6532 75.9759 56.991 75.9759ZM87.4983 75.8103C86.499 72.231 86.4026 64.769 86.4026 60.8586V33.4828C82.8398 34.6552 79.3391 36.4379 76.1106 38.2276C70.8447 33.5679 64.051 31.0078 57.022 31.0345C40.7829 31.0345 27.5656 44.1828 27.5656 60.3448C27.5656 76.5069 40.7794 89.6552 57.0254 89.6552C63.3377 89.6552 69.1195 87.6655 73.8296 84.2862C74.0949 84.0966 75.2698 83.0448 75.2698 83.0448C76.6584 84.3483 79.2667 86.7345 82.1231 88.0414L89.5863 80.369C89.5863 80.369 88.3666 78.9345 87.4983 75.8103" fill="#23CA46"/>
</svg>
