<svg xmlns="http://www.w3.org/2000/svg" width="160" height="39" viewBox="0 0 160 39" fill="none">
  <g clip-path="url(#clip0_1204_3055)">
    <path fill-rule="evenodd" clip-rule="evenodd" d="M0 14.9837C0 6.69482 6.82003 0 15.2097 0V5.41962C9.85115 5.41962 5.46685 9.72343 5.46685 14.9837C5.46685 20.2439 9.85115 24.5477 15.2097 24.5477C20.5683 24.5477 24.9526 20.297 24.9526 14.9305H30.4736C30.4736 23.2193 23.6536 29.9142 15.2097 29.9142C6.82003 29.9673 0 23.2193 0 14.9837Z" fill="#006C3F"/>
    <path d="M8.49805 14.9837C8.49805 11.3175 11.5292 8.34204 15.2639 8.34204C18.9987 8.34204 22.0298 11.3175 22.0298 14.9837C22.0298 18.6499 18.9987 21.6254 15.2639 21.6254C11.5292 21.6254 8.49805 18.6499 8.49805 14.9837Z" fill="#50B848"/>
    <path d="M19.9731 6.53533C19.9731 4.40999 21.7052 2.70972 23.8703 2.70972C26.0354 2.70972 27.7675 4.40999 27.7675 6.53533C27.7675 8.66067 26.0354 10.3609 23.8703 10.3609C21.7052 10.3609 19.9731 8.66067 19.9731 6.53533Z" fill="#006C3F"/>
    <path d="M143.437 10.0954L142.95 12.4333C141.813 17.481 141.38 19.1281 140.406 24.1758L140.189 24.3352L137.05 24.4415L136.888 24.229L138.132 19.0219L138.511 17.3216C137.158 17.2685 135.805 17.2685 134.452 17.2685C133.423 17.2685 132.612 17.2685 131.8 17.3216C131.367 19.3407 130.934 21.1472 130.392 24.1758L130.176 24.3352L127.036 24.4415L126.874 24.229L128.119 19.0219L128.606 16.7371C129.418 13.1772 129.58 12.3802 130.068 9.08591L130.284 8.87338C131.745 8.71398 132.07 8.60771 133.532 8.34204L133.694 8.55458L133.369 10.0423L132.882 12.3802L132.395 14.6118C133.532 14.6118 134.668 14.6649 135.805 14.6649C136.996 14.6649 137.808 14.6649 139.107 14.6118C139.54 12.699 139.702 11.6363 140.081 9.13904L140.298 8.92651C141.759 8.76711 142.084 8.66084 143.545 8.39517L143.708 8.60771L143.437 10.0954Z" fill="#50B848"/>
    <path d="M104.466 16.8433C104.682 15.9401 104.844 15.0899 104.844 14.2398C104.844 11.158 102.842 10.6798 101.705 10.6798C96.8336 10.6798 96.2382 18.0654 96.2382 19.1812C96.2382 21.6253 97.6996 22.688 99.3776 22.688C102.679 22.688 103.924 19.3406 104.466 16.8433ZM107.659 17.7997C106.955 20.4033 105.115 24.9196 99.2693 24.9196C95.1557 24.9196 92.8823 22.8474 92.8823 18.703C92.8823 18.1717 92.9364 17.5872 92.9906 16.9496C92.9906 16.7902 93.0447 16.6308 93.0447 16.4714C94.2355 9.6703 97.2666 3.18801 103.924 3.13487C104.79 3.13487 106.577 3.02861 107.821 2.76294L107.388 5.47275C106.143 5.79155 104.195 5.95095 103.112 5.95095C101.705 5.95095 100.731 6.48229 100.081 7.11989C99.7565 7.43869 99.4858 7.75749 99.2693 8.07629C99.0528 8.39509 98.9446 8.66076 98.8363 8.87329C99.7024 8.60763 100.677 8.44823 101.759 8.44823C105.819 8.44823 108.2 10.6798 108.2 14.5586C108.146 15.6212 107.984 16.7371 107.659 17.7997Z" fill="#50B848"/>
    <path fill-rule="evenodd" clip-rule="evenodd" d="M120.541 20.4565C120.216 20.7221 119.892 21.041 119.513 21.2535C118.701 21.7317 117.672 21.9442 116.86 21.9442C114.046 21.9442 113.288 19.6063 113.288 18.1717C113.288 18.0123 113.342 14.1336 116.59 11.9551C118.43 10.733 120.379 10.6799 121.407 10.6799C121.894 10.6799 122.327 10.733 122.814 10.733L120.541 20.4565ZM126.441 8.66084L126.279 8.39517L122.057 8.34204C119.242 8.34204 115.237 8.50144 112.422 11.7957C111.123 13.2835 109.986 15.887 109.986 18.278C109.986 22.0505 112.53 24.229 115.67 24.229C118.268 24.229 119.621 23.1132 120.162 22.6881L119.946 23.9102L120.108 24.1227L122.977 24.0696L123.193 23.857C123.789 20.2439 124.005 19.1281 125.088 14.4524L126.441 8.66084Z" fill="#50B848"/>
    <path fill-rule="evenodd" clip-rule="evenodd" d="M49.8512 16.1526C49.2558 18.8093 48.6062 19.6063 48.2815 20.0313C47.7402 20.6689 46.9824 21.2003 46.0623 21.2003C45.0338 21.2003 44.2219 20.7221 43.8972 19.7657C43.7889 19.5531 43.7348 19.1812 43.7348 18.4373C43.7348 17.0558 44.3843 13.6553 45.521 12.1676C45.8457 11.7956 46.6035 10.9455 48.0108 10.9455C49.797 10.9455 50.1759 12.4864 50.1759 13.6022C50.1759 14.5586 50.0135 15.4087 49.8512 16.1526ZM54.885 17.3215C55.1556 16.312 55.2639 15.3024 55.2639 14.2929C55.2639 12.4864 54.885 10.7861 53.3153 9.40462C51.8539 8.12941 49.9053 7.70435 48.0108 7.70435C40.0541 7.70435 38.5386 14.9305 38.5386 17.6934C38.5386 19.9251 39.1881 21.5722 40.5413 22.7411C42.0027 24.0163 44.1678 24.282 45.7375 24.282C48.065 24.282 50.0677 23.8038 51.7997 22.3692C53.4235 21.2003 54.3978 19.2875 54.885 17.3215Z" fill="#006C3F"/>
    <path d="M67.3341 11.9019H67.0094C66.7387 13.1239 66.414 14.5054 65.8727 16.6839L65.3856 18.9155C64.8443 21.4659 64.736 22.1035 64.4113 24.2288L64.1948 24.3882L58.8903 24.4945L58.7279 24.282C59.6481 20.722 59.8105 20.0313 60.7306 16.2057L61.0554 14.7179C61.326 13.4959 61.4884 12.6989 61.6508 11.955H61.4884H59.8105L56.2381 12.0613L56.0757 11.7956L57.1041 8.23564L57.3747 8.07624H67.8213L73.1258 7.96997L73.2881 8.12937L72.3138 11.6893L72.0432 11.9019L69.0121 11.7956H67.3341V11.9019Z" fill="#006C3F"/>
    <path d="M85.521 11.8487L79.6752 11.9019C79.6752 11.9019 78.9716 14.1866 78.322 16.737C77.6725 19.2874 76.9689 22.1035 76.5358 24.1757L76.3193 24.3351L71.3396 24.4414L71.1772 24.2288C72.2598 20.6689 72.4763 19.9781 73.5047 16.1525L73.8836 14.6648C74.2084 13.3896 74.4249 12.5926 74.5873 11.7956L75.4533 8.23564L75.6698 8.07624H85.7375L91.0419 7.96997L91.2584 8.12937C91.2584 8.12937 90.23 13.0708 89.5805 16.3651C88.931 19.7125 88.2273 24.0694 88.2273 24.0694L88.0108 24.2288L82.8146 24.3351L82.6522 24.1226C83.4641 20.6157 84.0595 18.0122 84.4925 16.0463C85.0338 14.1335 85.3044 12.6989 85.521 11.8487Z" fill="#006C3F"/>
    <path d="M149.662 14.9836C150.419 14.346 150.798 13.974 151.827 13.0176C152.909 12.0081 155.507 9.35142 155.995 8.82009L156.319 8.66069H159.838L159.946 8.92635C159.621 9.19202 159.459 9.29829 158.268 10.361C157.781 10.7329 157.456 11.0517 156.861 11.583L152.855 15.1961L157.618 24.1225L157.456 24.3882L154.046 24.4945L153.775 24.3351C152.963 22.4754 152.747 22.0503 151.664 19.8187L149.499 15.5149C148.85 18.4904 148.417 20.3501 147.659 24.2288L147.442 24.3882L144.303 24.4945L144.141 24.2819L145.386 19.0749L145.873 16.7901C146.685 13.2302 146.847 12.4332 147.334 9.13889L147.551 8.92635C149.012 8.76695 149.337 8.66069 150.798 8.39502L150.961 8.60755L150.636 10.0953L150.149 12.4332L149.662 14.9836Z" fill="#50B848"/>
  </g>
  <defs>
    <clipPath id="clip0_1204_3055">
      <rect width="160" height="39" fill="white"/>
    </clipPath>
  </defs>
</svg>
