<?xml version="1.0" encoding="UTF-8" standalone="no"?>
<svg
   xmlns:dc="http://purl.org/dc/elements/1.1/"
   xmlns:cc="http://creativecommons.org/ns#"
   xmlns:rdf="http://www.w3.org/1999/02/22-rdf-syntax-ns#"
   xmlns:svg="http://www.w3.org/2000/svg"
   xmlns="http://www.w3.org/2000/svg"
   xmlns:sodipodi="http://sodipodi.sourceforge.net/DTD/sodipodi-0.dtd"
   xmlns:inkscape="http://www.inkscape.org/namespaces/inkscape"
   width="129"
   height="22"
   viewBox="0 0 129 22"
   fill="none"
   version="1.1"
   id="svg868"
   sodipodi:docname="rabota-ua.svg"
   inkscape:version="0.92.5 (2060ec1f9f, 2020-04-08)">
  <metadata
     id="metadata874">
    <rdf:RDF>
      <cc:Work
         rdf:about="">
        <dc:format>image/svg+xml</dc:format>
        <dc:type
           rdf:resource="http://purl.org/dc/dcmitype/StillImage" />
        <dc:title></dc:title>
      </cc:Work>
    </rdf:RDF>
  </metadata>
  <defs
     id="defs872" />
  <sodipodi:namedview
     pagecolor="#ffffff"
     bordercolor="#666666"
     borderopacity="1"
     objecttolerance="10"
     gridtolerance="10"
     guidetolerance="10"
     inkscape:pageopacity="0"
     inkscape:pageshadow="2"
     inkscape:window-width="1868"
     inkscape:window-height="1016"
     id="namedview870"
     showgrid="false"
     inkscape:zoom="7.2903257"
     inkscape:cx="71.410203"
     inkscape:cy="8.9675506"
     inkscape:window-x="1972"
     inkscape:window-y="27"
     inkscape:window-maximized="1"
     inkscape:current-layer="svg868" />
  <path
     fill-rule="evenodd"
     clip-rule="evenodd"
     d="M35.9794 8.00321C36.8297 7.08257 37.8644 6.55864 39.262 6.55864H39.8764V9.89927C36.545 9.89927 35.9794 9.9485 35.9794 11.187V15.3587H32.7451V6.55864H35.9794V8.00321ZM60.3483 6.39199C62.9842 6.39199 65.0379 7.84274 65.0379 10.9552C65.0379 14.0677 62.9842 15.5182 60.3483 15.5182C58.7208 15.5182 57.6449 14.7267 57.0658 13.9898V15.3552H53.8318V4.58331H57.0658V7.92072C57.6449 7.18374 58.7208 6.39199 60.3483 6.39199V6.39199ZM59.4268 12.6336C60.7366 12.6336 61.626 12.047 61.626 10.9552C61.626 9.86343 60.7366 9.27687 59.4268 9.27687C57.9715 9.27687 57.0658 9.86343 57.0658 10.9552C57.0658 12.047 57.9715 12.6336 59.4268 12.6336V12.6336ZM71.7329 6.26178C74.8702 6.26178 77.4249 7.71189 77.4249 10.9549C77.4249 14.2307 74.8702 15.5833 71.7329 15.5833C68.5953 15.5833 66.0406 14.2307 66.0406 10.9549C66.0406 7.71189 68.5953 6.26178 71.7329 6.26178V6.26178ZM71.733 12.6991C73.0427 12.6991 73.9322 12.0799 73.9322 10.955C73.9322 9.8303 73.0427 9.21113 71.733 9.21113C70.2773 9.21113 69.3722 9.8303 69.3722 10.955C69.3722 12.0799 70.2773 12.6991 71.733 12.6991V12.6991ZM46.7288 6.26178C49.8661 6.26178 52.4207 7.71189 52.4207 10.9549C52.4207 14.2307 49.8661 15.5833 46.7288 15.5833C43.5912 15.5833 41.0365 14.2307 41.0365 10.9549C41.0365 7.71189 43.5912 6.26178 46.7288 6.26178V6.26178ZM46.7288 12.6991C48.0385 12.6991 48.928 12.0799 48.928 10.955C48.928 9.8303 48.0385 9.21113 46.7288 9.21113C45.2731 9.21113 44.3679 9.8303 44.3679 10.955C44.3679 12.0799 45.2731 12.6991 46.7288 12.6991V12.6991ZM83.1815 4.59943V6.55503H86.2541V9.48837H83.1815V11.4442C83.1815 12.4869 84.6696 12.2917 86.2541 12.2098V15.3554C85.1706 15.518 84.0549 15.518 83.8611 15.518C81.9686 15.518 79.9474 14.6705 79.9474 11.9328V9.48837H78.1688V6.55503H79.9474V4.59943H83.1815ZM95.4875 7.9207V6.55502H98.7217V15.3552H95.4875V13.9897C94.9087 14.7265 93.8328 15.5182 92.2049 15.5182C89.569 15.5182 87.5151 14.0677 87.5151 10.9552C87.5151 7.84273 89.569 6.39197 92.2049 6.39197C93.8328 6.39197 94.9087 7.18373 95.4875 7.9207V7.9207ZM93.1264 12.6336C94.5816 12.6336 95.4875 12.047 95.4875 10.9552C95.4875 9.86343 94.5816 9.27687 93.1264 9.27687C91.8169 9.27687 90.927 9.86343 90.927 10.9552C90.927 12.047 91.8169 12.6336 93.1264 12.6336V12.6336ZM125.274 6.57113H128.508V15.3713H125.274V14.006C124.695 14.7428 123.619 15.5343 121.991 15.5343C119.356 15.5343 117.302 14.0841 117.302 10.9713C117.302 7.85884 119.356 6.40809 121.991 6.40809C123.619 6.40809 124.695 7.19984 125.274 7.93682V6.57113ZM122.913 12.6501C124.369 12.6501 125.274 12.0631 125.274 10.9713C125.274 9.87967 124.369 9.29298 122.913 9.29298C121.603 9.29298 120.714 9.87967 120.714 10.9713C120.714 12.0631 121.603 12.6501 122.913 12.6501V12.6501ZM102.101 11.9816C103.395 11.9816 104.139 12.8297 104.139 13.7583C104.139 14.6873 103.395 15.5022 102.101 15.5022C100.792 15.5022 100.048 14.6873 100.048 13.7583C100.048 12.8297 100.792 11.9816 102.101 11.9816V11.9816ZM112.499 10.2055V6.55501H115.733V15.3552H112.499V13.9748C111.944 14.708 110.811 15.5182 109.378 15.5182C106.5 15.5182 104.915 14.0355 104.915 11.0203V6.55501H108.149V10.4337C108.149 11.9657 108.974 12.2914 110.316 12.2914C111.674 12.2914 112.499 11.7373 112.499 10.2055V10.2055Z"
     fill="white"
     id="path862"
     style="fill:#ff4e4e;fill-opacity:1" />
  <path
     fill-rule="evenodd"
     clip-rule="evenodd"
     d="M10.9037 8.04486V6.60004H7.66968V15.4001H10.9037V11.2284C10.9037 9.98964 11.4697 9.94092 14.8007 9.94092V6.60004H14.1863C12.7887 6.60004 11.754 7.12435 10.9037 8.04486"
     fill="white"
     id="path864"
     style="fill:#ff4e4e;fill-opacity:1" />
  <path
     fill-rule="evenodd"
     clip-rule="evenodd"
     d="M0 11.0001C0 4.93354 4.89552 0 10.9152 0C16.9347 0 21.8301 4.93354 21.8301 11.0001C21.8301 17.0666 16.9347 22 10.9152 22C4.89552 22 0 17.0666 0 11.0001M2.18301 11.0001C2.18301 15.8513 6.10144 19.8 10.9152 19.8C15.7289 19.8 19.6471 15.8513 19.6471 11.0001C19.6471 6.14881 15.7289 2.19997 10.9152 2.19997C6.10144 2.19997 2.18301 6.14881 2.18301 11.0001"
     fill="white"
     id="path866"
     style="fill:#ff4e4e;fill-opacity:1" />
</svg>
