<svg width="335" height="100" viewBox="0 0 335 100" fill="none" xmlns="http://www.w3.org/2000/svg">
<path d="M134.819 69.9993H142.499V34.0596H156.479V27.3997H120.839V34.0596H134.819V69.9993ZM156.715 69.9993H164.335V57.6394C164.335 51.8795 167.095 46.4795 173.335 46.4795C173.995 46.4795 174.895 46.5395 175.195 46.5995V39.0996C174.715 39.0396 174.235 38.9796 173.755 38.9796C169.135 38.9796 165.415 42.5795 164.035 46.8995H163.915C163.915 46.8995 164.035 45.9395 164.035 44.7995V39.3996H156.715V69.9993ZM180.504 34.1796H188.124V27.3997H180.504V34.1796ZM180.504 69.9993H188.124V39.3996H180.504V69.9993ZM196.266 81.9992H203.886V69.0393C203.886 67.4793 203.706 66.3994 203.706 66.3994H203.826C205.986 69.1593 209.166 70.7193 212.646 70.7193C220.686 70.7193 226.626 64.4194 226.626 54.6994C226.626 45.2195 221.346 38.6796 213.066 38.6796C208.926 38.6796 205.206 40.5396 203.226 43.8395H203.106C203.106 43.8395 203.226 42.8195 203.226 41.6796V39.3996H196.266V81.9992ZM203.646 54.8794C203.646 48.0995 207.366 45.2195 211.386 45.2195C215.826 45.2195 218.946 48.9995 218.946 54.8194C218.946 60.8794 215.466 64.2994 211.266 64.2994C206.286 64.2994 203.646 59.6194 203.646 54.8794ZM230.661 66.2194C233.841 69.2793 238.401 70.7193 242.661 70.7193C249.681 70.7193 254.24 66.6994 254.24 61.2994C254.24 51.2795 239.061 52.6595 239.061 47.7995C239.061 45.8795 240.681 44.8595 243.321 44.8595C246.021 44.8595 249.261 45.9395 251.06 47.4995L253.88 42.1595C251.06 39.6996 247.221 38.6796 243.561 38.6796C237.141 38.6796 231.861 41.8595 231.861 47.8595C231.861 57.8794 247.041 56.6794 247.041 61.4794C247.041 63.3994 245.481 64.5394 242.781 64.5394C239.721 64.5394 236.361 63.2794 234.081 61.1794L230.661 66.2194ZM262.043 58.7794C262.043 69.0393 270.503 70.2993 274.763 70.2993C275.783 70.2993 276.503 70.1793 277.103 70.1193V63.4594C276.503 63.5794 276.143 63.5794 275.723 63.5794C273.623 63.5794 269.663 62.8594 269.663 57.8194V45.8795H276.623V39.8196H269.663V31.0596H262.223V39.8196H258.083V45.8795H262.043V58.7794ZM280.83 54.6994C280.83 63.3994 287.19 70.7193 297.33 70.7193C301.71 70.7193 306.51 69.0993 309.63 66.3394L306.63 60.8794C304.17 62.8594 300.99 64.2394 297.87 64.2394C293.25 64.2394 289.17 61.4794 288.69 56.1394H309.75C309.87 55.1794 309.99 54.1595 309.99 53.1995C309.99 45.0995 305.19 38.6796 296.43 38.6796C287.25 38.6796 280.83 45.2795 280.83 54.6994ZM288.87 50.9195C289.59 47.0195 292.35 44.4395 296.25 44.4395C299.67 44.4395 302.31 46.8395 302.37 50.9195H288.87ZM316.322 69.9993H323.942V57.6394C323.942 51.8795 326.702 46.4795 332.942 46.4795C333.602 46.4795 334.502 46.5395 334.802 46.5995V39.0996C334.322 39.0396 333.842 38.9796 333.362 38.9796C328.742 38.9796 325.022 42.5795 323.642 46.8995H323.522C323.522 46.8995 323.642 45.9395 323.642 44.7995V39.3996H316.322V69.9993Z" fill="#2B3A49"/>
<path d="M49.9996 99.9992C77.6137 99.9992 99.9992 77.6137 99.9992 49.9996C99.9992 22.3856 77.6137 0 49.9996 0C22.3856 0 0 22.3856 0 49.9996C0 77.6137 22.3856 99.9992 49.9996 99.9992Z" fill="#8CA6BC"/>
<path d="M50.0007 84.2836C68.9361 84.2836 84.2862 68.9335 84.2862 49.9981C84.2862 31.0627 68.9361 15.7128 50.0007 15.7128C31.0654 15.7128 15.7152 31.0627 15.7152 49.9981C15.7152 68.9335 31.0654 84.2836 50.0007 84.2836Z" fill="white"/>
<path d="M69.5242 17.1434L88.3338 77.1429L43.8102 100L30.239 83.0954L69.5242 17.1434Z" fill="url(#paint0_linear)"/>
<path fill-rule="evenodd" clip-rule="evenodd" d="M42.6197 45.9518L30.239 83.0942L31.4293 83.8085L57.1436 54.285L42.6197 45.9518Z" fill="#2B3A49"/>
<path fill-rule="evenodd" clip-rule="evenodd" d="M68.332 16.6649L42.6179 45.9504L57.1416 54.2836L69.5225 17.1411L68.332 16.6649Z" fill="#F14555"/>
<defs>
<linearGradient id="paint0_linear" x1="65.1775" y1="65.8923" x2="24.9799" y2="31.4715" gradientUnits="userSpaceOnUse">
<stop offset="0.0648882" stop-color="#2B3743" stop-opacity="0"/>
<stop offset="1" stop-color="#2B3743"/>
</linearGradient>
</defs>
</svg>
