<svg width="194" height="194" viewBox="0 0 194 194" fill="none" xmlns="http://www.w3.org/2000/svg">
<rect width="11.1922" height="56.6322" transform="matrix(0.86601 0.500028 3.18351e-05 1 134.353 57.8865)" fill="#024CBE"/>
<rect width="56.6322" height="56.6322" transform="matrix(0.86601 -0.500028 -3.18351e-05 1 144.041 63.4844)" fill="#0064FF"/>
<rect width="56.6322" height="11.1922" transform="matrix(0.866041 -0.499972 0.866041 0.499972 134.353 57.89)" fill="#0064FF"/>
<rect width="11.1922" height="56.6322" transform="matrix(0.86601 0.500028 3.18351e-05 1 134.353 57.8865)" stroke="#00003C" stroke-width="0.74863" stroke-linejoin="bevel"/>
<rect width="56.6322" height="56.6322" transform="matrix(0.86601 -0.500028 -3.18351e-05 1 144.041 63.4844)" stroke="#00003C" stroke-width="0.74863" stroke-linejoin="bevel"/>
<rect width="56.6322" height="11.1922" transform="matrix(0.866041 -0.499972 0.866041 0.499972 134.353 57.89)" stroke="#00003C" stroke-width="0.74863" stroke-linejoin="bevel"/>
<path d="M183.286 56.6252L183.276 56.6248L183.267 56.625L170.738 56.9338C170.308 56.9352 169.849 57.15 169.487 57.359L169.463 57.3731C169.149 57.5539 168.727 57.7979 168.336 58.1358L168.286 58.1795L168.239 58.2328L155.709 72.441C154.956 73.2828 154.399 74.3646 154.199 75.4643L154.199 75.4643L154.198 75.4687L151.116 92.8588L151.113 92.8746L151.111 92.8901C150.963 93.9406 151.161 94.7921 151.65 95.2999L151.659 95.309L151.668 95.3171L160.338 102.695L160.355 102.709L160.374 102.72C160.95 103.053 161.764 103.029 162.594 102.606L162.609 102.599L162.624 102.59L176.404 94.6334C177.322 94.2085 178.177 93.2362 178.723 92.0695L187.387 74.6936L187.396 74.6745L187.405 74.6551C187.894 73.583 188.085 72.5178 187.989 71.6302L187.986 71.5997L187.98 71.5715L184.857 57.8589L184.362 58.2779L184.847 57.8225C184.596 57.0381 184 56.6526 183.286 56.6252Z" fill="#326DE6" stroke="white" stroke-width="1.17456"/>
<path d="M182.43 74.292C182.389 74.3157 182.348 74.3394 182.348 74.292C182.348 74.2445 182.266 74.292 182.184 74.3394C182.019 74.3869 181.855 74.4818 181.69 74.5767C181.608 74.6241 181.526 74.6716 181.444 74.6716L181.403 74.6953C180.951 74.9088 180.458 75.0987 180.006 75.2173C179.882 75.241 179.759 75.1698 179.718 75.0512C179.759 75.0275 179.718 75.0512 179.718 75.0512L179.389 75.1461C179.554 73.6752 179.472 72.2992 179.225 71.0656C178.938 69.8556 178.444 68.8118 177.787 68.0052L178.034 67.5781L178.034 67.5307C178.034 67.3883 178.075 67.1748 178.157 67.0324C178.527 66.4393 178.897 65.9411 179.307 65.4192C179.39 65.3243 179.472 65.2294 179.554 65.1345C179.718 64.9447 179.842 64.7786 180.006 64.5888C180.047 64.5176 180.088 64.4939 180.129 64.4227C180.17 64.3515 180.129 64.3753 180.129 64.3278C180.499 63.7821 180.581 63.1653 180.294 62.9043C180.17 62.7857 179.924 62.7857 179.718 62.9044C179.513 63.023 179.308 63.2365 179.143 63.4738L179.102 63.5449C179.061 63.6161 179.02 63.6873 178.979 63.711C178.856 63.9245 178.732 64.1381 178.65 64.3279C178.609 64.4465 178.527 64.5414 178.486 64.6126C178.198 65.1582 177.828 65.7513 177.458 66.2496C177.376 66.3445 177.294 66.4394 177.212 66.4868C177.171 66.5105 177.089 66.558 177.047 66.5343L177.006 66.558L176.678 66.985C176.349 66.7953 175.979 66.6292 175.65 66.4394C174.13 65.9413 172.24 66.1786 170.309 67.0564L170.268 66.7006L170.268 66.748C170.144 66.7243 170.103 66.6057 170.062 66.487C170.062 65.9651 170.062 65.4432 170.144 64.8263L170.144 64.7789C170.144 64.684 170.185 64.5654 170.185 64.4705C170.227 64.257 170.227 64.0672 170.268 63.8536L170.268 63.5689C170.309 63.0707 169.98 62.786 169.569 62.9759C169.323 63.0708 169.076 63.3555 168.871 63.7113C168.706 63.996 168.624 64.2807 168.624 64.518L168.624 64.7552C168.624 64.945 168.665 65.1111 168.706 65.2771C168.747 65.3483 168.747 65.4432 168.747 65.5381L168.747 65.5856C168.829 66.06 168.829 66.582 168.829 67.1514C168.788 67.3174 168.747 67.4835 168.624 67.6496L168.624 67.7445L168.583 68.1478C168.131 68.4562 167.679 68.8121 167.186 69.1917C165.254 70.7813 163.487 72.9877 162.131 75.4314L161.885 75.3839L161.844 75.4077C161.803 75.4314 161.762 75.5026 161.679 75.55C161.597 75.5975 161.515 75.5975 161.433 75.5975C161.063 75.4789 160.693 75.3128 160.406 75.0993C160.365 75.0281 160.282 75.0281 160.241 75.0044C160.118 74.9332 160.036 74.8383 159.913 74.7672C159.871 74.7434 159.83 74.7672 159.789 74.7434C159.748 74.7197 159.748 74.7197 159.748 74.7197C159.584 74.6723 159.378 74.696 159.173 74.8146C158.926 74.957 158.721 75.1705 158.598 75.4789C158.351 76.0483 158.433 76.5703 158.762 76.7126C158.803 76.6889 158.803 76.7363 158.803 76.7363C158.803 76.7363 158.885 76.7838 158.926 76.76C159.05 76.7838 159.214 76.7838 159.378 76.7838C159.461 76.7837 159.543 76.7837 159.625 76.7837C160.036 76.8312 160.447 76.8786 160.775 77.0684C160.858 77.1158 160.94 77.2582 160.899 77.4243L160.899 77.3768L161.145 77.5192C161.104 77.6378 161.063 77.7089 161.022 77.8276C159.748 80.8881 159.214 83.9485 159.583 86.4396L159.255 86.7243C159.255 86.7717 159.214 86.7954 159.214 86.7954C159.173 86.9615 159.049 87.1276 158.926 87.2937C158.474 87.697 158.022 88.0529 157.529 88.385C157.447 88.4325 157.365 88.4799 157.282 88.5748C157.118 88.6697 156.954 88.8121 156.789 88.907C156.748 88.9307 156.707 89.0019 156.625 89.0493C156.584 89.0731 156.584 89.0731 156.543 89.1442C156.091 89.5001 155.803 90.1407 155.885 90.6152C155.967 90.9947 156.337 91.0659 156.707 90.8049C156.789 90.7575 156.83 90.7337 156.912 90.6388C156.954 90.6151 156.954 90.6151 156.954 90.5677C156.954 90.5202 157.077 90.4965 157.118 90.4728C157.282 90.3304 157.447 90.1406 157.57 90.022C157.652 89.9271 157.734 89.8322 157.816 89.7847L157.858 89.761C158.31 89.3102 158.721 88.9306 159.214 88.551L159.255 88.5273C159.378 88.4561 159.501 88.4324 159.583 88.4798C159.625 88.4561 159.625 88.5036 159.625 88.5036L159.994 88.2426C160.611 90.0693 161.761 91.3504 163.364 91.8486C163.733 91.9672 164.062 92.0621 164.473 92.0621L164.268 92.5128C164.268 92.5603 164.309 92.5366 164.309 92.5366C164.391 92.6315 164.391 92.8212 164.35 92.9873C164.185 93.5567 163.939 94.1736 163.692 94.7429L163.692 94.7904C163.651 94.909 163.61 94.9802 163.528 95.1225C163.446 95.2649 163.363 95.5021 163.24 95.7631C163.199 95.8343 163.199 95.8817 163.158 95.9529C163.158 95.9529 163.158 96.0004 163.117 96.0241C162.911 96.6172 163.076 97.0917 163.446 97.1154C163.528 97.1154 163.651 97.0917 163.733 97.0442C164.062 96.8544 164.35 96.4511 164.514 96.024C164.514 96.024 164.514 95.9766 164.555 95.9529C164.555 95.9054 164.596 95.8342 164.637 95.7631C164.678 95.5495 164.761 95.3597 164.802 95.1462L164.884 94.8141C165.007 94.221 165.213 93.6279 165.418 93.0347C165.5 92.8449 165.624 92.6789 165.747 92.5602C165.788 92.5365 165.788 92.5365 165.788 92.4891L165.952 92.0146C167.103 91.8722 168.294 91.4214 169.527 90.7096C170.267 90.2826 171.006 89.7606 171.746 89.0963C172.198 88.7404 172.65 88.2896 173.061 87.91L173.225 88.1473C173.266 88.1235 173.266 88.1235 173.266 88.171C173.39 88.1473 173.513 88.171 173.595 88.2659C173.801 88.6217 174.006 88.9776 174.129 89.4284L174.129 89.4758L174.212 89.713C174.253 89.8791 174.294 90.0452 174.376 90.1401C174.417 90.1638 174.417 90.2113 174.458 90.235C174.458 90.235 174.458 90.2824 174.499 90.2587C174.663 90.4959 174.951 90.5671 175.28 90.3773C175.403 90.3061 175.485 90.2112 175.609 90.0926C175.773 89.9028 175.937 89.6181 175.978 89.3571C176.019 89.0962 176.02 88.8589 175.937 88.6691C175.937 88.6217 175.896 88.6454 175.896 88.6454C175.896 88.5979 175.855 88.5742 175.814 88.5505C175.732 88.4082 175.65 88.3133 175.526 88.2421C175.485 88.1709 175.444 88.1472 175.362 88.0998L175.362 88.0049C175.074 87.7439 174.869 87.388 174.705 87.0085C174.664 86.8898 174.664 86.7 174.746 86.5102C174.746 86.4628 174.787 86.4391 174.787 86.4391L174.664 86.1307C176.759 83.4497 178.362 80.2469 179.102 77.1153L179.43 76.9729C179.471 76.9492 179.471 76.9017 179.471 76.9017C179.554 76.7594 179.677 76.6408 179.8 76.5696L179.841 76.5459C180.293 76.3798 180.745 76.2611 181.156 76.2137L181.197 76.1899C181.279 76.1899 181.362 76.1899 181.444 76.1425C181.608 76.1425 181.731 76.1662 181.896 76.1188C181.937 76.095 181.978 76.1188 182.06 76.0713C182.101 76.0476 182.101 76.0476 182.142 76.0713C182.225 76.0713 182.266 76.0476 182.348 76.0001C182.718 75.7866 183.046 75.3121 183.17 74.8613C183.129 74.3631 182.8 74.1733 182.43 74.292V74.292ZM170.555 79.6778L169.445 80.9352L168.336 80.959L168.048 79.749L168.829 78.1595L170.062 77.4477L170.842 78.1357L170.555 79.6778V79.6778ZM177.253 72.7263C177.458 73.6041 177.499 74.5768 177.417 75.6207L173.513 76.5935C173.144 76.7121 172.938 76.4037 173.02 75.9292C173.061 75.7632 173.103 75.6445 173.185 75.5022L176.267 70.4963C176.719 71.0894 177.047 71.8485 177.253 72.7263V72.7263ZM175.034 69.4524L171.664 74.15C171.377 74.5058 170.966 74.6956 170.76 74.4821C170.678 74.4347 170.637 74.3635 170.637 74.2212L170.391 69.5712C172.199 68.7645 173.801 68.7407 175.034 69.4524V69.4524ZM167.597 71.3269L168.418 70.6626L168.213 75.5261C168.213 75.9531 167.884 76.4751 167.514 76.6886C167.391 76.7598 167.309 76.7598 167.185 76.7835L163.775 75.9533C164.843 74.1502 166.158 72.5369 167.597 71.3269ZM162.583 78.3969L165.624 79.7728C165.912 79.8914 165.953 80.3422 165.706 80.8167C165.624 81.0065 165.542 81.1014 165.377 81.2437L161.391 84.8737C161.268 82.952 161.679 80.6745 162.583 78.3969V78.3969ZM161.885 86.8191L165.953 83.6636C166.281 83.4738 166.61 83.5212 166.651 83.8771C166.692 83.9957 166.692 84.1855 166.61 84.3753L165.048 89.6422C163.61 89.3812 162.46 88.3849 161.885 86.8191V86.8191ZM171.212 87.317C170.637 87.7915 170.061 88.2185 169.445 88.5744C168.582 89.0727 167.678 89.4048 166.856 89.5947L168.87 84.2092C169.075 83.8058 169.404 83.5211 169.692 83.5449C169.815 83.5686 169.897 83.616 170.02 83.6872L171.993 86.6764C171.746 86.8662 171.5 87.056 171.212 87.317V87.317ZM176.225 80.2944C175.609 81.7891 174.746 83.2837 173.76 84.5649L172.157 81.03C172.075 80.6979 172.239 80.2234 172.527 79.9149C172.65 79.7963 172.774 79.6777 172.897 79.6065L177.006 78.0406C176.801 78.8235 176.554 79.5827 176.225 80.2944Z" fill="white"/>
<rect width="23.734" height="120.093" transform="matrix(0.86601 0.500028 3.18351e-05 1 0.999969 61.0356)" fill="#F5F5F5"/>
<rect width="120.093" height="120.093" transform="matrix(0.86601 -0.500028 -3.18351e-05 1 21.5445 72.9066)" fill="white"/>
<rect width="120.093" height="23.734" transform="matrix(0.866041 -0.499972 0.866041 0.499972 0.999969 61.0433)" fill="white"/>
<rect width="23.734" height="120.093" transform="matrix(0.86601 0.500028 3.18351e-05 1 0.999969 61.0356)" stroke="#00003C" stroke-width="1.58753" stroke-linejoin="bevel"/>
<rect width="120.093" height="120.093" transform="matrix(0.86601 -0.500028 -3.18351e-05 1 21.5445 72.9066)" stroke="#00003C" stroke-width="1.58753" stroke-linejoin="bevel"/>
<rect width="120.093" height="23.734" transform="matrix(0.866041 -0.499972 0.866041 0.499972 0.999969 61.0433)" stroke="#00003C" stroke-width="1.58753" stroke-linejoin="bevel"/>
<path d="M76.365 112.155L66.0534 119.073L66.0534 97.187L76.365 90.2695C82.0439 86.4599 86.6767 88.2683 86.6767 94.2948C86.6767 100.321 82.0439 108.345 76.365 112.155Z" fill="#0064FF"/>
<path d="M57.2281 101.055L51.6987 99.5177L37.0532 125.692L51.6987 129.765L57.2281 119.728L54.3886 119.093L54.3886 106.13L57.2281 101.055Z" fill="#00003C"/>
<path d="M98.0303 74.3866L92.5009 84.2688L95.1908 85.1711L95.1908 98.1342L92.5009 102.942L98.0303 104.634L112.676 78.4594L98.0303 74.3866Z" fill="#00003C"/>
<path d="M60.2148 84.8215L65.7442 86.2615L68.5837 81.5093L81.1369 72.639L83.8269 73.4841L89.5057 64.1242L74.8603 60.3102L60.2148 84.8215Z" fill="#00003C"/>
<path d="M86.6663 118.59L83.8269 117.995L81.1369 122.497L68.5837 131.368L65.7442 130.773L63.0542 135.275L60.2148 140.027L74.8603 143.841L89.5057 119.33L86.6663 118.59Z" fill="#00003C"/>
</svg>
