<svg width="159" height="53" viewBox="0 0 159 53" fill="none" xmlns="http://www.w3.org/2000/svg">
<g clip-path="url(#clip0_11_31224)">
<path d="M66.5199 5.00098V5.75587H64.8067V6.79383H66.1391V7.45439H64.8067V9.05853H63.8551V5.00098H66.5199Z" fill="#00003C"/>
<path d="M68.8039 5.00098V8.30367H70.4213V9.05853H67.9475V5.00098H68.8039Z" fill="#00003C"/>
<path d="M74.2281 5.00098L75.5605 9.05853H74.609L74.3233 8.11494H72.8005L72.5149 9.05853H71.6585L72.9909 5.00098H74.2281ZM74.0377 7.45439L73.467 5.66151L72.8957 7.45439H74.0377Z" fill="#00003C"/>
<path d="M77.8446 5.00098L79.3668 7.64312V5.00098H80.2238V9.05853H79.2716L77.5589 6.13333V9.05853H76.7026V5.00098H77.8446Z" fill="#00003C"/>
<path d="M81.5555 5.75587V5.00098H84.6964V5.75587H83.5545V9.05853H82.6023V5.75587H81.5555Z" fill="#00003C"/>
<path d="M73.3718 21.231C73.3718 24.2506 71.0879 26.5153 67.9476 26.5153H63.9503V15.9468H67.9476C71.0879 15.9468 73.3718 18.1171 73.3718 21.231ZM70.9927 21.231C70.9927 19.3438 69.7555 18.1171 67.8523 18.1171H66.1391V24.4393H67.8523C69.7555 24.345 70.9927 23.0239 70.9927 21.231Z" fill="#0064FF"/>
<path d="M83.0784 23.0241H76.8924C77.0828 24.1564 77.8445 24.7226 78.8913 24.7226C79.6524 24.7226 80.3183 24.3452 80.604 23.779H82.9832C82.4125 25.5719 80.7944 26.7042 78.8913 26.7042C76.4169 26.7042 74.609 24.817 74.609 22.3636C74.609 19.9102 76.4169 18.0229 78.8913 18.0229C81.4603 18.0229 83.1736 19.9102 83.1736 22.2693C83.0784 22.6467 83.0784 22.8354 83.0784 23.0241ZM76.8924 21.5143H80.8896C80.604 20.4763 79.8429 20.0046 78.8913 20.0046C77.8445 20.0046 77.0828 20.5707 76.8924 21.5143Z" fill="#0064FF"/>
<path d="M84.1252 22.3634C84.1252 19.9101 86.0283 18.1172 88.5027 18.1172C90.5962 18.1172 92.3095 19.4382 92.6898 21.4198H90.501C90.1208 20.5706 89.359 20.1931 88.5027 20.1931C87.2655 20.1931 86.4092 21.1368 86.4092 22.4578C86.4092 23.7789 87.3607 24.7225 88.5027 24.7225C89.359 24.7225 90.1208 24.2507 90.501 23.4015H92.785C92.4047 25.4774 90.6914 26.7985 88.5979 26.7985C86.0283 26.7041 84.1252 24.8169 84.1252 22.3634Z" fill="#0064FF"/>
<path d="M99.1615 26.5156L96.4966 22.6467V26.5156H94.3079V15.3809H96.4966V21.9862L98.971 18.4004H101.54L98.7806 22.2693L101.826 26.5156H99.1615Z" fill="#0064FF"/>
<path d="M110.581 21.5144V26.5156H108.392V21.8918C108.392 20.6651 107.916 20.0989 106.964 20.0989C105.822 20.0989 105.156 20.8539 105.156 22.2693V26.5156H102.968V15.3809H105.156V19.061C105.823 18.4948 106.679 18.1173 107.631 18.1173C109.439 18.1173 110.581 19.4384 110.581 21.5144Z" fill="#0064FF"/>
<path d="M112.008 22.4578C112.008 20.0044 113.911 18.1172 116.481 18.1172C119.051 18.1172 120.954 19.91 120.954 22.4578C120.954 24.9112 119.051 26.7985 116.481 26.7985C113.911 26.7041 112.008 24.9112 112.008 22.4578ZM118.67 22.4578C118.67 21.1368 117.718 20.1931 116.481 20.1931C115.244 20.1931 114.292 21.1368 114.292 22.4578C114.292 23.7789 115.244 24.7225 116.481 24.7225C117.718 24.6281 118.67 23.7789 118.67 22.4578Z" fill="#0064FF"/>
<path d="M122.381 23.0243V18.3062H124.57V22.7412C124.57 23.8735 125.236 24.6284 126.188 24.6284C127.234 24.6284 127.806 23.9679 127.806 22.7412V18.3062H129.994V23.0243C129.994 25.1946 128.472 26.7044 126.092 26.7044C123.904 26.7044 122.381 25.2889 122.381 23.0243Z" fill="#0064FF"/>
<path d="M131.517 23.7789H133.706C133.706 24.5338 134.277 24.9112 135.038 24.9112C135.609 24.9112 136.18 24.6281 136.18 24.062C136.18 23.4958 135.514 23.3071 134.562 23.2127C133.23 23.024 131.612 22.6465 131.612 20.7593C131.612 19.2495 132.944 18.1172 134.943 18.1172C136.942 18.1172 138.273 19.2495 138.273 20.8537H136.18C136.18 20.1931 135.704 19.9101 134.943 19.9101C134.277 19.9101 133.801 20.1931 133.801 20.6649C133.801 21.2311 134.467 21.3255 135.323 21.5142C136.656 21.7972 138.369 22.0803 138.369 24.062C138.369 25.7605 137.037 26.7985 134.943 26.7985C132.944 26.7041 131.517 25.5717 131.517 23.7789Z" fill="#0064FF"/>
<path d="M147.981 23.0241H141.795C141.985 24.1564 142.747 24.7226 143.793 24.7226C144.555 24.7226 145.22 24.3452 145.506 23.779H147.885C147.314 25.5719 145.697 26.7042 143.793 26.7042C141.319 26.7042 139.511 24.817 139.511 22.3636C139.511 19.9102 141.319 18.0229 143.793 18.0229C146.362 18.0229 148.076 19.9102 148.076 22.2693C148.076 22.6467 148.076 22.8354 147.981 23.0241ZM141.795 21.5143H145.792C145.506 20.4763 144.745 20.0046 143.793 20.0046C142.841 20.0046 142.08 20.5707 141.795 21.5143Z" fill="#0064FF"/>
<path d="M68.8039 44.8216C65.6636 44.8216 63.2844 42.4625 63.2844 39.3486C63.2844 36.2347 65.6636 33.7812 68.8039 33.7812C71.3729 33.7812 73.4671 35.4798 73.9426 38.0276H71.6586C71.1831 36.8008 70.1363 36.046 68.8039 36.046C66.9954 36.046 65.6636 37.4614 65.6636 39.3486C65.6636 41.2359 66.9954 42.6513 68.8039 42.6513C70.231 42.6513 71.2783 41.802 71.6586 40.4809H73.9426C73.5623 43.1231 71.4682 44.8216 68.8039 44.8216Z" fill="#00003C"/>
<path d="M75.0845 40.5755C75.0845 38.1221 76.9876 36.2349 79.5572 36.2349C82.1268 36.2349 84.0299 38.0277 84.0299 40.5755C84.0299 43.029 82.1268 44.9162 79.5572 44.9162C76.9876 44.8218 75.0845 43.029 75.0845 40.5755ZM81.6507 40.5755C81.6507 39.2545 80.6992 38.3108 79.462 38.3108C78.2248 38.3108 77.2732 39.2545 77.2732 40.5755C77.2732 41.8966 78.2248 42.8402 79.462 42.8402C80.7944 42.7459 81.6507 41.8966 81.6507 40.5755Z" fill="#00003C"/>
<path d="M97.7338 39.5373V44.6328H95.545V39.9147C95.545 38.7823 95.0689 38.2162 94.3078 38.2162C93.3563 38.2162 92.6898 38.9711 92.6898 40.1978V44.6328H90.501V39.9147C90.501 38.7823 90.1207 38.2162 89.2638 38.2162C88.217 38.2162 87.6463 38.9711 87.6463 40.1978V44.6328H85.4576V36.5177H86.9798L87.3607 37.5557C87.932 36.8008 88.8835 36.329 89.8351 36.329C90.8819 36.329 91.7382 36.8008 92.2143 37.65C92.785 36.8952 93.7365 36.329 94.7833 36.329C96.5918 36.2346 97.7338 37.5557 97.7338 39.5373Z" fill="#00003C"/>
<path d="M112.008 39.5373V44.6328H109.819V39.9147C109.819 38.7823 109.343 38.2162 108.582 38.2162C107.631 38.2162 106.965 38.9711 106.965 40.1978V44.6328H104.776V39.9147C104.776 38.7823 104.395 38.2162 103.539 38.2162C102.492 38.2162 101.921 38.9711 101.921 40.1978V44.6328H99.7321V36.5177H101.255L101.635 37.5557C102.206 36.8008 103.158 36.329 104.11 36.329C105.156 36.329 106.013 36.8008 106.489 37.65C107.059 36.8952 108.012 36.329 109.058 36.329C110.866 36.2346 112.008 37.5557 112.008 39.5373Z" fill="#00003C"/>
<path d="M122.477 36.4238V44.539H120.763L120.573 43.784C119.907 44.3502 118.956 44.7277 117.909 44.7277C115.434 44.7277 113.626 42.8404 113.626 40.387C113.626 37.9336 115.434 36.0464 117.909 36.0464C118.956 36.0464 119.907 36.4238 120.573 37.0843L120.763 36.3294L122.477 36.4238ZM120.288 40.4814C120.288 39.1603 119.336 38.2167 118.004 38.2167C116.672 38.2167 115.72 39.1603 115.72 40.4814C115.72 41.8024 116.672 42.7461 118.004 42.7461C119.336 42.7461 120.288 41.8024 120.288 40.4814Z" fill="#00003C"/>
<path d="M132.278 39.6319V44.5388H130.09V39.915C130.09 38.6883 129.614 38.1221 128.662 38.1221C127.52 38.1221 126.854 38.9714 126.854 40.2924V44.5388H124.665V36.4236H126.188L126.664 37.4616C127.33 36.7067 128.282 36.2349 129.423 36.2349C131.041 36.2349 132.278 37.6503 132.278 39.6319Z" fill="#00003C"/>
<path d="M142.556 33.4985V44.6332H140.938L140.653 43.9727C139.987 44.5389 139.035 44.9163 138.084 44.9163C135.609 44.9163 133.801 43.0291 133.801 40.5757C133.801 38.1222 135.609 36.235 138.084 36.235C138.94 36.235 139.701 36.5181 140.367 36.8956V33.4985H142.556ZM140.463 40.5757C140.463 39.2546 139.511 38.311 138.179 38.311C136.846 38.311 135.895 39.2546 135.895 40.5757C135.895 41.8967 136.846 42.8403 138.179 42.8403C139.511 42.8403 140.463 41.8024 140.463 40.5757Z" fill="#00003C"/>
<path d="M152.549 41.1418H146.363C146.553 42.2742 147.314 42.8403 148.361 42.8403C149.123 42.8403 149.789 42.4629 150.074 41.8967H152.453C151.882 43.6896 150.265 44.8219 148.361 44.8219C145.887 44.8219 144.079 42.9347 144.079 40.4812C144.079 38.0279 145.887 36.1406 148.361 36.1406C150.931 36.1406 152.644 38.0279 152.644 40.3869C152.644 40.7643 152.549 40.9531 152.549 41.1418ZM146.363 39.632H150.36C150.074 38.5941 149.313 38.1222 148.361 38.1222C147.409 38.1222 146.648 38.6884 146.363 39.632Z" fill="#00003C"/>
<path d="M159.115 36.4233V38.4993H158.163C156.926 38.4993 156.45 39.0655 156.45 40.3866V44.6329H154.261V36.5177H155.689L156.07 37.5557C156.64 36.8008 157.402 36.5177 158.448 36.5177H159.115V36.4233Z" fill="#00003C"/>
<path d="M27.6929 19.4385H20.6508V33.404H27.6929C31.5947 33.404 34.7351 30.2901 34.7351 26.4213C34.7351 22.5524 31.5947 19.4385 27.6929 19.4385Z" fill="#00003C"/>
<path d="M9.04063 17.4565L0 26.4209L9.04063 35.291H17.7006L8.65994 26.4209L17.7006 17.4565H9.04063Z" fill="#0064FF"/>
<path d="M35.6866 8.96442L26.646 0L17.7006 8.96442V17.457L26.646 8.58696L35.6866 17.457V8.96442Z" fill="#0064FF"/>
<path d="M44.4418 35.4799L53.4825 26.6099L44.4418 17.6455H35.7819L44.8225 26.6099L35.7819 35.4799H44.4418Z" fill="#0064FF"/>
<path d="M17.7957 44.0669L26.8363 53.0313L35.7817 44.0669V35.48L26.8363 44.4444L17.7957 35.48V44.0669Z" fill="#0064FF"/>
</g>
<defs>
<clipPath id="clip0_11_31224">
<rect width="159" height="53" fill="white"/>
</clipPath>
</defs>
</svg>
