<?xml version="1.0" encoding="us-ascii" standalone="no"?><svg xmlns="http://www.w3.org/2000/svg" xmlns:xlink="http://www.w3.org/1999/xlink" contentStyleType="text/css" height="435.4167px" preserveAspectRatio="none" style="width:1367px;height:435px;" version="1.1" viewBox="0 0 1367 435" width="1367.7083px" zoomAndPan="magnify"><defs><linearGradient id="gqzgsmmlkgtj60" x1="50%" x2="50%" y1="0%" y2="100%"><stop offset="0%" stop-color="#F5F5F5"/><stop offset="100%" stop-color="#C2C2C2"/></linearGradient><linearGradient id="gqzgsmmlkgtj61" x1="50%" x2="50%" y1="0%" y2="100%"><stop offset="0%" stop-color="#33B2E2"/><stop offset="100%" stop-color="#009FDB"/></linearGradient></defs><g><polygon fill="url(#gqzgsmmlkgtj60)" points="563.2813,10.4167,747.6563,10.4167,760.1563,67.2526,747.6563,124.0885,563.2813,124.0885,550.7813,67.2526,563.2813,10.4167" style="stroke:#C2C2C2;stroke-width:1.0416666666666667;"/><text fill="#5A5A5A" font-family="Verdana" font-size="16.6667" lengthAdjust="spacing" textLength="5.2083" x="652.8646" y="34.2204">&#160;</text><text fill="#5A5A5A" font-family="Verdana" font-size="16.6667" lengthAdjust="spacing" textLength="151.0417" x="579.9479" y="53.6214">&#1055;&#1086;&#1076;&#1076;&#1077;&#1088;&#1078;&#1080;&#1074;&#1072;&#1077;&#1090;&#1089;&#1103;</text><text fill="#5A5A5A" font-family="Verdana" font-size="16.6667" lengthAdjust="spacing" textLength="50" x="630.4688" y="73.0225">&#1079;&#1072;&#1082;&#1072;&#1079;</text><text fill="#5A5A5A" font-family="Verdana" font-size="16.6667" lengthAdjust="spacing" textLength="167.7083" x="571.6146" y="92.4235">&#1073;&#1072;&#1083;&#1072;&#1085;&#1089;&#1080;&#1088;&#1086;&#1074;&#1097;&#1080;&#1082;&#1086;&#1074;?</text><text fill="#5A5A5A" font-family="Verdana" font-size="16.6667" lengthAdjust="spacing" textLength="5.2083" x="652.8646" y="111.8245">&#160;</text><text fill="#5A5A5A" font-family="Verdana" font-size="16.6667" font-style="italic" lengthAdjust="spacing" textLength="21.875" x="452.8646" y="54.9886">&#1076;&#1072;</text><text fill="#5A5A5A" font-family="Verdana" font-size="16.6667" font-style="italic" lengthAdjust="spacing" textLength="30.2083" x="836.1979" y="54.9886">&#1085;&#1077;&#1090;</text><rect fill="none" height="169.5313" rx="10.4167" ry="10.4167" style="stroke:#009FDB;stroke-width:1.0416666666666667;" width="614.5833" x="11.4583" y="134.5052"/><path d="M282.2917,134.5052 L282.2917,163.2813 L271.875,173.6979 L11.4583,173.6979 " fill="none" style="stroke:#009FDB;stroke-width:1.0416666666666667;"/><text fill="#808080" font-family="Verdana" font-size="16.6667" lengthAdjust="spacing" textLength="243.75" x="22.9167" y="159.3506">&#1054;&#1073;&#1083;&#1072;&#1082;&#1072;: AWS, GCP, Azure, ...</text><line style="stroke:#009FDB;stroke-width:1.5625;" x1="121.875" x2="415.625" y1="191.4063" y2="191.4063"/><rect fill="url(#gqzgsmmlkgtj61)" height="48.5677" rx="10.4167" ry="10.4167" style="stroke:#009FDB;stroke-width:1.0416666666666667;" width="195.8333" x="23.9583" y="213.8021"/><text fill="#FFFFFF" font-family="Verdana" font-size="16.6667" lengthAdjust="spacing" textLength="35.4167" x="38.5417" y="243.8558">inlet</text><text fill="#FFFFFF" font-family="Verdana" font-size="16.6667" font-weight="bold" lengthAdjust="spacing" textLength="126.0417" x="79.1667" y="243.8558">LoadBalancer</text><rect fill="url(#gqzgsmmlkgtj61)" height="48.5677" rx="10.4167" ry="10.4167" style="stroke:#009FDB;stroke-width:1.0416666666666667;" width="370.8333" x="230.2083" y="213.8021"/><text fill="#FFFFFF" font-family="Verdana" font-size="16.6667" lengthAdjust="spacing" textLength="35.4167" x="244.7917" y="243.8558">inlet</text><text fill="#FFFFFF" font-family="Verdana" font-size="16.6667" font-weight="bold" lengthAdjust="spacing" textLength="301.0417" x="285.4167" y="243.8558">LoadBalancerWithProxyProtocol</text><rect fill="none" height="290.2344" rx="10.4167" ry="10.4167" style="stroke:#009FDB;stroke-width:1.0416666666666667;" width="709.375" x="646.875" y="134.5052"/><path d="M919.7917,134.5052 L919.7917,182.6823 L909.375,193.099 L646.875,193.099 " fill="none" style="stroke:#009FDB;stroke-width:1.0416666666666667;"/><text fill="#808080" font-family="Verdana" font-size="16.6667" lengthAdjust="spacing" textLength="97.9167" x="658.3333" y="159.3506">Bare metal;</text><text fill="#808080" font-family="Verdana" font-size="16.6667" lengthAdjust="spacing" textLength="245.8333" x="658.3333" y="178.7516">&#1054;&#1073;&#1083;&#1072;&#1082;&#1072;: vSpnere, OpenStack</text><line style="stroke:#009FDB;stroke-width:1.5625;" x1="776.5625" x2="1127.0833" y1="210.8073" y2="210.8073"/><rect fill="url(#gqzgsmmlkgtj61)" height="67.9688" rx="10.4167" ry="10.4167" style="stroke:#009FDB;stroke-width:1.0416666666666667;" width="209.375" x="671.875" y="233.2031"/><text fill="#FFFFFF" font-family="Verdana" font-size="16.6667" lengthAdjust="spacing" textLength="180.2083" x="686.4583" y="263.2568">&#1044;&#1086;&#1073;&#1072;&#1074;&#1100;&#1090;&#1077; &#1085;&#1077;&#1089;&#1082;&#1086;&#1083;&#1100;&#1082;&#1086;</text><text fill="#FFFFFF" font-family="Verdana" font-size="16.6667" lengthAdjust="spacing" textLength="143.75" x="704.6875" y="282.6579">&#1040;-&#1079;&#1072;&#1087;&#1080;&#1089;&#1077;&#1081; &#1074; DNS</text><rect fill="url(#gqzgsmmlkgtj61)" height="67.9688" rx="10.4167" ry="10.4167" style="stroke:#009FDB;stroke-width:1.0416666666666667;" width="433.3333" x="910.4167" y="233.2031"/><text fill="#FFFFFF" font-family="Verdana" font-size="16.6667" lengthAdjust="spacing" textLength="337.5" x="958.3333" y="263.2568">&#1048;&#1089;&#1087;&#1086;&#1083;&#1100;&#1079;&#1091;&#1081;&#1090;&#1077; &#1074;&#1085;&#1077;&#1096;&#1085;&#1080;&#1081; &#1073;&#1072;&#1083;&#1072;&#1085;&#1089;&#1080;&#1088;&#1086;&#1074;&#1097;&#1080;&#1082;</text><text fill="#FFFFFF" font-family="Verdana" font-size="16.6667" lengthAdjust="spacing" textLength="404.1667" x="925" y="282.6579">(Cloudflare, Qrator, metallb (&#1076;&#1083;&#1103; bare metal) ...)</text><line style="stroke:#009FDB;stroke-width:1.5625;" x1="776.5625" x2="1127.0833" y1="322.0052" y2="322.0052"/><line style="stroke:#009FDB;stroke-width:1.5625;" x1="807.8125" x2="1120.3125" y1="342.8385" y2="342.8385"/><rect fill="url(#gqzgsmmlkgtj61)" height="48.5677" rx="10.4167" ry="10.4167" style="stroke:#009FDB;stroke-width:1.0416666666666667;" width="195.8333" x="709.8958" y="363.6719"/><text fill="#FFFFFF" font-family="Verdana" font-size="16.6667" lengthAdjust="spacing" textLength="35.4167" x="724.4792" y="393.7256">inlet</text><text fill="#FFFFFF" font-family="Verdana" font-size="16.6667" font-weight="bold" lengthAdjust="spacing" textLength="126.0417" x="765.1042" y="393.7256">LoadBalancer</text><rect fill="url(#gqzgsmmlkgtj61)" height="48.5677" rx="10.4167" ry="10.4167" style="stroke:#009FDB;stroke-width:1.0416666666666667;" width="370.8333" x="934.8958" y="363.6719"/><text fill="#FFFFFF" font-family="Verdana" font-size="16.6667" lengthAdjust="spacing" textLength="35.4167" x="949.4792" y="393.7256">inlet</text><text fill="#FFFFFF" font-family="Verdana" font-size="16.6667" font-weight="bold" lengthAdjust="spacing" textLength="301.0417" x="990.1042" y="393.7256">LoadBalancerWithProxyProtocol</text><line style="stroke:#009FDB;stroke-width:3.125;" x1="121.875" x2="121.875" y1="192.9688" y2="213.8021"/><polygon fill="#009FDB" points="117.7083,203.3854,121.875,213.8021,126.0417,203.3854,121.875,207.5521" style="stroke:#009FDB;stroke-width:1.0416666666666667;"/><line style="stroke:#009FDB;stroke-width:3.125;" x1="415.625" x2="415.625" y1="192.9688" y2="213.8021"/><polygon fill="#009FDB" points="411.4583,203.3854,415.625,213.8021,419.7917,203.3854,415.625,207.5521" style="stroke:#009FDB;stroke-width:1.0416666666666667;"/><line style="stroke:#009FDB;stroke-width:3.125;" x1="776.5625" x2="776.5625" y1="212.3698" y2="233.2031"/><polygon fill="#009FDB" points="772.3958,222.7865,776.5625,233.2031,780.7292,222.7865,776.5625,226.9531" style="stroke:#009FDB;stroke-width:1.0416666666666667;"/><text fill="#5A5A5A" font-family="Verdana" font-size="16.6667" font-style="italic" lengthAdjust="spacing" textLength="88.5417" x="789.0625" y="228.5563">&#1042;&#1072;&#1088;&#1080;&#1072;&#1085;&#1090; 1</text><line style="stroke:#009FDB;stroke-width:3.125;" x1="1127.0833" x2="1127.0833" y1="212.3698" y2="233.2031"/><polygon fill="#009FDB" points="1122.9167,222.7865,1127.0833,233.2031,1131.25,222.7865,1127.0833,226.9531" style="stroke:#009FDB;stroke-width:1.0416666666666667;"/><text fill="#5A5A5A" font-family="Verdana" font-size="16.6667" font-style="italic" lengthAdjust="spacing" textLength="88.5417" x="1139.5833" y="228.5563">&#1042;&#1072;&#1088;&#1080;&#1072;&#1085;&#1090; 2</text><line style="stroke:#009FDB;stroke-width:3.125;" x1="776.5625" x2="776.5625" y1="301.1719" y2="322.0052"/><polygon fill="#009FDB" points="772.3958,311.5885,776.5625,322.0052,780.7292,311.5885,776.5625,315.7552" style="stroke:#009FDB;stroke-width:1.0416666666666667;"/><line style="stroke:#009FDB;stroke-width:3.125;" x1="1127.0833" x2="1127.0833" y1="301.1719" y2="322.0052"/><polygon fill="#009FDB" points="1122.9167,311.5885,1127.0833,322.0052,1131.25,311.5885,1127.0833,315.7552" style="stroke:#009FDB;stroke-width:1.0416666666666667;"/><line style="stroke:#009FDB;stroke-width:3.125;" x1="807.8125" x2="807.8125" y1="344.401" y2="363.6719"/><polygon fill="#009FDB" points="803.6458,353.2552,807.8125,363.6719,811.9792,353.2552,807.8125,357.4219" style="stroke:#009FDB;stroke-width:1.0416666666666667;"/><line style="stroke:#009FDB;stroke-width:3.125;" x1="1120.3125" x2="1120.3125" y1="344.401" y2="363.6719"/><polygon fill="#009FDB" points="1116.1458,353.2552,1120.3125,363.6719,1124.4792,353.2552,1120.3125,357.4219" style="stroke:#009FDB;stroke-width:1.0416666666666667;"/><line style="stroke:#009FDB;stroke-width:3.125;" x1="1007.8125" x2="1007.8125" y1="323.5677" y2="342.8385"/><polygon fill="#009FDB" points="1003.6458,332.4219,1007.8125,342.8385,1011.9792,332.4219,1007.8125,336.5885" style="stroke:#009FDB;stroke-width:1.0416666666666667;"/><line style="stroke:#009FDB;stroke-width:3.125;" x1="550.7813" x2="303.125" y1="67.2526" y2="67.2526"/><line style="stroke:#009FDB;stroke-width:3.125;" x1="303.125" x2="303.125" y1="67.2526" y2="191.4063"/><polygon fill="#009FDB" points="298.9583,180.9896,303.125,191.4063,307.2917,180.9896,303.125,185.1563" style="stroke:#009FDB;stroke-width:1.0416666666666667;"/><line style="stroke:#009FDB;stroke-width:3.125;" x1="760.1563" x2="1007.8125" y1="67.2526" y2="67.2526"/><line style="stroke:#009FDB;stroke-width:3.125;" x1="1007.8125" x2="1007.8125" y1="67.2526" y2="210.8073"/><polygon fill="#009FDB" points="1003.6458,200.3906,1007.8125,210.8073,1011.9792,200.3906,1007.8125,204.5573" style="stroke:#009FDB;stroke-width:1.0416666666666667;"/><!--SRC=[nP91RzCm5CVl-HIFMrjrbSQ1Gok1kavmGL0Kf5rsSHCdjUhQaUkmTGY9bWj8apOX3fpWAvI8qcxLjgzWVoEUamMoZPr95DlHy_i_lz_V3_IGZYaCU4fZHQRUPCH4GXGPmowDIChrKocqpuueR3-g18T4X0UAQKq5H8HFQ2NMLKeUv6bwoYamJJWBxWg_feUworainbHe272WghAhJvHccadXb7gIImMnejK33aWmYfLCHLY4jI9YWY5KyZoFHL3R5-QxkJG_yLtQz-QNMPlCB70zjpDxWj4L_ftZjyBr3vmt-5tOcLdZxakJsK-OSUvMJ_P57H2LW1gABQ3wrBsaF2kORwYpALJRqDtpc_2irsz2zoXLj0cjLWlUUW2JX3FjkUGs4vngQ3IUInBk44v4G5MZqSc3C6ASbzk1n8I9-vFsc1xsbJoSug1b87cfSYr2HVYdxZkFecTGkz67kN1agjti84mOKpImWu1kjFR6JmHrBRrCgF0rMd6hiQt7vhDP8CTrpdGEsyLfskOB0dMmCtjivsPPr9tbd3VssCrOx7GhD-SAhPYPfJa3ay7k2x_p3nftAZqiAtt5tAjhsPNzOCwAUbbUyIEEQoTyh_6vIgt7PHf6dBXcNocYfMeMJFWWlmmRUu9NiGHLTnxNExTu_yNo_mmN8Oj-0m00]--></g></svg>
