<?xml version="1.0" encoding="us-ascii" standalone="no"?><svg xmlns:xlink="http://www.w3.org/1999/xlink" xmlns="http://www.w3.org/2000/svg" contentStyleType="text/css" height="417.7083px" preserveAspectRatio="none" style="width:1367px;height:417px;" version="1.1" viewBox="0 0 1367 417" width="1367.7083px" zoomAndPan="magnify"><defs><linearGradient id="gu464w9pkir2k0" x1="50%" x2="50%" y1="0%" y2="100%"><stop offset="0%" stop-color="#F5F5F5"/><stop offset="100%" stop-color="#C2C2C2"/></linearGradient><linearGradient id="gu464w9pkir2k1" x1="50%" x2="50%" y1="0%" y2="100%"><stop offset="0%" stop-color="#33B2E2"/><stop offset="100%" stop-color="#009FDB"/></linearGradient></defs><g><polygon fill="url(#gu464w9pkir2k0)" points="563.2813,10.4167,747.6563,10.4167,760.1563,67.2526,747.6563,124.0885,563.2813,124.0885,550.7813,67.2526,563.2813,10.4167" style="stroke:#C2C2C2;stroke-width:1.0416666666666667;"/><text fill="#5A5A5A" font-family="Verdana" font-size="16.6667" lengthAdjust="spacing" textLength="5.2083" x="652.8646" y="34.2204">&#160;</text><text fill="#5A5A5A" font-family="Verdana" font-size="16.6667" lengthAdjust="spacing" textLength="151.0417" x="579.9479" y="53.6214">&#1055;&#1086;&#1076;&#1076;&#1077;&#1088;&#1078;&#1080;&#1074;&#1072;&#1077;&#1090;&#1089;&#1103;</text><text fill="#5A5A5A" font-family="Verdana" font-size="16.6667" lengthAdjust="spacing" textLength="50" x="630.4688" y="73.0225">&#1079;&#1072;&#1082;&#1072;&#1079;</text><text fill="#5A5A5A" font-family="Verdana" font-size="16.6667" lengthAdjust="spacing" textLength="167.7083" x="571.6146" y="92.4235">&#1073;&#1072;&#1083;&#1072;&#1085;&#1089;&#1080;&#1088;&#1086;&#1074;&#1097;&#1080;&#1082;&#1086;&#1074;?</text><text fill="#5A5A5A" font-family="Verdana" font-size="16.6667" lengthAdjust="spacing" textLength="5.2083" x="652.8646" y="111.8245">&#160;</text><text fill="#5A5A5A" font-family="Verdana" font-size="16.6667" font-style="italic" lengthAdjust="spacing" textLength="21.875" x="452.8646" y="54.9886">&#1076;&#1072;</text><text fill="#5A5A5A" font-family="Verdana" font-size="16.6667" font-style="italic" lengthAdjust="spacing" textLength="30.2083" x="836.1979" y="54.9886">&#1085;&#1077;&#1090;</text><rect fill="none" height="169.5313" rx="10.4167" ry="10.4167" style="stroke:#009FDB;stroke-width:1.0416666666666667;" width="614.5833" x="11.4583" y="134.5052"/><path d="M557.2917,134.5052 L557.2917,163.2813 L546.875,173.6979 L11.4583,173.6979 " fill="none" style="stroke:#009FDB;stroke-width:1.0416666666666667;"/><text fill="#808080" font-family="Verdana" font-size="16.6667" lengthAdjust="spacing" textLength="518.75" x="22.9167" y="159.3506">OpenStack-&#1086;&#1073;&#1083;&#1072;&#1082;&#1086;, Yandex, VK, Selectel, AWS, GCP, Azure, ...</text><line style="stroke:#009FDB;stroke-width:1.5625;" x1="121.875" x2="415.625" y1="191.4063" y2="191.4063"/><rect fill="url(#gu464w9pkir2k1)" height="48.5677" rx="10.4167" ry="10.4167" style="stroke:#009FDB;stroke-width:1.0416666666666667;" width="195.8333" x="23.9583" y="213.8021"/><text fill="#FFFFFF" font-family="Verdana" font-size="16.6667" lengthAdjust="spacing" textLength="35.4167" x="38.5417" y="243.8558">inlet</text><text fill="#FFFFFF" font-family="Verdana" font-size="16.6667" font-weight="bold" lengthAdjust="spacing" textLength="126.0417" x="79.1667" y="243.8558">LoadBalancer</text><rect fill="url(#gu464w9pkir2k1)" height="48.5677" rx="10.4167" ry="10.4167" style="stroke:#009FDB;stroke-width:1.0416666666666667;" width="370.8333" x="230.2083" y="213.8021"/><text fill="#FFFFFF" font-family="Verdana" font-size="16.6667" lengthAdjust="spacing" textLength="35.4167" x="244.7917" y="243.8558">inlet</text><text fill="#FFFFFF" font-family="Verdana" font-size="16.6667" font-weight="bold" lengthAdjust="spacing" textLength="301.0417" x="285.4167" y="243.8558">LoadBalancerWithProxyProtocol</text><rect fill="none" height="272.2656" rx="10.4167" ry="10.4167" style="stroke:#009FDB;stroke-width:1.0416666666666667;" width="709.375" x="646.875" y="134.5052"/><path d="M965.625,134.5052 L965.625,163.2813 L955.2083,173.6979 L646.875,173.6979 " fill="none" style="stroke:#009FDB;stroke-width:1.0416666666666667;"/><text fill="#808080" font-family="Verdana" font-size="16.6667" lengthAdjust="spacing" textLength="291.6667" x="658.3333" y="159.3506">Bare metal, &#1086;&#1073;&#1083;&#1072;&#1082;&#1086; &#1085;&#1072; vSphere, ...</text><line style="stroke:#009FDB;stroke-width:1.5625;" x1="776.5625" x2="1127.0833" y1="191.4063" y2="191.4063"/><rect fill="url(#gu464w9pkir2k1)" height="67.9688" rx="10.4167" ry="10.4167" style="stroke:#009FDB;stroke-width:1.0416666666666667;" width="209.375" x="671.875" y="213.8021"/><text fill="#FFFFFF" font-family="Verdana" font-size="16.6667" lengthAdjust="spacing" textLength="180.2083" x="686.4583" y="243.8558">&#1044;&#1086;&#1073;&#1072;&#1074;&#1100;&#1090;&#1077; &#1085;&#1077;&#1089;&#1082;&#1086;&#1083;&#1100;&#1082;&#1086;</text><text fill="#FFFFFF" font-family="Verdana" font-size="16.6667" lengthAdjust="spacing" textLength="143.75" x="704.6875" y="263.2568">&#1040;-&#1079;&#1072;&#1087;&#1080;&#1089;&#1077;&#1081; &#1074; DNS</text><rect fill="url(#gu464w9pkir2k1)" height="67.9688" rx="10.4167" ry="10.4167" style="stroke:#009FDB;stroke-width:1.0416666666666667;" width="433.3333" x="910.4167" y="213.8021"/><text fill="#FFFFFF" font-family="Verdana" font-size="16.6667" lengthAdjust="spacing" textLength="337.5" x="958.3333" y="243.8558">&#1048;&#1089;&#1087;&#1086;&#1083;&#1100;&#1079;&#1091;&#1081;&#1090;&#1077; &#1074;&#1085;&#1077;&#1096;&#1085;&#1080;&#1081; &#1073;&#1072;&#1083;&#1072;&#1085;&#1089;&#1080;&#1088;&#1086;&#1074;&#1097;&#1080;&#1082;</text><text fill="#FFFFFF" font-family="Verdana" font-size="16.6667" lengthAdjust="spacing" textLength="404.1667" x="925" y="263.2568">(Cloudflare, Qrator, metallb (&#1076;&#1083;&#1103; bare metal) ...)</text><line style="stroke:#009FDB;stroke-width:1.5625;" x1="776.5625" x2="1127.0833" y1="302.6042" y2="302.6042"/><line style="stroke:#009FDB;stroke-width:1.5625;" x1="807.8125" x2="1120.3125" y1="324.8698" y2="324.8698"/><rect fill="url(#gu464w9pkir2k1)" height="48.5677" rx="10.4167" ry="10.4167" style="stroke:#009FDB;stroke-width:1.0416666666666667;" width="195.8333" x="709.8958" y="345.7031"/><text fill="#FFFFFF" font-family="Verdana" font-size="16.6667" lengthAdjust="spacing" textLength="35.4167" x="724.4792" y="375.7568">inlet</text><text fill="#FFFFFF" font-family="Verdana" font-size="16.6667" font-weight="bold" lengthAdjust="spacing" textLength="126.0417" x="765.1042" y="375.7568">LoadBalancer</text><rect fill="url(#gu464w9pkir2k1)" height="48.5677" rx="10.4167" ry="10.4167" style="stroke:#009FDB;stroke-width:1.0416666666666667;" width="370.8333" x="934.8958" y="345.7031"/><text fill="#FFFFFF" font-family="Verdana" font-size="16.6667" lengthAdjust="spacing" textLength="35.4167" x="949.4792" y="375.7568">inlet</text><text fill="#FFFFFF" font-family="Verdana" font-size="16.6667" font-weight="bold" lengthAdjust="spacing" textLength="301.0417" x="990.1042" y="375.7568">LoadBalancerWithProxyProtocol</text><line style="stroke:#009FDB;stroke-width:3.125;" x1="121.875" x2="121.875" y1="192.9688" y2="213.8021"/><polygon fill="#009FDB" points="117.7083,203.3854,121.875,213.8021,126.0417,203.3854,121.875,207.5521" style="stroke:#009FDB;stroke-width:1.0416666666666667;"/><line style="stroke:#009FDB;stroke-width:3.125;" x1="415.625" x2="415.625" y1="192.9688" y2="213.8021"/><polygon fill="#009FDB" points="411.4583,203.3854,415.625,213.8021,419.7917,203.3854,415.625,207.5521" style="stroke:#009FDB;stroke-width:1.0416666666666667;"/><line style="stroke:#009FDB;stroke-width:3.125;" x1="776.5625" x2="776.5625" y1="192.9688" y2="213.8021"/><polygon fill="#009FDB" points="772.3958,203.3854,776.5625,213.8021,780.7292,203.3854,776.5625,207.5521" style="stroke:#009FDB;stroke-width:1.0416666666666667;"/><text fill="#5A5A5A" font-family="Verdana" font-size="16.6667" font-style="italic" lengthAdjust="spacing" textLength="88.5417" x="789.0625" y="209.1553">&#1042;&#1072;&#1088;&#1080;&#1072;&#1085;&#1090; 1</text><line style="stroke:#009FDB;stroke-width:3.125;" x1="1127.0833" x2="1127.0833" y1="192.9688" y2="213.8021"/><polygon fill="#009FDB" points="1122.9167,203.3854,1127.0833,213.8021,1131.25,203.3854,1127.0833,207.5521" style="stroke:#009FDB;stroke-width:1.0416666666666667;"/><text fill="#5A5A5A" font-family="Verdana" font-size="16.6667" font-style="italic" lengthAdjust="spacing" textLength="88.5417" x="1139.5833" y="209.1553">&#1042;&#1072;&#1088;&#1080;&#1072;&#1085;&#1090; 2</text><line style="stroke:#009FDB;stroke-width:3.125;" x1="776.5625" x2="776.5625" y1="281.7708" y2="302.6042"/><polygon fill="#009FDB" points="772.3958,292.1875,776.5625,302.6042,780.7292,292.1875,776.5625,296.3542" style="stroke:#009FDB;stroke-width:1.0416666666666667;"/><line style="stroke:#009FDB;stroke-width:3.125;" x1="1127.0833" x2="1127.0833" y1="281.7708" y2="302.6042"/><polygon fill="#009FDB" points="1122.9167,292.1875,1127.0833,302.6042,1131.25,292.1875,1127.0833,296.3542" style="stroke:#009FDB;stroke-width:1.0416666666666667;"/><line style="stroke:#009FDB;stroke-width:3.125;" x1="807.8125" x2="807.8125" y1="326.4323" y2="345.7031"/><polygon fill="#009FDB" points="803.6458,335.2865,807.8125,345.7031,811.9792,335.2865,807.8125,339.4531" style="stroke:#009FDB;stroke-width:1.0416666666666667;"/><line style="stroke:#009FDB;stroke-width:3.125;" x1="1120.3125" x2="1120.3125" y1="326.4323" y2="345.7031"/><polygon fill="#009FDB" points="1116.1458,335.2865,1120.3125,345.7031,1124.4792,335.2865,1120.3125,339.4531" style="stroke:#009FDB;stroke-width:1.0416666666666667;"/><line style="stroke:#009FDB;stroke-width:3.125;" x1="1007.8125" x2="1007.8125" y1="304.1667" y2="324.8698"/><polygon fill="#009FDB" points="1003.6458,314.4531,1007.8125,324.8698,1011.9792,314.4531,1007.8125,318.6198" style="stroke:#009FDB;stroke-width:1.0416666666666667;"/><line style="stroke:#009FDB;stroke-width:3.125;" x1="550.7813" x2="303.125" y1="67.2526" y2="67.2526"/><line style="stroke:#009FDB;stroke-width:3.125;" x1="303.125" x2="303.125" y1="67.2526" y2="191.4063"/><polygon fill="#009FDB" points="298.9583,180.9896,303.125,191.4063,307.2917,180.9896,303.125,185.1563" style="stroke:#009FDB;stroke-width:1.0416666666666667;"/><line style="stroke:#009FDB;stroke-width:3.125;" x1="760.1563" x2="1007.8125" y1="67.2526" y2="67.2526"/><line style="stroke:#009FDB;stroke-width:3.125;" x1="1007.8125" x2="1007.8125" y1="67.2526" y2="191.4063"/><polygon fill="#009FDB" points="1003.6458,180.9896,1007.8125,191.4063,1011.9792,180.9896,1007.8125,185.1563" style="stroke:#009FDB;stroke-width:1.0416666666666667;"/><!--SRC=[nLB1RjD04BtxAuPR4ZcHoe538u7IL700GP0H5L8l6tkShBBPjJORcXGXaVG2KgLM5GTk_88R4P8sQliBwpzYxCJWKdh6gzqTQsRUpBot3qmN-mXjCSIEPcDdqECoOfhrOHT3DXJcgPB6uuS8MuyApYwJmO7cng24a8a15dmDhTL1bcR60e4R9hX_5_WDZan3y8xiepJWqu6w4DLYsd33bKoHcaee3HsDnGRRpEzrj1hAOEqscia1kGZ9SHmUGcbVsk_sslwWDKy-sPzsQMSs9dkQJ98JyYxexvBsWknpkbUqhvA9NLBqjPqbNoZZChMUxCio45KIIWGMG_4hEr7UAxoAK7g66gjIrdc6H_akl2E-SEJ2s-SkU2ZGDoXSQEnvBZnhjiWw76fqeLQhmGS7O109RfmKV9jBWGOgbHUA1JjCCEcZhbJgcHDwN8Wy75Y7SNb_qXuttPPMep4THlbAv2WR49J1xxeV7IHDeNHhJdkLCbUSTeV8XZwIm2uKvqr3OtZlHLtSJ7LxgEfZUsPZudYPyJs5hNKds_Ph1XCJzSV9rCxNDIUP1glaEBr9gTDg9jmDoJInSti1TWQxBxtwFvYuK-bXNkaRvTviO1V9aRrOrvjb5J_JkKo1xtqK6KgfATGm20LBftojcL7QNVCXsjb3MIKdz4npaief4-NwNrp_eUN_YIq37lu2]--></g></svg>
