<?xml version="1.0" encoding="us-ascii" standalone="no"?><svg xmlns="http://www.w3.org/2000/svg" xmlns:xlink="http://www.w3.org/1999/xlink" contentStyleType="text/css" height="451.0417px" preserveAspectRatio="none" style="width:1362px;height:451px;" version="1.1" viewBox="0 0 1362 451" width="1362.5px" zoomAndPan="magnify"><defs><linearGradient id="gvrzam020om330" x1="50%" x2="50%" y1="0%" y2="100%"><stop offset="0%" stop-color="#F5F5F5"/><stop offset="100%" stop-color="#C2C2C2"/></linearGradient><linearGradient id="gvrzam020om331" x1="50%" x2="50%" y1="0%" y2="100%"><stop offset="0%" stop-color="#33B2E2"/><stop offset="100%" stop-color="#009FDB"/></linearGradient></defs><g><polygon fill="url(#gvrzam020om330)" points="562.1094,10.4167,746.4844,10.4167,758.9844,67.2526,746.4844,124.0885,562.1094,124.0885,549.6094,67.2526,562.1094,10.4167" style="stroke:#C2C2C2;stroke-width:1.0416666666666667;"/><text fill="#5A5A5A" font-family="Verdana" font-size="16.6667" lengthAdjust="spacing" textLength="5.2083" x="651.6927" y="34.2204">&#160;</text><text fill="#5A5A5A" font-family="Verdana" font-size="16.6667" lengthAdjust="spacing" textLength="151.0417" x="578.776" y="53.6214">&#1055;&#1086;&#1076;&#1076;&#1077;&#1088;&#1078;&#1080;&#1074;&#1072;&#1077;&#1090;&#1089;&#1103;</text><text fill="#5A5A5A" font-family="Verdana" font-size="16.6667" lengthAdjust="spacing" textLength="50" x="629.2969" y="73.0225">&#1079;&#1072;&#1082;&#1072;&#1079;</text><text fill="#5A5A5A" font-family="Verdana" font-size="16.6667" lengthAdjust="spacing" textLength="167.7083" x="570.4427" y="92.4235">&#1073;&#1072;&#1083;&#1072;&#1085;&#1089;&#1080;&#1088;&#1086;&#1074;&#1097;&#1080;&#1082;&#1086;&#1074;?</text><text fill="#5A5A5A" font-family="Verdana" font-size="16.6667" lengthAdjust="spacing" textLength="5.2083" x="651.6927" y="111.8245">&#160;</text><text fill="#5A5A5A" font-family="Verdana" font-size="16.6667" font-style="italic" lengthAdjust="spacing" textLength="23.9583" x="517.3177" y="54.9886">&#1044;&#1072;</text><text fill="#5A5A5A" font-family="Verdana" font-size="16.6667" font-style="italic" lengthAdjust="spacing" textLength="32.2917" x="767.3177" y="54.9886">&#1053;&#1077;&#1090;</text><rect fill="none" height="167.9688" rx="10.4167" ry="10.4167" style="stroke:#009FDB;stroke-width:1.0416666666666667;" width="614.5833" x="11.4583" y="134.5052"/><path d="M546.875,134.5052 L546.875,163.2813 L536.4583,173.6979 L11.4583,173.6979 " fill="none" style="stroke:#009FDB;stroke-width:1.0416666666666667;"/><text fill="#808080" font-family="Verdana" font-size="16.6667" lengthAdjust="spacing" textLength="508.3333" x="22.9167" y="159.3506">OpenStack-&#1086;&#1073;&#1083;&#1072;&#1082;&#1086;, Yandex, VK, Selectel, AWS, GCP, Azure...</text><line style="stroke:#009FDB;stroke-width:1.5625;" x1="121.875" x2="415.625" y1="191.4063" y2="191.4063"/><rect fill="url(#gvrzam020om331)" height="48.5677" rx="10.4167" ry="10.4167" style="stroke:#009FDB;stroke-width:1.0416666666666667;" width="195.8333" x="23.9583" y="212.2396"/><text fill="#FFFFFF" font-family="Verdana" font-size="16.6667" lengthAdjust="spacing" textLength="35.4167" x="38.5417" y="242.2933">inlet</text><text fill="#FFFFFF" font-family="Verdana" font-size="16.6667" font-weight="bold" lengthAdjust="spacing" textLength="126.0417" x="79.1667" y="242.2933">LoadBalancer</text><rect fill="url(#gvrzam020om331)" height="48.5677" rx="10.4167" ry="10.4167" style="stroke:#009FDB;stroke-width:1.0416666666666667;" width="370.8333" x="230.2083" y="212.2396"/><text fill="#FFFFFF" font-family="Verdana" font-size="16.6667" lengthAdjust="spacing" textLength="35.4167" x="244.7917" y="242.2933">inlet</text><text fill="#FFFFFF" font-family="Verdana" font-size="16.6667" font-weight="bold" lengthAdjust="spacing" textLength="301.0417" x="285.4167" y="242.2933">LoadBalancerWithProxyProtocol</text><rect fill="none" height="305.3385" rx="10.4167" ry="10.4167" style="stroke:#009FDB;stroke-width:1.0416666666666667;" width="704.6875" x="646.875" y="134.5052"/><path d="M955.2083,134.5052 L955.2083,163.2813 L944.7917,173.6979 L646.875,173.6979 " fill="none" style="stroke:#009FDB;stroke-width:1.0416666666666667;"/><text fill="#808080" font-family="Verdana" font-size="16.6667" lengthAdjust="spacing" textLength="281.25" x="658.3333" y="159.3506">Bare metal, &#1086;&#1073;&#1083;&#1072;&#1082;&#1086; &#1085;&#1072; vSphere...</text><line style="stroke:#009FDB;stroke-width:1.5625;" x1="776.5625" x2="1125" y1="191.4063" y2="191.4063"/><rect fill="url(#gvrzam020om331)" height="67.9688" rx="10.4167" ry="10.4167" style="stroke:#009FDB;stroke-width:1.0416666666666667;" width="209.375" x="671.875" y="248.3073"/><text fill="#FFFFFF" font-family="Verdana" font-size="16.6667" lengthAdjust="spacing" textLength="180.2083" x="686.4583" y="278.361">&#1044;&#1086;&#1073;&#1072;&#1074;&#1100;&#1090;&#1077; &#1085;&#1077;&#1089;&#1082;&#1086;&#1083;&#1100;&#1082;&#1086;</text><text fill="#FFFFFF" font-family="Verdana" font-size="16.6667" lengthAdjust="spacing" textLength="143.75" x="704.6875" y="297.762">&#1040;-&#1079;&#1072;&#1087;&#1080;&#1089;&#1077;&#1081; &#1074; DNS</text><rect fill="url(#gvrzam020om331)" height="67.9688" rx="10.4167" ry="10.4167" style="stroke:#009FDB;stroke-width:1.0416666666666667;" width="428.125" x="910.9375" y="248.3073"/><text fill="#FFFFFF" font-family="Verdana" font-size="16.6667" lengthAdjust="spacing" textLength="337.5" x="956.25" y="278.361">&#1048;&#1089;&#1087;&#1086;&#1083;&#1100;&#1079;&#1091;&#1081;&#1090;&#1077; &#1074;&#1085;&#1077;&#1096;&#1085;&#1080;&#1081; &#1073;&#1072;&#1083;&#1072;&#1085;&#1089;&#1080;&#1088;&#1086;&#1074;&#1097;&#1080;&#1082;</text><text fill="#FFFFFF" font-family="Verdana" font-size="16.6667" lengthAdjust="spacing" textLength="398.9583" x="925.5208" y="297.762">(Cloudflare, Qrator, metallb (&#1076;&#1083;&#1103; bare metal)...)</text><line style="stroke:#009FDB;stroke-width:1.5625;" x1="776.5625" x2="1125" y1="337.1094" y2="337.1094"/><line style="stroke:#009FDB;stroke-width:1.5625;" x1="826.3021" x2="1097.1354" y1="357.9427" y2="357.9427"/><rect fill="url(#gvrzam020om331)" height="48.5677" rx="10.4167" ry="10.4167" style="stroke:#009FDB;stroke-width:1.0416666666666667;" width="154.1667" x="749.2188" y="378.776"/><text fill="#FFFFFF" font-family="Verdana" font-size="16.6667" lengthAdjust="spacing" textLength="35.4167" x="763.8021" y="408.8298">inlet</text><text fill="#FFFFFF" font-family="Verdana" font-size="16.6667" font-weight="bold" lengthAdjust="spacing" textLength="84.375" x="804.4271" y="408.8298">HostPort</text><rect fill="url(#gvrzam020om331)" height="48.5677" rx="10.4167" ry="10.4167" style="stroke:#009FDB;stroke-width:1.0416666666666667;" width="329.1667" x="932.5521" y="378.776"/><text fill="#FFFFFF" font-family="Verdana" font-size="16.6667" lengthAdjust="spacing" textLength="35.4167" x="947.1354" y="408.8298">inlet</text><text fill="#FFFFFF" font-family="Verdana" font-size="16.6667" font-weight="bold" lengthAdjust="spacing" textLength="259.375" x="987.7604" y="408.8298">HostPortWithProxyProtocol</text><line style="stroke:#009FDB;stroke-width:3.125;" x1="121.875" x2="121.875" y1="192.9688" y2="212.2396"/><polygon fill="#009FDB" points="117.7083,201.8229,121.875,212.2396,126.0417,201.8229,121.875,205.9896" style="stroke:#009FDB;stroke-width:1.0416666666666667;"/><line style="stroke:#009FDB;stroke-width:3.125;" x1="415.625" x2="415.625" y1="192.9688" y2="212.2396"/><polygon fill="#009FDB" points="411.4583,201.8229,415.625,212.2396,419.7917,201.8229,415.625,205.9896" style="stroke:#009FDB;stroke-width:1.0416666666666667;"/><line style="stroke:#009FDB;stroke-width:3.125;" x1="776.5625" x2="776.5625" y1="192.9688" y2="248.3073"/><polygon fill="#009FDB" points="772.3958,237.8906,776.5625,248.3073,780.7292,237.8906,776.5625,242.0573" style="stroke:#009FDB;stroke-width:1.0416666666666667;"/><text fill="#5A5A5A" font-family="Verdana" font-size="16.6667" font-style="italic" lengthAdjust="spacing" textLength="88.5417" x="789.0625" y="225.6266">&#1042;&#1072;&#1088;&#1080;&#1072;&#1085;&#1090; 1</text><line style="stroke:#009FDB;stroke-width:3.125;" x1="1125" x2="1125" y1="192.9688" y2="248.3073"/><polygon fill="#009FDB" points="1120.8333,237.8906,1125,248.3073,1129.1667,237.8906,1125,242.0573" style="stroke:#009FDB;stroke-width:1.0416666666666667;"/><text fill="#5A5A5A" font-family="Verdana" font-size="16.6667" font-style="italic" lengthAdjust="spacing" textLength="88.5417" x="1137.5" y="225.6266">&#1042;&#1072;&#1088;&#1080;&#1072;&#1085;&#1090; 2</text><line style="stroke:#009FDB;stroke-width:3.125;" x1="776.5625" x2="776.5625" y1="316.276" y2="337.1094"/><polygon fill="#009FDB" points="772.3958,326.6927,776.5625,337.1094,780.7292,326.6927,776.5625,330.8594" style="stroke:#009FDB;stroke-width:1.0416666666666667;"/><line style="stroke:#009FDB;stroke-width:3.125;" x1="1125" x2="1125" y1="316.276" y2="337.1094"/><polygon fill="#009FDB" points="1120.8333,326.6927,1125,337.1094,1129.1667,326.6927,1125,330.8594" style="stroke:#009FDB;stroke-width:1.0416666666666667;"/><line style="stroke:#009FDB;stroke-width:3.125;" x1="826.3021" x2="826.3021" y1="359.5052" y2="378.776"/><polygon fill="#009FDB" points="822.1354,368.3594,826.3021,378.776,830.4688,368.3594,826.3021,372.526" style="stroke:#009FDB;stroke-width:1.0416666666666667;"/><line style="stroke:#009FDB;stroke-width:3.125;" x1="1097.1354" x2="1097.1354" y1="359.5052" y2="378.776"/><polygon fill="#009FDB" points="1092.9688,368.3594,1097.1354,378.776,1101.3021,368.3594,1097.1354,372.526" style="stroke:#009FDB;stroke-width:1.0416666666666667;"/><line style="stroke:#009FDB;stroke-width:3.125;" x1="1005.4688" x2="1005.4688" y1="338.6719" y2="357.9427"/><polygon fill="#009FDB" points="1001.3021,347.526,1005.4688,357.9427,1009.6354,347.526,1005.4688,351.6927" style="stroke:#009FDB;stroke-width:1.0416666666666667;"/><line style="stroke:#009FDB;stroke-width:3.125;" x1="549.6094" x2="303.125" y1="67.2526" y2="67.2526"/><line style="stroke:#009FDB;stroke-width:3.125;" x1="303.125" x2="303.125" y1="67.2526" y2="191.4063"/><polygon fill="#009FDB" points="298.9583,180.9896,303.125,191.4063,307.2917,180.9896,303.125,185.1563" style="stroke:#009FDB;stroke-width:1.0416666666666667;"/><line style="stroke:#009FDB;stroke-width:3.125;" x1="758.9844" x2="1005.4688" y1="67.2526" y2="67.2526"/><line style="stroke:#009FDB;stroke-width:3.125;" x1="1005.4688" x2="1005.4688" y1="67.2526" y2="191.4063"/><polygon fill="#009FDB" points="1001.3021,180.9896,1005.4688,191.4063,1009.6354,180.9896,1005.4688,185.1563" style="stroke:#009FDB;stroke-width:1.0416666666666667;"/><!--SRC=[bP9HQnD14CVVxrECRqcu1Eg33mqeQOeAYaPEB49VDdTpboMRtMEpiKb5CEcBGg4YFlWYVeKqD2PjQVeLzhwHSvUUFQq5vRZTEMRdFpk__zqn7UmXjCK08yr6Jh_BPSmqwy4sXcmWp4CbZSVt4JRk5P8T9eCzpOr12I4JVIpa6bghlQpCZ0G2Dqnm_wRmInoQXk2HxA4quDE2kd2gnRJXXYkPAZMLK1eYZSKBjfdVZRGQo62TDfh9FgL8oN4S7a9fLzhlTcLFw9adx-qFkxGpEwLuaeoJ8yekwEkCtWN5nxIVqtkHZEsIJg_iBFb85MTfz61Nbe5GIIZPBtPQTkByUl0yHkaPkakL3Xvd4bJYmcj2X4CNNZrnmKE1la7XGcF7S-5HiqNH_a1ZhLQ3jmv0FnRSq0wmoQL00vNAKyM2BIQOz55NAlKi2LqkH7uSMCIulBreXvjEIwlXY1QZV2LobIiHbC6llkyS91Dfk6yfdU9uMmGKUaWckb0S4Eo5dS8RB-vWDiRlKrJlsyzsIXIN6T49RAnRRnAzLOPwbXmc4pjFPUP4FALydXocEtdngPfPSqb6ZEtSdeATmVOph_wNqMzqkfjt-agrbrUoY-J0dgxxpRAE7sXTfiAtsfwfb9f23O9G40GNNcXcb7RND4IRQ9sG-17zY3cYCe4er_zWUqtbsgV7gczQIfj_DZOl-4zJPS33dm00]--></g></svg>
