<?xml version="1.0" encoding="us-ascii" standalone="no"?><svg xmlns="http://www.w3.org/2000/svg" xmlns:xlink="http://www.w3.org/1999/xlink" contentStyleType="text/css" height="451.0417px" preserveAspectRatio="none" style="width:1367px;height:451px;" version="1.1" viewBox="0 0 1367 451" width="1367.7083px" zoomAndPan="magnify"><defs><linearGradient id="g2utno0dscmsb0" x1="50%" x2="50%" y1="0%" y2="100%"><stop offset="0%" stop-color="#F5F5F5"/><stop offset="100%" stop-color="#C2C2C2"/></linearGradient><linearGradient id="g2utno0dscmsb1" x1="50%" x2="50%" y1="0%" y2="100%"><stop offset="0%" stop-color="#33B2E2"/><stop offset="100%" stop-color="#009FDB"/></linearGradient></defs><g><polygon fill="url(#g2utno0dscmsb0)" points="563.4115,10.4167,747.7865,10.4167,760.2865,67.2526,747.7865,124.0885,563.4115,124.0885,550.9115,67.2526,563.4115,10.4167" style="stroke:#C2C2C2;stroke-width:1.0416666666666667;"/><text fill="#5A5A5A" font-family="Verdana" font-size="16.6667" lengthAdjust="spacing" textLength="5.2083" x="652.9948" y="34.2204">&#160;</text><text fill="#5A5A5A" font-family="Verdana" font-size="16.6667" lengthAdjust="spacing" textLength="151.0417" x="580.0781" y="53.6214">&#1055;&#1086;&#1076;&#1076;&#1077;&#1088;&#1078;&#1080;&#1074;&#1072;&#1077;&#1090;&#1089;&#1103;</text><text fill="#5A5A5A" font-family="Verdana" font-size="16.6667" lengthAdjust="spacing" textLength="50" x="630.599" y="73.0225">&#1079;&#1072;&#1082;&#1072;&#1079;</text><text fill="#5A5A5A" font-family="Verdana" font-size="16.6667" lengthAdjust="spacing" textLength="167.7083" x="571.7448" y="92.4235">&#1073;&#1072;&#1083;&#1072;&#1085;&#1089;&#1080;&#1088;&#1086;&#1074;&#1097;&#1080;&#1082;&#1086;&#1074;?</text><text fill="#5A5A5A" font-family="Verdana" font-size="16.6667" lengthAdjust="spacing" textLength="5.2083" x="652.9948" y="111.8245">&#160;</text><text fill="#5A5A5A" font-family="Verdana" font-size="16.6667" font-style="italic" lengthAdjust="spacing" textLength="21.875" x="452.9948" y="54.9886">&#1076;&#1072;</text><text fill="#5A5A5A" font-family="Verdana" font-size="16.6667" font-style="italic" lengthAdjust="spacing" textLength="30.2083" x="836.3281" y="54.9886">&#1085;&#1077;&#1090;</text><rect fill="none" height="167.9688" rx="10.4167" ry="10.4167" style="stroke:#009FDB;stroke-width:1.0416666666666667;" width="614.5833" x="11.4583" y="134.5052"/><path d="M557.2917,134.5052 L557.2917,163.2813 L546.875,173.6979 L11.4583,173.6979 " fill="none" style="stroke:#009FDB;stroke-width:1.0416666666666667;"/><text fill="#808080" font-family="Verdana" font-size="16.6667" lengthAdjust="spacing" textLength="518.75" x="22.9167" y="159.3506">OpenStack-&#1086;&#1073;&#1083;&#1072;&#1082;&#1086;, Yandex, VK, Selectel, AWS, GCP, Azure, ...</text><line style="stroke:#009FDB;stroke-width:1.5625;" x1="121.875" x2="415.625" y1="191.4063" y2="191.4063"/><rect fill="url(#g2utno0dscmsb1)" height="48.5677" rx="10.4167" ry="10.4167" style="stroke:#009FDB;stroke-width:1.0416666666666667;" width="195.8333" x="23.9583" y="212.2396"/><text fill="#FFFFFF" font-family="Verdana" font-size="16.6667" lengthAdjust="spacing" textLength="35.4167" x="38.5417" y="242.2933">inlet</text><text fill="#FFFFFF" font-family="Verdana" font-size="16.6667" font-weight="bold" lengthAdjust="spacing" textLength="126.0417" x="79.1667" y="242.2933">LoadBalancer</text><rect fill="url(#g2utno0dscmsb1)" height="48.5677" rx="10.4167" ry="10.4167" style="stroke:#009FDB;stroke-width:1.0416666666666667;" width="370.8333" x="230.2083" y="212.2396"/><text fill="#FFFFFF" font-family="Verdana" font-size="16.6667" lengthAdjust="spacing" textLength="35.4167" x="244.7917" y="242.2933">inlet</text><text fill="#FFFFFF" font-family="Verdana" font-size="16.6667" font-weight="bold" lengthAdjust="spacing" textLength="301.0417" x="285.4167" y="242.2933">LoadBalancerWithProxyProtocol</text><rect fill="none" height="305.3385" rx="10.4167" ry="10.4167" style="stroke:#009FDB;stroke-width:1.0416666666666667;" width="709.8958" x="646.875" y="134.5052"/><path d="M965.625,134.5052 L965.625,163.2813 L955.2083,173.6979 L646.875,173.6979 " fill="none" style="stroke:#009FDB;stroke-width:1.0416666666666667;"/><text fill="#808080" font-family="Verdana" font-size="16.6667" lengthAdjust="spacing" textLength="291.6667" x="658.3333" y="159.3506">Bare metal, &#1086;&#1073;&#1083;&#1072;&#1082;&#1086; &#1085;&#1072; vSphere, ...</text><line style="stroke:#009FDB;stroke-width:1.5625;" x1="776.5625" x2="1127.6042" y1="191.4063" y2="191.4063"/><rect fill="url(#g2utno0dscmsb1)" height="67.9688" rx="10.4167" ry="10.4167" style="stroke:#009FDB;stroke-width:1.0416666666666667;" width="209.375" x="671.875" y="248.3073"/><text fill="#FFFFFF" font-family="Verdana" font-size="16.6667" lengthAdjust="spacing" textLength="180.2083" x="686.4583" y="278.361">&#1044;&#1086;&#1073;&#1072;&#1074;&#1100;&#1090;&#1077; &#1085;&#1077;&#1089;&#1082;&#1086;&#1083;&#1100;&#1082;&#1086;</text><text fill="#FFFFFF" font-family="Verdana" font-size="16.6667" lengthAdjust="spacing" textLength="143.75" x="704.6875" y="297.762">&#1040;-&#1079;&#1072;&#1087;&#1080;&#1089;&#1077;&#1081; &#1074; DNS</text><rect fill="url(#g2utno0dscmsb1)" height="67.9688" rx="10.4167" ry="10.4167" style="stroke:#009FDB;stroke-width:1.0416666666666667;" width="433.3333" x="910.9375" y="248.3073"/><text fill="#FFFFFF" font-family="Verdana" font-size="16.6667" lengthAdjust="spacing" textLength="337.5" x="958.8542" y="278.361">&#1048;&#1089;&#1087;&#1086;&#1083;&#1100;&#1079;&#1091;&#1081;&#1090;&#1077; &#1074;&#1085;&#1077;&#1096;&#1085;&#1080;&#1081; &#1073;&#1072;&#1083;&#1072;&#1085;&#1089;&#1080;&#1088;&#1086;&#1074;&#1097;&#1080;&#1082;</text><text fill="#FFFFFF" font-family="Verdana" font-size="16.6667" lengthAdjust="spacing" textLength="404.1667" x="925.5208" y="297.762">(Cloudflare, Qrator, metallb (&#1076;&#1083;&#1103; bare metal) ...)</text><line style="stroke:#009FDB;stroke-width:1.5625;" x1="776.5625" x2="1127.6042" y1="337.1094" y2="337.1094"/><line style="stroke:#009FDB;stroke-width:1.5625;" x1="828.9063" x2="1099.7396" y1="357.9427" y2="357.9427"/><rect fill="url(#g2utno0dscmsb1)" height="48.5677" rx="10.4167" ry="10.4167" style="stroke:#009FDB;stroke-width:1.0416666666666667;" width="154.1667" x="751.8229" y="378.776"/><text fill="#FFFFFF" font-family="Verdana" font-size="16.6667" lengthAdjust="spacing" textLength="35.4167" x="766.4063" y="408.8298">inlet</text><text fill="#FFFFFF" font-family="Verdana" font-size="16.6667" font-weight="bold" lengthAdjust="spacing" textLength="84.375" x="807.0313" y="408.8298">HostPort</text><rect fill="url(#g2utno0dscmsb1)" height="48.5677" rx="10.4167" ry="10.4167" style="stroke:#009FDB;stroke-width:1.0416666666666667;" width="329.1667" x="935.1563" y="378.776"/><text fill="#FFFFFF" font-family="Verdana" font-size="16.6667" lengthAdjust="spacing" textLength="35.4167" x="949.7396" y="408.8298">inlet</text><text fill="#FFFFFF" font-family="Verdana" font-size="16.6667" font-weight="bold" lengthAdjust="spacing" textLength="259.375" x="990.3646" y="408.8298">HostPortWithProxyProtocol</text><line style="stroke:#009FDB;stroke-width:3.125;" x1="121.875" x2="121.875" y1="192.9688" y2="212.2396"/><polygon fill="#009FDB" points="117.7083,201.8229,121.875,212.2396,126.0417,201.8229,121.875,205.9896" style="stroke:#009FDB;stroke-width:1.0416666666666667;"/><line style="stroke:#009FDB;stroke-width:3.125;" x1="415.625" x2="415.625" y1="192.9688" y2="212.2396"/><polygon fill="#009FDB" points="411.4583,201.8229,415.625,212.2396,419.7917,201.8229,415.625,205.9896" style="stroke:#009FDB;stroke-width:1.0416666666666667;"/><line style="stroke:#009FDB;stroke-width:3.125;" x1="776.5625" x2="776.5625" y1="192.9688" y2="248.3073"/><polygon fill="#009FDB" points="772.3958,237.8906,776.5625,248.3073,780.7292,237.8906,776.5625,242.0573" style="stroke:#009FDB;stroke-width:1.0416666666666667;"/><text fill="#5A5A5A" font-family="Verdana" font-size="16.6667" font-style="italic" lengthAdjust="spacing" textLength="88.5417" x="789.0625" y="225.6266">&#1042;&#1072;&#1088;&#1080;&#1072;&#1085;&#1090; 1</text><line style="stroke:#009FDB;stroke-width:3.125;" x1="1127.6042" x2="1127.6042" y1="192.9688" y2="248.3073"/><polygon fill="#009FDB" points="1123.4375,237.8906,1127.6042,248.3073,1131.7708,237.8906,1127.6042,242.0573" style="stroke:#009FDB;stroke-width:1.0416666666666667;"/><text fill="#5A5A5A" font-family="Verdana" font-size="16.6667" font-style="italic" lengthAdjust="spacing" textLength="88.5417" x="1140.1042" y="225.6266">&#1042;&#1072;&#1088;&#1080;&#1072;&#1085;&#1090; 2</text><line style="stroke:#009FDB;stroke-width:3.125;" x1="776.5625" x2="776.5625" y1="316.276" y2="337.1094"/><polygon fill="#009FDB" points="772.3958,326.6927,776.5625,337.1094,780.7292,326.6927,776.5625,330.8594" style="stroke:#009FDB;stroke-width:1.0416666666666667;"/><line style="stroke:#009FDB;stroke-width:3.125;" x1="1127.6042" x2="1127.6042" y1="316.276" y2="337.1094"/><polygon fill="#009FDB" points="1123.4375,326.6927,1127.6042,337.1094,1131.7708,326.6927,1127.6042,330.8594" style="stroke:#009FDB;stroke-width:1.0416666666666667;"/><line style="stroke:#009FDB;stroke-width:3.125;" x1="828.9063" x2="828.9063" y1="359.5052" y2="378.776"/><polygon fill="#009FDB" points="824.7396,368.3594,828.9063,378.776,833.0729,368.3594,828.9063,372.526" style="stroke:#009FDB;stroke-width:1.0416666666666667;"/><line style="stroke:#009FDB;stroke-width:3.125;" x1="1099.7396" x2="1099.7396" y1="359.5052" y2="378.776"/><polygon fill="#009FDB" points="1095.5729,368.3594,1099.7396,378.776,1103.9063,368.3594,1099.7396,372.526" style="stroke:#009FDB;stroke-width:1.0416666666666667;"/><line style="stroke:#009FDB;stroke-width:3.125;" x1="1008.0729" x2="1008.0729" y1="338.6719" y2="357.9427"/><polygon fill="#009FDB" points="1003.9063,347.526,1008.0729,357.9427,1012.2396,347.526,1008.0729,351.6927" style="stroke:#009FDB;stroke-width:1.0416666666666667;"/><line style="stroke:#009FDB;stroke-width:3.125;" x1="550.9115" x2="303.125" y1="67.2526" y2="67.2526"/><line style="stroke:#009FDB;stroke-width:3.125;" x1="303.125" x2="303.125" y1="67.2526" y2="191.4063"/><polygon fill="#009FDB" points="298.9583,180.9896,303.125,191.4063,307.2917,180.9896,303.125,185.1563" style="stroke:#009FDB;stroke-width:1.0416666666666667;"/><line style="stroke:#009FDB;stroke-width:3.125;" x1="760.2865" x2="1008.0729" y1="67.2526" y2="67.2526"/><line style="stroke:#009FDB;stroke-width:3.125;" x1="1008.0729" x2="1008.0729" y1="67.2526" y2="191.4063"/><polygon fill="#009FDB" points="1003.9063,180.9896,1008.0729,191.4063,1012.2396,180.9896,1008.0729,185.1563" style="stroke:#009FDB;stroke-width:1.0416666666666667;"/><!--SRC=[bL9HQnD147w_Np6-9U4Ig0y-DA2aAIee6Zcn27tPtCrTbcnsmsPZaufWuej2eI8- -EPVk0PZqeQsVs7l7pbtoTchjQ2txEuSC_FDpFVj7TF17a9R337IREmCkbpscMOzsCMG3OLvgAJn-272rhs2iyDaSA2vCIWXP6A01Lz3QtMGfPcnGE262UxV17w98zCGF98zb0PyEb0NebfC6swuaYbIKmcb8T9ORB3D_6warL06QxVHJ0x8HKYEu_0GIllIVhSNzWUjUVBU_hHBExCnsTDaaXoJTq5_PxGNP9_GlQ9zdapiag8lx2pvH1bdgVLWNvQ1g99G8h0OYb_PwUUzmlC-IizGOrNAEidmAD-5ryGNZbnuzSG53mNw1eKBZJtFXKVD5bc7Guqkr6erUEi03Fg26oS5t-PIe85AvQbYmGuJJFgeAvLwveGk5o8F1nOnBczFskEcqz9gDAR3A5-976K3WZBuNVUTWwGfbAxDQSzJvehJxX3Pq4CIs8NYl6be36-yVWStKrqVgdhVVh4nSRpC-9x2rhgJRVirWuc9-gDaQkVhcfDCWrLobDwarETg9jmboJInStiATWQxpxpwNvYuKUbkNkaRvLvkO1V91tkwhZVBAdwaSva2t_eeCfHIKwXX40gMJlb2CwEqk-P3jBE7iagEwPdc99LJ9ihrFxY-ekLAjyTgO5fActyMEa_uJv5bmCDV]--></g></svg>
