<?xml version="1.0" encoding="us-ascii" standalone="no"?><svg xmlns:xlink="http://www.w3.org/1999/xlink" xmlns="http://www.w3.org/2000/svg" contentStyleType="text/css" height="397.9167px" preserveAspectRatio="none" style="width:1291px;height:397px;" version="1.1" viewBox="0 0 1291 397" width="1291.6667px" zoomAndPan="magnify"><defs><linearGradient id="g1f0qs3qdz5mcf0" x1="50%" x2="50%" y1="0%" y2="100%"><stop offset="0%" stop-color="#F5F5F5"/><stop offset="100%" stop-color="#C2C2C2"/></linearGradient><linearGradient id="g1f0qs3qdz5mcf1" x1="50%" x2="50%" y1="0%" y2="100%"><stop offset="0%" stop-color="#33B2E2"/><stop offset="100%" stop-color="#009FDB"/></linearGradient></defs><g><polygon fill="url(#g1f0qs3qdz5mcf0)" points="517.7083,10.4167,755.2083,10.4167,767.7083,57.5521,755.2083,104.6875,517.7083,104.6875,505.2083,57.5521,517.7083,10.4167" style="stroke:#C2C2C2;stroke-width:1.0416666666666667;"/><text fill="#5A5A5A" font-family="Verdana" font-size="16.6667" lengthAdjust="spacing" textLength="5.2083" x="633.8542" y="34.2204">&#160;</text><text fill="#5A5A5A" font-family="Verdana" font-size="16.6667" lengthAdjust="spacing" textLength="111.4583" x="580.7292" y="53.6214">Is ordering of</text><text fill="#5A5A5A" font-family="Verdana" font-size="16.6667" lengthAdjust="spacing" textLength="220.8333" x="526.0417" y="73.0225">load balancers supported?</text><text fill="#5A5A5A" font-family="Verdana" font-size="16.6667" lengthAdjust="spacing" textLength="5.2083" x="633.8542" y="92.4235">&#160;</text><text fill="#5A5A5A" font-family="Verdana" font-size="16.6667" font-style="italic" lengthAdjust="spacing" textLength="28.125" x="401.0417" y="45.2881">yes</text><text fill="#5A5A5A" font-family="Verdana" font-size="16.6667" font-style="italic" lengthAdjust="spacing" textLength="20.8333" x="843.75" y="45.2881">no</text><rect fill="none" height="169.5313" rx="10.4167" ry="10.4167" style="stroke:#009FDB;stroke-width:1.0416666666666667;" width="614.5833" x="11.4583" y="115.1042"/><path d="M413.5417,115.1042 L413.5417,143.8802 L403.125,154.2969 L11.4583,154.2969 " fill="none" style="stroke:#009FDB;stroke-width:1.0416666666666667;"/><text fill="#808080" font-family="Verdana" font-size="16.6667" lengthAdjust="spacing" textLength="375" x="22.9167" y="139.9495">OpenStack-based cloud, AWS, GCP, Azure, ...</text><line style="stroke:#009FDB;stroke-width:1.5625;" x1="121.875" x2="415.625" y1="172.0052" y2="172.0052"/><rect fill="url(#g1f0qs3qdz5mcf1)" height="48.5677" rx="10.4167" ry="10.4167" style="stroke:#009FDB;stroke-width:1.0416666666666667;" width="195.8333" x="23.9583" y="194.401"/><text fill="#FFFFFF" font-family="Verdana" font-size="16.6667" lengthAdjust="spacing" textLength="35.4167" x="38.5417" y="224.4548">inlet</text><text fill="#FFFFFF" font-family="Verdana" font-size="16.6667" font-weight="bold" lengthAdjust="spacing" textLength="126.0417" x="79.1667" y="224.4548">LoadBalancer</text><rect fill="url(#g1f0qs3qdz5mcf1)" height="48.5677" rx="10.4167" ry="10.4167" style="stroke:#009FDB;stroke-width:1.0416666666666667;" width="370.8333" x="230.2083" y="194.401"/><text fill="#FFFFFF" font-family="Verdana" font-size="16.6667" lengthAdjust="spacing" textLength="35.4167" x="244.7917" y="224.4548">inlet</text><text fill="#FFFFFF" font-family="Verdana" font-size="16.6667" font-weight="bold" lengthAdjust="spacing" textLength="301.0417" x="285.4167" y="224.4548">LoadBalancerWithProxyProtocol</text><rect fill="none" height="272.2656" rx="10.4167" ry="10.4167" style="stroke:#009FDB;stroke-width:1.0416666666666667;" width="633.3333" x="646.875" y="115.1042"/><path d="M921.875,115.1042 L921.875,143.8802 L911.4583,154.2969 L646.875,154.2969 " fill="none" style="stroke:#009FDB;stroke-width:1.0416666666666667;"/><text fill="#808080" font-family="Verdana" font-size="16.6667" lengthAdjust="spacing" textLength="247.9167" x="658.3333" y="139.9495">Bare metal, vSphere cloud, ...</text><line style="stroke:#009FDB;stroke-width:1.5625;" x1="809.375" x2="1114.5833" y1="172.0052" y2="172.0052"/><rect fill="url(#g1f0qs3qdz5mcf1)" height="48.5677" rx="10.4167" ry="10.4167" style="stroke:#009FDB;stroke-width:1.0416666666666667;" width="260.4167" x="679.1667" y="204.1016"/><text fill="#FFFFFF" font-family="Verdana" font-size="16.6667" lengthAdjust="spacing" textLength="231.25" x="693.75" y="234.1553">Add multiple DNS A-records</text><rect fill="url(#g1f0qs3qdz5mcf1)" height="67.9688" rx="10.4167" ry="10.4167" style="stroke:#009FDB;stroke-width:1.0416666666666667;" width="291.6667" x="968.75" y="194.401"/><text fill="#FFFFFF" font-family="Verdana" font-size="16.6667" lengthAdjust="spacing" textLength="230.2083" x="999.4792" y="224.4548">Use external Load Balancer</text><text fill="#FFFFFF" font-family="Verdana" font-size="16.6667" lengthAdjust="spacing" textLength="262.5" x="983.3333" y="243.8558">(Cloudflare, Qrator, metallb, ...)</text><line style="stroke:#009FDB;stroke-width:1.5625;" x1="809.375" x2="1114.5833" y1="283.2031" y2="283.2031"/><line style="stroke:#009FDB;stroke-width:1.5625;" x1="769.7917" x2="1082.2917" y1="305.4688" y2="305.4688"/><rect fill="url(#g1f0qs3qdz5mcf1)" height="48.5677" rx="10.4167" ry="10.4167" style="stroke:#009FDB;stroke-width:1.0416666666666667;" width="195.8333" x="671.875" y="326.3021"/><text fill="#FFFFFF" font-family="Verdana" font-size="16.6667" lengthAdjust="spacing" textLength="35.4167" x="686.4583" y="356.3558">inlet</text><text fill="#FFFFFF" font-family="Verdana" font-size="16.6667" font-weight="bold" lengthAdjust="spacing" textLength="126.0417" x="727.0833" y="356.3558">LoadBalancer</text><rect fill="url(#g1f0qs3qdz5mcf1)" height="48.5677" rx="10.4167" ry="10.4167" style="stroke:#009FDB;stroke-width:1.0416666666666667;" width="370.8333" x="896.875" y="326.3021"/><text fill="#FFFFFF" font-family="Verdana" font-size="16.6667" lengthAdjust="spacing" textLength="35.4167" x="911.4583" y="356.3558">inlet</text><text fill="#FFFFFF" font-family="Verdana" font-size="16.6667" font-weight="bold" lengthAdjust="spacing" textLength="301.0417" x="952.0833" y="356.3558">LoadBalancerWithProxyProtocol</text><line style="stroke:#009FDB;stroke-width:3.125;" x1="121.875" x2="121.875" y1="173.5677" y2="194.401"/><polygon fill="#009FDB" points="117.7083,183.9844,121.875,194.401,126.0417,183.9844,121.875,188.151" style="stroke:#009FDB;stroke-width:1.0416666666666667;"/><line style="stroke:#009FDB;stroke-width:3.125;" x1="415.625" x2="415.625" y1="173.5677" y2="194.401"/><polygon fill="#009FDB" points="411.4583,183.9844,415.625,194.401,419.7917,183.9844,415.625,188.151" style="stroke:#009FDB;stroke-width:1.0416666666666667;"/><line style="stroke:#009FDB;stroke-width:3.125;" x1="809.375" x2="809.375" y1="173.5677" y2="204.1016"/><polygon fill="#009FDB" points="805.2083,193.6849,809.375,204.1016,813.5417,193.6849,809.375,197.8516" style="stroke:#009FDB;stroke-width:1.0416666666666667;"/><text fill="#5A5A5A" font-family="Verdana" font-size="16.6667" font-style="italic" lengthAdjust="spacing" textLength="70.8333" x="821.875" y="194.6045">Option 1</text><line style="stroke:#009FDB;stroke-width:3.125;" x1="1114.5833" x2="1114.5833" y1="173.5677" y2="194.401"/><polygon fill="#009FDB" points="1110.4167,183.9844,1114.5833,194.401,1118.75,183.9844,1114.5833,188.151" style="stroke:#009FDB;stroke-width:1.0416666666666667;"/><text fill="#5A5A5A" font-family="Verdana" font-size="16.6667" font-style="italic" lengthAdjust="spacing" textLength="70.8333" x="1127.0833" y="189.7542">Option 2</text><line style="stroke:#009FDB;stroke-width:3.125;" x1="809.375" x2="809.375" y1="252.6693" y2="283.2031"/><polygon fill="#009FDB" points="805.2083,272.7865,809.375,283.2031,813.5417,272.7865,809.375,276.9531" style="stroke:#009FDB;stroke-width:1.0416666666666667;"/><line style="stroke:#009FDB;stroke-width:3.125;" x1="1114.5833" x2="1114.5833" y1="262.3698" y2="283.2031"/><polygon fill="#009FDB" points="1110.4167,272.7865,1114.5833,283.2031,1118.75,272.7865,1114.5833,276.9531" style="stroke:#009FDB;stroke-width:1.0416666666666667;"/><line style="stroke:#009FDB;stroke-width:3.125;" x1="769.7917" x2="769.7917" y1="307.0313" y2="326.3021"/><polygon fill="#009FDB" points="765.625,315.8854,769.7917,326.3021,773.9583,315.8854,769.7917,320.0521" style="stroke:#009FDB;stroke-width:1.0416666666666667;"/><line style="stroke:#009FDB;stroke-width:3.125;" x1="1082.2917" x2="1082.2917" y1="307.0313" y2="326.3021"/><polygon fill="#009FDB" points="1078.125,315.8854,1082.2917,326.3021,1086.4583,315.8854,1082.2917,320.0521" style="stroke:#009FDB;stroke-width:1.0416666666666667;"/><line style="stroke:#009FDB;stroke-width:3.125;" x1="969.7917" x2="969.7917" y1="284.7656" y2="305.4688"/><polygon fill="#009FDB" points="965.625,295.0521,969.7917,305.4688,973.9583,295.0521,969.7917,299.2188" style="stroke:#009FDB;stroke-width:1.0416666666666667;"/><line style="stroke:#009FDB;stroke-width:3.125;" x1="505.2083" x2="303.125" y1="57.5521" y2="57.5521"/><line style="stroke:#009FDB;stroke-width:3.125;" x1="303.125" x2="303.125" y1="57.5521" y2="172.0052"/><polygon fill="#009FDB" points="298.9583,161.5885,303.125,172.0052,307.2917,161.5885,303.125,165.7552" style="stroke:#009FDB;stroke-width:1.0416666666666667;"/><line style="stroke:#009FDB;stroke-width:3.125;" x1="767.7083" x2="969.7917" y1="57.5521" y2="57.5521"/><line style="stroke:#009FDB;stroke-width:3.125;" x1="969.7917" x2="969.7917" y1="57.5521" y2="172.0052"/><polygon fill="#009FDB" points="965.625,161.5885,969.7917,172.0052,973.9583,161.5885,969.7917,165.7552" style="stroke:#009FDB;stroke-width:1.0416666666666667;"/><!--SRC=[nLB1RjD04BtxAuPR4ZcHoe538r6vgK18Y0OPr4ik6-_OMMKzkveTqwQ8VsVi9CMqvOmFArjltvlttlYDxB15sFeE6pQ7BEqTHSEcXHkiJUVbGo0ftIF2nRiHk3Daxzc9845jVC8HLZ27-u4c1u_Wn7XNlHJ-XWzIUDTGYoHGwO4ykhKsB4vSe5vf5NnWQ1Z71hUcsZSSEh97MDXGKaYLiipLCDdGfmI1BRAZ1aAz8H-CLPutL24dI5sCWGNjrOQce4qGJ0wOOFnCitXs0hSHgHGTEz-QX1Og7pgRGt5Nvl1njTQtnuunXyLY0JypW1IzawnNkNJaKM0s-wmEhay6PhFb0CBUUN- -3gOnZlvDkdEoMtDuEEWXeGh-h78IGR9FStzbgAk1oL-1A8mZNMjVqABkA8SVPToXVfvYlKmnVtyR1zR5SUHbOIsqkaiNTT4tNqeeveoLLfwMh-HvehyzqR-hEVqBaCbuw4F2EUM0JrQzaTgRljElR2HmVlJgjuEzwV9Pu3zM_r_ZP5tz6m00]--></g></svg>
