<?xml version="1.0" encoding="us-ascii" standalone="no"?><svg xmlns="http://www.w3.org/2000/svg" xmlns:xlink="http://www.w3.org/1999/xlink" contentStyleType="text/css" height="431.25px" preserveAspectRatio="none" style="width:1393px;height:431px;" version="1.1" viewBox="0 0 1393 431" width="1393.75px" zoomAndPan="magnify"><defs><linearGradient id="gyhtyuxi5m6240" x1="50%" x2="50%" y1="0%" y2="100%"><stop offset="0%" stop-color="#F5F5F5"/><stop offset="100%" stop-color="#C2C2C2"/></linearGradient><linearGradient id="gyhtyuxi5m6241" x1="50%" x2="50%" y1="0%" y2="100%"><stop offset="0%" stop-color="#33B2E2"/><stop offset="100%" stop-color="#009FDB"/></linearGradient></defs><g><polygon fill="url(#gyhtyuxi5m6240)" points="546.0938,10.4167,783.5938,10.4167,796.0938,57.5521,783.5938,104.6875,546.0938,104.6875,533.5938,57.5521,546.0938,10.4167" style="stroke:#C2C2C2;stroke-width:1.0416666666666667;"/><text fill="#5A5A5A" font-family="Verdana" font-size="16.6667" lengthAdjust="spacing" textLength="5.2083" x="662.2396" y="34.2204">&#160;</text><text fill="#5A5A5A" font-family="Verdana" font-size="16.6667" lengthAdjust="spacing" textLength="111.4583" x="609.1146" y="53.6214">Is ordering of</text><text fill="#5A5A5A" font-family="Verdana" font-size="16.6667" lengthAdjust="spacing" textLength="220.8333" x="554.4271" y="73.0225">load balancers supported?</text><text fill="#5A5A5A" font-family="Verdana" font-size="16.6667" lengthAdjust="spacing" textLength="5.2083" x="662.2396" y="92.4235">&#160;</text><text fill="#5A5A5A" font-family="Verdana" font-size="16.6667" font-style="italic" lengthAdjust="spacing" textLength="29.1667" x="496.0938" y="45.2881">Yes</text><text fill="#5A5A5A" font-family="Verdana" font-size="16.6667" font-style="italic" lengthAdjust="spacing" textLength="22.9167" x="804.4271" y="45.2881">No</text><rect fill="none" height="167.9688" rx="10.4167" ry="10.4167" style="stroke:#009FDB;stroke-width:1.0416666666666667;" width="614.5833" x="11.4583" y="115.1042"/><path d="M403.125,115.1042 L403.125,143.8802 L392.7083,154.2969 L11.4583,154.2969 " fill="none" style="stroke:#009FDB;stroke-width:1.0416666666666667;"/><text fill="#808080" font-family="Verdana" font-size="16.6667" lengthAdjust="spacing" textLength="364.5833" x="22.9167" y="139.9495">OpenStack-based cloud, AWS, GCP, Azure...</text><line style="stroke:#009FDB;stroke-width:1.5625;" x1="121.875" x2="415.625" y1="172.0052" y2="172.0052"/><rect fill="url(#gyhtyuxi5m6241)" height="48.5677" rx="10.4167" ry="10.4167" style="stroke:#009FDB;stroke-width:1.0416666666666667;" width="195.8333" x="23.9583" y="192.8385"/><text fill="#FFFFFF" font-family="Verdana" font-size="16.6667" lengthAdjust="spacing" textLength="35.4167" x="38.5417" y="222.8923">inlet</text><text fill="#FFFFFF" font-family="Verdana" font-size="16.6667" font-weight="bold" lengthAdjust="spacing" textLength="126.0417" x="79.1667" y="222.8923">LoadBalancer</text><rect fill="url(#gyhtyuxi5m6241)" height="48.5677" rx="10.4167" ry="10.4167" style="stroke:#009FDB;stroke-width:1.0416666666666667;" width="370.8333" x="230.2083" y="192.8385"/><text fill="#FFFFFF" font-family="Verdana" font-size="16.6667" lengthAdjust="spacing" textLength="35.4167" x="244.7917" y="222.8923">inlet</text><text fill="#FFFFFF" font-family="Verdana" font-size="16.6667" font-weight="bold" lengthAdjust="spacing" textLength="301.0417" x="285.4167" y="222.8923">LoadBalancerWithProxyProtocol</text><rect fill="none" height="305.3385" rx="10.4167" ry="10.4167" style="stroke:#009FDB;stroke-width:1.0416666666666667;" width="735.9375" x="646.875" y="115.1042"/><path d="M911.4583,115.1042 L911.4583,143.8802 L901.0417,154.2969 L646.875,154.2969 " fill="none" style="stroke:#009FDB;stroke-width:1.0416666666666667;"/><text fill="#808080" font-family="Verdana" font-size="16.6667" lengthAdjust="spacing" textLength="237.5" x="658.3333" y="139.9495">Bare metal, vSphere cloud...</text><line style="stroke:#009FDB;stroke-width:1.5625;" x1="802.0833" x2="1160.4167" y1="172.0052" y2="172.0052"/><rect fill="url(#gyhtyuxi5m6241)" height="48.5677" rx="10.4167" ry="10.4167" style="stroke:#009FDB;stroke-width:1.0416666666666667;" width="260.4167" x="671.875" y="238.6068"/><text fill="#FFFFFF" font-family="Verdana" font-size="16.6667" lengthAdjust="spacing" textLength="231.25" x="686.4583" y="268.6605">Add multiple DNS A-records</text><rect fill="url(#gyhtyuxi5m6241)" height="67.9688" rx="10.4167" ry="10.4167" style="stroke:#009FDB;stroke-width:1.0416666666666667;" width="419.7917" x="950.5208" y="228.9063"/><text fill="#FFFFFF" font-family="Verdana" font-size="16.6667" lengthAdjust="spacing" textLength="230.2083" x="1045.3125" y="258.96">Use external Load Balancer</text><text fill="#FFFFFF" font-family="Verdana" font-size="16.6667" lengthAdjust="spacing" textLength="390.625" x="965.1042" y="278.361">(Cloudflare, Qrator, metallb (for bare metal)...)</text><line style="stroke:#009FDB;stroke-width:1.5625;" x1="802.0833" x2="1160.4167" y1="317.7083" y2="317.7083"/><line style="stroke:#009FDB;stroke-width:1.5625;" x1="847.3958" x2="1107.2917" y1="338.5417" y2="338.5417"/><rect fill="url(#gyhtyuxi5m6241)" height="48.5677" rx="10.4167" ry="10.4167" style="stroke:#009FDB;stroke-width:1.0416666666666667;" width="154.1667" x="770.3125" y="359.375"/><text fill="#FFFFFF" font-family="Verdana" font-size="16.6667" lengthAdjust="spacing" textLength="35.4167" x="784.8958" y="389.4287">inlet</text><text fill="#FFFFFF" font-family="Verdana" font-size="16.6667" font-weight="bold" lengthAdjust="spacing" textLength="84.375" x="825.5208" y="389.4287">HostPort</text><rect fill="url(#gyhtyuxi5m6241)" height="48.5677" rx="10.4167" ry="10.4167" style="stroke:#009FDB;stroke-width:1.0416666666666667;" width="329.1667" x="942.7083" y="359.375"/><text fill="#FFFFFF" font-family="Verdana" font-size="16.6667" lengthAdjust="spacing" textLength="35.4167" x="957.2917" y="389.4287">inlet</text><text fill="#FFFFFF" font-family="Verdana" font-size="16.6667" font-weight="bold" lengthAdjust="spacing" textLength="259.375" x="997.9167" y="389.4287">HostPortWithProxyProtocol</text><line style="stroke:#009FDB;stroke-width:3.125;" x1="121.875" x2="121.875" y1="173.5677" y2="192.8385"/><polygon fill="#009FDB" points="117.7083,182.4219,121.875,192.8385,126.0417,182.4219,121.875,186.5885" style="stroke:#009FDB;stroke-width:1.0416666666666667;"/><line style="stroke:#009FDB;stroke-width:3.125;" x1="415.625" x2="415.625" y1="173.5677" y2="192.8385"/><polygon fill="#009FDB" points="411.4583,182.4219,415.625,192.8385,419.7917,182.4219,415.625,186.5885" style="stroke:#009FDB;stroke-width:1.0416666666666667;"/><line style="stroke:#009FDB;stroke-width:3.125;" x1="802.0833" x2="802.0833" y1="173.5677" y2="238.6068"/><polygon fill="#009FDB" points="797.9167,228.1901,802.0833,238.6068,806.25,228.1901,802.0833,232.3568" style="stroke:#009FDB;stroke-width:1.0416666666666667;"/><text fill="#5A5A5A" font-family="Verdana" font-size="16.6667" font-style="italic" lengthAdjust="spacing" textLength="70.8333" x="814.5833" y="211.0758">Option 1</text><line style="stroke:#009FDB;stroke-width:3.125;" x1="1160.4167" x2="1160.4167" y1="173.5677" y2="228.9063"/><polygon fill="#009FDB" points="1156.25,218.4896,1160.4167,228.9063,1164.5833,218.4896,1160.4167,222.6563" style="stroke:#009FDB;stroke-width:1.0416666666666667;"/><text fill="#5A5A5A" font-family="Verdana" font-size="16.6667" font-style="italic" lengthAdjust="spacing" textLength="70.8333" x="1172.9167" y="206.2256">Option 2</text><line style="stroke:#009FDB;stroke-width:3.125;" x1="802.0833" x2="802.0833" y1="287.1745" y2="317.7083"/><polygon fill="#009FDB" points="797.9167,307.2917,802.0833,317.7083,806.25,307.2917,802.0833,311.4583" style="stroke:#009FDB;stroke-width:1.0416666666666667;"/><line style="stroke:#009FDB;stroke-width:3.125;" x1="1160.4167" x2="1160.4167" y1="296.875" y2="317.7083"/><polygon fill="#009FDB" points="1156.25,307.2917,1160.4167,317.7083,1164.5833,307.2917,1160.4167,311.4583" style="stroke:#009FDB;stroke-width:1.0416666666666667;"/><line style="stroke:#009FDB;stroke-width:3.125;" x1="847.3958" x2="847.3958" y1="340.1042" y2="359.375"/><polygon fill="#009FDB" points="843.2292,348.9583,847.3958,359.375,851.5625,348.9583,847.3958,353.125" style="stroke:#009FDB;stroke-width:1.0416666666666667;"/><line style="stroke:#009FDB;stroke-width:3.125;" x1="1107.2917" x2="1107.2917" y1="340.1042" y2="359.375"/><polygon fill="#009FDB" points="1103.125,348.9583,1107.2917,359.375,1111.4583,348.9583,1107.2917,353.125" style="stroke:#009FDB;stroke-width:1.0416666666666667;"/><line style="stroke:#009FDB;stroke-width:3.125;" x1="1015.625" x2="1015.625" y1="319.2708" y2="338.5417"/><polygon fill="#009FDB" points="1011.4583,328.125,1015.625,338.5417,1019.7917,328.125,1015.625,332.2917" style="stroke:#009FDB;stroke-width:1.0416666666666667;"/><line style="stroke:#009FDB;stroke-width:3.125;" x1="533.5938" x2="303.125" y1="57.5521" y2="57.5521"/><line style="stroke:#009FDB;stroke-width:3.125;" x1="303.125" x2="303.125" y1="57.5521" y2="172.0052"/><polygon fill="#009FDB" points="298.9583,161.5885,303.125,172.0052,307.2917,161.5885,303.125,165.7552" style="stroke:#009FDB;stroke-width:1.0416666666666667;"/><line style="stroke:#009FDB;stroke-width:3.125;" x1="796.0938" x2="1015.625" y1="57.5521" y2="57.5521"/><line style="stroke:#009FDB;stroke-width:3.125;" x1="1015.625" x2="1015.625" y1="57.5521" y2="172.0052"/><polygon fill="#009FDB" points="1011.4583,161.5885,1015.625,172.0052,1019.7917,161.5885,1015.625,165.7552" style="stroke:#009FDB;stroke-width:1.0416666666666667;"/><!--SRC=[bL5DQzj04BthLqnlih4DwQ6765eKXtv0ILpK40g-hBGZUV5gLioEcZYb_xrZsN94qq9xMMbv-sRUnolPOeDG-0vhDliaxXorXaq3rrYPpilxG9Ax9uIBDoDmQyW-i1D1WihuY2CiOmuFFKts7i69yQvyEVWhFahcNKqDaa2f1_BerTgmE7613fDMmGU6cd4ii33bhkRGaJt2meQYGZefILm5wOO-HGXiaHtL4AeD-M2iyhoX4Zb2xDesiA1zjw49Q184wJUCawGTbiDjYvIBRfeN9gA5qeVEpY2xpsVmORNMlwUESR5Om8y48BRUYNu1BXrv59XEF-lAgzF6wNJPWx1ptW_FmTJ6qTz9zqwsQmwFUpqabC4FKqv3aEnvxyy4jGj8RyBOmvLc0Wrg3pFudhTRr6lluwNi-TlRjkTS77TSPjP2essvLgkyliaXcpEM6cfS_i70cVxwHBzJDTepCXaF1rSmsEhnT7MGKNaLE8ClR2JmxAZK5v1MMcfnrZvHjPFbRuQVbJ-7zp54MMkj_vpsGFZFfCcwwXS0]--></g></svg>
