<?xml version="1.0" encoding="us-ascii" standalone="no"?><svg xmlns="http://www.w3.org/2000/svg" xmlns:xlink="http://www.w3.org/1999/xlink" contentStyleType="text/css" height="431.25px" preserveAspectRatio="none" style="width:1277px;height:431px;" version="1.1" viewBox="0 0 1277 431" width="1277.0833px" zoomAndPan="magnify"><defs><linearGradient id="g1nl2sg0ta20b50" x1="50%" x2="50%" y1="0%" y2="100%"><stop offset="0%" stop-color="#F5F5F5"/><stop offset="100%" stop-color="#C2C2C2"/></linearGradient><linearGradient id="g1nl2sg0ta20b51" x1="50%" x2="50%" y1="0%" y2="100%"><stop offset="0%" stop-color="#33B2E2"/><stop offset="100%" stop-color="#009FDB"/></linearGradient></defs><g><polygon fill="url(#g1nl2sg0ta20b50)" points="514.0625,10.4167,751.5625,10.4167,764.0625,57.5521,751.5625,104.6875,514.0625,104.6875,501.5625,57.5521,514.0625,10.4167" style="stroke:#C2C2C2;stroke-width:1.0416666666666667;"/><text fill="#5A5A5A" font-family="Verdana" font-size="16.6667" lengthAdjust="spacing" textLength="5.2083" x="630.2083" y="34.2204">&#160;</text><text fill="#5A5A5A" font-family="Verdana" font-size="16.6667" lengthAdjust="spacing" textLength="111.4583" x="577.0833" y="53.6214">Is ordering of</text><text fill="#5A5A5A" font-family="Verdana" font-size="16.6667" lengthAdjust="spacing" textLength="220.8333" x="522.3958" y="73.0225">load balancers supported?</text><text fill="#5A5A5A" font-family="Verdana" font-size="16.6667" lengthAdjust="spacing" textLength="5.2083" x="630.2083" y="92.4235">&#160;</text><text fill="#5A5A5A" font-family="Verdana" font-size="16.6667" font-style="italic" lengthAdjust="spacing" textLength="28.125" x="397.3958" y="45.2881">yes</text><text fill="#5A5A5A" font-family="Verdana" font-size="16.6667" font-style="italic" lengthAdjust="spacing" textLength="20.8333" x="840.1042" y="45.2881">no</text><rect fill="none" height="167.9688" rx="10.4167" ry="10.4167" style="stroke:#009FDB;stroke-width:1.0416666666666667;" width="614.5833" x="11.4583" y="115.1042"/><path d="M413.5417,115.1042 L413.5417,143.8802 L403.125,154.2969 L11.4583,154.2969 " fill="none" style="stroke:#009FDB;stroke-width:1.0416666666666667;"/><text fill="#808080" font-family="Verdana" font-size="16.6667" lengthAdjust="spacing" textLength="375" x="22.9167" y="139.9495">OpenStack-based cloud, AWS, GCP, Azure, ...</text><line style="stroke:#009FDB;stroke-width:1.5625;" x1="121.875" x2="415.625" y1="172.0052" y2="172.0052"/><rect fill="url(#g1nl2sg0ta20b51)" height="48.5677" rx="10.4167" ry="10.4167" style="stroke:#009FDB;stroke-width:1.0416666666666667;" width="195.8333" x="23.9583" y="192.8385"/><text fill="#FFFFFF" font-family="Verdana" font-size="16.6667" lengthAdjust="spacing" textLength="35.4167" x="38.5417" y="222.8923">inlet</text><text fill="#FFFFFF" font-family="Verdana" font-size="16.6667" font-weight="bold" lengthAdjust="spacing" textLength="126.0417" x="79.1667" y="222.8923">LoadBalancer</text><rect fill="url(#g1nl2sg0ta20b51)" height="48.5677" rx="10.4167" ry="10.4167" style="stroke:#009FDB;stroke-width:1.0416666666666667;" width="370.8333" x="230.2083" y="192.8385"/><text fill="#FFFFFF" font-family="Verdana" font-size="16.6667" lengthAdjust="spacing" textLength="35.4167" x="244.7917" y="222.8923">inlet</text><text fill="#FFFFFF" font-family="Verdana" font-size="16.6667" font-weight="bold" lengthAdjust="spacing" textLength="301.0417" x="285.4167" y="222.8923">LoadBalancerWithProxyProtocol</text><rect fill="none" height="305.3385" rx="10.4167" ry="10.4167" style="stroke:#009FDB;stroke-width:1.0416666666666667;" width="618.75" x="646.875" y="115.1042"/><path d="M921.875,115.1042 L921.875,143.8802 L911.4583,154.2969 L646.875,154.2969 " fill="none" style="stroke:#009FDB;stroke-width:1.0416666666666667;"/><text fill="#808080" font-family="Verdana" font-size="16.6667" lengthAdjust="spacing" textLength="247.9167" x="658.3333" y="139.9495">Bare metal, vSphere cloud, ...</text><line style="stroke:#009FDB;stroke-width:1.5625;" x1="802.0833" x2="1107.2917" y1="172.0052" y2="172.0052"/><rect fill="url(#g1nl2sg0ta20b51)" height="48.5677" rx="10.4167" ry="10.4167" style="stroke:#009FDB;stroke-width:1.0416666666666667;" width="260.4167" x="671.875" y="238.6068"/><text fill="#FFFFFF" font-family="Verdana" font-size="16.6667" lengthAdjust="spacing" textLength="231.25" x="686.4583" y="268.6605">Add multiple DNS A-records</text><rect fill="url(#g1nl2sg0ta20b51)" height="67.9688" rx="10.4167" ry="10.4167" style="stroke:#009FDB;stroke-width:1.0416666666666667;" width="291.6667" x="961.4583" y="228.9063"/><text fill="#FFFFFF" font-family="Verdana" font-size="16.6667" lengthAdjust="spacing" textLength="230.2083" x="992.1875" y="258.96">Use external Load Balancer</text><text fill="#FFFFFF" font-family="Verdana" font-size="16.6667" lengthAdjust="spacing" textLength="262.5" x="976.0417" y="278.361">(Cloudflare, Qrator, metallb, ...)</text><line style="stroke:#009FDB;stroke-width:1.5625;" x1="802.0833" x2="1107.2917" y1="317.7083" y2="317.7083"/><line style="stroke:#009FDB;stroke-width:1.5625;" x1="783.3333" x2="1054.1667" y1="338.5417" y2="338.5417"/><rect fill="url(#g1nl2sg0ta20b51)" height="48.5677" rx="10.4167" ry="10.4167" style="stroke:#009FDB;stroke-width:1.0416666666666667;" width="154.1667" x="706.25" y="359.375"/><text fill="#FFFFFF" font-family="Verdana" font-size="16.6667" lengthAdjust="spacing" textLength="35.4167" x="720.8333" y="389.4287">inlet</text><text fill="#FFFFFF" font-family="Verdana" font-size="16.6667" font-weight="bold" lengthAdjust="spacing" textLength="84.375" x="761.4583" y="389.4287">HostPort</text><rect fill="url(#g1nl2sg0ta20b51)" height="48.5677" rx="10.4167" ry="10.4167" style="stroke:#009FDB;stroke-width:1.0416666666666667;" width="329.1667" x="889.5833" y="359.375"/><text fill="#FFFFFF" font-family="Verdana" font-size="16.6667" lengthAdjust="spacing" textLength="35.4167" x="904.1667" y="389.4287">inlet</text><text fill="#FFFFFF" font-family="Verdana" font-size="16.6667" font-weight="bold" lengthAdjust="spacing" textLength="259.375" x="944.7917" y="389.4287">HostPortWithProxyProtocol</text><line style="stroke:#009FDB;stroke-width:3.125;" x1="121.875" x2="121.875" y1="173.5677" y2="192.8385"/><polygon fill="#009FDB" points="117.7083,182.4219,121.875,192.8385,126.0417,182.4219,121.875,186.5885" style="stroke:#009FDB;stroke-width:1.0416666666666667;"/><line style="stroke:#009FDB;stroke-width:3.125;" x1="415.625" x2="415.625" y1="173.5677" y2="192.8385"/><polygon fill="#009FDB" points="411.4583,182.4219,415.625,192.8385,419.7917,182.4219,415.625,186.5885" style="stroke:#009FDB;stroke-width:1.0416666666666667;"/><line style="stroke:#009FDB;stroke-width:3.125;" x1="802.0833" x2="802.0833" y1="173.5677" y2="238.6068"/><polygon fill="#009FDB" points="797.9167,228.1901,802.0833,238.6068,806.25,228.1901,802.0833,232.3568" style="stroke:#009FDB;stroke-width:1.0416666666666667;"/><text fill="#5A5A5A" font-family="Verdana" font-size="16.6667" font-style="italic" lengthAdjust="spacing" textLength="70.8333" x="814.5833" y="211.0758">Option 1</text><line style="stroke:#009FDB;stroke-width:3.125;" x1="1107.2917" x2="1107.2917" y1="173.5677" y2="228.9063"/><polygon fill="#009FDB" points="1103.125,218.4896,1107.2917,228.9063,1111.4583,218.4896,1107.2917,222.6563" style="stroke:#009FDB;stroke-width:1.0416666666666667;"/><text fill="#5A5A5A" font-family="Verdana" font-size="16.6667" font-style="italic" lengthAdjust="spacing" textLength="70.8333" x="1119.7917" y="206.2256">Option 2</text><line style="stroke:#009FDB;stroke-width:3.125;" x1="802.0833" x2="802.0833" y1="287.1745" y2="317.7083"/><polygon fill="#009FDB" points="797.9167,307.2917,802.0833,317.7083,806.25,307.2917,802.0833,311.4583" style="stroke:#009FDB;stroke-width:1.0416666666666667;"/><line style="stroke:#009FDB;stroke-width:3.125;" x1="1107.2917" x2="1107.2917" y1="296.875" y2="317.7083"/><polygon fill="#009FDB" points="1103.125,307.2917,1107.2917,317.7083,1111.4583,307.2917,1107.2917,311.4583" style="stroke:#009FDB;stroke-width:1.0416666666666667;"/><line style="stroke:#009FDB;stroke-width:3.125;" x1="783.3333" x2="783.3333" y1="340.1042" y2="359.375"/><polygon fill="#009FDB" points="779.1667,348.9583,783.3333,359.375,787.5,348.9583,783.3333,353.125" style="stroke:#009FDB;stroke-width:1.0416666666666667;"/><line style="stroke:#009FDB;stroke-width:3.125;" x1="1054.1667" x2="1054.1667" y1="340.1042" y2="359.375"/><polygon fill="#009FDB" points="1050,348.9583,1054.1667,359.375,1058.3333,348.9583,1054.1667,353.125" style="stroke:#009FDB;stroke-width:1.0416666666666667;"/><line style="stroke:#009FDB;stroke-width:3.125;" x1="962.5" x2="962.5" y1="319.2708" y2="338.5417"/><polygon fill="#009FDB" points="958.3333,328.125,962.5,338.5417,966.6667,328.125,962.5,332.2917" style="stroke:#009FDB;stroke-width:1.0416666666666667;"/><line style="stroke:#009FDB;stroke-width:3.125;" x1="501.5625" x2="303.125" y1="57.5521" y2="57.5521"/><line style="stroke:#009FDB;stroke-width:3.125;" x1="303.125" x2="303.125" y1="57.5521" y2="172.0052"/><polygon fill="#009FDB" points="298.9583,161.5885,303.125,172.0052,307.2917,161.5885,303.125,165.7552" style="stroke:#009FDB;stroke-width:1.0416666666666667;"/><line style="stroke:#009FDB;stroke-width:3.125;" x1="764.0625" x2="962.5" y1="57.5521" y2="57.5521"/><line style="stroke:#009FDB;stroke-width:3.125;" x1="962.5" x2="962.5" y1="57.5521" y2="172.0052"/><polygon fill="#009FDB" points="958.3333,161.5885,962.5,172.0052,966.6667,161.5885,962.5,165.7552" style="stroke:#009FDB;stroke-width:1.0416666666666667;"/><!--SRC=[bLB1RjD04BtxAuPR4ZcHsWE7HWAvgQ2LAXfaK2-vRBnZPvNrh3KxfaqH_yxOYLj3GG8VLhRUlZVllV4RsM6DiFKjLcmEITmxQWoR6gwmDAsN3u4aTqy8Psz7uCwGVM0dWWIbyH57MCOS7dgQ73o24-DTyLhu2pvAvbr5DP90eGVowDRQi3XnWJgbLV21eM8S6zoQObznQCaUOM53KI5LIX9NmcH3Dn42MsH75OHoGpuOgpnlg42E4Dkc2Inetsze2je4mUI04SRFD6a69t3N8EMYO-TR4z52uKDhKyZkynG-hjRwzjGofh1OBE1x0X0RxoJfL2uSUHIOpMxLmUN9m6osx47OE- -7ws0gu-Zlf7idkpM7nuCU4ehW1vMJ299zdliZGLqDJ7u9H64SwLBxWXfrHobyoviTwkSfrkiKytTtJSywEuwyoAo5MdVf6btqrQSSiZbZePN7vH_oFDFFJ_IlQax_0cGo7hgGCAJiyScgCr9wqtNwcOq4JezU_RQtDrt-5lZ5wajvro7AMhVypsqFXFzicgmhVm80]--></g></svg>
