<?xml version="1.0" encoding="us-ascii" standalone="no"?><svg xmlns="http://www.w3.org/2000/svg" xmlns:xlink="http://www.w3.org/1999/xlink" contentStyleType="text/css" height="416.6667px" preserveAspectRatio="none" style="width:1291px;height:416px;" version="1.1" viewBox="0 0 1291 416" width="1291.6667px" zoomAndPan="magnify"><defs><linearGradient id="g1jniyjqqft9fe0" x1="50%" x2="50%" y1="0%" y2="100%"><stop offset="0%" stop-color="#F5F5F5"/><stop offset="100%" stop-color="#C2C2C2"/></linearGradient><linearGradient id="g1jniyjqqft9fe1" x1="50%" x2="50%" y1="0%" y2="100%"><stop offset="0%" stop-color="#33B2E2"/><stop offset="100%" stop-color="#009FDB"/></linearGradient></defs><g><polygon fill="url(#g1jniyjqqft9fe0)" points="517.7083,10.4167,755.2083,10.4167,767.7083,57.5521,755.2083,104.6875,517.7083,104.6875,505.2083,57.5521,517.7083,10.4167" style="stroke:#C2C2C2;stroke-width:1.0416666666666667;"/><text fill="#5A5A5A" font-family="Verdana" font-size="16.6667" lengthAdjust="spacing" textLength="5.2083" x="633.8542" y="34.2204">&#160;</text><text fill="#5A5A5A" font-family="Verdana" font-size="16.6667" lengthAdjust="spacing" textLength="111.4583" x="580.7292" y="53.6214">Is ordering of</text><text fill="#5A5A5A" font-family="Verdana" font-size="16.6667" lengthAdjust="spacing" textLength="220.8333" x="526.0417" y="73.0225">load balancers supported?</text><text fill="#5A5A5A" font-family="Verdana" font-size="16.6667" lengthAdjust="spacing" textLength="5.2083" x="633.8542" y="92.4235">&#160;</text><text fill="#5A5A5A" font-family="Verdana" font-size="16.6667" font-style="italic" lengthAdjust="spacing" textLength="28.125" x="401.0417" y="45.2881">yes</text><text fill="#5A5A5A" font-family="Verdana" font-size="16.6667" font-style="italic" lengthAdjust="spacing" textLength="20.8333" x="843.75" y="45.2881">no</text><rect fill="none" height="169.5313" rx="10.4167" ry="10.4167" style="stroke:#009FDB;stroke-width:1.0416666666666667;" width="614.5833" x="11.4583" y="115.1042"/><path d="M271.875,115.1042 L271.875,143.8802 L261.4583,154.2969 L11.4583,154.2969 " fill="none" style="stroke:#009FDB;stroke-width:1.0416666666666667;"/><text fill="#808080" font-family="Verdana" font-size="16.6667" lengthAdjust="spacing" textLength="233.3333" x="22.9167" y="139.9495">Clouds: AWS, GCP, Azure, ...</text><line style="stroke:#009FDB;stroke-width:1.5625;" x1="121.875" x2="415.625" y1="172.0052" y2="172.0052"/><rect fill="url(#g1jniyjqqft9fe1)" height="48.5677" rx="10.4167" ry="10.4167" style="stroke:#009FDB;stroke-width:1.0416666666666667;" width="195.8333" x="23.9583" y="194.401"/><text fill="#FFFFFF" font-family="Verdana" font-size="16.6667" lengthAdjust="spacing" textLength="35.4167" x="38.5417" y="224.4548">inlet</text><text fill="#FFFFFF" font-family="Verdana" font-size="16.6667" font-weight="bold" lengthAdjust="spacing" textLength="126.0417" x="79.1667" y="224.4548">LoadBalancer</text><rect fill="url(#g1jniyjqqft9fe1)" height="48.5677" rx="10.4167" ry="10.4167" style="stroke:#009FDB;stroke-width:1.0416666666666667;" width="370.8333" x="230.2083" y="194.401"/><text fill="#FFFFFF" font-family="Verdana" font-size="16.6667" lengthAdjust="spacing" textLength="35.4167" x="244.7917" y="224.4548">inlet</text><text fill="#FFFFFF" font-family="Verdana" font-size="16.6667" font-weight="bold" lengthAdjust="spacing" textLength="301.0417" x="285.4167" y="224.4548">LoadBalancerWithProxyProtocol</text><rect fill="none" height="290.2344" rx="10.4167" ry="10.4167" style="stroke:#009FDB;stroke-width:1.0416666666666667;" width="633.3333" x="646.875" y="115.1042"/><path d="M909.375,115.1042 L909.375,163.2813 L898.9583,173.6979 L646.875,173.6979 " fill="none" style="stroke:#009FDB;stroke-width:1.0416666666666667;"/><text fill="#808080" font-family="Verdana" font-size="16.6667" lengthAdjust="spacing" textLength="97.9167" x="658.3333" y="139.9495">Bare metal;</text><text fill="#808080" font-family="Verdana" font-size="16.6667" lengthAdjust="spacing" textLength="235.4167" x="658.3333" y="159.3506">Clouds: vSpnere, OpenStack</text><line style="stroke:#009FDB;stroke-width:1.5625;" x1="809.375" x2="1114.5833" y1="191.4063" y2="191.4063"/><rect fill="url(#g1jniyjqqft9fe1)" height="48.5677" rx="10.4167" ry="10.4167" style="stroke:#009FDB;stroke-width:1.0416666666666667;" width="260.4167" x="679.1667" y="223.5026"/><text fill="#FFFFFF" font-family="Verdana" font-size="16.6667" lengthAdjust="spacing" textLength="231.25" x="693.75" y="253.5563">Add multiple DNS A-records</text><rect fill="url(#g1jniyjqqft9fe1)" height="67.9688" rx="10.4167" ry="10.4167" style="stroke:#009FDB;stroke-width:1.0416666666666667;" width="291.6667" x="968.75" y="213.8021"/><text fill="#FFFFFF" font-family="Verdana" font-size="16.6667" lengthAdjust="spacing" textLength="230.2083" x="999.4792" y="243.8558">Use external Load Balancer</text><text fill="#FFFFFF" font-family="Verdana" font-size="16.6667" lengthAdjust="spacing" textLength="262.5" x="983.3333" y="263.2568">(Cloudflare, Qrator, metallb, ...)</text><line style="stroke:#009FDB;stroke-width:1.5625;" x1="809.375" x2="1114.5833" y1="302.6042" y2="302.6042"/><line style="stroke:#009FDB;stroke-width:1.5625;" x1="769.7917" x2="1082.2917" y1="323.4375" y2="323.4375"/><rect fill="url(#g1jniyjqqft9fe1)" height="48.5677" rx="10.4167" ry="10.4167" style="stroke:#009FDB;stroke-width:1.0416666666666667;" width="195.8333" x="671.875" y="344.2708"/><text fill="#FFFFFF" font-family="Verdana" font-size="16.6667" lengthAdjust="spacing" textLength="35.4167" x="686.4583" y="374.3245">inlet</text><text fill="#FFFFFF" font-family="Verdana" font-size="16.6667" font-weight="bold" lengthAdjust="spacing" textLength="126.0417" x="727.0833" y="374.3245">LoadBalancer</text><rect fill="url(#g1jniyjqqft9fe1)" height="48.5677" rx="10.4167" ry="10.4167" style="stroke:#009FDB;stroke-width:1.0416666666666667;" width="370.8333" x="896.875" y="344.2708"/><text fill="#FFFFFF" font-family="Verdana" font-size="16.6667" lengthAdjust="spacing" textLength="35.4167" x="911.4583" y="374.3245">inlet</text><text fill="#FFFFFF" font-family="Verdana" font-size="16.6667" font-weight="bold" lengthAdjust="spacing" textLength="301.0417" x="952.0833" y="374.3245">LoadBalancerWithProxyProtocol</text><line style="stroke:#009FDB;stroke-width:3.125;" x1="121.875" x2="121.875" y1="173.5677" y2="194.401"/><polygon fill="#009FDB" points="117.7083,183.9844,121.875,194.401,126.0417,183.9844,121.875,188.151" style="stroke:#009FDB;stroke-width:1.0416666666666667;"/><line style="stroke:#009FDB;stroke-width:3.125;" x1="415.625" x2="415.625" y1="173.5677" y2="194.401"/><polygon fill="#009FDB" points="411.4583,183.9844,415.625,194.401,419.7917,183.9844,415.625,188.151" style="stroke:#009FDB;stroke-width:1.0416666666666667;"/><line style="stroke:#009FDB;stroke-width:3.125;" x1="809.375" x2="809.375" y1="192.9688" y2="223.5026"/><polygon fill="#009FDB" points="805.2083,213.0859,809.375,223.5026,813.5417,213.0859,809.375,217.2526" style="stroke:#009FDB;stroke-width:1.0416666666666667;"/><text fill="#5A5A5A" font-family="Verdana" font-size="16.6667" font-style="italic" lengthAdjust="spacing" textLength="70.8333" x="821.875" y="214.0055">Option 1</text><line style="stroke:#009FDB;stroke-width:3.125;" x1="1114.5833" x2="1114.5833" y1="192.9688" y2="213.8021"/><polygon fill="#009FDB" points="1110.4167,203.3854,1114.5833,213.8021,1118.75,203.3854,1114.5833,207.5521" style="stroke:#009FDB;stroke-width:1.0416666666666667;"/><text fill="#5A5A5A" font-family="Verdana" font-size="16.6667" font-style="italic" lengthAdjust="spacing" textLength="70.8333" x="1127.0833" y="209.1553">Option 2</text><line style="stroke:#009FDB;stroke-width:3.125;" x1="809.375" x2="809.375" y1="272.0703" y2="302.6042"/><polygon fill="#009FDB" points="805.2083,292.1875,809.375,302.6042,813.5417,292.1875,809.375,296.3542" style="stroke:#009FDB;stroke-width:1.0416666666666667;"/><line style="stroke:#009FDB;stroke-width:3.125;" x1="1114.5833" x2="1114.5833" y1="281.7708" y2="302.6042"/><polygon fill="#009FDB" points="1110.4167,292.1875,1114.5833,302.6042,1118.75,292.1875,1114.5833,296.3542" style="stroke:#009FDB;stroke-width:1.0416666666666667;"/><line style="stroke:#009FDB;stroke-width:3.125;" x1="769.7917" x2="769.7917" y1="325" y2="344.2708"/><polygon fill="#009FDB" points="765.625,333.8542,769.7917,344.2708,773.9583,333.8542,769.7917,338.0208" style="stroke:#009FDB;stroke-width:1.0416666666666667;"/><line style="stroke:#009FDB;stroke-width:3.125;" x1="1082.2917" x2="1082.2917" y1="325" y2="344.2708"/><polygon fill="#009FDB" points="1078.125,333.8542,1082.2917,344.2708,1086.4583,333.8542,1082.2917,338.0208" style="stroke:#009FDB;stroke-width:1.0416666666666667;"/><line style="stroke:#009FDB;stroke-width:3.125;" x1="969.7917" x2="969.7917" y1="304.1667" y2="323.4375"/><polygon fill="#009FDB" points="965.625,313.0208,969.7917,323.4375,973.9583,313.0208,969.7917,317.1875" style="stroke:#009FDB;stroke-width:1.0416666666666667;"/><line style="stroke:#009FDB;stroke-width:3.125;" x1="505.2083" x2="303.125" y1="57.5521" y2="57.5521"/><line style="stroke:#009FDB;stroke-width:3.125;" x1="303.125" x2="303.125" y1="57.5521" y2="172.0052"/><polygon fill="#009FDB" points="298.9583,161.5885,303.125,172.0052,307.2917,161.5885,303.125,165.7552" style="stroke:#009FDB;stroke-width:1.0416666666666667;"/><line style="stroke:#009FDB;stroke-width:3.125;" x1="767.7083" x2="969.7917" y1="57.5521" y2="57.5521"/><line style="stroke:#009FDB;stroke-width:3.125;" x1="969.7917" x2="969.7917" y1="57.5521" y2="191.4063"/><polygon fill="#009FDB" points="965.625,180.9896,969.7917,191.4063,973.9583,180.9896,969.7917,185.1563" style="stroke:#009FDB;stroke-width:1.0416666666666667;"/><!--SRC=[nL5DRzD04BtxLmot94eZbGE7HA9oKu6G40qog9TSDjwniyfuTZKxfaqH_vsr4nVJbZDxsCkRD_C-tkWU6uGTjLYBEMRnu3WOCGtSO6LQqW-UjN2F29VlHk3UiBqNfueCbQ688omNyVSzJO-4uDIGAryk_eOFcfEhkK5MADE7CfhQ656dpdEtQUt92zI2Ou4xKnvgyItR4wnYE2OeRSeoLy5aovyYUB4eZclmrPR96vjuPBX4YH3R4BmesgijJo4bmJ0vOeJncsPXK09hygsDIyZlYZbyN6_ca3-sWdDOB1RmCmE8WPnc7Mtfc51XDlkSJbwVByvcgnw4WoCQni7Knl6_INTEznln3yVqgIyz3LlEIv3jqzrV6QOkOFAN0_PZ3zSf86WmbRBQyc3eHn4OEoEt0RdG5EmpEnVlRqDFlppTNkRMGfDQT25LVFEbWFn2i4nXnzKhnfxeRy_qxqbbwX-53K7d5WQxFJxfXLLaEarVnQYN-KaqxVgqfwjdplz8_N_HitNLRm00]--></g></svg>
