<svg xmlns="http://www.w3.org/2000/svg" xmlns:xlink="http://www.w3.org/1999/xlink" contentStyleType="text/css" height="461.4583px" preserveAspectRatio="none" style="width:1305px;height:461px;" version="1.1" viewBox="0 0 1305 461" width="1305.2083px" zoomAndPan="magnify"><defs><linearGradient id="g1d27ykyzkl7ik0" x1="50%" x2="50%" y1="0%" y2="100%"><stop offset="0%" stop-color="#F5F5F5"/><stop offset="100%" stop-color="#C2C2C2"/></linearGradient><linearGradient id="g1d27ykyzkl7ik1" x1="50%" x2="50%" y1="0%" y2="100%"><stop offset="0%" stop-color="#33B2E2"/><stop offset="100%" stop-color="#009FDB"/></linearGradient></defs><g><polygon fill="url(#g1d27ykyzkl7ik0)" points="507.9049,10.4167,731.6887,10.4167,744.1887,64.1501,731.6887,117.8835,507.9049,117.8835,495.4049,64.1501,507.9049,10.4167" style="stroke:#C2C2C2;stroke-width:1.0416666666666667;"/><text fill="#5A5A5A" font-family="Verdana" font-size="16.6667" lengthAdjust="spacing" textLength="4.3333" x="617.6301" y="36.5667">&#160;</text><text fill="#5A5A5A" font-family="Verdana" font-size="16.6667" lengthAdjust="spacing" textLength="106.4669" x="566.5634" y="59.2667">Is ordering of</text><text fill="#5A5A5A" font-family="Verdana" font-size="16.6667" lengthAdjust="spacing" textLength="207.1171" x="516.2382" y="81.9668">load balancers supported?</text><text fill="#5A5A5A" font-family="Verdana" font-size="16.6667" lengthAdjust="spacing" textLength="4.3333" x="617.6301" y="104.6668">&#160;</text><text fill="#5A5A5A" font-family="Verdana" font-size="16.6667" font-style="italic" lengthAdjust="spacing" textLength="24" x="463.0715" y="50.9334">Yes</text><text fill="#5A5A5A" font-family="Verdana" font-size="16.6667" font-style="italic" lengthAdjust="spacing" textLength="21.1667" x="752.522" y="50.9334">No</text><rect fill="none" height="174.5668" rx="10.4167" ry="10.4167" style="stroke:#009FDB;stroke-width:1.0416666666666667;" width="567.6676" x="11.4583" y="128.3002"/><path d="M375.7091,128.3002 L375.7091,160.3752 L365.2924,170.7919 L11.4583,170.7919 " fill="none" style="stroke:#009FDB;stroke-width:1.0416666666666667;"/><text fill="#808080" font-family="Verdana" font-size="16.6667" lengthAdjust="spacing" textLength="337.1674" x="22.9167" y="155.4919">OpenStack-based cloud, AWS, GCP, Azure...</text><line style="stroke:#009FDB;stroke-width:1.5625;" x1="114.7168" x2="385.0089" y1="188.5002" y2="188.5002"/><rect fill="url(#g1d27ykyzkl7ik1)" height="51.8667" rx="10.4167" ry="10.4167" style="stroke:#009FDB;stroke-width:1.0416666666666667;" width="181.517" x="23.9583" y="209.3336"/><text fill="#FFFFFF" font-family="Verdana" font-size="16.6667" lengthAdjust="spacing" textLength="34.3167" x="38.5417" y="241.7336">inlet</text><text fill="#FFFFFF" font-family="Verdana" font-size="16.6667" font-weight="bold" lengthAdjust="spacing" textLength="113.7002" x="77.1917" y="241.7336">LoadBalancer</text><rect fill="url(#g1d27ykyzkl7ik1)" height="51.8667" rx="10.4167" ry="10.4167" style="stroke:#009FDB;stroke-width:1.0416666666666667;" width="338.2339" x="215.892" y="209.3336"/><text fill="#FFFFFF" font-family="Verdana" font-size="16.6667" lengthAdjust="spacing" textLength="34.3167" x="230.4753" y="241.7336">inlet</text><text fill="#FFFFFF" font-family="Verdana" font-size="16.6667" font-weight="bold" lengthAdjust="spacing" textLength="270.4172" x="269.1254" y="241.7336">LoadBalancerWithProxyProtocol</text><rect fill="none" height="321.8336" rx="10.4167" ry="10.4167" style="stroke:#009FDB;stroke-width:1.0416666666666667;" width="693.9095" x="599.9592" y="128.3002"/><path d="M845.8097,128.3002 L845.8097,160.3752 L835.393,170.7919 L599.9592,170.7919 " fill="none" style="stroke:#009FDB;stroke-width:1.0416666666666667;"/><text fill="#808080" font-family="Verdana" font-size="16.6667" lengthAdjust="spacing" textLength="218.7671" x="611.4176" y="155.4919">Bare metal, vSphere cloud...</text><line style="stroke:#009FDB;stroke-width:1.5625;" x1="748.5845" x2="1084.6101" y1="188.5002" y2="188.5002"/><rect fill="url(#g1d27ykyzkl7ik1)" height="51.8667" rx="10.4167" ry="10.4167" style="stroke:#009FDB;stroke-width:1.0416666666666667;" width="247.2504" x="624.9592" y="260.0503"/><text fill="#FFFFFF" font-family="Verdana" font-size="16.6667" lengthAdjust="spacing" textLength="218.0838" x="639.5426" y="292.4503">Add multiple DNS A-records</text><rect fill="url(#g1d27ykyzkl7ik1)" height="74.5668" rx="10.4167" ry="10.4167" style="stroke:#009FDB;stroke-width:1.0416666666666667;" width="393.5174" x="887.8514" y="248.7003"/><text fill="#FFFFFF" font-family="Verdana" font-size="16.6667" lengthAdjust="spacing" textLength="213.8671" x="977.6765" y="281.1003">Use external Load Balancer</text><text fill="#FFFFFF" font-family="Verdana" font-size="16.6667" lengthAdjust="spacing" textLength="364.3507" x="902.4347" y="303.8004">(Cloudflare, Qrator, MetalLB (for bare metal)...)</text><line style="stroke:#009FDB;stroke-width:1.5625;" x1="748.5845" x2="1084.6101" y1="344.1004" y2="344.1004"/><line style="stroke:#009FDB;stroke-width:1.5625;" x1="795.9929" x2="1031.9766" y1="364.9337" y2="364.9337"/><rect fill="url(#g1d27ykyzkl7ik1)" height="51.8667" rx="10.4167" ry="10.4167" style="stroke:#009FDB;stroke-width:1.0416666666666667;" width="141.9835" x="725.0011" y="385.767"/><text fill="#FFFFFF" font-family="Verdana" font-size="16.6667" lengthAdjust="spacing" textLength="34.3167" x="739.5845" y="418.1671">inlet</text><text fill="#FFFFFF" font-family="Verdana" font-size="16.6667" font-weight="bold" lengthAdjust="spacing" textLength="74.1668" x="778.2345" y="418.1671">HostPort</text><rect fill="url(#g1d27ykyzkl7ik1)" height="51.8667" rx="10.4167" ry="10.4167" style="stroke:#009FDB;stroke-width:1.0416666666666667;" width="298.7005" x="882.6264" y="385.767"/><text fill="#FFFFFF" font-family="Verdana" font-size="16.6667" lengthAdjust="spacing" textLength="34.3167" x="897.2097" y="418.1671">inlet</text><text fill="#FFFFFF" font-family="Verdana" font-size="16.6667" font-weight="bold" lengthAdjust="spacing" textLength="230.8838" x="935.8598" y="418.1671">HostPortWithProxyProtocol</text><line style="stroke:#009FDB;stroke-width:3.125;" x1="114.7168" x2="114.7168" y1="190.0627" y2="209.3336"/><polygon fill="#009FDB" points="110.5501,198.9169,114.7168,209.3336,118.8835,198.9169,114.7168,203.0836" style="stroke:#009FDB;stroke-width:1.0416666666666667;"/><line style="stroke:#009FDB;stroke-width:3.125;" x1="385.0089" x2="385.0089" y1="190.0627" y2="209.3336"/><polygon fill="#009FDB" points="380.8423,198.9169,385.0089,209.3336,389.1756,198.9169,385.0089,203.0836" style="stroke:#009FDB;stroke-width:1.0416666666666667;"/><line style="stroke:#009FDB;stroke-width:3.125;" x1="748.5845" x2="748.5845" y1="190.0627" y2="260.0503"/><polygon fill="#009FDB" points="744.4178,249.6336,748.5845,260.0503,752.7511,249.6336,748.5845,253.8003" style="stroke:#009FDB;stroke-width:1.0416666666666667;"/><text fill="#5A5A5A" font-family="Verdana" font-size="16.6667" font-style="italic" lengthAdjust="spacing" textLength="64.0501" x="761.0845" y="230.7419">Option 1</text><line style="stroke:#009FDB;stroke-width:3.125;" x1="1084.6101" x2="1084.6101" y1="190.0627" y2="248.7003"/><polygon fill="#009FDB" points="1080.4434,238.2836,1084.6101,248.7003,1088.7767,238.2836,1084.6101,242.4503" style="stroke:#009FDB;stroke-width:1.0416666666666667;"/><text fill="#5A5A5A" font-family="Verdana" font-size="16.6667" font-style="italic" lengthAdjust="spacing" textLength="64.0501" x="1097.1101" y="225.0669">Option 2</text><line style="stroke:#009FDB;stroke-width:3.125;" x1="748.5845" x2="748.5845" y1="311.917" y2="344.1004"/><polygon fill="#009FDB" points="744.4178,333.6837,748.5845,344.1004,752.7511,333.6837,748.5845,337.8504" style="stroke:#009FDB;stroke-width:1.0416666666666667;"/><line style="stroke:#009FDB;stroke-width:3.125;" x1="1084.6101" x2="1084.6101" y1="323.267" y2="344.1004"/><polygon fill="#009FDB" points="1080.4434,333.6837,1084.6101,344.1004,1088.7767,333.6837,1084.6101,337.8504" style="stroke:#009FDB;stroke-width:1.0416666666666667;"/><line style="stroke:#009FDB;stroke-width:3.125;" x1="795.9929" x2="795.9929" y1="366.4962" y2="385.767"/><polygon fill="#009FDB" points="791.8262,375.3504,795.9929,385.767,800.1596,375.3504,795.9929,379.517" style="stroke:#009FDB;stroke-width:1.0416666666666667;"/><line style="stroke:#009FDB;stroke-width:3.125;" x1="1031.9766" x2="1031.9766" y1="366.4962" y2="385.767"/><polygon fill="#009FDB" points="1027.8099,375.3504,1031.9766,385.767,1036.1433,375.3504,1031.9766,379.517" style="stroke:#009FDB;stroke-width:1.0416666666666667;"/><line style="stroke:#009FDB;stroke-width:3.125;" x1="946.4015" x2="946.4015" y1="345.6629" y2="364.9337"/><polygon fill="#009FDB" points="942.2348,354.517,946.4015,364.9337,950.5682,354.517,946.4015,358.6837" style="stroke:#009FDB;stroke-width:1.0416666666666667;"/><line style="stroke:#009FDB;stroke-width:3.125;" x1="495.4049" x2="279.6671" y1="64.1501" y2="64.1501"/><line style="stroke:#009FDB;stroke-width:3.125;" x1="279.6671" x2="279.6671" y1="64.1501" y2="188.5002"/><polygon fill="#009FDB" points="275.5005,178.0836,279.6671,188.5002,283.8338,178.0836,279.6671,182.2502" style="stroke:#009FDB;stroke-width:1.0416666666666667;"/><line style="stroke:#009FDB;stroke-width:3.125;" x1="744.1887" x2="946.4015" y1="64.1501" y2="64.1501"/><line style="stroke:#009FDB;stroke-width:3.125;" x1="946.4015" x2="946.4015" y1="64.1501" y2="188.5002"/><polygon fill="#009FDB" points="942.2348,178.0836,946.4015,188.5002,950.5682,178.0836,946.4015,182.2502" style="stroke:#009FDB;stroke-width:1.0416666666666667;"/><!--SRC=[bL5DQzj04BthLqnlif4DwQ6765faXtv0chWu9HHyMMj7ykBLh9WTDN5A_tl7YkM89e7sijBozisyZpUonHfXurkisEoJk7FK63OrN61fMYyV0ydAFI2SlHk0MqFsZfq84fJ6HnnWENEuwsYozmXEZ7V5yy4tU2-vTnNLI0A57iY3Lql3uiG5EanQ11yOAiQXm8qfTXM7bkmZB6meAgIJaiILaAxfIuJ05jbH1Q5Sam_6AiyRAf0ZnBPf0WlQ3siQWIP1aFx0E4gQVZbSDqWhqKsJZObeeV2XjHdajwiCFYsM-lVGCawdK_YL0CJ6Ez4lmBaZZmBZyQMkd1ytZiUp3eITyxv_3gOoZbudtJhPBZdSx_MGK0JVJpaEGRAdlRyJr2uWlGf33tFD16hK7ZBukMgsgDVEntFPa_VNJSSvUznndbiBjRRb6gtouce5-OInq53Zx0K39_hR8_sxgj6UaSbuEBY2tbQ7fuk3ZDAhm0o-iP706NmzABsSGrfggPkJzf6g7St-Cloa_2cypo7AKclzvxHxmdycJTQLVm00]--></g></svg>
