<svg xmlns="http://www.w3.org/2000/svg" xmlns:xlink="http://www.w3.org/1999/xlink" contentStyleType="text/css" height="483.3333px" preserveAspectRatio="none" style="width:1278px;height:483px;" version="1.1" viewBox="0 0 1278 483" width="1278.125px" zoomAndPan="magnify"><defs><linearGradient id="g1acdac1jfnnjj0" x1="50%" x2="50%" y1="0%" y2="100%"><stop offset="0%" stop-color="#F5F5F5"/><stop offset="100%" stop-color="#C2C2C2"/></linearGradient><linearGradient id="g1acdac1jfnnjj1" x1="50%" x2="50%" y1="0%" y2="100%"><stop offset="0%" stop-color="#33B2E2"/><stop offset="100%" stop-color="#009FDB"/></linearGradient></defs><g><polygon fill="url(#g1acdac1jfnnjj0)" points="521.8987,10.4167,697.699,10.4167,710.199,75.5001,697.699,140.5836,521.8987,140.5836,509.3987,75.5001,521.8987,10.4167" style="stroke:#C2C2C2;stroke-width:1.0416666666666667;"/><text fill="#5A5A5A" font-family="Verdana" font-size="16.6667" lengthAdjust="spacing" textLength="4.3333" x="607.6322" y="36.5667">&#160;</text><text fill="#5A5A5A" font-family="Verdana" font-size="16.6667" lengthAdjust="spacing" textLength="138.1003" x="540.7487" y="59.2667">&#1055;&#1086;&#1076;&#1076;&#1077;&#1088;&#1078;&#1080;&#1074;&#1072;&#1077;&#1090;&#1089;&#1103;</text><text fill="#5A5A5A" font-family="Verdana" font-size="16.6667" lengthAdjust="spacing" textLength="43.8501" x="587.8738" y="81.9668">&#1079;&#1072;&#1082;&#1072;&#1079;</text><text fill="#5A5A5A" font-family="Verdana" font-size="16.6667" lengthAdjust="spacing" textLength="159.1337" x="530.232" y="104.6668">&#1073;&#1072;&#1083;&#1072;&#1085;&#1089;&#1080;&#1088;&#1086;&#1074;&#1097;&#1080;&#1082;&#1086;&#1074;?</text><text fill="#5A5A5A" font-family="Verdana" font-size="16.6667" lengthAdjust="spacing" textLength="4.3333" x="607.6322" y="127.3669">&#160;</text><text fill="#5A5A5A" font-family="Verdana" font-size="16.6667" font-style="italic" lengthAdjust="spacing" textLength="19.9667" x="481.0987" y="62.2834">&#1044;&#1072;</text><text fill="#5A5A5A" font-family="Verdana" font-size="16.6667" font-style="italic" lengthAdjust="spacing" textLength="34.2334" x="718.5324" y="62.2834">&#1053;&#1077;&#1090;</text><rect fill="none" height="174.5668" rx="10.4167" ry="10.4167" style="stroke:#009FDB;stroke-width:1.0416666666666667;" width="567.6676" x="11.4583" y="151.0002"/><path d="M503.3927,151.0002 L503.3927,183.0753 L492.976,193.4919 L11.4583,193.4919 " fill="none" style="stroke:#009FDB;stroke-width:1.0416666666666667;"/><text fill="#808080" font-family="Verdana" font-size="16.6667" lengthAdjust="spacing" textLength="464.851" x="22.9167" y="178.1919">OpenStack-&#1086;&#1073;&#1083;&#1072;&#1082;&#1086;, Yandex, VK, Selectel, AWS, GCP, Azure...</text><line style="stroke:#009FDB;stroke-width:1.5625;" x1="114.7168" x2="385.0089" y1="211.2003" y2="211.2003"/><rect fill="url(#g1acdac1jfnnjj1)" height="51.8667" rx="10.4167" ry="10.4167" style="stroke:#009FDB;stroke-width:1.0416666666666667;" width="181.517" x="23.9583" y="232.0336"/><text fill="#FFFFFF" font-family="Verdana" font-size="16.6667" lengthAdjust="spacing" textLength="34.3167" x="38.5417" y="264.4336">inlet</text><text fill="#FFFFFF" font-family="Verdana" font-size="16.6667" font-weight="bold" lengthAdjust="spacing" textLength="113.7002" x="77.1917" y="264.4336">LoadBalancer</text><rect fill="url(#g1acdac1jfnnjj1)" height="51.8667" rx="10.4167" ry="10.4167" style="stroke:#009FDB;stroke-width:1.0416666666666667;" width="338.2339" x="215.892" y="232.0336"/><text fill="#FFFFFF" font-family="Verdana" font-size="16.6667" lengthAdjust="spacing" textLength="34.3167" x="230.4753" y="264.4336">inlet</text><text fill="#FFFFFF" font-family="Verdana" font-size="16.6667" font-weight="bold" lengthAdjust="spacing" textLength="270.4172" x="269.1254" y="264.4336">LoadBalancerWithProxyProtocol</text><rect fill="none" height="321.8336" rx="10.4167" ry="10.4167" style="stroke:#009FDB;stroke-width:1.0416666666666667;" width="667.4427" x="599.9592" y="151.0002"/><path d="M885.1264,151.0002 L885.1264,183.0753 L874.7097,193.4919 L599.9592,193.4919 " fill="none" style="stroke:#009FDB;stroke-width:1.0416666666666667;"/><text fill="#808080" font-family="Verdana" font-size="16.6667" lengthAdjust="spacing" textLength="258.0838" x="611.4176" y="178.1919">Bare metal, &#1086;&#1073;&#1083;&#1072;&#1082;&#1086; &#1085;&#1072; vSphere...</text><line style="stroke:#009FDB;stroke-width:1.5625;" x1="723.2677" x2="1055.1766" y1="211.2003" y2="211.2003"/><rect fill="url(#g1acdac1jfnnjj1)" height="74.5668" rx="10.4167" ry="10.4167" style="stroke:#009FDB;stroke-width:1.0416666666666667;" width="196.617" x="624.9592" y="271.4003"/><text fill="#FFFFFF" font-family="Verdana" font-size="16.6667" lengthAdjust="spacing" textLength="167.4503" x="639.5426" y="303.8004">&#1044;&#1086;&#1073;&#1072;&#1074;&#1100;&#1090;&#1077; &#1085;&#1077;&#1089;&#1082;&#1086;&#1083;&#1100;&#1082;&#1086;</text><text fill="#FFFFFF" font-family="Verdana" font-size="16.6667" lengthAdjust="spacing" textLength="135.0169" x="655.7593" y="326.5004">&#1040;-&#1079;&#1072;&#1087;&#1080;&#1089;&#1077;&#1081; &#1074; DNS</text><rect fill="url(#g1acdac1jfnnjj1)" height="74.5668" rx="10.4167" ry="10.4167" style="stroke:#009FDB;stroke-width:1.0416666666666667;" width="399.4507" x="855.4512" y="271.4003"/><text fill="#FFFFFF" font-family="Verdana" font-size="16.6667" lengthAdjust="spacing" textLength="323.0507" x="893.6513" y="303.8004">&#1048;&#1089;&#1087;&#1086;&#1083;&#1100;&#1079;&#1091;&#1081;&#1090;&#1077; &#1074;&#1085;&#1077;&#1096;&#1085;&#1080;&#1081; &#1073;&#1072;&#1083;&#1072;&#1085;&#1089;&#1080;&#1088;&#1086;&#1074;&#1097;&#1080;&#1082;</text><text fill="#FFFFFF" font-family="Verdana" font-size="16.6667" lengthAdjust="spacing" textLength="370.2841" x="870.0346" y="326.5004">(Cloudflare, Qrator, MetalLB (&#1076;&#1083;&#1103; bare metal)...)</text><line style="stroke:#009FDB;stroke-width:1.5625;" x1="723.2677" x2="1055.1766" y1="366.8004" y2="366.8004"/><line style="stroke:#009FDB;stroke-width:1.5625;" x1="775.997" x2="1025.5057" y1="387.6337" y2="387.6337"/><rect fill="url(#g1acdac1jfnnjj1)" height="51.8667" rx="10.4167" ry="10.4167" style="stroke:#009FDB;stroke-width:1.0416666666666667;" width="141.9835" x="705.0053" y="408.4671"/><text fill="#FFFFFF" font-family="Verdana" font-size="16.6667" lengthAdjust="spacing" textLength="34.3167" x="719.5886" y="440.8671">inlet</text><text fill="#FFFFFF" font-family="Verdana" font-size="16.6667" font-weight="bold" lengthAdjust="spacing" textLength="74.1668" x="758.2387" y="440.8671">HostPort</text><rect fill="url(#g1acdac1jfnnjj1)" height="51.8667" rx="10.4167" ry="10.4167" style="stroke:#009FDB;stroke-width:1.0416666666666667;" width="298.7005" x="876.1555" y="408.4671"/><text fill="#FFFFFF" font-family="Verdana" font-size="16.6667" lengthAdjust="spacing" textLength="34.3167" x="890.7388" y="440.8671">inlet</text><text fill="#FFFFFF" font-family="Verdana" font-size="16.6667" font-weight="bold" lengthAdjust="spacing" textLength="230.8838" x="929.3889" y="440.8671">HostPortWithProxyProtocol</text><line style="stroke:#009FDB;stroke-width:3.125;" x1="114.7168" x2="114.7168" y1="212.7628" y2="232.0336"/><polygon fill="#009FDB" points="110.5501,221.6169,114.7168,232.0336,118.8835,221.6169,114.7168,225.7836" style="stroke:#009FDB;stroke-width:1.0416666666666667;"/><line style="stroke:#009FDB;stroke-width:3.125;" x1="385.0089" x2="385.0089" y1="212.7628" y2="232.0336"/><polygon fill="#009FDB" points="380.8423,221.6169,385.0089,232.0336,389.1756,221.6169,385.0089,225.7836" style="stroke:#009FDB;stroke-width:1.0416666666666667;"/><line style="stroke:#009FDB;stroke-width:3.125;" x1="723.2677" x2="723.2677" y1="212.7628" y2="271.4003"/><polygon fill="#009FDB" points="719.1011,260.9837,723.2677,271.4003,727.4344,260.9837,723.2677,265.1503" style="stroke:#009FDB;stroke-width:1.0416666666666667;"/><text fill="#5A5A5A" font-family="Verdana" font-size="16.6667" font-style="italic" lengthAdjust="spacing" textLength="86.3502" x="735.7677" y="247.767">&#1042;&#1072;&#1088;&#1080;&#1072;&#1085;&#1090; 1</text><line style="stroke:#009FDB;stroke-width:3.125;" x1="1055.1766" x2="1055.1766" y1="212.7628" y2="271.4003"/><polygon fill="#009FDB" points="1051.0099,260.9837,1055.1766,271.4003,1059.3433,260.9837,1055.1766,265.1503" style="stroke:#009FDB;stroke-width:1.0416666666666667;"/><text fill="#5A5A5A" font-family="Verdana" font-size="16.6667" font-style="italic" lengthAdjust="spacing" textLength="86.3502" x="1067.6766" y="247.767">&#1042;&#1072;&#1088;&#1080;&#1072;&#1085;&#1090; 2</text><line style="stroke:#009FDB;stroke-width:3.125;" x1="723.2677" x2="723.2677" y1="345.9671" y2="366.8004"/><polygon fill="#009FDB" points="719.1011,356.3837,723.2677,366.8004,727.4344,356.3837,723.2677,360.5504" style="stroke:#009FDB;stroke-width:1.0416666666666667;"/><line style="stroke:#009FDB;stroke-width:3.125;" x1="1055.1766" x2="1055.1766" y1="345.9671" y2="366.8004"/><polygon fill="#009FDB" points="1051.0099,356.3837,1055.1766,366.8004,1059.3433,356.3837,1055.1766,360.5504" style="stroke:#009FDB;stroke-width:1.0416666666666667;"/><line style="stroke:#009FDB;stroke-width:3.125;" x1="775.997" x2="775.997" y1="389.1962" y2="408.4671"/><polygon fill="#009FDB" points="771.8304,398.0504,775.997,408.4671,780.1637,398.0504,775.997,402.2171" style="stroke:#009FDB;stroke-width:1.0416666666666667;"/><line style="stroke:#009FDB;stroke-width:3.125;" x1="1025.5057" x2="1025.5057" y1="389.1962" y2="408.4671"/><polygon fill="#009FDB" points="1021.3391,398.0504,1025.5057,408.4671,1029.6724,398.0504,1025.5057,402.2171" style="stroke:#009FDB;stroke-width:1.0416666666666667;"/><line style="stroke:#009FDB;stroke-width:3.125;" x1="939.9306" x2="939.9306" y1="368.3629" y2="387.6337"/><polygon fill="#009FDB" points="935.764,377.2171,939.9306,387.6337,944.0973,377.2171,939.9306,381.3837" style="stroke:#009FDB;stroke-width:1.0416666666666667;"/><line style="stroke:#009FDB;stroke-width:3.125;" x1="509.3987" x2="279.6671" y1="75.5001" y2="75.5001"/><line style="stroke:#009FDB;stroke-width:3.125;" x1="279.6671" x2="279.6671" y1="75.5001" y2="211.2003"/><polygon fill="#009FDB" points="275.5005,200.7836,279.6671,211.2003,283.8338,200.7836,279.6671,204.9503" style="stroke:#009FDB;stroke-width:1.0416666666666667;"/><line style="stroke:#009FDB;stroke-width:3.125;" x1="710.199" x2="939.9306" y1="75.5001" y2="75.5001"/><line style="stroke:#009FDB;stroke-width:3.125;" x1="939.9306" x2="939.9306" y1="75.5001" y2="211.2003"/><polygon fill="#009FDB" points="935.764,200.7836,939.9306,211.2003,944.0973,200.7836,939.9306,204.9503" style="stroke:#009FDB;stroke-width:1.0416666666666667;"/><!--SRC=[bP9HQnD14CVVxrECRqcu1Eg33mqeIOeALerSiGXzsTvDaYMRtMEpiKb5CF75Gg55VF15_0hfqPYqfUbNsFj6pbrwzhGMbEDsvvYT_-py_dVFTB27i2i6sDPivFIxN8PCinviO8iDX7cifF7uFiBQWroomsImfxanAA75H1zpkPhMQYyjCoE1m0qJtByjl8L3KnEyBNie3VYqeCwTQZ9jkE5A9aeD9PI6jiRy1NUPtsrhDP31AcqqatrAaPBZEBm5XHrflzkbFQLd5d-mF-p2HdPAyIGUnqUKdTFNERrpYazelw3tCXxR1PrUsYW-e8hp97gq8uj0g2GKx1SxBJfXTZru6QBq3DsbJ0TFKWagSU4D8SAX2w-VkU2XGD-WSA6sxRdmfD6aQ7-WiLAfm3i7e1yARcW7METIe85IQLEneCu4apxgKgcQ9g7BXSYE0sipBkykskQcqzHgEAB5A5-9JELQ16Nmg-zx1yb46kvRGYS_Nfs0GW_9H1Vo0uAzj5DuwuKTJCVuVOhoG_lPJedY8YKwWRLLwtMYjqnHH_5XFB6pH6P6n1FA5_5XifCNn-NKcYioOcndzWni11illEfVHh_LwNxMwIlLNbtBpkEFzcpLBqexVg9raGZVQNkgKcW8DGXQWY2uy4epexGBpnCQctMYTKhYH_GZPeYA1A9O_OFj3PKRdvwglcagRVxPsApWFqsL0M_z1000]--></g></svg>
