<svg xmlns="http://www.w3.org/2000/svg" width="249.5135141126077" height="145.45945972417542" fill="none" style=""><rect id="backgroundrect" width="100%" height="100%" x="0" y="0" fill="none" stroke="none" class="" style=""/>



<defs>
<linearGradient id="paint0_linear" x1="0.22712700068950653" y1="0.09078889340162277" x2="0.5681235790252686" y2="1.1139640808105469">
<stop stop-color="#4075FF"/>
<stop offset="1" stop-color="#4075FF" stop-opacity="0.5"/>
</linearGradient>
<linearGradient id="paint1_linear" x1="0.5" y1="1.0013192892074585" x2="1.4999983310699463" y2="1.0013192892074585">
<stop stop-color="#FF512B" stop-opacity="0.5"/>
<stop offset="1" stop-color="#FF512B"/>
</linearGradient>
</defs>
<g class="currentLayer" style=""><title>Layer 1</title><path d="M9.515771093750004,62.529269399261466 C-0.008828906250002433,57.03076939926149 -0.008828906250002433,48.11576939926147 9.515771093750004,42.617169399261456 L50.846871093749996,18.756969399261465 C50.846871093749996,18.756969399261465 50.846871093749996,18.756969399261465 50.846871093749996,18.756969399261465 C50.846871093749996,18.756969399261465 124.06687109375,-23.513336600738526 207.84887109375,24.85366939926149 C291.62987109375,73.22066939926148 218.40887109375,115.49066939926146 218.40887109375,115.49066939926146 C218.40887109375,115.49066939926146 218.40887109375,115.49066939926146 218.40887109375,115.49066939926146 L177.07887109374997,139.35166939926148 C167.55387109375,144.84966939926147 152.11187109374998,144.84966939926147 142.58687109375,139.35166939926148 L9.515771093750004,62.529269399261466 z" fill="url(#paint0_linear)" id="svg_1" class=""/><circle r="61.62110137939453" transform="matrix(0.866044,-0.499967,0.866044,0.499967,137.999,124.825) " fill="url(#paint1_linear)" id="svg_2" class="" cy="-59.65050869281103" cx="-11.71668385889518"/></g></svg>