<svg width="13" height="9" viewBox="0 0 13 9" fill="none" xmlns="http://www.w3.org/2000/svg">
<path d="M12.062 8.49575C12.336 8.46149 12.5304 8.2116 12.4961 7.93759C12.4619 7.66358 12.212 7.46922 11.938 7.50347L12.062 8.49575ZM4.35355 0.146053C4.15829 -0.0492094 3.84171 -0.0492094 3.64645 0.146053L0.464466 3.32803C0.269204 3.5233 0.269204 3.83988 0.464466 4.03514C0.659728 4.2304 0.976311 4.2304 1.17157 4.03514L4 1.20671L6.82843 4.03514C7.02369 4.2304 7.34027 4.2304 7.53553 4.03514C7.7308 3.83988 7.7308 3.5233 7.53553 3.32803L4.35355 0.146053ZM12 7.99961C11.938 7.50347 11.9381 7.50346 11.9381 7.50345C11.9381 7.50345 11.9381 7.50345 11.9381 7.50345C11.938 7.50346 11.9378 7.50349 11.9375 7.50353C11.9368 7.50361 11.9357 7.50375 11.9341 7.50394C11.9309 7.50432 11.9259 7.50493 11.919 7.50574C11.9052 7.50735 11.8841 7.50975 11.8563 7.51277C11.8006 7.5188 11.7178 7.52728 11.6118 7.53674C11.3996 7.55569 11.0951 7.57854 10.7292 7.59379C9.99483 7.62439 9.02476 7.62381 8.06202 7.50347C7.08995 7.38196 6.17437 7.14397 5.515 6.73186C4.88054 6.33532 4.5 5.79393 4.5 4.99961H3.5C3.5 6.20529 4.11946 7.03889 4.985 7.57986C5.82563 8.10525 6.91005 8.36725 7.93798 8.49575C8.97524 8.6254 10.0052 8.62483 10.7708 8.59292C11.1549 8.57692 11.4754 8.5529 11.7007 8.53278C11.8134 8.52272 11.9025 8.51361 11.964 8.50695C11.9948 8.50362 12.0186 8.5009 12.0351 8.49897C12.0434 8.498 12.0498 8.49724 12.0543 8.49669C12.0565 8.49642 12.0583 8.4962 12.0596 8.49605C12.0602 8.49597 12.0608 8.4959 12.0612 8.49585C12.0614 8.49583 12.0616 8.4958 12.0617 8.49579C12.0619 8.49576 12.062 8.49575 12 7.99961ZM4.5 4.99961C4.5 4.99179 4.5 4.98399 4.5 4.97621C4.5 4.96842 4.5 4.96065 4.5 4.95289C4.5 4.94513 4.5 4.93739 4.5 4.92965C4.5 4.92192 4.5 4.9142 4.5 4.9065C4.5 4.89879 4.5 4.8911 4.5 4.88342C4.5 4.87574 4.5 4.86807 4.5 4.86042C4.5 4.85277 4.5 4.84513 4.5 4.8375C4.5 4.82987 4.5 4.82226 4.5 4.81466C4.5 4.80706 4.5 4.79947 4.5 4.7919C4.5 4.78432 4.5 4.77676 4.5 4.76921C4.5 4.76167 4.5 4.75413 4.5 4.74661C4.5 4.73909 4.5 4.73158 4.5 4.72409C4.5 4.71659 4.5 4.70911 4.5 4.70164C4.5 4.69417 4.5 4.68671 4.5 4.67927C4.5 4.67183 4.5 4.6644 4.5 4.65698C4.5 4.64956 4.5 4.64216 4.5 4.63477C4.5 4.62738 4.5 4.62 4.5 4.61263C4.5 4.60527 4.5 4.59792 4.5 4.59058C4.5 4.58324 4.5 4.57591 4.5 4.5686C4.5 4.56129 4.5 4.55399 4.5 4.5467C4.5 4.53941 4.5 4.53214 4.5 4.52488C4.5 4.51761 4.5 4.51037 4.5 4.50313C4.5 4.49589 4.5 4.48867 4.5 4.48146C4.5 4.47425 4.5 4.46705 4.5 4.45987C4.5 4.45268 4.5 4.44551 4.5 4.43835C4.5 4.43119 4.5 4.42405 4.5 4.41692C4.5 4.40978 4.5 4.40266 4.5 4.39555C4.5 4.38845 4.5 4.38135 4.5 4.37427C4.5 4.36719 4.5 4.36012 4.5 4.35306C4.5 4.346 4.5 4.33896 4.5 4.33193C4.5 4.3249 4.5 4.31788 4.5 4.31087C4.5 4.30386 4.5 4.29687 4.5 4.28989C4.5 4.28291 4.5 4.27594 4.5 4.26899C4.5 4.26203 4.5 4.25509 4.5 4.24816C4.5 4.24123 4.5 4.23431 4.5 4.2274C4.5 4.2205 4.5 4.2136 4.5 4.20672C4.5 4.19984 4.5 4.19298 4.5 4.18612C4.5 4.17927 4.5 4.17242 4.5 4.16559C4.5 4.15876 4.5 4.15195 4.5 4.14514C4.5 4.13834 4.5 4.13154 4.5 4.12476C4.5 4.11798 4.5 4.11122 4.5 4.10446C4.5 4.0977 4.5 4.09096 4.5 4.08423C4.5 4.0775 4.5 4.07078 4.5 4.06408C4.5 4.05737 4.5 4.05068 4.5 4.044C4.5 4.03732 4.5 4.03065 4.5 4.02399C4.5 4.01734 4.5 4.01069 4.5 4.00406C4.5 3.99743 4.5 3.99081 4.5 3.9842C4.5 3.9776 4.5 3.971 4.5 3.96442C4.5 3.95784 4.5 3.95127 4.5 3.94471C4.5 3.93815 4.5 3.93161 4.5 3.92507C4.5 3.91854 4.5 3.91202 4.5 3.90551C4.5 3.899 4.5 3.89251 4.5 3.88602C4.5 3.87954 4.5 3.87306 4.5 3.8666C4.5 3.86014 4.5 3.8537 4.5 3.84726C4.5 3.84082 4.5 3.8344 4.5 3.82799C4.5 3.82158 4.5 3.81518 4.5 3.80879C4.5 3.8024 4.5 3.79603 4.5 3.78967C4.5 3.7833 4.5 3.77695 4.5 3.77061C4.5 3.76427 4.5 3.75795 4.5 3.75163C4.5 3.74532 4.5 3.73901 4.5 3.73272C4.5 3.72643 4.5 3.72015 4.5 3.71389C4.5 3.70762 4.5 3.70137 4.5 3.69512C4.5 3.68888 4.5 3.68265 4.5 3.67643C4.5 3.67021 4.5 3.664 4.5 3.65781C4.5 3.65161 4.5 3.64543 4.5 3.63926C4.5 3.63309 4.5 3.62693 4.5 3.62078C4.5 3.61463 4.5 3.6085 4.5 3.60238C4.5 3.59625 4.5 3.59014 4.5 3.58404C4.5 3.57794 4.5 3.57185 4.5 3.56577C4.5 3.5597 4.5 3.55363 4.5 3.54758C4.5 3.54153 4.5 3.53549 4.5 3.52946C4.5 3.52343 4.5 3.51741 4.5 3.51141C4.5 3.5054 4.5 3.49941 4.5 3.49342C4.5 3.48744 4.5 3.48147 4.5 3.47551C4.5 3.46955 4.5 3.46361 4.5 3.45767C4.5 3.45173 4.5 3.44581 4.5 3.4399C4.5 3.43399 4.5 3.42809 4.5 3.4222C4.5 3.41631 4.5 3.41043 4.5 3.40457C4.5 3.3987 4.5 3.39285 4.5 3.387C4.5 3.38116 4.5 3.37533 4.5 3.36951C4.5 3.36369 4.5 3.35788 4.5 3.35209C4.5 3.34629 4.5 3.34051 4.5 3.33473C4.5 3.32896 4.5 3.3232 4.5 3.31745C4.5 3.3117 4.5 3.30596 4.5 3.30023C4.5 3.2945 4.5 3.28879 4.5 3.28308C4.5 3.27738 4.5 3.27169 4.5 3.26601C4.5 3.26033 4.5 3.25466 4.5 3.249C4.5 3.24334 4.5 3.23769 4.5 3.23206C4.5 3.22642 4.5 3.2208 4.5 3.21518C4.5 3.20957 4.5 3.20397 4.5 3.19838C4.5 3.19279 4.5 3.18721 4.5 3.18164C4.5 3.17607 4.5 3.17052 4.5 3.16497C4.5 3.15943 4.5 3.15389 4.5 3.14837C4.5 3.14285 4.5 3.13734 4.5 3.13184C4.5 3.12634 4.5 3.12085 4.5 3.11537C4.5 3.10989 4.5 3.10443 4.5 3.09897C4.5 3.09352 4.5 3.08807 4.5 3.08264C4.5 3.07721 4.5 3.07179 4.5 3.06638C4.5 3.06097 4.5 3.05557 4.5 3.05018C4.5 3.04479 4.5 3.03941 4.5 3.03405C4.5 3.02868 4.5 3.02333 4.5 3.01798C4.5 3.01264 4.5 3.00731 4.5 3.00199C4.5 2.99667 4.5 2.99136 4.5 2.98606C4.5 2.98076 4.5 2.97547 4.5 2.97019C4.5 2.96491 4.5 2.95965 4.5 2.95439C4.5 2.94914 4.5 2.94389 4.5 2.93866C4.5 2.93343 4.5 2.92821 4.5 2.92299C4.5 2.91778 4.5 2.91258 4.5 2.90739C4.5 2.9022 4.5 2.89703 4.5 2.89186C4.5 2.88669 4.5 2.88153 4.5 2.87639C4.5 2.87124 4.5 2.86611 4.5 2.86098C4.5 2.85586 4.5 2.85075 4.5 2.84565C4.5 2.84054 4.5 2.83545 4.5 2.83037C4.5 2.82529 4.5 2.82022 4.5 2.81516C4.5 2.8101 4.5 2.80506 4.5 2.80002C4.5 2.79498 4.5 2.78995 4.5 2.78494C4.5 2.77992 4.5 2.77492 4.5 2.76992C4.5 2.76493 4.5 2.75995 4.5 2.75497C4.5 2.75 4.5 2.74504 4.5 2.74009C4.5 2.73514 4.5 2.73019 4.5 2.72526C4.5 2.72033 4.5 2.71542 4.5 2.71051C4.5 2.7056 4.5 2.7007 4.5 2.69581C4.5 2.69093 4.5 2.68605 4.5 2.68118C4.5 2.67632 4.5 2.67146 4.5 2.66662C4.5 2.66177 4.5 2.65694 4.5 2.65211C4.5 2.64729 4.5 2.64247 4.5 2.63767C4.5 2.63287 4.5 2.62808 4.5 2.6233C4.5 2.61851 4.5 2.61374 4.5 2.60898C4.5 2.60422 4.5 2.59947 4.5 2.59473C4.5 2.58999 4.5 2.58526 4.5 2.58054C4.5 2.57582 4.5 2.57112 4.5 2.56642C4.5 2.56172 4.5 2.55703 4.5 2.55235C4.5 2.54768 4.5 2.54301 4.5 2.53835C4.5 2.5337 4.5 2.52905 4.5 2.52442C4.5 2.51978 4.5 2.51516 4.5 2.51054C4.5 2.50593 4.5 2.50132 4.5 2.49673C4.5 2.49213 4.5 2.48755 4.5 2.48297C4.5 2.4784 4.5 2.47384 4.5 2.46928C4.5 2.46473 4.5 2.46019 4.5 2.45566C4.5 2.45112 4.5 2.4466 4.5 2.44209C4.5 2.43758 4.5 2.43307 4.5 2.42858C4.5 2.42409 4.5 2.41961 4.5 2.41514C4.5 2.41067 4.5 2.4062 4.5 2.40175C4.5 2.3973 4.5 2.39286 4.5 2.38843C4.5 2.384 4.5 2.37958 4.5 2.37517C4.5 2.37076 4.5 2.36636 4.5 2.36197C4.5 2.35758 4.5 2.3532 4.5 2.34883C4.5 2.34446 4.5 2.3401 4.5 2.33575C4.5 2.3314 4.5 2.32706 4.5 2.32273C4.5 2.3184 4.5 2.31408 4.5 2.30977C4.5 2.30546 4.5 2.30116 4.5 2.29687C4.5 2.29258 4.5 2.2883 4.5 2.28403C4.5 2.27976 4.5 2.2755 4.5 2.27125C4.5 2.267 4.5 2.26276 4.5 2.25853C4.5 2.25429 4.5 2.25007 4.5 2.24586C4.5 2.24165 4.5 2.23745 4.5 2.23326C4.5 2.22907 4.5 2.22489 4.5 2.22072C4.5 2.21655 4.5 2.21239 4.5 2.20824C4.5 2.20408 4.5 2.19994 4.5 2.19581C4.5 2.19168 4.5 2.18756 4.5 2.18344C4.5 2.17933 4.5 2.17523 4.5 2.17114C4.5 2.16704 4.5 2.16296 4.5 2.15889C4.5 2.15481 4.5 2.15075 4.5 2.1467C4.5 2.14264 4.5 2.1386 4.5 2.13457C4.5 2.13053 4.5 2.12651 4.5 2.12249C4.5 2.11848 4.5 2.11447 4.5 2.11047C4.5 2.10648 4.5 2.10249 4.5 2.09852C4.5 2.09454 4.5 2.09057 4.5 2.08662C4.5 2.08266 4.5 2.07871 4.5 2.07477C4.5 2.07083 4.5 2.06691 4.5 2.06299C4.5 2.05907 4.5 2.05516 4.5 2.05126C4.5 2.04736 4.5 2.04347 4.5 2.03959C4.5 2.03571 4.5 2.03184 4.5 2.02797C4.5 2.02411 4.5 2.02026 4.5 2.01642C4.5 2.01257 4.5 2.00874 4.5 2.00492C4.5 2.00109 4.5 1.99728 4.5 1.99347C4.5 1.98967 4.5 1.98587 4.5 1.98209C4.5 1.9783 4.5 1.97452 4.5 1.97075C4.5 1.96699 4.5 1.96323 4.5 1.95948C4.5 1.95573 4.5 1.95199 4.5 1.94826C4.5 1.94453 4.5 1.94081 4.5 1.9371C4.5 1.93339 4.5 1.92968 4.5 1.92599C4.5 1.9223 4.5 1.91862 4.5 1.91494C4.5 1.91127 4.5 1.9076 4.5 1.90395C4.5 1.90029 4.5 1.89664 4.5 1.89301C4.5 1.88937 4.5 1.88574 4.5 1.88212C4.5 1.8785 4.5 1.87489 4.5 1.87129C4.5 1.86769 4.5 1.8641 4.5 1.86052C4.5 1.85693 4.5 1.85336 4.5 1.8498C4.5 1.84623 4.5 1.84268 4.5 1.83913C4.5 1.83559 4.5 1.83205 4.5 1.82852C4.5 1.82499 4.5 1.82148 4.5 1.81797C4.5 1.81446 4.5 1.81096 4.5 1.80746C4.5 1.80397 4.5 1.80049 4.5 1.79702C4.5 1.79354 4.5 1.79008 4.5 1.78662C4.5 1.78317 4.5 1.77972 4.5 1.77629C4.5 1.77285 4.5 1.76942 4.5 1.766C4.5 1.76258 4.5 1.75917 4.5 1.75577C4.5 1.75237 4.5 1.74897 4.5 1.74559C4.5 1.74221 4.5 1.73883 4.5 1.73547C4.5 1.7321 4.5 1.72874 4.5 1.72539C4.5 1.72205 4.5 1.71871 4.5 1.71538C4.5 1.71205 4.5 1.70872 4.5 1.70541C4.5 1.7021 4.5 1.69879 4.5 1.6955C4.5 1.6922 4.5 1.68892 4.5 1.68564C4.5 1.68236 4.5 1.67909 4.5 1.67583C4.5 1.67257 4.5 1.66932 4.5 1.66608C4.5 1.66283 4.5 1.6596 4.5 1.65638C4.5 1.65315 4.5 1.64993 4.5 1.64673C4.5 1.64352 4.5 1.64032 4.5 1.63713C4.5 1.63394 4.5 1.63075 4.5 1.62758C4.5 1.62441 4.5 1.62124 4.5 1.61809C4.5 1.61493 4.5 1.61178 4.5 1.60865C4.5 1.60551 4.5 1.60238 4.5 1.59925C4.5 1.59613 4.5 1.59302 4.5 1.58991C4.5 1.58681 4.5 1.58371 4.5 1.58063C4.5 1.57754 4.5 1.57446 4.5 1.57139C4.5 1.56832 4.5 1.56526 4.5 1.5622C4.5 1.55915 4.5 1.55611 4.5 1.55307C4.5 1.55003 4.5 1.547 4.5 1.54398C4.5 1.54096 4.5 1.53795 4.5 1.53495C4.5 1.53195 4.5 1.52895 4.5 1.52597C4.5 1.52298 4.5 1.52 4.5 1.51703C4.5 1.51406 4.5 1.5111 4.5 1.50815C4.5 1.5052 4.5 1.50225 4.5 1.49932C4.5 1.49638 4.5 1.49346 4.5 1.49054C4.5 1.48762 4.5 1.48471 4.5 1.4818C4.5 1.4789 4.5 1.47601 4.5 1.47312C4.5 1.47023 4.5 1.46736 4.5 1.46449C4.5 1.46162 4.5 1.45875 4.5 1.4559C4.5 1.45305 4.5 1.4502 4.5 1.44737C4.5 1.44453 4.5 1.4417 4.5 1.43888C4.5 1.43606 4.5 1.43325 4.5 1.43044C4.5 1.42764 4.5 1.42484 4.5 1.42206C4.5 1.41927 4.5 1.41649 4.5 1.41372C4.5 1.41094 4.5 1.40818 4.5 1.40542C4.5 1.40267 4.5 1.39992 4.5 1.39718C4.5 1.39444 4.5 1.39171 4.5 1.38899C4.5 1.38627 4.5 1.38355 4.5 1.38084C4.5 1.37814 4.5 1.37544 4.5 1.37274C4.5 1.37005 4.5 1.36737 4.5 1.36469C4.5 1.36202 4.5 1.35935 4.5 1.35669C4.5 1.35403 4.5 1.35138 4.5 1.34874C4.5 1.34609 4.5 1.34346 4.5 1.34083C4.5 1.3382 4.5 1.33558 4.5 1.33297C4.5 1.33036 4.5 1.32776 4.5 1.32516C4.5 1.32256 4.5 1.31998 4.5 1.31739C4.5 1.31481 4.5 1.31224 4.5 1.30968C4.5 1.30711 4.5 1.30455 4.5 1.30201C4.5 1.29946 4.5 1.29691 4.5 1.29438C4.5 1.29185 4.5 1.28932 4.5 1.2868C4.5 1.28428 4.5 1.28177 4.5 1.27927C4.5 1.27677 4.5 1.27427 4.5 1.27179C4.5 1.2693 4.5 1.26682 4.5 1.26435C4.5 1.26187 4.5 1.25941 4.5 1.25695C4.5 1.2545 4.5 1.25205 4.5 1.24961C4.5 1.24716 4.5 1.24473 4.5 1.24231C4.5 1.23988 4.5 1.23746 4.5 1.23505C4.5 1.23264 4.5 1.23023 4.5 1.22784C4.5 1.22544 4.5 1.22305 4.5 1.22067C4.5 1.21829 4.5 1.21592 4.5 1.21355C4.5 1.21119 4.5 1.20883 4.5 1.20648C4.5 1.20413 4.5 1.20179 4.5 1.19945C4.5 1.19711 4.5 1.19479 4.5 1.19247C4.5 1.19015 4.5 1.18783 4.5 1.18553C4.5 1.18322 4.5 1.18092 4.5 1.17863C4.5 1.17634 4.5 1.17406 4.5 1.17178C4.5 1.1695 4.5 1.16723 4.5 1.16497C4.5 1.16271 4.5 1.16046 4.5 1.15821C4.5 1.15596 4.5 1.15372 4.5 1.15149C4.5 1.14926 4.5 1.14704 4.5 1.14482C4.5 1.1426 4.5 1.14039 4.5 1.13819C4.5 1.13598 4.5 1.13379 4.5 1.1316C4.5 1.12941 4.5 1.12723 4.5 1.12506C4.5 1.12288 4.5 1.12072 4.5 1.11856C4.5 1.1164 4.5 1.11424 4.5 1.1121C4.5 1.10995 4.5 1.10782 4.5 1.10568C4.5 1.10355 4.5 1.10143 4.5 1.09931C4.5 1.0972 4.5 1.09509 4.5 1.09299C4.5 1.09088 4.5 1.08879 4.5 1.0867C4.5 1.08461 4.5 1.08253 4.5 1.08046C4.5 1.07838 4.5 1.07632 4.5 1.07426C4.5 1.0722 4.5 1.07014 4.5 1.0681C4.5 1.06605 4.5 1.06401 4.5 1.06198C4.5 1.05995 4.5 1.05793 4.5 1.05591C4.5 1.05389 4.5 1.05188 4.5 1.04988C4.5 1.04787 4.5 1.04588 4.5 1.04389C4.5 1.0419 4.5 1.03991 4.5 1.03794C4.5 1.03596 4.5 1.03399 4.5 1.03203C4.5 1.03007 4.5 1.02811 4.5 1.02616C4.5 1.02421 4.5 1.02227 4.5 1.02034C4.5 1.0184 4.5 1.01648 4.5 1.01455C4.5 1.01263 4.5 1.01072 4.5 1.00881C4.5 1.0069 4.5 1.005 4.5 1.00311C4.5 1.00122 4.5 0.999329 4.5 0.997449C4.5 0.995569 4.5 0.993695 4.5 0.991828C4.5 0.989961 4.5 0.988101 4.5 0.986248C4.5 0.984395 4.5 0.982548 4.5 0.980708C4.5 0.978868 4.5 0.977035 4.5 0.975208C4.5 0.973381 4.5 0.971561 4.5 0.969748C4.5 0.967935 4.5 0.966128 4.5 0.964328C4.5 0.962528 4.5 0.960735 4.5 0.958948C4.5 0.957161 4.5 0.955381 4.5 0.953607C4.5 0.951834 4.5 0.950067 4.5 0.948306C4.5 0.946546 4.5 0.944792 4.5 0.943044C4.5 0.941297 4.5 0.939556 4.5 0.937822C4.5 0.936088 4.5 0.93436 4.5 0.932638C4.5 0.930917 4.5 0.929202 4.5 0.927494C4.5 0.925785 4.5 0.924083 4.5 0.922388C4.5 0.920692 4.5 0.919003 4.5 0.917321C4.5 0.915638 4.5 0.913962 4.5 0.912292C4.5 0.910622 4.5 0.908959 4.5 0.907302C4.5 0.905645 4.5 0.903994 4.5 0.90235C4.5 0.900706 4.5 0.899068 4.5 0.897436C4.5 0.895805 4.5 0.89418 4.5 0.892561C4.5 0.890942 4.5 0.889329 4.5 0.887723C4.5 0.886116 4.5 0.884516 4.5 0.882922C4.5 0.881329 4.5 0.879741 4.5 0.87816C4.5 0.876579 4.5 0.875004 4.5 0.873435C4.5 0.871866 4.5 0.870303 4.5 0.868747C4.5 0.867191 4.5 0.86564 4.5 0.864096C4.5 0.862552 4.5 0.861014 4.5 0.859483C4.5 0.857951 4.5 0.856426 4.5 0.854906C4.5 0.853387 4.5 0.851873 4.5 0.850366C4.5 0.848859 4.5 0.847358 4.5 0.845863C4.5 0.844368 4.5 0.842879 4.5 0.841396C4.5 0.839914 4.5 0.838437 4.5 0.836966C4.5 0.835495 4.5 0.834031 4.5 0.832572C4.5 0.831113 4.5 0.829661 4.5 0.828214C4.5 0.826768 4.5 0.825327 4.5 0.823892C4.5 0.822458 4.5 0.821029 4.5 0.819606C4.5 0.818184 4.5 0.816767 4.5 0.815356C4.5 0.813945 4.5 0.81254 4.5 0.811141C4.5 0.809742 4.5 0.808349 4.5 0.806962C4.5 0.805575 4.5 0.804193 4.5 0.802818C4.5 0.801442 4.5 0.800073 4.5 0.798709C4.5 0.797345 4.5 0.795987 4.5 0.794635C4.5 0.793283 4.5 0.791937 4.5 0.790596C4.5 0.789256 4.5 0.787921 4.5 0.786592C4.5 0.785263 4.5 0.78394 4.5 0.782623C4.5 0.781306 4.5 0.779994 4.5 0.778688C4.5 0.777382 4.5 0.776082 4.5 0.774787C4.5 0.773493 4.5 0.772204 4.5 0.770921C4.5 0.769638 4.5 0.768361 4.5 0.767089C4.5 0.765817 4.5 0.764551 4.5 0.763291C4.5 0.76203 4.5 0.760776 4.5 0.759526C4.5 0.758277 4.5 0.757034 4.5 0.755796C4.5 0.754558 4.5 0.753325 4.5 0.752099C4.5 0.750872 4.5 0.749651 4.5 0.748435C4.5 0.747219 4.5 0.746009 4.5 0.744805C4.5 0.7436 4.5 0.742401 4.5 0.741207C4.5 0.740014 4.5 0.738826 4.5 0.737643C4.5 0.736461 4.5 0.735284 4.5 0.734112C4.5 0.73294 4.5 0.731774 4.5 0.730614C4.5 0.729453 4.5 0.728298 4.5 0.727148C4.5 0.725998 4.5 0.724854 4.5 0.723714C4.5 0.722575 4.5 0.721442 4.5 0.720313C4.5 0.719185 4.5 0.718062 4.5 0.716945C4.5 0.715827 4.5 0.714715 4.5 0.713608C4.5 0.712501 4.5 0.7114 4.5 0.710303C4.5 0.709207 4.5 0.708116 4.5 0.707031C4.5 0.705945 4.5 0.704865 4.5 0.703789C4.5 0.702714 4.5 0.701644 4.5 0.70058C4.5 0.699515 4.5 0.698456 4.5 0.697402C4.5 0.696347 4.5 0.695298 4.5 0.694255C4.5 0.693211 4.5 0.692172 4.5 0.691139C4.5 0.690106 4.5 0.689077 4.5 0.688054C4.5 0.687031 4.5 0.686013 4.5 0.685001C4.5 0.683988 4.5 0.68298 4.5 0.681977C4.5 0.680975 4.5 0.679977 4.5 0.678985C4.5 0.677993 4.5 0.677005 4.5 0.676023C4.5 0.675041 4.5 0.674064 4.5 0.673091C4.5 0.672119 4.5 0.671152 4.5 0.67019C4.5 0.669228 4.5 0.668271 4.5 0.667319C4.5 0.666367 4.5 0.66542 4.5 0.664478C4.5 0.663535 4.5 0.662598 4.5 0.661666C4.5 0.660734 4.5 0.659807 4.5 0.658884C4.5 0.657962 4.5 0.657044 4.5 0.656132C4.5 0.655219 4.5 0.654312 4.5 0.653409C4.5 0.652506 4.5 0.651608 4.5 0.650715C4.5 0.649822 4.5 0.648934 4.5 0.648051C4.5 0.647168 4.5 0.646289 4.5 0.645416C4.5 0.644542 4.5 0.643673 4.5 0.642809C4.5 0.641945 4.5 0.641086 4.5 0.640231C4.5 0.639377 4.5 0.638527 4.5 0.637682C4.5 0.636837 4.5 0.635997 4.5 0.635161C4.5 0.634326 4.5 0.633495 4.5 0.632669C4.5 0.631843 4.5 0.631021 4.5 0.630205C4.5 0.629388 4.5 0.628576 4.5 0.627769C4.5 0.626961 4.5 0.626159 4.5 0.62536C4.5 0.624562 4.5 0.623769 4.5 0.62298C4.5 0.622191 4.5 0.621407 4.5 0.620627C4.5 0.619848 4.5 0.619073 4.5 0.618302C4.5 0.617532 4.5 0.616766 4.5 0.616005C4.5 0.615243 4.5 0.614486 4.5 0.613734C4.5 0.612982 4.5 0.612234 4.5 0.611491C4.5 0.610748 4.5 0.610009 4.5 0.609274C4.5 0.60854 4.5 0.60781 4.5 0.607085C4.5 0.60636 4.5 0.605639 4.5 0.604922C4.5 0.604206 4.5 0.603494 4.5 0.602786C4.5 0.602078 4.5 0.601375 4.5 0.600676C4.5 0.599978 4.5 0.599283 4.5 0.598593C4.5 0.597903 4.5 0.597217 4.5 0.596536C4.5 0.595855 4.5 0.595178 4.5 0.594505C4.5 0.593832 4.5 0.593164 4.5 0.5925C4.5 0.591836 4.5 0.591176 4.5 0.59052C4.5 0.589865 4.5 0.589214 4.5 0.588567C4.5 0.58792 4.5 0.587277 4.5 0.586639C4.5 0.586 4.5 0.585366 4.5 0.584736C4.5 0.584106 4.5 0.58348 4.5 0.582858C4.5 0.582237 4.5 0.581619 4.5 0.581006C4.5 0.580392 4.5 0.579783 4.5 0.579178C4.5 0.578573 4.5 0.577973 4.5 0.577376C4.5 0.576779 4.5 0.576186 4.5 0.575598C4.5 0.575009 4.5 0.574425 4.5 0.573845C4.5 0.573264 4.5 0.572688 4.5 0.572116C4.5 0.571544 4.5 0.570976 4.5 0.570411C4.5 0.569847 4.5 0.569287 4.5 0.568731C4.5 0.568175 4.5 0.567623 4.5 0.567075C4.5 0.566527 4.5 0.565983 4.5 0.565443C4.5 0.564902 4.5 0.564366 4.5 0.563834C4.5 0.563302 4.5 0.562774 4.5 0.562249C4.5 0.561725 4.5 0.561204 4.5 0.560688C4.5 0.560171 4.5 0.559659 4.5 0.55915C4.5 0.558641 4.5 0.558136 4.5 0.557635C4.5 0.557134 4.5 0.556637 4.5 0.556143C4.5 0.55565 4.5 0.55516 4.5 0.554675C4.5 0.554189 4.5 0.553707 4.5 0.553229C4.5 0.552751 4.5 0.552276 4.5 0.551806C4.5 0.551335 4.5 0.550868 4.5 0.550405C4.5 0.549942 4.5 0.549483 4.5 0.549027C4.5 0.548571 4.5 0.54812 4.5 0.547671C4.5 0.547223 4.5 0.546779 4.5 0.546338C4.5 0.545897 4.5 0.54546 4.5 0.545026C4.5 0.544593 4.5 0.544163 4.5 0.543736C4.5 0.54331 4.5 0.542888 4.5 0.542469C4.5 0.54205 4.5 0.541634 4.5 0.541222C4.5 0.54081 4.5 0.540402 4.5 0.539998C4.5 0.539593 4.5 0.539192 4.5 0.538794C4.5 0.538397 4.5 0.538003 4.5 0.537612C4.5 0.537221 4.5 0.536834 4.5 0.536451C4.5 0.536067 4.5 0.535687 4.5 0.535311C4.5 0.534934 4.5 0.534561 4.5 0.534192C4.5 0.533822 4.5 0.533456 4.5 0.533093C4.5 0.53273 4.5 0.532371 4.5 0.532015C4.5 0.531659 4.5 0.531307 4.5 0.530957C4.5 0.530608 4.5 0.530263 4.5 0.52992C4.5 0.529578 4.5 0.529239 4.5 0.528903C4.5 0.528567 4.5 0.528235 4.5 0.527906C4.5 0.527577 4.5 0.527251 4.5 0.526929C4.5 0.526606 4.5 0.526287 4.5 0.525971C4.5 0.525655 4.5 0.525343 4.5 0.525033C4.5 0.524724 4.5 0.524418 4.5 0.524115C4.5 0.523812 4.5 0.523513 4.5 0.523216C4.5 0.52292 4.5 0.522627 4.5 0.522336C4.5 0.522046 4.5 0.52176 4.5 0.521476C4.5 0.521192 4.5 0.520912 4.5 0.520634C4.5 0.520357 4.5 0.520082 4.5 0.519811C4.5 0.51954 4.5 0.519272 4.5 0.519007C4.5 0.518742 4.5 0.51848 4.5 0.518221C4.5 0.517963 4.5 0.517707 4.5 0.517454C4.5 0.517201 4.5 0.516952 4.5 0.516705C4.5 0.516459 4.5 0.516215 4.5 0.515974C4.5 0.515734 4.5 0.515496 4.5 0.515262C4.5 0.515027 4.5 0.514795 4.5 0.514567C4.5 0.514338 4.5 0.514112 4.5 0.51389C4.5 0.513667 4.5 0.513447 4.5 0.51323C4.5 0.513013 4.5 0.512799 4.5 0.512588C4.5 0.512377 4.5 0.512169 4.5 0.511963C4.5 0.511758 4.5 0.511555 4.5 0.511356C4.5 0.511156 4.5 0.510959 4.5 0.510765C4.5 0.510571 4.5 0.51038 4.5 0.510192C4.5 0.510004 4.5 0.509818 4.5 0.509635C4.5 0.509452 4.5 0.509272 4.5 0.509095C4.5 0.508918 4.5 0.508744 4.5 0.508572C4.5 0.5084 4.5 0.508231 4.5 0.508065C4.5 0.507898 4.5 0.507735 4.5 0.507574C4.5 0.507413 4.5 0.507255 4.5 0.507099C4.5 0.506944 4.5 0.506791 4.5 0.506641C4.5 0.50649 4.5 0.506343 4.5 0.506198C4.5 0.506053 4.5 0.505911 4.5 0.505771C4.5 0.505631 4.5 0.505494 4.5 0.505359C4.5 0.505225 4.5 0.505093 4.5 0.504964C4.5 0.504834 4.5 0.504707 4.5 0.504583C4.5 0.504459 4.5 0.504337 4.5 0.504217C4.5 0.504098 4.5 0.503981 4.5 0.503867C4.5 0.503753 4.5 0.503641 4.5 0.503532C4.5 0.503422 4.5 0.503315 4.5 0.503211C4.5 0.503107 4.5 0.503005 4.5 0.502905C4.5 0.502805 4.5 0.502708 4.5 0.502614C4.5 0.502519 4.5 0.502427 4.5 0.502337C4.5 0.502247 4.5 0.502159 4.5 0.502074C4.5 0.501989 4.5 0.501906 4.5 0.501825C4.5 0.501745 4.5 0.501666 4.5 0.50159C4.5 0.501515 4.5 0.501441 4.5 0.50137C4.5 0.501298 4.5 0.501229 4.5 0.501163C4.5 0.501096 4.5 0.501031 4.5 0.500969C4.5 0.500907 4.5 0.500847 4.5 0.500789C4.5 0.500731 4.5 0.500676 4.5 0.500622C4.5 0.500569 4.5 0.500518 4.5 0.500469C4.5 0.50042 4.5 0.500373 4.5 0.500328C4.5 0.500284 4.5 0.500241 4.5 0.500201C4.5 0.50016 4.5 0.500122 4.5 0.500086C4.5 0.50005 4.5 0.500016 4.5 0.499984C4.5 0.499952 4.5 0.499922 4.5 0.499894C4.5 0.499866 4.5 0.499841 4.5 0.499817C4.5 0.499793 4.5 0.499772 4.5 0.499752C4.5 0.499732 4.5 0.499715 4.5 0.499699C4.5 0.499683 4.5 0.49967 4.5 0.499658C4.5 0.499647 4.5 0.499637 4.5 0.499629C4.5 0.499621 4.5 0.499616 4.5 0.499612C4.5 0.499608 4.5 0.499606 4 0.499606C3.5 0.499606 3.5 0.499608 3.5 0.499612C3.5 0.499616 3.5 0.499621 3.5 0.499629C3.5 0.499637 3.5 0.499647 3.5 0.499658C3.5 0.49967 3.5 0.499683 3.5 0.499699C3.5 0.499715 3.5 0.499732 3.5 0.499752C3.5 0.499772 3.5 0.499793 3.5 0.499817C3.5 0.499841 3.5 0.499866 3.5 0.499894C3.5 0.499922 3.5 0.499952 3.5 0.499984C3.5 0.500016 3.5 0.50005 3.5 0.500086C3.5 0.500122 3.5 0.50016 3.5 0.500201C3.5 0.500241 3.5 0.500284 3.5 0.500328C3.5 0.500373 3.5 0.50042 3.5 0.500469C3.5 0.500518 3.5 0.500569 3.5 0.500622C3.5 0.500676 3.5 0.500731 3.5 0.500789C3.5 0.500847 3.5 0.500907 3.5 0.500969C3.5 0.501031 3.5 0.501096 3.5 0.501163C3.5 0.501229 3.5 0.501298 3.5 0.50137C3.5 0.501441 3.5 0.501515 3.5 0.50159C3.5 0.501666 3.5 0.501745 3.5 0.501825C3.5 0.501906 3.5 0.501989 3.5 0.502074C3.5 0.502159 3.5 0.502247 3.5 0.502337C3.5 0.502427 3.5 0.502519 3.5 0.502614C3.5 0.502708 3.5 0.502805 3.5 0.502905C3.5 0.503005 3.5 0.503107 3.5 0.503211C3.5 0.503315 3.5 0.503422 3.5 0.503532C3.5 0.503641 3.5 0.503753 3.5 0.503867C3.5 0.503981 3.5 0.504098 3.5 0.504217C3.5 0.504337 3.5 0.504459 3.5 0.504583C3.5 0.504707 3.5 0.504834 3.5 0.504964C3.5 0.505093 3.5 0.505225 3.5 0.505359C3.5 0.505494 3.5 0.505631 3.5 0.505771C3.5 0.505911 3.5 0.506053 3.5 0.506198C3.5 0.506343 3.5 0.50649 3.5 0.506641C3.5 0.506791 3.5 0.506944 3.5 0.507099C3.5 0.507255 3.5 0.507413 3.5 0.507574C3.5 0.507735 3.5 0.507898 3.5 0.508065C3.5 0.508231 3.5 0.5084 3.5 0.508572C3.5 0.508744 3.5 0.508918 3.5 0.509095C3.5 0.509272 3.5 0.509452 3.5 0.509635C3.5 0.509818 3.5 0.510004 3.5 0.510192C3.5 0.51038 3.5 0.510571 3.5 0.510765C3.5 0.510959 3.5 0.511156 3.5 0.511356C3.5 0.511555 3.5 0.511758 3.5 0.511963C3.5 0.512169 3.5 0.512377 3.5 0.512588C3.5 0.512799 3.5 0.513013 3.5 0.51323C3.5 0.513447 3.5 0.513667 3.5 0.51389C3.5 0.514112 3.5 0.514338 3.5 0.514567C3.5 0.514795 3.5 0.515027 3.5 0.515262C3.5 0.515496 3.5 0.515734 3.5 0.515974C3.5 0.516215 3.5 0.516459 3.5 0.516705C3.5 0.516952 3.5 0.517201 3.5 0.517454C3.5 0.517707 3.5 0.517963 3.5 0.518221C3.5 0.51848 3.5 0.518742 3.5 0.519007C3.5 0.519272 3.5 0.51954 3.5 0.519811C3.5 0.520082 3.5 0.520357 3.5 0.520634C3.5 0.520912 3.5 0.521192 3.5 0.521476C3.5 0.52176 3.5 0.522046 3.5 0.522336C3.5 0.522627 3.5 0.52292 3.5 0.523216C3.5 0.523513 3.5 0.523812 3.5 0.524115C3.5 0.524418 3.5 0.524724 3.5 0.525033C3.5 0.525343 3.5 0.525655 3.5 0.525971C3.5 0.526287 3.5 0.526606 3.5 0.526929C3.5 0.527251 3.5 0.527577 3.5 0.527906C3.5 0.528235 3.5 0.528567 3.5 0.528903C3.5 0.529239 3.5 0.529578 3.5 0.52992C3.5 0.530263 3.5 0.530608 3.5 0.530957C3.5 0.531307 3.5 0.531659 3.5 0.532015C3.5 0.532371 3.5 0.53273 3.5 0.533093C3.5 0.533456 3.5 0.533822 3.5 0.534192C3.5 0.534561 3.5 0.534934 3.5 0.535311C3.5 0.535687 3.5 0.536067 3.5 0.536451C3.5 0.536834 3.5 0.537221 3.5 0.537612C3.5 0.538003 3.5 0.538397 3.5 0.538794C3.5 0.539192 3.5 0.539593 3.5 0.539998C3.5 0.540402 3.5 0.54081 3.5 0.541222C3.5 0.541634 3.5 0.54205 3.5 0.542469C3.5 0.542888 3.5 0.54331 3.5 0.543736C3.5 0.544163 3.5 0.544593 3.5 0.545026C3.5 0.54546 3.5 0.545897 3.5 0.546338C3.5 0.546779 3.5 0.547223 3.5 0.547671C3.5 0.54812 3.5 0.548571 3.5 0.549027C3.5 0.549483 3.5 0.549942 3.5 0.550405C3.5 0.550868 3.5 0.551335 3.5 0.551806C3.5 0.552276 3.5 0.552751 3.5 0.553229C3.5 0.553707 3.5 0.554189 3.5 0.554675C3.5 0.55516 3.5 0.55565 3.5 0.556143C3.5 0.556637 3.5 0.557134 3.5 0.557635C3.5 0.558136 3.5 0.558641 3.5 0.55915C3.5 0.559659 3.5 0.560171 3.5 0.560688C3.5 0.561204 3.5 0.561725 3.5 0.562249C3.5 0.562774 3.5 0.563302 3.5 0.563834C3.5 0.564366 3.5 0.564902 3.5 0.565443C3.5 0.565983 3.5 0.566527 3.5 0.567075C3.5 0.567623 3.5 0.568175 3.5 0.568731C3.5 0.569287 3.5 0.569847 3.5 0.570411C3.5 0.570976 3.5 0.571544 3.5 0.572116C3.5 0.572688 3.5 0.573264 3.5 0.573845C3.5 0.574425 3.5 0.575009 3.5 0.575598C3.5 0.576186 3.5 0.576779 3.5 0.577376C3.5 0.577973 3.5 0.578573 3.5 0.579178C3.5 0.579783 3.5 0.580392 3.5 0.581006C3.5 0.581619 3.5 0.582237 3.5 0.582858C3.5 0.58348 3.5 0.584106 3.5 0.584736C3.5 0.585366 3.5 0.586 3.5 0.586639C3.5 0.587277 3.5 0.58792 3.5 0.588567C3.5 0.589214 3.5 0.589865 3.5 0.59052C3.5 0.591176 3.5 0.591836 3.5 0.5925C3.5 0.593164 3.5 0.593832 3.5 0.594505C3.5 0.595178 3.5 0.595855 3.5 0.596536C3.5 0.597217 3.5 0.597903 3.5 0.598593C3.5 0.599283 3.5 0.599978 3.5 0.600676C3.5 0.601375 3.5 0.602078 3.5 0.602786C3.5 0.603494 3.5 0.604206 3.5 0.604922C3.5 0.605639 3.5 0.60636 3.5 0.607085C3.5 0.60781 3.5 0.60854 3.5 0.609274C3.5 0.610009 3.5 0.610748 3.5 0.611491C3.5 0.612234 3.5 0.612982 3.5 0.613734C3.5 0.614486 3.5 0.615243 3.5 0.616005C3.5 0.616766 3.5 0.617532 3.5 0.618302C3.5 0.619073 3.5 0.619848 3.5 0.620627C3.5 0.621407 3.5 0.622191 3.5 0.62298C3.5 0.623769 3.5 0.624562 3.5 0.62536C3.5 0.626159 3.5 0.626961 3.5 0.627769C3.5 0.628576 3.5 0.629388 3.5 0.630205C3.5 0.631021 3.5 0.631843 3.5 0.632669C3.5 0.633495 3.5 0.634326 3.5 0.635161C3.5 0.635997 3.5 0.636837 3.5 0.637682C3.5 0.638527 3.5 0.639377 3.5 0.640231C3.5 0.641086 3.5 0.641945 3.5 0.642809C3.5 0.643673 3.5 0.644542 3.5 0.645416C3.5 0.646289 3.5 0.647168 3.5 0.648051C3.5 0.648934 3.5 0.649822 3.5 0.650715C3.5 0.651608 3.5 0.652506 3.5 0.653409C3.5 0.654312 3.5 0.655219 3.5 0.656132C3.5 0.657044 3.5 0.657962 3.5 0.658884C3.5 0.659807 3.5 0.660734 3.5 0.661666C3.5 0.662598 3.5 0.663535 3.5 0.664478C3.5 0.66542 3.5 0.666367 3.5 0.667319C3.5 0.668271 3.5 0.669228 3.5 0.67019C3.5 0.671152 3.5 0.672119 3.5 0.673091C3.5 0.674064 3.5 0.675041 3.5 0.676023C3.5 0.677005 3.5 0.677993 3.5 0.678985C3.5 0.679977 3.5 0.680975 3.5 0.681977C3.5 0.68298 3.5 0.683988 3.5 0.685001C3.5 0.686013 3.5 0.687031 3.5 0.688054C3.5 0.689077 3.5 0.690106 3.5 0.691139C3.5 0.692172 3.5 0.693211 3.5 0.694255C3.5 0.695298 3.5 0.696347 3.5 0.697402C3.5 0.698456 3.5 0.699515 3.5 0.70058C3.5 0.701644 3.5 0.702714 3.5 0.703789C3.5 0.704865 3.5 0.705945 3.5 0.707031C3.5 0.708116 3.5 0.709207 3.5 0.710303C3.5 0.7114 3.5 0.712501 3.5 0.713608C3.5 0.714715 3.5 0.715827 3.5 0.716945C3.5 0.718062 3.5 0.719185 3.5 0.720313C3.5 0.721442 3.5 0.722575 3.5 0.723714C3.5 0.724854 3.5 0.725998 3.5 0.727148C3.5 0.728298 3.5 0.729453 3.5 0.730614C3.5 0.731774 3.5 0.73294 3.5 0.734112C3.5 0.735284 3.5 0.736461 3.5 0.737643C3.5 0.738826 3.5 0.740014 3.5 0.741207C3.5 0.742401 3.5 0.7436 3.5 0.744805C3.5 0.746009 3.5 0.747219 3.5 0.748435C3.5 0.749651 3.5 0.750872 3.5 0.752099C3.5 0.753325 3.5 0.754558 3.5 0.755796C3.5 0.757034 3.5 0.758277 3.5 0.759526C3.5 0.760776 3.5 0.76203 3.5 0.763291C3.5 0.764551 3.5 0.765817 3.5 0.767089C3.5 0.768361 3.5 0.769638 3.5 0.770921C3.5 0.772204 3.5 0.773493 3.5 0.774787C3.5 0.776082 3.5 0.777382 3.5 0.778688C3.5 0.779994 3.5 0.781306 3.5 0.782623C3.5 0.78394 3.5 0.785263 3.5 0.786592C3.5 0.787921 3.5 0.789256 3.5 0.790596C3.5 0.791937 3.5 0.793283 3.5 0.794635C3.5 0.795987 3.5 0.797345 3.5 0.798709C3.5 0.800073 3.5 0.801442 3.5 0.802818C3.5 0.804193 3.5 0.805575 3.5 0.806962C3.5 0.808349 3.5 0.809742 3.5 0.811141C3.5 0.81254 3.5 0.813945 3.5 0.815356C3.5 0.816767 3.5 0.818184 3.5 0.819606C3.5 0.821029 3.5 0.822458 3.5 0.823892C3.5 0.825327 3.5 0.826768 3.5 0.828214C3.5 0.829661 3.5 0.831113 3.5 0.832572C3.5 0.834031 3.5 0.835495 3.5 0.836966C3.5 0.838437 3.5 0.839914 3.5 0.841396C3.5 0.842879 3.5 0.844368 3.5 0.845863C3.5 0.847358 3.5 0.848859 3.5 0.850366C3.5 0.851873 3.5 0.853387 3.5 0.854906C3.5 0.856426 3.5 0.857951 3.5 0.859483C3.5 0.861014 3.5 0.862552 3.5 0.864096C3.5 0.86564 3.5 0.867191 3.5 0.868747C3.5 0.870303 3.5 0.871866 3.5 0.873435C3.5 0.875004 3.5 0.876579 3.5 0.87816C3.5 0.879741 3.5 0.881329 3.5 0.882922C3.5 0.884516 3.5 0.886116 3.5 0.887723C3.5 0.889329 3.5 0.890942 3.5 0.892561C3.5 0.89418 3.5 0.895805 3.5 0.897436C3.5 0.899068 3.5 0.900706 3.5 0.90235C3.5 0.903994 3.5 0.905645 3.5 0.907302C3.5 0.908959 3.5 0.910622 3.5 0.912292C3.5 0.913962 3.5 0.915638 3.5 0.917321C3.5 0.919003 3.5 0.920692 3.5 0.922388C3.5 0.924083 3.5 0.925785 3.5 0.927494C3.5 0.929202 3.5 0.930917 3.5 0.932638C3.5 0.93436 3.5 0.936088 3.5 0.937822C3.5 0.939556 3.5 0.941297 3.5 0.943044C3.5 0.944792 3.5 0.946546 3.5 0.948306C3.5 0.950067 3.5 0.951834 3.5 0.953607C3.5 0.955381 3.5 0.957161 3.5 0.958948C3.5 0.960735 3.5 0.962528 3.5 0.964328C3.5 0.966128 3.5 0.967935 3.5 0.969748C3.5 0.971561 3.5 0.973381 3.5 0.975208C3.5 0.977035 3.5 0.978868 3.5 0.980708C3.5 0.982548 3.5 0.984395 3.5 0.986248C3.5 0.988101 3.5 0.989961 3.5 0.991828C3.5 0.993695 3.5 0.995569 3.5 0.997449C3.5 0.999329 3.5 1.00122 3.5 1.00311C3.5 1.005 3.5 1.0069 3.5 1.00881C3.5 1.01072 3.5 1.01263 3.5 1.01455C3.5 1.01648 3.5 1.0184 3.5 1.02034C3.5 1.02227 3.5 1.02421 3.5 1.02616C3.5 1.02811 3.5 1.03007 3.5 1.03203C3.5 1.03399 3.5 1.03596 3.5 1.03794C3.5 1.03991 3.5 1.0419 3.5 1.04389C3.5 1.04588 3.5 1.04787 3.5 1.04988C3.5 1.05188 3.5 1.05389 3.5 1.05591C3.5 1.05793 3.5 1.05995 3.5 1.06198C3.5 1.06401 3.5 1.06605 3.5 1.0681C3.5 1.07014 3.5 1.0722 3.5 1.07426C3.5 1.07632 3.5 1.07838 3.5 1.08046C3.5 1.08253 3.5 1.08461 3.5 1.0867C3.5 1.08879 3.5 1.09088 3.5 1.09299C3.5 1.09509 3.5 1.0972 3.5 1.09931C3.5 1.10143 3.5 1.10355 3.5 1.10568C3.5 1.10782 3.5 1.10995 3.5 1.1121C3.5 1.11424 3.5 1.1164 3.5 1.11856C3.5 1.12072 3.5 1.12288 3.5 1.12506C3.5 1.12723 3.5 1.12941 3.5 1.1316C3.5 1.13379 3.5 1.13598 3.5 1.13819C3.5 1.14039 3.5 1.1426 3.5 1.14482C3.5 1.14704 3.5 1.14926 3.5 1.15149C3.5 1.15372 3.5 1.15596 3.5 1.15821C3.5 1.16046 3.5 1.16271 3.5 1.16497C3.5 1.16723 3.5 1.1695 3.5 1.17178C3.5 1.17406 3.5 1.17634 3.5 1.17863C3.5 1.18092 3.5 1.18322 3.5 1.18553C3.5 1.18783 3.5 1.19015 3.5 1.19247C3.5 1.19479 3.5 1.19711 3.5 1.19945C3.5 1.20179 3.5 1.20413 3.5 1.20648C3.5 1.20883 3.5 1.21119 3.5 1.21355C3.5 1.21592 3.5 1.21829 3.5 1.22067C3.5 1.22305 3.5 1.22544 3.5 1.22784C3.5 1.23023 3.5 1.23264 3.5 1.23505C3.5 1.23746 3.5 1.23988 3.5 1.24231C3.5 1.24473 3.5 1.24716 3.5 1.24961C3.5 1.25205 3.5 1.2545 3.5 1.25695C3.5 1.25941 3.5 1.26187 3.5 1.26435C3.5 1.26682 3.5 1.2693 3.5 1.27179C3.5 1.27427 3.5 1.27677 3.5 1.27927C3.5 1.28177 3.5 1.28428 3.5 1.2868C3.5 1.28932 3.5 1.29185 3.5 1.29438C3.5 1.29691 3.5 1.29946 3.5 1.30201C3.5 1.30455 3.5 1.30711 3.5 1.30968C3.5 1.31224 3.5 1.31481 3.5 1.31739C3.5 1.31998 3.5 1.32256 3.5 1.32516C3.5 1.32776 3.5 1.33036 3.5 1.33297C3.5 1.33558 3.5 1.3382 3.5 1.34083C3.5 1.34346 3.5 1.34609 3.5 1.34874C3.5 1.35138 3.5 1.35403 3.5 1.35669C3.5 1.35935 3.5 1.36202 3.5 1.36469C3.5 1.36737 3.5 1.37005 3.5 1.37274C3.5 1.37544 3.5 1.37814 3.5 1.38084C3.5 1.38355 3.5 1.38627 3.5 1.38899C3.5 1.39171 3.5 1.39444 3.5 1.39718C3.5 1.39992 3.5 1.40267 3.5 1.40542C3.5 1.40818 3.5 1.41094 3.5 1.41372C3.5 1.41649 3.5 1.41927 3.5 1.42206C3.5 1.42484 3.5 1.42764 3.5 1.43044C3.5 1.43325 3.5 1.43606 3.5 1.43888C3.5 1.4417 3.5 1.44453 3.5 1.44737C3.5 1.4502 3.5 1.45305 3.5 1.4559C3.5 1.45875 3.5 1.46162 3.5 1.46449C3.5 1.46736 3.5 1.47023 3.5 1.47312C3.5 1.47601 3.5 1.4789 3.5 1.4818C3.5 1.48471 3.5 1.48762 3.5 1.49054C3.5 1.49346 3.5 1.49638 3.5 1.49932C3.5 1.50225 3.5 1.5052 3.5 1.50815C3.5 1.5111 3.5 1.51406 3.5 1.51703C3.5 1.52 3.5 1.52298 3.5 1.52597C3.5 1.52895 3.5 1.53195 3.5 1.53495C3.5 1.53795 3.5 1.54096 3.5 1.54398C3.5 1.547 3.5 1.55003 3.5 1.55307C3.5 1.55611 3.5 1.55915 3.5 1.5622C3.5 1.56526 3.5 1.56832 3.5 1.57139C3.5 1.57446 3.5 1.57754 3.5 1.58063C3.5 1.58371 3.5 1.58681 3.5 1.58991C3.5 1.59302 3.5 1.59613 3.5 1.59925C3.5 1.60238 3.5 1.60551 3.5 1.60865C3.5 1.61178 3.5 1.61493 3.5 1.61809C3.5 1.62124 3.5 1.62441 3.5 1.62758C3.5 1.63075 3.5 1.63394 3.5 1.63713C3.5 1.64032 3.5 1.64352 3.5 1.64673C3.5 1.64993 3.5 1.65315 3.5 1.65638C3.5 1.6596 3.5 1.66283 3.5 1.66608C3.5 1.66932 3.5 1.67257 3.5 1.67583C3.5 1.67909 3.5 1.68236 3.5 1.68564C3.5 1.68892 3.5 1.6922 3.5 1.6955C3.5 1.69879 3.5 1.7021 3.5 1.70541C3.5 1.70872 3.5 1.71205 3.5 1.71538C3.5 1.71871 3.5 1.72205 3.5 1.72539C3.5 1.72874 3.5 1.7321 3.5 1.73547C3.5 1.73883 3.5 1.74221 3.5 1.74559C3.5 1.74897 3.5 1.75237 3.5 1.75577C3.5 1.75917 3.5 1.76258 3.5 1.766C3.5 1.76942 3.5 1.77285 3.5 1.77629C3.5 1.77972 3.5 1.78317 3.5 1.78662C3.5 1.79008 3.5 1.79354 3.5 1.79702C3.5 1.80049 3.5 1.80397 3.5 1.80746C3.5 1.81096 3.5 1.81446 3.5 1.81797C3.5 1.82148 3.5 1.82499 3.5 1.82852C3.5 1.83205 3.5 1.83559 3.5 1.83913C3.5 1.84268 3.5 1.84623 3.5 1.8498C3.5 1.85336 3.5 1.85693 3.5 1.86052C3.5 1.8641 3.5 1.86769 3.5 1.87129C3.5 1.87489 3.5 1.8785 3.5 1.88212C3.5 1.88574 3.5 1.88937 3.5 1.89301C3.5 1.89664 3.5 1.90029 3.5 1.90395C3.5 1.9076 3.5 1.91127 3.5 1.91494C3.5 1.91862 3.5 1.9223 3.5 1.92599C3.5 1.92968 3.5 1.93339 3.5 1.9371C3.5 1.94081 3.5 1.94453 3.5 1.94826C3.5 1.95199 3.5 1.95573 3.5 1.95948C3.5 1.96323 3.5 1.96699 3.5 1.97075C3.5 1.97452 3.5 1.9783 3.5 1.98209C3.5 1.98587 3.5 1.98967 3.5 1.99347C3.5 1.99728 3.5 2.00109 3.5 2.00492C3.5 2.00874 3.5 2.01257 3.5 2.01642C3.5 2.02026 3.5 2.02411 3.5 2.02797C3.5 2.03184 3.5 2.03571 3.5 2.03959C3.5 2.04347 3.5 2.04736 3.5 2.05126C3.5 2.05516 3.5 2.05907 3.5 2.06299C3.5 2.06691 3.5 2.07083 3.5 2.07477C3.5 2.07871 3.5 2.08266 3.5 2.08662C3.5 2.09057 3.5 2.09454 3.5 2.09852C3.5 2.10249 3.5 2.10648 3.5 2.11047C3.5 2.11447 3.5 2.11848 3.5 2.12249C3.5 2.12651 3.5 2.13053 3.5 2.13457C3.5 2.1386 3.5 2.14264 3.5 2.1467C3.5 2.15075 3.5 2.15481 3.5 2.15889C3.5 2.16296 3.5 2.16704 3.5 2.17114C3.5 2.17523 3.5 2.17933 3.5 2.18344C3.5 2.18756 3.5 2.19168 3.5 2.19581C3.5 2.19994 3.5 2.20408 3.5 2.20824C3.5 2.21239 3.5 2.21655 3.5 2.22072C3.5 2.22489 3.5 2.22907 3.5 2.23326C3.5 2.23745 3.5 2.24165 3.5 2.24586C3.5 2.25007 3.5 2.25429 3.5 2.25853C3.5 2.26276 3.5 2.267 3.5 2.27125C3.5 2.2755 3.5 2.27976 3.5 2.28403C3.5 2.2883 3.5 2.29258 3.5 2.29687C3.5 2.30116 3.5 2.30546 3.5 2.30977C3.5 2.31408 3.5 2.3184 3.5 2.32273C3.5 2.32706 3.5 2.3314 3.5 2.33575C3.5 2.3401 3.5 2.34446 3.5 2.34883C3.5 2.3532 3.5 2.35758 3.5 2.36197C3.5 2.36636 3.5 2.37076 3.5 2.37517C3.5 2.37958 3.5 2.384 3.5 2.38843C3.5 2.39286 3.5 2.3973 3.5 2.40175C3.5 2.4062 3.5 2.41067 3.5 2.41514C3.5 2.41961 3.5 2.42409 3.5 2.42858C3.5 2.43307 3.5 2.43758 3.5 2.44209C3.5 2.4466 3.5 2.45112 3.5 2.45566C3.5 2.46019 3.5 2.46473 3.5 2.46928C3.5 2.47384 3.5 2.4784 3.5 2.48297C3.5 2.48755 3.5 2.49213 3.5 2.49673C3.5 2.50132 3.5 2.50593 3.5 2.51054C3.5 2.51516 3.5 2.51978 3.5 2.52442C3.5 2.52905 3.5 2.5337 3.5 2.53835C3.5 2.54301 3.5 2.54768 3.5 2.55235C3.5 2.55703 3.5 2.56172 3.5 2.56642C3.5 2.57112 3.5 2.57582 3.5 2.58054C3.5 2.58526 3.5 2.58999 3.5 2.59473C3.5 2.59947 3.5 2.60422 3.5 2.60898C3.5 2.61374 3.5 2.61851 3.5 2.6233C3.5 2.62808 3.5 2.63287 3.5 2.63767C3.5 2.64247 3.5 2.64729 3.5 2.65211C3.5 2.65694 3.5 2.66177 3.5 2.66662C3.5 2.67146 3.5 2.67632 3.5 2.68118C3.5 2.68605 3.5 2.69093 3.5 2.69581C3.5 2.7007 3.5 2.7056 3.5 2.71051C3.5 2.71542 3.5 2.72033 3.5 2.72526C3.5 2.73019 3.5 2.73514 3.5 2.74009C3.5 2.74504 3.5 2.75 3.5 2.75497C3.5 2.75995 3.5 2.76493 3.5 2.76992C3.5 2.77492 3.5 2.77992 3.5 2.78494C3.5 2.78995 3.5 2.79498 3.5 2.80002C3.5 2.80506 3.5 2.8101 3.5 2.81516C3.5 2.82022 3.5 2.82529 3.5 2.83037C3.5 2.83545 3.5 2.84054 3.5 2.84565C3.5 2.85075 3.5 2.85586 3.5 2.86098C3.5 2.86611 3.5 2.87124 3.5 2.87639C3.5 2.88153 3.5 2.88669 3.5 2.89186C3.5 2.89703 3.5 2.9022 3.5 2.90739C3.5 2.91258 3.5 2.91778 3.5 2.92299C3.5 2.92821 3.5 2.93343 3.5 2.93866C3.5 2.94389 3.5 2.94914 3.5 2.95439C3.5 2.95965 3.5 2.96491 3.5 2.97019C3.5 2.97547 3.5 2.98076 3.5 2.98606C3.5 2.99136 3.5 2.99667 3.5 3.00199C3.5 3.00731 3.5 3.01264 3.5 3.01798C3.5 3.02333 3.5 3.02868 3.5 3.03405C3.5 3.03941 3.5 3.04479 3.5 3.05018C3.5 3.05557 3.5 3.06097 3.5 3.06638C3.5 3.07179 3.5 3.07721 3.5 3.08264C3.5 3.08807 3.5 3.09352 3.5 3.09897C3.5 3.10443 3.5 3.10989 3.5 3.11537C3.5 3.12085 3.5 3.12634 3.5 3.13184C3.5 3.13734 3.5 3.14285 3.5 3.14837C3.5 3.15389 3.5 3.15943 3.5 3.16497C3.5 3.17052 3.5 3.17607 3.5 3.18164C3.5 3.18721 3.5 3.19279 3.5 3.19838C3.5 3.20397 3.5 3.20957 3.5 3.21518C3.5 3.2208 3.5 3.22642 3.5 3.23206C3.5 3.23769 3.5 3.24334 3.5 3.249C3.5 3.25466 3.5 3.26033 3.5 3.26601C3.5 3.27169 3.5 3.27738 3.5 3.28308C3.5 3.28879 3.5 3.2945 3.5 3.30023C3.5 3.30596 3.5 3.3117 3.5 3.31745C3.5 3.3232 3.5 3.32896 3.5 3.33473C3.5 3.34051 3.5 3.34629 3.5 3.35209C3.5 3.35788 3.5 3.36369 3.5 3.36951C3.5 3.37533 3.5 3.38116 3.5 3.387C3.5 3.39285 3.5 3.3987 3.5 3.40457C3.5 3.41043 3.5 3.41631 3.5 3.4222C3.5 3.42809 3.5 3.43399 3.5 3.4399C3.5 3.44581 3.5 3.45173 3.5 3.45767C3.5 3.46361 3.5 3.46955 3.5 3.47551C3.5 3.48147 3.5 3.48744 3.5 3.49342C3.5 3.49941 3.5 3.5054 3.5 3.51141C3.5 3.51741 3.5 3.52343 3.5 3.52946C3.5 3.53549 3.5 3.54153 3.5 3.54758C3.5 3.55363 3.5 3.5597 3.5 3.56577C3.5 3.57185 3.5 3.57794 3.5 3.58404C3.5 3.59014 3.5 3.59625 3.5 3.60238C3.5 3.6085 3.5 3.61463 3.5 3.62078C3.5 3.62693 3.5 3.63309 3.5 3.63926C3.5 3.64543 3.5 3.65161 3.5 3.65781C3.5 3.664 3.5 3.67021 3.5 3.67643C3.5 3.68265 3.5 3.68888 3.5 3.69512C3.5 3.70137 3.5 3.70762 3.5 3.71389C3.5 3.72015 3.5 3.72643 3.5 3.73272C3.5 3.73901 3.5 3.74532 3.5 3.75163C3.5 3.75795 3.5 3.76427 3.5 3.77061C3.5 3.77695 3.5 3.7833 3.5 3.78967C3.5 3.79603 3.5 3.8024 3.5 3.80879C3.5 3.81518 3.5 3.82158 3.5 3.82799C3.5 3.8344 3.5 3.84082 3.5 3.84726C3.5 3.8537 3.5 3.86014 3.5 3.8666C3.5 3.87306 3.5 3.87954 3.5 3.88602C3.5 3.89251 3.5 3.899 3.5 3.90551C3.5 3.91202 3.5 3.91854 3.5 3.92507C3.5 3.93161 3.5 3.93815 3.5 3.94471C3.5 3.95127 3.5 3.95784 3.5 3.96442C3.5 3.971 3.5 3.9776 3.5 3.9842C3.5 3.99081 3.5 3.99743 3.5 4.00406C3.5 4.01069 3.5 4.01734 3.5 4.02399C3.5 4.03065 3.5 4.03732 3.5 4.044C3.5 4.05068 3.5 4.05737 3.5 4.06408C3.5 4.07078 3.5 4.0775 3.5 4.08423C3.5 4.09096 3.5 4.0977 3.5 4.10446C3.5 4.11122 3.5 4.11798 3.5 4.12476C3.5 4.13154 3.5 4.13834 3.5 4.14514C3.5 4.15195 3.5 4.15876 3.5 4.16559C3.5 4.17242 3.5 4.17927 3.5 4.18612C3.5 4.19298 3.5 4.19984 3.5 4.20672C3.5 4.2136 3.5 4.2205 3.5 4.2274C3.5 4.23431 3.5 4.24123 3.5 4.24816C3.5 4.25509 3.5 4.26203 3.5 4.26899C3.5 4.27594 3.5 4.28291 3.5 4.28989C3.5 4.29687 3.5 4.30386 3.5 4.31087C3.5 4.31788 3.5 4.3249 3.5 4.33193C3.5 4.33896 3.5 4.346 3.5 4.35306C3.5 4.36012 3.5 4.36719 3.5 4.37427C3.5 4.38135 3.5 4.38845 3.5 4.39555C3.5 4.40266 3.5 4.40978 3.5 4.41692C3.5 4.42405 3.5 4.43119 3.5 4.43835C3.5 4.44551 3.5 4.45268 3.5 4.45987C3.5 4.46705 3.5 4.47425 3.5 4.48146C3.5 4.48867 3.5 4.49589 3.5 4.50313C3.5 4.51037 3.5 4.51761 3.5 4.52488C3.5 4.53214 3.5 4.53941 3.5 4.5467C3.5 4.55399 3.5 4.56129 3.5 4.5686C3.5 4.57591 3.5 4.58324 3.5 4.59058C3.5 4.59792 3.5 4.60527 3.5 4.61263C3.5 4.62 3.5 4.62738 3.5 4.63477C3.5 4.64216 3.5 4.64956 3.5 4.65698C3.5 4.6644 3.5 4.67183 3.5 4.67927C3.5 4.68671 3.5 4.69417 3.5 4.70164C3.5 4.70911 3.5 4.71659 3.5 4.72409C3.5 4.73158 3.5 4.73909 3.5 4.74661C3.5 4.75413 3.5 4.76167 3.5 4.76921C3.5 4.77676 3.5 4.78432 3.5 4.7919C3.5 4.79947 3.5 4.80706 3.5 4.81466C3.5 4.82226 3.5 4.82987 3.5 4.8375C3.5 4.84513 3.5 4.85277 3.5 4.86042C3.5 4.86807 3.5 4.87574 3.5 4.88342C3.5 4.8911 3.5 4.89879 3.5 4.9065C3.5 4.9142 3.5 4.92192 3.5 4.92965C3.5 4.93739 3.5 4.94513 3.5 4.95289C3.5 4.96065 3.5 4.96842 3.5 4.97621C3.5 4.98399 3.5 4.99179 3.5 4.99961H4.5Z" fill="#0064FF"/>
</svg>
