<svg xmlns="http://www.w3.org/2000/svg" width="32" height="32" viewBox="0 0 32 32" fill="none">
  <path d="M15.9974 29.6667C23.3307 29.6667 29.3307 23.6667 29.3307 16.3333C29.3307 9 23.3307 3 15.9974 3C8.66406 3 2.66406 9 2.66406 16.3333C2.66406 23.6667 8.66406 29.6667 15.9974 29.6667Z" stroke="#AFB4D1" stroke-width="2" stroke-linecap="round" stroke-linejoin="round"></path>
  <path d="M7.66406 16.418C7.66406 17.5014 7.87745 18.5742 8.29206 19.5751C8.70666 20.576 9.31435 21.4855 10.0804 22.2516C10.8465 23.0177 11.756 23.6254 12.7569 24.04C13.7579 24.4546 14.8307 24.668 15.9141 24.668C16.9975 24.668 18.0703 24.4546 19.0712 24.04C20.0721 23.6254 20.9816 23.0177 21.7477 22.2516C22.5138 21.4855 23.1215 20.576 23.5361 19.5751C23.9507 18.5742 24.1641 17.5014 24.1641 16.418C24.1641 14.2299 23.2949 12.1315 21.7477 10.5843C20.2005 9.03716 18.1021 8.16797 15.9141 8.16797C13.726 8.16797 11.6276 9.03716 10.0804 10.5843C8.53326 12.1315 7.66406 14.2299 7.66406 16.418Z" fill="#AFB4D1" stroke="#AFB4D1" stroke-width="2" stroke-linecap="round" stroke-linejoin="round"></path>
  <path d="M15.3349 11.9339L15.3349 17.3848L21.3292 16.9088" stroke="white" stroke-width="2" stroke-linecap="round" stroke-linejoin="round"></path>
  <circle cx="25.8" cy="6.4" r="4.6" fill="#E8770E" stroke="white" stroke-width="1.6"></circle>
</svg>
