<svg viewBox="0 0 32 32" width="32" height="32" fill="none" xmlns="http://www.w3.org/2000/svg"><path fill="#FFA02F" stroke="#FFA02F" stroke-linecap="round" stroke-linejoin="round" stroke-width="1.5" d="M16 29.33c7.33 0 13.33-6 13.33-13.33S23.33 2.67 16 2.67 2.67 8.67 2.67 16s6 13.33 13.33 13.33Z"></path><path fill="#fff" d="M16.91 20.18h-1.37l-.6-12.32h2.57l-.6 12.32Zm-2.18 3.52c0-.59.14-1 .43-1.24a1.6 1.6 0 0 1 1.06-.36c.4 0 .74.12 1.03.36.3.24.45.65.45 1.24 0 .58-.15 1-.45 1.25a1.5 1.5 0 0 1-1.03.39c-.42 0-.77-.13-1.06-.39-.29-.25-.43-.67-.43-1.25Z"></path></svg>
