<svg width="32" height="32" viewBox="0 0 32 32" fill="none" xmlns="http://www.w3.org/2000/svg">
    <path d="M16.0003 29.3337C23.3337 29.3337 29.3337 23.3337 29.3337 16.0003C29.3337 8.66699 23.3337 2.66699 16.0003 2.66699C8.66699 2.66699 2.66699 8.66699 2.66699 16.0003C2.66699 23.3337 8.66699 29.3337 16.0003 29.3337Z" stroke="#FFC061" stroke-width="2" stroke-linecap="round" stroke-linejoin="round"/>
    <path d="M12 12C12 11.2044 12.3687 10.4413 13.0251 9.87868C13.6815 9.31607 14.5717 9 15.5 9H16.5C17.4283 9 18.3185 9.31607 18.9749 9.87868C19.6313 10.4413 20 11.2044 20 12C20.0368 12.6493 19.8617 13.2929 19.501 13.834C19.1402 14.3751 18.6135 14.7843 18 15C17.3865 15.2876 16.8598 15.8333 16.499 16.5547C16.1383 17.2761 15.9632 18.1343 16 19" stroke="#FFC061" stroke-width="2" stroke-linecap="round" stroke-linejoin="round"/>
    <path d="M16 23V23.01" stroke="#FFC061" stroke-width="2" stroke-linecap="round" stroke-linejoin="round"/>
</svg>
