<svg width="17" height="16" viewBox="0 0 17 16" fill="none" xmlns="http://www.w3.org/2000/svg">
    <path fill-rule="evenodd" clip-rule="evenodd" d="M12.3477 4.38727C10.5252 2.51191 7.51535 2.19751 5.31262 3.76623C4.21606 4.54717 3.51875 5.65806 3.24475 6.85771C3.15691 7.2423 2.77394 7.48286 2.38937 7.39502C2.00479 7.30718 1.76423 6.9242 1.85207 6.53961C2.20118 5.01113 3.09171 3.59409 4.48394 2.60258C7.30684 0.592178 11.183 1.02523 13.4814 3.5064L13.6493 2.46694C13.7122 2.0775 14.0789 1.81281 14.4684 1.87574C14.8578 1.93866 15.1225 2.30538 15.0596 2.69482L14.6118 5.46608C14.5491 5.85382 14.1852 6.11823 13.7971 6.05797L10.9699 5.61905C10.5801 5.55853 10.3132 5.19346 10.3737 4.80363C10.4342 4.41381 10.7992 4.14686 11.1891 4.20738L12.3477 4.38727ZM14.5737 8.28218C14.9625 8.34886 15.2236 8.71811 15.1569 9.10693C14.8716 10.7707 13.9488 12.33 12.4508 13.3968C9.62637 15.4083 5.74756 14.9736 3.44966 12.4889L3.28048 13.5359C3.21756 13.9254 2.85085 14.1901 2.46142 14.1271C2.07199 14.0642 1.80731 13.6975 1.87023 13.308L2.31801 10.5368C2.33833 10.4111 2.39032 10.2983 2.46454 10.2054C2.52759 10.1229 2.6097 10.0529 2.70848 10.0027C2.89002 9.91052 3.09239 9.9033 3.27029 9.96626L5.95988 10.3838C6.34969 10.4443 6.61664 10.8094 6.55612 11.1992C6.4956 11.5891 6.13054 11.856 5.74073 11.7955L4.59191 11.6171C6.41491 13.488 9.42136 13.8004 11.6221 12.2331C12.8035 11.3917 13.5254 10.1687 13.7489 8.86545C13.8156 8.47663 14.1849 8.21549 14.5737 8.28218Z" fill="#0064FF"/>
</svg>
