<svg width="17" height="16" viewBox="0 0 17 16" fill="none" xmlns="http://www.w3.org/2000/svg">
    <path fill-rule="evenodd" clip-rule="evenodd" d="M12.3468 4.38763C10.5243 2.51228 7.51437 2.19787 5.31165 3.7666C4.21509 4.54754 3.51777 5.65843 3.24377 6.85808C3.15594 7.24267 2.77297 7.48323 2.38839 7.39538C2.00381 7.30754 1.76326 6.92456 1.8511 6.53998C2.2002 5.0115 3.09073 3.59446 4.48297 2.60294C7.30587 0.592544 11.182 1.0256 13.4804 3.50676L13.6483 2.46731C13.7113 2.07787 14.078 1.81318 14.4674 1.8761C14.8568 1.93903 15.1215 2.30575 15.0586 2.69519L14.6108 5.46644C14.5482 5.85418 14.1842 6.11859 13.7961 6.05834L10.9689 5.61942C10.5791 5.5589 10.3122 5.19382 10.3727 4.804C10.4332 4.41418 10.7983 4.14723 11.1881 4.20775L12.3468 4.38763ZM14.5727 8.28254C14.9615 8.34922 15.2226 8.71848 15.1559 9.10729C14.8706 10.771 13.9478 12.3303 12.4498 13.3971C9.62539 15.4086 5.74659 14.974 3.44868 12.4893L3.27951 13.5363C3.21658 13.9257 2.84987 14.1904 2.46044 14.1275C2.07101 14.0646 1.80633 13.6979 1.86926 13.3084L2.31704 10.5372C2.33735 10.4114 2.38934 10.2987 2.46356 10.2058C2.52661 10.1232 2.60872 10.0532 2.70751 10.0031C2.88904 9.91089 3.09141 9.90367 3.26931 9.96662L5.95891 10.3842C6.34872 10.4447 6.61566 10.8098 6.55515 11.1996C6.49463 11.5894 6.12956 11.8564 5.73975 11.7959L4.59093 11.6175C6.41394 13.4884 9.42039 13.8008 11.6211 12.2335C12.8026 11.3921 13.5245 10.1691 13.748 8.86582C13.8146 8.477 14.1839 8.21586 14.5727 8.28254Z" fill="#C4CAD4"/>
</svg>
