<svg xmlns="http://www.w3.org/2000/svg" viewBox="0 0 20 20"><circle cx="9.9" cy="9.9" r="3"/><path d="M3 14c-1.7 0-3 1.3-3 3s1.3 3 3 3 3-1.3 3-3-1.3-3-3-3zm0 5c-1.1 0-2-.9-2-2s.9-2 2-2 2 .9 2 2-.9 2-2 2zM3 0C1.3 0 0 1.3 0 3s1.3 3 3 3 3-1.3 3-3-1.3-3-3-3zm0 5c-1.1 0-2-.9-2-2s.9-2 2-2 2 .9 2 2-.9 2-2 2zm14 9c-1.7 0-3 1.3-3 3s1.3 3 3 3 3-1.3 3-3-1.3-3-3-3zm0 5c-1.1 0-2-.9-2-2s.9-2 2-2 2 .9 2 2-.9 2-2 2zm0-19c-1.7 0-3 1.3-3 3s1.3 3 3 3 3-1.3 3-3-1.3-3-3-3zm0 5c-1.1 0-2-.9-2-2s.9-2 2-2 2 .9 2 2-.9 2-2 2zm-7 5L5 5"/><path d="M5.379 4.671l5.02 5.02-.707.708-5.02-5.02zM10 10l5-5"/><path d="M14.621 4.671l.707.708-5.02 5.02-.707-.707z"/><path d="M10 10l5 5m-4.621-5.329l5.02 5.02-.707.708-5.02-5.02z"/><path d="M10 10l-5 5m4.621-5.329l.707.708-5.02 5.02-.707-.707z"/></svg>