<svg width="818" height="226" viewBox="0 0 818 226" fill="none" xmlns="http://www.w3.org/2000/svg">
<g clip-path="url(#clip0_1473_1386)">
<path d="M210.828 64.9424H225.177C236.351 64.9424 244.403 72.9167 244.403 83.8589C244.403 94.801 236.274 102.879 225.177 102.879H210.828V64.9424ZM224.97 95.2655C231.474 95.2655 236.016 90.4912 236.016 83.8589C236.016 77.2265 231.499 72.5554 224.97 72.5554H219.035V95.2397H224.97V95.2655Z" fill="white"/>
<path d="M248.531 88.2459C248.531 79.42 255.035 72.7876 263.706 72.7876C272.377 72.7876 278.854 79.7039 278.854 88.1427C278.854 88.9169 278.803 89.6911 278.7 90.4653H256.557C257.254 94.4654 259.86 96.659 263.706 96.659C266.441 96.659 268.712 95.3687 269.925 93.2783H278.235C276.119 99.6526 270.519 103.73 263.706 103.73C255.06 103.73 248.531 97.0461 248.531 88.2717V88.2459ZM270.957 85.0459C269.848 81.4587 267.267 79.5232 263.732 79.5232C260.196 79.5232 257.719 81.5878 256.789 85.0459H270.957Z" fill="white"/>
<path d="M282.468 88.1426C282.468 79.3683 289.152 72.7617 298.055 72.7617C305.642 72.7617 311.501 77.5618 312.946 84.7619H305.1C303.81 81.8716 301.178 80.1941 298.029 80.1941C293.745 80.1941 290.52 83.6264 290.52 88.1684C290.52 92.7105 293.797 96.2202 298.029 96.2202C301.229 96.2202 303.758 94.4395 305.1 91.3169H313.075C311.707 98.6719 305.694 103.653 298.055 103.653C289.255 103.653 282.519 96.8654 282.519 88.1168L282.468 88.1426Z" fill="white"/>
<path d="M326.211 88.8653V102.878H318.288V63.0583H326.211V86.6201L335.088 73.6134H344.121L334.211 87.6007L345.179 102.853H335.63L326.211 88.8395V88.8653Z" fill="white"/>
<path d="M363.166 79.8587C359.218 79.8587 356.611 82.749 356.611 87.4975V102.878H348.688V63.0583H356.611V76.3231C358.831 74.2069 361.953 72.9166 365.463 72.9166C372.095 72.9166 376.199 77.6393 376.199 85.0975V102.878H368.276V86.4136C368.276 82.0264 366.728 79.8587 363.166 79.8587Z" fill="white"/>
<path d="M381.334 88.2459C381.334 79.3684 388.095 72.7876 397.154 72.7876C406.212 72.7876 412.973 79.3684 412.973 88.2459C412.973 97.1235 406.186 103.704 397.154 103.704C388.121 103.704 381.334 97.0719 381.334 88.2459ZM404.947 88.2459C404.947 83.4975 401.721 80.22 397.154 80.22C392.586 80.22 389.36 83.4975 389.36 88.2459C389.36 92.9944 392.586 96.2719 397.154 96.2719C401.721 96.2719 404.947 92.9944 404.947 88.2459Z" fill="white"/>
<path d="M418.057 90.5173V73.6138H425.979V89.6141C425.979 93.769 428.173 96.2722 431.838 96.2722C435.502 96.2722 437.644 93.7432 437.644 89.6141V73.6138H445.567V90.5173C445.567 98.4142 440.122 103.705 431.838 103.705C423.554 103.705 418.082 98.4142 418.082 90.5173H418.057Z" fill="white"/>
<path d="M450.678 93.2266H458.394C458.446 95.8331 460.433 97.1234 463.272 97.1234C465.465 97.1234 467.426 96.117 467.426 94.1815C467.426 92.2459 464.897 91.575 461.801 91.0588C457.129 90.2846 451.168 89.0201 451.168 82.1296C451.168 76.5811 455.865 72.7617 462.936 72.7617C470.007 72.7617 474.627 76.6844 474.652 82.5425H467.143C467.117 80.2199 465.491 79.0586 462.73 79.0586C460.278 79.0586 458.807 80.1941 458.807 81.8716C458.807 83.8329 461.31 84.2716 464.355 84.8135C469.13 85.6652 475.22 86.6716 475.22 93.8202C475.22 99.7816 470.343 103.678 462.962 103.678C455.581 103.678 450.704 99.4977 450.678 93.2266Z" fill="white"/>
<path d="M479.014 88.2459C479.014 79.42 485.517 72.7876 494.188 72.7876C502.859 72.7876 509.337 79.7039 509.337 88.1427C509.337 88.9169 509.285 89.6911 509.182 90.4653H487.04C487.736 94.4654 490.343 96.659 494.188 96.659C496.924 96.659 499.195 95.3687 500.408 93.2783H508.717C506.601 99.6526 501.001 103.73 494.188 103.73C485.543 103.73 479.014 97.0461 479.014 88.2717V88.2459ZM501.44 85.0459C500.33 81.4587 497.749 79.5232 494.214 79.5232C490.678 79.5232 488.201 81.5878 487.272 85.0459H501.44Z" fill="white"/>
<path d="M219.035 142.853V161.382H210.828V123.446H219.035V140.995L231.474 123.446H241.022L228.016 141.692L242.416 161.357H232.403L219.009 142.827L219.035 142.853Z" fill="white"/>
<path d="M243.293 149.021V132.118H251.216V148.118C251.216 152.273 253.409 154.776 257.074 154.776C260.738 154.776 262.88 152.247 262.88 148.118V132.118H270.803V149.021C270.803 156.918 265.358 162.209 257.074 162.209C248.79 162.209 243.319 156.918 243.319 149.021H243.293Z" fill="white"/>
<path d="M284.611 158.931L283.682 161.383H277.85V121.588H285.772V133.718C288.043 132.169 290.779 131.318 293.798 131.318C302.727 131.318 309.179 137.898 309.179 146.776C309.179 155.654 302.727 162.234 293.798 162.234C290.237 162.234 287.088 161.021 284.637 158.957L284.611 158.931ZM301.076 146.75C301.076 142.156 297.695 138.724 293.101 138.724C288.508 138.724 285.127 142.156 285.127 146.75C285.127 151.344 288.508 154.724 293.101 154.724C297.695 154.724 301.076 151.292 301.076 146.75Z" fill="white"/>
<path d="M312.92 146.75C312.92 137.924 319.423 131.292 328.094 131.292C336.766 131.292 343.243 138.208 343.243 146.647C343.243 147.421 343.191 148.195 343.088 148.969H320.946C321.643 152.97 324.249 155.163 328.094 155.163C330.83 155.163 333.101 153.873 334.314 151.782H342.624C340.508 158.157 334.907 162.234 328.094 162.234C319.449 162.234 312.92 155.55 312.92 146.776V146.75ZM335.32 143.576C334.211 139.989 331.63 138.053 328.094 138.053C324.559 138.053 322.081 140.118 321.152 143.576H335.32Z" fill="white"/>
<path d="M348.74 132.117H353.824L355.218 135.705C357.308 133.124 359.94 131.963 363.708 131.963H366.315V139.421H362.882C358.418 139.421 356.663 141.382 356.663 146.182V161.383H348.74V132.117Z" fill="white"/>
<path d="M384.715 138.389C380.637 138.389 378.16 141.305 378.16 146.028V161.409H370.237V132.144H375.657L377.205 135.757C379.425 133.124 382.909 131.447 386.909 131.447C393.567 131.447 397.722 136.273 397.722 143.679V161.409H389.799V144.944C389.799 140.531 388.122 138.389 384.689 138.389H384.715Z" fill="white"/>
<path d="M402.857 146.75C402.857 137.924 409.361 131.292 418.032 131.292C426.703 131.292 433.181 138.208 433.181 146.647C433.181 147.421 433.129 148.195 433.026 148.969H410.883C411.58 152.97 414.187 155.163 418.032 155.163C420.767 155.163 423.038 153.873 424.251 151.782H432.561C430.445 158.157 424.845 162.234 418.032 162.234C409.387 162.234 402.857 155.55 402.857 146.776V146.75ZM425.284 143.576C424.174 139.989 421.593 138.053 418.058 138.053C414.522 138.053 412.045 140.118 411.116 143.576H425.284Z" fill="white"/>
<path d="M440.458 150.931V138.466H435.168V136.763L446.729 124.479H448.252V132.118H456.33V138.466H448.381V149.873C448.381 152.712 450.007 154.338 452.897 154.338H456.484V161.383H450.859C444.433 161.383 440.458 157.434 440.458 150.931Z" fill="white"/>
<path d="M459.606 146.75C459.606 137.924 466.11 131.292 474.781 131.292C483.452 131.292 489.93 138.208 489.93 146.647C489.93 147.421 489.878 148.195 489.775 148.969H467.632C468.329 152.97 470.936 155.163 474.781 155.163C477.516 155.163 479.787 153.873 481 151.782H489.31C487.194 158.157 481.594 162.234 474.781 162.234C466.136 162.234 459.606 155.55 459.606 146.776V146.75ZM482.033 143.576C480.923 139.989 478.342 138.053 474.807 138.053C471.271 138.053 468.794 140.118 467.865 143.576H482.033Z" fill="white"/>
<path d="M493.517 151.757H501.233C501.284 154.363 503.272 155.653 506.11 155.653C508.304 155.653 510.265 154.647 510.265 152.711C510.265 150.776 507.736 150.105 504.639 149.589C499.968 148.815 494.007 147.55 494.007 140.66C494.007 135.111 498.704 131.292 505.775 131.292C512.846 131.292 517.465 135.214 517.491 141.073H509.981C509.956 138.75 508.33 137.589 505.568 137.589C503.117 137.589 501.646 138.724 501.646 140.402C501.646 142.363 504.149 142.802 507.194 143.344C511.969 144.195 518.059 145.202 518.059 152.35C518.059 158.312 513.181 162.208 505.801 162.208C498.42 162.208 493.542 158.028 493.517 151.757Z" fill="white"/>
<path d="M537.362 123.446H551.969C559.582 123.446 565.363 128.995 565.363 136.479C565.363 143.963 559.582 149.511 551.969 149.511H545.569V161.357H537.362V123.421V123.446ZM551.608 141.95C554.859 141.95 557.053 139.653 557.053 136.505C557.053 133.356 554.885 131.059 551.608 131.059H545.569V141.95H551.608Z" fill="white"/>
<path d="M569.803 121.588H577.725V161.383H569.803V121.588Z" fill="white"/>
<path d="M583.222 146.698C583.222 137.873 589.777 131.292 598.577 131.292C602.345 131.292 605.648 132.608 608.177 134.879L609.029 132.092H614.938V161.357H608.745L608.074 158.75C605.57 160.944 602.293 162.234 598.603 162.234C589.802 162.234 583.248 155.602 583.248 146.724L583.222 146.698ZM607.196 146.698C607.196 142.105 603.816 138.673 599.222 138.673C594.628 138.673 591.248 142.105 591.248 146.698C591.248 151.292 594.628 154.724 599.222 154.724C603.816 154.724 607.196 151.292 607.196 146.698Z" fill="white"/>
<path d="M624.048 150.931V138.466H618.758V136.763L630.319 124.479H631.842V132.118H639.919V138.466H631.971V149.873C631.971 152.712 633.597 154.338 636.487 154.338H640.074V161.383H634.448C628.022 161.383 624.048 157.434 624.048 150.931Z" fill="white"/>
<path d="M648.255 139.034H643.197V132.505H648.307V129.847C648.307 124.247 651.455 120.66 657.598 120.66H663.481V126.879H659.172C657.081 126.879 655.972 127.963 655.972 130.028V132.479H663.533V139.008H656.178V161.357H648.255V139.008V139.034Z" fill="white"/>
<path d="M665.752 146.75C665.752 137.873 672.513 131.292 681.572 131.292C690.63 131.292 697.391 137.873 697.391 146.75C697.391 155.628 690.604 162.208 681.572 162.208C672.539 162.208 665.752 155.576 665.752 146.75ZM689.365 146.75C689.365 142.002 686.139 138.724 681.572 138.724C677.004 138.724 673.778 142.002 673.778 146.75C673.778 151.499 677.004 154.776 681.572 154.776C686.139 154.776 689.365 151.499 689.365 146.75Z" fill="white"/>
<path d="M702.888 132.117H707.972L709.365 135.705C711.456 133.124 714.088 131.963 717.856 131.963H720.462V139.421H717.03C712.565 139.421 710.81 141.382 710.81 146.182V161.383H702.888V132.117Z" fill="white"/>
<path d="M724.386 132.118H729.908L731.379 135.757C733.444 133.15 736.67 131.447 740.102 131.447C743.818 131.447 746.889 133.176 748.593 136.118C750.58 133.279 753.935 131.447 757.651 131.447C763.715 131.447 767.948 136.195 767.948 143.06V161.409H760.025V144.376C760.025 140.479 758.502 138.415 755.612 138.415C752.076 138.415 749.986 141.021 749.986 145.589V161.409H742.27V144.376C742.27 140.479 740.773 138.415 737.96 138.415C734.373 138.415 732.257 141.021 732.257 145.589V161.409H724.334V132.144L724.386 132.118Z" fill="white"/>
<path d="M125.176 175.551L117.847 162.879L152.428 142.905V102.956H167.035V151.37L125.176 175.551Z" fill="white"/>
<path d="M91.9362 175.576L50 151.37V102.956H64.6325V142.905L99.2654 162.905L91.9362 175.576Z" fill="white"/>
<path d="M143.138 86.8781L108.531 66.9035L73.8981 86.8781L66.5947 74.2069L108.531 50L150.467 74.2069L143.138 86.8781Z" fill="white"/>
<path d="M108.53 88.0137L82.9297 102.801V132.376L108.53 147.163L134.131 132.376V102.801L108.53 88.0137ZM121.717 117.588C121.717 123.963 116.556 129.124 110.182 129.124H98.6461V106.053H110.182C116.556 106.053 121.717 111.214 121.717 117.588Z" fill="white"/>
</g>
<defs>
<clipPath id="clip0_1473_1386">
<rect width="718" height="125.576" fill="white" transform="translate(50 50)"/>
</clipPath>
</defs>
</svg>
