<svg width="20" height="20" viewBox="0 0 20 20" fill="none" xmlns="http://www.w3.org/2000/svg">
<g clip-path="url(#clip0_1_38)">
<path d="M17.8249 0.375H2.17493C1.18214 0.375 0.375 1.18214 0.375 2.175V17.825C0.375 18.8179 1.18214 19.625 2.17493 19.625H17.8249C18.8179 19.625 19.625 18.8179 19.625 17.825V2.17493C19.625 1.18214 18.8179 0.375 17.8249 0.375ZM6.725 15.2393C6.04643 15.2321 5.36064 15.2321 4.67493 15.2393C4.54636 15.2393 4.51064 15.2036 4.51064 15.0679V7.825C4.51064 7.68929 4.5535 7.65357 4.68207 7.65357C5.36064 7.66071 6.04643 7.66071 6.725 7.65357C6.86064 7.65357 6.89643 7.69643 6.88929 7.825V11.4536C6.88929 12.6607 6.88929 13.8678 6.89643 15.075C6.89643 15.2036 6.85357 15.2393 6.725 15.2393ZM5.7035 6.68207C4.94636 6.68929 4.32493 6.05357 4.32493 5.30357C4.33207 4.58207 4.88214 3.93214 5.69643 3.925C6.46779 3.91786 7.08214 4.50357 7.08214 5.30357C7.08214 6.08929 6.48207 6.675 5.7035 6.68207ZM15.4607 15.2393H13.4536C13.2892 15.2393 13.2821 15.2321 13.2821 15.0607V11.3893C13.2821 11.0464 13.275 10.7036 13.1749 10.3679C13.0179 9.84643 12.6821 9.59643 12.1321 9.58207C11.7464 9.575 11.3821 9.64643 11.1106 9.94643C10.8892 10.1821 10.7964 10.4679 10.7535 10.7821C10.725 11.0606 10.7035 11.3464 10.7035 11.6321C10.6964 12.7821 10.6964 13.9321 10.7035 15.0749C10.7035 15.2036 10.6678 15.2393 10.5464 15.2393C9.86064 15.2321 9.16786 15.2321 8.48207 15.2393C8.36072 15.2393 8.31786 15.2036 8.31786 15.0749C8.325 12.6607 8.325 10.2393 8.31786 7.81786C8.31786 7.68929 8.36786 7.65357 8.48207 7.65357C9.13922 7.66071 9.79643 7.66071 10.4536 7.65357C10.5821 7.65357 10.6249 7.70357 10.6178 7.825C10.6106 8.08929 10.6178 8.36072 10.6178 8.625C10.9893 8.075 11.4893 7.725 12.1179 7.56786C12.8464 7.38929 13.5678 7.44643 14.2536 7.74643C14.9179 8.03214 15.275 8.575 15.4607 9.24643C15.5893 9.68214 15.6464 10.1321 15.6536 10.5893C15.6606 12.0679 15.6678 13.5464 15.675 15.0321C15.6749 15.2393 15.6749 15.2393 15.4607 15.2393Z" fill="#0097D3"/>
</g>
<defs>
<clipPath id="clip0_1_38">
<rect width="20" height="20" fill="white"/>
</clipPath>
</defs>
</svg>
